<?xml version="1.0" encoding="utf-8" standalone="no"?>
<!DOCTYPE svg PUBLIC "-//W3C//DTD SVG 1.1//EN"
  "http://www.w3.org/Graphics/SVG/1.1/DTD/svg11.dtd">
<svg xmlns:xlink="http://www.w3.org/1999/xlink" width="720pt" height="432pt" viewBox="0 0 720 432" xmlns="http://www.w3.org/2000/svg" version="1.1">
 <metadata>
  <rdf:RDF xmlns:dc="http://purl.org/dc/elements/1.1/" xmlns:cc="http://creativecommons.org/ns#" xmlns:rdf="http://www.w3.org/1999/02/22-rdf-syntax-ns#">
   <cc:Work>
    <dc:type rdf:resource="http://purl.org/dc/dcmitype/StillImage"/>
    <dc:date>2025-06-05T13:33:39.844420</dc:date>
    <dc:format>image/svg+xml</dc:format>
    <dc:creator>
     <cc:Agent>
      <dc:title>Matplotlib v3.8.4, https://matplotlib.org/</dc:title>
     </cc:Agent>
    </dc:creator>
   </cc:Work>
  </rdf:RDF>
 </metadata>
 <defs>
  <style type="text/css">*{stroke-linejoin: round; stroke-linecap: butt}</style>
 </defs>
 <g id="figure_1">
  <g id="patch_1">
   <path d="M 0 432 
L 720 432 
L 720 0 
L 0 0 
z
" style="fill: #ffffff"/>
  </g>
  <g id="axes_1">
   <g id="patch_2">
    <path d="M 53.03 390.04 
L 709.2 390.04 
L 709.2 25.44 
L 53.03 25.44 
z
" style="fill: #ffffff"/>
   </g>
   <g id="matplotlib.axis_1">
    <g id="xtick_1">
     <g id="line2d_1">
      <path d="M 82.855909 390.04 
L 82.855909 25.44 
" clip-path="url(#p340f26c84c)" style="fill: none; stroke: #b0b0b0; stroke-width: 0.8; stroke-linecap: square"/>
     </g>
     <g id="line2d_2">
      <defs>
       <path id="m93cdf14e6c" d="M 0 0 
L 0 3.5 
" style="stroke: #000000; stroke-width: 0.8"/>
      </defs>
      <g>
       <use xlink:href="#m93cdf14e6c" x="82.855909" y="390.04" style="stroke: #000000; stroke-width: 0.8"/>
      </g>
     </g>
     <g id="text_1">
      <!-- 0 -->
      <g transform="translate(79.674659 404.638438) scale(0.1 -0.1)">
       <defs>
        <path id="DejaVuSans-30" d="M 2034 4250 
Q 1547 4250 1301 3770 
Q 1056 3291 1056 2328 
Q 1056 1369 1301 889 
Q 1547 409 2034 409 
Q 2525 409 2770 889 
Q 3016 1369 3016 2328 
Q 3016 3291 2770 3770 
Q 2525 4250 2034 4250 
z
M 2034 4750 
Q 2819 4750 3233 4129 
Q 3647 3509 3647 2328 
Q 3647 1150 3233 529 
Q 2819 -91 2034 -91 
Q 1250 -91 836 529 
Q 422 1150 422 2328 
Q 422 3509 836 4129 
Q 1250 4750 2034 4750 
z
" transform="scale(0.015625)"/>
       </defs>
       <use xlink:href="#DejaVuSans-30"/>
      </g>
     </g>
    </g>
    <g id="xtick_2">
     <g id="line2d_3">
      <path d="M 215.710738 390.04 
L 215.710738 25.44 
" clip-path="url(#p340f26c84c)" style="fill: none; stroke: #b0b0b0; stroke-width: 0.8; stroke-linecap: square"/>
     </g>
     <g id="line2d_4">
      <g>
       <use xlink:href="#m93cdf14e6c" x="215.710738" y="390.04" style="stroke: #000000; stroke-width: 0.8"/>
      </g>
     </g>
     <g id="text_2">
      <!-- 100 -->
      <g transform="translate(206.166988 404.638438) scale(0.1 -0.1)">
       <defs>
        <path id="DejaVuSans-31" d="M 794 531 
L 1825 531 
L 1825 4091 
L 703 3866 
L 703 4441 
L 1819 4666 
L 2450 4666 
L 2450 531 
L 3481 531 
L 3481 0 
L 794 0 
L 794 531 
z
" transform="scale(0.015625)"/>
       </defs>
       <use xlink:href="#DejaVuSans-31"/>
       <use xlink:href="#DejaVuSans-30" x="63.623047"/>
       <use xlink:href="#DejaVuSans-30" x="127.246094"/>
      </g>
     </g>
    </g>
    <g id="xtick_3">
     <g id="line2d_5">
      <path d="M 348.565567 390.04 
L 348.565567 25.44 
" clip-path="url(#p340f26c84c)" style="fill: none; stroke: #b0b0b0; stroke-width: 0.8; stroke-linecap: square"/>
     </g>
     <g id="line2d_6">
      <g>
       <use xlink:href="#m93cdf14e6c" x="348.565567" y="390.04" style="stroke: #000000; stroke-width: 0.8"/>
      </g>
     </g>
     <g id="text_3">
      <!-- 200 -->
      <g transform="translate(339.021817 404.638438) scale(0.1 -0.1)">
       <defs>
        <path id="DejaVuSans-32" d="M 1228 531 
L 3431 531 
L 3431 0 
L 469 0 
L 469 531 
Q 828 903 1448 1529 
Q 2069 2156 2228 2338 
Q 2531 2678 2651 2914 
Q 2772 3150 2772 3378 
Q 2772 3750 2511 3984 
Q 2250 4219 1831 4219 
Q 1534 4219 1204 4116 
Q 875 4013 500 3803 
L 500 4441 
Q 881 4594 1212 4672 
Q 1544 4750 1819 4750 
Q 2544 4750 2975 4387 
Q 3406 4025 3406 3419 
Q 3406 3131 3298 2873 
Q 3191 2616 2906 2266 
Q 2828 2175 2409 1742 
Q 1991 1309 1228 531 
z
" transform="scale(0.015625)"/>
       </defs>
       <use xlink:href="#DejaVuSans-32"/>
       <use xlink:href="#DejaVuSans-30" x="63.623047"/>
       <use xlink:href="#DejaVuSans-30" x="127.246094"/>
      </g>
     </g>
    </g>
    <g id="xtick_4">
     <g id="line2d_7">
      <path d="M 481.420396 390.04 
L 481.420396 25.44 
" clip-path="url(#p340f26c84c)" style="fill: none; stroke: #b0b0b0; stroke-width: 0.8; stroke-linecap: square"/>
     </g>
     <g id="line2d_8">
      <g>
       <use xlink:href="#m93cdf14e6c" x="481.420396" y="390.04" style="stroke: #000000; stroke-width: 0.8"/>
      </g>
     </g>
     <g id="text_4">
      <!-- 300 -->
      <g transform="translate(471.876646 404.638438) scale(0.1 -0.1)">
       <defs>
        <path id="DejaVuSans-33" d="M 2597 2516 
Q 3050 2419 3304 2112 
Q 3559 1806 3559 1356 
Q 3559 666 3084 287 
Q 2609 -91 1734 -91 
Q 1441 -91 1130 -33 
Q 819 25 488 141 
L 488 750 
Q 750 597 1062 519 
Q 1375 441 1716 441 
Q 2309 441 2620 675 
Q 2931 909 2931 1356 
Q 2931 1769 2642 2001 
Q 2353 2234 1838 2234 
L 1294 2234 
L 1294 2753 
L 1863 2753 
Q 2328 2753 2575 2939 
Q 2822 3125 2822 3475 
Q 2822 3834 2567 4026 
Q 2313 4219 1838 4219 
Q 1578 4219 1281 4162 
Q 984 4106 628 3988 
L 628 4550 
Q 988 4650 1302 4700 
Q 1616 4750 1894 4750 
Q 2613 4750 3031 4423 
Q 3450 4097 3450 3541 
Q 3450 3153 3228 2886 
Q 3006 2619 2597 2516 
z
" transform="scale(0.015625)"/>
       </defs>
       <use xlink:href="#DejaVuSans-33"/>
       <use xlink:href="#DejaVuSans-30" x="63.623047"/>
       <use xlink:href="#DejaVuSans-30" x="127.246094"/>
      </g>
     </g>
    </g>
    <g id="xtick_5">
     <g id="line2d_9">
      <path d="M 614.275225 390.04 
L 614.275225 25.44 
" clip-path="url(#p340f26c84c)" style="fill: none; stroke: #b0b0b0; stroke-width: 0.8; stroke-linecap: square"/>
     </g>
     <g id="line2d_10">
      <g>
       <use xlink:href="#m93cdf14e6c" x="614.275225" y="390.04" style="stroke: #000000; stroke-width: 0.8"/>
      </g>
     </g>
     <g id="text_5">
      <!-- 400 -->
      <g transform="translate(604.731475 404.638438) scale(0.1 -0.1)">
       <defs>
        <path id="DejaVuSans-34" d="M 2419 4116 
L 825 1625 
L 2419 1625 
L 2419 4116 
z
M 2253 4666 
L 3047 4666 
L 3047 1625 
L 3713 1625 
L 3713 1100 
L 3047 1100 
L 3047 0 
L 2419 0 
L 2419 1100 
L 313 1100 
L 313 1709 
L 2253 4666 
z
" transform="scale(0.015625)"/>
       </defs>
       <use xlink:href="#DejaVuSans-34"/>
       <use xlink:href="#DejaVuSans-30" x="63.623047"/>
       <use xlink:href="#DejaVuSans-30" x="127.246094"/>
      </g>
     </g>
    </g>
    <g id="text_6">
     <!-- Episode -->
     <g transform="translate(361.4775 418.316562) scale(0.1 -0.1)">
      <defs>
       <path id="DejaVuSans-45" d="M 628 4666 
L 3578 4666 
L 3578 4134 
L 1259 4134 
L 1259 2753 
L 3481 2753 
L 3481 2222 
L 1259 2222 
L 1259 531 
L 3634 531 
L 3634 0 
L 628 0 
L 628 4666 
z
" transform="scale(0.015625)"/>
       <path id="DejaVuSans-70" d="M 1159 525 
L 1159 -1331 
L 581 -1331 
L 581 3500 
L 1159 3500 
L 1159 2969 
Q 1341 3281 1617 3432 
Q 1894 3584 2278 3584 
Q 2916 3584 3314 3078 
Q 3713 2572 3713 1747 
Q 3713 922 3314 415 
Q 2916 -91 2278 -91 
Q 1894 -91 1617 61 
Q 1341 213 1159 525 
z
M 3116 1747 
Q 3116 2381 2855 2742 
Q 2594 3103 2138 3103 
Q 1681 3103 1420 2742 
Q 1159 2381 1159 1747 
Q 1159 1113 1420 752 
Q 1681 391 2138 391 
Q 2594 391 2855 752 
Q 3116 1113 3116 1747 
z
" transform="scale(0.015625)"/>
       <path id="DejaVuSans-69" d="M 603 3500 
L 1178 3500 
L 1178 0 
L 603 0 
L 603 3500 
z
M 603 4863 
L 1178 4863 
L 1178 4134 
L 603 4134 
L 603 4863 
z
" transform="scale(0.015625)"/>
       <path id="DejaVuSans-73" d="M 2834 3397 
L 2834 2853 
Q 2591 2978 2328 3040 
Q 2066 3103 1784 3103 
Q 1356 3103 1142 2972 
Q 928 2841 928 2578 
Q 928 2378 1081 2264 
Q 1234 2150 1697 2047 
L 1894 2003 
Q 2506 1872 2764 1633 
Q 3022 1394 3022 966 
Q 3022 478 2636 193 
Q 2250 -91 1575 -91 
Q 1294 -91 989 -36 
Q 684 19 347 128 
L 347 722 
Q 666 556 975 473 
Q 1284 391 1588 391 
Q 1994 391 2212 530 
Q 2431 669 2431 922 
Q 2431 1156 2273 1281 
Q 2116 1406 1581 1522 
L 1381 1569 
Q 847 1681 609 1914 
Q 372 2147 372 2553 
Q 372 3047 722 3315 
Q 1072 3584 1716 3584 
Q 2034 3584 2315 3537 
Q 2597 3491 2834 3397 
z
" transform="scale(0.015625)"/>
       <path id="DejaVuSans-6f" d="M 1959 3097 
Q 1497 3097 1228 2736 
Q 959 2375 959 1747 
Q 959 1119 1226 758 
Q 1494 397 1959 397 
Q 2419 397 2687 759 
Q 2956 1122 2956 1747 
Q 2956 2369 2687 2733 
Q 2419 3097 1959 3097 
z
M 1959 3584 
Q 2709 3584 3137 3096 
Q 3566 2609 3566 1747 
Q 3566 888 3137 398 
Q 2709 -91 1959 -91 
Q 1206 -91 779 398 
Q 353 888 353 1747 
Q 353 2609 779 3096 
Q 1206 3584 1959 3584 
z
" transform="scale(0.015625)"/>
       <path id="DejaVuSans-64" d="M 2906 2969 
L 2906 4863 
L 3481 4863 
L 3481 0 
L 2906 0 
L 2906 525 
Q 2725 213 2448 61 
Q 2172 -91 1784 -91 
Q 1150 -91 751 415 
Q 353 922 353 1747 
Q 353 2572 751 3078 
Q 1150 3584 1784 3584 
Q 2172 3584 2448 3432 
Q 2725 3281 2906 2969 
z
M 947 1747 
Q 947 1113 1208 752 
Q 1469 391 1925 391 
Q 2381 391 2643 752 
Q 2906 1113 2906 1747 
Q 2906 2381 2643 2742 
Q 2381 3103 1925 3103 
Q 1469 3103 1208 2742 
Q 947 2381 947 1747 
z
" transform="scale(0.015625)"/>
       <path id="DejaVuSans-65" d="M 3597 1894 
L 3597 1613 
L 953 1613 
Q 991 1019 1311 708 
Q 1631 397 2203 397 
Q 2534 397 2845 478 
Q 3156 559 3463 722 
L 3463 178 
Q 3153 47 2828 -22 
Q 2503 -91 2169 -91 
Q 1331 -91 842 396 
Q 353 884 353 1716 
Q 353 2575 817 3079 
Q 1281 3584 2069 3584 
Q 2775 3584 3186 3129 
Q 3597 2675 3597 1894 
z
M 3022 2063 
Q 3016 2534 2758 2815 
Q 2500 3097 2075 3097 
Q 1594 3097 1305 2825 
Q 1016 2553 972 2059 
L 3022 2063 
z
" transform="scale(0.015625)"/>
      </defs>
      <use xlink:href="#DejaVuSans-45"/>
      <use xlink:href="#DejaVuSans-70" x="63.183594"/>
      <use xlink:href="#DejaVuSans-69" x="126.660156"/>
      <use xlink:href="#DejaVuSans-73" x="154.443359"/>
      <use xlink:href="#DejaVuSans-6f" x="206.542969"/>
      <use xlink:href="#DejaVuSans-64" x="267.724609"/>
      <use xlink:href="#DejaVuSans-65" x="331.201172"/>
     </g>
    </g>
   </g>
   <g id="matplotlib.axis_2">
    <g id="ytick_1">
     <g id="line2d_11">
      <path d="M 53.03 367.47713 
L 709.2 367.47713 
" clip-path="url(#p340f26c84c)" style="fill: none; stroke: #b0b0b0; stroke-width: 0.8; stroke-linecap: square"/>
     </g>
     <g id="line2d_12">
      <defs>
       <path id="m7d49fbf4be" d="M 0 0 
L -3.5 0 
" style="stroke: #000000; stroke-width: 0.8"/>
      </defs>
      <g>
       <use xlink:href="#m7d49fbf4be" x="53.03" y="367.47713" style="stroke: #000000; stroke-width: 0.8"/>
      </g>
     </g>
     <g id="text_7">
      <!-- −15 -->
      <g transform="translate(24.925313 371.276349) scale(0.1 -0.1)">
       <defs>
        <path id="DejaVuSans-2212" d="M 678 2272 
L 4684 2272 
L 4684 1741 
L 678 1741 
L 678 2272 
z
" transform="scale(0.015625)"/>
        <path id="DejaVuSans-35" d="M 691 4666 
L 3169 4666 
L 3169 4134 
L 1269 4134 
L 1269 2991 
Q 1406 3038 1543 3061 
Q 1681 3084 1819 3084 
Q 2600 3084 3056 2656 
Q 3513 2228 3513 1497 
Q 3513 744 3044 326 
Q 2575 -91 1722 -91 
Q 1428 -91 1123 -41 
Q 819 9 494 109 
L 494 744 
Q 775 591 1075 516 
Q 1375 441 1709 441 
Q 2250 441 2565 725 
Q 2881 1009 2881 1497 
Q 2881 1984 2565 2268 
Q 2250 2553 1709 2553 
Q 1456 2553 1204 2497 
Q 953 2441 691 2322 
L 691 4666 
z
" transform="scale(0.015625)"/>
       </defs>
       <use xlink:href="#DejaVuSans-2212"/>
       <use xlink:href="#DejaVuSans-31" x="83.789062"/>
       <use xlink:href="#DejaVuSans-35" x="147.412109"/>
      </g>
     </g>
    </g>
    <g id="ytick_2">
     <g id="line2d_13">
      <path d="M 53.03 321.552705 
L 709.2 321.552705 
" clip-path="url(#p340f26c84c)" style="fill: none; stroke: #b0b0b0; stroke-width: 0.8; stroke-linecap: square"/>
     </g>
     <g id="line2d_14">
      <g>
       <use xlink:href="#m7d49fbf4be" x="53.03" y="321.552705" style="stroke: #000000; stroke-width: 0.8"/>
      </g>
     </g>
     <g id="text_8">
      <!-- −10 -->
      <g transform="translate(24.925313 325.351924) scale(0.1 -0.1)">
       <use xlink:href="#DejaVuSans-2212"/>
       <use xlink:href="#DejaVuSans-31" x="83.789062"/>
       <use xlink:href="#DejaVuSans-30" x="147.412109"/>
      </g>
     </g>
    </g>
    <g id="ytick_3">
     <g id="line2d_15">
      <path d="M 53.03 275.62828 
L 709.2 275.62828 
" clip-path="url(#p340f26c84c)" style="fill: none; stroke: #b0b0b0; stroke-width: 0.8; stroke-linecap: square"/>
     </g>
     <g id="line2d_16">
      <g>
       <use xlink:href="#m7d49fbf4be" x="53.03" y="275.62828" style="stroke: #000000; stroke-width: 0.8"/>
      </g>
     </g>
     <g id="text_9">
      <!-- −5 -->
      <g transform="translate(31.287813 279.427499) scale(0.1 -0.1)">
       <use xlink:href="#DejaVuSans-2212"/>
       <use xlink:href="#DejaVuSans-35" x="83.789062"/>
      </g>
     </g>
    </g>
    <g id="ytick_4">
     <g id="line2d_17">
      <path d="M 53.03 229.703855 
L 709.2 229.703855 
" clip-path="url(#p340f26c84c)" style="fill: none; stroke: #b0b0b0; stroke-width: 0.8; stroke-linecap: square"/>
     </g>
     <g id="line2d_18">
      <g>
       <use xlink:href="#m7d49fbf4be" x="53.03" y="229.703855" style="stroke: #000000; stroke-width: 0.8"/>
      </g>
     </g>
     <g id="text_10">
      <!-- 0 -->
      <g transform="translate(39.6675 233.503074) scale(0.1 -0.1)">
       <use xlink:href="#DejaVuSans-30"/>
      </g>
     </g>
    </g>
    <g id="ytick_5">
     <g id="line2d_19">
      <path d="M 53.03 183.77943 
L 709.2 183.77943 
" clip-path="url(#p340f26c84c)" style="fill: none; stroke: #b0b0b0; stroke-width: 0.8; stroke-linecap: square"/>
     </g>
     <g id="line2d_20">
      <g>
       <use xlink:href="#m7d49fbf4be" x="53.03" y="183.77943" style="stroke: #000000; stroke-width: 0.8"/>
      </g>
     </g>
     <g id="text_11">
      <!-- 5 -->
      <g transform="translate(39.6675 187.578649) scale(0.1 -0.1)">
       <use xlink:href="#DejaVuSans-35"/>
      </g>
     </g>
    </g>
    <g id="ytick_6">
     <g id="line2d_21">
      <path d="M 53.03 137.855005 
L 709.2 137.855005 
" clip-path="url(#p340f26c84c)" style="fill: none; stroke: #b0b0b0; stroke-width: 0.8; stroke-linecap: square"/>
     </g>
     <g id="line2d_22">
      <g>
       <use xlink:href="#m7d49fbf4be" x="53.03" y="137.855005" style="stroke: #000000; stroke-width: 0.8"/>
      </g>
     </g>
     <g id="text_12">
      <!-- 10 -->
      <g transform="translate(33.305 141.654224) scale(0.1 -0.1)">
       <use xlink:href="#DejaVuSans-31"/>
       <use xlink:href="#DejaVuSans-30" x="63.623047"/>
      </g>
     </g>
    </g>
    <g id="ytick_7">
     <g id="line2d_23">
      <path d="M 53.03 91.930581 
L 709.2 91.930581 
" clip-path="url(#p340f26c84c)" style="fill: none; stroke: #b0b0b0; stroke-width: 0.8; stroke-linecap: square"/>
     </g>
     <g id="line2d_24">
      <g>
       <use xlink:href="#m7d49fbf4be" x="53.03" y="91.930581" style="stroke: #000000; stroke-width: 0.8"/>
      </g>
     </g>
     <g id="text_13">
      <!-- 15 -->
      <g transform="translate(33.305 95.729799) scale(0.1 -0.1)">
       <use xlink:href="#DejaVuSans-31"/>
       <use xlink:href="#DejaVuSans-35" x="63.623047"/>
      </g>
     </g>
    </g>
    <g id="ytick_8">
     <g id="line2d_25">
      <path d="M 53.03 46.006156 
L 709.2 46.006156 
" clip-path="url(#p340f26c84c)" style="fill: none; stroke: #b0b0b0; stroke-width: 0.8; stroke-linecap: square"/>
     </g>
     <g id="line2d_26">
      <g>
       <use xlink:href="#m7d49fbf4be" x="53.03" y="46.006156" style="stroke: #000000; stroke-width: 0.8"/>
      </g>
     </g>
     <g id="text_14">
      <!-- 20 -->
      <g transform="translate(33.305 49.805374) scale(0.1 -0.1)">
       <use xlink:href="#DejaVuSans-32"/>
       <use xlink:href="#DejaVuSans-30" x="63.623047"/>
      </g>
     </g>
    </g>
    <g id="text_15">
     <!-- Average Reward -->
     <g transform="translate(18.845625 248.482969) rotate(-90) scale(0.1 -0.1)">
      <defs>
       <path id="DejaVuSans-41" d="M 2188 4044 
L 1331 1722 
L 3047 1722 
L 2188 4044 
z
M 1831 4666 
L 2547 4666 
L 4325 0 
L 3669 0 
L 3244 1197 
L 1141 1197 
L 716 0 
L 50 0 
L 1831 4666 
z
" transform="scale(0.015625)"/>
       <path id="DejaVuSans-76" d="M 191 3500 
L 800 3500 
L 1894 563 
L 2988 3500 
L 3597 3500 
L 2284 0 
L 1503 0 
L 191 3500 
z
" transform="scale(0.015625)"/>
       <path id="DejaVuSans-72" d="M 2631 2963 
Q 2534 3019 2420 3045 
Q 2306 3072 2169 3072 
Q 1681 3072 1420 2755 
Q 1159 2438 1159 1844 
L 1159 0 
L 581 0 
L 581 3500 
L 1159 3500 
L 1159 2956 
Q 1341 3275 1631 3429 
Q 1922 3584 2338 3584 
Q 2397 3584 2469 3576 
Q 2541 3569 2628 3553 
L 2631 2963 
z
" transform="scale(0.015625)"/>
       <path id="DejaVuSans-61" d="M 2194 1759 
Q 1497 1759 1228 1600 
Q 959 1441 959 1056 
Q 959 750 1161 570 
Q 1363 391 1709 391 
Q 2188 391 2477 730 
Q 2766 1069 2766 1631 
L 2766 1759 
L 2194 1759 
z
M 3341 1997 
L 3341 0 
L 2766 0 
L 2766 531 
Q 2569 213 2275 61 
Q 1981 -91 1556 -91 
Q 1019 -91 701 211 
Q 384 513 384 1019 
Q 384 1609 779 1909 
Q 1175 2209 1959 2209 
L 2766 2209 
L 2766 2266 
Q 2766 2663 2505 2880 
Q 2244 3097 1772 3097 
Q 1472 3097 1187 3025 
Q 903 2953 641 2809 
L 641 3341 
Q 956 3463 1253 3523 
Q 1550 3584 1831 3584 
Q 2591 3584 2966 3190 
Q 3341 2797 3341 1997 
z
" transform="scale(0.015625)"/>
       <path id="DejaVuSans-67" d="M 2906 1791 
Q 2906 2416 2648 2759 
Q 2391 3103 1925 3103 
Q 1463 3103 1205 2759 
Q 947 2416 947 1791 
Q 947 1169 1205 825 
Q 1463 481 1925 481 
Q 2391 481 2648 825 
Q 2906 1169 2906 1791 
z
M 3481 434 
Q 3481 -459 3084 -895 
Q 2688 -1331 1869 -1331 
Q 1566 -1331 1297 -1286 
Q 1028 -1241 775 -1147 
L 775 -588 
Q 1028 -725 1275 -790 
Q 1522 -856 1778 -856 
Q 2344 -856 2625 -561 
Q 2906 -266 2906 331 
L 2906 616 
Q 2728 306 2450 153 
Q 2172 0 1784 0 
Q 1141 0 747 490 
Q 353 981 353 1791 
Q 353 2603 747 3093 
Q 1141 3584 1784 3584 
Q 2172 3584 2450 3431 
Q 2728 3278 2906 2969 
L 2906 3500 
L 3481 3500 
L 3481 434 
z
" transform="scale(0.015625)"/>
       <path id="DejaVuSans-20" transform="scale(0.015625)"/>
       <path id="DejaVuSans-52" d="M 2841 2188 
Q 3044 2119 3236 1894 
Q 3428 1669 3622 1275 
L 4263 0 
L 3584 0 
L 2988 1197 
Q 2756 1666 2539 1819 
Q 2322 1972 1947 1972 
L 1259 1972 
L 1259 0 
L 628 0 
L 628 4666 
L 2053 4666 
Q 2853 4666 3247 4331 
Q 3641 3997 3641 3322 
Q 3641 2881 3436 2590 
Q 3231 2300 2841 2188 
z
M 1259 4147 
L 1259 2491 
L 2053 2491 
Q 2509 2491 2742 2702 
Q 2975 2913 2975 3322 
Q 2975 3731 2742 3939 
Q 2509 4147 2053 4147 
L 1259 4147 
z
" transform="scale(0.015625)"/>
       <path id="DejaVuSans-77" d="M 269 3500 
L 844 3500 
L 1563 769 
L 2278 3500 
L 2956 3500 
L 3675 769 
L 4391 3500 
L 4966 3500 
L 4050 0 
L 3372 0 
L 2619 2869 
L 1863 0 
L 1184 0 
L 269 3500 
z
" transform="scale(0.015625)"/>
      </defs>
      <use xlink:href="#DejaVuSans-41"/>
      <use xlink:href="#DejaVuSans-76" x="62.533203"/>
      <use xlink:href="#DejaVuSans-65" x="121.712891"/>
      <use xlink:href="#DejaVuSans-72" x="183.236328"/>
      <use xlink:href="#DejaVuSans-61" x="224.349609"/>
      <use xlink:href="#DejaVuSans-67" x="285.628906"/>
      <use xlink:href="#DejaVuSans-65" x="349.105469"/>
      <use xlink:href="#DejaVuSans-20" x="410.628906"/>
      <use xlink:href="#DejaVuSans-52" x="442.416016"/>
      <use xlink:href="#DejaVuSans-65" x="507.398438"/>
      <use xlink:href="#DejaVuSans-77" x="568.921875"/>
      <use xlink:href="#DejaVuSans-61" x="650.708984"/>
      <use xlink:href="#DejaVuSans-72" x="711.988281"/>
      <use xlink:href="#DejaVuSans-64" x="751.351562"/>
     </g>
    </g>
   </g>
   <g id="line2d_27">
    <path d="M 82.855909 241.68414 
L 84.184457 261.651281 
L 85.513006 265.64471 
L 86.841554 317.559277 
L 88.170102 297.592136 
L 89.498651 297.592136 
L 90.827199 245.677568 
L 92.155747 285.611851 
L 93.484295 301.585564 
L 94.812844 341.519847 
L 96.141392 265.64471 
L 97.46994 293.598708 
L 98.798489 241.68414 
L 100.127037 321.552705 
L 101.455585 257.657853 
L 102.784133 301.585564 
L 104.112682 309.572421 
L 105.44123 289.605279 
L 106.769778 301.585564 
L 108.098327 281.618423 
L 109.426875 293.598708 
L 110.755423 285.611851 
L 112.083971 317.559277 
L 113.41252 297.592136 
L 114.741068 229.703855 
L 116.069616 329.539562 
L 117.398165 273.631566 
L 118.726713 265.64471 
L 120.055261 277.624995 
L 121.383809 261.651281 
L 122.712358 285.611851 
L 124.040906 249.670997 
L 125.369454 265.64471 
L 126.698003 321.552705 
L 128.026551 285.611851 
L 129.355099 201.749858 
L 130.683647 281.618423 
L 132.012196 265.64471 
L 133.340744 285.611851 
L 134.669292 253.664425 
L 135.997841 293.598708 
L 137.326389 281.618423 
L 138.654937 297.592136 
L 139.983486 309.572421 
L 141.312034 241.68414 
L 142.640582 233.697284 
L 143.96913 265.64471 
L 145.297679 245.677568 
L 146.626227 261.651281 
L 147.954775 229.703855 
L 149.283324 277.624995 
L 150.611872 281.618423 
L 151.94042 273.631566 
L 153.268968 293.598708 
L 154.597517 281.618423 
L 155.926065 205.743286 
L 157.254613 273.631566 
L 158.583162 321.552705 
L 159.91171 241.68414 
L 161.240258 253.664425 
L 162.568806 249.670997 
L 163.897355 233.697284 
L 165.225903 253.664425 
L 166.554451 301.585564 
L 167.883 233.697284 
L 169.211548 289.605279 
L 170.540096 237.690712 
L 171.868644 221.716999 
L 173.197193 233.697284 
L 174.525741 257.657853 
L 175.854289 237.690712 
L 177.182838 265.64471 
L 178.511386 281.618423 
L 179.839934 209.736714 
L 181.168482 301.585564 
L 182.497031 277.624995 
L 183.825579 229.703855 
L 185.154127 273.631566 
L 186.482676 253.664425 
L 187.811224 253.664425 
L 189.139772 249.670997 
L 190.468321 241.68414 
L 191.796869 241.68414 
L 193.125417 253.664425 
L 194.453965 237.690712 
L 195.782514 225.710427 
L 197.111062 269.638138 
L 198.43961 249.670997 
L 199.768159 217.723571 
L 201.096707 261.651281 
L 202.425255 273.631566 
L 203.753803 245.677568 
L 205.082352 269.638138 
L 206.4109 257.657853 
L 207.739448 317.559277 
L 209.067997 273.631566 
L 210.396545 313.565849 
L 211.725093 269.638138 
L 213.053641 253.664425 
L 214.38219 253.664425 
L 215.710738 237.690712 
L 217.039286 265.64471 
L 218.367835 305.578992 
L 219.696383 225.710427 
L 221.024931 221.716999 
L 222.353479 297.592136 
L 225.010576 225.710427 
L 226.339124 241.68414 
L 227.667673 233.697284 
L 228.996221 241.68414 
L 230.324769 201.749858 
L 231.653317 261.651281 
L 232.981866 237.690712 
L 234.310414 253.664425 
L 235.638962 245.677568 
L 236.967511 277.624995 
L 238.296059 225.710427 
L 239.624607 237.690712 
L 240.953155 241.68414 
L 242.281704 233.697284 
L 243.610252 229.703855 
L 246.267349 253.664425 
L 247.595897 241.68414 
L 248.924445 245.677568 
L 251.581542 229.703855 
L 252.91009 277.624995 
L 254.238638 289.605279 
L 255.567187 277.624995 
L 256.895735 237.690712 
L 258.224283 253.664425 
L 259.552832 233.697284 
L 260.88138 281.618423 
L 262.209928 205.743286 
L 263.538476 237.690712 
L 264.867025 273.631566 
L 266.195573 225.710427 
L 267.524121 221.716999 
L 268.85267 257.657853 
L 270.181218 217.723571 
L 271.509766 277.624995 
L 272.838314 225.710427 
L 274.166863 269.638138 
L 275.495411 237.690712 
L 276.823959 277.624995 
L 278.152508 221.716999 
L 279.481056 237.690712 
L 280.809604 277.624995 
L 282.138152 289.605279 
L 283.466701 265.64471 
L 284.795249 221.716999 
L 286.123797 301.585564 
L 287.452346 193.763001 
L 288.780894 253.664425 
L 290.109442 273.631566 
L 291.43799 237.690712 
L 292.766539 265.64471 
L 294.095087 213.730142 
L 295.423635 229.703855 
L 296.752184 241.68414 
L 298.080732 221.716999 
L 299.40928 269.638138 
L 300.737829 225.710427 
L 302.066377 257.657853 
L 303.394925 185.776145 
L 304.723473 281.618423 
L 306.052022 233.697284 
L 307.38057 233.697284 
L 308.709118 281.618423 
L 310.037667 245.677568 
L 311.366215 205.743286 
L 312.694763 205.743286 
L 314.023311 237.690712 
L 315.35186 257.657853 
L 316.680408 241.68414 
L 318.008956 217.723571 
L 319.337505 241.68414 
L 320.666053 217.723571 
L 321.994601 201.749858 
L 323.323149 265.64471 
L 324.651698 225.710427 
L 325.980246 205.743286 
L 327.308794 245.677568 
L 328.637343 305.578992 
L 329.965891 185.776145 
L 331.294439 209.736714 
L 332.622987 209.736714 
L 333.951536 213.730142 
L 335.280084 249.670997 
L 336.608632 177.789288 
L 337.937181 257.657853 
L 339.265729 237.690712 
L 340.594277 233.697284 
L 341.922825 245.677568 
L 343.251374 217.723571 
L 344.579922 249.670997 
L 345.90847 265.64471 
L 347.237019 241.68414 
L 348.565567 225.710427 
L 349.894115 213.730142 
L 351.222663 241.68414 
L 352.551212 225.710427 
L 353.87976 197.756429 
L 355.208308 245.677568 
L 356.536857 201.749858 
L 357.865405 221.716999 
L 359.193953 221.716999 
L 360.522502 217.723571 
L 361.85105 225.710427 
L 363.179598 213.730142 
L 364.508146 249.670997 
L 365.836695 245.677568 
L 367.165243 229.703855 
L 368.493791 273.631566 
L 369.82234 217.723571 
L 371.150888 201.749858 
L 372.479436 273.631566 
L 373.807984 225.710427 
L 375.136533 241.68414 
L 376.465081 253.664425 
L 377.793629 253.664425 
L 379.122178 225.710427 
L 380.450726 245.677568 
L 381.779274 205.743286 
L 383.107822 201.749858 
L 384.436371 189.769573 
L 385.764919 225.710427 
L 387.093467 197.756429 
L 388.422016 197.756429 
L 389.750564 217.723571 
L 391.079112 245.677568 
L 392.40766 217.723571 
L 393.736209 249.670997 
L 395.064757 185.776145 
L 396.393305 197.756429 
L 397.721854 217.723571 
L 399.050402 205.743286 
L 400.37895 225.710427 
L 401.707498 209.736714 
L 403.036047 233.697284 
L 404.364595 237.690712 
L 405.693143 225.710427 
L 407.021692 253.664425 
L 408.35024 233.697284 
L 409.678788 257.657853 
L 411.007337 193.763001 
L 412.335885 261.651281 
L 413.664433 237.690712 
L 414.992981 205.743286 
L 416.32153 193.763001 
L 417.650078 233.697284 
L 418.978626 177.789288 
L 420.307175 241.68414 
L 421.635723 233.697284 
L 422.964271 209.736714 
L 424.292819 237.690712 
L 425.621368 205.743286 
L 426.949916 177.789288 
L 428.278464 225.710427 
L 429.607013 257.657853 
L 432.264109 209.736714 
L 433.592657 229.703855 
L 434.921206 169.802432 
L 436.249754 233.697284 
L 437.578302 213.730142 
L 438.906851 209.736714 
L 440.235399 221.716999 
L 441.563947 201.749858 
L 442.892495 245.677568 
L 444.221044 201.749858 
L 445.549592 201.749858 
L 446.87814 213.730142 
L 448.206689 185.776145 
L 449.535237 225.710427 
L 450.863785 245.677568 
L 452.192333 177.789288 
L 453.520882 257.657853 
L 454.84943 209.736714 
L 456.177978 221.716999 
L 457.506527 249.670997 
L 458.835075 221.716999 
L 460.163623 221.716999 
L 461.492171 225.710427 
L 462.82072 241.68414 
L 464.149268 209.736714 
L 465.477816 197.756429 
L 466.806365 193.763001 
L 468.134913 221.716999 
L 469.463461 237.690712 
L 470.79201 181.782716 
L 472.120558 221.716999 
L 473.449106 253.664425 
L 474.777654 205.743286 
L 476.106203 233.697284 
L 477.434751 189.769573 
L 478.763299 201.749858 
L 480.091848 241.68414 
L 481.420396 221.716999 
L 482.748944 221.716999 
L 484.077492 233.697284 
L 485.406041 241.68414 
L 486.734589 217.723571 
L 488.063137 169.802432 
L 489.391686 217.723571 
L 490.720234 193.763001 
L 492.048782 201.749858 
L 493.37733 217.723571 
L 494.705879 241.68414 
L 496.034427 169.802432 
L 497.362975 217.723571 
L 498.691524 209.736714 
L 500.020072 169.802432 
L 501.34862 201.749858 
L 502.677168 185.776145 
L 504.005717 237.690712 
L 505.334265 217.723571 
L 506.662813 201.749858 
L 507.991362 181.782716 
L 509.31991 221.716999 
L 510.648458 177.789288 
L 511.977006 205.743286 
L 513.305555 185.776145 
L 514.634103 209.736714 
L 515.962651 181.782716 
L 517.2912 209.736714 
L 518.619748 189.769573 
L 519.948296 197.756429 
L 521.276845 173.79586 
L 522.605393 185.776145 
L 523.933941 177.789288 
L 525.262489 209.736714 
L 526.591038 177.789288 
L 527.919586 197.756429 
L 529.248134 201.749858 
L 530.576683 177.789288 
L 533.233779 209.736714 
L 534.562327 185.776145 
L 535.890876 225.710427 
L 537.219424 185.776145 
L 538.547972 201.749858 
L 539.876521 205.743286 
L 541.205069 193.763001 
L 542.533617 185.776145 
L 543.862165 169.802432 
L 545.190714 193.763001 
L 546.519262 201.749858 
L 547.84781 185.776145 
L 549.176359 173.79586 
L 550.504907 177.789288 
L 551.833455 169.802432 
L 554.490552 169.802432 
L 555.8191 177.789288 
L 557.147648 197.756429 
L 558.476197 209.736714 
L 559.804745 201.749858 
L 562.461841 169.802432 
L 563.79039 169.802432 
L 565.118938 209.736714 
L 566.447486 201.749858 
L 567.776035 177.789288 
L 569.104583 241.68414 
L 570.433131 173.79586 
L 571.761679 221.716999 
L 573.090228 185.776145 
L 574.418776 169.802432 
L 577.075873 177.789288 
L 578.404421 193.763001 
L 579.732969 177.789288 
L 581.061518 177.789288 
L 582.390066 169.802432 
L 583.718614 181.782716 
L 585.047162 177.789288 
L 587.704259 177.789288 
L 589.032807 201.749858 
L 591.689904 185.776145 
L 593.018452 185.776145 
L 594.347 193.763001 
L 597.004097 193.763001 
L 598.332645 201.749858 
L 599.661194 189.769573 
L 600.989742 185.776145 
L 602.31829 169.802432 
L 603.646838 169.802432 
L 604.975387 201.749858 
L 606.303935 173.79586 
L 607.632483 169.802432 
L 608.961032 193.763001 
L 610.28958 209.736714 
L 611.618128 169.802432 
L 612.946676 185.776145 
L 614.275225 169.802432 
L 616.932321 185.776145 
L 618.26087 185.776145 
L 619.589418 201.749858 
L 620.917966 169.802432 
L 622.246514 177.789288 
L 623.575063 169.802432 
L 624.903611 209.736714 
L 626.232159 169.802432 
L 630.217804 181.782716 
L 631.546353 193.763001 
L 632.874901 169.802432 
L 634.203449 189.769573 
L 635.531997 169.802432 
L 638.189094 169.802432 
L 639.517642 177.789288 
L 640.846191 169.802432 
L 642.174739 169.802432 
L 643.503287 177.789288 
L 644.831835 177.789288 
L 646.160384 169.802432 
L 648.81748 177.789288 
L 650.146029 169.802432 
L 651.474577 169.802432 
L 652.803125 177.789288 
L 654.131673 169.802432 
L 655.460222 169.802432 
L 656.78877 185.776145 
L 658.117318 169.802432 
L 659.445867 169.802432 
L 660.774415 177.789288 
L 662.102963 169.802432 
L 663.431511 177.789288 
L 664.76006 181.782716 
L 666.088608 217.723571 
L 667.417156 169.802432 
L 679.374091 169.802432 
L 679.374091 169.802432 
" clip-path="url(#p340f26c84c)" style="fill: none; stroke: #1f77b4; stroke-width: 1.5; stroke-linecap: square"/>
   </g>
   <g id="line2d_28">
    <path d="M 82.855909 273.631566 
L 84.184457 269.638138 
L 85.513006 297.592136 
L 86.841554 317.559277 
L 88.170102 289.605279 
L 89.498651 293.598708 
L 90.827199 249.670997 
L 92.155747 193.763001 
L 93.484295 305.578992 
L 94.812844 353.500131 
L 96.141392 273.631566 
L 97.46994 297.592136 
L 98.798489 269.638138 
L 100.127037 289.605279 
L 101.455585 245.677568 
L 102.784133 269.638138 
L 104.112682 269.638138 
L 105.44123 241.68414 
L 106.769778 249.670997 
L 108.098327 249.670997 
L 109.426875 269.638138 
L 110.755423 305.578992 
L 112.083971 257.657853 
L 113.41252 241.68414 
L 114.741068 217.723571 
L 116.069616 289.605279 
L 117.398165 265.64471 
L 118.726713 269.638138 
L 120.055261 213.730142 
L 121.383809 333.53299 
L 122.712358 273.631566 
L 124.040906 253.664425 
L 125.369454 209.736714 
L 126.698003 269.638138 
L 128.026551 205.743286 
L 129.355099 185.776145 
L 130.683647 253.664425 
L 132.012196 181.782716 
L 133.340744 281.618423 
L 134.669292 333.53299 
L 135.997841 249.670997 
L 137.326389 261.651281 
L 138.654937 289.605279 
L 139.983486 285.611851 
L 141.312034 309.572421 
L 142.640582 269.638138 
L 143.96913 285.611851 
L 145.297679 269.638138 
L 146.626227 201.749858 
L 147.954775 213.730142 
L 149.283324 217.723571 
L 150.611872 261.651281 
L 151.94042 265.64471 
L 153.268968 309.572421 
L 154.597517 237.690712 
L 155.926065 277.624995 
L 157.254613 261.651281 
L 158.583162 237.690712 
L 159.91171 257.657853 
L 161.240258 205.743286 
L 162.568806 245.677568 
L 163.897355 205.743286 
L 165.225903 273.631566 
L 166.554451 253.664425 
L 167.883 257.657853 
L 170.540096 193.763001 
L 171.868644 213.730142 
L 173.197193 293.598708 
L 174.525741 217.723571 
L 175.854289 273.631566 
L 177.182838 201.749858 
L 178.511386 269.638138 
L 179.839934 189.769573 
L 181.168482 233.697284 
L 182.497031 205.743286 
L 183.825579 245.677568 
L 185.154127 261.651281 
L 186.482676 249.670997 
L 187.811224 305.578992 
L 189.139772 161.815575 
L 190.468321 257.657853 
L 191.796869 225.710427 
L 193.125417 237.690712 
L 194.453965 221.716999 
L 195.782514 249.670997 
L 197.111062 217.723571 
L 198.43961 209.736714 
L 199.768159 277.624995 
L 201.096707 197.756429 
L 202.425255 249.670997 
L 203.753803 257.657853 
L 205.082352 225.710427 
L 206.4109 213.730142 
L 207.739448 221.716999 
L 209.067997 309.572421 
L 210.396545 209.736714 
L 211.725093 225.710427 
L 213.053641 209.736714 
L 215.710738 333.53299 
L 217.039286 257.657853 
L 218.367835 201.749858 
L 219.696383 253.664425 
L 221.024931 181.782716 
L 222.353479 305.578992 
L 223.682028 193.763001 
L 225.010576 309.572421 
L 226.339124 273.631566 
L 227.667673 181.782716 
L 228.996221 225.710427 
L 230.324769 225.710427 
L 231.653317 277.624995 
L 232.981866 189.769573 
L 234.310414 289.605279 
L 235.638962 237.690712 
L 236.967511 209.736714 
L 238.296059 209.736714 
L 239.624607 281.618423 
L 240.953155 245.677568 
L 242.281704 173.79586 
L 243.610252 205.743286 
L 244.9388 245.677568 
L 246.267349 241.68414 
L 247.595897 157.822147 
L 248.924445 213.730142 
L 250.252994 209.736714 
L 251.581542 241.68414 
L 252.91009 185.776145 
L 254.238638 209.736714 
L 255.567187 285.611851 
L 256.895735 165.809003 
L 258.224283 209.736714 
L 259.552832 185.776145 
L 260.88138 197.756429 
L 262.209928 221.716999 
L 263.538476 217.723571 
L 264.867025 233.697284 
L 266.195573 201.749858 
L 267.524121 225.710427 
L 268.85267 149.83529 
L 270.181218 233.697284 
L 271.509766 253.664425 
L 272.838314 185.776145 
L 274.166863 209.736714 
L 275.495411 161.815575 
L 276.823959 237.690712 
L 278.152508 185.776145 
L 279.481056 249.670997 
L 280.809604 185.776145 
L 282.138152 225.710427 
L 283.466701 217.723571 
L 284.795249 237.690712 
L 286.123797 237.690712 
L 288.780894 213.730142 
L 290.109442 249.670997 
L 291.43799 253.664425 
L 292.766539 229.703855 
L 294.095087 257.657853 
L 295.423635 169.802432 
L 296.752184 237.690712 
L 298.080732 277.624995 
L 299.40928 217.723571 
L 300.737829 165.809003 
L 302.066377 205.743286 
L 303.394925 205.743286 
L 304.723473 277.624995 
L 306.052022 217.723571 
L 307.38057 209.736714 
L 308.709118 197.756429 
L 310.037667 165.809003 
L 311.366215 177.789288 
L 312.694763 225.710427 
L 314.023311 213.730142 
L 315.35186 181.782716 
L 316.680408 177.789288 
L 318.008956 269.638138 
L 319.337505 225.710427 
L 320.666053 173.79586 
L 323.323149 181.782716 
L 324.651698 229.703855 
L 325.980246 217.723571 
L 327.308794 133.861577 
L 328.637343 333.53299 
L 329.965891 177.789288 
L 331.294439 189.769573 
L 332.622987 117.887864 
L 333.951536 157.822147 
L 335.280084 233.697284 
L 336.608632 141.848434 
L 337.937181 193.763001 
L 339.265729 185.776145 
L 340.594277 189.769573 
L 341.922825 173.79586 
L 343.251374 245.677568 
L 344.579922 161.815575 
L 345.90847 145.841862 
L 347.237019 197.756429 
L 348.565567 141.848434 
L 349.894115 221.716999 
L 352.551212 197.756429 
L 353.87976 117.887864 
L 355.208308 201.749858 
L 356.536857 141.848434 
L 357.865405 145.841862 
L 359.193953 169.802432 
L 360.522502 169.802432 
L 361.85105 221.716999 
L 363.179598 193.763001 
L 364.508146 197.756429 
L 365.836695 157.822147 
L 367.165243 209.736714 
L 368.493791 237.690712 
L 369.82234 209.736714 
L 371.150888 229.703855 
L 372.479436 241.68414 
L 373.807984 209.736714 
L 375.136533 157.822147 
L 376.465081 169.802432 
L 377.793629 145.841862 
L 379.122178 145.841862 
L 380.450726 109.901008 
L 381.779274 181.782716 
L 383.107822 161.815575 
L 384.436371 125.874721 
L 385.764919 189.769573 
L 387.093467 97.920723 
L 388.422016 165.809003 
L 389.750564 117.887864 
L 391.079112 225.710427 
L 392.40766 149.83529 
L 393.736209 177.789288 
L 395.064757 177.789288 
L 396.393305 161.815575 
L 397.721854 141.848434 
L 399.050402 137.855005 
L 400.37895 201.749858 
L 401.707498 81.94701 
L 403.036047 185.776145 
L 404.364595 201.749858 
L 405.693143 133.861577 
L 407.021692 233.697284 
L 408.35024 129.868149 
L 409.678788 225.710427 
L 411.007337 177.789288 
L 412.335885 173.79586 
L 413.664433 165.809003 
L 414.992981 161.815575 
L 416.32153 97.920723 
L 417.650078 185.776145 
L 418.978626 129.868149 
L 420.307175 117.887864 
L 421.635723 213.730142 
L 422.964271 189.769573 
L 424.292819 237.690712 
L 425.621368 133.861577 
L 426.949916 157.822147 
L 428.278464 141.848434 
L 429.607013 169.802432 
L 430.935561 161.815575 
L 432.264109 205.743286 
L 433.592657 193.763001 
L 434.921206 109.901008 
L 436.249754 181.782716 
L 437.578302 221.716999 
L 438.906851 161.815575 
L 440.235399 173.79586 
L 441.563947 129.868149 
L 442.892495 193.763001 
L 444.221044 149.83529 
L 445.549592 129.868149 
L 446.87814 113.894436 
L 448.206689 141.848434 
L 449.535237 157.822147 
L 450.863785 229.703855 
L 452.192333 145.841862 
L 453.520882 181.782716 
L 454.84943 121.881292 
L 456.177978 161.815575 
L 457.506527 165.809003 
L 458.835075 101.914151 
L 460.163623 121.881292 
L 461.492171 113.894436 
L 462.82072 169.802432 
L 464.149268 169.802432 
L 465.477816 145.841862 
L 466.806365 81.94701 
L 468.134913 133.861577 
L 469.463461 201.749858 
L 470.79201 109.901008 
L 472.120558 173.79586 
L 473.449106 141.848434 
L 474.777654 129.868149 
L 476.106203 201.749858 
L 477.434751 129.868149 
L 478.763299 133.861577 
L 480.091848 113.894436 
L 481.420396 157.822147 
L 482.748944 121.881292 
L 484.077492 109.901008 
L 485.406041 197.756429 
L 486.734589 153.828719 
L 488.063137 149.83529 
L 489.391686 173.79586 
L 490.720234 93.927295 
L 492.048782 133.861577 
L 493.37733 141.848434 
L 494.705879 121.881292 
L 496.034427 125.874721 
L 497.362975 145.841862 
L 498.691524 141.848434 
L 500.020072 113.894436 
L 501.34862 197.756429 
L 502.677168 133.861577 
L 504.005717 129.868149 
L 505.334265 137.855005 
L 506.662813 117.887864 
L 507.991362 181.782716 
L 509.31991 109.901008 
L 510.648458 225.710427 
L 511.977006 109.901008 
L 513.305555 129.868149 
L 514.634103 125.874721 
L 515.962651 145.841862 
L 517.2912 117.887864 
L 518.619748 125.874721 
L 519.948296 105.907579 
L 521.276845 129.868149 
L 522.605393 121.881292 
L 523.933941 89.933866 
L 525.262489 133.861577 
L 526.591038 109.901008 
L 527.919586 165.809003 
L 529.248134 93.927295 
L 530.576683 81.94701 
L 531.905231 77.953582 
L 533.233779 121.881292 
L 534.562327 177.789288 
L 535.890876 121.881292 
L 537.219424 105.907579 
L 538.547972 133.861577 
L 539.876521 77.953582 
L 541.205069 89.933866 
L 542.533617 145.841862 
L 543.862165 42.012727 
L 545.190714 73.960153 
L 546.519262 173.79586 
L 547.84781 89.933866 
L 549.176359 77.953582 
L 550.504907 57.98644 
L 551.833455 61.979869 
L 553.162003 105.907579 
L 554.490552 85.940438 
L 555.8191 137.855005 
L 557.147648 97.920723 
L 558.476197 121.881292 
L 559.804745 93.927295 
L 561.133293 101.914151 
L 562.461841 73.960153 
L 563.79039 57.98644 
L 565.118938 101.914151 
L 566.447486 125.874721 
L 567.776035 73.960153 
L 569.104583 133.861577 
L 570.433131 125.874721 
L 571.761679 161.815575 
L 573.090228 129.868149 
L 574.418776 89.933866 
L 575.747324 145.841862 
L 577.075873 105.907579 
L 578.404421 89.933866 
L 579.732969 149.83529 
L 581.061518 105.907579 
L 582.390066 89.933866 
L 583.718614 61.979869 
L 585.047162 105.907579 
L 586.375711 85.940438 
L 587.704259 121.881292 
L 589.032807 93.927295 
L 590.361356 121.881292 
L 591.689904 85.940438 
L 593.018452 97.920723 
L 594.347 101.914151 
L 595.675549 141.848434 
L 597.004097 73.960153 
L 598.332645 109.901008 
L 599.661194 61.979869 
L 600.989742 113.894436 
L 602.31829 89.933866 
L 603.646838 89.933866 
L 604.975387 101.914151 
L 606.303935 125.874721 
L 607.632483 77.953582 
L 608.961032 113.894436 
L 611.618128 73.960153 
L 612.946676 57.98644 
L 614.275225 89.933866 
L 615.603773 89.933866 
L 616.932321 57.98644 
L 618.26087 85.940438 
L 619.589418 93.927295 
L 620.917966 97.920723 
L 622.246514 89.933866 
L 623.575063 57.98644 
L 624.903611 117.887864 
L 626.232159 73.960153 
L 627.560708 69.966725 
L 628.889256 57.98644 
L 630.217804 101.914151 
L 631.546353 77.953582 
L 632.874901 73.960153 
L 634.203449 85.940438 
L 635.531997 73.960153 
L 636.860546 69.966725 
L 638.189094 81.94701 
L 639.517642 89.933866 
L 642.174739 57.98644 
L 644.831835 57.98644 
L 646.160384 101.914151 
L 647.488932 61.979869 
L 648.81748 57.98644 
L 650.146029 73.960153 
L 651.474577 85.940438 
L 652.803125 57.98644 
L 655.460222 57.98644 
L 656.78877 73.960153 
L 658.117318 73.960153 
L 659.445867 49.999584 
L 660.774415 57.98644 
L 662.102963 73.960153 
L 663.431511 85.940438 
L 664.76006 89.933866 
L 666.088608 77.953582 
L 667.417156 57.98644 
L 668.745705 57.98644 
L 670.074253 65.973297 
L 671.402801 49.999584 
L 672.731349 57.98644 
L 674.059898 69.966725 
L 675.388446 57.98644 
L 679.374091 57.98644 
L 679.374091 57.98644 
" clip-path="url(#p340f26c84c)" style="fill: none; stroke: #ff7f0e; stroke-width: 1.5; stroke-linecap: square"/>
   </g>
   <g id="line2d_29">
    <path d="M 82.855909 325.546134 
L 84.184457 325.546134 
L 85.513006 349.506703 
L 86.841554 333.53299 
L 88.170102 293.598708 
L 89.498651 317.559277 
L 90.827199 301.585564 
L 92.155747 301.585564 
L 93.484295 317.559277 
L 94.812844 309.572421 
L 96.141392 317.559277 
L 97.46994 277.624995 
L 98.798489 325.546134 
L 100.127037 301.585564 
L 101.455585 309.572421 
L 102.784133 325.546134 
L 104.112682 317.559277 
L 105.44123 301.585564 
L 106.769778 301.585564 
L 108.098327 309.572421 
L 109.426875 325.546134 
L 110.755423 349.506703 
L 112.083971 317.559277 
L 113.41252 301.585564 
L 114.741068 373.467273 
L 117.398165 277.624995 
L 118.726713 333.53299 
L 120.055261 317.559277 
L 121.383809 317.559277 
L 122.712358 309.572421 
L 124.040906 333.53299 
L 125.369454 285.611851 
L 126.698003 333.53299 
L 128.026551 277.624995 
L 129.355099 285.611851 
L 132.012196 365.480416 
L 133.340744 333.53299 
L 134.669292 317.559277 
L 135.997841 317.559277 
L 138.654937 301.585564 
L 139.983486 261.651281 
L 141.312034 301.585564 
L 145.297679 301.585564 
L 146.626227 357.49356 
L 147.954775 341.519847 
L 149.283324 317.559277 
L 150.611872 333.53299 
L 151.94042 341.519847 
L 153.268968 277.624995 
L 154.597517 301.585564 
L 155.926065 293.598708 
L 157.254613 301.585564 
L 158.583162 293.598708 
L 159.91171 293.598708 
L 162.568806 277.624995 
L 163.897355 309.572421 
L 165.225903 325.546134 
L 166.554451 365.480416 
L 167.883 325.546134 
L 169.211548 301.585564 
L 170.540096 293.598708 
L 171.868644 317.559277 
L 173.197193 309.572421 
L 174.525741 325.546134 
L 175.854289 309.572421 
L 177.182838 301.585564 
L 178.511386 301.585564 
L 179.839934 317.559277 
L 181.168482 317.559277 
L 182.497031 285.611851 
L 183.825579 309.572421 
L 185.154127 293.598708 
L 186.482676 309.572421 
L 187.811224 309.572421 
L 189.139772 317.559277 
L 190.468321 301.585564 
L 191.796869 317.559277 
L 193.125417 277.624995 
L 194.453965 277.624995 
L 195.782514 309.572421 
L 197.111062 301.585564 
L 198.43961 325.546134 
L 199.768159 293.598708 
L 201.096707 309.572421 
L 202.425255 317.559277 
L 203.753803 301.585564 
L 205.082352 317.559277 
L 206.4109 301.585564 
L 207.739448 317.559277 
L 209.067997 285.611851 
L 210.396545 309.572421 
L 213.053641 325.546134 
L 214.38219 309.572421 
L 215.710738 269.638138 
L 217.039286 293.598708 
L 218.367835 293.598708 
L 219.696383 285.611851 
L 221.024931 301.585564 
L 222.353479 277.624995 
L 223.682028 269.638138 
L 225.010576 333.53299 
L 226.339124 293.598708 
L 227.667673 293.598708 
L 228.996221 325.546134 
L 230.324769 293.598708 
L 231.653317 269.638138 
L 232.981866 285.611851 
L 234.310414 277.624995 
L 235.638962 317.559277 
L 236.967511 301.585564 
L 238.296059 301.585564 
L 239.624607 245.677568 
L 240.953155 293.598708 
L 242.281704 293.598708 
L 243.610252 269.638138 
L 244.9388 285.611851 
L 246.267349 309.572421 
L 248.924445 309.572421 
L 250.252994 285.611851 
L 251.581542 301.585564 
L 252.91009 301.585564 
L 254.238638 277.624995 
L 255.567187 317.559277 
L 256.895735 261.651281 
L 258.224283 293.598708 
L 259.552832 285.611851 
L 260.88138 285.611851 
L 262.209928 261.651281 
L 263.538476 285.611851 
L 264.867025 301.585564 
L 266.195573 341.519847 
L 267.524121 325.546134 
L 268.85267 269.638138 
L 270.181218 301.585564 
L 271.509766 293.598708 
L 272.838314 261.651281 
L 274.166863 277.624995 
L 275.495411 341.519847 
L 276.823959 325.546134 
L 278.152508 301.585564 
L 279.481056 293.598708 
L 280.809604 293.598708 
L 282.138152 277.624995 
L 283.466701 285.611851 
L 284.795249 277.624995 
L 287.452346 309.572421 
L 288.780894 269.638138 
L 290.109442 269.638138 
L 291.43799 301.585564 
L 292.766539 309.572421 
L 294.095087 285.611851 
L 295.423635 309.572421 
L 296.752184 301.585564 
L 298.080732 317.559277 
L 299.40928 285.611851 
L 300.737829 277.624995 
L 302.066377 325.546134 
L 303.394925 277.624995 
L 304.723473 293.598708 
L 306.052022 293.598708 
L 307.38057 261.651281 
L 308.709118 277.624995 
L 310.037667 277.624995 
L 311.366215 301.585564 
L 312.694763 269.638138 
L 314.023311 293.598708 
L 315.35186 277.624995 
L 316.680408 293.598708 
L 318.008956 269.638138 
L 319.337505 277.624995 
L 320.666053 309.572421 
L 321.994601 285.611851 
L 323.323149 277.624995 
L 324.651698 277.624995 
L 325.980246 285.611851 
L 327.308794 285.611851 
L 328.637343 293.598708 
L 329.965891 293.598708 
L 331.294439 277.624995 
L 332.622987 245.677568 
L 333.951536 277.624995 
L 335.280084 245.677568 
L 336.608632 285.611851 
L 337.937181 261.651281 
L 339.265729 261.651281 
L 340.594277 309.572421 
L 341.922825 269.638138 
L 343.251374 269.638138 
L 344.579922 301.585564 
L 345.90847 293.598708 
L 347.237019 277.624995 
L 348.565567 269.638138 
L 349.894115 301.585564 
L 351.222663 309.572421 
L 352.551212 269.638138 
L 353.87976 285.611851 
L 355.208308 333.53299 
L 356.536857 293.598708 
L 357.865405 261.651281 
L 359.193953 277.624995 
L 360.522502 285.611851 
L 361.85105 301.585564 
L 363.179598 293.598708 
L 364.508146 261.651281 
L 365.836695 285.611851 
L 368.493791 301.585564 
L 369.82234 261.651281 
L 371.150888 269.638138 
L 372.479436 261.651281 
L 373.807984 277.624995 
L 375.136533 261.651281 
L 376.465081 301.585564 
L 377.793629 277.624995 
L 379.122178 277.624995 
L 380.450726 285.611851 
L 381.779274 261.651281 
L 383.107822 277.624995 
L 384.436371 269.638138 
L 385.764919 293.598708 
L 387.093467 293.598708 
L 388.422016 277.624995 
L 389.750564 285.611851 
L 392.40766 269.638138 
L 393.736209 285.611851 
L 395.064757 261.651281 
L 396.393305 285.611851 
L 397.721854 277.624995 
L 399.050402 261.651281 
L 400.37895 261.651281 
L 401.707498 245.677568 
L 405.693143 269.638138 
L 407.021692 261.651281 
L 408.35024 261.651281 
L 409.678788 269.638138 
L 412.335885 269.638138 
L 413.664433 285.611851 
L 414.992981 277.624995 
L 416.32153 261.651281 
L 417.650078 293.598708 
L 418.978626 245.677568 
L 420.307175 277.624995 
L 421.635723 285.611851 
L 422.964271 253.664425 
L 424.292819 277.624995 
L 425.621368 269.638138 
L 426.949916 269.638138 
L 428.278464 253.664425 
L 429.607013 269.638138 
L 430.935561 261.651281 
L 433.592657 293.598708 
L 434.921206 269.638138 
L 436.249754 261.651281 
L 437.578302 269.638138 
L 438.906851 253.664425 
L 440.235399 245.677568 
L 442.892495 293.598708 
L 444.221044 285.611851 
L 445.549592 261.651281 
L 446.87814 285.611851 
L 448.206689 253.664425 
L 449.535237 269.638138 
L 450.863785 269.638138 
L 452.192333 285.611851 
L 453.520882 237.690712 
L 454.84943 285.611851 
L 456.177978 261.651281 
L 457.506527 269.638138 
L 458.835075 253.664425 
L 460.163623 253.664425 
L 461.492171 245.677568 
L 462.82072 253.664425 
L 465.477816 253.664425 
L 466.806365 261.651281 
L 468.134913 261.651281 
L 469.463461 253.664425 
L 473.449106 253.664425 
L 474.777654 269.638138 
L 476.106203 253.664425 
L 480.091848 277.624995 
L 481.420396 269.638138 
L 484.077492 269.638138 
L 485.406041 253.664425 
L 486.734589 269.638138 
L 488.063137 253.664425 
L 489.391686 261.651281 
L 490.720234 277.624995 
L 492.048782 261.651281 
L 493.37733 277.624995 
L 494.705879 269.638138 
L 496.034427 253.664425 
L 497.362975 269.638138 
L 498.691524 261.651281 
L 500.020072 277.624995 
L 501.34862 245.677568 
L 502.677168 293.598708 
L 504.005717 253.664425 
L 505.334265 245.677568 
L 506.662813 245.677568 
L 507.991362 269.638138 
L 509.31991 245.677568 
L 510.648458 253.664425 
L 511.977006 269.638138 
L 513.305555 253.664425 
L 514.634103 261.651281 
L 515.962651 253.664425 
L 517.2912 237.690712 
L 518.619748 237.690712 
L 519.948296 253.664425 
L 522.605393 269.638138 
L 523.933941 245.677568 
L 525.262489 253.664425 
L 527.919586 253.664425 
L 529.248134 237.690712 
L 530.576683 261.651281 
L 531.905231 245.677568 
L 533.233779 269.638138 
L 534.562327 277.624995 
L 535.890876 245.677568 
L 537.219424 269.638138 
L 538.547972 261.651281 
L 542.533617 261.651281 
L 543.862165 269.638138 
L 545.190714 237.690712 
L 546.519262 237.690712 
L 547.84781 269.638138 
L 550.504907 253.664425 
L 551.833455 261.651281 
L 553.162003 261.651281 
L 554.490552 277.624995 
L 555.8191 245.677568 
L 557.147648 253.664425 
L 558.476197 253.664425 
L 559.804745 237.690712 
L 561.133293 269.638138 
L 563.79039 237.690712 
L 565.118938 253.664425 
L 567.776035 253.664425 
L 569.104583 269.638138 
L 570.433131 261.651281 
L 571.761679 229.703855 
L 573.090228 229.703855 
L 574.418776 237.690712 
L 575.747324 253.664425 
L 577.075873 253.664425 
L 578.404421 261.651281 
L 579.732969 253.664425 
L 581.061518 229.703855 
L 582.390066 229.703855 
L 583.718614 237.690712 
L 585.047162 253.664425 
L 586.375711 253.664425 
L 587.704259 237.690712 
L 589.032807 229.703855 
L 590.361356 229.703855 
L 591.689904 237.690712 
L 593.018452 253.664425 
L 594.347 253.664425 
L 595.675549 237.690712 
L 597.004097 237.690712 
L 598.332645 261.651281 
L 599.661194 237.690712 
L 600.989742 253.664425 
L 602.31829 245.677568 
L 603.646838 245.677568 
L 606.303935 229.703855 
L 607.632483 245.677568 
L 608.961032 237.690712 
L 611.618128 237.690712 
L 612.946676 245.677568 
L 615.603773 229.703855 
L 619.589418 253.664425 
L 620.917966 229.703855 
L 622.246514 237.690712 
L 623.575063 237.690712 
L 624.903611 229.703855 
L 626.232159 237.690712 
L 627.560708 229.703855 
L 630.217804 245.677568 
L 631.546353 245.677568 
L 634.203449 229.703855 
L 635.531997 245.677568 
L 636.860546 245.677568 
L 638.189094 229.703855 
L 639.517642 229.703855 
L 642.174739 245.677568 
L 644.831835 229.703855 
L 646.160384 253.664425 
L 648.81748 237.690712 
L 650.146029 237.690712 
L 651.474577 229.703855 
L 652.803125 237.690712 
L 655.460222 237.690712 
L 656.78877 229.703855 
L 659.445867 229.703855 
L 660.774415 237.690712 
L 662.102963 229.703855 
L 664.76006 229.703855 
L 666.088608 237.690712 
L 667.417156 229.703855 
L 679.374091 229.703855 
L 679.374091 229.703855 
" clip-path="url(#p340f26c84c)" style="fill: none; stroke: #2ca02c; stroke-width: 1.5; stroke-linecap: square"/>
   </g>
   <g id="patch_3">
    <path d="M 53.03 390.04 
L 53.03 25.44 
" style="fill: none; stroke: #000000; stroke-width: 0.8; stroke-linejoin: miter; stroke-linecap: square"/>
   </g>
   <g id="patch_4">
    <path d="M 709.2 390.04 
L 709.2 25.44 
" style="fill: none; stroke: #000000; stroke-width: 0.8; stroke-linejoin: miter; stroke-linecap: square"/>
   </g>
   <g id="patch_5">
    <path d="M 53.03 390.04 
L 709.2 390.04 
" style="fill: none; stroke: #000000; stroke-width: 0.8; stroke-linejoin: miter; stroke-linecap: square"/>
   </g>
   <g id="patch_6">
    <path d="M 53.03 25.44 
L 709.2 25.44 
" style="fill: none; stroke: #000000; stroke-width: 0.8; stroke-linejoin: miter; stroke-linecap: square"/>
   </g>
   <g id="text_16">
    <!-- Average Reward per Episode by Agent -->
    <g transform="translate(265.943125 19.44) scale(0.12 -0.12)">
     <defs>
      <path id="DejaVuSans-62" d="M 3116 1747 
Q 3116 2381 2855 2742 
Q 2594 3103 2138 3103 
Q 1681 3103 1420 2742 
Q 1159 2381 1159 1747 
Q 1159 1113 1420 752 
Q 1681 391 2138 391 
Q 2594 391 2855 752 
Q 3116 1113 3116 1747 
z
M 1159 2969 
Q 1341 3281 1617 3432 
Q 1894 3584 2278 3584 
Q 2916 3584 3314 3078 
Q 3713 2572 3713 1747 
Q 3713 922 3314 415 
Q 2916 -91 2278 -91 
Q 1894 -91 1617 61 
Q 1341 213 1159 525 
L 1159 0 
L 581 0 
L 581 4863 
L 1159 4863 
L 1159 2969 
z
" transform="scale(0.015625)"/>
      <path id="DejaVuSans-79" d="M 2059 -325 
Q 1816 -950 1584 -1140 
Q 1353 -1331 966 -1331 
L 506 -1331 
L 506 -850 
L 844 -850 
Q 1081 -850 1212 -737 
Q 1344 -625 1503 -206 
L 1606 56 
L 191 3500 
L 800 3500 
L 1894 763 
L 2988 3500 
L 3597 3500 
L 2059 -325 
z
" transform="scale(0.015625)"/>
      <path id="DejaVuSans-6e" d="M 3513 2113 
L 3513 0 
L 2938 0 
L 2938 2094 
Q 2938 2591 2744 2837 
Q 2550 3084 2163 3084 
Q 1697 3084 1428 2787 
Q 1159 2491 1159 1978 
L 1159 0 
L 581 0 
L 581 3500 
L 1159 3500 
L 1159 2956 
Q 1366 3272 1645 3428 
Q 1925 3584 2291 3584 
Q 2894 3584 3203 3211 
Q 3513 2838 3513 2113 
z
" transform="scale(0.015625)"/>
      <path id="DejaVuSans-74" d="M 1172 4494 
L 1172 3500 
L 2356 3500 
L 2356 3053 
L 1172 3053 
L 1172 1153 
Q 1172 725 1289 603 
Q 1406 481 1766 481 
L 2356 481 
L 2356 0 
L 1766 0 
Q 1100 0 847 248 
Q 594 497 594 1153 
L 594 3053 
L 172 3053 
L 172 3500 
L 594 3500 
L 594 4494 
L 1172 4494 
z
" transform="scale(0.015625)"/>
     </defs>
     <use xlink:href="#DejaVuSans-41"/>
     <use xlink:href="#DejaVuSans-76" x="62.533203"/>
     <use xlink:href="#DejaVuSans-65" x="121.712891"/>
     <use xlink:href="#DejaVuSans-72" x="183.236328"/>
     <use xlink:href="#DejaVuSans-61" x="224.349609"/>
     <use xlink:href="#DejaVuSans-67" x="285.628906"/>
     <use xlink:href="#DejaVuSans-65" x="349.105469"/>
     <use xlink:href="#DejaVuSans-20" x="410.628906"/>
     <use xlink:href="#DejaVuSans-52" x="442.416016"/>
     <use xlink:href="#DejaVuSans-65" x="507.398438"/>
     <use xlink:href="#DejaVuSans-77" x="568.921875"/>
     <use xlink:href="#DejaVuSans-61" x="650.708984"/>
     <use xlink:href="#DejaVuSans-72" x="711.988281"/>
     <use xlink:href="#DejaVuSans-64" x="751.351562"/>
     <use xlink:href="#DejaVuSans-20" x="814.828125"/>
     <use xlink:href="#DejaVuSans-70" x="846.615234"/>
     <use xlink:href="#DejaVuSans-65" x="910.091797"/>
     <use xlink:href="#DejaVuSans-72" x="971.615234"/>
     <use xlink:href="#DejaVuSans-20" x="1012.728516"/>
     <use xlink:href="#DejaVuSans-45" x="1044.515625"/>
     <use xlink:href="#DejaVuSans-70" x="1107.699219"/>
     <use xlink:href="#DejaVuSans-69" x="1171.175781"/>
     <use xlink:href="#DejaVuSans-73" x="1198.958984"/>
     <use xlink:href="#DejaVuSans-6f" x="1251.058594"/>
     <use xlink:href="#DejaVuSans-64" x="1312.240234"/>
     <use xlink:href="#DejaVuSans-65" x="1375.716797"/>
     <use xlink:href="#DejaVuSans-20" x="1437.240234"/>
     <use xlink:href="#DejaVuSans-62" x="1469.027344"/>
     <use xlink:href="#DejaVuSans-79" x="1532.503906"/>
     <use xlink:href="#DejaVuSans-20" x="1591.683594"/>
     <use xlink:href="#DejaVuSans-41" x="1623.470703"/>
     <use xlink:href="#DejaVuSans-67" x="1691.878906"/>
     <use xlink:href="#DejaVuSans-65" x="1755.355469"/>
     <use xlink:href="#DejaVuSans-6e" x="1816.878906"/>
     <use xlink:href="#DejaVuSans-74" x="1880.257812"/>
    </g>
   </g>
   <g id="legend_1">
    <g id="patch_7">
     <path d="M 60.03 77.474375 
L 207.825313 77.474375 
Q 209.825313 77.474375 209.825313 75.474375 
L 209.825313 32.44 
Q 209.825313 30.44 207.825313 30.44 
L 60.03 30.44 
Q 58.03 30.44 58.03 32.44 
L 58.03 75.474375 
Q 58.03 77.474375 60.03 77.474375 
z
" style="fill: #ffffff; opacity: 0.8; stroke: #cccccc; stroke-linejoin: miter"/>
    </g>
    <g id="line2d_30">
     <path d="M 62.03 38.538437 
L 72.03 38.538437 
L 82.03 38.538437 
" style="fill: none; stroke: #1f77b4; stroke-width: 1.5; stroke-linecap: square"/>
    </g>
    <g id="text_17">
     <!-- solar - Average Reward -->
     <g transform="translate(90.03 42.038437) scale(0.1 -0.1)">
      <defs>
       <path id="DejaVuSans-6c" d="M 603 4863 
L 1178 4863 
L 1178 0 
L 603 0 
L 603 4863 
z
" transform="scale(0.015625)"/>
       <path id="DejaVuSans-2d" d="M 313 2009 
L 1997 2009 
L 1997 1497 
L 313 1497 
L 313 2009 
z
" transform="scale(0.015625)"/>
      </defs>
      <use xlink:href="#DejaVuSans-73"/>
      <use xlink:href="#DejaVuSans-6f" x="52.099609"/>
      <use xlink:href="#DejaVuSans-6c" x="113.28125"/>
      <use xlink:href="#DejaVuSans-61" x="141.064453"/>
      <use xlink:href="#DejaVuSans-72" x="202.34375"/>
      <use xlink:href="#DejaVuSans-20" x="243.457031"/>
      <use xlink:href="#DejaVuSans-2d" x="275.244141"/>
      <use xlink:href="#DejaVuSans-20" x="311.328125"/>
      <use xlink:href="#DejaVuSans-41" x="343.115234"/>
      <use xlink:href="#DejaVuSans-76" x="405.648438"/>
      <use xlink:href="#DejaVuSans-65" x="464.828125"/>
      <use xlink:href="#DejaVuSans-72" x="526.351562"/>
      <use xlink:href="#DejaVuSans-61" x="567.464844"/>
      <use xlink:href="#DejaVuSans-67" x="628.744141"/>
      <use xlink:href="#DejaVuSans-65" x="692.220703"/>
      <use xlink:href="#DejaVuSans-20" x="753.744141"/>
      <use xlink:href="#DejaVuSans-52" x="785.53125"/>
      <use xlink:href="#DejaVuSans-65" x="850.513672"/>
      <use xlink:href="#DejaVuSans-77" x="912.037109"/>
      <use xlink:href="#DejaVuSans-61" x="993.824219"/>
      <use xlink:href="#DejaVuSans-72" x="1055.103516"/>
      <use xlink:href="#DejaVuSans-64" x="1094.466797"/>
     </g>
    </g>
    <g id="line2d_31">
     <path d="M 62.03 53.216563 
L 72.03 53.216563 
L 82.03 53.216563 
" style="fill: none; stroke: #ff7f0e; stroke-width: 1.5; stroke-linecap: square"/>
    </g>
    <g id="text_18">
     <!-- bat - Average Reward -->
     <g transform="translate(90.03 56.716563) scale(0.1 -0.1)">
      <use xlink:href="#DejaVuSans-62"/>
      <use xlink:href="#DejaVuSans-61" x="63.476562"/>
      <use xlink:href="#DejaVuSans-74" x="124.755859"/>
      <use xlink:href="#DejaVuSans-20" x="163.964844"/>
      <use xlink:href="#DejaVuSans-2d" x="195.751953"/>
      <use xlink:href="#DejaVuSans-20" x="231.835938"/>
      <use xlink:href="#DejaVuSans-41" x="263.623047"/>
      <use xlink:href="#DejaVuSans-76" x="326.15625"/>
      <use xlink:href="#DejaVuSans-65" x="385.335938"/>
      <use xlink:href="#DejaVuSans-72" x="446.859375"/>
      <use xlink:href="#DejaVuSans-61" x="487.972656"/>
      <use xlink:href="#DejaVuSans-67" x="549.251953"/>
      <use xlink:href="#DejaVuSans-65" x="612.728516"/>
      <use xlink:href="#DejaVuSans-20" x="674.251953"/>
      <use xlink:href="#DejaVuSans-52" x="706.039062"/>
      <use xlink:href="#DejaVuSans-65" x="771.021484"/>
      <use xlink:href="#DejaVuSans-77" x="832.544922"/>
      <use xlink:href="#DejaVuSans-61" x="914.332031"/>
      <use xlink:href="#DejaVuSans-72" x="975.611328"/>
      <use xlink:href="#DejaVuSans-64" x="1014.974609"/>
     </g>
    </g>
    <g id="line2d_32">
     <path d="M 62.03 67.894687 
L 72.03 67.894687 
L 82.03 67.894687 
" style="fill: none; stroke: #2ca02c; stroke-width: 1.5; stroke-linecap: square"/>
    </g>
    <g id="text_19">
     <!-- grid - Average Reward -->
     <g transform="translate(90.03 71.394687) scale(0.1 -0.1)">
      <use xlink:href="#DejaVuSans-67"/>
      <use xlink:href="#DejaVuSans-72" x="63.476562"/>
      <use xlink:href="#DejaVuSans-69" x="104.589844"/>
      <use xlink:href="#DejaVuSans-64" x="132.373047"/>
      <use xlink:href="#DejaVuSans-20" x="195.849609"/>
      <use xlink:href="#DejaVuSans-2d" x="227.636719"/>
      <use xlink:href="#DejaVuSans-20" x="263.720703"/>
      <use xlink:href="#DejaVuSans-41" x="295.507812"/>
      <use xlink:href="#DejaVuSans-76" x="358.041016"/>
      <use xlink:href="#DejaVuSans-65" x="417.220703"/>
      <use xlink:href="#DejaVuSans-72" x="478.744141"/>
      <use xlink:href="#DejaVuSans-61" x="519.857422"/>
      <use xlink:href="#DejaVuSans-67" x="581.136719"/>
      <use xlink:href="#DejaVuSans-65" x="644.613281"/>
      <use xlink:href="#DejaVuSans-20" x="706.136719"/>
      <use xlink:href="#DejaVuSans-52" x="737.923828"/>
      <use xlink:href="#DejaVuSans-65" x="802.90625"/>
      <use xlink:href="#DejaVuSans-77" x="864.429688"/>
      <use xlink:href="#DejaVuSans-61" x="946.216797"/>
      <use xlink:href="#DejaVuSans-72" x="1007.496094"/>
      <use xlink:href="#DejaVuSans-64" x="1046.859375"/>
     </g>
    </g>
   </g>
  </g>
 </g>
 <defs>
  <clipPath id="p340f26c84c">
   <rect x="53.03" y="25.44" width="656.17" height="364.6"/>
  </clipPath>
 </defs>
</svg>
