<?xml version="1.0" encoding="utf-8" standalone="no"?>
<!DOCTYPE svg PUBLIC "-//W3C//DTD SVG 1.1//EN"
  "http://www.w3.org/Graphics/SVG/1.1/DTD/svg11.dtd">
<svg xmlns:xlink="http://www.w3.org/1999/xlink" width="720pt" height="432pt" viewBox="0 0 720 432" xmlns="http://www.w3.org/2000/svg" version="1.1">
 <metadata>
  <rdf:RDF xmlns:dc="http://purl.org/dc/elements/1.1/" xmlns:cc="http://creativecommons.org/ns#" xmlns:rdf="http://www.w3.org/1999/02/22-rdf-syntax-ns#">
   <cc:Work>
    <dc:type rdf:resource="http://purl.org/dc/dcmitype/StillImage"/>
    <dc:date>2025-06-05T14:26:24.300137</dc:date>
    <dc:format>image/svg+xml</dc:format>
    <dc:creator>
     <cc:Agent>
      <dc:title>Matplotlib v3.8.4, https://matplotlib.org/</dc:title>
     </cc:Agent>
    </dc:creator>
   </cc:Work>
  </rdf:RDF>
 </metadata>
 <defs>
  <style type="text/css">*{stroke-linejoin: round; stroke-linecap: butt}</style>
 </defs>
 <g id="figure_1">
  <g id="patch_1">
   <path d="M 0 432 
L 720 432 
L 720 0 
L 0 0 
z
" style="fill: #ffffff"/>
  </g>
  <g id="axes_1">
   <g id="patch_2">
    <path d="M 53.03 390.04 
L 709.2 390.04 
L 709.2 25.44 
L 53.03 25.44 
z
" style="fill: #ffffff"/>
   </g>
   <g id="matplotlib.axis_1">
    <g id="xtick_1">
     <g id="line2d_1">
      <path d="M 82.855909 390.04 
L 82.855909 25.44 
" clip-path="url(#pae0af268e9)" style="fill: none; stroke: #b0b0b0; stroke-width: 0.8; stroke-linecap: square"/>
     </g>
     <g id="line2d_2">
      <defs>
       <path id="mcd3866f52e" d="M 0 0 
L 0 3.5 
" style="stroke: #000000; stroke-width: 0.8"/>
      </defs>
      <g>
       <use xlink:href="#mcd3866f52e" x="82.855909" y="390.04" style="stroke: #000000; stroke-width: 0.8"/>
      </g>
     </g>
     <g id="text_1">
      <!-- 0 -->
      <g transform="translate(79.674659 404.638438) scale(0.1 -0.1)">
       <defs>
        <path id="DejaVuSans-30" d="M 2034 4250 
Q 1547 4250 1301 3770 
Q 1056 3291 1056 2328 
Q 1056 1369 1301 889 
Q 1547 409 2034 409 
Q 2525 409 2770 889 
Q 3016 1369 3016 2328 
Q 3016 3291 2770 3770 
Q 2525 4250 2034 4250 
z
M 2034 4750 
Q 2819 4750 3233 4129 
Q 3647 3509 3647 2328 
Q 3647 1150 3233 529 
Q 2819 -91 2034 -91 
Q 1250 -91 836 529 
Q 422 1150 422 2328 
Q 422 3509 836 4129 
Q 1250 4750 2034 4750 
z
" transform="scale(0.015625)"/>
       </defs>
       <use xlink:href="#DejaVuSans-30"/>
      </g>
     </g>
    </g>
    <g id="xtick_2">
     <g id="line2d_3">
      <path d="M 215.710738 390.04 
L 215.710738 25.44 
" clip-path="url(#pae0af268e9)" style="fill: none; stroke: #b0b0b0; stroke-width: 0.8; stroke-linecap: square"/>
     </g>
     <g id="line2d_4">
      <g>
       <use xlink:href="#mcd3866f52e" x="215.710738" y="390.04" style="stroke: #000000; stroke-width: 0.8"/>
      </g>
     </g>
     <g id="text_2">
      <!-- 100 -->
      <g transform="translate(206.166988 404.638438) scale(0.1 -0.1)">
       <defs>
        <path id="DejaVuSans-31" d="M 794 531 
L 1825 531 
L 1825 4091 
L 703 3866 
L 703 4441 
L 1819 4666 
L 2450 4666 
L 2450 531 
L 3481 531 
L 3481 0 
L 794 0 
L 794 531 
z
" transform="scale(0.015625)"/>
       </defs>
       <use xlink:href="#DejaVuSans-31"/>
       <use xlink:href="#DejaVuSans-30" x="63.623047"/>
       <use xlink:href="#DejaVuSans-30" x="127.246094"/>
      </g>
     </g>
    </g>
    <g id="xtick_3">
     <g id="line2d_5">
      <path d="M 348.565567 390.04 
L 348.565567 25.44 
" clip-path="url(#pae0af268e9)" style="fill: none; stroke: #b0b0b0; stroke-width: 0.8; stroke-linecap: square"/>
     </g>
     <g id="line2d_6">
      <g>
       <use xlink:href="#mcd3866f52e" x="348.565567" y="390.04" style="stroke: #000000; stroke-width: 0.8"/>
      </g>
     </g>
     <g id="text_3">
      <!-- 200 -->
      <g transform="translate(339.021817 404.638438) scale(0.1 -0.1)">
       <defs>
        <path id="DejaVuSans-32" d="M 1228 531 
L 3431 531 
L 3431 0 
L 469 0 
L 469 531 
Q 828 903 1448 1529 
Q 2069 2156 2228 2338 
Q 2531 2678 2651 2914 
Q 2772 3150 2772 3378 
Q 2772 3750 2511 3984 
Q 2250 4219 1831 4219 
Q 1534 4219 1204 4116 
Q 875 4013 500 3803 
L 500 4441 
Q 881 4594 1212 4672 
Q 1544 4750 1819 4750 
Q 2544 4750 2975 4387 
Q 3406 4025 3406 3419 
Q 3406 3131 3298 2873 
Q 3191 2616 2906 2266 
Q 2828 2175 2409 1742 
Q 1991 1309 1228 531 
z
" transform="scale(0.015625)"/>
       </defs>
       <use xlink:href="#DejaVuSans-32"/>
       <use xlink:href="#DejaVuSans-30" x="63.623047"/>
       <use xlink:href="#DejaVuSans-30" x="127.246094"/>
      </g>
     </g>
    </g>
    <g id="xtick_4">
     <g id="line2d_7">
      <path d="M 481.420396 390.04 
L 481.420396 25.44 
" clip-path="url(#pae0af268e9)" style="fill: none; stroke: #b0b0b0; stroke-width: 0.8; stroke-linecap: square"/>
     </g>
     <g id="line2d_8">
      <g>
       <use xlink:href="#mcd3866f52e" x="481.420396" y="390.04" style="stroke: #000000; stroke-width: 0.8"/>
      </g>
     </g>
     <g id="text_4">
      <!-- 300 -->
      <g transform="translate(471.876646 404.638438) scale(0.1 -0.1)">
       <defs>
        <path id="DejaVuSans-33" d="M 2597 2516 
Q 3050 2419 3304 2112 
Q 3559 1806 3559 1356 
Q 3559 666 3084 287 
Q 2609 -91 1734 -91 
Q 1441 -91 1130 -33 
Q 819 25 488 141 
L 488 750 
Q 750 597 1062 519 
Q 1375 441 1716 441 
Q 2309 441 2620 675 
Q 2931 909 2931 1356 
Q 2931 1769 2642 2001 
Q 2353 2234 1838 2234 
L 1294 2234 
L 1294 2753 
L 1863 2753 
Q 2328 2753 2575 2939 
Q 2822 3125 2822 3475 
Q 2822 3834 2567 4026 
Q 2313 4219 1838 4219 
Q 1578 4219 1281 4162 
Q 984 4106 628 3988 
L 628 4550 
Q 988 4650 1302 4700 
Q 1616 4750 1894 4750 
Q 2613 4750 3031 4423 
Q 3450 4097 3450 3541 
Q 3450 3153 3228 2886 
Q 3006 2619 2597 2516 
z
" transform="scale(0.015625)"/>
       </defs>
       <use xlink:href="#DejaVuSans-33"/>
       <use xlink:href="#DejaVuSans-30" x="63.623047"/>
       <use xlink:href="#DejaVuSans-30" x="127.246094"/>
      </g>
     </g>
    </g>
    <g id="xtick_5">
     <g id="line2d_9">
      <path d="M 614.275225 390.04 
L 614.275225 25.44 
" clip-path="url(#pae0af268e9)" style="fill: none; stroke: #b0b0b0; stroke-width: 0.8; stroke-linecap: square"/>
     </g>
     <g id="line2d_10">
      <g>
       <use xlink:href="#mcd3866f52e" x="614.275225" y="390.04" style="stroke: #000000; stroke-width: 0.8"/>
      </g>
     </g>
     <g id="text_5">
      <!-- 400 -->
      <g transform="translate(604.731475 404.638438) scale(0.1 -0.1)">
       <defs>
        <path id="DejaVuSans-34" d="M 2419 4116 
L 825 1625 
L 2419 1625 
L 2419 4116 
z
M 2253 4666 
L 3047 4666 
L 3047 1625 
L 3713 1625 
L 3713 1100 
L 3047 1100 
L 3047 0 
L 2419 0 
L 2419 1100 
L 313 1100 
L 313 1709 
L 2253 4666 
z
" transform="scale(0.015625)"/>
       </defs>
       <use xlink:href="#DejaVuSans-34"/>
       <use xlink:href="#DejaVuSans-30" x="63.623047"/>
       <use xlink:href="#DejaVuSans-30" x="127.246094"/>
      </g>
     </g>
    </g>
    <g id="text_6">
     <!-- Episode -->
     <g transform="translate(361.4775 418.316562) scale(0.1 -0.1)">
      <defs>
       <path id="DejaVuSans-45" d="M 628 4666 
L 3578 4666 
L 3578 4134 
L 1259 4134 
L 1259 2753 
L 3481 2753 
L 3481 2222 
L 1259 2222 
L 1259 531 
L 3634 531 
L 3634 0 
L 628 0 
L 628 4666 
z
" transform="scale(0.015625)"/>
       <path id="DejaVuSans-70" d="M 1159 525 
L 1159 -1331 
L 581 -1331 
L 581 3500 
L 1159 3500 
L 1159 2969 
Q 1341 3281 1617 3432 
Q 1894 3584 2278 3584 
Q 2916 3584 3314 3078 
Q 3713 2572 3713 1747 
Q 3713 922 3314 415 
Q 2916 -91 2278 -91 
Q 1894 -91 1617 61 
Q 1341 213 1159 525 
z
M 3116 1747 
Q 3116 2381 2855 2742 
Q 2594 3103 2138 3103 
Q 1681 3103 1420 2742 
Q 1159 2381 1159 1747 
Q 1159 1113 1420 752 
Q 1681 391 2138 391 
Q 2594 391 2855 752 
Q 3116 1113 3116 1747 
z
" transform="scale(0.015625)"/>
       <path id="DejaVuSans-69" d="M 603 3500 
L 1178 3500 
L 1178 0 
L 603 0 
L 603 3500 
z
M 603 4863 
L 1178 4863 
L 1178 4134 
L 603 4134 
L 603 4863 
z
" transform="scale(0.015625)"/>
       <path id="DejaVuSans-73" d="M 2834 3397 
L 2834 2853 
Q 2591 2978 2328 3040 
Q 2066 3103 1784 3103 
Q 1356 3103 1142 2972 
Q 928 2841 928 2578 
Q 928 2378 1081 2264 
Q 1234 2150 1697 2047 
L 1894 2003 
Q 2506 1872 2764 1633 
Q 3022 1394 3022 966 
Q 3022 478 2636 193 
Q 2250 -91 1575 -91 
Q 1294 -91 989 -36 
Q 684 19 347 128 
L 347 722 
Q 666 556 975 473 
Q 1284 391 1588 391 
Q 1994 391 2212 530 
Q 2431 669 2431 922 
Q 2431 1156 2273 1281 
Q 2116 1406 1581 1522 
L 1381 1569 
Q 847 1681 609 1914 
Q 372 2147 372 2553 
Q 372 3047 722 3315 
Q 1072 3584 1716 3584 
Q 2034 3584 2315 3537 
Q 2597 3491 2834 3397 
z
" transform="scale(0.015625)"/>
       <path id="DejaVuSans-6f" d="M 1959 3097 
Q 1497 3097 1228 2736 
Q 959 2375 959 1747 
Q 959 1119 1226 758 
Q 1494 397 1959 397 
Q 2419 397 2687 759 
Q 2956 1122 2956 1747 
Q 2956 2369 2687 2733 
Q 2419 3097 1959 3097 
z
M 1959 3584 
Q 2709 3584 3137 3096 
Q 3566 2609 3566 1747 
Q 3566 888 3137 398 
Q 2709 -91 1959 -91 
Q 1206 -91 779 398 
Q 353 888 353 1747 
Q 353 2609 779 3096 
Q 1206 3584 1959 3584 
z
" transform="scale(0.015625)"/>
       <path id="DejaVuSans-64" d="M 2906 2969 
L 2906 4863 
L 3481 4863 
L 3481 0 
L 2906 0 
L 2906 525 
Q 2725 213 2448 61 
Q 2172 -91 1784 -91 
Q 1150 -91 751 415 
Q 353 922 353 1747 
Q 353 2572 751 3078 
Q 1150 3584 1784 3584 
Q 2172 3584 2448 3432 
Q 2725 3281 2906 2969 
z
M 947 1747 
Q 947 1113 1208 752 
Q 1469 391 1925 391 
Q 2381 391 2643 752 
Q 2906 1113 2906 1747 
Q 2906 2381 2643 2742 
Q 2381 3103 1925 3103 
Q 1469 3103 1208 2742 
Q 947 2381 947 1747 
z
" transform="scale(0.015625)"/>
       <path id="DejaVuSans-65" d="M 3597 1894 
L 3597 1613 
L 953 1613 
Q 991 1019 1311 708 
Q 1631 397 2203 397 
Q 2534 397 2845 478 
Q 3156 559 3463 722 
L 3463 178 
Q 3153 47 2828 -22 
Q 2503 -91 2169 -91 
Q 1331 -91 842 396 
Q 353 884 353 1716 
Q 353 2575 817 3079 
Q 1281 3584 2069 3584 
Q 2775 3584 3186 3129 
Q 3597 2675 3597 1894 
z
M 3022 2063 
Q 3016 2534 2758 2815 
Q 2500 3097 2075 3097 
Q 1594 3097 1305 2825 
Q 1016 2553 972 2059 
L 3022 2063 
z
" transform="scale(0.015625)"/>
      </defs>
      <use xlink:href="#DejaVuSans-45"/>
      <use xlink:href="#DejaVuSans-70" x="63.183594"/>
      <use xlink:href="#DejaVuSans-69" x="126.660156"/>
      <use xlink:href="#DejaVuSans-73" x="154.443359"/>
      <use xlink:href="#DejaVuSans-6f" x="206.542969"/>
      <use xlink:href="#DejaVuSans-64" x="267.724609"/>
      <use xlink:href="#DejaVuSans-65" x="331.201172"/>
     </g>
    </g>
   </g>
   <g id="matplotlib.axis_2">
    <g id="ytick_1">
     <g id="line2d_11">
      <path d="M 53.03 342.938565 
L 709.2 342.938565 
" clip-path="url(#pae0af268e9)" style="fill: none; stroke: #b0b0b0; stroke-width: 0.8; stroke-linecap: square"/>
     </g>
     <g id="line2d_12">
      <defs>
       <path id="m5f5fe6885c" d="M 0 0 
L -3.5 0 
" style="stroke: #000000; stroke-width: 0.8"/>
      </defs>
      <g>
       <use xlink:href="#m5f5fe6885c" x="53.03" y="342.938565" style="stroke: #000000; stroke-width: 0.8"/>
      </g>
     </g>
     <g id="text_7">
      <!-- −10 -->
      <g transform="translate(24.925313 346.737783) scale(0.1 -0.1)">
       <defs>
        <path id="DejaVuSans-2212" d="M 678 2272 
L 4684 2272 
L 4684 1741 
L 678 1741 
L 678 2272 
z
" transform="scale(0.015625)"/>
       </defs>
       <use xlink:href="#DejaVuSans-2212"/>
       <use xlink:href="#DejaVuSans-31" x="83.789062"/>
       <use xlink:href="#DejaVuSans-30" x="147.412109"/>
      </g>
     </g>
    </g>
    <g id="ytick_2">
     <g id="line2d_13">
      <path d="M 53.03 292.784258 
L 709.2 292.784258 
" clip-path="url(#pae0af268e9)" style="fill: none; stroke: #b0b0b0; stroke-width: 0.8; stroke-linecap: square"/>
     </g>
     <g id="line2d_14">
      <g>
       <use xlink:href="#m5f5fe6885c" x="53.03" y="292.784258" style="stroke: #000000; stroke-width: 0.8"/>
      </g>
     </g>
     <g id="text_8">
      <!-- −5 -->
      <g transform="translate(31.287813 296.583477) scale(0.1 -0.1)">
       <defs>
        <path id="DejaVuSans-35" d="M 691 4666 
L 3169 4666 
L 3169 4134 
L 1269 4134 
L 1269 2991 
Q 1406 3038 1543 3061 
Q 1681 3084 1819 3084 
Q 2600 3084 3056 2656 
Q 3513 2228 3513 1497 
Q 3513 744 3044 326 
Q 2575 -91 1722 -91 
Q 1428 -91 1123 -41 
Q 819 9 494 109 
L 494 744 
Q 775 591 1075 516 
Q 1375 441 1709 441 
Q 2250 441 2565 725 
Q 2881 1009 2881 1497 
Q 2881 1984 2565 2268 
Q 2250 2553 1709 2553 
Q 1456 2553 1204 2497 
Q 953 2441 691 2322 
L 691 4666 
z
" transform="scale(0.015625)"/>
       </defs>
       <use xlink:href="#DejaVuSans-2212"/>
       <use xlink:href="#DejaVuSans-35" x="83.789062"/>
      </g>
     </g>
    </g>
    <g id="ytick_3">
     <g id="line2d_15">
      <path d="M 53.03 242.629952 
L 709.2 242.629952 
" clip-path="url(#pae0af268e9)" style="fill: none; stroke: #b0b0b0; stroke-width: 0.8; stroke-linecap: square"/>
     </g>
     <g id="line2d_16">
      <g>
       <use xlink:href="#m5f5fe6885c" x="53.03" y="242.629952" style="stroke: #000000; stroke-width: 0.8"/>
      </g>
     </g>
     <g id="text_9">
      <!-- 0 -->
      <g transform="translate(39.6675 246.429171) scale(0.1 -0.1)">
       <use xlink:href="#DejaVuSans-30"/>
      </g>
     </g>
    </g>
    <g id="ytick_4">
     <g id="line2d_17">
      <path d="M 53.03 192.475646 
L 709.2 192.475646 
" clip-path="url(#pae0af268e9)" style="fill: none; stroke: #b0b0b0; stroke-width: 0.8; stroke-linecap: square"/>
     </g>
     <g id="line2d_18">
      <g>
       <use xlink:href="#m5f5fe6885c" x="53.03" y="192.475646" style="stroke: #000000; stroke-width: 0.8"/>
      </g>
     </g>
     <g id="text_10">
      <!-- 5 -->
      <g transform="translate(39.6675 196.274865) scale(0.1 -0.1)">
       <use xlink:href="#DejaVuSans-35"/>
      </g>
     </g>
    </g>
    <g id="ytick_5">
     <g id="line2d_19">
      <path d="M 53.03 142.32134 
L 709.2 142.32134 
" clip-path="url(#pae0af268e9)" style="fill: none; stroke: #b0b0b0; stroke-width: 0.8; stroke-linecap: square"/>
     </g>
     <g id="line2d_20">
      <g>
       <use xlink:href="#m5f5fe6885c" x="53.03" y="142.32134" style="stroke: #000000; stroke-width: 0.8"/>
      </g>
     </g>
     <g id="text_11">
      <!-- 10 -->
      <g transform="translate(33.305 146.120558) scale(0.1 -0.1)">
       <use xlink:href="#DejaVuSans-31"/>
       <use xlink:href="#DejaVuSans-30" x="63.623047"/>
      </g>
     </g>
    </g>
    <g id="ytick_6">
     <g id="line2d_21">
      <path d="M 53.03 92.167033 
L 709.2 92.167033 
" clip-path="url(#pae0af268e9)" style="fill: none; stroke: #b0b0b0; stroke-width: 0.8; stroke-linecap: square"/>
     </g>
     <g id="line2d_22">
      <g>
       <use xlink:href="#m5f5fe6885c" x="53.03" y="92.167033" style="stroke: #000000; stroke-width: 0.8"/>
      </g>
     </g>
     <g id="text_12">
      <!-- 15 -->
      <g transform="translate(33.305 95.966252) scale(0.1 -0.1)">
       <use xlink:href="#DejaVuSans-31"/>
       <use xlink:href="#DejaVuSans-35" x="63.623047"/>
      </g>
     </g>
    </g>
    <g id="ytick_7">
     <g id="line2d_23">
      <path d="M 53.03 42.012727 
L 709.2 42.012727 
" clip-path="url(#pae0af268e9)" style="fill: none; stroke: #b0b0b0; stroke-width: 0.8; stroke-linecap: square"/>
     </g>
     <g id="line2d_24">
      <g>
       <use xlink:href="#m5f5fe6885c" x="53.03" y="42.012727" style="stroke: #000000; stroke-width: 0.8"/>
      </g>
     </g>
     <g id="text_13">
      <!-- 20 -->
      <g transform="translate(33.305 45.811946) scale(0.1 -0.1)">
       <use xlink:href="#DejaVuSans-32"/>
       <use xlink:href="#DejaVuSans-30" x="63.623047"/>
      </g>
     </g>
    </g>
    <g id="text_14">
     <!-- Average Reward -->
     <g transform="translate(18.845625 248.482969) rotate(-90) scale(0.1 -0.1)">
      <defs>
       <path id="DejaVuSans-41" d="M 2188 4044 
L 1331 1722 
L 3047 1722 
L 2188 4044 
z
M 1831 4666 
L 2547 4666 
L 4325 0 
L 3669 0 
L 3244 1197 
L 1141 1197 
L 716 0 
L 50 0 
L 1831 4666 
z
" transform="scale(0.015625)"/>
       <path id="DejaVuSans-76" d="M 191 3500 
L 800 3500 
L 1894 563 
L 2988 3500 
L 3597 3500 
L 2284 0 
L 1503 0 
L 191 3500 
z
" transform="scale(0.015625)"/>
       <path id="DejaVuSans-72" d="M 2631 2963 
Q 2534 3019 2420 3045 
Q 2306 3072 2169 3072 
Q 1681 3072 1420 2755 
Q 1159 2438 1159 1844 
L 1159 0 
L 581 0 
L 581 3500 
L 1159 3500 
L 1159 2956 
Q 1341 3275 1631 3429 
Q 1922 3584 2338 3584 
Q 2397 3584 2469 3576 
Q 2541 3569 2628 3553 
L 2631 2963 
z
" transform="scale(0.015625)"/>
       <path id="DejaVuSans-61" d="M 2194 1759 
Q 1497 1759 1228 1600 
Q 959 1441 959 1056 
Q 959 750 1161 570 
Q 1363 391 1709 391 
Q 2188 391 2477 730 
Q 2766 1069 2766 1631 
L 2766 1759 
L 2194 1759 
z
M 3341 1997 
L 3341 0 
L 2766 0 
L 2766 531 
Q 2569 213 2275 61 
Q 1981 -91 1556 -91 
Q 1019 -91 701 211 
Q 384 513 384 1019 
Q 384 1609 779 1909 
Q 1175 2209 1959 2209 
L 2766 2209 
L 2766 2266 
Q 2766 2663 2505 2880 
Q 2244 3097 1772 3097 
Q 1472 3097 1187 3025 
Q 903 2953 641 2809 
L 641 3341 
Q 956 3463 1253 3523 
Q 1550 3584 1831 3584 
Q 2591 3584 2966 3190 
Q 3341 2797 3341 1997 
z
" transform="scale(0.015625)"/>
       <path id="DejaVuSans-67" d="M 2906 1791 
Q 2906 2416 2648 2759 
Q 2391 3103 1925 3103 
Q 1463 3103 1205 2759 
Q 947 2416 947 1791 
Q 947 1169 1205 825 
Q 1463 481 1925 481 
Q 2391 481 2648 825 
Q 2906 1169 2906 1791 
z
M 3481 434 
Q 3481 -459 3084 -895 
Q 2688 -1331 1869 -1331 
Q 1566 -1331 1297 -1286 
Q 1028 -1241 775 -1147 
L 775 -588 
Q 1028 -725 1275 -790 
Q 1522 -856 1778 -856 
Q 2344 -856 2625 -561 
Q 2906 -266 2906 331 
L 2906 616 
Q 2728 306 2450 153 
Q 2172 0 1784 0 
Q 1141 0 747 490 
Q 353 981 353 1791 
Q 353 2603 747 3093 
Q 1141 3584 1784 3584 
Q 2172 3584 2450 3431 
Q 2728 3278 2906 2969 
L 2906 3500 
L 3481 3500 
L 3481 434 
z
" transform="scale(0.015625)"/>
       <path id="DejaVuSans-20" transform="scale(0.015625)"/>
       <path id="DejaVuSans-52" d="M 2841 2188 
Q 3044 2119 3236 1894 
Q 3428 1669 3622 1275 
L 4263 0 
L 3584 0 
L 2988 1197 
Q 2756 1666 2539 1819 
Q 2322 1972 1947 1972 
L 1259 1972 
L 1259 0 
L 628 0 
L 628 4666 
L 2053 4666 
Q 2853 4666 3247 4331 
Q 3641 3997 3641 3322 
Q 3641 2881 3436 2590 
Q 3231 2300 2841 2188 
z
M 1259 4147 
L 1259 2491 
L 2053 2491 
Q 2509 2491 2742 2702 
Q 2975 2913 2975 3322 
Q 2975 3731 2742 3939 
Q 2509 4147 2053 4147 
L 1259 4147 
z
" transform="scale(0.015625)"/>
       <path id="DejaVuSans-77" d="M 269 3500 
L 844 3500 
L 1563 769 
L 2278 3500 
L 2956 3500 
L 3675 769 
L 4391 3500 
L 4966 3500 
L 4050 0 
L 3372 0 
L 2619 2869 
L 1863 0 
L 1184 0 
L 269 3500 
z
" transform="scale(0.015625)"/>
      </defs>
      <use xlink:href="#DejaVuSans-41"/>
      <use xlink:href="#DejaVuSans-76" x="62.533203"/>
      <use xlink:href="#DejaVuSans-65" x="121.712891"/>
      <use xlink:href="#DejaVuSans-72" x="183.236328"/>
      <use xlink:href="#DejaVuSans-61" x="224.349609"/>
      <use xlink:href="#DejaVuSans-67" x="285.628906"/>
      <use xlink:href="#DejaVuSans-65" x="349.105469"/>
      <use xlink:href="#DejaVuSans-20" x="410.628906"/>
      <use xlink:href="#DejaVuSans-52" x="442.416016"/>
      <use xlink:href="#DejaVuSans-65" x="507.398438"/>
      <use xlink:href="#DejaVuSans-77" x="568.921875"/>
      <use xlink:href="#DejaVuSans-61" x="650.708984"/>
      <use xlink:href="#DejaVuSans-72" x="711.988281"/>
      <use xlink:href="#DejaVuSans-64" x="751.351562"/>
     </g>
    </g>
   </g>
   <g id="line2d_25">
    <path d="M 82.855909 290.603636 
L 84.184457 290.603636 
L 85.513006 308.048612 
L 86.841554 294.96488 
L 88.170102 238.268708 
L 89.498651 238.268708 
L 90.827199 277.519904 
L 92.155747 286.242392 
L 93.484295 342.938565 
L 96.141392 273.15866 
L 97.46994 303.687368 
L 98.798489 286.242392 
L 100.127037 329.854833 
L 101.455585 299.326124 
L 102.784133 303.687368 
L 104.112682 316.7711 
L 105.44123 281.881148 
L 106.769778 316.7711 
L 108.098327 255.713684 
L 109.426875 286.242392 
L 110.755423 281.881148 
L 112.083971 273.15866 
L 113.41252 286.242392 
L 114.741068 273.15866 
L 116.069616 290.603636 
L 117.398165 303.687368 
L 118.726713 321.132344 
L 120.055261 290.603636 
L 121.383809 273.15866 
L 122.712358 299.326124 
L 125.369454 308.048612 
L 126.698003 286.242392 
L 128.026551 290.603636 
L 129.355099 334.216077 
L 130.683647 286.242392 
L 132.012196 321.132344 
L 133.340744 321.132344 
L 134.669292 281.881148 
L 135.997841 294.96488 
L 137.326389 321.132344 
L 138.654937 286.242392 
L 139.983486 264.436172 
L 141.312034 303.687368 
L 142.640582 273.15866 
L 143.96913 260.074928 
L 145.297679 268.797416 
L 146.626227 360.383541 
L 147.954775 246.991196 
L 149.283324 316.7711 
L 150.611872 303.687368 
L 151.94042 342.938565 
L 153.268968 246.991196 
L 154.597517 286.242392 
L 155.926065 286.242392 
L 157.254613 312.409856 
L 158.583162 303.687368 
L 159.91171 286.242392 
L 161.240258 299.326124 
L 162.568806 290.603636 
L 163.897355 364.744785 
L 165.225903 242.629952 
L 166.554451 286.242392 
L 167.883 316.7711 
L 169.211548 246.991196 
L 170.540096 369.106029 
L 171.868644 233.907464 
L 173.197193 246.991196 
L 174.525741 294.96488 
L 175.854289 299.326124 
L 177.182838 268.797416 
L 178.511386 303.687368 
L 179.839934 233.907464 
L 181.168482 290.603636 
L 182.497031 273.15866 
L 183.825579 321.132344 
L 185.154127 238.268708 
L 186.482676 303.687368 
L 187.811224 316.7711 
L 189.139772 290.603636 
L 190.468321 290.603636 
L 191.796869 264.436172 
L 193.125417 255.713684 
L 194.453965 299.326124 
L 195.782514 273.15866 
L 197.111062 268.797416 
L 198.43961 277.519904 
L 199.768159 273.15866 
L 201.096707 325.493589 
L 202.425255 325.493589 
L 203.753803 260.074928 
L 205.082352 251.35244 
L 206.4109 220.823732 
L 207.739448 242.629952 
L 209.067997 260.074928 
L 210.396545 212.101244 
L 211.725093 303.687368 
L 213.053641 321.132344 
L 214.38219 242.629952 
L 215.710738 299.326124 
L 217.039286 238.268708 
L 218.367835 260.074928 
L 219.696383 260.074928 
L 221.024931 246.991196 
L 222.353479 308.048612 
L 223.682028 255.713684 
L 225.010576 229.54622 
L 226.339124 264.436172 
L 227.667673 294.96488 
L 228.996221 251.35244 
L 230.324769 255.713684 
L 231.653317 303.687368 
L 232.981866 238.268708 
L 234.310414 238.268708 
L 235.638962 321.132344 
L 236.967511 233.907464 
L 238.296059 233.907464 
L 239.624607 268.797416 
L 240.953155 246.991196 
L 242.281704 255.713684 
L 243.610252 233.907464 
L 244.9388 294.96488 
L 246.267349 286.242392 
L 247.595897 238.268708 
L 248.924445 308.048612 
L 250.252994 255.713684 
L 251.581542 238.268708 
L 252.91009 255.713684 
L 254.238638 277.519904 
L 255.567187 268.797416 
L 256.895735 268.797416 
L 258.224283 264.436172 
L 259.552832 216.462488 
L 262.209928 294.96488 
L 263.538476 246.991196 
L 264.867025 229.54622 
L 266.195573 321.132344 
L 267.524121 238.268708 
L 268.85267 273.15866 
L 270.181218 233.907464 
L 271.509766 246.991196 
L 272.838314 251.35244 
L 274.166863 325.493589 
L 275.495411 238.268708 
L 276.823959 233.907464 
L 278.152508 246.991196 
L 279.481056 242.629952 
L 280.809604 255.713684 
L 282.138152 321.132344 
L 283.466701 268.797416 
L 284.795249 294.96488 
L 286.123797 281.881148 
L 287.452346 273.15866 
L 288.780894 273.15866 
L 290.109442 246.991196 
L 291.43799 233.907464 
L 292.766539 290.603636 
L 294.095087 264.436172 
L 295.423635 242.629952 
L 296.752184 255.713684 
L 298.080732 273.15866 
L 299.40928 286.242392 
L 300.737829 251.35244 
L 302.066377 203.378756 
L 303.394925 303.687368 
L 304.723473 229.54622 
L 306.052022 299.326124 
L 307.38057 238.268708 
L 308.709118 303.687368 
L 310.037667 264.436172 
L 311.366215 233.907464 
L 312.694763 251.35244 
L 314.023311 246.991196 
L 315.35186 225.184976 
L 316.680408 220.823732 
L 318.008956 290.603636 
L 319.337505 273.15866 
L 320.666053 273.15866 
L 321.994601 220.823732 
L 323.323149 264.436172 
L 324.651698 268.797416 
L 325.980246 238.268708 
L 327.308794 294.96488 
L 328.637343 242.629952 
L 329.965891 220.823732 
L 332.622987 194.656268 
L 333.951536 264.436172 
L 335.280084 273.15866 
L 336.608632 246.991196 
L 337.937181 229.54622 
L 339.265729 264.436172 
L 340.594277 242.629952 
L 341.922825 229.54622 
L 343.251374 255.713684 
L 344.579922 246.991196 
L 345.90847 273.15866 
L 347.237019 242.629952 
L 348.565567 242.629952 
L 349.894115 190.295024 
L 351.222663 190.295024 
L 352.551212 246.991196 
L 353.87976 246.991196 
L 355.208308 225.184976 
L 356.536857 207.74 
L 357.865405 251.35244 
L 359.193953 255.713684 
L 360.522502 203.378756 
L 361.85105 229.54622 
L 363.179598 220.823732 
L 364.508146 238.268708 
L 365.836695 238.268708 
L 367.165243 290.603636 
L 368.493791 246.991196 
L 369.82234 229.54622 
L 371.150888 229.54622 
L 372.479436 281.881148 
L 373.807984 225.184976 
L 375.136533 251.35244 
L 376.465081 242.629952 
L 377.793629 212.101244 
L 379.122178 216.462488 
L 380.450726 194.656268 
L 381.779274 286.242392 
L 383.107822 246.991196 
L 384.436371 233.907464 
L 385.764919 281.881148 
L 387.093467 229.54622 
L 388.422016 207.74 
L 389.750564 194.656268 
L 391.079112 207.74 
L 392.40766 246.991196 
L 393.736209 294.96488 
L 395.064757 190.295024 
L 396.393305 207.74 
L 397.721854 212.101244 
L 399.050402 203.378756 
L 401.707498 238.268708 
L 403.036047 216.462488 
L 404.364595 255.713684 
L 405.693143 229.54622 
L 407.021692 290.603636 
L 408.35024 229.54622 
L 409.678788 216.462488 
L 411.007337 220.823732 
L 412.335885 194.656268 
L 413.664433 246.991196 
L 414.992981 251.35244 
L 416.32153 242.629952 
L 417.650078 255.713684 
L 418.978626 238.268708 
L 421.635723 264.436172 
L 422.964271 233.907464 
L 424.292819 220.823732 
L 425.621368 255.713684 
L 426.949916 229.54622 
L 428.278464 238.268708 
L 429.607013 242.629952 
L 430.935561 260.074928 
L 432.264109 242.629952 
L 433.592657 229.54622 
L 434.921206 277.519904 
L 436.249754 246.991196 
L 437.578302 229.54622 
L 438.906851 216.462488 
L 440.235399 194.656268 
L 441.563947 268.797416 
L 442.892495 225.184976 
L 444.221044 207.74 
L 445.549592 207.74 
L 446.87814 299.326124 
L 448.206689 207.74 
L 449.535237 212.101244 
L 450.863785 194.656268 
L 453.520882 229.54622 
L 454.84943 194.656268 
L 456.177978 207.74 
L 457.506527 203.378756 
L 458.835075 225.184976 
L 460.163623 233.907464 
L 461.492171 238.268708 
L 462.82072 273.15866 
L 464.149268 238.268708 
L 465.477816 246.991196 
L 466.806365 177.211292 
L 468.134913 207.74 
L 469.463461 220.823732 
L 470.79201 199.017512 
L 472.120558 181.572536 
L 473.449106 220.823732 
L 474.777654 220.823732 
L 476.106203 229.54622 
L 477.434751 203.378756 
L 478.763299 216.462488 
L 480.091848 190.295024 
L 481.420396 212.101244 
L 482.748944 203.378756 
L 484.077492 220.823732 
L 485.406041 194.656268 
L 486.734589 220.823732 
L 488.063137 185.93378 
L 489.391686 199.017512 
L 490.720234 207.74 
L 492.048782 255.713684 
L 493.37733 177.211292 
L 494.705879 233.907464 
L 496.034427 185.93378 
L 498.691524 255.713684 
L 500.020072 242.629952 
L 501.34862 203.378756 
L 502.677168 194.656268 
L 504.005717 220.823732 
L 505.334265 238.268708 
L 506.662813 194.656268 
L 507.991362 203.378756 
L 510.648458 203.378756 
L 511.977006 229.54622 
L 513.305555 185.93378 
L 514.634103 212.101244 
L 515.962651 203.378756 
L 517.2912 229.54622 
L 518.619748 220.823732 
L 519.948296 220.823732 
L 521.276845 207.74 
L 522.605393 203.378756 
L 523.933941 185.93378 
L 525.262489 238.268708 
L 526.591038 185.93378 
L 527.919586 185.93378 
L 529.248134 207.74 
L 530.576683 181.572536 
L 531.905231 185.93378 
L 534.562327 203.378756 
L 535.890876 203.378756 
L 537.219424 177.211292 
L 538.547972 255.713684 
L 539.876521 185.93378 
L 541.205069 185.93378 
L 542.533617 242.629952 
L 543.862165 220.823732 
L 545.190714 233.907464 
L 546.519262 220.823732 
L 547.84781 220.823732 
L 549.176359 229.54622 
L 550.504907 203.378756 
L 551.833455 203.378756 
L 553.162003 220.823732 
L 554.490552 177.211292 
L 555.8191 203.378756 
L 557.147648 190.295024 
L 558.476197 194.656268 
L 559.804745 233.907464 
L 561.133293 194.656268 
L 562.461841 207.74 
L 563.79039 194.656268 
L 565.118938 203.378756 
L 566.447486 177.211292 
L 567.776035 185.93378 
L 569.104583 185.93378 
L 570.433131 194.656268 
L 571.761679 185.93378 
L 574.418776 194.656268 
L 575.747324 203.378756 
L 577.075873 203.378756 
L 578.404421 185.93378 
L 579.732969 177.211292 
L 581.061518 203.378756 
L 582.390066 194.656268 
L 583.718614 177.211292 
L 585.047162 185.93378 
L 586.375711 220.823732 
L 587.704259 194.656268 
L 589.032807 185.93378 
L 590.361356 203.378756 
L 593.018452 203.378756 
L 594.347 185.93378 
L 595.675549 203.378756 
L 597.004097 185.93378 
L 598.332645 229.54622 
L 599.661194 229.54622 
L 600.989742 194.656268 
L 602.31829 203.378756 
L 603.646838 185.93378 
L 604.975387 177.211292 
L 606.303935 185.93378 
L 607.632483 216.462488 
L 608.961032 203.378756 
L 610.28958 194.656268 
L 611.618128 212.101244 
L 612.946676 185.93378 
L 614.275225 177.211292 
L 616.932321 194.656268 
L 618.26087 185.93378 
L 619.589418 185.93378 
L 620.917966 177.211292 
L 623.575063 185.93378 
L 624.903611 194.656268 
L 626.232159 185.93378 
L 627.560708 212.101244 
L 628.889256 194.656268 
L 631.546353 177.211292 
L 632.874901 194.656268 
L 634.203449 185.93378 
L 635.531997 194.656268 
L 636.860546 177.211292 
L 642.174739 177.211292 
L 643.503287 190.295024 
L 644.831835 177.211292 
L 648.81748 177.211292 
L 650.146029 190.295024 
L 651.474577 185.93378 
L 652.803125 177.211292 
L 654.131673 185.93378 
L 655.460222 177.211292 
L 656.78877 177.211292 
L 658.117318 194.656268 
L 659.445867 177.211292 
L 660.774415 185.93378 
L 662.102963 203.378756 
L 663.431511 177.211292 
L 664.76006 194.656268 
L 666.088608 177.211292 
L 667.417156 185.93378 
L 668.745705 177.211292 
L 670.074253 177.211292 
L 671.402801 203.378756 
L 672.731349 177.211292 
L 679.374091 177.211292 
L 679.374091 177.211292 
" clip-path="url(#pae0af268e9)" style="fill: none; stroke: #1f77b4; stroke-width: 1.5; stroke-linecap: square"/>
   </g>
   <g id="line2d_26">
    <path d="M 82.855909 277.519904 
L 84.184457 281.881148 
L 85.513006 356.022297 
L 86.841554 308.048612 
L 88.170102 242.629952 
L 89.498651 347.299809 
L 90.827199 199.017512 
L 92.155747 321.132344 
L 93.484295 264.436172 
L 94.812844 299.326124 
L 96.141392 229.54622 
L 97.46994 273.15866 
L 100.127037 316.7711 
L 101.455585 264.436172 
L 102.784133 277.519904 
L 104.112682 312.409856 
L 105.44123 294.96488 
L 106.769778 325.493589 
L 108.098327 303.687368 
L 109.426875 299.326124 
L 110.755423 360.383541 
L 112.083971 316.7711 
L 113.41252 308.048612 
L 114.741068 268.797416 
L 116.069616 277.519904 
L 117.398165 238.268708 
L 118.726713 329.854833 
L 121.383809 338.577321 
L 122.712358 281.881148 
L 124.040906 246.991196 
L 125.369454 220.823732 
L 126.698003 251.35244 
L 128.026551 303.687368 
L 129.355099 255.713684 
L 130.683647 281.881148 
L 132.012196 268.797416 
L 134.669292 294.96488 
L 135.997841 225.184976 
L 137.326389 260.074928 
L 138.654937 316.7711 
L 139.983486 308.048612 
L 141.312034 325.493589 
L 142.640582 312.409856 
L 143.96913 290.603636 
L 145.297679 207.74 
L 146.626227 286.242392 
L 147.954775 172.850048 
L 149.283324 273.15866 
L 150.611872 342.938565 
L 151.94042 356.022297 
L 153.268968 286.242392 
L 154.597517 225.184976 
L 155.926065 233.907464 
L 157.254613 286.242392 
L 158.583162 255.713684 
L 159.91171 268.797416 
L 161.240258 273.15866 
L 162.568806 312.409856 
L 163.897355 308.048612 
L 165.225903 294.96488 
L 166.554451 181.572536 
L 167.883 273.15866 
L 169.211548 225.184976 
L 170.540096 286.242392 
L 171.868644 281.881148 
L 173.197193 246.991196 
L 174.525741 246.991196 
L 175.854289 238.268708 
L 177.182838 238.268708 
L 178.511386 294.96488 
L 179.839934 194.656268 
L 181.168482 273.15866 
L 182.497031 216.462488 
L 183.825579 260.074928 
L 185.154127 216.462488 
L 186.482676 294.96488 
L 187.811224 281.881148 
L 189.139772 338.577321 
L 190.468321 229.54622 
L 191.796869 321.132344 
L 194.453965 225.184976 
L 195.782514 255.713684 
L 197.111062 164.12756 
L 198.43961 316.7711 
L 199.768159 251.35244 
L 201.096707 286.242392 
L 202.425255 146.682584 
L 203.753803 277.519904 
L 205.082352 308.048612 
L 206.4109 294.96488 
L 207.739448 260.074928 
L 209.067997 286.242392 
L 210.396545 146.682584 
L 211.725093 294.96488 
L 213.053641 277.519904 
L 214.38219 168.488804 
L 215.710738 329.854833 
L 217.039286 233.907464 
L 218.367835 303.687368 
L 219.696383 255.713684 
L 221.024931 172.850048 
L 222.353479 255.713684 
L 223.682028 255.713684 
L 225.010576 251.35244 
L 226.339124 212.101244 
L 227.667673 277.519904 
L 228.996221 255.713684 
L 230.324769 216.462488 
L 231.653317 225.184976 
L 232.981866 246.991196 
L 234.310414 220.823732 
L 235.638962 246.991196 
L 236.967511 177.211292 
L 238.296059 225.184976 
L 239.624607 303.687368 
L 240.953155 181.572536 
L 242.281704 246.991196 
L 243.610252 194.656268 
L 244.9388 308.048612 
L 246.267349 260.074928 
L 247.595897 277.519904 
L 248.924445 281.881148 
L 250.252994 203.378756 
L 251.581542 233.907464 
L 252.91009 281.881148 
L 254.238638 199.017512 
L 255.567187 185.93378 
L 256.895735 212.101244 
L 258.224283 220.823732 
L 259.552832 238.268708 
L 260.88138 199.017512 
L 262.209928 190.295024 
L 263.538476 212.101244 
L 264.867025 190.295024 
L 266.195573 229.54622 
L 267.524121 190.295024 
L 268.85267 268.797416 
L 270.181218 190.295024 
L 272.838314 308.048612 
L 274.166863 246.991196 
L 275.495411 251.35244 
L 276.823959 159.766316 
L 278.152508 233.907464 
L 279.481056 277.519904 
L 280.809604 220.823732 
L 282.138152 238.268708 
L 283.466701 177.211292 
L 284.795249 246.991196 
L 286.123797 242.629952 
L 287.452346 255.713684 
L 288.780894 216.462488 
L 290.109442 264.436172 
L 291.43799 242.629952 
L 292.766539 242.629952 
L 294.095087 212.101244 
L 295.423635 185.93378 
L 296.752184 199.017512 
L 298.080732 229.54622 
L 299.40928 151.043828 
L 300.737829 194.656268 
L 302.066377 268.797416 
L 303.394925 199.017512 
L 304.723473 229.54622 
L 306.052022 181.572536 
L 307.38057 172.850048 
L 308.709118 246.991196 
L 310.037667 246.991196 
L 311.366215 238.268708 
L 312.694763 255.713684 
L 314.023311 120.51512 
L 315.35186 181.572536 
L 316.680408 203.378756 
L 318.008956 294.96488 
L 319.337505 260.074928 
L 320.666053 172.850048 
L 321.994601 273.15866 
L 323.323149 225.184976 
L 324.651698 260.074928 
L 325.980246 229.54622 
L 327.308794 212.101244 
L 328.637343 89.986411 
L 329.965891 212.101244 
L 331.294439 255.713684 
L 332.622987 203.378756 
L 333.951536 203.378756 
L 335.280084 194.656268 
L 336.608632 238.268708 
L 337.937181 277.519904 
L 339.265729 172.850048 
L 340.594277 146.682584 
L 341.922825 303.687368 
L 343.251374 164.12756 
L 344.579922 273.15866 
L 345.90847 268.797416 
L 347.237019 242.629952 
L 348.565567 177.211292 
L 349.894115 194.656268 
L 351.222663 142.32134 
L 352.551212 172.850048 
L 353.87976 194.656268 
L 356.536857 168.488804 
L 357.865405 251.35244 
L 359.193953 216.462488 
L 360.522502 233.907464 
L 361.85105 164.12756 
L 363.179598 255.713684 
L 364.508146 94.347656 
L 365.836695 238.268708 
L 367.165243 159.766316 
L 368.493791 172.850048 
L 369.82234 246.991196 
L 371.150888 181.572536 
L 372.479436 242.629952 
L 373.807984 233.907464 
L 375.136533 194.656268 
L 376.465081 281.881148 
L 377.793629 229.54622 
L 379.122178 194.656268 
L 380.450726 155.405072 
L 381.779274 216.462488 
L 383.107822 159.766316 
L 384.436371 242.629952 
L 385.764919 212.101244 
L 387.093467 133.598852 
L 388.422016 151.043828 
L 389.750564 181.572536 
L 391.079112 177.211292 
L 392.40766 116.153876 
L 393.736209 190.295024 
L 395.064757 190.295024 
L 396.393305 203.378756 
L 397.721854 194.656268 
L 399.050402 151.043828 
L 400.37895 137.960096 
L 401.707498 199.017512 
L 403.036047 181.572536 
L 404.364595 203.378756 
L 405.693143 142.32134 
L 407.021692 242.629952 
L 408.35024 199.017512 
L 409.678788 146.682584 
L 411.007337 137.960096 
L 412.335885 142.32134 
L 413.664433 225.184976 
L 414.992981 155.405072 
L 416.32153 190.295024 
L 417.650078 251.35244 
L 418.978626 146.682584 
L 420.307175 255.713684 
L 421.635723 155.405072 
L 422.964271 194.656268 
L 424.292819 155.405072 
L 425.621368 216.462488 
L 426.949916 120.51512 
L 428.278464 181.572536 
L 429.607013 194.656268 
L 430.935561 268.797416 
L 432.264109 146.682584 
L 433.592657 159.766316 
L 434.921206 177.211292 
L 436.249754 177.211292 
L 437.578302 159.766316 
L 438.906851 168.488804 
L 440.235399 107.431388 
L 441.563947 103.070144 
L 442.892495 194.656268 
L 444.221044 177.211292 
L 445.549592 151.043828 
L 446.87814 194.656268 
L 448.206689 177.211292 
L 449.535237 142.32134 
L 450.863785 164.12756 
L 452.192333 207.74 
L 453.520882 177.211292 
L 454.84943 181.572536 
L 456.177978 225.184976 
L 457.506527 124.876364 
L 458.835075 164.12756 
L 460.163623 120.51512 
L 461.492171 146.682584 
L 462.82072 151.043828 
L 464.149268 133.598852 
L 465.477816 133.598852 
L 466.806365 168.488804 
L 468.134913 129.237608 
L 469.463461 181.572536 
L 470.79201 103.070144 
L 472.120558 194.656268 
L 473.449106 207.74 
L 474.777654 94.347656 
L 476.106203 146.682584 
L 477.434751 120.51512 
L 478.763299 181.572536 
L 480.091848 164.12756 
L 481.420396 129.237608 
L 482.748944 133.598852 
L 484.077492 190.295024 
L 485.406041 155.405072 
L 486.734589 129.237608 
L 488.063137 89.986411 
L 489.391686 98.7089 
L 492.048782 168.488804 
L 493.37733 72.541435 
L 494.705879 142.32134 
L 496.034427 120.51512 
L 497.362975 172.850048 
L 498.691524 177.211292 
L 501.34862 89.986411 
L 502.677168 124.876364 
L 504.005717 172.850048 
L 505.334265 185.93378 
L 506.662813 133.598852 
L 507.991362 159.766316 
L 509.31991 124.876364 
L 510.648458 76.902679 
L 511.977006 159.766316 
L 513.305555 120.51512 
L 514.634103 129.237608 
L 515.962651 124.876364 
L 517.2912 129.237608 
L 518.619748 164.12756 
L 519.948296 142.32134 
L 521.276845 172.850048 
L 522.605393 103.070144 
L 523.933941 107.431388 
L 525.262489 194.656268 
L 526.591038 142.32134 
L 527.919586 129.237608 
L 529.248134 103.070144 
L 530.576683 133.598852 
L 531.905231 190.295024 
L 533.233779 190.295024 
L 534.562327 116.153876 
L 535.890876 172.850048 
L 537.219424 81.263923 
L 538.547972 146.682584 
L 539.876521 116.153876 
L 541.205069 124.876364 
L 542.533617 107.431388 
L 543.862165 164.12756 
L 545.190714 203.378756 
L 546.519262 142.32134 
L 547.84781 168.488804 
L 549.176359 94.347656 
L 550.504907 94.347656 
L 551.833455 103.070144 
L 553.162003 155.405072 
L 554.490552 142.32134 
L 555.8191 63.818947 
L 557.147648 81.263923 
L 558.476197 124.876364 
L 559.804745 172.850048 
L 561.133293 81.263923 
L 562.461841 103.070144 
L 563.79039 107.431388 
L 565.118938 133.598852 
L 566.447486 63.818947 
L 567.776035 89.986411 
L 569.104583 63.818947 
L 570.433131 94.347656 
L 571.761679 151.043828 
L 573.090228 76.902679 
L 574.418776 42.012727 
L 575.747324 116.153876 
L 577.075873 107.431388 
L 578.404421 72.541435 
L 579.732969 124.876364 
L 581.061518 111.792632 
L 582.390066 159.766316 
L 583.718614 89.986411 
L 585.047162 72.541435 
L 586.375711 116.153876 
L 587.704259 85.625167 
L 589.032807 151.043828 
L 590.361356 111.792632 
L 591.689904 107.431388 
L 593.018452 76.902679 
L 595.675549 103.070144 
L 597.004097 124.876364 
L 598.332645 76.902679 
L 599.661194 116.153876 
L 600.989742 81.263923 
L 602.31829 59.457703 
L 603.646838 120.51512 
L 604.975387 142.32134 
L 606.303935 72.541435 
L 607.632483 116.153876 
L 608.961032 55.096459 
L 610.28958 103.070144 
L 611.618128 81.263923 
L 612.946676 98.7089 
L 614.275225 89.986411 
L 615.603773 124.876364 
L 616.932321 72.541435 
L 618.26087 72.541435 
L 619.589418 89.986411 
L 620.917966 98.7089 
L 622.246514 76.902679 
L 623.575063 72.541435 
L 624.903611 107.431388 
L 626.232159 89.986411 
L 627.560708 89.986411 
L 630.217804 72.541435 
L 631.546353 55.096459 
L 632.874901 133.598852 
L 634.203449 55.096459 
L 635.531997 72.541435 
L 636.860546 63.818947 
L 638.189094 72.541435 
L 642.174739 72.541435 
L 643.503287 63.818947 
L 644.831835 89.986411 
L 646.160384 72.541435 
L 647.488932 85.625167 
L 648.81748 81.263923 
L 650.146029 107.431388 
L 651.474577 59.457703 
L 652.803125 72.541435 
L 656.78877 72.541435 
L 658.117318 89.986411 
L 659.445867 89.986411 
L 660.774415 72.541435 
L 662.102963 76.902679 
L 663.431511 72.541435 
L 666.088608 72.541435 
L 667.417156 89.986411 
L 668.745705 89.986411 
L 670.074253 72.541435 
L 671.402801 94.347656 
L 672.731349 72.541435 
L 679.374091 72.541435 
L 679.374091 72.541435 
" clip-path="url(#pae0af268e9)" style="fill: none; stroke: #ff7f0e; stroke-width: 1.5; stroke-linecap: square"/>
   </g>
   <g id="line2d_27">
    <path d="M 82.855909 356.022297 
L 84.184457 338.577321 
L 86.841554 373.467273 
L 88.170102 329.854833 
L 89.498651 321.132344 
L 90.827199 356.022297 
L 92.155747 329.854833 
L 93.484295 329.854833 
L 94.812844 303.687368 
L 96.141392 303.687368 
L 97.46994 338.577321 
L 98.798489 356.022297 
L 101.455585 303.687368 
L 102.784133 364.744785 
L 104.112682 356.022297 
L 105.44123 321.132344 
L 106.769778 373.467273 
L 108.098327 303.687368 
L 109.426875 347.299809 
L 110.755423 338.577321 
L 112.083971 373.467273 
L 113.41252 312.409856 
L 114.741068 329.854833 
L 116.069616 364.744785 
L 117.398165 329.854833 
L 118.726713 364.744785 
L 120.055261 321.132344 
L 121.383809 338.577321 
L 122.712358 347.299809 
L 124.040906 312.409856 
L 125.369454 321.132344 
L 126.698003 356.022297 
L 128.026551 312.409856 
L 130.683647 364.744785 
L 132.012196 303.687368 
L 133.340744 338.577321 
L 134.669292 347.299809 
L 135.997841 347.299809 
L 137.326389 312.409856 
L 138.654937 321.132344 
L 139.983486 338.577321 
L 141.312034 347.299809 
L 142.640582 364.744785 
L 143.96913 312.409856 
L 146.626227 312.409856 
L 147.954775 356.022297 
L 149.283324 329.854833 
L 150.611872 321.132344 
L 151.94042 329.854833 
L 153.268968 347.299809 
L 154.597517 356.022297 
L 155.926065 312.409856 
L 157.254613 347.299809 
L 158.583162 321.132344 
L 159.91171 312.409856 
L 161.240258 312.409856 
L 162.568806 347.299809 
L 163.897355 294.96488 
L 165.225903 338.577321 
L 166.554451 329.854833 
L 167.883 329.854833 
L 169.211548 321.132344 
L 170.540096 329.854833 
L 171.868644 347.299809 
L 173.197193 329.854833 
L 174.525741 356.022297 
L 175.854289 338.577321 
L 177.182838 294.96488 
L 178.511386 312.409856 
L 179.839934 347.299809 
L 181.168482 329.854833 
L 182.497031 338.577321 
L 183.825579 312.409856 
L 185.154127 321.132344 
L 186.482676 303.687368 
L 187.811224 321.132344 
L 189.139772 321.132344 
L 190.468321 356.022297 
L 191.796869 329.854833 
L 194.453965 329.854833 
L 195.782514 321.132344 
L 197.111062 294.96488 
L 198.43961 329.854833 
L 199.768159 312.409856 
L 201.096707 338.577321 
L 203.753803 338.577321 
L 205.082352 286.242392 
L 206.4109 321.132344 
L 207.739448 347.299809 
L 209.067997 321.132344 
L 210.396545 356.022297 
L 211.725093 277.519904 
L 213.053641 294.96488 
L 214.38219 347.299809 
L 215.710738 329.854833 
L 218.367835 312.409856 
L 219.696383 329.854833 
L 221.024931 338.577321 
L 222.353479 294.96488 
L 223.682028 312.409856 
L 225.010576 312.409856 
L 226.339124 356.022297 
L 227.667673 303.687368 
L 230.324769 338.577321 
L 231.653317 329.854833 
L 232.981866 338.577321 
L 234.310414 303.687368 
L 235.638962 321.132344 
L 236.967511 312.409856 
L 238.296059 312.409856 
L 239.624607 356.022297 
L 240.953155 303.687368 
L 242.281704 329.854833 
L 243.610252 312.409856 
L 244.9388 286.242392 
L 246.267349 321.132344 
L 247.595897 277.519904 
L 248.924445 312.409856 
L 250.252994 294.96488 
L 251.581542 312.409856 
L 252.91009 294.96488 
L 254.238638 329.854833 
L 255.567187 312.409856 
L 256.895735 329.854833 
L 258.224283 329.854833 
L 259.552832 303.687368 
L 260.88138 329.854833 
L 262.209928 303.687368 
L 263.538476 294.96488 
L 264.867025 321.132344 
L 267.524121 338.577321 
L 268.85267 321.132344 
L 270.181218 312.409856 
L 271.509766 277.519904 
L 272.838314 277.519904 
L 274.166863 286.242392 
L 275.495411 303.687368 
L 276.823959 312.409856 
L 278.152508 294.96488 
L 279.481056 312.409856 
L 280.809604 321.132344 
L 282.138152 321.132344 
L 283.466701 286.242392 
L 284.795249 321.132344 
L 286.123797 294.96488 
L 287.452346 294.96488 
L 288.780894 312.409856 
L 290.109442 303.687368 
L 291.43799 321.132344 
L 292.766539 312.409856 
L 294.095087 312.409856 
L 295.423635 347.299809 
L 296.752184 286.242392 
L 299.40928 338.577321 
L 300.737829 268.797416 
L 302.066377 294.96488 
L 303.394925 294.96488 
L 304.723473 338.577321 
L 307.38057 303.687368 
L 308.709118 312.409856 
L 310.037667 294.96488 
L 311.366215 286.242392 
L 312.694763 286.242392 
L 314.023311 303.687368 
L 315.35186 286.242392 
L 316.680408 286.242392 
L 318.008956 347.299809 
L 319.337505 312.409856 
L 320.666053 321.132344 
L 321.994601 286.242392 
L 324.651698 321.132344 
L 325.980246 286.242392 
L 327.308794 303.687368 
L 328.637343 329.854833 
L 329.965891 303.687368 
L 331.294439 321.132344 
L 332.622987 286.242392 
L 333.951536 286.242392 
L 335.280084 321.132344 
L 336.608632 286.242392 
L 337.937181 294.96488 
L 339.265729 294.96488 
L 340.594277 312.409856 
L 341.922825 321.132344 
L 343.251374 260.074928 
L 344.579922 268.797416 
L 345.90847 286.242392 
L 347.237019 347.299809 
L 348.565567 286.242392 
L 349.894115 294.96488 
L 351.222663 277.519904 
L 352.551212 303.687368 
L 353.87976 303.687368 
L 356.536857 321.132344 
L 357.865405 294.96488 
L 359.193953 294.96488 
L 360.522502 286.242392 
L 361.85105 303.687368 
L 363.179598 268.797416 
L 364.508146 277.519904 
L 365.836695 303.687368 
L 367.165243 277.519904 
L 368.493791 294.96488 
L 369.82234 294.96488 
L 371.150888 260.074928 
L 372.479436 294.96488 
L 373.807984 294.96488 
L 375.136533 268.797416 
L 376.465081 321.132344 
L 377.793629 294.96488 
L 379.122178 303.687368 
L 380.450726 268.797416 
L 383.107822 286.242392 
L 384.436371 312.409856 
L 385.764919 286.242392 
L 387.093467 286.242392 
L 388.422016 312.409856 
L 389.750564 321.132344 
L 393.736209 268.797416 
L 395.064757 260.074928 
L 396.393305 303.687368 
L 397.721854 277.519904 
L 399.050402 329.854833 
L 400.37895 277.519904 
L 401.707498 294.96488 
L 403.036047 286.242392 
L 404.364595 268.797416 
L 407.021692 303.687368 
L 408.35024 277.519904 
L 409.678788 294.96488 
L 411.007337 268.797416 
L 412.335885 294.96488 
L 414.992981 277.519904 
L 416.32153 286.242392 
L 417.650078 303.687368 
L 418.978626 286.242392 
L 420.307175 260.074928 
L 421.635723 294.96488 
L 424.292819 277.519904 
L 425.621368 303.687368 
L 426.949916 286.242392 
L 428.278464 286.242392 
L 429.607013 268.797416 
L 430.935561 303.687368 
L 432.264109 268.797416 
L 433.592657 260.074928 
L 434.921206 260.074928 
L 436.249754 294.96488 
L 440.235399 294.96488 
L 441.563947 268.797416 
L 442.892495 303.687368 
L 444.221044 303.687368 
L 445.549592 277.519904 
L 448.206689 260.074928 
L 449.535237 312.409856 
L 450.863785 294.96488 
L 452.192333 303.687368 
L 453.520882 260.074928 
L 454.84943 268.797416 
L 456.177978 286.242392 
L 457.506527 260.074928 
L 458.835075 277.519904 
L 460.163623 329.854833 
L 461.492171 286.242392 
L 462.82072 277.519904 
L 464.149268 277.519904 
L 465.477816 268.797416 
L 466.806365 251.35244 
L 469.463461 303.687368 
L 470.79201 251.35244 
L 473.449106 268.797416 
L 474.777654 268.797416 
L 476.106203 251.35244 
L 477.434751 277.519904 
L 478.763299 277.519904 
L 480.091848 242.629952 
L 481.420396 260.074928 
L 482.748944 303.687368 
L 484.077492 286.242392 
L 485.406041 277.519904 
L 486.734589 286.242392 
L 489.391686 286.242392 
L 492.048782 268.797416 
L 493.37733 268.797416 
L 494.705879 286.242392 
L 496.034427 268.797416 
L 497.362975 286.242392 
L 498.691524 251.35244 
L 500.020072 286.242392 
L 501.34862 260.074928 
L 502.677168 277.519904 
L 504.005717 277.519904 
L 505.334265 294.96488 
L 506.662813 286.242392 
L 507.991362 260.074928 
L 509.31991 303.687368 
L 510.648458 260.074928 
L 511.977006 286.242392 
L 513.305555 286.242392 
L 514.634103 268.797416 
L 515.962651 277.519904 
L 517.2912 268.797416 
L 518.619748 286.242392 
L 519.948296 268.797416 
L 522.605393 286.242392 
L 523.933941 251.35244 
L 525.262489 277.519904 
L 526.591038 260.074928 
L 529.248134 242.629952 
L 530.576683 260.074928 
L 531.905231 242.629952 
L 533.233779 277.519904 
L 534.562327 260.074928 
L 535.890876 251.35244 
L 537.219424 277.519904 
L 538.547972 260.074928 
L 541.205069 260.074928 
L 545.190714 286.242392 
L 546.519262 277.519904 
L 547.84781 251.35244 
L 549.176359 251.35244 
L 550.504907 268.797416 
L 551.833455 277.519904 
L 554.490552 260.074928 
L 555.8191 277.519904 
L 558.476197 242.629952 
L 559.804745 260.074928 
L 561.133293 242.629952 
L 562.461841 268.797416 
L 563.79039 268.797416 
L 565.118938 242.629952 
L 566.447486 268.797416 
L 569.104583 251.35244 
L 571.761679 251.35244 
L 573.090228 294.96488 
L 574.418776 268.797416 
L 575.747324 251.35244 
L 577.075873 260.074928 
L 578.404421 251.35244 
L 579.732969 251.35244 
L 581.061518 277.519904 
L 582.390066 277.519904 
L 583.718614 251.35244 
L 586.375711 251.35244 
L 587.704259 268.797416 
L 589.032807 251.35244 
L 590.361356 260.074928 
L 591.689904 277.519904 
L 593.018452 242.629952 
L 597.004097 268.797416 
L 598.332645 260.074928 
L 599.661194 260.074928 
L 600.989742 277.519904 
L 602.31829 251.35244 
L 603.646838 260.074928 
L 604.975387 260.074928 
L 606.303935 251.35244 
L 607.632483 260.074928 
L 608.961032 251.35244 
L 610.28958 251.35244 
L 611.618128 260.074928 
L 612.946676 242.629952 
L 614.275225 251.35244 
L 615.603773 277.519904 
L 616.932321 260.074928 
L 618.26087 251.35244 
L 619.589418 251.35244 
L 620.917966 268.797416 
L 622.246514 242.629952 
L 623.575063 251.35244 
L 626.232159 251.35244 
L 627.560708 242.629952 
L 636.860546 242.629952 
L 638.189094 260.074928 
L 640.846191 242.629952 
L 648.81748 242.629952 
L 650.146029 251.35244 
L 652.803125 251.35244 
L 654.131673 268.797416 
L 655.460222 242.629952 
L 656.78877 242.629952 
L 658.117318 260.074928 
L 660.774415 242.629952 
L 672.731349 242.629952 
L 674.059898 251.35244 
L 675.388446 242.629952 
L 679.374091 242.629952 
L 679.374091 242.629952 
" clip-path="url(#pae0af268e9)" style="fill: none; stroke: #2ca02c; stroke-width: 1.5; stroke-linecap: square"/>
   </g>
   <g id="patch_3">
    <path d="M 53.03 390.04 
L 53.03 25.44 
" style="fill: none; stroke: #000000; stroke-width: 0.8; stroke-linejoin: miter; stroke-linecap: square"/>
   </g>
   <g id="patch_4">
    <path d="M 709.2 390.04 
L 709.2 25.44 
" style="fill: none; stroke: #000000; stroke-width: 0.8; stroke-linejoin: miter; stroke-linecap: square"/>
   </g>
   <g id="patch_5">
    <path d="M 53.03 390.04 
L 709.2 390.04 
" style="fill: none; stroke: #000000; stroke-width: 0.8; stroke-linejoin: miter; stroke-linecap: square"/>
   </g>
   <g id="patch_6">
    <path d="M 53.03 25.44 
L 709.2 25.44 
" style="fill: none; stroke: #000000; stroke-width: 0.8; stroke-linejoin: miter; stroke-linecap: square"/>
   </g>
   <g id="text_15">
    <!-- Average Reward per Episode by Agent -->
    <g transform="translate(265.943125 19.44) scale(0.12 -0.12)">
     <defs>
      <path id="DejaVuSans-62" d="M 3116 1747 
Q 3116 2381 2855 2742 
Q 2594 3103 2138 3103 
Q 1681 3103 1420 2742 
Q 1159 2381 1159 1747 
Q 1159 1113 1420 752 
Q 1681 391 2138 391 
Q 2594 391 2855 752 
Q 3116 1113 3116 1747 
z
M 1159 2969 
Q 1341 3281 1617 3432 
Q 1894 3584 2278 3584 
Q 2916 3584 3314 3078 
Q 3713 2572 3713 1747 
Q 3713 922 3314 415 
Q 2916 -91 2278 -91 
Q 1894 -91 1617 61 
Q 1341 213 1159 525 
L 1159 0 
L 581 0 
L 581 4863 
L 1159 4863 
L 1159 2969 
z
" transform="scale(0.015625)"/>
      <path id="DejaVuSans-79" d="M 2059 -325 
Q 1816 -950 1584 -1140 
Q 1353 -1331 966 -1331 
L 506 -1331 
L 506 -850 
L 844 -850 
Q 1081 -850 1212 -737 
Q 1344 -625 1503 -206 
L 1606 56 
L 191 3500 
L 800 3500 
L 1894 763 
L 2988 3500 
L 3597 3500 
L 2059 -325 
z
" transform="scale(0.015625)"/>
      <path id="DejaVuSans-6e" d="M 3513 2113 
L 3513 0 
L 2938 0 
L 2938 2094 
Q 2938 2591 2744 2837 
Q 2550 3084 2163 3084 
Q 1697 3084 1428 2787 
Q 1159 2491 1159 1978 
L 1159 0 
L 581 0 
L 581 3500 
L 1159 3500 
L 1159 2956 
Q 1366 3272 1645 3428 
Q 1925 3584 2291 3584 
Q 2894 3584 3203 3211 
Q 3513 2838 3513 2113 
z
" transform="scale(0.015625)"/>
      <path id="DejaVuSans-74" d="M 1172 4494 
L 1172 3500 
L 2356 3500 
L 2356 3053 
L 1172 3053 
L 1172 1153 
Q 1172 725 1289 603 
Q 1406 481 1766 481 
L 2356 481 
L 2356 0 
L 1766 0 
Q 1100 0 847 248 
Q 594 497 594 1153 
L 594 3053 
L 172 3053 
L 172 3500 
L 594 3500 
L 594 4494 
L 1172 4494 
z
" transform="scale(0.015625)"/>
     </defs>
     <use xlink:href="#DejaVuSans-41"/>
     <use xlink:href="#DejaVuSans-76" x="62.533203"/>
     <use xlink:href="#DejaVuSans-65" x="121.712891"/>
     <use xlink:href="#DejaVuSans-72" x="183.236328"/>
     <use xlink:href="#DejaVuSans-61" x="224.349609"/>
     <use xlink:href="#DejaVuSans-67" x="285.628906"/>
     <use xlink:href="#DejaVuSans-65" x="349.105469"/>
     <use xlink:href="#DejaVuSans-20" x="410.628906"/>
     <use xlink:href="#DejaVuSans-52" x="442.416016"/>
     <use xlink:href="#DejaVuSans-65" x="507.398438"/>
     <use xlink:href="#DejaVuSans-77" x="568.921875"/>
     <use xlink:href="#DejaVuSans-61" x="650.708984"/>
     <use xlink:href="#DejaVuSans-72" x="711.988281"/>
     <use xlink:href="#DejaVuSans-64" x="751.351562"/>
     <use xlink:href="#DejaVuSans-20" x="814.828125"/>
     <use xlink:href="#DejaVuSans-70" x="846.615234"/>
     <use xlink:href="#DejaVuSans-65" x="910.091797"/>
     <use xlink:href="#DejaVuSans-72" x="971.615234"/>
     <use xlink:href="#DejaVuSans-20" x="1012.728516"/>
     <use xlink:href="#DejaVuSans-45" x="1044.515625"/>
     <use xlink:href="#DejaVuSans-70" x="1107.699219"/>
     <use xlink:href="#DejaVuSans-69" x="1171.175781"/>
     <use xlink:href="#DejaVuSans-73" x="1198.958984"/>
     <use xlink:href="#DejaVuSans-6f" x="1251.058594"/>
     <use xlink:href="#DejaVuSans-64" x="1312.240234"/>
     <use xlink:href="#DejaVuSans-65" x="1375.716797"/>
     <use xlink:href="#DejaVuSans-20" x="1437.240234"/>
     <use xlink:href="#DejaVuSans-62" x="1469.027344"/>
     <use xlink:href="#DejaVuSans-79" x="1532.503906"/>
     <use xlink:href="#DejaVuSans-20" x="1591.683594"/>
     <use xlink:href="#DejaVuSans-41" x="1623.470703"/>
     <use xlink:href="#DejaVuSans-67" x="1691.878906"/>
     <use xlink:href="#DejaVuSans-65" x="1755.355469"/>
     <use xlink:href="#DejaVuSans-6e" x="1816.878906"/>
     <use xlink:href="#DejaVuSans-74" x="1880.257812"/>
    </g>
   </g>
   <g id="legend_1">
    <g id="patch_7">
     <path d="M 60.03 77.474375 
L 207.825313 77.474375 
Q 209.825313 77.474375 209.825313 75.474375 
L 209.825313 32.44 
Q 209.825313 30.44 207.825313 30.44 
L 60.03 30.44 
Q 58.03 30.44 58.03 32.44 
L 58.03 75.474375 
Q 58.03 77.474375 60.03 77.474375 
z
" style="fill: #ffffff; opacity: 0.8; stroke: #cccccc; stroke-linejoin: miter"/>
    </g>
    <g id="line2d_28">
     <path d="M 62.03 38.538437 
L 72.03 38.538437 
L 82.03 38.538437 
" style="fill: none; stroke: #1f77b4; stroke-width: 1.5; stroke-linecap: square"/>
    </g>
    <g id="text_16">
     <!-- solar - Average Reward -->
     <g transform="translate(90.03 42.038437) scale(0.1 -0.1)">
      <defs>
       <path id="DejaVuSans-6c" d="M 603 4863 
L 1178 4863 
L 1178 0 
L 603 0 
L 603 4863 
z
" transform="scale(0.015625)"/>
       <path id="DejaVuSans-2d" d="M 313 2009 
L 1997 2009 
L 1997 1497 
L 313 1497 
L 313 2009 
z
" transform="scale(0.015625)"/>
      </defs>
      <use xlink:href="#DejaVuSans-73"/>
      <use xlink:href="#DejaVuSans-6f" x="52.099609"/>
      <use xlink:href="#DejaVuSans-6c" x="113.28125"/>
      <use xlink:href="#DejaVuSans-61" x="141.064453"/>
      <use xlink:href="#DejaVuSans-72" x="202.34375"/>
      <use xlink:href="#DejaVuSans-20" x="243.457031"/>
      <use xlink:href="#DejaVuSans-2d" x="275.244141"/>
      <use xlink:href="#DejaVuSans-20" x="311.328125"/>
      <use xlink:href="#DejaVuSans-41" x="343.115234"/>
      <use xlink:href="#DejaVuSans-76" x="405.648438"/>
      <use xlink:href="#DejaVuSans-65" x="464.828125"/>
      <use xlink:href="#DejaVuSans-72" x="526.351562"/>
      <use xlink:href="#DejaVuSans-61" x="567.464844"/>
      <use xlink:href="#DejaVuSans-67" x="628.744141"/>
      <use xlink:href="#DejaVuSans-65" x="692.220703"/>
      <use xlink:href="#DejaVuSans-20" x="753.744141"/>
      <use xlink:href="#DejaVuSans-52" x="785.53125"/>
      <use xlink:href="#DejaVuSans-65" x="850.513672"/>
      <use xlink:href="#DejaVuSans-77" x="912.037109"/>
      <use xlink:href="#DejaVuSans-61" x="993.824219"/>
      <use xlink:href="#DejaVuSans-72" x="1055.103516"/>
      <use xlink:href="#DejaVuSans-64" x="1094.466797"/>
     </g>
    </g>
    <g id="line2d_29">
     <path d="M 62.03 53.216563 
L 72.03 53.216563 
L 82.03 53.216563 
" style="fill: none; stroke: #ff7f0e; stroke-width: 1.5; stroke-linecap: square"/>
    </g>
    <g id="text_17">
     <!-- bat - Average Reward -->
     <g transform="translate(90.03 56.716563) scale(0.1 -0.1)">
      <use xlink:href="#DejaVuSans-62"/>
      <use xlink:href="#DejaVuSans-61" x="63.476562"/>
      <use xlink:href="#DejaVuSans-74" x="124.755859"/>
      <use xlink:href="#DejaVuSans-20" x="163.964844"/>
      <use xlink:href="#DejaVuSans-2d" x="195.751953"/>
      <use xlink:href="#DejaVuSans-20" x="231.835938"/>
      <use xlink:href="#DejaVuSans-41" x="263.623047"/>
      <use xlink:href="#DejaVuSans-76" x="326.15625"/>
      <use xlink:href="#DejaVuSans-65" x="385.335938"/>
      <use xlink:href="#DejaVuSans-72" x="446.859375"/>
      <use xlink:href="#DejaVuSans-61" x="487.972656"/>
      <use xlink:href="#DejaVuSans-67" x="549.251953"/>
      <use xlink:href="#DejaVuSans-65" x="612.728516"/>
      <use xlink:href="#DejaVuSans-20" x="674.251953"/>
      <use xlink:href="#DejaVuSans-52" x="706.039062"/>
      <use xlink:href="#DejaVuSans-65" x="771.021484"/>
      <use xlink:href="#DejaVuSans-77" x="832.544922"/>
      <use xlink:href="#DejaVuSans-61" x="914.332031"/>
      <use xlink:href="#DejaVuSans-72" x="975.611328"/>
      <use xlink:href="#DejaVuSans-64" x="1014.974609"/>
     </g>
    </g>
    <g id="line2d_30">
     <path d="M 62.03 67.894687 
L 72.03 67.894687 
L 82.03 67.894687 
" style="fill: none; stroke: #2ca02c; stroke-width: 1.5; stroke-linecap: square"/>
    </g>
    <g id="text_18">
     <!-- grid - Average Reward -->
     <g transform="translate(90.03 71.394687) scale(0.1 -0.1)">
      <use xlink:href="#DejaVuSans-67"/>
      <use xlink:href="#DejaVuSans-72" x="63.476562"/>
      <use xlink:href="#DejaVuSans-69" x="104.589844"/>
      <use xlink:href="#DejaVuSans-64" x="132.373047"/>
      <use xlink:href="#DejaVuSans-20" x="195.849609"/>
      <use xlink:href="#DejaVuSans-2d" x="227.636719"/>
      <use xlink:href="#DejaVuSans-20" x="263.720703"/>
      <use xlink:href="#DejaVuSans-41" x="295.507812"/>
      <use xlink:href="#DejaVuSans-76" x="358.041016"/>
      <use xlink:href="#DejaVuSans-65" x="417.220703"/>
      <use xlink:href="#DejaVuSans-72" x="478.744141"/>
      <use xlink:href="#DejaVuSans-61" x="519.857422"/>
      <use xlink:href="#DejaVuSans-67" x="581.136719"/>
      <use xlink:href="#DejaVuSans-65" x="644.613281"/>
      <use xlink:href="#DejaVuSans-20" x="706.136719"/>
      <use xlink:href="#DejaVuSans-52" x="737.923828"/>
      <use xlink:href="#DejaVuSans-65" x="802.90625"/>
      <use xlink:href="#DejaVuSans-77" x="864.429688"/>
      <use xlink:href="#DejaVuSans-61" x="946.216797"/>
      <use xlink:href="#DejaVuSans-72" x="1007.496094"/>
      <use xlink:href="#DejaVuSans-64" x="1046.859375"/>
     </g>
    </g>
   </g>
  </g>
 </g>
 <defs>
  <clipPath id="pae0af268e9">
   <rect x="53.03" y="25.44" width="656.17" height="364.6"/>
  </clipPath>
 </defs>
</svg>
