<?xml version="1.0" encoding="utf-8" standalone="no"?>
<!DOCTYPE svg PUBLIC "-//W3C//DTD SVG 1.1//EN"
  "http://www.w3.org/Graphics/SVG/1.1/DTD/svg11.dtd">
<svg xmlns:xlink="http://www.w3.org/1999/xlink" width="720pt" height="432pt" viewBox="0 0 720 432" xmlns="http://www.w3.org/2000/svg" version="1.1">
 <metadata>
  <rdf:RDF xmlns:dc="http://purl.org/dc/elements/1.1/" xmlns:cc="http://creativecommons.org/ns#" xmlns:rdf="http://www.w3.org/1999/02/22-rdf-syntax-ns#">
   <cc:Work>
    <dc:type rdf:resource="http://purl.org/dc/dcmitype/StillImage"/>
    <dc:date>2025-07-04T14:40:13.018349</dc:date>
    <dc:format>image/svg+xml</dc:format>
    <dc:creator>
     <cc:Agent>
      <dc:title>Matplotlib v3.8.4, https://matplotlib.org/</dc:title>
     </cc:Agent>
    </dc:creator>
   </cc:Work>
  </rdf:RDF>
 </metadata>
 <defs>
  <style type="text/css">*{stroke-linejoin: round; stroke-linecap: butt}</style>
 </defs>
 <g id="figure_1">
  <g id="patch_1">
   <path d="M 0 432 
L 720 432 
L 720 0 
L 0 0 
z
" style="fill: #ffffff"/>
  </g>
  <g id="axes_1">
   <g id="patch_2">
    <path d="M 53.03 390.04 
L 709.2 390.04 
L 709.2 25.44 
L 53.03 25.44 
z
" style="fill: #ffffff"/>
   </g>
   <g id="matplotlib.axis_1">
    <g id="xtick_1">
     <g id="line2d_1">
      <path d="M 82.855909 390.04 
L 82.855909 25.44 
" clip-path="url(#p66618e70ae)" style="fill: none; stroke: #b0b0b0; stroke-width: 0.8; stroke-linecap: square"/>
     </g>
     <g id="line2d_2">
      <defs>
       <path id="mb13683809f" d="M 0 0 
L 0 3.5 
" style="stroke: #000000; stroke-width: 0.8"/>
      </defs>
      <g>
       <use xlink:href="#mb13683809f" x="82.855909" y="390.04" style="stroke: #000000; stroke-width: 0.8"/>
      </g>
     </g>
     <g id="text_1">
      <!-- 0 -->
      <g transform="translate(79.674659 404.638438) scale(0.1 -0.1)">
       <defs>
        <path id="DejaVuSans-30" d="M 2034 4250 
Q 1547 4250 1301 3770 
Q 1056 3291 1056 2328 
Q 1056 1369 1301 889 
Q 1547 409 2034 409 
Q 2525 409 2770 889 
Q 3016 1369 3016 2328 
Q 3016 3291 2770 3770 
Q 2525 4250 2034 4250 
z
M 2034 4750 
Q 2819 4750 3233 4129 
Q 3647 3509 3647 2328 
Q 3647 1150 3233 529 
Q 2819 -91 2034 -91 
Q 1250 -91 836 529 
Q 422 1150 422 2328 
Q 422 3509 836 4129 
Q 1250 4750 2034 4750 
z
" transform="scale(0.015625)"/>
       </defs>
       <use xlink:href="#DejaVuSans-30"/>
      </g>
     </g>
    </g>
    <g id="xtick_2">
     <g id="line2d_3">
      <path d="M 182.608113 390.04 
L 182.608113 25.44 
" clip-path="url(#p66618e70ae)" style="fill: none; stroke: #b0b0b0; stroke-width: 0.8; stroke-linecap: square"/>
     </g>
     <g id="line2d_4">
      <g>
       <use xlink:href="#mb13683809f" x="182.608113" y="390.04" style="stroke: #000000; stroke-width: 0.8"/>
      </g>
     </g>
     <g id="text_2">
      <!-- 50 -->
      <g transform="translate(176.245613 404.638438) scale(0.1 -0.1)">
       <defs>
        <path id="DejaVuSans-35" d="M 691 4666 
L 3169 4666 
L 3169 4134 
L 1269 4134 
L 1269 2991 
Q 1406 3038 1543 3061 
Q 1681 3084 1819 3084 
Q 2600 3084 3056 2656 
Q 3513 2228 3513 1497 
Q 3513 744 3044 326 
Q 2575 -91 1722 -91 
Q 1428 -91 1123 -41 
Q 819 9 494 109 
L 494 744 
Q 775 591 1075 516 
Q 1375 441 1709 441 
Q 2250 441 2565 725 
Q 2881 1009 2881 1497 
Q 2881 1984 2565 2268 
Q 2250 2553 1709 2553 
Q 1456 2553 1204 2497 
Q 953 2441 691 2322 
L 691 4666 
z
" transform="scale(0.015625)"/>
       </defs>
       <use xlink:href="#DejaVuSans-35"/>
       <use xlink:href="#DejaVuSans-30" x="63.623047"/>
      </g>
     </g>
    </g>
    <g id="xtick_3">
     <g id="line2d_5">
      <path d="M 282.360318 390.04 
L 282.360318 25.44 
" clip-path="url(#p66618e70ae)" style="fill: none; stroke: #b0b0b0; stroke-width: 0.8; stroke-linecap: square"/>
     </g>
     <g id="line2d_6">
      <g>
       <use xlink:href="#mb13683809f" x="282.360318" y="390.04" style="stroke: #000000; stroke-width: 0.8"/>
      </g>
     </g>
     <g id="text_3">
      <!-- 100 -->
      <g transform="translate(272.816568 404.638438) scale(0.1 -0.1)">
       <defs>
        <path id="DejaVuSans-31" d="M 794 531 
L 1825 531 
L 1825 4091 
L 703 3866 
L 703 4441 
L 1819 4666 
L 2450 4666 
L 2450 531 
L 3481 531 
L 3481 0 
L 794 0 
L 794 531 
z
" transform="scale(0.015625)"/>
       </defs>
       <use xlink:href="#DejaVuSans-31"/>
       <use xlink:href="#DejaVuSans-30" x="63.623047"/>
       <use xlink:href="#DejaVuSans-30" x="127.246094"/>
      </g>
     </g>
    </g>
    <g id="xtick_4">
     <g id="line2d_7">
      <path d="M 382.112522 390.04 
L 382.112522 25.44 
" clip-path="url(#p66618e70ae)" style="fill: none; stroke: #b0b0b0; stroke-width: 0.8; stroke-linecap: square"/>
     </g>
     <g id="line2d_8">
      <g>
       <use xlink:href="#mb13683809f" x="382.112522" y="390.04" style="stroke: #000000; stroke-width: 0.8"/>
      </g>
     </g>
     <g id="text_4">
      <!-- 150 -->
      <g transform="translate(372.568772 404.638438) scale(0.1 -0.1)">
       <use xlink:href="#DejaVuSans-31"/>
       <use xlink:href="#DejaVuSans-35" x="63.623047"/>
       <use xlink:href="#DejaVuSans-30" x="127.246094"/>
      </g>
     </g>
    </g>
    <g id="xtick_5">
     <g id="line2d_9">
      <path d="M 481.864726 390.04 
L 481.864726 25.44 
" clip-path="url(#p66618e70ae)" style="fill: none; stroke: #b0b0b0; stroke-width: 0.8; stroke-linecap: square"/>
     </g>
     <g id="line2d_10">
      <g>
       <use xlink:href="#mb13683809f" x="481.864726" y="390.04" style="stroke: #000000; stroke-width: 0.8"/>
      </g>
     </g>
     <g id="text_5">
      <!-- 200 -->
      <g transform="translate(472.320976 404.638438) scale(0.1 -0.1)">
       <defs>
        <path id="DejaVuSans-32" d="M 1228 531 
L 3431 531 
L 3431 0 
L 469 0 
L 469 531 
Q 828 903 1448 1529 
Q 2069 2156 2228 2338 
Q 2531 2678 2651 2914 
Q 2772 3150 2772 3378 
Q 2772 3750 2511 3984 
Q 2250 4219 1831 4219 
Q 1534 4219 1204 4116 
Q 875 4013 500 3803 
L 500 4441 
Q 881 4594 1212 4672 
Q 1544 4750 1819 4750 
Q 2544 4750 2975 4387 
Q 3406 4025 3406 3419 
Q 3406 3131 3298 2873 
Q 3191 2616 2906 2266 
Q 2828 2175 2409 1742 
Q 1991 1309 1228 531 
z
" transform="scale(0.015625)"/>
       </defs>
       <use xlink:href="#DejaVuSans-32"/>
       <use xlink:href="#DejaVuSans-30" x="63.623047"/>
       <use xlink:href="#DejaVuSans-30" x="127.246094"/>
      </g>
     </g>
    </g>
    <g id="xtick_6">
     <g id="line2d_11">
      <path d="M 581.616931 390.04 
L 581.616931 25.44 
" clip-path="url(#p66618e70ae)" style="fill: none; stroke: #b0b0b0; stroke-width: 0.8; stroke-linecap: square"/>
     </g>
     <g id="line2d_12">
      <g>
       <use xlink:href="#mb13683809f" x="581.616931" y="390.04" style="stroke: #000000; stroke-width: 0.8"/>
      </g>
     </g>
     <g id="text_6">
      <!-- 250 -->
      <g transform="translate(572.073181 404.638438) scale(0.1 -0.1)">
       <use xlink:href="#DejaVuSans-32"/>
       <use xlink:href="#DejaVuSans-35" x="63.623047"/>
       <use xlink:href="#DejaVuSans-30" x="127.246094"/>
      </g>
     </g>
    </g>
    <g id="xtick_7">
     <g id="line2d_13">
      <path d="M 681.369135 390.04 
L 681.369135 25.44 
" clip-path="url(#p66618e70ae)" style="fill: none; stroke: #b0b0b0; stroke-width: 0.8; stroke-linecap: square"/>
     </g>
     <g id="line2d_14">
      <g>
       <use xlink:href="#mb13683809f" x="681.369135" y="390.04" style="stroke: #000000; stroke-width: 0.8"/>
      </g>
     </g>
     <g id="text_7">
      <!-- 300 -->
      <g transform="translate(671.825385 404.638438) scale(0.1 -0.1)">
       <defs>
        <path id="DejaVuSans-33" d="M 2597 2516 
Q 3050 2419 3304 2112 
Q 3559 1806 3559 1356 
Q 3559 666 3084 287 
Q 2609 -91 1734 -91 
Q 1441 -91 1130 -33 
Q 819 25 488 141 
L 488 750 
Q 750 597 1062 519 
Q 1375 441 1716 441 
Q 2309 441 2620 675 
Q 2931 909 2931 1356 
Q 2931 1769 2642 2001 
Q 2353 2234 1838 2234 
L 1294 2234 
L 1294 2753 
L 1863 2753 
Q 2328 2753 2575 2939 
Q 2822 3125 2822 3475 
Q 2822 3834 2567 4026 
Q 2313 4219 1838 4219 
Q 1578 4219 1281 4162 
Q 984 4106 628 3988 
L 628 4550 
Q 988 4650 1302 4700 
Q 1616 4750 1894 4750 
Q 2613 4750 3031 4423 
Q 3450 4097 3450 3541 
Q 3450 3153 3228 2886 
Q 3006 2619 2597 2516 
z
" transform="scale(0.015625)"/>
       </defs>
       <use xlink:href="#DejaVuSans-33"/>
       <use xlink:href="#DejaVuSans-30" x="63.623047"/>
       <use xlink:href="#DejaVuSans-30" x="127.246094"/>
      </g>
     </g>
    </g>
    <g id="text_8">
     <!-- Episode -->
     <g transform="translate(361.4775 418.316562) scale(0.1 -0.1)">
      <defs>
       <path id="DejaVuSans-45" d="M 628 4666 
L 3578 4666 
L 3578 4134 
L 1259 4134 
L 1259 2753 
L 3481 2753 
L 3481 2222 
L 1259 2222 
L 1259 531 
L 3634 531 
L 3634 0 
L 628 0 
L 628 4666 
z
" transform="scale(0.015625)"/>
       <path id="DejaVuSans-70" d="M 1159 525 
L 1159 -1331 
L 581 -1331 
L 581 3500 
L 1159 3500 
L 1159 2969 
Q 1341 3281 1617 3432 
Q 1894 3584 2278 3584 
Q 2916 3584 3314 3078 
Q 3713 2572 3713 1747 
Q 3713 922 3314 415 
Q 2916 -91 2278 -91 
Q 1894 -91 1617 61 
Q 1341 213 1159 525 
z
M 3116 1747 
Q 3116 2381 2855 2742 
Q 2594 3103 2138 3103 
Q 1681 3103 1420 2742 
Q 1159 2381 1159 1747 
Q 1159 1113 1420 752 
Q 1681 391 2138 391 
Q 2594 391 2855 752 
Q 3116 1113 3116 1747 
z
" transform="scale(0.015625)"/>
       <path id="DejaVuSans-69" d="M 603 3500 
L 1178 3500 
L 1178 0 
L 603 0 
L 603 3500 
z
M 603 4863 
L 1178 4863 
L 1178 4134 
L 603 4134 
L 603 4863 
z
" transform="scale(0.015625)"/>
       <path id="DejaVuSans-73" d="M 2834 3397 
L 2834 2853 
Q 2591 2978 2328 3040 
Q 2066 3103 1784 3103 
Q 1356 3103 1142 2972 
Q 928 2841 928 2578 
Q 928 2378 1081 2264 
Q 1234 2150 1697 2047 
L 1894 2003 
Q 2506 1872 2764 1633 
Q 3022 1394 3022 966 
Q 3022 478 2636 193 
Q 2250 -91 1575 -91 
Q 1294 -91 989 -36 
Q 684 19 347 128 
L 347 722 
Q 666 556 975 473 
Q 1284 391 1588 391 
Q 1994 391 2212 530 
Q 2431 669 2431 922 
Q 2431 1156 2273 1281 
Q 2116 1406 1581 1522 
L 1381 1569 
Q 847 1681 609 1914 
Q 372 2147 372 2553 
Q 372 3047 722 3315 
Q 1072 3584 1716 3584 
Q 2034 3584 2315 3537 
Q 2597 3491 2834 3397 
z
" transform="scale(0.015625)"/>
       <path id="DejaVuSans-6f" d="M 1959 3097 
Q 1497 3097 1228 2736 
Q 959 2375 959 1747 
Q 959 1119 1226 758 
Q 1494 397 1959 397 
Q 2419 397 2687 759 
Q 2956 1122 2956 1747 
Q 2956 2369 2687 2733 
Q 2419 3097 1959 3097 
z
M 1959 3584 
Q 2709 3584 3137 3096 
Q 3566 2609 3566 1747 
Q 3566 888 3137 398 
Q 2709 -91 1959 -91 
Q 1206 -91 779 398 
Q 353 888 353 1747 
Q 353 2609 779 3096 
Q 1206 3584 1959 3584 
z
" transform="scale(0.015625)"/>
       <path id="DejaVuSans-64" d="M 2906 2969 
L 2906 4863 
L 3481 4863 
L 3481 0 
L 2906 0 
L 2906 525 
Q 2725 213 2448 61 
Q 2172 -91 1784 -91 
Q 1150 -91 751 415 
Q 353 922 353 1747 
Q 353 2572 751 3078 
Q 1150 3584 1784 3584 
Q 2172 3584 2448 3432 
Q 2725 3281 2906 2969 
z
M 947 1747 
Q 947 1113 1208 752 
Q 1469 391 1925 391 
Q 2381 391 2643 752 
Q 2906 1113 2906 1747 
Q 2906 2381 2643 2742 
Q 2381 3103 1925 3103 
Q 1469 3103 1208 2742 
Q 947 2381 947 1747 
z
" transform="scale(0.015625)"/>
       <path id="DejaVuSans-65" d="M 3597 1894 
L 3597 1613 
L 953 1613 
Q 991 1019 1311 708 
Q 1631 397 2203 397 
Q 2534 397 2845 478 
Q 3156 559 3463 722 
L 3463 178 
Q 3153 47 2828 -22 
Q 2503 -91 2169 -91 
Q 1331 -91 842 396 
Q 353 884 353 1716 
Q 353 2575 817 3079 
Q 1281 3584 2069 3584 
Q 2775 3584 3186 3129 
Q 3597 2675 3597 1894 
z
M 3022 2063 
Q 3016 2534 2758 2815 
Q 2500 3097 2075 3097 
Q 1594 3097 1305 2825 
Q 1016 2553 972 2059 
L 3022 2063 
z
" transform="scale(0.015625)"/>
      </defs>
      <use xlink:href="#DejaVuSans-45"/>
      <use xlink:href="#DejaVuSans-70" x="63.183594"/>
      <use xlink:href="#DejaVuSans-69" x="126.660156"/>
      <use xlink:href="#DejaVuSans-73" x="154.443359"/>
      <use xlink:href="#DejaVuSans-6f" x="206.542969"/>
      <use xlink:href="#DejaVuSans-64" x="267.724609"/>
      <use xlink:href="#DejaVuSans-65" x="331.201172"/>
     </g>
    </g>
   </g>
   <g id="matplotlib.axis_2">
    <g id="ytick_1">
     <g id="line2d_15">
      <path d="M 53.03 380.185946 
L 709.2 380.185946 
" clip-path="url(#p66618e70ae)" style="fill: none; stroke: #b0b0b0; stroke-width: 0.8; stroke-linecap: square"/>
     </g>
     <g id="line2d_16">
      <defs>
       <path id="maf06d23af6" d="M 0 0 
L -3.5 0 
" style="stroke: #000000; stroke-width: 0.8"/>
      </defs>
      <g>
       <use xlink:href="#maf06d23af6" x="53.03" y="380.185946" style="stroke: #000000; stroke-width: 0.8"/>
      </g>
     </g>
     <g id="text_9">
      <!-- −15 -->
      <g transform="translate(24.925313 383.985165) scale(0.1 -0.1)">
       <defs>
        <path id="DejaVuSans-2212" d="M 678 2272 
L 4684 2272 
L 4684 1741 
L 678 1741 
L 678 2272 
z
" transform="scale(0.015625)"/>
       </defs>
       <use xlink:href="#DejaVuSans-2212"/>
       <use xlink:href="#DejaVuSans-31" x="83.789062"/>
       <use xlink:href="#DejaVuSans-35" x="147.412109"/>
      </g>
     </g>
    </g>
    <g id="ytick_2">
     <g id="line2d_17">
      <path d="M 53.03 328.676118 
L 709.2 328.676118 
" clip-path="url(#p66618e70ae)" style="fill: none; stroke: #b0b0b0; stroke-width: 0.8; stroke-linecap: square"/>
     </g>
     <g id="line2d_18">
      <g>
       <use xlink:href="#maf06d23af6" x="53.03" y="328.676118" style="stroke: #000000; stroke-width: 0.8"/>
      </g>
     </g>
     <g id="text_10">
      <!-- −10 -->
      <g transform="translate(24.925313 332.475337) scale(0.1 -0.1)">
       <use xlink:href="#DejaVuSans-2212"/>
       <use xlink:href="#DejaVuSans-31" x="83.789062"/>
       <use xlink:href="#DejaVuSans-30" x="147.412109"/>
      </g>
     </g>
    </g>
    <g id="ytick_3">
     <g id="line2d_19">
      <path d="M 53.03 277.16629 
L 709.2 277.16629 
" clip-path="url(#p66618e70ae)" style="fill: none; stroke: #b0b0b0; stroke-width: 0.8; stroke-linecap: square"/>
     </g>
     <g id="line2d_20">
      <g>
       <use xlink:href="#maf06d23af6" x="53.03" y="277.16629" style="stroke: #000000; stroke-width: 0.8"/>
      </g>
     </g>
     <g id="text_11">
      <!-- −5 -->
      <g transform="translate(31.287813 280.965509) scale(0.1 -0.1)">
       <use xlink:href="#DejaVuSans-2212"/>
       <use xlink:href="#DejaVuSans-35" x="83.789062"/>
      </g>
     </g>
    </g>
    <g id="ytick_4">
     <g id="line2d_21">
      <path d="M 53.03 225.656462 
L 709.2 225.656462 
" clip-path="url(#p66618e70ae)" style="fill: none; stroke: #b0b0b0; stroke-width: 0.8; stroke-linecap: square"/>
     </g>
     <g id="line2d_22">
      <g>
       <use xlink:href="#maf06d23af6" x="53.03" y="225.656462" style="stroke: #000000; stroke-width: 0.8"/>
      </g>
     </g>
     <g id="text_12">
      <!-- 0 -->
      <g transform="translate(39.6675 229.455681) scale(0.1 -0.1)">
       <use xlink:href="#DejaVuSans-30"/>
      </g>
     </g>
    </g>
    <g id="ytick_5">
     <g id="line2d_23">
      <path d="M 53.03 174.146634 
L 709.2 174.146634 
" clip-path="url(#p66618e70ae)" style="fill: none; stroke: #b0b0b0; stroke-width: 0.8; stroke-linecap: square"/>
     </g>
     <g id="line2d_24">
      <g>
       <use xlink:href="#maf06d23af6" x="53.03" y="174.146634" style="stroke: #000000; stroke-width: 0.8"/>
      </g>
     </g>
     <g id="text_13">
      <!-- 5 -->
      <g transform="translate(39.6675 177.945853) scale(0.1 -0.1)">
       <use xlink:href="#DejaVuSans-35"/>
      </g>
     </g>
    </g>
    <g id="ytick_6">
     <g id="line2d_25">
      <path d="M 53.03 122.636806 
L 709.2 122.636806 
" clip-path="url(#p66618e70ae)" style="fill: none; stroke: #b0b0b0; stroke-width: 0.8; stroke-linecap: square"/>
     </g>
     <g id="line2d_26">
      <g>
       <use xlink:href="#maf06d23af6" x="53.03" y="122.636806" style="stroke: #000000; stroke-width: 0.8"/>
      </g>
     </g>
     <g id="text_14">
      <!-- 10 -->
      <g transform="translate(33.305 126.436025) scale(0.1 -0.1)">
       <use xlink:href="#DejaVuSans-31"/>
       <use xlink:href="#DejaVuSans-30" x="63.623047"/>
      </g>
     </g>
    </g>
    <g id="ytick_7">
     <g id="line2d_27">
      <path d="M 53.03 71.126978 
L 709.2 71.126978 
" clip-path="url(#p66618e70ae)" style="fill: none; stroke: #b0b0b0; stroke-width: 0.8; stroke-linecap: square"/>
     </g>
     <g id="line2d_28">
      <g>
       <use xlink:href="#maf06d23af6" x="53.03" y="71.126978" style="stroke: #000000; stroke-width: 0.8"/>
      </g>
     </g>
     <g id="text_15">
      <!-- 15 -->
      <g transform="translate(33.305 74.926197) scale(0.1 -0.1)">
       <use xlink:href="#DejaVuSans-31"/>
       <use xlink:href="#DejaVuSans-35" x="63.623047"/>
      </g>
     </g>
    </g>
    <g id="text_16">
     <!-- Average Reward -->
     <g transform="translate(18.845625 248.482969) rotate(-90) scale(0.1 -0.1)">
      <defs>
       <path id="DejaVuSans-41" d="M 2188 4044 
L 1331 1722 
L 3047 1722 
L 2188 4044 
z
M 1831 4666 
L 2547 4666 
L 4325 0 
L 3669 0 
L 3244 1197 
L 1141 1197 
L 716 0 
L 50 0 
L 1831 4666 
z
" transform="scale(0.015625)"/>
       <path id="DejaVuSans-76" d="M 191 3500 
L 800 3500 
L 1894 563 
L 2988 3500 
L 3597 3500 
L 2284 0 
L 1503 0 
L 191 3500 
z
" transform="scale(0.015625)"/>
       <path id="DejaVuSans-72" d="M 2631 2963 
Q 2534 3019 2420 3045 
Q 2306 3072 2169 3072 
Q 1681 3072 1420 2755 
Q 1159 2438 1159 1844 
L 1159 0 
L 581 0 
L 581 3500 
L 1159 3500 
L 1159 2956 
Q 1341 3275 1631 3429 
Q 1922 3584 2338 3584 
Q 2397 3584 2469 3576 
Q 2541 3569 2628 3553 
L 2631 2963 
z
" transform="scale(0.015625)"/>
       <path id="DejaVuSans-61" d="M 2194 1759 
Q 1497 1759 1228 1600 
Q 959 1441 959 1056 
Q 959 750 1161 570 
Q 1363 391 1709 391 
Q 2188 391 2477 730 
Q 2766 1069 2766 1631 
L 2766 1759 
L 2194 1759 
z
M 3341 1997 
L 3341 0 
L 2766 0 
L 2766 531 
Q 2569 213 2275 61 
Q 1981 -91 1556 -91 
Q 1019 -91 701 211 
Q 384 513 384 1019 
Q 384 1609 779 1909 
Q 1175 2209 1959 2209 
L 2766 2209 
L 2766 2266 
Q 2766 2663 2505 2880 
Q 2244 3097 1772 3097 
Q 1472 3097 1187 3025 
Q 903 2953 641 2809 
L 641 3341 
Q 956 3463 1253 3523 
Q 1550 3584 1831 3584 
Q 2591 3584 2966 3190 
Q 3341 2797 3341 1997 
z
" transform="scale(0.015625)"/>
       <path id="DejaVuSans-67" d="M 2906 1791 
Q 2906 2416 2648 2759 
Q 2391 3103 1925 3103 
Q 1463 3103 1205 2759 
Q 947 2416 947 1791 
Q 947 1169 1205 825 
Q 1463 481 1925 481 
Q 2391 481 2648 825 
Q 2906 1169 2906 1791 
z
M 3481 434 
Q 3481 -459 3084 -895 
Q 2688 -1331 1869 -1331 
Q 1566 -1331 1297 -1286 
Q 1028 -1241 775 -1147 
L 775 -588 
Q 1028 -725 1275 -790 
Q 1522 -856 1778 -856 
Q 2344 -856 2625 -561 
Q 2906 -266 2906 331 
L 2906 616 
Q 2728 306 2450 153 
Q 2172 0 1784 0 
Q 1141 0 747 490 
Q 353 981 353 1791 
Q 353 2603 747 3093 
Q 1141 3584 1784 3584 
Q 2172 3584 2450 3431 
Q 2728 3278 2906 2969 
L 2906 3500 
L 3481 3500 
L 3481 434 
z
" transform="scale(0.015625)"/>
       <path id="DejaVuSans-20" transform="scale(0.015625)"/>
       <path id="DejaVuSans-52" d="M 2841 2188 
Q 3044 2119 3236 1894 
Q 3428 1669 3622 1275 
L 4263 0 
L 3584 0 
L 2988 1197 
Q 2756 1666 2539 1819 
Q 2322 1972 1947 1972 
L 1259 1972 
L 1259 0 
L 628 0 
L 628 4666 
L 2053 4666 
Q 2853 4666 3247 4331 
Q 3641 3997 3641 3322 
Q 3641 2881 3436 2590 
Q 3231 2300 2841 2188 
z
M 1259 4147 
L 1259 2491 
L 2053 2491 
Q 2509 2491 2742 2702 
Q 2975 2913 2975 3322 
Q 2975 3731 2742 3939 
Q 2509 4147 2053 4147 
L 1259 4147 
z
" transform="scale(0.015625)"/>
       <path id="DejaVuSans-77" d="M 269 3500 
L 844 3500 
L 1563 769 
L 2278 3500 
L 2956 3500 
L 3675 769 
L 4391 3500 
L 4966 3500 
L 4050 0 
L 3372 0 
L 2619 2869 
L 1863 0 
L 1184 0 
L 269 3500 
z
" transform="scale(0.015625)"/>
      </defs>
      <use xlink:href="#DejaVuSans-41"/>
      <use xlink:href="#DejaVuSans-76" x="62.533203"/>
      <use xlink:href="#DejaVuSans-65" x="121.712891"/>
      <use xlink:href="#DejaVuSans-72" x="183.236328"/>
      <use xlink:href="#DejaVuSans-61" x="224.349609"/>
      <use xlink:href="#DejaVuSans-67" x="285.628906"/>
      <use xlink:href="#DejaVuSans-65" x="349.105469"/>
      <use xlink:href="#DejaVuSans-20" x="410.628906"/>
      <use xlink:href="#DejaVuSans-52" x="442.416016"/>
      <use xlink:href="#DejaVuSans-65" x="507.398438"/>
      <use xlink:href="#DejaVuSans-77" x="568.921875"/>
      <use xlink:href="#DejaVuSans-61" x="650.708984"/>
      <use xlink:href="#DejaVuSans-72" x="711.988281"/>
      <use xlink:href="#DejaVuSans-64" x="751.351562"/>
     </g>
    </g>
   </g>
   <g id="line2d_29">
    <path d="M 82.855909 288.364079 
L 84.850953 328.676118 
L 86.845997 306.280541 
L 88.841041 252.531155 
L 90.836085 257.01027 
L 92.83113 301.801425 
L 94.826174 212.219115 
L 96.821218 315.238771 
L 98.816262 270.447617 
L 100.811306 319.717887 
L 102.80635 270.447617 
L 104.801394 288.364079 
L 106.796438 297.32231 
L 108.791482 270.447617 
L 110.786526 292.843194 
L 112.78157 230.135577 
L 114.776614 239.093808 
L 118.766703 301.801425 
L 120.761747 225.656462 
L 122.756791 292.843194 
L 124.751835 274.926732 
L 126.746879 248.052039 
L 128.741923 279.405848 
L 130.736967 248.052039 
L 132.732011 261.489386 
L 134.727055 270.447617 
L 136.722099 257.01027 
L 138.717144 230.135577 
L 140.712188 297.32231 
L 142.707232 239.093808 
L 144.702276 306.280541 
L 146.69732 243.572924 
L 148.692364 252.531155 
L 150.687408 257.01027 
L 152.682452 207.74 
L 154.677496 239.093808 
L 156.67254 239.093808 
L 158.667584 270.447617 
L 160.662628 288.364079 
L 162.657673 301.801425 
L 164.652717 203.260885 
L 166.647761 239.093808 
L 168.642805 261.489386 
L 170.637849 265.968501 
L 172.632893 243.572924 
L 174.627937 319.717887 
L 176.622981 234.614693 
L 178.618025 225.656462 
L 180.613069 252.531155 
L 182.608113 261.489386 
L 184.603157 279.405848 
L 186.598202 301.801425 
L 188.593246 297.32231 
L 190.58829 283.884963 
L 192.583334 239.093808 
L 194.578378 252.531155 
L 196.573422 274.926732 
L 198.568466 306.280541 
L 200.56351 319.717887 
L 202.558554 239.093808 
L 204.553598 257.01027 
L 206.548642 239.093808 
L 208.543687 274.926732 
L 210.538731 306.280541 
L 212.533775 297.32231 
L 214.528819 216.698231 
L 216.523863 283.884963 
L 218.518907 360.029926 
L 220.513951 243.572924 
L 222.508995 234.614693 
L 224.504039 261.489386 
L 226.499083 274.926732 
L 228.494127 265.968501 
L 230.489171 239.093808 
L 232.484216 225.656462 
L 234.47926 288.364079 
L 236.474304 216.698231 
L 238.469348 257.01027 
L 240.464392 257.01027 
L 242.459436 279.405848 
L 244.45448 230.135577 
L 246.449524 257.01027 
L 248.444568 239.093808 
L 250.439612 252.531155 
L 252.434656 212.219115 
L 254.429701 212.219115 
L 256.424745 283.884963 
L 258.419789 257.01027 
L 260.414833 274.926732 
L 262.409877 248.052039 
L 264.404921 252.531155 
L 266.399965 216.698231 
L 268.395009 203.260885 
L 270.390053 212.219115 
L 272.385097 261.489386 
L 274.380141 230.135577 
L 276.375185 243.572924 
L 278.37023 234.614693 
L 280.365274 239.093808 
L 282.360318 283.884963 
L 284.355362 230.135577 
L 286.350406 265.968501 
L 288.34545 279.405848 
L 290.340494 234.614693 
L 292.335538 239.093808 
L 294.330582 279.405848 
L 296.325626 274.926732 
L 298.32067 248.052039 
L 300.315715 203.260885 
L 302.310759 257.01027 
L 304.305803 221.177346 
L 306.300847 225.656462 
L 308.295891 203.260885 
L 310.290935 274.926732 
L 312.285979 306.280541 
L 314.281023 243.572924 
L 316.276067 257.01027 
L 318.271111 207.74 
L 320.266155 301.801425 
L 324.256244 221.177346 
L 326.251288 248.052039 
L 328.246332 198.781769 
L 330.241376 221.177346 
L 332.23642 194.302654 
L 334.231464 248.052039 
L 336.226508 230.135577 
L 338.221552 265.968501 
L 340.216596 261.489386 
L 342.21164 198.781769 
L 344.206684 306.280541 
L 346.201728 234.614693 
L 348.196773 261.489386 
L 350.191817 194.302654 
L 352.186861 234.614693 
L 354.181905 185.344423 
L 356.176949 225.656462 
L 358.171993 239.093808 
L 360.167037 212.219115 
L 362.162081 212.219115 
L 364.157125 207.74 
L 366.152169 239.093808 
L 368.147213 198.781769 
L 370.142258 221.177346 
L 372.137302 180.865307 
L 374.132346 252.531155 
L 376.12739 283.884963 
L 378.122434 225.656462 
L 380.117478 230.135577 
L 382.112522 185.344423 
L 384.107566 185.344423 
L 386.10261 203.260885 
L 388.097654 225.656462 
L 390.092698 239.093808 
L 392.087742 203.260885 
L 394.082787 257.01027 
L 396.077831 198.781769 
L 398.072875 189.823538 
L 400.067919 216.698231 
L 402.062963 248.052039 
L 404.058007 194.302654 
L 406.053051 221.177346 
L 408.048095 221.177346 
L 410.043139 225.656462 
L 412.038183 212.219115 
L 414.033227 243.572924 
L 416.028272 265.968501 
L 418.023316 198.781769 
L 420.01836 230.135577 
L 422.013404 239.093808 
L 426.003492 203.260885 
L 427.998536 230.135577 
L 429.99358 203.260885 
L 431.988624 189.823538 
L 433.983668 194.302654 
L 435.978712 225.656462 
L 437.973756 221.177346 
L 439.968801 194.302654 
L 441.963845 243.572924 
L 443.958889 261.489386 
L 445.953933 194.302654 
L 447.948977 167.427961 
L 449.944021 185.344423 
L 451.939065 212.219115 
L 453.934109 162.948845 
L 455.929153 248.052039 
L 457.924197 176.386192 
L 459.919241 167.427961 
L 461.914285 185.344423 
L 463.90933 162.948845 
L 465.904374 198.781769 
L 467.899418 203.260885 
L 469.894462 203.260885 
L 471.889506 212.219115 
L 473.88455 180.865307 
L 475.879594 234.614693 
L 477.874638 230.135577 
L 479.869682 212.219115 
L 481.864726 180.865307 
L 483.85977 176.386192 
L 485.854815 203.260885 
L 487.849859 257.01027 
L 489.844903 194.302654 
L 491.839947 176.386192 
L 493.834991 185.344423 
L 495.830035 176.386192 
L 497.825079 176.386192 
L 499.820123 189.823538 
L 501.815167 176.386192 
L 503.810211 194.302654 
L 505.805255 221.177346 
L 507.800299 203.260885 
L 509.795344 167.427961 
L 511.790388 176.386192 
L 513.785432 176.386192 
L 515.780476 180.865307 
L 517.77552 212.219115 
L 519.770564 230.135577 
L 521.765608 225.656462 
L 523.760652 243.572924 
L 525.755696 194.302654 
L 527.75074 167.427961 
L 529.745784 185.344423 
L 531.740829 171.907076 
L 533.735873 176.386192 
L 535.730917 194.302654 
L 537.725961 167.427961 
L 539.721005 176.386192 
L 541.716049 225.656462 
L 543.711093 158.46973 
L 545.706137 171.907076 
L 547.701181 176.386192 
L 549.696225 176.386192 
L 551.691269 185.344423 
L 553.686313 176.386192 
L 555.681358 176.386192 
L 557.676402 167.427961 
L 559.671446 207.74 
L 561.66649 158.46973 
L 563.661534 185.344423 
L 565.656578 185.344423 
L 567.651622 203.260885 
L 569.646666 176.386192 
L 571.64171 158.46973 
L 573.636754 167.427961 
L 575.631798 171.907076 
L 577.626843 162.948845 
L 579.621887 171.907076 
L 581.616931 176.386192 
L 583.611975 194.302654 
L 585.607019 194.302654 
L 587.602063 185.344423 
L 589.597107 167.427961 
L 591.592151 167.427961 
L 593.587195 198.781769 
L 595.582239 167.427961 
L 597.577283 167.427961 
L 599.572327 185.344423 
L 601.567372 158.46973 
L 603.562416 189.823538 
L 605.55746 167.427961 
L 607.552504 185.344423 
L 609.547548 162.948845 
L 611.542592 176.386192 
L 613.537636 158.46973 
L 615.53268 171.907076 
L 617.527724 171.907076 
L 619.522768 194.302654 
L 621.517812 167.427961 
L 623.512856 194.302654 
L 625.507901 167.427961 
L 627.502945 158.46973 
L 629.497989 176.386192 
L 631.493033 176.386192 
L 633.488077 185.344423 
L 635.483121 158.46973 
L 637.478165 158.46973 
L 639.473209 167.427961 
L 641.468253 194.302654 
L 643.463297 185.344423 
L 645.458341 158.46973 
L 647.453386 167.427961 
L 649.44843 167.427961 
L 651.443474 185.344423 
L 653.438518 158.46973 
L 659.42365 158.46973 
L 661.418694 167.427961 
L 663.413738 167.427961 
L 665.408782 158.46973 
L 669.39887 158.46973 
L 671.393915 203.260885 
L 673.388959 158.46973 
L 675.384003 185.344423 
L 677.379047 158.46973 
L 679.374091 176.386192 
L 679.374091 176.386192 
" clip-path="url(#p66618e70ae)" style="fill: none; stroke: #1f77b4; stroke-width: 1.5; stroke-linecap: square"/>
   </g>
   <g id="line2d_30">
    <path d="M 82.855909 243.572924 
L 84.850953 270.447617 
L 86.845997 234.614693 
L 88.841041 297.32231 
L 90.836085 265.968501 
L 92.83113 230.135577 
L 94.826174 265.968501 
L 96.821218 225.656462 
L 98.816262 221.177346 
L 100.811306 243.572924 
L 102.80635 257.01027 
L 104.801394 225.656462 
L 106.796438 221.177346 
L 108.791482 212.219115 
L 110.786526 207.74 
L 112.78157 261.489386 
L 114.776614 234.614693 
L 116.771659 265.968501 
L 118.766703 216.698231 
L 120.761747 198.781769 
L 122.756791 261.489386 
L 124.751835 306.280541 
L 126.746879 319.717887 
L 128.741923 243.572924 
L 130.736967 261.489386 
L 132.732011 234.614693 
L 134.727055 221.177346 
L 136.722099 239.093808 
L 138.717144 198.781769 
L 140.712188 207.74 
L 142.707232 257.01027 
L 144.702276 301.801425 
L 146.69732 248.052039 
L 148.692364 140.553268 
L 150.687408 203.260885 
L 152.682452 167.427961 
L 154.677496 261.489386 
L 156.67254 288.364079 
L 158.667584 221.177346 
L 160.662628 194.302654 
L 162.657673 230.135577 
L 164.652717 189.823538 
L 166.647761 373.467273 
L 168.642805 270.447617 
L 170.637849 234.614693 
L 172.632893 207.74 
L 174.627937 261.489386 
L 176.622981 252.531155 
L 178.618025 292.843194 
L 180.613069 189.823538 
L 182.608113 270.447617 
L 184.603157 221.177346 
L 186.598202 283.884963 
L 188.593246 221.177346 
L 190.58829 212.219115 
L 192.583334 198.781769 
L 194.578378 207.74 
L 196.573422 221.177346 
L 198.568466 257.01027 
L 200.56351 248.052039 
L 202.558554 257.01027 
L 204.553598 230.135577 
L 206.548642 207.74 
L 208.543687 230.135577 
L 210.538731 234.614693 
L 212.533775 189.823538 
L 214.528819 257.01027 
L 216.523863 257.01027 
L 218.518907 212.219115 
L 220.513951 234.614693 
L 222.508995 158.46973 
L 224.504039 145.032383 
L 226.499083 234.614693 
L 228.494127 248.052039 
L 230.489171 180.865307 
L 232.484216 207.74 
L 234.47926 230.135577 
L 236.474304 239.093808 
L 238.469348 216.698231 
L 240.464392 216.698231 
L 242.459436 265.968501 
L 244.45448 297.32231 
L 246.449524 216.698231 
L 248.444568 216.698231 
L 250.439612 248.052039 
L 252.434656 198.781769 
L 254.429701 270.447617 
L 256.424745 180.865307 
L 258.419789 203.260885 
L 260.414833 248.052039 
L 262.409877 225.656462 
L 264.404921 212.219115 
L 266.399965 180.865307 
L 268.395009 221.177346 
L 270.390053 198.781769 
L 272.385097 127.115921 
L 274.380141 189.823538 
L 276.375185 207.74 
L 278.37023 221.177346 
L 280.365274 131.595037 
L 282.360318 194.302654 
L 284.355362 207.74 
L 286.350406 248.052039 
L 288.34545 257.01027 
L 290.340494 248.052039 
L 292.335538 171.907076 
L 294.330582 153.990614 
L 296.325626 185.344423 
L 298.32067 203.260885 
L 300.315715 118.15769 
L 302.310759 185.344423 
L 304.305803 171.907076 
L 306.300847 167.427961 
L 308.295891 176.386192 
L 310.290935 127.115921 
L 312.285979 180.865307 
L 314.281023 158.46973 
L 316.276067 203.260885 
L 318.271111 234.614693 
L 320.266155 216.698231 
L 322.261199 207.74 
L 324.256244 207.74 
L 326.251288 149.511499 
L 328.246332 189.823538 
L 330.241376 207.74 
L 332.23642 162.948845 
L 334.231464 149.511499 
L 336.226508 140.553268 
L 338.221552 239.093808 
L 340.216596 145.032383 
L 342.21164 185.344423 
L 344.206684 140.553268 
L 346.201728 185.344423 
L 348.196773 239.093808 
L 350.191817 180.865307 
L 352.186861 212.219115 
L 354.181905 162.948845 
L 356.176949 207.74 
L 358.171993 171.907076 
L 360.167037 203.260885 
L 362.162081 158.46973 
L 364.157125 136.074152 
L 366.152169 118.15769 
L 368.147213 153.990614 
L 370.142258 176.386192 
L 372.137302 122.636806 
L 374.132346 140.553268 
L 376.12739 203.260885 
L 378.122434 158.46973 
L 380.117478 104.720344 
L 382.112522 153.990614 
L 384.107566 207.74 
L 386.10261 180.865307 
L 388.097654 176.386192 
L 390.092698 127.115921 
L 392.087742 162.948845 
L 394.082787 127.115921 
L 396.077831 131.595037 
L 398.072875 140.553268 
L 400.067919 136.074152 
L 402.062963 180.865307 
L 404.058007 176.386192 
L 406.053051 149.511499 
L 408.048095 86.803882 
L 410.043139 140.553268 
L 412.038183 131.595037 
L 414.033227 216.698231 
L 416.028272 122.636806 
L 418.023316 140.553268 
L 420.01836 131.595037 
L 422.013404 109.199459 
L 424.008448 127.115921 
L 426.003492 180.865307 
L 427.998536 131.595037 
L 429.99358 153.990614 
L 431.988624 243.572924 
L 433.983668 158.46973 
L 435.978712 109.199459 
L 437.973756 131.595037 
L 439.968801 122.636806 
L 441.963845 100.241229 
L 443.958889 113.678575 
L 445.953933 95.762113 
L 447.948977 145.032383 
L 449.944021 171.907076 
L 451.939065 185.344423 
L 453.934109 167.427961 
L 455.929153 77.845651 
L 457.924197 180.865307 
L 459.919241 167.427961 
L 461.914285 118.15769 
L 463.90933 59.929189 
L 465.904374 122.636806 
L 467.899418 194.302654 
L 469.894462 171.907076 
L 471.889506 185.344423 
L 473.88455 59.929189 
L 475.879594 122.636806 
L 477.874638 118.15769 
L 479.869682 136.074152 
L 481.864726 131.595037 
L 483.85977 86.803882 
L 485.854815 140.553268 
L 487.849859 131.595037 
L 489.844903 171.907076 
L 491.839947 113.678575 
L 493.834991 158.46973 
L 497.825079 77.845651 
L 499.820123 59.929189 
L 501.815167 131.595037 
L 503.810211 122.636806 
L 505.805255 131.595037 
L 507.800299 86.803882 
L 509.795344 104.720344 
L 513.785432 158.46973 
L 515.780476 153.990614 
L 517.77552 113.678575 
L 519.770564 95.762113 
L 521.765608 82.324767 
L 523.760652 131.595037 
L 525.755696 68.88742 
L 527.75074 95.762113 
L 529.745784 145.032383 
L 531.740829 136.074152 
L 533.735873 86.803882 
L 535.730917 104.720344 
L 537.725961 86.803882 
L 539.721005 180.865307 
L 541.716049 113.678575 
L 543.711093 55.450074 
L 545.706137 91.282998 
L 547.701181 68.88742 
L 549.696225 113.678575 
L 551.691269 113.678575 
L 553.686313 95.762113 
L 555.681358 104.720344 
L 557.676402 50.970958 
L 559.671446 104.720344 
L 561.66649 77.845651 
L 563.661534 42.012727 
L 565.656578 104.720344 
L 567.651622 104.720344 
L 569.646666 95.762113 
L 571.64171 95.762113 
L 573.636754 113.678575 
L 575.631798 82.324767 
L 577.626843 113.678575 
L 581.616931 59.929189 
L 583.611975 91.282998 
L 585.607019 100.241229 
L 587.602063 64.408305 
L 589.597107 122.636806 
L 593.587195 68.88742 
L 595.582239 77.845651 
L 597.577283 95.762113 
L 599.572327 50.970958 
L 601.567372 73.366536 
L 603.562416 77.845651 
L 605.55746 68.88742 
L 607.552504 91.282998 
L 609.547548 68.88742 
L 611.542592 42.012727 
L 615.53268 77.845651 
L 617.527724 50.970958 
L 619.522768 77.845651 
L 621.517812 42.012727 
L 623.512856 42.012727 
L 625.507901 59.929189 
L 627.502945 73.366536 
L 629.497989 42.012727 
L 631.493033 77.845651 
L 633.488077 68.88742 
L 635.483121 46.491843 
L 637.478165 42.012727 
L 639.473209 77.845651 
L 641.468253 42.012727 
L 643.463297 55.450074 
L 645.458341 59.929189 
L 647.453386 42.012727 
L 649.44843 42.012727 
L 651.443474 59.929189 
L 653.438518 42.012727 
L 667.403826 42.012727 
L 669.39887 50.970958 
L 671.393915 42.012727 
L 677.379047 42.012727 
L 679.374091 59.929189 
L 679.374091 59.929189 
" clip-path="url(#p66618e70ae)" style="fill: none; stroke: #ff7f0e; stroke-width: 1.5; stroke-linecap: square"/>
   </g>
   <g id="line2d_31">
    <path d="M 82.855909 333.155233 
L 84.850953 315.238771 
L 90.836085 342.113464 
L 92.83113 360.029926 
L 94.826174 351.071695 
L 96.821218 368.988157 
L 98.816262 333.155233 
L 100.811306 342.113464 
L 102.80635 315.238771 
L 104.801394 342.113464 
L 106.796438 333.155233 
L 108.791482 315.238771 
L 110.786526 324.197002 
L 114.776614 324.197002 
L 118.766703 306.280541 
L 122.756791 306.280541 
L 124.751835 315.238771 
L 126.746879 333.155233 
L 128.741923 306.280541 
L 130.736967 306.280541 
L 132.732011 288.364079 
L 134.727055 333.155233 
L 136.722099 351.071695 
L 138.717144 306.280541 
L 140.712188 315.238771 
L 142.707232 333.155233 
L 144.702276 324.197002 
L 146.69732 297.32231 
L 148.692364 297.32231 
L 150.687408 279.405848 
L 152.682452 279.405848 
L 154.677496 297.32231 
L 156.67254 297.32231 
L 158.667584 279.405848 
L 160.662628 342.113464 
L 162.657673 279.405848 
L 164.652717 360.029926 
L 166.647761 315.238771 
L 168.642805 324.197002 
L 170.637849 306.280541 
L 172.632893 324.197002 
L 174.627937 360.029926 
L 176.622981 315.238771 
L 178.618025 324.197002 
L 180.613069 342.113464 
L 182.608113 279.405848 
L 184.603157 333.155233 
L 186.598202 270.447617 
L 188.593246 297.32231 
L 190.58829 288.364079 
L 192.583334 333.155233 
L 196.573422 279.405848 
L 200.56351 333.155233 
L 202.558554 324.197002 
L 204.553598 297.32231 
L 206.548642 315.238771 
L 208.543687 279.405848 
L 210.538731 297.32231 
L 212.533775 288.364079 
L 214.528819 315.238771 
L 216.523863 315.238771 
L 218.518907 279.405848 
L 220.513951 306.280541 
L 222.508995 315.238771 
L 224.504039 315.238771 
L 226.499083 351.071695 
L 228.494127 342.113464 
L 230.489171 306.280541 
L 232.484216 297.32231 
L 234.47926 324.197002 
L 236.474304 333.155233 
L 240.464392 297.32231 
L 242.459436 315.238771 
L 246.449524 297.32231 
L 248.444568 270.447617 
L 250.439612 288.364079 
L 252.434656 297.32231 
L 254.429701 333.155233 
L 256.424745 279.405848 
L 258.419789 306.280541 
L 260.414833 306.280541 
L 262.409877 288.364079 
L 264.404921 315.238771 
L 266.399965 252.531155 
L 268.395009 333.155233 
L 270.390053 270.447617 
L 272.385097 279.405848 
L 274.380141 306.280541 
L 276.375185 270.447617 
L 278.37023 306.280541 
L 280.365274 279.405848 
L 282.360318 279.405848 
L 284.355362 297.32231 
L 286.350406 297.32231 
L 288.34545 315.238771 
L 290.340494 270.447617 
L 292.335538 306.280541 
L 294.330582 288.364079 
L 296.325626 342.113464 
L 298.32067 270.447617 
L 300.315715 279.405848 
L 304.305803 279.405848 
L 306.300847 288.364079 
L 308.295891 279.405848 
L 310.290935 288.364079 
L 312.285979 270.447617 
L 314.281023 288.364079 
L 316.276067 261.489386 
L 318.271111 279.405848 
L 320.266155 270.447617 
L 322.261199 315.238771 
L 324.256244 306.280541 
L 326.251288 288.364079 
L 328.246332 288.364079 
L 330.241376 306.280541 
L 332.23642 270.447617 
L 334.231464 279.405848 
L 336.226508 315.238771 
L 338.221552 279.405848 
L 340.216596 324.197002 
L 342.21164 288.364079 
L 344.206684 288.364079 
L 348.196773 270.447617 
L 350.191817 297.32231 
L 352.186861 270.447617 
L 354.181905 252.531155 
L 358.171993 288.364079 
L 360.167037 315.238771 
L 362.162081 306.280541 
L 364.157125 270.447617 
L 366.152169 279.405848 
L 368.147213 270.447617 
L 372.137302 288.364079 
L 376.12739 270.447617 
L 378.122434 306.280541 
L 380.117478 279.405848 
L 382.112522 261.489386 
L 384.107566 288.364079 
L 386.10261 306.280541 
L 388.097654 288.364079 
L 390.092698 288.364079 
L 392.087742 270.447617 
L 396.077831 270.447617 
L 398.072875 288.364079 
L 400.067919 288.364079 
L 402.062963 306.280541 
L 404.058007 261.489386 
L 406.053051 297.32231 
L 412.038183 270.447617 
L 414.033227 270.447617 
L 416.028272 252.531155 
L 418.023316 270.447617 
L 420.01836 261.489386 
L 422.013404 261.489386 
L 424.008448 270.447617 
L 426.003492 261.489386 
L 427.998536 297.32231 
L 429.99358 297.32231 
L 431.988624 261.489386 
L 433.983668 279.405848 
L 435.978712 252.531155 
L 437.973756 270.447617 
L 439.968801 243.572924 
L 441.963845 252.531155 
L 443.958889 243.572924 
L 445.953933 261.489386 
L 447.948977 261.489386 
L 453.934109 234.614693 
L 455.929153 261.489386 
L 457.924197 252.531155 
L 461.914285 270.447617 
L 463.90933 243.572924 
L 465.904374 261.489386 
L 467.899418 243.572924 
L 469.894462 279.405848 
L 471.889506 252.531155 
L 473.88455 288.364079 
L 475.879594 261.489386 
L 477.874638 279.405848 
L 479.869682 270.447617 
L 481.864726 270.447617 
L 483.85977 243.572924 
L 485.854815 270.447617 
L 487.849859 252.531155 
L 489.844903 270.447617 
L 491.839947 270.447617 
L 493.834991 288.364079 
L 495.830035 243.572924 
L 497.825079 225.656462 
L 499.820123 288.364079 
L 501.815167 243.572924 
L 503.810211 270.447617 
L 505.805255 252.531155 
L 507.800299 270.447617 
L 509.795344 261.489386 
L 511.790388 270.447617 
L 513.785432 252.531155 
L 515.780476 243.572924 
L 517.77552 261.489386 
L 519.770564 243.572924 
L 521.765608 252.531155 
L 523.760652 270.447617 
L 525.755696 243.572924 
L 527.75074 252.531155 
L 529.745784 243.572924 
L 531.740829 261.489386 
L 533.735873 252.531155 
L 535.730917 261.489386 
L 537.725961 234.614693 
L 539.721005 261.489386 
L 543.711093 261.489386 
L 545.706137 252.531155 
L 547.701181 252.531155 
L 549.696225 234.614693 
L 551.691269 234.614693 
L 553.686313 270.447617 
L 557.676402 234.614693 
L 559.671446 243.572924 
L 563.661534 225.656462 
L 565.656578 225.656462 
L 567.651622 252.531155 
L 569.646666 234.614693 
L 573.636754 234.614693 
L 577.626843 252.531155 
L 579.621887 252.531155 
L 581.616931 243.572924 
L 583.611975 225.656462 
L 585.607019 252.531155 
L 589.597107 234.614693 
L 591.592151 234.614693 
L 593.587195 252.531155 
L 597.577283 234.614693 
L 599.572327 234.614693 
L 601.567372 243.572924 
L 603.562416 243.572924 
L 605.55746 225.656462 
L 607.552504 234.614693 
L 609.547548 225.656462 
L 611.542592 243.572924 
L 613.537636 234.614693 
L 615.53268 243.572924 
L 617.527724 234.614693 
L 619.522768 234.614693 
L 621.517812 243.572924 
L 623.512856 225.656462 
L 625.507901 234.614693 
L 627.502945 252.531155 
L 629.497989 225.656462 
L 633.488077 225.656462 
L 635.483121 234.614693 
L 637.478165 225.656462 
L 639.473209 225.656462 
L 643.463297 243.572924 
L 645.458341 225.656462 
L 647.453386 234.614693 
L 649.44843 225.656462 
L 653.438518 243.572924 
L 655.433562 225.656462 
L 657.428606 234.614693 
L 659.42365 225.656462 
L 661.418694 225.656462 
L 663.413738 234.614693 
L 665.408782 225.656462 
L 669.39887 225.656462 
L 671.393915 234.614693 
L 673.388959 225.656462 
L 675.384003 234.614693 
L 677.379047 225.656462 
L 679.374091 225.656462 
L 679.374091 225.656462 
" clip-path="url(#p66618e70ae)" style="fill: none; stroke: #2ca02c; stroke-width: 1.5; stroke-linecap: square"/>
   </g>
   <g id="line2d_32">
    <path d="M 82.855909 342.113464 
L 84.850953 333.155233 
L 88.841041 333.155233 
L 90.836085 342.113464 
L 92.83113 333.155233 
L 94.826174 297.32231 
L 96.821218 306.280541 
L 100.811306 306.280541 
L 102.80635 342.113464 
L 104.801394 333.155233 
L 106.796438 315.238771 
L 108.791482 351.071695 
L 110.786526 306.280541 
L 112.78157 351.071695 
L 114.776614 306.280541 
L 116.771659 324.197002 
L 118.766703 315.238771 
L 120.761747 297.32231 
L 122.756791 297.32231 
L 124.751835 315.238771 
L 126.746879 342.113464 
L 128.741923 288.364079 
L 130.736967 315.238771 
L 132.732011 306.280541 
L 134.727055 324.197002 
L 136.722099 315.238771 
L 138.717144 342.113464 
L 140.712188 333.155233 
L 142.707232 351.071695 
L 144.702276 288.364079 
L 148.692364 342.113464 
L 152.682452 342.113464 
L 154.677496 306.280541 
L 156.67254 306.280541 
L 158.667584 333.155233 
L 160.662628 279.405848 
L 162.657673 315.238771 
L 164.652717 306.280541 
L 166.647761 261.489386 
L 168.642805 315.238771 
L 170.637849 324.197002 
L 172.632893 297.32231 
L 174.627937 306.280541 
L 176.622981 351.071695 
L 178.618025 324.197002 
L 180.613069 315.238771 
L 182.608113 324.197002 
L 184.603157 306.280541 
L 186.598202 333.155233 
L 188.593246 324.197002 
L 190.58829 324.197002 
L 192.583334 351.071695 
L 194.578378 315.238771 
L 196.573422 315.238771 
L 198.568466 342.113464 
L 200.56351 333.155233 
L 202.558554 306.280541 
L 204.553598 324.197002 
L 206.548642 306.280541 
L 208.543687 279.405848 
L 210.538731 306.280541 
L 212.533775 270.447617 
L 214.528819 324.197002 
L 218.518907 306.280541 
L 220.513951 270.447617 
L 222.508995 288.364079 
L 224.504039 324.197002 
L 226.499083 252.531155 
L 228.494127 270.447617 
L 230.489171 297.32231 
L 232.484216 279.405848 
L 234.47926 288.364079 
L 236.474304 324.197002 
L 238.469348 324.197002 
L 240.464392 297.32231 
L 242.459436 279.405848 
L 244.45448 297.32231 
L 246.449524 279.405848 
L 248.444568 297.32231 
L 250.439612 324.197002 
L 252.434656 333.155233 
L 254.429701 315.238771 
L 256.424745 288.364079 
L 258.419789 333.155233 
L 260.414833 306.280541 
L 262.409877 351.071695 
L 264.404921 297.32231 
L 266.399965 342.113464 
L 268.395009 279.405848 
L 270.390053 288.364079 
L 272.385097 315.238771 
L 274.380141 315.238771 
L 276.375185 279.405848 
L 278.37023 297.32231 
L 280.365274 279.405848 
L 282.360318 342.113464 
L 284.355362 297.32231 
L 286.350406 315.238771 
L 288.34545 324.197002 
L 290.340494 297.32231 
L 292.335538 315.238771 
L 294.330582 315.238771 
L 296.325626 270.447617 
L 300.315715 306.280541 
L 302.310759 297.32231 
L 304.305803 297.32231 
L 306.300847 279.405848 
L 308.295891 297.32231 
L 310.290935 288.364079 
L 312.285979 315.238771 
L 316.276067 279.405848 
L 318.271111 297.32231 
L 320.266155 306.280541 
L 322.261199 288.364079 
L 324.256244 252.531155 
L 326.251288 279.405848 
L 328.246332 270.447617 
L 330.241376 288.364079 
L 332.23642 297.32231 
L 336.226508 261.489386 
L 338.221552 288.364079 
L 342.21164 270.447617 
L 344.206684 297.32231 
L 346.201728 279.405848 
L 348.196773 306.280541 
L 350.191817 297.32231 
L 352.186861 261.489386 
L 354.181905 297.32231 
L 356.176949 279.405848 
L 358.171993 243.572924 
L 362.162081 333.155233 
L 366.152169 279.405848 
L 368.147213 279.405848 
L 370.142258 306.280541 
L 372.137302 306.280541 
L 374.132346 279.405848 
L 376.12739 279.405848 
L 378.122434 288.364079 
L 380.117478 234.614693 
L 382.112522 270.447617 
L 384.107566 252.531155 
L 386.10261 261.489386 
L 388.097654 243.572924 
L 392.087742 297.32231 
L 394.082787 252.531155 
L 398.072875 288.364079 
L 400.067919 297.32231 
L 402.062963 261.489386 
L 404.058007 297.32231 
L 406.053051 297.32231 
L 408.048095 270.447617 
L 410.043139 261.489386 
L 412.038183 243.572924 
L 414.033227 234.614693 
L 416.028272 279.405848 
L 418.023316 261.489386 
L 422.013404 279.405848 
L 424.008448 243.572924 
L 426.003492 306.280541 
L 427.998536 261.489386 
L 429.99358 288.364079 
L 431.988624 261.489386 
L 433.983668 270.447617 
L 435.978712 252.531155 
L 437.973756 270.447617 
L 439.968801 243.572924 
L 441.963845 270.447617 
L 443.958889 252.531155 
L 445.953933 261.489386 
L 447.948977 288.364079 
L 451.939065 288.364079 
L 453.934109 261.489386 
L 455.929153 261.489386 
L 457.924197 252.531155 
L 459.919241 261.489386 
L 461.914285 279.405848 
L 463.90933 270.447617 
L 465.904374 252.531155 
L 467.899418 270.447617 
L 469.894462 270.447617 
L 471.889506 261.489386 
L 473.88455 279.405848 
L 475.879594 261.489386 
L 477.874638 279.405848 
L 479.869682 252.531155 
L 481.864726 279.405848 
L 483.85977 279.405848 
L 485.854815 252.531155 
L 487.849859 261.489386 
L 489.844903 252.531155 
L 491.839947 252.531155 
L 493.834991 234.614693 
L 495.830035 252.531155 
L 497.825079 243.572924 
L 499.820123 252.531155 
L 501.815167 225.656462 
L 503.810211 288.364079 
L 505.805255 261.489386 
L 507.800299 270.447617 
L 509.795344 225.656462 
L 511.790388 261.489386 
L 513.785432 270.447617 
L 515.780476 261.489386 
L 517.77552 225.656462 
L 519.770564 261.489386 
L 521.765608 234.614693 
L 523.760652 243.572924 
L 525.755696 261.489386 
L 527.75074 261.489386 
L 529.745784 243.572924 
L 531.740829 252.531155 
L 533.735873 234.614693 
L 535.730917 234.614693 
L 537.725961 252.531155 
L 539.721005 261.489386 
L 541.716049 243.572924 
L 543.711093 243.572924 
L 545.706137 261.489386 
L 547.701181 243.572924 
L 551.691269 261.489386 
L 553.686313 279.405848 
L 555.681358 225.656462 
L 557.676402 225.656462 
L 561.66649 279.405848 
L 563.661534 261.489386 
L 565.656578 234.614693 
L 567.651622 243.572924 
L 569.646666 234.614693 
L 571.64171 243.572924 
L 573.636754 270.447617 
L 575.631798 234.614693 
L 577.626843 252.531155 
L 579.621887 243.572924 
L 581.616931 243.572924 
L 583.611975 234.614693 
L 587.602063 234.614693 
L 589.597107 225.656462 
L 591.592151 225.656462 
L 593.587195 270.447617 
L 595.582239 252.531155 
L 597.577283 243.572924 
L 599.572327 243.572924 
L 601.567372 252.531155 
L 603.562416 252.531155 
L 605.55746 234.614693 
L 607.552504 234.614693 
L 609.547548 225.656462 
L 611.542592 243.572924 
L 613.537636 234.614693 
L 615.53268 243.572924 
L 617.527724 234.614693 
L 621.517812 234.614693 
L 623.512856 243.572924 
L 627.502945 225.656462 
L 629.497989 234.614693 
L 631.493033 225.656462 
L 633.488077 225.656462 
L 635.483121 243.572924 
L 637.478165 225.656462 
L 639.473209 234.614693 
L 641.468253 234.614693 
L 643.463297 261.489386 
L 645.458341 225.656462 
L 647.453386 243.572924 
L 649.44843 234.614693 
L 655.433562 234.614693 
L 657.428606 252.531155 
L 659.42365 225.656462 
L 661.418694 234.614693 
L 663.413738 225.656462 
L 665.408782 225.656462 
L 667.403826 234.614693 
L 669.39887 225.656462 
L 671.393915 225.656462 
L 673.388959 243.572924 
L 677.379047 225.656462 
L 679.374091 225.656462 
L 679.374091 225.656462 
" clip-path="url(#p66618e70ae)" style="fill: none; stroke: #d62728; stroke-width: 1.5; stroke-linecap: square"/>
   </g>
   <g id="line2d_33">
    <path d="M 82.855909 221.177346 
L 84.850953 248.052039 
L 86.845997 212.219115 
L 88.841041 230.135577 
L 90.836085 194.302654 
L 92.83113 212.219115 
L 94.826174 239.093808 
L 96.821218 248.052039 
L 98.816262 212.219115 
L 100.811306 203.260885 
L 102.80635 274.926732 
L 104.801394 185.344423 
L 106.796438 257.01027 
L 108.791482 221.177346 
L 110.786526 194.302654 
L 112.78157 221.177346 
L 114.776614 203.260885 
L 116.771659 194.302654 
L 118.766703 239.093808 
L 120.761747 230.135577 
L 122.756791 248.052039 
L 124.751835 230.135577 
L 126.746879 265.968501 
L 128.741923 194.302654 
L 130.736967 239.093808 
L 132.732011 212.219115 
L 134.727055 194.302654 
L 136.722099 221.177346 
L 138.717144 221.177346 
L 140.712188 212.219115 
L 142.707232 265.968501 
L 144.702276 239.093808 
L 146.69732 248.052039 
L 148.692364 194.302654 
L 150.687408 194.302654 
L 152.682452 176.386192 
L 154.677496 239.093808 
L 156.67254 176.386192 
L 158.667584 257.01027 
L 160.662628 203.260885 
L 164.652717 203.260885 
L 166.647761 212.219115 
L 168.642805 194.302654 
L 170.637849 221.177346 
L 174.627937 221.177346 
L 176.622981 194.302654 
L 178.618025 221.177346 
L 180.613069 212.219115 
L 182.608113 194.302654 
L 184.603157 221.177346 
L 186.598202 203.260885 
L 188.593246 176.386192 
L 190.58829 221.177346 
L 192.583334 221.177346 
L 194.578378 212.219115 
L 196.573422 194.302654 
L 198.568466 212.219115 
L 200.56351 194.302654 
L 202.558554 194.302654 
L 204.553598 221.177346 
L 206.548642 176.386192 
L 208.543687 194.302654 
L 210.538731 185.344423 
L 212.533775 212.219115 
L 216.523863 194.302654 
L 220.513951 212.219115 
L 222.508995 230.135577 
L 224.504039 194.302654 
L 226.499083 176.386192 
L 228.494127 203.260885 
L 230.489171 176.386192 
L 232.484216 203.260885 
L 234.47926 212.219115 
L 236.474304 176.386192 
L 238.469348 194.302654 
L 240.464392 194.302654 
L 242.459436 167.427961 
L 244.45448 194.302654 
L 246.449524 212.219115 
L 248.444568 194.302654 
L 250.439612 194.302654 
L 252.434656 230.135577 
L 254.429701 185.344423 
L 256.424745 212.219115 
L 258.419789 212.219115 
L 260.414833 176.386192 
L 262.409877 176.386192 
L 264.404921 185.344423 
L 266.399965 185.344423 
L 268.395009 239.093808 
L 270.390053 203.260885 
L 272.385097 203.260885 
L 274.380141 194.302654 
L 276.375185 230.135577 
L 278.37023 221.177346 
L 282.360318 185.344423 
L 284.355362 176.386192 
L 286.350406 158.46973 
L 288.34545 212.219115 
L 290.340494 221.177346 
L 292.335538 194.302654 
L 294.330582 194.302654 
L 296.325626 176.386192 
L 298.32067 167.427961 
L 300.315715 194.302654 
L 302.310759 185.344423 
L 304.305803 194.302654 
L 306.300847 158.46973 
L 308.295891 149.511499 
L 310.290935 194.302654 
L 312.285979 203.260885 
L 314.281023 185.344423 
L 316.276067 176.386192 
L 318.271111 176.386192 
L 320.266155 149.511499 
L 322.261199 185.344423 
L 324.256244 239.093808 
L 326.251288 203.260885 
L 328.246332 194.302654 
L 330.241376 167.427961 
L 332.23642 221.177346 
L 336.226508 185.344423 
L 338.221552 203.260885 
L 340.216596 176.386192 
L 342.21164 176.386192 
L 344.206684 203.260885 
L 346.201728 167.427961 
L 348.196773 221.177346 
L 350.191817 176.386192 
L 352.186861 176.386192 
L 354.181905 185.344423 
L 356.176949 185.344423 
L 358.171993 158.46973 
L 360.167037 194.302654 
L 362.162081 176.386192 
L 364.157125 194.302654 
L 366.152169 185.344423 
L 370.142258 185.344423 
L 372.137302 176.386192 
L 374.132346 212.219115 
L 376.12739 167.427961 
L 378.122434 185.344423 
L 380.117478 176.386192 
L 382.112522 176.386192 
L 384.107566 167.427961 
L 386.10261 185.344423 
L 388.097654 176.386192 
L 390.092698 185.344423 
L 392.087742 185.344423 
L 394.082787 158.46973 
L 396.077831 185.344423 
L 398.072875 167.427961 
L 400.067919 185.344423 
L 402.062963 140.553268 
L 404.058007 176.386192 
L 406.053051 158.46973 
L 408.048095 167.427961 
L 412.038183 203.260885 
L 414.033227 185.344423 
L 416.028272 185.344423 
L 418.023316 167.427961 
L 420.01836 158.46973 
L 422.013404 176.386192 
L 424.008448 185.344423 
L 426.003492 158.46973 
L 427.998536 194.302654 
L 429.99358 167.427961 
L 431.988624 212.219115 
L 433.983668 194.302654 
L 435.978712 194.302654 
L 437.973756 149.511499 
L 439.968801 149.511499 
L 441.963845 167.427961 
L 443.958889 149.511499 
L 445.953933 140.553268 
L 447.948977 149.511499 
L 449.944021 167.427961 
L 451.939065 158.46973 
L 453.934109 167.427961 
L 455.929153 149.511499 
L 457.924197 194.302654 
L 459.919241 185.344423 
L 461.914285 158.46973 
L 463.90933 158.46973 
L 465.904374 167.427961 
L 467.899418 149.511499 
L 469.894462 149.511499 
L 471.889506 167.427961 
L 473.88455 131.595037 
L 475.879594 131.595037 
L 477.874638 176.386192 
L 479.869682 167.427961 
L 481.864726 194.302654 
L 483.85977 167.427961 
L 485.854815 176.386192 
L 487.849859 140.553268 
L 489.844903 149.511499 
L 491.839947 167.427961 
L 493.834991 149.511499 
L 497.825079 131.595037 
L 501.815167 167.427961 
L 503.810211 158.46973 
L 505.805255 131.595037 
L 507.800299 140.553268 
L 509.795344 158.46973 
L 511.790388 122.636806 
L 515.780476 158.46973 
L 517.77552 131.595037 
L 519.770564 158.46973 
L 521.765608 149.511499 
L 523.760652 122.636806 
L 525.755696 122.636806 
L 527.75074 149.511499 
L 529.745784 158.46973 
L 531.740829 122.636806 
L 533.735873 149.511499 
L 535.730917 140.553268 
L 537.725961 140.553268 
L 539.721005 131.595037 
L 541.716049 167.427961 
L 543.711093 131.595037 
L 545.706137 167.427961 
L 547.701181 131.595037 
L 549.696225 131.595037 
L 551.691269 149.511499 
L 553.686313 131.595037 
L 555.681358 158.46973 
L 559.671446 158.46973 
L 561.66649 140.553268 
L 563.661534 131.595037 
L 565.656578 149.511499 
L 567.651622 140.553268 
L 569.646666 122.636806 
L 571.64171 149.511499 
L 573.636754 149.511499 
L 575.631798 122.636806 
L 577.626843 167.427961 
L 579.621887 131.595037 
L 581.616931 131.595037 
L 583.611975 140.553268 
L 585.607019 158.46973 
L 587.602063 158.46973 
L 593.587195 131.595037 
L 595.582239 140.553268 
L 597.577283 131.595037 
L 599.572327 140.553268 
L 601.567372 131.595037 
L 603.562416 158.46973 
L 605.55746 131.595037 
L 607.552504 122.636806 
L 609.547548 131.595037 
L 611.542592 131.595037 
L 613.537636 122.636806 
L 615.53268 131.595037 
L 617.527724 122.636806 
L 619.522768 131.595037 
L 623.512856 131.595037 
L 625.507901 140.553268 
L 627.502945 122.636806 
L 629.497989 131.595037 
L 633.488077 131.595037 
L 635.483121 140.553268 
L 637.478165 122.636806 
L 639.473209 122.636806 
L 641.468253 131.595037 
L 643.463297 122.636806 
L 647.453386 122.636806 
L 649.44843 140.553268 
L 653.438518 122.636806 
L 655.433562 140.553268 
L 657.428606 122.636806 
L 659.42365 131.595037 
L 661.418694 122.636806 
L 669.39887 122.636806 
L 671.393915 131.595037 
L 673.388959 122.636806 
L 675.384003 131.595037 
L 677.379047 131.595037 
L 679.374091 122.636806 
L 679.374091 122.636806 
" clip-path="url(#p66618e70ae)" style="fill: none; stroke: #9467bd; stroke-width: 1.5; stroke-linecap: square"/>
   </g>
   <g id="line2d_34"/>
   <g id="patch_3">
    <path d="M 53.03 390.04 
L 53.03 25.44 
" style="fill: none; stroke: #000000; stroke-width: 0.8; stroke-linejoin: miter; stroke-linecap: square"/>
   </g>
   <g id="patch_4">
    <path d="M 709.2 390.04 
L 709.2 25.44 
" style="fill: none; stroke: #000000; stroke-width: 0.8; stroke-linejoin: miter; stroke-linecap: square"/>
   </g>
   <g id="patch_5">
    <path d="M 53.03 390.04 
L 709.2 390.04 
" style="fill: none; stroke: #000000; stroke-width: 0.8; stroke-linejoin: miter; stroke-linecap: square"/>
   </g>
   <g id="patch_6">
    <path d="M 53.03 25.44 
L 709.2 25.44 
" style="fill: none; stroke: #000000; stroke-width: 0.8; stroke-linejoin: miter; stroke-linecap: square"/>
   </g>
   <g id="text_17">
    <!-- Average Reward per Episode by Agent -->
    <g transform="translate(265.943125 19.44) scale(0.12 -0.12)">
     <defs>
      <path id="DejaVuSans-62" d="M 3116 1747 
Q 3116 2381 2855 2742 
Q 2594 3103 2138 3103 
Q 1681 3103 1420 2742 
Q 1159 2381 1159 1747 
Q 1159 1113 1420 752 
Q 1681 391 2138 391 
Q 2594 391 2855 752 
Q 3116 1113 3116 1747 
z
M 1159 2969 
Q 1341 3281 1617 3432 
Q 1894 3584 2278 3584 
Q 2916 3584 3314 3078 
Q 3713 2572 3713 1747 
Q 3713 922 3314 415 
Q 2916 -91 2278 -91 
Q 1894 -91 1617 61 
Q 1341 213 1159 525 
L 1159 0 
L 581 0 
L 581 4863 
L 1159 4863 
L 1159 2969 
z
" transform="scale(0.015625)"/>
      <path id="DejaVuSans-79" d="M 2059 -325 
Q 1816 -950 1584 -1140 
Q 1353 -1331 966 -1331 
L 506 -1331 
L 506 -850 
L 844 -850 
Q 1081 -850 1212 -737 
Q 1344 -625 1503 -206 
L 1606 56 
L 191 3500 
L 800 3500 
L 1894 763 
L 2988 3500 
L 3597 3500 
L 2059 -325 
z
" transform="scale(0.015625)"/>
      <path id="DejaVuSans-6e" d="M 3513 2113 
L 3513 0 
L 2938 0 
L 2938 2094 
Q 2938 2591 2744 2837 
Q 2550 3084 2163 3084 
Q 1697 3084 1428 2787 
Q 1159 2491 1159 1978 
L 1159 0 
L 581 0 
L 581 3500 
L 1159 3500 
L 1159 2956 
Q 1366 3272 1645 3428 
Q 1925 3584 2291 3584 
Q 2894 3584 3203 3211 
Q 3513 2838 3513 2113 
z
" transform="scale(0.015625)"/>
      <path id="DejaVuSans-74" d="M 1172 4494 
L 1172 3500 
L 2356 3500 
L 2356 3053 
L 1172 3053 
L 1172 1153 
Q 1172 725 1289 603 
Q 1406 481 1766 481 
L 2356 481 
L 2356 0 
L 1766 0 
Q 1100 0 847 248 
Q 594 497 594 1153 
L 594 3053 
L 172 3053 
L 172 3500 
L 594 3500 
L 594 4494 
L 1172 4494 
z
" transform="scale(0.015625)"/>
     </defs>
     <use xlink:href="#DejaVuSans-41"/>
     <use xlink:href="#DejaVuSans-76" x="62.533203"/>
     <use xlink:href="#DejaVuSans-65" x="121.712891"/>
     <use xlink:href="#DejaVuSans-72" x="183.236328"/>
     <use xlink:href="#DejaVuSans-61" x="224.349609"/>
     <use xlink:href="#DejaVuSans-67" x="285.628906"/>
     <use xlink:href="#DejaVuSans-65" x="349.105469"/>
     <use xlink:href="#DejaVuSans-20" x="410.628906"/>
     <use xlink:href="#DejaVuSans-52" x="442.416016"/>
     <use xlink:href="#DejaVuSans-65" x="507.398438"/>
     <use xlink:href="#DejaVuSans-77" x="568.921875"/>
     <use xlink:href="#DejaVuSans-61" x="650.708984"/>
     <use xlink:href="#DejaVuSans-72" x="711.988281"/>
     <use xlink:href="#DejaVuSans-64" x="751.351562"/>
     <use xlink:href="#DejaVuSans-20" x="814.828125"/>
     <use xlink:href="#DejaVuSans-70" x="846.615234"/>
     <use xlink:href="#DejaVuSans-65" x="910.091797"/>
     <use xlink:href="#DejaVuSans-72" x="971.615234"/>
     <use xlink:href="#DejaVuSans-20" x="1012.728516"/>
     <use xlink:href="#DejaVuSans-45" x="1044.515625"/>
     <use xlink:href="#DejaVuSans-70" x="1107.699219"/>
     <use xlink:href="#DejaVuSans-69" x="1171.175781"/>
     <use xlink:href="#DejaVuSans-73" x="1198.958984"/>
     <use xlink:href="#DejaVuSans-6f" x="1251.058594"/>
     <use xlink:href="#DejaVuSans-64" x="1312.240234"/>
     <use xlink:href="#DejaVuSans-65" x="1375.716797"/>
     <use xlink:href="#DejaVuSans-20" x="1437.240234"/>
     <use xlink:href="#DejaVuSans-62" x="1469.027344"/>
     <use xlink:href="#DejaVuSans-79" x="1532.503906"/>
     <use xlink:href="#DejaVuSans-20" x="1591.683594"/>
     <use xlink:href="#DejaVuSans-41" x="1623.470703"/>
     <use xlink:href="#DejaVuSans-67" x="1691.878906"/>
     <use xlink:href="#DejaVuSans-65" x="1755.355469"/>
     <use xlink:href="#DejaVuSans-6e" x="1816.878906"/>
     <use xlink:href="#DejaVuSans-74" x="1880.257812"/>
    </g>
   </g>
   <g id="legend_1">
    <g id="patch_7">
     <path d="M 60.03 121.50875 
L 224.53625 121.50875 
Q 226.53625 121.50875 226.53625 119.50875 
L 226.53625 32.44 
Q 226.53625 30.44 224.53625 30.44 
L 60.03 30.44 
Q 58.03 30.44 58.03 32.44 
L 58.03 119.50875 
Q 58.03 121.50875 60.03 121.50875 
z
" style="fill: #ffffff; opacity: 0.8; stroke: #cccccc; stroke-linejoin: miter"/>
    </g>
    <g id="line2d_35">
     <path d="M 62.03 38.538437 
L 72.03 38.538437 
L 82.03 38.538437 
" style="fill: none; stroke: #1f77b4; stroke-width: 1.5; stroke-linecap: square"/>
    </g>
    <g id="text_18">
     <!-- solar - Average Reward -->
     <g transform="translate(90.03 42.038437) scale(0.1 -0.1)">
      <defs>
       <path id="DejaVuSans-6c" d="M 603 4863 
L 1178 4863 
L 1178 0 
L 603 0 
L 603 4863 
z
" transform="scale(0.015625)"/>
       <path id="DejaVuSans-2d" d="M 313 2009 
L 1997 2009 
L 1997 1497 
L 313 1497 
L 313 2009 
z
" transform="scale(0.015625)"/>
      </defs>
      <use xlink:href="#DejaVuSans-73"/>
      <use xlink:href="#DejaVuSans-6f" x="52.099609"/>
      <use xlink:href="#DejaVuSans-6c" x="113.28125"/>
      <use xlink:href="#DejaVuSans-61" x="141.064453"/>
      <use xlink:href="#DejaVuSans-72" x="202.34375"/>
      <use xlink:href="#DejaVuSans-20" x="243.457031"/>
      <use xlink:href="#DejaVuSans-2d" x="275.244141"/>
      <use xlink:href="#DejaVuSans-20" x="311.328125"/>
      <use xlink:href="#DejaVuSans-41" x="343.115234"/>
      <use xlink:href="#DejaVuSans-76" x="405.648438"/>
      <use xlink:href="#DejaVuSans-65" x="464.828125"/>
      <use xlink:href="#DejaVuSans-72" x="526.351562"/>
      <use xlink:href="#DejaVuSans-61" x="567.464844"/>
      <use xlink:href="#DejaVuSans-67" x="628.744141"/>
      <use xlink:href="#DejaVuSans-65" x="692.220703"/>
      <use xlink:href="#DejaVuSans-20" x="753.744141"/>
      <use xlink:href="#DejaVuSans-52" x="785.53125"/>
      <use xlink:href="#DejaVuSans-65" x="850.513672"/>
      <use xlink:href="#DejaVuSans-77" x="912.037109"/>
      <use xlink:href="#DejaVuSans-61" x="993.824219"/>
      <use xlink:href="#DejaVuSans-72" x="1055.103516"/>
      <use xlink:href="#DejaVuSans-64" x="1094.466797"/>
     </g>
    </g>
    <g id="line2d_36">
     <path d="M 62.03 53.216563 
L 72.03 53.216563 
L 82.03 53.216563 
" style="fill: none; stroke: #ff7f0e; stroke-width: 1.5; stroke-linecap: square"/>
    </g>
    <g id="text_19">
     <!-- bat - Average Reward -->
     <g transform="translate(90.03 56.716563) scale(0.1 -0.1)">
      <use xlink:href="#DejaVuSans-62"/>
      <use xlink:href="#DejaVuSans-61" x="63.476562"/>
      <use xlink:href="#DejaVuSans-74" x="124.755859"/>
      <use xlink:href="#DejaVuSans-20" x="163.964844"/>
      <use xlink:href="#DejaVuSans-2d" x="195.751953"/>
      <use xlink:href="#DejaVuSans-20" x="231.835938"/>
      <use xlink:href="#DejaVuSans-41" x="263.623047"/>
      <use xlink:href="#DejaVuSans-76" x="326.15625"/>
      <use xlink:href="#DejaVuSans-65" x="385.335938"/>
      <use xlink:href="#DejaVuSans-72" x="446.859375"/>
      <use xlink:href="#DejaVuSans-61" x="487.972656"/>
      <use xlink:href="#DejaVuSans-67" x="549.251953"/>
      <use xlink:href="#DejaVuSans-65" x="612.728516"/>
      <use xlink:href="#DejaVuSans-20" x="674.251953"/>
      <use xlink:href="#DejaVuSans-52" x="706.039062"/>
      <use xlink:href="#DejaVuSans-65" x="771.021484"/>
      <use xlink:href="#DejaVuSans-77" x="832.544922"/>
      <use xlink:href="#DejaVuSans-61" x="914.332031"/>
      <use xlink:href="#DejaVuSans-72" x="975.611328"/>
      <use xlink:href="#DejaVuSans-64" x="1014.974609"/>
     </g>
    </g>
    <g id="line2d_37">
     <path d="M 62.03 67.894687 
L 72.03 67.894687 
L 82.03 67.894687 
" style="fill: none; stroke: #2ca02c; stroke-width: 1.5; stroke-linecap: square"/>
    </g>
    <g id="text_20">
     <!-- grid - Average Reward -->
     <g transform="translate(90.03 71.394687) scale(0.1 -0.1)">
      <use xlink:href="#DejaVuSans-67"/>
      <use xlink:href="#DejaVuSans-72" x="63.476562"/>
      <use xlink:href="#DejaVuSans-69" x="104.589844"/>
      <use xlink:href="#DejaVuSans-64" x="132.373047"/>
      <use xlink:href="#DejaVuSans-20" x="195.849609"/>
      <use xlink:href="#DejaVuSans-2d" x="227.636719"/>
      <use xlink:href="#DejaVuSans-20" x="263.720703"/>
      <use xlink:href="#DejaVuSans-41" x="295.507812"/>
      <use xlink:href="#DejaVuSans-76" x="358.041016"/>
      <use xlink:href="#DejaVuSans-65" x="417.220703"/>
      <use xlink:href="#DejaVuSans-72" x="478.744141"/>
      <use xlink:href="#DejaVuSans-61" x="519.857422"/>
      <use xlink:href="#DejaVuSans-67" x="581.136719"/>
      <use xlink:href="#DejaVuSans-65" x="644.613281"/>
      <use xlink:href="#DejaVuSans-20" x="706.136719"/>
      <use xlink:href="#DejaVuSans-52" x="737.923828"/>
      <use xlink:href="#DejaVuSans-65" x="802.90625"/>
      <use xlink:href="#DejaVuSans-77" x="864.429688"/>
      <use xlink:href="#DejaVuSans-61" x="946.216797"/>
      <use xlink:href="#DejaVuSans-72" x="1007.496094"/>
      <use xlink:href="#DejaVuSans-64" x="1046.859375"/>
     </g>
    </g>
    <g id="line2d_38">
     <path d="M 62.03 82.572812 
L 72.03 82.572812 
L 82.03 82.572812 
" style="fill: none; stroke: #d62728; stroke-width: 1.5; stroke-linecap: square"/>
    </g>
    <g id="text_21">
     <!-- wind - Average Reward -->
     <g transform="translate(90.03 86.072812) scale(0.1 -0.1)">
      <use xlink:href="#DejaVuSans-77"/>
      <use xlink:href="#DejaVuSans-69" x="81.787109"/>
      <use xlink:href="#DejaVuSans-6e" x="109.570312"/>
      <use xlink:href="#DejaVuSans-64" x="172.949219"/>
      <use xlink:href="#DejaVuSans-20" x="236.425781"/>
      <use xlink:href="#DejaVuSans-2d" x="268.212891"/>
      <use xlink:href="#DejaVuSans-20" x="304.296875"/>
      <use xlink:href="#DejaVuSans-41" x="336.083984"/>
      <use xlink:href="#DejaVuSans-76" x="398.617188"/>
      <use xlink:href="#DejaVuSans-65" x="457.796875"/>
      <use xlink:href="#DejaVuSans-72" x="519.320312"/>
      <use xlink:href="#DejaVuSans-61" x="560.433594"/>
      <use xlink:href="#DejaVuSans-67" x="621.712891"/>
      <use xlink:href="#DejaVuSans-65" x="685.189453"/>
      <use xlink:href="#DejaVuSans-20" x="746.712891"/>
      <use xlink:href="#DejaVuSans-52" x="778.5"/>
      <use xlink:href="#DejaVuSans-65" x="843.482422"/>
      <use xlink:href="#DejaVuSans-77" x="905.005859"/>
      <use xlink:href="#DejaVuSans-61" x="986.792969"/>
      <use xlink:href="#DejaVuSans-72" x="1048.072266"/>
      <use xlink:href="#DejaVuSans-64" x="1087.435547"/>
     </g>
    </g>
    <g id="line2d_39">
     <path d="M 62.03 97.250937 
L 72.03 97.250937 
L 82.03 97.250937 
" style="fill: none; stroke: #9467bd; stroke-width: 1.5; stroke-linecap: square"/>
    </g>
    <g id="text_22">
     <!-- demand - Average Reward -->
     <g transform="translate(90.03 100.750937) scale(0.1 -0.1)">
      <defs>
       <path id="DejaVuSans-6d" d="M 3328 2828 
Q 3544 3216 3844 3400 
Q 4144 3584 4550 3584 
Q 5097 3584 5394 3201 
Q 5691 2819 5691 2113 
L 5691 0 
L 5113 0 
L 5113 2094 
Q 5113 2597 4934 2840 
Q 4756 3084 4391 3084 
Q 3944 3084 3684 2787 
Q 3425 2491 3425 1978 
L 3425 0 
L 2847 0 
L 2847 2094 
Q 2847 2600 2669 2842 
Q 2491 3084 2119 3084 
Q 1678 3084 1418 2786 
Q 1159 2488 1159 1978 
L 1159 0 
L 581 0 
L 581 3500 
L 1159 3500 
L 1159 2956 
Q 1356 3278 1631 3431 
Q 1906 3584 2284 3584 
Q 2666 3584 2933 3390 
Q 3200 3197 3328 2828 
z
" transform="scale(0.015625)"/>
      </defs>
      <use xlink:href="#DejaVuSans-64"/>
      <use xlink:href="#DejaVuSans-65" x="63.476562"/>
      <use xlink:href="#DejaVuSans-6d" x="125"/>
      <use xlink:href="#DejaVuSans-61" x="222.412109"/>
      <use xlink:href="#DejaVuSans-6e" x="283.691406"/>
      <use xlink:href="#DejaVuSans-64" x="347.070312"/>
      <use xlink:href="#DejaVuSans-20" x="410.546875"/>
      <use xlink:href="#DejaVuSans-2d" x="442.333984"/>
      <use xlink:href="#DejaVuSans-20" x="478.417969"/>
      <use xlink:href="#DejaVuSans-41" x="510.205078"/>
      <use xlink:href="#DejaVuSans-76" x="572.738281"/>
      <use xlink:href="#DejaVuSans-65" x="631.917969"/>
      <use xlink:href="#DejaVuSans-72" x="693.441406"/>
      <use xlink:href="#DejaVuSans-61" x="734.554688"/>
      <use xlink:href="#DejaVuSans-67" x="795.833984"/>
      <use xlink:href="#DejaVuSans-65" x="859.310547"/>
      <use xlink:href="#DejaVuSans-20" x="920.833984"/>
      <use xlink:href="#DejaVuSans-52" x="952.621094"/>
      <use xlink:href="#DejaVuSans-65" x="1017.603516"/>
      <use xlink:href="#DejaVuSans-77" x="1079.126953"/>
      <use xlink:href="#DejaVuSans-61" x="1160.914062"/>
      <use xlink:href="#DejaVuSans-72" x="1222.193359"/>
      <use xlink:href="#DejaVuSans-64" x="1261.556641"/>
     </g>
    </g>
    <g id="line2d_40">
     <path d="M 62.03 111.929062 
L 72.03 111.929062 
L 82.03 111.929062 
" style="fill: none; stroke: #8c564b; stroke-width: 1.5; stroke-linecap: square"/>
    </g>
    <g id="text_23">
     <!-- nan - Average Reward -->
     <g transform="translate(90.03 115.429062) scale(0.1 -0.1)">
      <use xlink:href="#DejaVuSans-6e"/>
      <use xlink:href="#DejaVuSans-61" x="63.378906"/>
      <use xlink:href="#DejaVuSans-6e" x="124.658203"/>
      <use xlink:href="#DejaVuSans-20" x="188.037109"/>
      <use xlink:href="#DejaVuSans-2d" x="219.824219"/>
      <use xlink:href="#DejaVuSans-20" x="255.908203"/>
      <use xlink:href="#DejaVuSans-41" x="287.695312"/>
      <use xlink:href="#DejaVuSans-76" x="350.228516"/>
      <use xlink:href="#DejaVuSans-65" x="409.408203"/>
      <use xlink:href="#DejaVuSans-72" x="470.931641"/>
      <use xlink:href="#DejaVuSans-61" x="512.044922"/>
      <use xlink:href="#DejaVuSans-67" x="573.324219"/>
      <use xlink:href="#DejaVuSans-65" x="636.800781"/>
      <use xlink:href="#DejaVuSans-20" x="698.324219"/>
      <use xlink:href="#DejaVuSans-52" x="730.111328"/>
      <use xlink:href="#DejaVuSans-65" x="795.09375"/>
      <use xlink:href="#DejaVuSans-77" x="856.617188"/>
      <use xlink:href="#DejaVuSans-61" x="938.404297"/>
      <use xlink:href="#DejaVuSans-72" x="999.683594"/>
      <use xlink:href="#DejaVuSans-64" x="1039.046875"/>
     </g>
    </g>
   </g>
  </g>
 </g>
 <defs>
  <clipPath id="p66618e70ae">
   <rect x="53.03" y="25.44" width="656.17" height="364.6"/>
  </clipPath>
 </defs>
</svg>
