<?xml version="1.0" encoding="utf-8" standalone="no"?>
<!DOCTYPE svg PUBLIC "-//W3C//DTD SVG 1.1//EN"
  "http://www.w3.org/Graphics/SVG/1.1/DTD/svg11.dtd">
<svg xmlns:xlink="http://www.w3.org/1999/xlink" width="720pt" height="432pt" viewBox="0 0 720 432" xmlns="http://www.w3.org/2000/svg" version="1.1">
 <metadata>
  <rdf:RDF xmlns:dc="http://purl.org/dc/elements/1.1/" xmlns:cc="http://creativecommons.org/ns#" xmlns:rdf="http://www.w3.org/1999/02/22-rdf-syntax-ns#">
   <cc:Work>
    <dc:type rdf:resource="http://purl.org/dc/dcmitype/StillImage"/>
    <dc:date>2025-06-05T14:20:11.141642</dc:date>
    <dc:format>image/svg+xml</dc:format>
    <dc:creator>
     <cc:Agent>
      <dc:title>Matplotlib v3.8.4, https://matplotlib.org/</dc:title>
     </cc:Agent>
    </dc:creator>
   </cc:Work>
  </rdf:RDF>
 </metadata>
 <defs>
  <style type="text/css">*{stroke-linejoin: round; stroke-linecap: butt}</style>
 </defs>
 <g id="figure_1">
  <g id="patch_1">
   <path d="M 0 432 
L 720 432 
L 720 0 
L 0 0 
z
" style="fill: #ffffff"/>
  </g>
  <g id="axes_1">
   <g id="patch_2">
    <path d="M 53.03 390.04 
L 709.2 390.04 
L 709.2 25.44 
L 53.03 25.44 
z
" style="fill: #ffffff"/>
   </g>
   <g id="matplotlib.axis_1">
    <g id="xtick_1">
     <g id="line2d_1">
      <path d="M 82.855909 390.04 
L 82.855909 25.44 
" clip-path="url(#p7573440f22)" style="fill: none; stroke: #b0b0b0; stroke-width: 0.8; stroke-linecap: square"/>
     </g>
     <g id="line2d_2">
      <defs>
       <path id="m6606977ab0" d="M 0 0 
L 0 3.5 
" style="stroke: #000000; stroke-width: 0.8"/>
      </defs>
      <g>
       <use xlink:href="#m6606977ab0" x="82.855909" y="390.04" style="stroke: #000000; stroke-width: 0.8"/>
      </g>
     </g>
     <g id="text_1">
      <!-- 0 -->
      <g transform="translate(79.674659 404.638438) scale(0.1 -0.1)">
       <defs>
        <path id="DejaVuSans-30" d="M 2034 4250 
Q 1547 4250 1301 3770 
Q 1056 3291 1056 2328 
Q 1056 1369 1301 889 
Q 1547 409 2034 409 
Q 2525 409 2770 889 
Q 3016 1369 3016 2328 
Q 3016 3291 2770 3770 
Q 2525 4250 2034 4250 
z
M 2034 4750 
Q 2819 4750 3233 4129 
Q 3647 3509 3647 2328 
Q 3647 1150 3233 529 
Q 2819 -91 2034 -91 
Q 1250 -91 836 529 
Q 422 1150 422 2328 
Q 422 3509 836 4129 
Q 1250 4750 2034 4750 
z
" transform="scale(0.015625)"/>
       </defs>
       <use xlink:href="#DejaVuSans-30"/>
      </g>
     </g>
    </g>
    <g id="xtick_2">
     <g id="line2d_3">
      <path d="M 215.710738 390.04 
L 215.710738 25.44 
" clip-path="url(#p7573440f22)" style="fill: none; stroke: #b0b0b0; stroke-width: 0.8; stroke-linecap: square"/>
     </g>
     <g id="line2d_4">
      <g>
       <use xlink:href="#m6606977ab0" x="215.710738" y="390.04" style="stroke: #000000; stroke-width: 0.8"/>
      </g>
     </g>
     <g id="text_2">
      <!-- 100 -->
      <g transform="translate(206.166988 404.638438) scale(0.1 -0.1)">
       <defs>
        <path id="DejaVuSans-31" d="M 794 531 
L 1825 531 
L 1825 4091 
L 703 3866 
L 703 4441 
L 1819 4666 
L 2450 4666 
L 2450 531 
L 3481 531 
L 3481 0 
L 794 0 
L 794 531 
z
" transform="scale(0.015625)"/>
       </defs>
       <use xlink:href="#DejaVuSans-31"/>
       <use xlink:href="#DejaVuSans-30" x="63.623047"/>
       <use xlink:href="#DejaVuSans-30" x="127.246094"/>
      </g>
     </g>
    </g>
    <g id="xtick_3">
     <g id="line2d_5">
      <path d="M 348.565567 390.04 
L 348.565567 25.44 
" clip-path="url(#p7573440f22)" style="fill: none; stroke: #b0b0b0; stroke-width: 0.8; stroke-linecap: square"/>
     </g>
     <g id="line2d_6">
      <g>
       <use xlink:href="#m6606977ab0" x="348.565567" y="390.04" style="stroke: #000000; stroke-width: 0.8"/>
      </g>
     </g>
     <g id="text_3">
      <!-- 200 -->
      <g transform="translate(339.021817 404.638438) scale(0.1 -0.1)">
       <defs>
        <path id="DejaVuSans-32" d="M 1228 531 
L 3431 531 
L 3431 0 
L 469 0 
L 469 531 
Q 828 903 1448 1529 
Q 2069 2156 2228 2338 
Q 2531 2678 2651 2914 
Q 2772 3150 2772 3378 
Q 2772 3750 2511 3984 
Q 2250 4219 1831 4219 
Q 1534 4219 1204 4116 
Q 875 4013 500 3803 
L 500 4441 
Q 881 4594 1212 4672 
Q 1544 4750 1819 4750 
Q 2544 4750 2975 4387 
Q 3406 4025 3406 3419 
Q 3406 3131 3298 2873 
Q 3191 2616 2906 2266 
Q 2828 2175 2409 1742 
Q 1991 1309 1228 531 
z
" transform="scale(0.015625)"/>
       </defs>
       <use xlink:href="#DejaVuSans-32"/>
       <use xlink:href="#DejaVuSans-30" x="63.623047"/>
       <use xlink:href="#DejaVuSans-30" x="127.246094"/>
      </g>
     </g>
    </g>
    <g id="xtick_4">
     <g id="line2d_7">
      <path d="M 481.420396 390.04 
L 481.420396 25.44 
" clip-path="url(#p7573440f22)" style="fill: none; stroke: #b0b0b0; stroke-width: 0.8; stroke-linecap: square"/>
     </g>
     <g id="line2d_8">
      <g>
       <use xlink:href="#m6606977ab0" x="481.420396" y="390.04" style="stroke: #000000; stroke-width: 0.8"/>
      </g>
     </g>
     <g id="text_4">
      <!-- 300 -->
      <g transform="translate(471.876646 404.638438) scale(0.1 -0.1)">
       <defs>
        <path id="DejaVuSans-33" d="M 2597 2516 
Q 3050 2419 3304 2112 
Q 3559 1806 3559 1356 
Q 3559 666 3084 287 
Q 2609 -91 1734 -91 
Q 1441 -91 1130 -33 
Q 819 25 488 141 
L 488 750 
Q 750 597 1062 519 
Q 1375 441 1716 441 
Q 2309 441 2620 675 
Q 2931 909 2931 1356 
Q 2931 1769 2642 2001 
Q 2353 2234 1838 2234 
L 1294 2234 
L 1294 2753 
L 1863 2753 
Q 2328 2753 2575 2939 
Q 2822 3125 2822 3475 
Q 2822 3834 2567 4026 
Q 2313 4219 1838 4219 
Q 1578 4219 1281 4162 
Q 984 4106 628 3988 
L 628 4550 
Q 988 4650 1302 4700 
Q 1616 4750 1894 4750 
Q 2613 4750 3031 4423 
Q 3450 4097 3450 3541 
Q 3450 3153 3228 2886 
Q 3006 2619 2597 2516 
z
" transform="scale(0.015625)"/>
       </defs>
       <use xlink:href="#DejaVuSans-33"/>
       <use xlink:href="#DejaVuSans-30" x="63.623047"/>
       <use xlink:href="#DejaVuSans-30" x="127.246094"/>
      </g>
     </g>
    </g>
    <g id="xtick_5">
     <g id="line2d_9">
      <path d="M 614.275225 390.04 
L 614.275225 25.44 
" clip-path="url(#p7573440f22)" style="fill: none; stroke: #b0b0b0; stroke-width: 0.8; stroke-linecap: square"/>
     </g>
     <g id="line2d_10">
      <g>
       <use xlink:href="#m6606977ab0" x="614.275225" y="390.04" style="stroke: #000000; stroke-width: 0.8"/>
      </g>
     </g>
     <g id="text_5">
      <!-- 400 -->
      <g transform="translate(604.731475 404.638438) scale(0.1 -0.1)">
       <defs>
        <path id="DejaVuSans-34" d="M 2419 4116 
L 825 1625 
L 2419 1625 
L 2419 4116 
z
M 2253 4666 
L 3047 4666 
L 3047 1625 
L 3713 1625 
L 3713 1100 
L 3047 1100 
L 3047 0 
L 2419 0 
L 2419 1100 
L 313 1100 
L 313 1709 
L 2253 4666 
z
" transform="scale(0.015625)"/>
       </defs>
       <use xlink:href="#DejaVuSans-34"/>
       <use xlink:href="#DejaVuSans-30" x="63.623047"/>
       <use xlink:href="#DejaVuSans-30" x="127.246094"/>
      </g>
     </g>
    </g>
    <g id="text_6">
     <!-- Episode -->
     <g transform="translate(361.4775 418.316562) scale(0.1 -0.1)">
      <defs>
       <path id="DejaVuSans-45" d="M 628 4666 
L 3578 4666 
L 3578 4134 
L 1259 4134 
L 1259 2753 
L 3481 2753 
L 3481 2222 
L 1259 2222 
L 1259 531 
L 3634 531 
L 3634 0 
L 628 0 
L 628 4666 
z
" transform="scale(0.015625)"/>
       <path id="DejaVuSans-70" d="M 1159 525 
L 1159 -1331 
L 581 -1331 
L 581 3500 
L 1159 3500 
L 1159 2969 
Q 1341 3281 1617 3432 
Q 1894 3584 2278 3584 
Q 2916 3584 3314 3078 
Q 3713 2572 3713 1747 
Q 3713 922 3314 415 
Q 2916 -91 2278 -91 
Q 1894 -91 1617 61 
Q 1341 213 1159 525 
z
M 3116 1747 
Q 3116 2381 2855 2742 
Q 2594 3103 2138 3103 
Q 1681 3103 1420 2742 
Q 1159 2381 1159 1747 
Q 1159 1113 1420 752 
Q 1681 391 2138 391 
Q 2594 391 2855 752 
Q 3116 1113 3116 1747 
z
" transform="scale(0.015625)"/>
       <path id="DejaVuSans-69" d="M 603 3500 
L 1178 3500 
L 1178 0 
L 603 0 
L 603 3500 
z
M 603 4863 
L 1178 4863 
L 1178 4134 
L 603 4134 
L 603 4863 
z
" transform="scale(0.015625)"/>
       <path id="DejaVuSans-73" d="M 2834 3397 
L 2834 2853 
Q 2591 2978 2328 3040 
Q 2066 3103 1784 3103 
Q 1356 3103 1142 2972 
Q 928 2841 928 2578 
Q 928 2378 1081 2264 
Q 1234 2150 1697 2047 
L 1894 2003 
Q 2506 1872 2764 1633 
Q 3022 1394 3022 966 
Q 3022 478 2636 193 
Q 2250 -91 1575 -91 
Q 1294 -91 989 -36 
Q 684 19 347 128 
L 347 722 
Q 666 556 975 473 
Q 1284 391 1588 391 
Q 1994 391 2212 530 
Q 2431 669 2431 922 
Q 2431 1156 2273 1281 
Q 2116 1406 1581 1522 
L 1381 1569 
Q 847 1681 609 1914 
Q 372 2147 372 2553 
Q 372 3047 722 3315 
Q 1072 3584 1716 3584 
Q 2034 3584 2315 3537 
Q 2597 3491 2834 3397 
z
" transform="scale(0.015625)"/>
       <path id="DejaVuSans-6f" d="M 1959 3097 
Q 1497 3097 1228 2736 
Q 959 2375 959 1747 
Q 959 1119 1226 758 
Q 1494 397 1959 397 
Q 2419 397 2687 759 
Q 2956 1122 2956 1747 
Q 2956 2369 2687 2733 
Q 2419 3097 1959 3097 
z
M 1959 3584 
Q 2709 3584 3137 3096 
Q 3566 2609 3566 1747 
Q 3566 888 3137 398 
Q 2709 -91 1959 -91 
Q 1206 -91 779 398 
Q 353 888 353 1747 
Q 353 2609 779 3096 
Q 1206 3584 1959 3584 
z
" transform="scale(0.015625)"/>
       <path id="DejaVuSans-64" d="M 2906 2969 
L 2906 4863 
L 3481 4863 
L 3481 0 
L 2906 0 
L 2906 525 
Q 2725 213 2448 61 
Q 2172 -91 1784 -91 
Q 1150 -91 751 415 
Q 353 922 353 1747 
Q 353 2572 751 3078 
Q 1150 3584 1784 3584 
Q 2172 3584 2448 3432 
Q 2725 3281 2906 2969 
z
M 947 1747 
Q 947 1113 1208 752 
Q 1469 391 1925 391 
Q 2381 391 2643 752 
Q 2906 1113 2906 1747 
Q 2906 2381 2643 2742 
Q 2381 3103 1925 3103 
Q 1469 3103 1208 2742 
Q 947 2381 947 1747 
z
" transform="scale(0.015625)"/>
       <path id="DejaVuSans-65" d="M 3597 1894 
L 3597 1613 
L 953 1613 
Q 991 1019 1311 708 
Q 1631 397 2203 397 
Q 2534 397 2845 478 
Q 3156 559 3463 722 
L 3463 178 
Q 3153 47 2828 -22 
Q 2503 -91 2169 -91 
Q 1331 -91 842 396 
Q 353 884 353 1716 
Q 353 2575 817 3079 
Q 1281 3584 2069 3584 
Q 2775 3584 3186 3129 
Q 3597 2675 3597 1894 
z
M 3022 2063 
Q 3016 2534 2758 2815 
Q 2500 3097 2075 3097 
Q 1594 3097 1305 2825 
Q 1016 2553 972 2059 
L 3022 2063 
z
" transform="scale(0.015625)"/>
      </defs>
      <use xlink:href="#DejaVuSans-45"/>
      <use xlink:href="#DejaVuSans-70" x="63.183594"/>
      <use xlink:href="#DejaVuSans-69" x="126.660156"/>
      <use xlink:href="#DejaVuSans-73" x="154.443359"/>
      <use xlink:href="#DejaVuSans-6f" x="206.542969"/>
      <use xlink:href="#DejaVuSans-64" x="267.724609"/>
      <use xlink:href="#DejaVuSans-65" x="331.201172"/>
     </g>
    </g>
   </g>
   <g id="matplotlib.axis_2">
    <g id="ytick_1">
     <g id="line2d_11">
      <path d="M 53.03 389.358929 
L 709.2 389.358929 
" clip-path="url(#p7573440f22)" style="fill: none; stroke: #b0b0b0; stroke-width: 0.8; stroke-linecap: square"/>
     </g>
     <g id="line2d_12">
      <defs>
       <path id="m27aa574f80" d="M 0 0 
L -3.5 0 
" style="stroke: #000000; stroke-width: 0.8"/>
      </defs>
      <g>
       <use xlink:href="#m27aa574f80" x="53.03" y="389.358929" style="stroke: #000000; stroke-width: 0.8"/>
      </g>
     </g>
     <g id="text_7">
      <!-- −15 -->
      <g transform="translate(24.925313 393.158148) scale(0.1 -0.1)">
       <defs>
        <path id="DejaVuSans-2212" d="M 678 2272 
L 4684 2272 
L 4684 1741 
L 678 1741 
L 678 2272 
z
" transform="scale(0.015625)"/>
        <path id="DejaVuSans-35" d="M 691 4666 
L 3169 4666 
L 3169 4134 
L 1269 4134 
L 1269 2991 
Q 1406 3038 1543 3061 
Q 1681 3084 1819 3084 
Q 2600 3084 3056 2656 
Q 3513 2228 3513 1497 
Q 3513 744 3044 326 
Q 2575 -91 1722 -91 
Q 1428 -91 1123 -41 
Q 819 9 494 109 
L 494 744 
Q 775 591 1075 516 
Q 1375 441 1709 441 
Q 2250 441 2565 725 
Q 2881 1009 2881 1497 
Q 2881 1984 2565 2268 
Q 2250 2553 1709 2553 
Q 1456 2553 1204 2497 
Q 953 2441 691 2322 
L 691 4666 
z
" transform="scale(0.015625)"/>
       </defs>
       <use xlink:href="#DejaVuSans-2212"/>
       <use xlink:href="#DejaVuSans-31" x="83.789062"/>
       <use xlink:href="#DejaVuSans-35" x="147.412109"/>
      </g>
     </g>
    </g>
    <g id="ytick_2">
     <g id="line2d_13">
      <path d="M 53.03 337.143487 
L 709.2 337.143487 
" clip-path="url(#p7573440f22)" style="fill: none; stroke: #b0b0b0; stroke-width: 0.8; stroke-linecap: square"/>
     </g>
     <g id="line2d_14">
      <g>
       <use xlink:href="#m27aa574f80" x="53.03" y="337.143487" style="stroke: #000000; stroke-width: 0.8"/>
      </g>
     </g>
     <g id="text_8">
      <!-- −10 -->
      <g transform="translate(24.925313 340.942706) scale(0.1 -0.1)">
       <use xlink:href="#DejaVuSans-2212"/>
       <use xlink:href="#DejaVuSans-31" x="83.789062"/>
       <use xlink:href="#DejaVuSans-30" x="147.412109"/>
      </g>
     </g>
    </g>
    <g id="ytick_3">
     <g id="line2d_15">
      <path d="M 53.03 284.928045 
L 709.2 284.928045 
" clip-path="url(#p7573440f22)" style="fill: none; stroke: #b0b0b0; stroke-width: 0.8; stroke-linecap: square"/>
     </g>
     <g id="line2d_16">
      <g>
       <use xlink:href="#m27aa574f80" x="53.03" y="284.928045" style="stroke: #000000; stroke-width: 0.8"/>
      </g>
     </g>
     <g id="text_9">
      <!-- −5 -->
      <g transform="translate(31.287813 288.727264) scale(0.1 -0.1)">
       <use xlink:href="#DejaVuSans-2212"/>
       <use xlink:href="#DejaVuSans-35" x="83.789062"/>
      </g>
     </g>
    </g>
    <g id="ytick_4">
     <g id="line2d_17">
      <path d="M 53.03 232.712603 
L 709.2 232.712603 
" clip-path="url(#p7573440f22)" style="fill: none; stroke: #b0b0b0; stroke-width: 0.8; stroke-linecap: square"/>
     </g>
     <g id="line2d_18">
      <g>
       <use xlink:href="#m27aa574f80" x="53.03" y="232.712603" style="stroke: #000000; stroke-width: 0.8"/>
      </g>
     </g>
     <g id="text_10">
      <!-- 0 -->
      <g transform="translate(39.6675 236.511821) scale(0.1 -0.1)">
       <use xlink:href="#DejaVuSans-30"/>
      </g>
     </g>
    </g>
    <g id="ytick_5">
     <g id="line2d_19">
      <path d="M 53.03 180.497161 
L 709.2 180.497161 
" clip-path="url(#p7573440f22)" style="fill: none; stroke: #b0b0b0; stroke-width: 0.8; stroke-linecap: square"/>
     </g>
     <g id="line2d_20">
      <g>
       <use xlink:href="#m27aa574f80" x="53.03" y="180.497161" style="stroke: #000000; stroke-width: 0.8"/>
      </g>
     </g>
     <g id="text_11">
      <!-- 5 -->
      <g transform="translate(39.6675 184.296379) scale(0.1 -0.1)">
       <use xlink:href="#DejaVuSans-35"/>
      </g>
     </g>
    </g>
    <g id="ytick_6">
     <g id="line2d_21">
      <path d="M 53.03 128.281719 
L 709.2 128.281719 
" clip-path="url(#p7573440f22)" style="fill: none; stroke: #b0b0b0; stroke-width: 0.8; stroke-linecap: square"/>
     </g>
     <g id="line2d_22">
      <g>
       <use xlink:href="#m27aa574f80" x="53.03" y="128.281719" style="stroke: #000000; stroke-width: 0.8"/>
      </g>
     </g>
     <g id="text_12">
      <!-- 10 -->
      <g transform="translate(33.305 132.080937) scale(0.1 -0.1)">
       <use xlink:href="#DejaVuSans-31"/>
       <use xlink:href="#DejaVuSans-30" x="63.623047"/>
      </g>
     </g>
    </g>
    <g id="ytick_7">
     <g id="line2d_23">
      <path d="M 53.03 76.066276 
L 709.2 76.066276 
" clip-path="url(#p7573440f22)" style="fill: none; stroke: #b0b0b0; stroke-width: 0.8; stroke-linecap: square"/>
     </g>
     <g id="line2d_24">
      <g>
       <use xlink:href="#m27aa574f80" x="53.03" y="76.066276" style="stroke: #000000; stroke-width: 0.8"/>
      </g>
     </g>
     <g id="text_13">
      <!-- 15 -->
      <g transform="translate(33.305 79.865495) scale(0.1 -0.1)">
       <use xlink:href="#DejaVuSans-31"/>
       <use xlink:href="#DejaVuSans-35" x="63.623047"/>
      </g>
     </g>
    </g>
    <g id="text_14">
     <!-- Average Reward -->
     <g transform="translate(18.845625 248.482969) rotate(-90) scale(0.1 -0.1)">
      <defs>
       <path id="DejaVuSans-41" d="M 2188 4044 
L 1331 1722 
L 3047 1722 
L 2188 4044 
z
M 1831 4666 
L 2547 4666 
L 4325 0 
L 3669 0 
L 3244 1197 
L 1141 1197 
L 716 0 
L 50 0 
L 1831 4666 
z
" transform="scale(0.015625)"/>
       <path id="DejaVuSans-76" d="M 191 3500 
L 800 3500 
L 1894 563 
L 2988 3500 
L 3597 3500 
L 2284 0 
L 1503 0 
L 191 3500 
z
" transform="scale(0.015625)"/>
       <path id="DejaVuSans-72" d="M 2631 2963 
Q 2534 3019 2420 3045 
Q 2306 3072 2169 3072 
Q 1681 3072 1420 2755 
Q 1159 2438 1159 1844 
L 1159 0 
L 581 0 
L 581 3500 
L 1159 3500 
L 1159 2956 
Q 1341 3275 1631 3429 
Q 1922 3584 2338 3584 
Q 2397 3584 2469 3576 
Q 2541 3569 2628 3553 
L 2631 2963 
z
" transform="scale(0.015625)"/>
       <path id="DejaVuSans-61" d="M 2194 1759 
Q 1497 1759 1228 1600 
Q 959 1441 959 1056 
Q 959 750 1161 570 
Q 1363 391 1709 391 
Q 2188 391 2477 730 
Q 2766 1069 2766 1631 
L 2766 1759 
L 2194 1759 
z
M 3341 1997 
L 3341 0 
L 2766 0 
L 2766 531 
Q 2569 213 2275 61 
Q 1981 -91 1556 -91 
Q 1019 -91 701 211 
Q 384 513 384 1019 
Q 384 1609 779 1909 
Q 1175 2209 1959 2209 
L 2766 2209 
L 2766 2266 
Q 2766 2663 2505 2880 
Q 2244 3097 1772 3097 
Q 1472 3097 1187 3025 
Q 903 2953 641 2809 
L 641 3341 
Q 956 3463 1253 3523 
Q 1550 3584 1831 3584 
Q 2591 3584 2966 3190 
Q 3341 2797 3341 1997 
z
" transform="scale(0.015625)"/>
       <path id="DejaVuSans-67" d="M 2906 1791 
Q 2906 2416 2648 2759 
Q 2391 3103 1925 3103 
Q 1463 3103 1205 2759 
Q 947 2416 947 1791 
Q 947 1169 1205 825 
Q 1463 481 1925 481 
Q 2391 481 2648 825 
Q 2906 1169 2906 1791 
z
M 3481 434 
Q 3481 -459 3084 -895 
Q 2688 -1331 1869 -1331 
Q 1566 -1331 1297 -1286 
Q 1028 -1241 775 -1147 
L 775 -588 
Q 1028 -725 1275 -790 
Q 1522 -856 1778 -856 
Q 2344 -856 2625 -561 
Q 2906 -266 2906 331 
L 2906 616 
Q 2728 306 2450 153 
Q 2172 0 1784 0 
Q 1141 0 747 490 
Q 353 981 353 1791 
Q 353 2603 747 3093 
Q 1141 3584 1784 3584 
Q 2172 3584 2450 3431 
Q 2728 3278 2906 2969 
L 2906 3500 
L 3481 3500 
L 3481 434 
z
" transform="scale(0.015625)"/>
       <path id="DejaVuSans-20" transform="scale(0.015625)"/>
       <path id="DejaVuSans-52" d="M 2841 2188 
Q 3044 2119 3236 1894 
Q 3428 1669 3622 1275 
L 4263 0 
L 3584 0 
L 2988 1197 
Q 2756 1666 2539 1819 
Q 2322 1972 1947 1972 
L 1259 1972 
L 1259 0 
L 628 0 
L 628 4666 
L 2053 4666 
Q 2853 4666 3247 4331 
Q 3641 3997 3641 3322 
Q 3641 2881 3436 2590 
Q 3231 2300 2841 2188 
z
M 1259 4147 
L 1259 2491 
L 2053 2491 
Q 2509 2491 2742 2702 
Q 2975 2913 2975 3322 
Q 2975 3731 2742 3939 
Q 2509 4147 2053 4147 
L 1259 4147 
z
" transform="scale(0.015625)"/>
       <path id="DejaVuSans-77" d="M 269 3500 
L 844 3500 
L 1563 769 
L 2278 3500 
L 2956 3500 
L 3675 769 
L 4391 3500 
L 4966 3500 
L 4050 0 
L 3372 0 
L 2619 2869 
L 1863 0 
L 1184 0 
L 269 3500 
z
" transform="scale(0.015625)"/>
      </defs>
      <use xlink:href="#DejaVuSans-41"/>
      <use xlink:href="#DejaVuSans-76" x="62.533203"/>
      <use xlink:href="#DejaVuSans-65" x="121.712891"/>
      <use xlink:href="#DejaVuSans-72" x="183.236328"/>
      <use xlink:href="#DejaVuSans-61" x="224.349609"/>
      <use xlink:href="#DejaVuSans-67" x="285.628906"/>
      <use xlink:href="#DejaVuSans-65" x="349.105469"/>
      <use xlink:href="#DejaVuSans-20" x="410.628906"/>
      <use xlink:href="#DejaVuSans-52" x="442.416016"/>
      <use xlink:href="#DejaVuSans-65" x="507.398438"/>
      <use xlink:href="#DejaVuSans-77" x="568.921875"/>
      <use xlink:href="#DejaVuSans-61" x="650.708984"/>
      <use xlink:href="#DejaVuSans-72" x="711.988281"/>
      <use xlink:href="#DejaVuSans-64" x="751.351562"/>
     </g>
    </g>
   </g>
   <g id="line2d_25">
    <path d="M 82.855909 291.738755 
L 84.184457 246.334022 
L 85.513006 291.738755 
L 86.841554 300.819701 
L 88.170102 259.955442 
L 89.498651 305.360174 
L 90.827199 346.224433 
L 92.155747 328.06254 
L 93.484295 237.253076 
L 94.812844 341.68396 
L 96.141392 300.819701 
L 97.46994 269.036389 
L 98.798489 264.495915 
L 100.127037 255.414969 
L 101.455585 273.576862 
L 102.784133 228.17213 
L 104.112682 323.522067 
L 105.44123 332.603014 
L 106.769778 300.819701 
L 108.098327 246.334022 
L 109.426875 359.845853 
L 110.755423 287.198281 
L 112.083971 332.603014 
L 113.41252 287.198281 
L 114.741068 282.657808 
L 116.069616 255.414969 
L 118.726713 355.30538 
L 120.055261 255.414969 
L 121.383809 278.117335 
L 122.712358 255.414969 
L 124.040906 228.17213 
L 126.698003 264.495915 
L 128.026551 259.955442 
L 129.355099 305.360174 
L 130.683647 255.414969 
L 132.012196 269.036389 
L 133.340744 314.441121 
L 135.997841 241.793549 
L 137.326389 282.657808 
L 138.654937 264.495915 
L 139.983486 250.874496 
L 141.312034 282.657808 
L 142.640582 291.738755 
L 143.96913 341.68396 
L 145.297679 273.576862 
L 146.626227 259.955442 
L 147.954775 278.117335 
L 149.283324 328.06254 
L 150.611872 237.253076 
L 151.94042 305.360174 
L 153.268968 255.414969 
L 154.597517 264.495915 
L 155.926065 259.955442 
L 157.254613 259.955442 
L 158.583162 309.900648 
L 159.91171 269.036389 
L 161.240258 296.279228 
L 162.568806 314.441121 
L 163.897355 282.657808 
L 165.225903 232.712603 
L 166.554451 305.360174 
L 167.883 259.955442 
L 169.211548 341.68396 
L 170.540096 232.712603 
L 171.868644 228.17213 
L 173.197193 250.874496 
L 174.525741 328.06254 
L 175.854289 264.495915 
L 177.182838 250.874496 
L 178.511386 273.576862 
L 179.839934 300.819701 
L 181.168482 314.441121 
L 182.497031 237.253076 
L 183.825579 282.657808 
L 185.154127 309.900648 
L 186.482676 296.279228 
L 187.811224 273.576862 
L 189.139772 264.495915 
L 190.468321 250.874496 
L 191.796869 269.036389 
L 193.125417 282.657808 
L 194.453965 278.117335 
L 195.782514 241.793549 
L 197.111062 259.955442 
L 198.43961 255.414969 
L 199.768159 287.198281 
L 201.096707 205.469763 
L 202.425255 278.117335 
L 203.753803 282.657808 
L 205.082352 237.253076 
L 206.4109 250.874496 
L 207.739448 250.874496 
L 209.067997 228.17213 
L 210.396545 282.657808 
L 211.725093 314.441121 
L 213.053641 309.900648 
L 214.38219 273.576862 
L 215.710738 259.955442 
L 217.039286 255.414969 
L 218.367835 210.010237 
L 219.696383 296.279228 
L 221.024931 232.712603 
L 222.353479 328.06254 
L 223.682028 273.576862 
L 225.010576 237.253076 
L 226.339124 273.576862 
L 227.667673 246.334022 
L 228.996221 250.874496 
L 230.324769 214.55071 
L 231.653317 228.17213 
L 232.981866 246.334022 
L 234.310414 309.900648 
L 235.638962 259.955442 
L 236.967511 259.955442 
L 238.296059 187.30787 
L 240.953155 305.360174 
L 242.281704 273.576862 
L 243.610252 182.767397 
L 244.9388 196.388817 
L 246.267349 323.522067 
L 247.595897 237.253076 
L 248.924445 305.360174 
L 250.252994 250.874496 
L 251.581542 296.279228 
L 252.91009 219.091183 
L 254.238638 187.30787 
L 255.567187 219.091183 
L 256.895735 241.793549 
L 258.224283 309.900648 
L 259.552832 305.360174 
L 260.88138 214.55071 
L 262.209928 291.738755 
L 263.538476 287.198281 
L 264.867025 264.495915 
L 266.195573 255.414969 
L 267.524121 287.198281 
L 268.85267 259.955442 
L 270.181218 264.495915 
L 271.509766 282.657808 
L 272.838314 241.793549 
L 274.166863 264.495915 
L 275.495411 210.010237 
L 276.823959 187.30787 
L 278.152508 264.495915 
L 279.481056 291.738755 
L 280.809604 196.388817 
L 282.138152 318.981594 
L 283.466701 282.657808 
L 284.795249 273.576862 
L 286.123797 228.17213 
L 287.452346 241.793549 
L 290.109442 259.955442 
L 291.43799 228.17213 
L 292.766539 232.712603 
L 294.095087 259.955442 
L 295.423635 200.92929 
L 296.752184 241.793549 
L 298.080732 228.17213 
L 299.40928 305.360174 
L 300.737829 282.657808 
L 302.066377 264.495915 
L 303.394925 255.414969 
L 304.723473 219.091183 
L 306.052022 205.469763 
L 307.38057 282.657808 
L 308.709118 318.981594 
L 310.037667 214.55071 
L 311.366215 232.712603 
L 312.694763 246.334022 
L 314.023311 219.091183 
L 315.35186 223.631656 
L 316.680408 219.091183 
L 318.008956 255.414969 
L 319.337505 264.495915 
L 320.666053 269.036389 
L 321.994601 219.091183 
L 324.651698 323.522067 
L 325.980246 246.334022 
L 327.308794 264.495915 
L 328.637343 210.010237 
L 329.965891 219.091183 
L 331.294439 246.334022 
L 332.622987 246.334022 
L 333.951536 255.414969 
L 335.280084 210.010237 
L 336.608632 246.334022 
L 339.265729 255.414969 
L 340.594277 228.17213 
L 341.922825 287.198281 
L 343.251374 228.17213 
L 344.579922 278.117335 
L 345.90847 255.414969 
L 347.237019 264.495915 
L 348.565567 255.414969 
L 349.894115 200.92929 
L 351.222663 259.955442 
L 352.551212 228.17213 
L 353.87976 210.010237 
L 355.208308 196.388817 
L 356.536857 200.92929 
L 357.865405 200.92929 
L 359.193953 278.117335 
L 360.522502 214.55071 
L 361.85105 219.091183 
L 363.179598 255.414969 
L 364.508146 205.469763 
L 365.836695 219.091183 
L 367.165243 241.793549 
L 368.493791 214.55071 
L 369.82234 246.334022 
L 371.150888 264.495915 
L 372.479436 210.010237 
L 373.807984 264.495915 
L 375.136533 200.92929 
L 376.465081 273.576862 
L 377.793629 210.010237 
L 379.122178 219.091183 
L 380.450726 255.414969 
L 381.779274 228.17213 
L 383.107822 214.55071 
L 384.436371 246.334022 
L 385.764919 250.874496 
L 387.093467 259.955442 
L 388.422016 219.091183 
L 389.750564 200.92929 
L 391.079112 200.92929 
L 392.40766 237.253076 
L 393.736209 237.253076 
L 395.064757 246.334022 
L 396.393305 250.874496 
L 397.721854 246.334022 
L 399.050402 210.010237 
L 400.37895 200.92929 
L 401.707498 250.874496 
L 403.036047 205.469763 
L 404.364595 237.253076 
L 405.693143 237.253076 
L 407.021692 191.848344 
L 408.35024 200.92929 
L 409.678788 246.334022 
L 411.007337 200.92929 
L 412.335885 255.414969 
L 413.664433 241.793549 
L 414.992981 210.010237 
L 416.32153 200.92929 
L 417.650078 269.036389 
L 418.978626 255.414969 
L 420.307175 219.091183 
L 421.635723 255.414969 
L 422.964271 182.767397 
L 425.621368 210.010237 
L 426.949916 228.17213 
L 428.278464 250.874496 
L 429.607013 169.145978 
L 430.935561 191.848344 
L 432.264109 173.686451 
L 434.921206 210.010237 
L 436.249754 200.92929 
L 437.578302 223.631656 
L 438.906851 205.469763 
L 441.563947 196.388817 
L 442.892495 250.874496 
L 444.221044 223.631656 
L 445.549592 237.253076 
L 446.87814 191.848344 
L 448.206689 255.414969 
L 449.535237 210.010237 
L 450.863785 228.17213 
L 452.192333 219.091183 
L 453.520882 228.17213 
L 454.84943 182.767397 
L 456.177978 210.010237 
L 457.506527 164.605504 
L 458.835075 214.55071 
L 460.163623 237.253076 
L 461.492171 200.92929 
L 462.82072 210.010237 
L 464.149268 228.17213 
L 465.477816 214.55071 
L 466.806365 300.819701 
L 468.134913 228.17213 
L 469.463461 200.92929 
L 470.79201 228.17213 
L 472.120558 191.848344 
L 473.449106 187.30787 
L 474.777654 210.010237 
L 476.106203 173.686451 
L 477.434751 210.010237 
L 478.763299 191.848344 
L 480.091848 228.17213 
L 481.420396 228.17213 
L 482.748944 200.92929 
L 484.077492 182.767397 
L 485.406041 205.469763 
L 486.734589 173.686451 
L 488.063137 200.92929 
L 489.391686 219.091183 
L 490.720234 173.686451 
L 492.048782 182.767397 
L 493.37733 241.793549 
L 494.705879 200.92929 
L 497.362975 200.92929 
L 498.691524 164.605504 
L 500.020072 210.010237 
L 501.34862 241.793549 
L 502.677168 173.686451 
L 504.005717 200.92929 
L 505.334265 173.686451 
L 506.662813 182.767397 
L 507.991362 210.010237 
L 509.31991 191.848344 
L 510.648458 205.469763 
L 511.977006 214.55071 
L 513.305555 264.495915 
L 514.634103 214.55071 
L 515.962651 187.30787 
L 517.2912 191.848344 
L 518.619748 237.253076 
L 519.948296 223.631656 
L 521.276845 173.686451 
L 522.605393 169.145978 
L 523.933941 182.767397 
L 525.262489 228.17213 
L 526.591038 164.605504 
L 527.919586 173.686451 
L 529.248134 196.388817 
L 530.576683 191.848344 
L 531.905231 196.388817 
L 533.233779 278.117335 
L 534.562327 182.767397 
L 535.890876 182.767397 
L 537.219424 191.848344 
L 538.547972 237.253076 
L 539.876521 173.686451 
L 541.205069 214.55071 
L 542.533617 237.253076 
L 543.862165 210.010237 
L 545.190714 173.686451 
L 546.519262 210.010237 
L 547.84781 200.92929 
L 549.176359 164.605504 
L 550.504907 237.253076 
L 551.833455 164.605504 
L 553.162003 182.767397 
L 555.8191 200.92929 
L 557.147648 232.712603 
L 558.476197 210.010237 
L 561.133293 191.848344 
L 562.461841 200.92929 
L 563.79039 182.767397 
L 565.118938 191.848344 
L 566.447486 164.605504 
L 567.776035 182.767397 
L 569.104583 173.686451 
L 570.433131 237.253076 
L 571.761679 182.767397 
L 573.090228 164.605504 
L 575.747324 164.605504 
L 577.075873 182.767397 
L 578.404421 187.30787 
L 579.732969 173.686451 
L 581.061518 173.686451 
L 582.390066 182.767397 
L 583.718614 182.767397 
L 585.047162 164.605504 
L 586.375711 164.605504 
L 587.704259 182.767397 
L 589.032807 191.848344 
L 590.361356 173.686451 
L 591.689904 191.848344 
L 593.018452 164.605504 
L 594.347 191.848344 
L 595.675549 182.767397 
L 597.004097 219.091183 
L 598.332645 164.605504 
L 599.661194 200.92929 
L 600.989742 191.848344 
L 602.31829 191.848344 
L 603.646838 173.686451 
L 604.975387 169.145978 
L 606.303935 196.388817 
L 607.632483 191.848344 
L 608.961032 232.712603 
L 610.28958 164.605504 
L 611.618128 173.686451 
L 612.946676 164.605504 
L 614.275225 164.605504 
L 616.932321 173.686451 
L 618.26087 173.686451 
L 619.589418 164.605504 
L 620.917966 187.30787 
L 622.246514 173.686451 
L 623.575063 210.010237 
L 624.903611 182.767397 
L 626.232159 173.686451 
L 628.889256 173.686451 
L 630.217804 187.30787 
L 631.546353 173.686451 
L 632.874901 173.686451 
L 634.203449 164.605504 
L 635.531997 164.605504 
L 636.860546 182.767397 
L 638.189094 164.605504 
L 639.517642 173.686451 
L 640.846191 164.605504 
L 642.174739 191.848344 
L 643.503287 173.686451 
L 644.831835 173.686451 
L 646.160384 191.848344 
L 647.488932 182.767397 
L 648.81748 182.767397 
L 650.146029 164.605504 
L 651.474577 191.848344 
L 655.460222 164.605504 
L 656.78877 182.767397 
L 658.117318 164.605504 
L 679.374091 164.605504 
L 679.374091 164.605504 
" clip-path="url(#p7573440f22)" style="fill: none; stroke: #1f77b4; stroke-width: 1.5; stroke-linecap: square"/>
   </g>
   <g id="line2d_26">
    <path d="M 82.855909 328.06254 
L 84.184457 300.819701 
L 85.513006 196.388817 
L 86.841554 373.467273 
L 88.170102 278.117335 
L 89.498651 273.576862 
L 90.827199 296.279228 
L 92.155747 278.117335 
L 94.812844 332.603014 
L 96.141392 255.414969 
L 97.46994 264.495915 
L 98.798489 255.414969 
L 100.127037 278.117335 
L 101.455585 259.955442 
L 102.784133 137.362665 
L 104.112682 300.819701 
L 105.44123 291.738755 
L 106.769778 273.576862 
L 108.098327 309.900648 
L 109.426875 223.631656 
L 110.755423 314.441121 
L 112.083971 232.712603 
L 113.41252 273.576862 
L 114.741068 273.576862 
L 116.069616 255.414969 
L 117.398165 323.522067 
L 118.726713 337.143487 
L 120.055261 278.117335 
L 121.383809 237.253076 
L 122.712358 255.414969 
L 124.040906 287.198281 
L 125.369454 228.17213 
L 126.698003 214.55071 
L 128.026551 259.955442 
L 129.355099 273.576862 
L 130.683647 314.441121 
L 132.012196 255.414969 
L 133.340744 309.900648 
L 134.669292 278.117335 
L 135.997841 300.819701 
L 137.326389 287.198281 
L 138.654937 314.441121 
L 139.983486 250.874496 
L 141.312034 205.469763 
L 142.640582 264.495915 
L 143.96913 191.848344 
L 145.297679 250.874496 
L 146.626227 255.414969 
L 147.954775 232.712603 
L 149.283324 200.92929 
L 150.611872 264.495915 
L 151.94042 273.576862 
L 153.268968 200.92929 
L 154.597517 332.603014 
L 155.926065 259.955442 
L 157.254613 205.469763 
L 158.583162 287.198281 
L 159.91171 237.253076 
L 161.240258 273.576862 
L 162.568806 264.495915 
L 163.897355 269.036389 
L 165.225903 182.767397 
L 166.554451 205.469763 
L 167.883 282.657808 
L 169.211548 210.010237 
L 170.540096 246.334022 
L 171.868644 328.06254 
L 173.197193 300.819701 
L 174.525741 264.495915 
L 175.854289 269.036389 
L 177.182838 187.30787 
L 178.511386 187.30787 
L 179.839934 237.253076 
L 181.168482 264.495915 
L 182.497031 241.793549 
L 183.825579 269.036389 
L 185.154127 214.55071 
L 186.482676 187.30787 
L 187.811224 328.06254 
L 189.139772 250.874496 
L 190.468321 219.091183 
L 191.796869 205.469763 
L 193.125417 255.414969 
L 194.453965 210.010237 
L 195.782514 219.091183 
L 197.111062 146.443611 
L 198.43961 291.738755 
L 199.768159 264.495915 
L 201.096707 305.360174 
L 203.753803 232.712603 
L 205.082352 259.955442 
L 206.4109 264.495915 
L 209.067997 219.091183 
L 210.396545 232.712603 
L 211.725093 210.010237 
L 213.053641 296.279228 
L 214.38219 259.955442 
L 215.710738 214.55071 
L 217.039286 255.414969 
L 218.367835 232.712603 
L 219.696383 241.793549 
L 221.024931 273.576862 
L 222.353479 219.091183 
L 223.682028 228.17213 
L 225.010576 196.388817 
L 226.339124 269.036389 
L 227.667673 269.036389 
L 228.996221 255.414969 
L 230.324769 155.524558 
L 231.653317 182.767397 
L 232.981866 250.874496 
L 234.310414 282.657808 
L 235.638962 214.55071 
L 236.967511 214.55071 
L 238.296059 219.091183 
L 239.624607 269.036389 
L 240.953155 241.793549 
L 242.281704 269.036389 
L 243.610252 214.55071 
L 244.9388 314.441121 
L 246.267349 223.631656 
L 247.595897 219.091183 
L 248.924445 259.955442 
L 250.252994 250.874496 
L 251.581542 232.712603 
L 252.91009 187.30787 
L 254.238638 200.92929 
L 255.567187 228.17213 
L 256.895735 246.334022 
L 258.224283 241.793549 
L 259.552832 241.793549 
L 260.88138 219.091183 
L 262.209928 264.495915 
L 263.538476 287.198281 
L 264.867025 196.388817 
L 266.195573 178.226924 
L 267.524121 191.848344 
L 268.85267 250.874496 
L 270.181218 205.469763 
L 271.509766 296.279228 
L 272.838314 210.010237 
L 274.166863 223.631656 
L 275.495411 196.388817 
L 276.823959 273.576862 
L 278.152508 169.145978 
L 279.481056 269.036389 
L 280.809604 269.036389 
L 282.138152 250.874496 
L 283.466701 200.92929 
L 284.795249 164.605504 
L 286.123797 223.631656 
L 287.452346 223.631656 
L 288.780894 200.92929 
L 290.109442 232.712603 
L 291.43799 178.226924 
L 292.766539 173.686451 
L 294.095087 273.576862 
L 295.423635 210.010237 
L 296.752184 164.605504 
L 298.080732 173.686451 
L 299.40928 228.17213 
L 300.737829 223.631656 
L 302.066377 232.712603 
L 303.394925 214.55071 
L 304.723473 164.605504 
L 306.052022 132.822192 
L 307.38057 309.900648 
L 308.709118 255.414969 
L 310.037667 259.955442 
L 311.366215 287.198281 
L 312.694763 269.036389 
L 314.023311 150.984085 
L 315.35186 169.145978 
L 316.680408 160.065031 
L 318.008956 205.469763 
L 319.337505 205.469763 
L 320.666053 214.55071 
L 321.994601 182.767397 
L 323.323149 219.091183 
L 324.651698 219.091183 
L 325.980246 169.145978 
L 327.308794 182.767397 
L 328.637343 164.605504 
L 329.965891 182.767397 
L 331.294439 205.469763 
L 332.622987 178.226924 
L 333.951536 246.334022 
L 335.280084 119.200772 
L 336.608632 228.17213 
L 337.937181 169.145978 
L 339.265729 141.903138 
L 340.594277 205.469763 
L 341.922825 200.92929 
L 343.251374 191.848344 
L 344.579922 259.955442 
L 345.90847 182.767397 
L 347.237019 187.30787 
L 348.565567 160.065031 
L 349.894115 214.55071 
L 351.222663 191.848344 
L 352.551212 259.955442 
L 353.87976 178.226924 
L 355.208308 132.822192 
L 356.536857 210.010237 
L 357.865405 155.524558 
L 359.193953 160.065031 
L 361.85105 250.874496 
L 363.179598 155.524558 
L 364.508146 169.145978 
L 367.165243 178.226924 
L 368.493791 114.660299 
L 369.82234 196.388817 
L 371.150888 200.92929 
L 372.479436 232.712603 
L 373.807984 137.362665 
L 375.136533 169.145978 
L 376.465081 223.631656 
L 377.793629 150.984085 
L 379.122178 187.30787 
L 380.450726 187.30787 
L 383.107822 150.984085 
L 384.436371 223.631656 
L 385.764919 146.443611 
L 387.093467 191.848344 
L 388.422016 169.145978 
L 389.750564 210.010237 
L 391.079112 182.767397 
L 392.40766 205.469763 
L 393.736209 123.741245 
L 395.064757 164.605504 
L 396.393305 169.145978 
L 397.721854 178.226924 
L 399.050402 82.876986 
L 401.707498 214.55071 
L 403.036047 187.30787 
L 404.364595 173.686451 
L 405.693143 237.253076 
L 407.021692 160.065031 
L 408.35024 141.903138 
L 409.678788 223.631656 
L 411.007337 196.388817 
L 412.335885 128.281719 
L 413.664433 164.605504 
L 414.992981 110.119826 
L 416.32153 123.741245 
L 417.650078 196.388817 
L 418.978626 178.226924 
L 420.307175 191.848344 
L 421.635723 132.822192 
L 422.964271 87.41746 
L 424.292819 146.443611 
L 425.621368 110.119826 
L 426.949916 123.741245 
L 428.278464 160.065031 
L 429.607013 182.767397 
L 430.935561 191.848344 
L 432.264109 155.524558 
L 433.592657 114.660299 
L 434.921206 146.443611 
L 436.249754 146.443611 
L 437.578302 110.119826 
L 438.906851 119.200772 
L 440.235399 164.605504 
L 441.563947 150.984085 
L 442.892495 164.605504 
L 444.221044 160.065031 
L 445.549592 191.848344 
L 446.87814 146.443611 
L 448.206689 119.200772 
L 449.535237 132.822192 
L 450.863785 114.660299 
L 452.192333 196.388817 
L 453.520882 132.822192 
L 454.84943 87.41746 
L 456.177978 164.605504 
L 457.506527 150.984085 
L 458.835075 114.660299 
L 460.163623 101.038879 
L 461.492171 114.660299 
L 462.82072 228.17213 
L 464.149268 182.767397 
L 465.477816 178.226924 
L 466.806365 164.605504 
L 468.134913 200.92929 
L 469.463461 146.443611 
L 470.79201 169.145978 
L 472.120558 114.660299 
L 474.777654 132.822192 
L 476.106203 173.686451 
L 477.434751 96.498406 
L 478.763299 114.660299 
L 480.091848 105.579352 
L 481.420396 91.957933 
L 482.748944 114.660299 
L 484.077492 141.903138 
L 485.406041 123.741245 
L 486.734589 82.876986 
L 488.063137 96.498406 
L 489.391686 196.388817 
L 490.720234 114.660299 
L 492.048782 164.605504 
L 493.37733 160.065031 
L 494.705879 150.984085 
L 496.034427 146.443611 
L 497.362975 160.065031 
L 498.691524 123.741245 
L 501.34862 150.984085 
L 502.677168 119.200772 
L 504.005717 137.362665 
L 505.334265 178.226924 
L 506.662813 146.443611 
L 507.991362 110.119826 
L 509.31991 123.741245 
L 510.648458 128.281719 
L 511.977006 91.957933 
L 513.305555 191.848344 
L 514.634103 101.038879 
L 515.962651 119.200772 
L 517.2912 110.119826 
L 518.619748 196.388817 
L 521.276845 82.876986 
L 522.605393 123.741245 
L 523.933941 87.41746 
L 525.262489 191.848344 
L 526.591038 169.145978 
L 527.919586 55.634147 
L 529.248134 105.579352 
L 530.576683 91.957933 
L 531.905231 169.145978 
L 533.233779 141.903138 
L 534.562327 150.984085 
L 535.890876 119.200772 
L 537.219424 96.498406 
L 538.547972 96.498406 
L 539.876521 119.200772 
L 541.205069 146.443611 
L 542.533617 119.200772 
L 543.862165 196.388817 
L 545.190714 91.957933 
L 546.519262 73.79604 
L 547.84781 78.336513 
L 549.176359 55.634147 
L 550.504907 155.524558 
L 551.833455 110.119826 
L 553.162003 146.443611 
L 554.490552 169.145978 
L 555.8191 105.579352 
L 557.147648 155.524558 
L 558.476197 105.579352 
L 559.804745 91.957933 
L 561.133293 141.903138 
L 562.461841 101.038879 
L 563.79039 91.957933 
L 565.118938 91.957933 
L 566.447486 110.119826 
L 567.776035 114.660299 
L 569.104583 123.741245 
L 570.433131 137.362665 
L 571.761679 137.362665 
L 573.090228 82.876986 
L 574.418776 110.119826 
L 575.747324 73.79604 
L 577.075873 73.79604 
L 578.404421 101.038879 
L 579.732969 78.336513 
L 581.061518 128.281719 
L 582.390066 110.119826 
L 583.718614 73.79604 
L 585.047162 96.498406 
L 586.375711 132.822192 
L 587.704259 110.119826 
L 590.361356 146.443611 
L 591.689904 91.957933 
L 593.018452 91.957933 
L 594.347 146.443611 
L 595.675549 78.336513 
L 597.004097 146.443611 
L 598.332645 132.822192 
L 599.661194 78.336513 
L 600.989742 91.957933 
L 602.31829 78.336513 
L 603.646838 87.41746 
L 604.975387 78.336513 
L 606.303935 64.715093 
L 607.632483 110.119826 
L 608.961032 141.903138 
L 610.28958 110.119826 
L 611.618128 101.038879 
L 612.946676 73.79604 
L 614.275225 105.579352 
L 615.603773 87.41746 
L 616.932321 91.957933 
L 619.589418 55.634147 
L 622.246514 64.715093 
L 623.575063 105.579352 
L 624.903611 128.281719 
L 626.232159 132.822192 
L 627.560708 55.634147 
L 628.889256 69.255567 
L 630.217804 60.17462 
L 631.546353 82.876986 
L 632.874901 73.79604 
L 634.203449 73.79604 
L 635.531997 64.715093 
L 636.860546 91.957933 
L 638.189094 55.634147 
L 639.517642 73.79604 
L 640.846191 60.17462 
L 642.174739 78.336513 
L 643.503287 69.255567 
L 644.831835 69.255567 
L 646.160384 42.012727 
L 647.488932 46.5532 
L 648.81748 46.5532 
L 650.146029 55.634147 
L 651.474577 78.336513 
L 652.803125 60.17462 
L 654.131673 55.634147 
L 655.460222 55.634147 
L 656.78877 42.012727 
L 658.117318 64.715093 
L 659.445867 73.79604 
L 663.431511 73.79604 
L 664.76006 110.119826 
L 666.088608 73.79604 
L 675.388446 73.79604 
L 676.716994 91.957933 
L 678.045543 73.79604 
L 679.374091 73.79604 
L 679.374091 73.79604 
" clip-path="url(#p7573440f22)" style="fill: none; stroke: #ff7f0e; stroke-width: 1.5; stroke-linecap: square"/>
   </g>
   <g id="line2d_27">
    <path d="M 82.855909 350.764907 
L 84.184457 341.68396 
L 85.513006 323.522067 
L 86.841554 350.764907 
L 88.170102 314.441121 
L 89.498651 350.764907 
L 90.827199 368.9268 
L 92.155747 278.117335 
L 93.484295 332.603014 
L 94.812844 332.603014 
L 96.141392 341.68396 
L 97.46994 359.845853 
L 98.798489 350.764907 
L 101.455585 314.441121 
L 104.112682 350.764907 
L 105.44123 341.68396 
L 108.098327 341.68396 
L 109.426875 332.603014 
L 110.755423 332.603014 
L 112.083971 287.198281 
L 113.41252 323.522067 
L 116.069616 341.68396 
L 117.398165 341.68396 
L 118.726713 314.441121 
L 120.055261 323.522067 
L 121.383809 323.522067 
L 122.712358 314.441121 
L 124.040906 332.603014 
L 125.369454 314.441121 
L 126.698003 332.603014 
L 128.026551 323.522067 
L 129.355099 332.603014 
L 130.683647 296.279228 
L 132.012196 359.845853 
L 134.669292 323.522067 
L 135.997841 314.441121 
L 137.326389 332.603014 
L 138.654937 296.279228 
L 139.983486 341.68396 
L 141.312034 314.441121 
L 142.640582 332.603014 
L 143.96913 314.441121 
L 145.297679 332.603014 
L 146.626227 305.360174 
L 147.954775 359.845853 
L 149.283324 305.360174 
L 150.611872 323.522067 
L 151.94042 305.360174 
L 153.268968 259.955442 
L 154.597517 359.845853 
L 155.926065 359.845853 
L 157.254613 350.764907 
L 158.583162 296.279228 
L 161.240258 332.603014 
L 162.568806 278.117335 
L 163.897355 314.441121 
L 165.225903 323.522067 
L 166.554451 314.441121 
L 167.883 332.603014 
L 169.211548 323.522067 
L 171.868644 341.68396 
L 173.197193 332.603014 
L 174.525741 305.360174 
L 177.182838 323.522067 
L 178.511386 287.198281 
L 179.839934 278.117335 
L 181.168482 287.198281 
L 182.497031 314.441121 
L 183.825579 323.522067 
L 185.154127 305.360174 
L 186.482676 314.441121 
L 187.811224 332.603014 
L 190.468321 296.279228 
L 191.796869 305.360174 
L 193.125417 359.845853 
L 195.782514 305.360174 
L 197.111062 332.603014 
L 198.43961 323.522067 
L 199.768159 287.198281 
L 201.096707 305.360174 
L 202.425255 332.603014 
L 203.753803 296.279228 
L 205.082352 323.522067 
L 206.4109 296.279228 
L 207.739448 314.441121 
L 209.067997 314.441121 
L 210.396545 332.603014 
L 211.725093 323.522067 
L 213.053641 323.522067 
L 214.38219 314.441121 
L 215.710738 323.522067 
L 217.039286 341.68396 
L 218.367835 287.198281 
L 221.024931 323.522067 
L 222.353479 287.198281 
L 223.682028 314.441121 
L 225.010576 314.441121 
L 226.339124 323.522067 
L 227.667673 323.522067 
L 228.996221 341.68396 
L 230.324769 305.360174 
L 231.653317 323.522067 
L 232.981866 305.360174 
L 234.310414 323.522067 
L 235.638962 269.036389 
L 236.967511 259.955442 
L 238.296059 296.279228 
L 239.624607 287.198281 
L 240.953155 350.764907 
L 242.281704 269.036389 
L 243.610252 314.441121 
L 244.9388 305.360174 
L 246.267349 305.360174 
L 247.595897 314.441121 
L 248.924445 287.198281 
L 250.252994 341.68396 
L 251.581542 323.522067 
L 252.91009 296.279228 
L 254.238638 278.117335 
L 255.567187 278.117335 
L 256.895735 305.360174 
L 258.224283 259.955442 
L 259.552832 314.441121 
L 260.88138 323.522067 
L 262.209928 305.360174 
L 263.538476 341.68396 
L 264.867025 296.279228 
L 266.195573 305.360174 
L 267.524121 305.360174 
L 268.85267 287.198281 
L 271.509766 323.522067 
L 272.838314 296.279228 
L 274.166863 332.603014 
L 275.495411 323.522067 
L 276.823959 287.198281 
L 278.152508 314.441121 
L 279.481056 296.279228 
L 280.809604 323.522067 
L 282.138152 305.360174 
L 283.466701 296.279228 
L 284.795249 314.441121 
L 286.123797 278.117335 
L 287.452346 287.198281 
L 288.780894 314.441121 
L 290.109442 305.360174 
L 291.43799 305.360174 
L 292.766539 287.198281 
L 294.095087 323.522067 
L 295.423635 278.117335 
L 296.752184 287.198281 
L 298.080732 323.522067 
L 299.40928 314.441121 
L 300.737829 287.198281 
L 302.066377 296.279228 
L 303.394925 278.117335 
L 304.723473 296.279228 
L 306.052022 323.522067 
L 307.38057 305.360174 
L 308.709118 305.360174 
L 310.037667 287.198281 
L 311.366215 287.198281 
L 314.023311 269.036389 
L 315.35186 296.279228 
L 316.680408 314.441121 
L 318.008956 287.198281 
L 319.337505 278.117335 
L 320.666053 287.198281 
L 321.994601 287.198281 
L 323.323149 305.360174 
L 324.651698 314.441121 
L 325.980246 287.198281 
L 327.308794 269.036389 
L 328.637343 305.360174 
L 329.965891 278.117335 
L 331.294439 323.522067 
L 332.622987 296.279228 
L 333.951536 305.360174 
L 335.280084 269.036389 
L 336.608632 278.117335 
L 339.265729 278.117335 
L 340.594277 269.036389 
L 341.922825 269.036389 
L 343.251374 323.522067 
L 344.579922 314.441121 
L 345.90847 332.603014 
L 347.237019 287.198281 
L 348.565567 305.360174 
L 349.894115 278.117335 
L 351.222663 305.360174 
L 352.551212 269.036389 
L 353.87976 287.198281 
L 355.208308 323.522067 
L 356.536857 287.198281 
L 357.865405 314.441121 
L 359.193953 305.360174 
L 360.522502 259.955442 
L 361.85105 259.955442 
L 363.179598 278.117335 
L 364.508146 287.198281 
L 365.836695 250.874496 
L 367.165243 323.522067 
L 368.493791 287.198281 
L 369.82234 269.036389 
L 371.150888 278.117335 
L 372.479436 305.360174 
L 373.807984 296.279228 
L 375.136533 269.036389 
L 376.465081 278.117335 
L 377.793629 269.036389 
L 379.122178 278.117335 
L 381.779274 278.117335 
L 383.107822 269.036389 
L 384.436371 305.360174 
L 385.764919 278.117335 
L 387.093467 296.279228 
L 388.422016 269.036389 
L 389.750564 278.117335 
L 391.079112 278.117335 
L 392.40766 287.198281 
L 393.736209 278.117335 
L 395.064757 278.117335 
L 396.393305 305.360174 
L 397.721854 278.117335 
L 399.050402 278.117335 
L 400.37895 259.955442 
L 401.707498 296.279228 
L 403.036047 287.198281 
L 404.364595 296.279228 
L 405.693143 278.117335 
L 407.021692 278.117335 
L 408.35024 296.279228 
L 409.678788 296.279228 
L 411.007337 314.441121 
L 412.335885 259.955442 
L 413.664433 296.279228 
L 414.992981 296.279228 
L 416.32153 259.955442 
L 417.650078 278.117335 
L 420.307175 278.117335 
L 421.635723 269.036389 
L 422.964271 241.793549 
L 424.292819 250.874496 
L 425.621368 287.198281 
L 426.949916 278.117335 
L 428.278464 296.279228 
L 429.607013 287.198281 
L 430.935561 269.036389 
L 432.264109 278.117335 
L 433.592657 278.117335 
L 434.921206 269.036389 
L 436.249754 278.117335 
L 437.578302 305.360174 
L 438.906851 250.874496 
L 440.235399 278.117335 
L 441.563947 287.198281 
L 442.892495 287.198281 
L 444.221044 269.036389 
L 445.549592 259.955442 
L 446.87814 278.117335 
L 448.206689 287.198281 
L 449.535237 305.360174 
L 450.863785 278.117335 
L 452.192333 305.360174 
L 453.520882 259.955442 
L 454.84943 278.117335 
L 456.177978 278.117335 
L 457.506527 269.036389 
L 458.835075 241.793549 
L 460.163623 305.360174 
L 462.82072 269.036389 
L 464.149268 269.036389 
L 465.477816 278.117335 
L 466.806365 250.874496 
L 469.463461 287.198281 
L 470.79201 250.874496 
L 472.120558 241.793549 
L 473.449106 278.117335 
L 474.777654 259.955442 
L 476.106203 269.036389 
L 477.434751 259.955442 
L 478.763299 269.036389 
L 480.091848 287.198281 
L 481.420396 269.036389 
L 482.748944 259.955442 
L 484.077492 287.198281 
L 485.406041 278.117335 
L 486.734589 278.117335 
L 488.063137 269.036389 
L 489.391686 250.874496 
L 490.720234 287.198281 
L 492.048782 296.279228 
L 493.37733 269.036389 
L 494.705879 305.360174 
L 496.034427 269.036389 
L 497.362975 259.955442 
L 498.691524 269.036389 
L 500.020072 296.279228 
L 501.34862 241.793549 
L 502.677168 305.360174 
L 504.005717 269.036389 
L 505.334265 241.793549 
L 506.662813 278.117335 
L 507.991362 259.955442 
L 510.648458 241.793549 
L 511.977006 259.955442 
L 514.634103 278.117335 
L 517.2912 241.793549 
L 518.619748 287.198281 
L 519.948296 250.874496 
L 522.605393 250.874496 
L 523.933941 241.793549 
L 525.262489 269.036389 
L 526.591038 269.036389 
L 527.919586 250.874496 
L 529.248134 259.955442 
L 530.576683 250.874496 
L 531.905231 287.198281 
L 533.233779 278.117335 
L 534.562327 278.117335 
L 537.219424 259.955442 
L 538.547972 241.793549 
L 539.876521 278.117335 
L 541.205069 269.036389 
L 542.533617 250.874496 
L 543.862165 269.036389 
L 545.190714 269.036389 
L 546.519262 241.793549 
L 547.84781 250.874496 
L 549.176359 241.793549 
L 550.504907 241.793549 
L 551.833455 269.036389 
L 553.162003 250.874496 
L 554.490552 250.874496 
L 555.8191 269.036389 
L 557.147648 250.874496 
L 558.476197 241.793549 
L 559.804745 250.874496 
L 561.133293 269.036389 
L 562.461841 250.874496 
L 565.118938 250.874496 
L 566.447486 241.793549 
L 567.776035 241.793549 
L 569.104583 250.874496 
L 570.433131 241.793549 
L 571.761679 278.117335 
L 573.090228 232.712603 
L 574.418776 250.874496 
L 575.747324 250.874496 
L 577.075873 269.036389 
L 578.404421 250.874496 
L 579.732969 250.874496 
L 581.061518 232.712603 
L 582.390066 269.036389 
L 585.047162 232.712603 
L 587.704259 250.874496 
L 589.032807 241.793549 
L 591.689904 241.793549 
L 593.018452 250.874496 
L 594.347 250.874496 
L 595.675549 232.712603 
L 598.332645 232.712603 
L 600.989742 250.874496 
L 604.975387 250.874496 
L 606.303935 232.712603 
L 607.632483 241.793549 
L 608.961032 241.793549 
L 610.28958 232.712603 
L 611.618128 232.712603 
L 612.946676 250.874496 
L 614.275225 241.793549 
L 615.603773 250.874496 
L 616.932321 232.712603 
L 618.26087 232.712603 
L 619.589418 269.036389 
L 620.917966 232.712603 
L 622.246514 232.712603 
L 623.575063 241.793549 
L 624.903611 241.793549 
L 626.232159 232.712603 
L 627.560708 241.793549 
L 628.889256 259.955442 
L 630.217804 232.712603 
L 631.546353 232.712603 
L 632.874901 259.955442 
L 634.203449 232.712603 
L 635.531997 232.712603 
L 636.860546 241.793549 
L 638.189094 241.793549 
L 639.517642 259.955442 
L 640.846191 232.712603 
L 642.174739 232.712603 
L 643.503287 259.955442 
L 644.831835 241.793549 
L 646.160384 241.793549 
L 647.488932 232.712603 
L 648.81748 250.874496 
L 650.146029 232.712603 
L 651.474577 241.793549 
L 655.460222 241.793549 
L 656.78877 232.712603 
L 658.117318 232.712603 
L 659.445867 241.793549 
L 660.774415 232.712603 
L 679.374091 232.712603 
L 679.374091 232.712603 
" clip-path="url(#p7573440f22)" style="fill: none; stroke: #2ca02c; stroke-width: 1.5; stroke-linecap: square"/>
   </g>
   <g id="patch_3">
    <path d="M 53.03 390.04 
L 53.03 25.44 
" style="fill: none; stroke: #000000; stroke-width: 0.8; stroke-linejoin: miter; stroke-linecap: square"/>
   </g>
   <g id="patch_4">
    <path d="M 709.2 390.04 
L 709.2 25.44 
" style="fill: none; stroke: #000000; stroke-width: 0.8; stroke-linejoin: miter; stroke-linecap: square"/>
   </g>
   <g id="patch_5">
    <path d="M 53.03 390.04 
L 709.2 390.04 
" style="fill: none; stroke: #000000; stroke-width: 0.8; stroke-linejoin: miter; stroke-linecap: square"/>
   </g>
   <g id="patch_6">
    <path d="M 53.03 25.44 
L 709.2 25.44 
" style="fill: none; stroke: #000000; stroke-width: 0.8; stroke-linejoin: miter; stroke-linecap: square"/>
   </g>
   <g id="text_15">
    <!-- Average Reward per Episode by Agent -->
    <g transform="translate(265.943125 19.44) scale(0.12 -0.12)">
     <defs>
      <path id="DejaVuSans-62" d="M 3116 1747 
Q 3116 2381 2855 2742 
Q 2594 3103 2138 3103 
Q 1681 3103 1420 2742 
Q 1159 2381 1159 1747 
Q 1159 1113 1420 752 
Q 1681 391 2138 391 
Q 2594 391 2855 752 
Q 3116 1113 3116 1747 
z
M 1159 2969 
Q 1341 3281 1617 3432 
Q 1894 3584 2278 3584 
Q 2916 3584 3314 3078 
Q 3713 2572 3713 1747 
Q 3713 922 3314 415 
Q 2916 -91 2278 -91 
Q 1894 -91 1617 61 
Q 1341 213 1159 525 
L 1159 0 
L 581 0 
L 581 4863 
L 1159 4863 
L 1159 2969 
z
" transform="scale(0.015625)"/>
      <path id="DejaVuSans-79" d="M 2059 -325 
Q 1816 -950 1584 -1140 
Q 1353 -1331 966 -1331 
L 506 -1331 
L 506 -850 
L 844 -850 
Q 1081 -850 1212 -737 
Q 1344 -625 1503 -206 
L 1606 56 
L 191 3500 
L 800 3500 
L 1894 763 
L 2988 3500 
L 3597 3500 
L 2059 -325 
z
" transform="scale(0.015625)"/>
      <path id="DejaVuSans-6e" d="M 3513 2113 
L 3513 0 
L 2938 0 
L 2938 2094 
Q 2938 2591 2744 2837 
Q 2550 3084 2163 3084 
Q 1697 3084 1428 2787 
Q 1159 2491 1159 1978 
L 1159 0 
L 581 0 
L 581 3500 
L 1159 3500 
L 1159 2956 
Q 1366 3272 1645 3428 
Q 1925 3584 2291 3584 
Q 2894 3584 3203 3211 
Q 3513 2838 3513 2113 
z
" transform="scale(0.015625)"/>
      <path id="DejaVuSans-74" d="M 1172 4494 
L 1172 3500 
L 2356 3500 
L 2356 3053 
L 1172 3053 
L 1172 1153 
Q 1172 725 1289 603 
Q 1406 481 1766 481 
L 2356 481 
L 2356 0 
L 1766 0 
Q 1100 0 847 248 
Q 594 497 594 1153 
L 594 3053 
L 172 3053 
L 172 3500 
L 594 3500 
L 594 4494 
L 1172 4494 
z
" transform="scale(0.015625)"/>
     </defs>
     <use xlink:href="#DejaVuSans-41"/>
     <use xlink:href="#DejaVuSans-76" x="62.533203"/>
     <use xlink:href="#DejaVuSans-65" x="121.712891"/>
     <use xlink:href="#DejaVuSans-72" x="183.236328"/>
     <use xlink:href="#DejaVuSans-61" x="224.349609"/>
     <use xlink:href="#DejaVuSans-67" x="285.628906"/>
     <use xlink:href="#DejaVuSans-65" x="349.105469"/>
     <use xlink:href="#DejaVuSans-20" x="410.628906"/>
     <use xlink:href="#DejaVuSans-52" x="442.416016"/>
     <use xlink:href="#DejaVuSans-65" x="507.398438"/>
     <use xlink:href="#DejaVuSans-77" x="568.921875"/>
     <use xlink:href="#DejaVuSans-61" x="650.708984"/>
     <use xlink:href="#DejaVuSans-72" x="711.988281"/>
     <use xlink:href="#DejaVuSans-64" x="751.351562"/>
     <use xlink:href="#DejaVuSans-20" x="814.828125"/>
     <use xlink:href="#DejaVuSans-70" x="846.615234"/>
     <use xlink:href="#DejaVuSans-65" x="910.091797"/>
     <use xlink:href="#DejaVuSans-72" x="971.615234"/>
     <use xlink:href="#DejaVuSans-20" x="1012.728516"/>
     <use xlink:href="#DejaVuSans-45" x="1044.515625"/>
     <use xlink:href="#DejaVuSans-70" x="1107.699219"/>
     <use xlink:href="#DejaVuSans-69" x="1171.175781"/>
     <use xlink:href="#DejaVuSans-73" x="1198.958984"/>
     <use xlink:href="#DejaVuSans-6f" x="1251.058594"/>
     <use xlink:href="#DejaVuSans-64" x="1312.240234"/>
     <use xlink:href="#DejaVuSans-65" x="1375.716797"/>
     <use xlink:href="#DejaVuSans-20" x="1437.240234"/>
     <use xlink:href="#DejaVuSans-62" x="1469.027344"/>
     <use xlink:href="#DejaVuSans-79" x="1532.503906"/>
     <use xlink:href="#DejaVuSans-20" x="1591.683594"/>
     <use xlink:href="#DejaVuSans-41" x="1623.470703"/>
     <use xlink:href="#DejaVuSans-67" x="1691.878906"/>
     <use xlink:href="#DejaVuSans-65" x="1755.355469"/>
     <use xlink:href="#DejaVuSans-6e" x="1816.878906"/>
     <use xlink:href="#DejaVuSans-74" x="1880.257812"/>
    </g>
   </g>
   <g id="legend_1">
    <g id="patch_7">
     <path d="M 60.03 77.474375 
L 207.825313 77.474375 
Q 209.825313 77.474375 209.825313 75.474375 
L 209.825313 32.44 
Q 209.825313 30.44 207.825313 30.44 
L 60.03 30.44 
Q 58.03 30.44 58.03 32.44 
L 58.03 75.474375 
Q 58.03 77.474375 60.03 77.474375 
z
" style="fill: #ffffff; opacity: 0.8; stroke: #cccccc; stroke-linejoin: miter"/>
    </g>
    <g id="line2d_28">
     <path d="M 62.03 38.538437 
L 72.03 38.538437 
L 82.03 38.538437 
" style="fill: none; stroke: #1f77b4; stroke-width: 1.5; stroke-linecap: square"/>
    </g>
    <g id="text_16">
     <!-- solar - Average Reward -->
     <g transform="translate(90.03 42.038437) scale(0.1 -0.1)">
      <defs>
       <path id="DejaVuSans-6c" d="M 603 4863 
L 1178 4863 
L 1178 0 
L 603 0 
L 603 4863 
z
" transform="scale(0.015625)"/>
       <path id="DejaVuSans-2d" d="M 313 2009 
L 1997 2009 
L 1997 1497 
L 313 1497 
L 313 2009 
z
" transform="scale(0.015625)"/>
      </defs>
      <use xlink:href="#DejaVuSans-73"/>
      <use xlink:href="#DejaVuSans-6f" x="52.099609"/>
      <use xlink:href="#DejaVuSans-6c" x="113.28125"/>
      <use xlink:href="#DejaVuSans-61" x="141.064453"/>
      <use xlink:href="#DejaVuSans-72" x="202.34375"/>
      <use xlink:href="#DejaVuSans-20" x="243.457031"/>
      <use xlink:href="#DejaVuSans-2d" x="275.244141"/>
      <use xlink:href="#DejaVuSans-20" x="311.328125"/>
      <use xlink:href="#DejaVuSans-41" x="343.115234"/>
      <use xlink:href="#DejaVuSans-76" x="405.648438"/>
      <use xlink:href="#DejaVuSans-65" x="464.828125"/>
      <use xlink:href="#DejaVuSans-72" x="526.351562"/>
      <use xlink:href="#DejaVuSans-61" x="567.464844"/>
      <use xlink:href="#DejaVuSans-67" x="628.744141"/>
      <use xlink:href="#DejaVuSans-65" x="692.220703"/>
      <use xlink:href="#DejaVuSans-20" x="753.744141"/>
      <use xlink:href="#DejaVuSans-52" x="785.53125"/>
      <use xlink:href="#DejaVuSans-65" x="850.513672"/>
      <use xlink:href="#DejaVuSans-77" x="912.037109"/>
      <use xlink:href="#DejaVuSans-61" x="993.824219"/>
      <use xlink:href="#DejaVuSans-72" x="1055.103516"/>
      <use xlink:href="#DejaVuSans-64" x="1094.466797"/>
     </g>
    </g>
    <g id="line2d_29">
     <path d="M 62.03 53.216563 
L 72.03 53.216563 
L 82.03 53.216563 
" style="fill: none; stroke: #ff7f0e; stroke-width: 1.5; stroke-linecap: square"/>
    </g>
    <g id="text_17">
     <!-- bat - Average Reward -->
     <g transform="translate(90.03 56.716563) scale(0.1 -0.1)">
      <use xlink:href="#DejaVuSans-62"/>
      <use xlink:href="#DejaVuSans-61" x="63.476562"/>
      <use xlink:href="#DejaVuSans-74" x="124.755859"/>
      <use xlink:href="#DejaVuSans-20" x="163.964844"/>
      <use xlink:href="#DejaVuSans-2d" x="195.751953"/>
      <use xlink:href="#DejaVuSans-20" x="231.835938"/>
      <use xlink:href="#DejaVuSans-41" x="263.623047"/>
      <use xlink:href="#DejaVuSans-76" x="326.15625"/>
      <use xlink:href="#DejaVuSans-65" x="385.335938"/>
      <use xlink:href="#DejaVuSans-72" x="446.859375"/>
      <use xlink:href="#DejaVuSans-61" x="487.972656"/>
      <use xlink:href="#DejaVuSans-67" x="549.251953"/>
      <use xlink:href="#DejaVuSans-65" x="612.728516"/>
      <use xlink:href="#DejaVuSans-20" x="674.251953"/>
      <use xlink:href="#DejaVuSans-52" x="706.039062"/>
      <use xlink:href="#DejaVuSans-65" x="771.021484"/>
      <use xlink:href="#DejaVuSans-77" x="832.544922"/>
      <use xlink:href="#DejaVuSans-61" x="914.332031"/>
      <use xlink:href="#DejaVuSans-72" x="975.611328"/>
      <use xlink:href="#DejaVuSans-64" x="1014.974609"/>
     </g>
    </g>
    <g id="line2d_30">
     <path d="M 62.03 67.894687 
L 72.03 67.894687 
L 82.03 67.894687 
" style="fill: none; stroke: #2ca02c; stroke-width: 1.5; stroke-linecap: square"/>
    </g>
    <g id="text_18">
     <!-- grid - Average Reward -->
     <g transform="translate(90.03 71.394687) scale(0.1 -0.1)">
      <use xlink:href="#DejaVuSans-67"/>
      <use xlink:href="#DejaVuSans-72" x="63.476562"/>
      <use xlink:href="#DejaVuSans-69" x="104.589844"/>
      <use xlink:href="#DejaVuSans-64" x="132.373047"/>
      <use xlink:href="#DejaVuSans-20" x="195.849609"/>
      <use xlink:href="#DejaVuSans-2d" x="227.636719"/>
      <use xlink:href="#DejaVuSans-20" x="263.720703"/>
      <use xlink:href="#DejaVuSans-41" x="295.507812"/>
      <use xlink:href="#DejaVuSans-76" x="358.041016"/>
      <use xlink:href="#DejaVuSans-65" x="417.220703"/>
      <use xlink:href="#DejaVuSans-72" x="478.744141"/>
      <use xlink:href="#DejaVuSans-61" x="519.857422"/>
      <use xlink:href="#DejaVuSans-67" x="581.136719"/>
      <use xlink:href="#DejaVuSans-65" x="644.613281"/>
      <use xlink:href="#DejaVuSans-20" x="706.136719"/>
      <use xlink:href="#DejaVuSans-52" x="737.923828"/>
      <use xlink:href="#DejaVuSans-65" x="802.90625"/>
      <use xlink:href="#DejaVuSans-77" x="864.429688"/>
      <use xlink:href="#DejaVuSans-61" x="946.216797"/>
      <use xlink:href="#DejaVuSans-72" x="1007.496094"/>
      <use xlink:href="#DejaVuSans-64" x="1046.859375"/>
     </g>
    </g>
   </g>
  </g>
 </g>
 <defs>
  <clipPath id="p7573440f22">
   <rect x="53.03" y="25.44" width="656.17" height="364.6"/>
  </clipPath>
 </defs>
</svg>
