<?xml version="1.0" encoding="utf-8" standalone="no"?>
<!DOCTYPE svg PUBLIC "-//W3C//DTD SVG 1.1//EN"
  "http://www.w3.org/Graphics/SVG/1.1/DTD/svg11.dtd">
<svg xmlns:xlink="http://www.w3.org/1999/xlink" width="720pt" height="432pt" viewBox="0 0 720 432" xmlns="http://www.w3.org/2000/svg" version="1.1">
 <metadata>
  <rdf:RDF xmlns:dc="http://purl.org/dc/elements/1.1/" xmlns:cc="http://creativecommons.org/ns#" xmlns:rdf="http://www.w3.org/1999/02/22-rdf-syntax-ns#">
   <cc:Work>
    <dc:type rdf:resource="http://purl.org/dc/dcmitype/StillImage"/>
    <dc:date>2025-06-05T14:14:55.735027</dc:date>
    <dc:format>image/svg+xml</dc:format>
    <dc:creator>
     <cc:Agent>
      <dc:title>Matplotlib v3.8.4, https://matplotlib.org/</dc:title>
     </cc:Agent>
    </dc:creator>
   </cc:Work>
  </rdf:RDF>
 </metadata>
 <defs>
  <style type="text/css">*{stroke-linejoin: round; stroke-linecap: butt}</style>
 </defs>
 <g id="figure_1">
  <g id="patch_1">
   <path d="M 0 432 
L 720 432 
L 720 0 
L 0 0 
z
" style="fill: #ffffff"/>
  </g>
  <g id="axes_1">
   <g id="patch_2">
    <path d="M 53.03 390.04 
L 709.2 390.04 
L 709.2 25.44 
L 53.03 25.44 
z
" style="fill: #ffffff"/>
   </g>
   <g id="matplotlib.axis_1">
    <g id="xtick_1">
     <g id="line2d_1">
      <path d="M 82.855909 390.04 
L 82.855909 25.44 
" clip-path="url(#p613d1c94f1)" style="fill: none; stroke: #b0b0b0; stroke-width: 0.8; stroke-linecap: square"/>
     </g>
     <g id="line2d_2">
      <defs>
       <path id="m38b40e05f4" d="M 0 0 
L 0 3.5 
" style="stroke: #000000; stroke-width: 0.8"/>
      </defs>
      <g>
       <use xlink:href="#m38b40e05f4" x="82.855909" y="390.04" style="stroke: #000000; stroke-width: 0.8"/>
      </g>
     </g>
     <g id="text_1">
      <!-- 0 -->
      <g transform="translate(79.674659 404.638438) scale(0.1 -0.1)">
       <defs>
        <path id="DejaVuSans-30" d="M 2034 4250 
Q 1547 4250 1301 3770 
Q 1056 3291 1056 2328 
Q 1056 1369 1301 889 
Q 1547 409 2034 409 
Q 2525 409 2770 889 
Q 3016 1369 3016 2328 
Q 3016 3291 2770 3770 
Q 2525 4250 2034 4250 
z
M 2034 4750 
Q 2819 4750 3233 4129 
Q 3647 3509 3647 2328 
Q 3647 1150 3233 529 
Q 2819 -91 2034 -91 
Q 1250 -91 836 529 
Q 422 1150 422 2328 
Q 422 3509 836 4129 
Q 1250 4750 2034 4750 
z
" transform="scale(0.015625)"/>
       </defs>
       <use xlink:href="#DejaVuSans-30"/>
      </g>
     </g>
    </g>
    <g id="xtick_2">
     <g id="line2d_3">
      <path d="M 215.710738 390.04 
L 215.710738 25.44 
" clip-path="url(#p613d1c94f1)" style="fill: none; stroke: #b0b0b0; stroke-width: 0.8; stroke-linecap: square"/>
     </g>
     <g id="line2d_4">
      <g>
       <use xlink:href="#m38b40e05f4" x="215.710738" y="390.04" style="stroke: #000000; stroke-width: 0.8"/>
      </g>
     </g>
     <g id="text_2">
      <!-- 100 -->
      <g transform="translate(206.166988 404.638438) scale(0.1 -0.1)">
       <defs>
        <path id="DejaVuSans-31" d="M 794 531 
L 1825 531 
L 1825 4091 
L 703 3866 
L 703 4441 
L 1819 4666 
L 2450 4666 
L 2450 531 
L 3481 531 
L 3481 0 
L 794 0 
L 794 531 
z
" transform="scale(0.015625)"/>
       </defs>
       <use xlink:href="#DejaVuSans-31"/>
       <use xlink:href="#DejaVuSans-30" x="63.623047"/>
       <use xlink:href="#DejaVuSans-30" x="127.246094"/>
      </g>
     </g>
    </g>
    <g id="xtick_3">
     <g id="line2d_5">
      <path d="M 348.565567 390.04 
L 348.565567 25.44 
" clip-path="url(#p613d1c94f1)" style="fill: none; stroke: #b0b0b0; stroke-width: 0.8; stroke-linecap: square"/>
     </g>
     <g id="line2d_6">
      <g>
       <use xlink:href="#m38b40e05f4" x="348.565567" y="390.04" style="stroke: #000000; stroke-width: 0.8"/>
      </g>
     </g>
     <g id="text_3">
      <!-- 200 -->
      <g transform="translate(339.021817 404.638438) scale(0.1 -0.1)">
       <defs>
        <path id="DejaVuSans-32" d="M 1228 531 
L 3431 531 
L 3431 0 
L 469 0 
L 469 531 
Q 828 903 1448 1529 
Q 2069 2156 2228 2338 
Q 2531 2678 2651 2914 
Q 2772 3150 2772 3378 
Q 2772 3750 2511 3984 
Q 2250 4219 1831 4219 
Q 1534 4219 1204 4116 
Q 875 4013 500 3803 
L 500 4441 
Q 881 4594 1212 4672 
Q 1544 4750 1819 4750 
Q 2544 4750 2975 4387 
Q 3406 4025 3406 3419 
Q 3406 3131 3298 2873 
Q 3191 2616 2906 2266 
Q 2828 2175 2409 1742 
Q 1991 1309 1228 531 
z
" transform="scale(0.015625)"/>
       </defs>
       <use xlink:href="#DejaVuSans-32"/>
       <use xlink:href="#DejaVuSans-30" x="63.623047"/>
       <use xlink:href="#DejaVuSans-30" x="127.246094"/>
      </g>
     </g>
    </g>
    <g id="xtick_4">
     <g id="line2d_7">
      <path d="M 481.420396 390.04 
L 481.420396 25.44 
" clip-path="url(#p613d1c94f1)" style="fill: none; stroke: #b0b0b0; stroke-width: 0.8; stroke-linecap: square"/>
     </g>
     <g id="line2d_8">
      <g>
       <use xlink:href="#m38b40e05f4" x="481.420396" y="390.04" style="stroke: #000000; stroke-width: 0.8"/>
      </g>
     </g>
     <g id="text_4">
      <!-- 300 -->
      <g transform="translate(471.876646 404.638438) scale(0.1 -0.1)">
       <defs>
        <path id="DejaVuSans-33" d="M 2597 2516 
Q 3050 2419 3304 2112 
Q 3559 1806 3559 1356 
Q 3559 666 3084 287 
Q 2609 -91 1734 -91 
Q 1441 -91 1130 -33 
Q 819 25 488 141 
L 488 750 
Q 750 597 1062 519 
Q 1375 441 1716 441 
Q 2309 441 2620 675 
Q 2931 909 2931 1356 
Q 2931 1769 2642 2001 
Q 2353 2234 1838 2234 
L 1294 2234 
L 1294 2753 
L 1863 2753 
Q 2328 2753 2575 2939 
Q 2822 3125 2822 3475 
Q 2822 3834 2567 4026 
Q 2313 4219 1838 4219 
Q 1578 4219 1281 4162 
Q 984 4106 628 3988 
L 628 4550 
Q 988 4650 1302 4700 
Q 1616 4750 1894 4750 
Q 2613 4750 3031 4423 
Q 3450 4097 3450 3541 
Q 3450 3153 3228 2886 
Q 3006 2619 2597 2516 
z
" transform="scale(0.015625)"/>
       </defs>
       <use xlink:href="#DejaVuSans-33"/>
       <use xlink:href="#DejaVuSans-30" x="63.623047"/>
       <use xlink:href="#DejaVuSans-30" x="127.246094"/>
      </g>
     </g>
    </g>
    <g id="xtick_5">
     <g id="line2d_9">
      <path d="M 614.275225 390.04 
L 614.275225 25.44 
" clip-path="url(#p613d1c94f1)" style="fill: none; stroke: #b0b0b0; stroke-width: 0.8; stroke-linecap: square"/>
     </g>
     <g id="line2d_10">
      <g>
       <use xlink:href="#m38b40e05f4" x="614.275225" y="390.04" style="stroke: #000000; stroke-width: 0.8"/>
      </g>
     </g>
     <g id="text_5">
      <!-- 400 -->
      <g transform="translate(604.731475 404.638438) scale(0.1 -0.1)">
       <defs>
        <path id="DejaVuSans-34" d="M 2419 4116 
L 825 1625 
L 2419 1625 
L 2419 4116 
z
M 2253 4666 
L 3047 4666 
L 3047 1625 
L 3713 1625 
L 3713 1100 
L 3047 1100 
L 3047 0 
L 2419 0 
L 2419 1100 
L 313 1100 
L 313 1709 
L 2253 4666 
z
" transform="scale(0.015625)"/>
       </defs>
       <use xlink:href="#DejaVuSans-34"/>
       <use xlink:href="#DejaVuSans-30" x="63.623047"/>
       <use xlink:href="#DejaVuSans-30" x="127.246094"/>
      </g>
     </g>
    </g>
    <g id="text_6">
     <!-- Episode -->
     <g transform="translate(361.4775 418.316562) scale(0.1 -0.1)">
      <defs>
       <path id="DejaVuSans-45" d="M 628 4666 
L 3578 4666 
L 3578 4134 
L 1259 4134 
L 1259 2753 
L 3481 2753 
L 3481 2222 
L 1259 2222 
L 1259 531 
L 3634 531 
L 3634 0 
L 628 0 
L 628 4666 
z
" transform="scale(0.015625)"/>
       <path id="DejaVuSans-70" d="M 1159 525 
L 1159 -1331 
L 581 -1331 
L 581 3500 
L 1159 3500 
L 1159 2969 
Q 1341 3281 1617 3432 
Q 1894 3584 2278 3584 
Q 2916 3584 3314 3078 
Q 3713 2572 3713 1747 
Q 3713 922 3314 415 
Q 2916 -91 2278 -91 
Q 1894 -91 1617 61 
Q 1341 213 1159 525 
z
M 3116 1747 
Q 3116 2381 2855 2742 
Q 2594 3103 2138 3103 
Q 1681 3103 1420 2742 
Q 1159 2381 1159 1747 
Q 1159 1113 1420 752 
Q 1681 391 2138 391 
Q 2594 391 2855 752 
Q 3116 1113 3116 1747 
z
" transform="scale(0.015625)"/>
       <path id="DejaVuSans-69" d="M 603 3500 
L 1178 3500 
L 1178 0 
L 603 0 
L 603 3500 
z
M 603 4863 
L 1178 4863 
L 1178 4134 
L 603 4134 
L 603 4863 
z
" transform="scale(0.015625)"/>
       <path id="DejaVuSans-73" d="M 2834 3397 
L 2834 2853 
Q 2591 2978 2328 3040 
Q 2066 3103 1784 3103 
Q 1356 3103 1142 2972 
Q 928 2841 928 2578 
Q 928 2378 1081 2264 
Q 1234 2150 1697 2047 
L 1894 2003 
Q 2506 1872 2764 1633 
Q 3022 1394 3022 966 
Q 3022 478 2636 193 
Q 2250 -91 1575 -91 
Q 1294 -91 989 -36 
Q 684 19 347 128 
L 347 722 
Q 666 556 975 473 
Q 1284 391 1588 391 
Q 1994 391 2212 530 
Q 2431 669 2431 922 
Q 2431 1156 2273 1281 
Q 2116 1406 1581 1522 
L 1381 1569 
Q 847 1681 609 1914 
Q 372 2147 372 2553 
Q 372 3047 722 3315 
Q 1072 3584 1716 3584 
Q 2034 3584 2315 3537 
Q 2597 3491 2834 3397 
z
" transform="scale(0.015625)"/>
       <path id="DejaVuSans-6f" d="M 1959 3097 
Q 1497 3097 1228 2736 
Q 959 2375 959 1747 
Q 959 1119 1226 758 
Q 1494 397 1959 397 
Q 2419 397 2687 759 
Q 2956 1122 2956 1747 
Q 2956 2369 2687 2733 
Q 2419 3097 1959 3097 
z
M 1959 3584 
Q 2709 3584 3137 3096 
Q 3566 2609 3566 1747 
Q 3566 888 3137 398 
Q 2709 -91 1959 -91 
Q 1206 -91 779 398 
Q 353 888 353 1747 
Q 353 2609 779 3096 
Q 1206 3584 1959 3584 
z
" transform="scale(0.015625)"/>
       <path id="DejaVuSans-64" d="M 2906 2969 
L 2906 4863 
L 3481 4863 
L 3481 0 
L 2906 0 
L 2906 525 
Q 2725 213 2448 61 
Q 2172 -91 1784 -91 
Q 1150 -91 751 415 
Q 353 922 353 1747 
Q 353 2572 751 3078 
Q 1150 3584 1784 3584 
Q 2172 3584 2448 3432 
Q 2725 3281 2906 2969 
z
M 947 1747 
Q 947 1113 1208 752 
Q 1469 391 1925 391 
Q 2381 391 2643 752 
Q 2906 1113 2906 1747 
Q 2906 2381 2643 2742 
Q 2381 3103 1925 3103 
Q 1469 3103 1208 2742 
Q 947 2381 947 1747 
z
" transform="scale(0.015625)"/>
       <path id="DejaVuSans-65" d="M 3597 1894 
L 3597 1613 
L 953 1613 
Q 991 1019 1311 708 
Q 1631 397 2203 397 
Q 2534 397 2845 478 
Q 3156 559 3463 722 
L 3463 178 
Q 3153 47 2828 -22 
Q 2503 -91 2169 -91 
Q 1331 -91 842 396 
Q 353 884 353 1716 
Q 353 2575 817 3079 
Q 1281 3584 2069 3584 
Q 2775 3584 3186 3129 
Q 3597 2675 3597 1894 
z
M 3022 2063 
Q 3016 2534 2758 2815 
Q 2500 3097 2075 3097 
Q 1594 3097 1305 2825 
Q 1016 2553 972 2059 
L 3022 2063 
z
" transform="scale(0.015625)"/>
      </defs>
      <use xlink:href="#DejaVuSans-45"/>
      <use xlink:href="#DejaVuSans-70" x="63.183594"/>
      <use xlink:href="#DejaVuSans-69" x="126.660156"/>
      <use xlink:href="#DejaVuSans-73" x="154.443359"/>
      <use xlink:href="#DejaVuSans-6f" x="206.542969"/>
      <use xlink:href="#DejaVuSans-64" x="267.724609"/>
      <use xlink:href="#DejaVuSans-65" x="331.201172"/>
     </g>
    </g>
   </g>
   <g id="matplotlib.axis_2">
    <g id="ytick_1">
     <g id="line2d_11">
      <path d="M 53.03 362.978205 
L 709.2 362.978205 
" clip-path="url(#p613d1c94f1)" style="fill: none; stroke: #b0b0b0; stroke-width: 0.8; stroke-linecap: square"/>
     </g>
     <g id="line2d_12">
      <defs>
       <path id="m32174679bb" d="M 0 0 
L -3.5 0 
" style="stroke: #000000; stroke-width: 0.8"/>
      </defs>
      <g>
       <use xlink:href="#m32174679bb" x="53.03" y="362.978205" style="stroke: #000000; stroke-width: 0.8"/>
      </g>
     </g>
     <g id="text_7">
      <!-- −15 -->
      <g transform="translate(24.925313 366.777424) scale(0.1 -0.1)">
       <defs>
        <path id="DejaVuSans-2212" d="M 678 2272 
L 4684 2272 
L 4684 1741 
L 678 1741 
L 678 2272 
z
" transform="scale(0.015625)"/>
        <path id="DejaVuSans-35" d="M 691 4666 
L 3169 4666 
L 3169 4134 
L 1269 4134 
L 1269 2991 
Q 1406 3038 1543 3061 
Q 1681 3084 1819 3084 
Q 2600 3084 3056 2656 
Q 3513 2228 3513 1497 
Q 3513 744 3044 326 
Q 2575 -91 1722 -91 
Q 1428 -91 1123 -41 
Q 819 9 494 109 
L 494 744 
Q 775 591 1075 516 
Q 1375 441 1709 441 
Q 2250 441 2565 725 
Q 2881 1009 2881 1497 
Q 2881 1984 2565 2268 
Q 2250 2553 1709 2553 
Q 1456 2553 1204 2497 
Q 953 2441 691 2322 
L 691 4666 
z
" transform="scale(0.015625)"/>
       </defs>
       <use xlink:href="#DejaVuSans-2212"/>
       <use xlink:href="#DejaVuSans-31" x="83.789062"/>
       <use xlink:href="#DejaVuSans-35" x="147.412109"/>
      </g>
     </g>
    </g>
    <g id="ytick_2">
     <g id="line2d_13">
      <path d="M 53.03 314.728493 
L 709.2 314.728493 
" clip-path="url(#p613d1c94f1)" style="fill: none; stroke: #b0b0b0; stroke-width: 0.8; stroke-linecap: square"/>
     </g>
     <g id="line2d_14">
      <g>
       <use xlink:href="#m32174679bb" x="53.03" y="314.728493" style="stroke: #000000; stroke-width: 0.8"/>
      </g>
     </g>
     <g id="text_8">
      <!-- −10 -->
      <g transform="translate(24.925313 318.527711) scale(0.1 -0.1)">
       <use xlink:href="#DejaVuSans-2212"/>
       <use xlink:href="#DejaVuSans-31" x="83.789062"/>
       <use xlink:href="#DejaVuSans-30" x="147.412109"/>
      </g>
     </g>
    </g>
    <g id="ytick_3">
     <g id="line2d_15">
      <path d="M 53.03 266.47878 
L 709.2 266.47878 
" clip-path="url(#p613d1c94f1)" style="fill: none; stroke: #b0b0b0; stroke-width: 0.8; stroke-linecap: square"/>
     </g>
     <g id="line2d_16">
      <g>
       <use xlink:href="#m32174679bb" x="53.03" y="266.47878" style="stroke: #000000; stroke-width: 0.8"/>
      </g>
     </g>
     <g id="text_9">
      <!-- −5 -->
      <g transform="translate(31.287813 270.277999) scale(0.1 -0.1)">
       <use xlink:href="#DejaVuSans-2212"/>
       <use xlink:href="#DejaVuSans-35" x="83.789062"/>
      </g>
     </g>
    </g>
    <g id="ytick_4">
     <g id="line2d_17">
      <path d="M 53.03 218.229068 
L 709.2 218.229068 
" clip-path="url(#p613d1c94f1)" style="fill: none; stroke: #b0b0b0; stroke-width: 0.8; stroke-linecap: square"/>
     </g>
     <g id="line2d_18">
      <g>
       <use xlink:href="#m32174679bb" x="53.03" y="218.229068" style="stroke: #000000; stroke-width: 0.8"/>
      </g>
     </g>
     <g id="text_10">
      <!-- 0 -->
      <g transform="translate(39.6675 222.028287) scale(0.1 -0.1)">
       <use xlink:href="#DejaVuSans-30"/>
      </g>
     </g>
    </g>
    <g id="ytick_5">
     <g id="line2d_19">
      <path d="M 53.03 169.979356 
L 709.2 169.979356 
" clip-path="url(#p613d1c94f1)" style="fill: none; stroke: #b0b0b0; stroke-width: 0.8; stroke-linecap: square"/>
     </g>
     <g id="line2d_20">
      <g>
       <use xlink:href="#m32174679bb" x="53.03" y="169.979356" style="stroke: #000000; stroke-width: 0.8"/>
      </g>
     </g>
     <g id="text_11">
      <!-- 5 -->
      <g transform="translate(39.6675 173.778574) scale(0.1 -0.1)">
       <use xlink:href="#DejaVuSans-35"/>
      </g>
     </g>
    </g>
    <g id="ytick_6">
     <g id="line2d_21">
      <path d="M 53.03 121.729643 
L 709.2 121.729643 
" clip-path="url(#p613d1c94f1)" style="fill: none; stroke: #b0b0b0; stroke-width: 0.8; stroke-linecap: square"/>
     </g>
     <g id="line2d_22">
      <g>
       <use xlink:href="#m32174679bb" x="53.03" y="121.729643" style="stroke: #000000; stroke-width: 0.8"/>
      </g>
     </g>
     <g id="text_12">
      <!-- 10 -->
      <g transform="translate(33.305 125.528862) scale(0.1 -0.1)">
       <use xlink:href="#DejaVuSans-31"/>
       <use xlink:href="#DejaVuSans-30" x="63.623047"/>
      </g>
     </g>
    </g>
    <g id="ytick_7">
     <g id="line2d_23">
      <path d="M 53.03 73.479931 
L 709.2 73.479931 
" clip-path="url(#p613d1c94f1)" style="fill: none; stroke: #b0b0b0; stroke-width: 0.8; stroke-linecap: square"/>
     </g>
     <g id="line2d_24">
      <g>
       <use xlink:href="#m32174679bb" x="53.03" y="73.479931" style="stroke: #000000; stroke-width: 0.8"/>
      </g>
     </g>
     <g id="text_13">
      <!-- 15 -->
      <g transform="translate(33.305 77.27915) scale(0.1 -0.1)">
       <use xlink:href="#DejaVuSans-31"/>
       <use xlink:href="#DejaVuSans-35" x="63.623047"/>
      </g>
     </g>
    </g>
    <g id="text_14">
     <!-- Average Reward -->
     <g transform="translate(18.845625 248.482969) rotate(-90) scale(0.1 -0.1)">
      <defs>
       <path id="DejaVuSans-41" d="M 2188 4044 
L 1331 1722 
L 3047 1722 
L 2188 4044 
z
M 1831 4666 
L 2547 4666 
L 4325 0 
L 3669 0 
L 3244 1197 
L 1141 1197 
L 716 0 
L 50 0 
L 1831 4666 
z
" transform="scale(0.015625)"/>
       <path id="DejaVuSans-76" d="M 191 3500 
L 800 3500 
L 1894 563 
L 2988 3500 
L 3597 3500 
L 2284 0 
L 1503 0 
L 191 3500 
z
" transform="scale(0.015625)"/>
       <path id="DejaVuSans-72" d="M 2631 2963 
Q 2534 3019 2420 3045 
Q 2306 3072 2169 3072 
Q 1681 3072 1420 2755 
Q 1159 2438 1159 1844 
L 1159 0 
L 581 0 
L 581 3500 
L 1159 3500 
L 1159 2956 
Q 1341 3275 1631 3429 
Q 1922 3584 2338 3584 
Q 2397 3584 2469 3576 
Q 2541 3569 2628 3553 
L 2631 2963 
z
" transform="scale(0.015625)"/>
       <path id="DejaVuSans-61" d="M 2194 1759 
Q 1497 1759 1228 1600 
Q 959 1441 959 1056 
Q 959 750 1161 570 
Q 1363 391 1709 391 
Q 2188 391 2477 730 
Q 2766 1069 2766 1631 
L 2766 1759 
L 2194 1759 
z
M 3341 1997 
L 3341 0 
L 2766 0 
L 2766 531 
Q 2569 213 2275 61 
Q 1981 -91 1556 -91 
Q 1019 -91 701 211 
Q 384 513 384 1019 
Q 384 1609 779 1909 
Q 1175 2209 1959 2209 
L 2766 2209 
L 2766 2266 
Q 2766 2663 2505 2880 
Q 2244 3097 1772 3097 
Q 1472 3097 1187 3025 
Q 903 2953 641 2809 
L 641 3341 
Q 956 3463 1253 3523 
Q 1550 3584 1831 3584 
Q 2591 3584 2966 3190 
Q 3341 2797 3341 1997 
z
" transform="scale(0.015625)"/>
       <path id="DejaVuSans-67" d="M 2906 1791 
Q 2906 2416 2648 2759 
Q 2391 3103 1925 3103 
Q 1463 3103 1205 2759 
Q 947 2416 947 1791 
Q 947 1169 1205 825 
Q 1463 481 1925 481 
Q 2391 481 2648 825 
Q 2906 1169 2906 1791 
z
M 3481 434 
Q 3481 -459 3084 -895 
Q 2688 -1331 1869 -1331 
Q 1566 -1331 1297 -1286 
Q 1028 -1241 775 -1147 
L 775 -588 
Q 1028 -725 1275 -790 
Q 1522 -856 1778 -856 
Q 2344 -856 2625 -561 
Q 2906 -266 2906 331 
L 2906 616 
Q 2728 306 2450 153 
Q 2172 0 1784 0 
Q 1141 0 747 490 
Q 353 981 353 1791 
Q 353 2603 747 3093 
Q 1141 3584 1784 3584 
Q 2172 3584 2450 3431 
Q 2728 3278 2906 2969 
L 2906 3500 
L 3481 3500 
L 3481 434 
z
" transform="scale(0.015625)"/>
       <path id="DejaVuSans-20" transform="scale(0.015625)"/>
       <path id="DejaVuSans-52" d="M 2841 2188 
Q 3044 2119 3236 1894 
Q 3428 1669 3622 1275 
L 4263 0 
L 3584 0 
L 2988 1197 
Q 2756 1666 2539 1819 
Q 2322 1972 1947 1972 
L 1259 1972 
L 1259 0 
L 628 0 
L 628 4666 
L 2053 4666 
Q 2853 4666 3247 4331 
Q 3641 3997 3641 3322 
Q 3641 2881 3436 2590 
Q 3231 2300 2841 2188 
z
M 1259 4147 
L 1259 2491 
L 2053 2491 
Q 2509 2491 2742 2702 
Q 2975 2913 2975 3322 
Q 2975 3731 2742 3939 
Q 2509 4147 2053 4147 
L 1259 4147 
z
" transform="scale(0.015625)"/>
       <path id="DejaVuSans-77" d="M 269 3500 
L 844 3500 
L 1563 769 
L 2278 3500 
L 2956 3500 
L 3675 769 
L 4391 3500 
L 4966 3500 
L 4050 0 
L 3372 0 
L 2619 2869 
L 1863 0 
L 1184 0 
L 269 3500 
z
" transform="scale(0.015625)"/>
      </defs>
      <use xlink:href="#DejaVuSans-41"/>
      <use xlink:href="#DejaVuSans-76" x="62.533203"/>
      <use xlink:href="#DejaVuSans-65" x="121.712891"/>
      <use xlink:href="#DejaVuSans-72" x="183.236328"/>
      <use xlink:href="#DejaVuSans-61" x="224.349609"/>
      <use xlink:href="#DejaVuSans-67" x="285.628906"/>
      <use xlink:href="#DejaVuSans-65" x="349.105469"/>
      <use xlink:href="#DejaVuSans-20" x="410.628906"/>
      <use xlink:href="#DejaVuSans-52" x="442.416016"/>
      <use xlink:href="#DejaVuSans-65" x="507.398438"/>
      <use xlink:href="#DejaVuSans-77" x="568.921875"/>
      <use xlink:href="#DejaVuSans-61" x="650.708984"/>
      <use xlink:href="#DejaVuSans-72" x="711.988281"/>
      <use xlink:href="#DejaVuSans-64" x="751.351562"/>
     </g>
    </g>
   </g>
   <g id="line2d_25">
    <path d="M 82.855909 268.576594 
L 84.184457 272.772221 
L 85.513006 314.728493 
L 86.841554 235.011577 
L 88.170102 239.207204 
L 89.498651 239.207204 
L 90.827199 293.750357 
L 92.155747 289.55473 
L 93.484295 289.55473 
L 94.812844 239.207204 
L 96.141392 276.967848 
L 97.46994 243.402831 
L 98.798489 260.185339 
L 100.127037 302.141611 
L 101.455585 297.945984 
L 102.784133 247.598458 
L 104.112682 251.794085 
L 105.44123 281.163475 
L 106.769778 314.728493 
L 108.098327 230.815949 
L 109.426875 318.92412 
L 110.755423 247.598458 
L 112.083971 268.576594 
L 113.41252 281.163475 
L 114.741068 205.642186 
L 116.069616 276.967848 
L 117.398165 293.750357 
L 118.726713 297.945984 
L 120.055261 276.967848 
L 121.383809 260.185339 
L 122.712358 302.141611 
L 124.040906 339.902255 
L 125.369454 281.163475 
L 126.698003 281.163475 
L 128.026551 285.359102 
L 129.355099 302.141611 
L 130.683647 272.772221 
L 132.012196 293.750357 
L 133.340744 297.945984 
L 134.669292 281.163475 
L 135.997841 239.207204 
L 137.326389 243.402831 
L 138.654937 226.620322 
L 139.983486 235.011577 
L 141.312034 276.967848 
L 142.640582 272.772221 
L 143.96913 260.185339 
L 145.297679 285.359102 
L 146.626227 272.772221 
L 147.954775 293.750357 
L 149.283324 285.359102 
L 150.611872 268.576594 
L 151.94042 260.185339 
L 153.268968 318.92412 
L 154.597517 226.620322 
L 155.926065 276.967848 
L 157.254613 260.185339 
L 158.583162 276.967848 
L 159.91171 281.163475 
L 161.240258 222.424695 
L 162.568806 247.598458 
L 163.897355 268.576594 
L 165.225903 260.185339 
L 166.554451 226.620322 
L 167.883 297.945984 
L 169.211548 297.945984 
L 170.540096 281.163475 
L 171.868644 268.576594 
L 173.197193 264.380967 
L 174.525741 272.772221 
L 175.854289 264.380967 
L 177.182838 272.772221 
L 178.511386 260.185339 
L 179.839934 230.815949 
L 181.168482 289.55473 
L 182.497031 281.163475 
L 183.825579 276.967848 
L 185.154127 243.402831 
L 186.482676 264.380967 
L 187.811224 201.446559 
L 189.139772 314.728493 
L 190.468321 214.033441 
L 191.796869 209.837814 
L 193.125417 218.229068 
L 194.453965 251.794085 
L 195.782514 255.989712 
L 197.111062 268.576594 
L 198.43961 214.033441 
L 199.768159 264.380967 
L 201.096707 205.642186 
L 202.425255 268.576594 
L 203.753803 247.598458 
L 205.082352 272.772221 
L 206.4109 235.011577 
L 207.739448 239.207204 
L 209.067997 276.967848 
L 210.396545 239.207204 
L 211.725093 239.207204 
L 213.053641 226.620322 
L 214.38219 293.750357 
L 215.710738 289.55473 
L 217.039286 268.576594 
L 218.367835 239.207204 
L 219.696383 230.815949 
L 221.024931 251.794085 
L 222.353479 201.446559 
L 223.682028 209.837814 
L 225.010576 260.185339 
L 226.339124 255.989712 
L 227.667673 247.598458 
L 228.996221 247.598458 
L 230.324769 214.033441 
L 231.653317 239.207204 
L 232.981866 260.185339 
L 234.310414 272.772221 
L 235.638962 201.446559 
L 236.967511 281.163475 
L 239.624607 214.033441 
L 240.953155 247.598458 
L 242.281704 226.620322 
L 243.610252 235.011577 
L 244.9388 247.598458 
L 246.267349 235.011577 
L 247.595897 230.815949 
L 248.924445 255.989712 
L 250.252994 272.772221 
L 251.581542 214.033441 
L 252.91009 222.424695 
L 254.238638 255.989712 
L 255.567187 281.163475 
L 256.895735 272.772221 
L 258.224283 243.402831 
L 259.552832 272.772221 
L 260.88138 193.055305 
L 262.209928 163.685915 
L 263.538476 264.380967 
L 267.524121 239.207204 
L 268.85267 214.033441 
L 270.181218 226.620322 
L 271.509766 218.229068 
L 272.838314 247.598458 
L 274.166863 222.424695 
L 275.495411 251.794085 
L 276.823959 264.380967 
L 278.152508 218.229068 
L 279.481056 235.011577 
L 280.809604 209.837814 
L 282.138152 205.642186 
L 283.466701 268.576594 
L 284.795249 276.967848 
L 286.123797 226.620322 
L 287.452346 239.207204 
L 288.780894 302.141611 
L 290.109442 214.033441 
L 291.43799 230.815949 
L 292.766539 255.989712 
L 294.095087 193.055305 
L 295.423635 226.620322 
L 296.752184 214.033441 
L 298.080732 209.837814 
L 299.40928 167.881542 
L 300.737829 214.033441 
L 302.066377 218.229068 
L 303.394925 176.272796 
L 304.723473 193.055305 
L 306.052022 281.163475 
L 307.38057 264.380967 
L 308.709118 201.446559 
L 310.037667 205.642186 
L 311.366215 239.207204 
L 312.694763 222.424695 
L 314.023311 230.815949 
L 315.35186 197.250932 
L 316.680408 230.815949 
L 318.008956 247.598458 
L 319.337505 230.815949 
L 320.666053 209.837814 
L 321.994601 239.207204 
L 323.323149 247.598458 
L 324.651698 205.642186 
L 325.980246 264.380967 
L 327.308794 209.837814 
L 328.637343 255.989712 
L 329.965891 226.620322 
L 332.622987 209.837814 
L 333.951536 247.598458 
L 335.280084 230.815949 
L 336.608632 222.424695 
L 337.937181 205.642186 
L 339.265729 281.163475 
L 340.594277 226.620322 
L 341.922825 205.642186 
L 343.251374 260.185339 
L 344.579922 188.859678 
L 345.90847 205.642186 
L 347.237019 251.794085 
L 348.565567 222.424695 
L 349.894115 222.424695 
L 351.222663 260.185339 
L 352.551212 255.989712 
L 353.87976 222.424695 
L 355.208308 197.250932 
L 356.536857 226.620322 
L 357.865405 205.642186 
L 359.193953 226.620322 
L 360.522502 235.011577 
L 361.85105 201.446559 
L 363.179598 218.229068 
L 364.508146 184.664051 
L 365.836695 272.772221 
L 367.165243 214.033441 
L 368.493791 197.250932 
L 369.82234 222.424695 
L 371.150888 205.642186 
L 372.479436 180.468423 
L 373.807984 239.207204 
L 375.136533 214.033441 
L 376.465081 214.033441 
L 377.793629 264.380967 
L 379.122178 209.837814 
L 380.450726 214.033441 
L 381.779274 314.728493 
L 383.107822 209.837814 
L 384.436371 205.642186 
L 385.764919 214.033441 
L 387.093467 214.033441 
L 388.422016 197.250932 
L 389.750564 218.229068 
L 391.079112 214.033441 
L 392.40766 226.620322 
L 393.736209 188.859678 
L 395.064757 188.859678 
L 396.393305 193.055305 
L 397.721854 209.837814 
L 399.050402 201.446559 
L 400.37895 239.207204 
L 401.707498 193.055305 
L 403.036047 172.077169 
L 404.364595 205.642186 
L 405.693143 230.815949 
L 407.021692 176.272796 
L 408.35024 205.642186 
L 409.678788 214.033441 
L 411.007337 184.664051 
L 412.335885 180.468423 
L 413.664433 172.077169 
L 414.992981 214.033441 
L 416.32153 222.424695 
L 417.650078 159.490288 
L 418.978626 239.207204 
L 420.307175 197.250932 
L 421.635723 247.598458 
L 422.964271 205.642186 
L 424.292819 184.664051 
L 425.621368 184.664051 
L 426.949916 197.250932 
L 428.278464 243.402831 
L 429.607013 184.664051 
L 430.935561 214.033441 
L 432.264109 235.011577 
L 433.592657 197.250932 
L 434.921206 197.250932 
L 436.249754 180.468423 
L 437.578302 188.859678 
L 438.906851 255.989712 
L 440.235399 188.859678 
L 441.563947 201.446559 
L 442.892495 243.402831 
L 444.221044 180.468423 
L 445.549592 272.772221 
L 446.87814 222.424695 
L 448.206689 197.250932 
L 449.535237 193.055305 
L 450.863785 180.468423 
L 452.192333 205.642186 
L 453.520882 226.620322 
L 454.84943 163.685915 
L 456.177978 201.446559 
L 457.506527 180.468423 
L 458.835075 180.468423 
L 460.163623 172.077169 
L 461.492171 197.250932 
L 462.82072 193.055305 
L 464.149268 180.468423 
L 465.477816 180.468423 
L 466.806365 155.294661 
L 468.134913 209.837814 
L 469.463461 180.468423 
L 470.79201 180.468423 
L 472.120558 239.207204 
L 473.449106 205.642186 
L 474.777654 247.598458 
L 476.106203 180.468423 
L 477.434751 222.424695 
L 478.763299 214.033441 
L 481.420396 172.077169 
L 482.748944 197.250932 
L 484.077492 197.250932 
L 485.406041 214.033441 
L 486.734589 205.642186 
L 488.063137 180.468423 
L 489.391686 180.468423 
L 490.720234 172.077169 
L 492.048782 184.664051 
L 493.37733 235.011577 
L 494.705879 218.229068 
L 496.034427 218.229068 
L 497.362975 163.685915 
L 498.691524 235.011577 
L 500.020072 214.033441 
L 501.34862 172.077169 
L 502.677168 205.642186 
L 504.005717 155.294661 
L 505.334265 180.468423 
L 506.662813 193.055305 
L 507.991362 188.859678 
L 510.648458 188.859678 
L 511.977006 205.642186 
L 513.305555 176.272796 
L 514.634103 197.250932 
L 517.2912 163.685915 
L 518.619748 193.055305 
L 519.948296 167.881542 
L 521.276845 180.468423 
L 522.605393 201.446559 
L 523.933941 197.250932 
L 525.262489 180.468423 
L 526.591038 180.468423 
L 527.919586 205.642186 
L 529.248134 176.272796 
L 530.576683 163.685915 
L 531.905231 188.859678 
L 533.233779 209.837814 
L 534.562327 180.468423 
L 535.890876 163.685915 
L 537.219424 193.055305 
L 538.547972 172.077169 
L 539.876521 188.859678 
L 541.205069 172.077169 
L 542.533617 188.859678 
L 545.190714 180.468423 
L 546.519262 163.685915 
L 547.84781 180.468423 
L 549.176359 193.055305 
L 550.504907 163.685915 
L 551.833455 197.250932 
L 553.162003 159.490288 
L 554.490552 163.685915 
L 555.8191 214.033441 
L 557.147648 214.033441 
L 558.476197 172.077169 
L 559.804745 155.294661 
L 561.133293 184.664051 
L 562.461841 180.468423 
L 563.79039 197.250932 
L 565.118938 209.837814 
L 566.447486 197.250932 
L 567.776035 222.424695 
L 569.104583 180.468423 
L 570.433131 155.294661 
L 571.761679 201.446559 
L 573.090228 172.077169 
L 574.418776 180.468423 
L 575.747324 163.685915 
L 577.075873 163.685915 
L 578.404421 214.033441 
L 579.732969 172.077169 
L 581.061518 167.881542 
L 582.390066 197.250932 
L 583.718614 218.229068 
L 585.047162 197.250932 
L 586.375711 155.294661 
L 587.704259 155.294661 
L 589.032807 180.468423 
L 591.689904 163.685915 
L 593.018452 180.468423 
L 594.347 155.294661 
L 595.675549 167.881542 
L 597.004097 155.294661 
L 598.332645 167.881542 
L 599.661194 184.664051 
L 600.989742 172.077169 
L 602.31829 180.468423 
L 604.975387 180.468423 
L 606.303935 167.881542 
L 607.632483 180.468423 
L 608.961032 163.685915 
L 610.28958 155.294661 
L 611.618128 163.685915 
L 612.946676 180.468423 
L 614.275225 176.272796 
L 615.603773 155.294661 
L 616.932321 155.294661 
L 618.26087 167.881542 
L 619.589418 155.294661 
L 620.917966 205.642186 
L 622.246514 155.294661 
L 623.575063 172.077169 
L 624.903611 180.468423 
L 626.232159 163.685915 
L 627.560708 163.685915 
L 628.889256 155.294661 
L 630.217804 159.490288 
L 631.546353 180.468423 
L 632.874901 180.468423 
L 634.203449 155.294661 
L 635.531997 163.685915 
L 636.860546 180.468423 
L 638.189094 155.294661 
L 640.846191 155.294661 
L 642.174739 163.685915 
L 643.503287 180.468423 
L 644.831835 155.294661 
L 646.160384 155.294661 
L 647.488932 172.077169 
L 648.81748 172.077169 
L 650.146029 155.294661 
L 652.803125 155.294661 
L 655.460222 172.077169 
L 656.78877 155.294661 
L 658.117318 172.077169 
L 659.445867 155.294661 
L 668.745705 155.294661 
L 670.074253 163.685915 
L 671.402801 155.294661 
L 679.374091 155.294661 
L 679.374091 155.294661 
" clip-path="url(#p613d1c94f1)" style="fill: none; stroke: #1f77b4; stroke-width: 1.5; stroke-linecap: square"/>
   </g>
   <g id="line2d_26">
    <path d="M 82.855909 318.92412 
L 84.184457 264.380967 
L 85.513006 373.467273 
L 86.841554 184.664051 
L 88.170102 255.989712 
L 89.498651 268.576594 
L 90.827199 214.033441 
L 92.155747 272.772221 
L 93.484295 260.185339 
L 94.812844 281.163475 
L 96.141392 272.772221 
L 97.46994 297.945984 
L 98.798489 251.794085 
L 101.455585 209.837814 
L 102.784133 306.337238 
L 104.112682 247.598458 
L 105.44123 255.989712 
L 106.769778 318.92412 
L 108.098327 251.794085 
L 109.426875 272.772221 
L 110.755423 230.815949 
L 112.083971 193.055305 
L 113.41252 289.55473 
L 114.741068 222.424695 
L 116.069616 323.119747 
L 117.398165 285.359102 
L 118.726713 306.337238 
L 120.055261 293.750357 
L 121.383809 251.794085 
L 122.712358 276.967848 
L 124.040906 272.772221 
L 125.369454 289.55473 
L 126.698003 260.185339 
L 128.026551 214.033441 
L 129.355099 293.750357 
L 130.683647 235.011577 
L 132.012196 314.728493 
L 134.669292 272.772221 
L 135.997841 264.380967 
L 137.326389 214.033441 
L 138.654937 243.402831 
L 139.983486 205.642186 
L 141.312034 251.794085 
L 142.640582 230.815949 
L 143.96913 310.532865 
L 145.297679 310.532865 
L 146.626227 209.837814 
L 147.954775 331.511001 
L 149.283324 264.380967 
L 150.611872 235.011577 
L 151.94042 243.402831 
L 153.268968 205.642186 
L 154.597517 197.250932 
L 155.926065 297.945984 
L 158.583162 230.815949 
L 159.91171 222.424695 
L 161.240258 243.402831 
L 162.568806 268.576594 
L 163.897355 218.229068 
L 169.211548 201.446559 
L 170.540096 239.207204 
L 171.868644 235.011577 
L 173.197193 255.989712 
L 174.525741 268.576594 
L 175.854289 184.664051 
L 177.182838 209.837814 
L 178.511386 314.728493 
L 179.839934 226.620322 
L 181.168482 235.011577 
L 182.497031 255.989712 
L 183.825579 180.468423 
L 185.154127 289.55473 
L 186.482676 222.424695 
L 187.811224 209.837814 
L 189.139772 272.772221 
L 190.468321 163.685915 
L 191.796869 197.250932 
L 193.125417 209.837814 
L 194.453965 218.229068 
L 195.782514 184.664051 
L 197.111062 218.229068 
L 198.43961 268.576594 
L 199.768159 260.185339 
L 201.096707 163.685915 
L 202.425255 247.598458 
L 203.753803 218.229068 
L 205.082352 205.642186 
L 206.4109 218.229068 
L 207.739448 255.989712 
L 209.067997 255.989712 
L 210.396545 297.945984 
L 211.725093 188.859678 
L 213.053641 230.815949 
L 215.710738 222.424695 
L 217.039286 209.837814 
L 218.367835 318.92412 
L 219.696383 260.185339 
L 221.024931 188.859678 
L 222.353479 163.685915 
L 223.682028 260.185339 
L 225.010576 205.642186 
L 226.339124 243.402831 
L 227.667673 201.446559 
L 228.996221 167.881542 
L 230.324769 214.033441 
L 231.653317 243.402831 
L 232.981866 172.077169 
L 234.310414 255.989712 
L 235.638962 184.664051 
L 236.967511 293.750357 
L 238.296059 201.446559 
L 239.624607 260.185339 
L 240.953155 163.685915 
L 242.281704 235.011577 
L 243.610252 188.859678 
L 244.9388 239.207204 
L 246.267349 310.532865 
L 247.595897 155.294661 
L 248.924445 293.750357 
L 250.252994 243.402831 
L 251.581542 172.077169 
L 252.91009 264.380967 
L 254.238638 264.380967 
L 255.567187 155.294661 
L 256.895735 264.380967 
L 258.224283 214.033441 
L 259.552832 130.120898 
L 260.88138 184.664051 
L 262.209928 209.837814 
L 263.538476 163.685915 
L 264.867025 230.815949 
L 266.195573 184.664051 
L 267.524121 197.250932 
L 268.85267 251.794085 
L 270.181218 167.881542 
L 271.509766 222.424695 
L 272.838314 243.402831 
L 274.166863 104.947135 
L 275.495411 159.490288 
L 276.823959 222.424695 
L 278.152508 176.272796 
L 279.481056 142.707779 
L 280.809604 272.772221 
L 282.138152 155.294661 
L 283.466701 201.446559 
L 284.795249 214.033441 
L 286.123797 247.598458 
L 287.452346 214.033441 
L 288.780894 251.794085 
L 290.109442 214.033441 
L 291.43799 184.664051 
L 292.766539 134.316525 
L 294.095087 218.229068 
L 295.423635 222.424695 
L 296.752184 151.099033 
L 298.080732 184.664051 
L 299.40928 138.512152 
L 300.737829 235.011577 
L 302.066377 209.837814 
L 303.394925 134.316525 
L 304.723473 180.468423 
L 306.052022 188.859678 
L 307.38057 184.664051 
L 308.709118 188.859678 
L 310.037667 209.837814 
L 311.366215 276.967848 
L 312.694763 184.664051 
L 314.023311 260.185339 
L 315.35186 163.685915 
L 316.680408 222.424695 
L 318.008956 209.837814 
L 319.337505 184.664051 
L 320.666053 222.424695 
L 321.994601 176.272796 
L 323.323149 180.468423 
L 324.651698 125.92527 
L 325.980246 83.968999 
L 327.308794 188.859678 
L 328.637343 218.229068 
L 329.965891 209.837814 
L 331.294439 172.077169 
L 332.622987 193.055305 
L 333.951536 188.859678 
L 335.280084 214.033441 
L 336.608632 134.316525 
L 337.937181 209.837814 
L 339.265729 230.815949 
L 340.594277 155.294661 
L 341.922825 146.903406 
L 343.251374 155.294661 
L 344.579922 138.512152 
L 345.90847 155.294661 
L 347.237019 243.402831 
L 348.565567 205.642186 
L 349.894115 176.272796 
L 351.222663 180.468423 
L 352.551212 176.272796 
L 353.87976 239.207204 
L 355.208308 167.881542 
L 356.536857 163.685915 
L 357.865405 239.207204 
L 359.193953 155.294661 
L 360.522502 163.685915 
L 361.85105 117.534016 
L 363.179598 134.316525 
L 364.508146 180.468423 
L 365.836695 163.685915 
L 367.165243 235.011577 
L 368.493791 180.468423 
L 369.82234 172.077169 
L 371.150888 100.751507 
L 372.479436 134.316525 
L 373.807984 151.099033 
L 375.136533 146.903406 
L 376.465081 121.729643 
L 377.793629 180.468423 
L 379.122178 104.947135 
L 380.450726 109.142762 
L 381.779274 264.380967 
L 383.107822 134.316525 
L 384.436371 176.272796 
L 385.764919 146.903406 
L 387.093467 146.903406 
L 388.422016 104.947135 
L 389.750564 172.077169 
L 391.079112 134.316525 
L 392.40766 121.729643 
L 393.736209 100.751507 
L 395.064757 201.446559 
L 396.393305 125.92527 
L 397.721854 167.881542 
L 399.050402 184.664051 
L 400.37895 184.664051 
L 401.707498 117.534016 
L 403.036047 184.664051 
L 404.364595 130.120898 
L 405.693143 130.120898 
L 407.021692 230.815949 
L 408.35024 125.92527 
L 409.678788 92.360253 
L 411.007337 155.294661 
L 412.335885 163.685915 
L 413.664433 134.316525 
L 414.992981 188.859678 
L 416.32153 167.881542 
L 417.650078 100.751507 
L 418.978626 167.881542 
L 420.307175 226.620322 
L 421.635723 214.033441 
L 422.964271 104.947135 
L 424.292819 130.120898 
L 425.621368 113.338389 
L 426.949916 121.729643 
L 428.278464 142.707779 
L 430.935561 142.707779 
L 432.264109 159.490288 
L 433.592657 104.947135 
L 434.921206 113.338389 
L 436.249754 176.272796 
L 437.578302 100.751507 
L 438.906851 184.664051 
L 440.235399 151.099033 
L 441.563947 163.685915 
L 442.892495 151.099033 
L 444.221044 117.534016 
L 445.549592 163.685915 
L 446.87814 155.294661 
L 448.206689 117.534016 
L 449.535237 151.099033 
L 450.863785 71.382117 
L 452.192333 180.468423 
L 453.520882 159.490288 
L 454.84943 104.947135 
L 456.177978 159.490288 
L 457.506527 138.512152 
L 458.835075 155.294661 
L 460.163623 159.490288 
L 461.492171 184.664051 
L 462.82072 142.707779 
L 464.149268 130.120898 
L 465.477816 92.360253 
L 466.806365 167.881542 
L 468.134913 138.512152 
L 469.463461 167.881542 
L 470.79201 155.294661 
L 472.120558 117.534016 
L 473.449106 151.099033 
L 474.777654 180.468423 
L 476.106203 134.316525 
L 477.434751 100.751507 
L 478.763299 117.534016 
L 480.091848 100.751507 
L 481.420396 130.120898 
L 482.748944 109.142762 
L 484.077492 155.294661 
L 485.406041 121.729643 
L 486.734589 121.729643 
L 488.063137 142.707779 
L 489.391686 100.751507 
L 490.720234 113.338389 
L 492.048782 121.729643 
L 493.37733 125.92527 
L 494.705879 172.077169 
L 496.034427 92.360253 
L 497.362975 167.881542 
L 498.691524 146.903406 
L 500.020072 113.338389 
L 501.34862 109.142762 
L 502.677168 134.316525 
L 504.005717 104.947135 
L 505.334265 83.968999 
L 506.662813 100.751507 
L 507.991362 172.077169 
L 509.31991 71.382117 
L 510.648458 121.729643 
L 511.977006 96.55588 
L 513.305555 92.360253 
L 514.634103 163.685915 
L 515.962651 113.338389 
L 517.2912 100.751507 
L 518.619748 83.968999 
L 519.948296 83.968999 
L 521.276845 155.294661 
L 522.605393 113.338389 
L 523.933941 163.685915 
L 525.262489 117.534016 
L 526.591038 100.751507 
L 527.919586 79.773372 
L 529.248134 134.316525 
L 530.576683 109.142762 
L 531.905231 109.142762 
L 533.233779 79.773372 
L 534.562327 79.773372 
L 535.890876 71.382117 
L 537.219424 125.92527 
L 538.547972 92.360253 
L 539.876521 50.403982 
L 541.205069 117.534016 
L 542.533617 71.382117 
L 543.862165 92.360253 
L 545.190714 104.947135 
L 546.519262 71.382117 
L 547.84781 121.729643 
L 549.176359 79.773372 
L 550.504907 100.751507 
L 551.833455 201.446559 
L 553.162003 109.142762 
L 554.490552 50.403982 
L 555.8191 96.55588 
L 557.147648 109.142762 
L 558.476197 62.990863 
L 559.804745 79.773372 
L 561.133293 75.577745 
L 562.461841 134.316525 
L 563.79039 109.142762 
L 565.118938 75.577745 
L 566.447486 138.512152 
L 569.104583 121.729643 
L 570.433131 92.360253 
L 571.761679 96.55588 
L 573.090228 71.382117 
L 574.418776 113.338389 
L 575.747324 100.751507 
L 577.075873 109.142762 
L 578.404421 138.512152 
L 579.732969 142.707779 
L 581.061518 83.968999 
L 582.390066 96.55588 
L 583.718614 96.55588 
L 585.047162 104.947135 
L 586.375711 71.382117 
L 587.704259 42.012727 
L 589.032807 92.360253 
L 590.361356 75.577745 
L 591.689904 75.577745 
L 593.018452 104.947135 
L 594.347 62.990863 
L 595.675549 62.990863 
L 597.004097 71.382117 
L 598.332645 75.577745 
L 599.661194 67.18649 
L 600.989742 100.751507 
L 602.31829 104.947135 
L 603.646838 79.773372 
L 604.975387 79.773372 
L 606.303935 100.751507 
L 607.632483 54.599609 
L 608.961032 96.55588 
L 610.28958 58.795236 
L 611.618128 79.773372 
L 614.275225 54.599609 
L 615.603773 62.990863 
L 616.932321 62.990863 
L 618.26087 104.947135 
L 619.589418 75.577745 
L 620.917966 79.773372 
L 622.246514 58.795236 
L 624.903611 50.403982 
L 626.232159 83.968999 
L 627.560708 42.012727 
L 628.889256 42.012727 
L 630.217804 83.968999 
L 631.546353 100.751507 
L 632.874901 75.577745 
L 634.203449 58.795236 
L 635.531997 58.795236 
L 636.860546 96.55588 
L 638.189094 42.012727 
L 639.517642 75.577745 
L 640.846191 58.795236 
L 642.174739 50.403982 
L 643.503287 75.577745 
L 644.831835 58.795236 
L 646.160384 50.403982 
L 647.488932 58.795236 
L 650.146029 58.795236 
L 651.474577 42.012727 
L 652.803125 42.012727 
L 654.131673 67.18649 
L 655.460222 79.773372 
L 656.78877 42.012727 
L 658.117318 58.795236 
L 659.445867 46.208354 
L 660.774415 58.795236 
L 662.102963 58.795236 
L 663.431511 42.012727 
L 664.76006 58.795236 
L 666.088608 42.012727 
L 675.388446 42.012727 
L 676.716994 67.18649 
L 678.045543 42.012727 
L 679.374091 42.012727 
L 679.374091 42.012727 
" clip-path="url(#p613d1c94f1)" style="fill: none; stroke: #ff7f0e; stroke-width: 1.5; stroke-linecap: square"/>
   </g>
   <g id="line2d_27">
    <path d="M 82.855909 344.097883 
L 85.513006 293.750357 
L 86.841554 276.967848 
L 88.170102 327.315374 
L 89.498651 327.315374 
L 90.827199 310.532865 
L 93.484295 310.532865 
L 94.812844 302.141611 
L 96.141392 302.141611 
L 98.798489 318.92412 
L 100.127037 268.576594 
L 101.455585 302.141611 
L 102.784133 302.141611 
L 104.112682 310.532865 
L 105.44123 276.967848 
L 106.769778 302.141611 
L 108.098327 302.141611 
L 109.426875 285.359102 
L 110.755423 293.750357 
L 112.083971 310.532865 
L 113.41252 318.92412 
L 114.741068 302.141611 
L 116.069616 344.097883 
L 117.398165 302.141611 
L 118.726713 285.359102 
L 120.055261 327.315374 
L 122.712358 293.750357 
L 124.040906 318.92412 
L 125.369454 302.141611 
L 126.698003 310.532865 
L 128.026551 335.706628 
L 129.355099 318.92412 
L 130.683647 318.92412 
L 132.012196 276.967848 
L 133.340744 293.750357 
L 134.669292 302.141611 
L 135.997841 285.359102 
L 138.654937 285.359102 
L 139.983486 344.097883 
L 141.312034 327.315374 
L 142.640582 285.359102 
L 143.96913 310.532865 
L 145.297679 310.532865 
L 146.626227 302.141611 
L 147.954775 268.576594 
L 149.283324 268.576594 
L 150.611872 302.141611 
L 151.94042 302.141611 
L 153.268968 293.750357 
L 154.597517 293.750357 
L 155.926065 327.315374 
L 157.254613 260.185339 
L 158.583162 302.141611 
L 159.91171 310.532865 
L 161.240258 293.750357 
L 162.568806 310.532865 
L 165.225903 327.315374 
L 166.554451 293.750357 
L 167.883 293.750357 
L 169.211548 327.315374 
L 170.540096 302.141611 
L 171.868644 268.576594 
L 173.197193 318.92412 
L 174.525741 327.315374 
L 175.854289 344.097883 
L 177.182838 268.576594 
L 178.511386 310.532865 
L 179.839934 293.750357 
L 181.168482 302.141611 
L 182.497031 285.359102 
L 183.825579 327.315374 
L 185.154127 302.141611 
L 186.482676 302.141611 
L 187.811224 293.750357 
L 189.139772 293.750357 
L 190.468321 260.185339 
L 191.796869 310.532865 
L 193.125417 268.576594 
L 194.453965 285.359102 
L 195.782514 327.315374 
L 197.111062 293.750357 
L 198.43961 251.794085 
L 199.768159 276.967848 
L 201.096707 327.315374 
L 202.425255 243.402831 
L 203.753803 310.532865 
L 205.082352 268.576594 
L 206.4109 276.967848 
L 207.739448 335.706628 
L 209.067997 293.750357 
L 211.725093 276.967848 
L 213.053641 302.141611 
L 214.38219 293.750357 
L 215.710738 318.92412 
L 217.039286 268.576594 
L 218.367835 302.141611 
L 219.696383 285.359102 
L 221.024931 285.359102 
L 222.353479 276.967848 
L 223.682028 276.967848 
L 225.010576 302.141611 
L 226.339124 276.967848 
L 227.667673 310.532865 
L 228.996221 293.750357 
L 230.324769 293.750357 
L 231.653317 268.576594 
L 232.981866 276.967848 
L 234.310414 276.967848 
L 235.638962 260.185339 
L 236.967511 310.532865 
L 238.296059 268.576594 
L 239.624607 293.750357 
L 240.953155 327.315374 
L 242.281704 310.532865 
L 243.610252 310.532865 
L 244.9388 285.359102 
L 246.267349 226.620322 
L 247.595897 310.532865 
L 248.924445 310.532865 
L 250.252994 318.92412 
L 251.581542 276.967848 
L 252.91009 285.359102 
L 254.238638 276.967848 
L 255.567187 293.750357 
L 256.895735 302.141611 
L 258.224283 285.359102 
L 259.552832 260.185339 
L 260.88138 285.359102 
L 262.209928 251.794085 
L 263.538476 251.794085 
L 264.867025 302.141611 
L 266.195573 268.576594 
L 267.524121 293.750357 
L 268.85267 276.967848 
L 270.181218 302.141611 
L 271.509766 302.141611 
L 272.838314 285.359102 
L 274.166863 260.185339 
L 275.495411 310.532865 
L 276.823959 285.359102 
L 278.152508 276.967848 
L 279.481056 293.750357 
L 280.809604 285.359102 
L 282.138152 260.185339 
L 283.466701 251.794085 
L 284.795249 293.750357 
L 286.123797 302.141611 
L 287.452346 268.576594 
L 288.780894 302.141611 
L 290.109442 268.576594 
L 291.43799 302.141611 
L 292.766539 268.576594 
L 298.080732 302.141611 
L 299.40928 268.576594 
L 300.737829 285.359102 
L 302.066377 276.967848 
L 303.394925 293.750357 
L 304.723473 243.402831 
L 306.052022 285.359102 
L 307.38057 276.967848 
L 308.709118 251.794085 
L 310.037667 276.967848 
L 311.366215 285.359102 
L 312.694763 268.576594 
L 314.023311 285.359102 
L 315.35186 276.967848 
L 320.666053 276.967848 
L 321.994601 243.402831 
L 323.323149 268.576594 
L 324.651698 243.402831 
L 325.980246 285.359102 
L 327.308794 310.532865 
L 328.637343 260.185339 
L 329.965891 268.576594 
L 331.294439 251.794085 
L 332.622987 302.141611 
L 333.951536 260.185339 
L 335.280084 251.794085 
L 336.608632 276.967848 
L 337.937181 268.576594 
L 339.265729 251.794085 
L 340.594277 285.359102 
L 341.922825 260.185339 
L 343.251374 268.576594 
L 344.579922 293.750357 
L 345.90847 268.576594 
L 347.237019 268.576594 
L 348.565567 276.967848 
L 349.894115 293.750357 
L 351.222663 260.185339 
L 352.551212 268.576594 
L 353.87976 268.576594 
L 355.208308 251.794085 
L 356.536857 260.185339 
L 357.865405 260.185339 
L 359.193953 276.967848 
L 360.522502 260.185339 
L 361.85105 235.011577 
L 363.179598 285.359102 
L 364.508146 285.359102 
L 365.836695 268.576594 
L 367.165243 268.576594 
L 368.493791 276.967848 
L 369.82234 302.141611 
L 371.150888 251.794085 
L 373.807984 251.794085 
L 375.136533 268.576594 
L 377.793629 268.576594 
L 379.122178 276.967848 
L 380.450726 310.532865 
L 381.779274 302.141611 
L 383.107822 243.402831 
L 384.436371 268.576594 
L 385.764919 276.967848 
L 387.093467 260.185339 
L 388.422016 268.576594 
L 391.079112 302.141611 
L 392.40766 268.576594 
L 393.736209 285.359102 
L 395.064757 260.185339 
L 396.393305 285.359102 
L 397.721854 285.359102 
L 399.050402 243.402831 
L 400.37895 260.185339 
L 401.707498 251.794085 
L 403.036047 276.967848 
L 404.364595 243.402831 
L 405.693143 260.185339 
L 407.021692 251.794085 
L 408.35024 251.794085 
L 409.678788 260.185339 
L 411.007337 243.402831 
L 412.335885 235.011577 
L 413.664433 260.185339 
L 414.992981 260.185339 
L 416.32153 243.402831 
L 418.978626 260.185339 
L 420.307175 243.402831 
L 421.635723 285.359102 
L 422.964271 243.402831 
L 424.292819 243.402831 
L 425.621368 235.011577 
L 426.949916 302.141611 
L 428.278464 268.576594 
L 429.607013 260.185339 
L 430.935561 243.402831 
L 432.264109 243.402831 
L 433.592657 268.576594 
L 436.249754 251.794085 
L 438.906851 268.576594 
L 441.563947 235.011577 
L 442.892495 285.359102 
L 444.221044 260.185339 
L 445.549592 276.967848 
L 446.87814 260.185339 
L 448.206689 235.011577 
L 450.863785 268.576594 
L 452.192333 235.011577 
L 453.520882 243.402831 
L 454.84943 268.576594 
L 456.177978 251.794085 
L 457.506527 251.794085 
L 458.835075 268.576594 
L 460.163623 243.402831 
L 461.492171 260.185339 
L 462.82072 268.576594 
L 464.149268 243.402831 
L 465.477816 243.402831 
L 466.806365 276.967848 
L 469.463461 243.402831 
L 470.79201 251.794085 
L 472.120558 243.402831 
L 473.449106 251.794085 
L 474.777654 293.750357 
L 476.106203 235.011577 
L 477.434751 243.402831 
L 478.763299 235.011577 
L 480.091848 251.794085 
L 481.420396 276.967848 
L 482.748944 243.402831 
L 484.077492 226.620322 
L 486.734589 276.967848 
L 488.063137 260.185339 
L 489.391686 226.620322 
L 490.720234 235.011577 
L 492.048782 251.794085 
L 496.034427 251.794085 
L 497.362975 235.011577 
L 498.691524 226.620322 
L 500.020072 226.620322 
L 501.34862 260.185339 
L 502.677168 268.576594 
L 504.005717 251.794085 
L 505.334265 243.402831 
L 506.662813 243.402831 
L 507.991362 226.620322 
L 509.31991 218.229068 
L 510.648458 260.185339 
L 511.977006 251.794085 
L 513.305555 276.967848 
L 514.634103 235.011577 
L 515.962651 235.011577 
L 517.2912 251.794085 
L 518.619748 235.011577 
L 519.948296 251.794085 
L 521.276845 260.185339 
L 523.933941 226.620322 
L 525.262489 235.011577 
L 526.591038 226.620322 
L 527.919586 235.011577 
L 529.248134 251.794085 
L 531.905231 251.794085 
L 533.233779 243.402831 
L 534.562327 218.229068 
L 535.890876 243.402831 
L 537.219424 226.620322 
L 538.547972 235.011577 
L 539.876521 251.794085 
L 541.205069 235.011577 
L 542.533617 251.794085 
L 543.862165 235.011577 
L 545.190714 226.620322 
L 546.519262 226.620322 
L 550.504907 251.794085 
L 551.833455 226.620322 
L 553.162003 243.402831 
L 554.490552 243.402831 
L 555.8191 226.620322 
L 557.147648 226.620322 
L 558.476197 243.402831 
L 561.133293 226.620322 
L 562.461841 226.620322 
L 563.79039 251.794085 
L 565.118938 226.620322 
L 566.447486 260.185339 
L 567.776035 243.402831 
L 569.104583 251.794085 
L 571.761679 218.229068 
L 573.090228 243.402831 
L 574.418776 226.620322 
L 575.747324 226.620322 
L 577.075873 260.185339 
L 578.404421 243.402831 
L 579.732969 235.011577 
L 581.061518 218.229068 
L 582.390066 235.011577 
L 583.718614 218.229068 
L 585.047162 226.620322 
L 586.375711 218.229068 
L 587.704259 226.620322 
L 589.032807 243.402831 
L 590.361356 235.011577 
L 591.689904 251.794085 
L 593.018452 218.229068 
L 594.347 243.402831 
L 595.675549 243.402831 
L 597.004097 235.011577 
L 598.332645 243.402831 
L 599.661194 235.011577 
L 600.989742 235.011577 
L 603.646838 218.229068 
L 604.975387 226.620322 
L 606.303935 218.229068 
L 607.632483 235.011577 
L 608.961032 218.229068 
L 611.618128 235.011577 
L 612.946676 218.229068 
L 616.932321 218.229068 
L 618.26087 243.402831 
L 619.589418 226.620322 
L 620.917966 218.229068 
L 622.246514 226.620322 
L 623.575063 218.229068 
L 624.903611 218.229068 
L 626.232159 226.620322 
L 627.560708 243.402831 
L 631.546353 218.229068 
L 632.874901 235.011577 
L 634.203449 243.402831 
L 635.531997 243.402831 
L 636.860546 226.620322 
L 638.189094 226.620322 
L 639.517642 235.011577 
L 640.846191 218.229068 
L 643.503287 218.229068 
L 644.831835 226.620322 
L 646.160384 243.402831 
L 647.488932 235.011577 
L 648.81748 218.229068 
L 650.146029 226.620322 
L 651.474577 218.229068 
L 654.131673 235.011577 
L 656.78877 218.229068 
L 658.117318 218.229068 
L 659.445867 226.620322 
L 660.774415 218.229068 
L 664.76006 218.229068 
L 666.088608 226.620322 
L 667.417156 226.620322 
L 668.745705 218.229068 
L 679.374091 218.229068 
L 679.374091 218.229068 
" clip-path="url(#p613d1c94f1)" style="fill: none; stroke: #2ca02c; stroke-width: 1.5; stroke-linecap: square"/>
   </g>
   <g id="patch_3">
    <path d="M 53.03 390.04 
L 53.03 25.44 
" style="fill: none; stroke: #000000; stroke-width: 0.8; stroke-linejoin: miter; stroke-linecap: square"/>
   </g>
   <g id="patch_4">
    <path d="M 709.2 390.04 
L 709.2 25.44 
" style="fill: none; stroke: #000000; stroke-width: 0.8; stroke-linejoin: miter; stroke-linecap: square"/>
   </g>
   <g id="patch_5">
    <path d="M 53.03 390.04 
L 709.2 390.04 
" style="fill: none; stroke: #000000; stroke-width: 0.8; stroke-linejoin: miter; stroke-linecap: square"/>
   </g>
   <g id="patch_6">
    <path d="M 53.03 25.44 
L 709.2 25.44 
" style="fill: none; stroke: #000000; stroke-width: 0.8; stroke-linejoin: miter; stroke-linecap: square"/>
   </g>
   <g id="text_15">
    <!-- Average Reward per Episode by Agent -->
    <g transform="translate(265.943125 19.44) scale(0.12 -0.12)">
     <defs>
      <path id="DejaVuSans-62" d="M 3116 1747 
Q 3116 2381 2855 2742 
Q 2594 3103 2138 3103 
Q 1681 3103 1420 2742 
Q 1159 2381 1159 1747 
Q 1159 1113 1420 752 
Q 1681 391 2138 391 
Q 2594 391 2855 752 
Q 3116 1113 3116 1747 
z
M 1159 2969 
Q 1341 3281 1617 3432 
Q 1894 3584 2278 3584 
Q 2916 3584 3314 3078 
Q 3713 2572 3713 1747 
Q 3713 922 3314 415 
Q 2916 -91 2278 -91 
Q 1894 -91 1617 61 
Q 1341 213 1159 525 
L 1159 0 
L 581 0 
L 581 4863 
L 1159 4863 
L 1159 2969 
z
" transform="scale(0.015625)"/>
      <path id="DejaVuSans-79" d="M 2059 -325 
Q 1816 -950 1584 -1140 
Q 1353 -1331 966 -1331 
L 506 -1331 
L 506 -850 
L 844 -850 
Q 1081 -850 1212 -737 
Q 1344 -625 1503 -206 
L 1606 56 
L 191 3500 
L 800 3500 
L 1894 763 
L 2988 3500 
L 3597 3500 
L 2059 -325 
z
" transform="scale(0.015625)"/>
      <path id="DejaVuSans-6e" d="M 3513 2113 
L 3513 0 
L 2938 0 
L 2938 2094 
Q 2938 2591 2744 2837 
Q 2550 3084 2163 3084 
Q 1697 3084 1428 2787 
Q 1159 2491 1159 1978 
L 1159 0 
L 581 0 
L 581 3500 
L 1159 3500 
L 1159 2956 
Q 1366 3272 1645 3428 
Q 1925 3584 2291 3584 
Q 2894 3584 3203 3211 
Q 3513 2838 3513 2113 
z
" transform="scale(0.015625)"/>
      <path id="DejaVuSans-74" d="M 1172 4494 
L 1172 3500 
L 2356 3500 
L 2356 3053 
L 1172 3053 
L 1172 1153 
Q 1172 725 1289 603 
Q 1406 481 1766 481 
L 2356 481 
L 2356 0 
L 1766 0 
Q 1100 0 847 248 
Q 594 497 594 1153 
L 594 3053 
L 172 3053 
L 172 3500 
L 594 3500 
L 594 4494 
L 1172 4494 
z
" transform="scale(0.015625)"/>
     </defs>
     <use xlink:href="#DejaVuSans-41"/>
     <use xlink:href="#DejaVuSans-76" x="62.533203"/>
     <use xlink:href="#DejaVuSans-65" x="121.712891"/>
     <use xlink:href="#DejaVuSans-72" x="183.236328"/>
     <use xlink:href="#DejaVuSans-61" x="224.349609"/>
     <use xlink:href="#DejaVuSans-67" x="285.628906"/>
     <use xlink:href="#DejaVuSans-65" x="349.105469"/>
     <use xlink:href="#DejaVuSans-20" x="410.628906"/>
     <use xlink:href="#DejaVuSans-52" x="442.416016"/>
     <use xlink:href="#DejaVuSans-65" x="507.398438"/>
     <use xlink:href="#DejaVuSans-77" x="568.921875"/>
     <use xlink:href="#DejaVuSans-61" x="650.708984"/>
     <use xlink:href="#DejaVuSans-72" x="711.988281"/>
     <use xlink:href="#DejaVuSans-64" x="751.351562"/>
     <use xlink:href="#DejaVuSans-20" x="814.828125"/>
     <use xlink:href="#DejaVuSans-70" x="846.615234"/>
     <use xlink:href="#DejaVuSans-65" x="910.091797"/>
     <use xlink:href="#DejaVuSans-72" x="971.615234"/>
     <use xlink:href="#DejaVuSans-20" x="1012.728516"/>
     <use xlink:href="#DejaVuSans-45" x="1044.515625"/>
     <use xlink:href="#DejaVuSans-70" x="1107.699219"/>
     <use xlink:href="#DejaVuSans-69" x="1171.175781"/>
     <use xlink:href="#DejaVuSans-73" x="1198.958984"/>
     <use xlink:href="#DejaVuSans-6f" x="1251.058594"/>
     <use xlink:href="#DejaVuSans-64" x="1312.240234"/>
     <use xlink:href="#DejaVuSans-65" x="1375.716797"/>
     <use xlink:href="#DejaVuSans-20" x="1437.240234"/>
     <use xlink:href="#DejaVuSans-62" x="1469.027344"/>
     <use xlink:href="#DejaVuSans-79" x="1532.503906"/>
     <use xlink:href="#DejaVuSans-20" x="1591.683594"/>
     <use xlink:href="#DejaVuSans-41" x="1623.470703"/>
     <use xlink:href="#DejaVuSans-67" x="1691.878906"/>
     <use xlink:href="#DejaVuSans-65" x="1755.355469"/>
     <use xlink:href="#DejaVuSans-6e" x="1816.878906"/>
     <use xlink:href="#DejaVuSans-74" x="1880.257812"/>
    </g>
   </g>
   <g id="legend_1">
    <g id="patch_7">
     <path d="M 60.03 77.474375 
L 207.825313 77.474375 
Q 209.825313 77.474375 209.825313 75.474375 
L 209.825313 32.44 
Q 209.825313 30.44 207.825313 30.44 
L 60.03 30.44 
Q 58.03 30.44 58.03 32.44 
L 58.03 75.474375 
Q 58.03 77.474375 60.03 77.474375 
z
" style="fill: #ffffff; opacity: 0.8; stroke: #cccccc; stroke-linejoin: miter"/>
    </g>
    <g id="line2d_28">
     <path d="M 62.03 38.538437 
L 72.03 38.538437 
L 82.03 38.538437 
" style="fill: none; stroke: #1f77b4; stroke-width: 1.5; stroke-linecap: square"/>
    </g>
    <g id="text_16">
     <!-- solar - Average Reward -->
     <g transform="translate(90.03 42.038437) scale(0.1 -0.1)">
      <defs>
       <path id="DejaVuSans-6c" d="M 603 4863 
L 1178 4863 
L 1178 0 
L 603 0 
L 603 4863 
z
" transform="scale(0.015625)"/>
       <path id="DejaVuSans-2d" d="M 313 2009 
L 1997 2009 
L 1997 1497 
L 313 1497 
L 313 2009 
z
" transform="scale(0.015625)"/>
      </defs>
      <use xlink:href="#DejaVuSans-73"/>
      <use xlink:href="#DejaVuSans-6f" x="52.099609"/>
      <use xlink:href="#DejaVuSans-6c" x="113.28125"/>
      <use xlink:href="#DejaVuSans-61" x="141.064453"/>
      <use xlink:href="#DejaVuSans-72" x="202.34375"/>
      <use xlink:href="#DejaVuSans-20" x="243.457031"/>
      <use xlink:href="#DejaVuSans-2d" x="275.244141"/>
      <use xlink:href="#DejaVuSans-20" x="311.328125"/>
      <use xlink:href="#DejaVuSans-41" x="343.115234"/>
      <use xlink:href="#DejaVuSans-76" x="405.648438"/>
      <use xlink:href="#DejaVuSans-65" x="464.828125"/>
      <use xlink:href="#DejaVuSans-72" x="526.351562"/>
      <use xlink:href="#DejaVuSans-61" x="567.464844"/>
      <use xlink:href="#DejaVuSans-67" x="628.744141"/>
      <use xlink:href="#DejaVuSans-65" x="692.220703"/>
      <use xlink:href="#DejaVuSans-20" x="753.744141"/>
      <use xlink:href="#DejaVuSans-52" x="785.53125"/>
      <use xlink:href="#DejaVuSans-65" x="850.513672"/>
      <use xlink:href="#DejaVuSans-77" x="912.037109"/>
      <use xlink:href="#DejaVuSans-61" x="993.824219"/>
      <use xlink:href="#DejaVuSans-72" x="1055.103516"/>
      <use xlink:href="#DejaVuSans-64" x="1094.466797"/>
     </g>
    </g>
    <g id="line2d_29">
     <path d="M 62.03 53.216563 
L 72.03 53.216563 
L 82.03 53.216563 
" style="fill: none; stroke: #ff7f0e; stroke-width: 1.5; stroke-linecap: square"/>
    </g>
    <g id="text_17">
     <!-- bat - Average Reward -->
     <g transform="translate(90.03 56.716563) scale(0.1 -0.1)">
      <use xlink:href="#DejaVuSans-62"/>
      <use xlink:href="#DejaVuSans-61" x="63.476562"/>
      <use xlink:href="#DejaVuSans-74" x="124.755859"/>
      <use xlink:href="#DejaVuSans-20" x="163.964844"/>
      <use xlink:href="#DejaVuSans-2d" x="195.751953"/>
      <use xlink:href="#DejaVuSans-20" x="231.835938"/>
      <use xlink:href="#DejaVuSans-41" x="263.623047"/>
      <use xlink:href="#DejaVuSans-76" x="326.15625"/>
      <use xlink:href="#DejaVuSans-65" x="385.335938"/>
      <use xlink:href="#DejaVuSans-72" x="446.859375"/>
      <use xlink:href="#DejaVuSans-61" x="487.972656"/>
      <use xlink:href="#DejaVuSans-67" x="549.251953"/>
      <use xlink:href="#DejaVuSans-65" x="612.728516"/>
      <use xlink:href="#DejaVuSans-20" x="674.251953"/>
      <use xlink:href="#DejaVuSans-52" x="706.039062"/>
      <use xlink:href="#DejaVuSans-65" x="771.021484"/>
      <use xlink:href="#DejaVuSans-77" x="832.544922"/>
      <use xlink:href="#DejaVuSans-61" x="914.332031"/>
      <use xlink:href="#DejaVuSans-72" x="975.611328"/>
      <use xlink:href="#DejaVuSans-64" x="1014.974609"/>
     </g>
    </g>
    <g id="line2d_30">
     <path d="M 62.03 67.894687 
L 72.03 67.894687 
L 82.03 67.894687 
" style="fill: none; stroke: #2ca02c; stroke-width: 1.5; stroke-linecap: square"/>
    </g>
    <g id="text_18">
     <!-- grid - Average Reward -->
     <g transform="translate(90.03 71.394687) scale(0.1 -0.1)">
      <use xlink:href="#DejaVuSans-67"/>
      <use xlink:href="#DejaVuSans-72" x="63.476562"/>
      <use xlink:href="#DejaVuSans-69" x="104.589844"/>
      <use xlink:href="#DejaVuSans-64" x="132.373047"/>
      <use xlink:href="#DejaVuSans-20" x="195.849609"/>
      <use xlink:href="#DejaVuSans-2d" x="227.636719"/>
      <use xlink:href="#DejaVuSans-20" x="263.720703"/>
      <use xlink:href="#DejaVuSans-41" x="295.507812"/>
      <use xlink:href="#DejaVuSans-76" x="358.041016"/>
      <use xlink:href="#DejaVuSans-65" x="417.220703"/>
      <use xlink:href="#DejaVuSans-72" x="478.744141"/>
      <use xlink:href="#DejaVuSans-61" x="519.857422"/>
      <use xlink:href="#DejaVuSans-67" x="581.136719"/>
      <use xlink:href="#DejaVuSans-65" x="644.613281"/>
      <use xlink:href="#DejaVuSans-20" x="706.136719"/>
      <use xlink:href="#DejaVuSans-52" x="737.923828"/>
      <use xlink:href="#DejaVuSans-65" x="802.90625"/>
      <use xlink:href="#DejaVuSans-77" x="864.429688"/>
      <use xlink:href="#DejaVuSans-61" x="946.216797"/>
      <use xlink:href="#DejaVuSans-72" x="1007.496094"/>
      <use xlink:href="#DejaVuSans-64" x="1046.859375"/>
     </g>
    </g>
   </g>
  </g>
 </g>
 <defs>
  <clipPath id="p613d1c94f1">
   <rect x="53.03" y="25.44" width="656.17" height="364.6"/>
  </clipPath>
 </defs>
</svg>
