<?xml version="1.0" encoding="utf-8" standalone="no"?>
<!DOCTYPE svg PUBLIC "-//W3C//DTD SVG 1.1//EN"
  "http://www.w3.org/Graphics/SVG/1.1/DTD/svg11.dtd">
<svg xmlns:xlink="http://www.w3.org/1999/xlink" width="720pt" height="432pt" viewBox="0 0 720 432" xmlns="http://www.w3.org/2000/svg" version="1.1">
 <metadata>
  <rdf:RDF xmlns:dc="http://purl.org/dc/elements/1.1/" xmlns:cc="http://creativecommons.org/ns#" xmlns:rdf="http://www.w3.org/1999/02/22-rdf-syntax-ns#">
   <cc:Work>
    <dc:type rdf:resource="http://purl.org/dc/dcmitype/StillImage"/>
    <dc:date>2025-06-05T13:41:23.922309</dc:date>
    <dc:format>image/svg+xml</dc:format>
    <dc:creator>
     <cc:Agent>
      <dc:title>Matplotlib v3.8.4, https://matplotlib.org/</dc:title>
     </cc:Agent>
    </dc:creator>
   </cc:Work>
  </rdf:RDF>
 </metadata>
 <defs>
  <style type="text/css">*{stroke-linejoin: round; stroke-linecap: butt}</style>
 </defs>
 <g id="figure_1">
  <g id="patch_1">
   <path d="M 0 432 
L 720 432 
L 720 0 
L 0 0 
z
" style="fill: #ffffff"/>
  </g>
  <g id="axes_1">
   <g id="patch_2">
    <path d="M 53.03 390.04 
L 709.2 390.04 
L 709.2 25.44 
L 53.03 25.44 
z
" style="fill: #ffffff"/>
   </g>
   <g id="matplotlib.axis_1">
    <g id="xtick_1">
     <g id="line2d_1">
      <path d="M 82.855909 390.04 
L 82.855909 25.44 
" clip-path="url(#p5724f9d77d)" style="fill: none; stroke: #b0b0b0; stroke-width: 0.8; stroke-linecap: square"/>
     </g>
     <g id="line2d_2">
      <defs>
       <path id="me3eb00aa52" d="M 0 0 
L 0 3.5 
" style="stroke: #000000; stroke-width: 0.8"/>
      </defs>
      <g>
       <use xlink:href="#me3eb00aa52" x="82.855909" y="390.04" style="stroke: #000000; stroke-width: 0.8"/>
      </g>
     </g>
     <g id="text_1">
      <!-- 0 -->
      <g transform="translate(79.674659 404.638438) scale(0.1 -0.1)">
       <defs>
        <path id="DejaVuSans-30" d="M 2034 4250 
Q 1547 4250 1301 3770 
Q 1056 3291 1056 2328 
Q 1056 1369 1301 889 
Q 1547 409 2034 409 
Q 2525 409 2770 889 
Q 3016 1369 3016 2328 
Q 3016 3291 2770 3770 
Q 2525 4250 2034 4250 
z
M 2034 4750 
Q 2819 4750 3233 4129 
Q 3647 3509 3647 2328 
Q 3647 1150 3233 529 
Q 2819 -91 2034 -91 
Q 1250 -91 836 529 
Q 422 1150 422 2328 
Q 422 3509 836 4129 
Q 1250 4750 2034 4750 
z
" transform="scale(0.015625)"/>
       </defs>
       <use xlink:href="#DejaVuSans-30"/>
      </g>
     </g>
    </g>
    <g id="xtick_2">
     <g id="line2d_3">
      <path d="M 215.710738 390.04 
L 215.710738 25.44 
" clip-path="url(#p5724f9d77d)" style="fill: none; stroke: #b0b0b0; stroke-width: 0.8; stroke-linecap: square"/>
     </g>
     <g id="line2d_4">
      <g>
       <use xlink:href="#me3eb00aa52" x="215.710738" y="390.04" style="stroke: #000000; stroke-width: 0.8"/>
      </g>
     </g>
     <g id="text_2">
      <!-- 100 -->
      <g transform="translate(206.166988 404.638438) scale(0.1 -0.1)">
       <defs>
        <path id="DejaVuSans-31" d="M 794 531 
L 1825 531 
L 1825 4091 
L 703 3866 
L 703 4441 
L 1819 4666 
L 2450 4666 
L 2450 531 
L 3481 531 
L 3481 0 
L 794 0 
L 794 531 
z
" transform="scale(0.015625)"/>
       </defs>
       <use xlink:href="#DejaVuSans-31"/>
       <use xlink:href="#DejaVuSans-30" x="63.623047"/>
       <use xlink:href="#DejaVuSans-30" x="127.246094"/>
      </g>
     </g>
    </g>
    <g id="xtick_3">
     <g id="line2d_5">
      <path d="M 348.565567 390.04 
L 348.565567 25.44 
" clip-path="url(#p5724f9d77d)" style="fill: none; stroke: #b0b0b0; stroke-width: 0.8; stroke-linecap: square"/>
     </g>
     <g id="line2d_6">
      <g>
       <use xlink:href="#me3eb00aa52" x="348.565567" y="390.04" style="stroke: #000000; stroke-width: 0.8"/>
      </g>
     </g>
     <g id="text_3">
      <!-- 200 -->
      <g transform="translate(339.021817 404.638438) scale(0.1 -0.1)">
       <defs>
        <path id="DejaVuSans-32" d="M 1228 531 
L 3431 531 
L 3431 0 
L 469 0 
L 469 531 
Q 828 903 1448 1529 
Q 2069 2156 2228 2338 
Q 2531 2678 2651 2914 
Q 2772 3150 2772 3378 
Q 2772 3750 2511 3984 
Q 2250 4219 1831 4219 
Q 1534 4219 1204 4116 
Q 875 4013 500 3803 
L 500 4441 
Q 881 4594 1212 4672 
Q 1544 4750 1819 4750 
Q 2544 4750 2975 4387 
Q 3406 4025 3406 3419 
Q 3406 3131 3298 2873 
Q 3191 2616 2906 2266 
Q 2828 2175 2409 1742 
Q 1991 1309 1228 531 
z
" transform="scale(0.015625)"/>
       </defs>
       <use xlink:href="#DejaVuSans-32"/>
       <use xlink:href="#DejaVuSans-30" x="63.623047"/>
       <use xlink:href="#DejaVuSans-30" x="127.246094"/>
      </g>
     </g>
    </g>
    <g id="xtick_4">
     <g id="line2d_7">
      <path d="M 481.420396 390.04 
L 481.420396 25.44 
" clip-path="url(#p5724f9d77d)" style="fill: none; stroke: #b0b0b0; stroke-width: 0.8; stroke-linecap: square"/>
     </g>
     <g id="line2d_8">
      <g>
       <use xlink:href="#me3eb00aa52" x="481.420396" y="390.04" style="stroke: #000000; stroke-width: 0.8"/>
      </g>
     </g>
     <g id="text_4">
      <!-- 300 -->
      <g transform="translate(471.876646 404.638438) scale(0.1 -0.1)">
       <defs>
        <path id="DejaVuSans-33" d="M 2597 2516 
Q 3050 2419 3304 2112 
Q 3559 1806 3559 1356 
Q 3559 666 3084 287 
Q 2609 -91 1734 -91 
Q 1441 -91 1130 -33 
Q 819 25 488 141 
L 488 750 
Q 750 597 1062 519 
Q 1375 441 1716 441 
Q 2309 441 2620 675 
Q 2931 909 2931 1356 
Q 2931 1769 2642 2001 
Q 2353 2234 1838 2234 
L 1294 2234 
L 1294 2753 
L 1863 2753 
Q 2328 2753 2575 2939 
Q 2822 3125 2822 3475 
Q 2822 3834 2567 4026 
Q 2313 4219 1838 4219 
Q 1578 4219 1281 4162 
Q 984 4106 628 3988 
L 628 4550 
Q 988 4650 1302 4700 
Q 1616 4750 1894 4750 
Q 2613 4750 3031 4423 
Q 3450 4097 3450 3541 
Q 3450 3153 3228 2886 
Q 3006 2619 2597 2516 
z
" transform="scale(0.015625)"/>
       </defs>
       <use xlink:href="#DejaVuSans-33"/>
       <use xlink:href="#DejaVuSans-30" x="63.623047"/>
       <use xlink:href="#DejaVuSans-30" x="127.246094"/>
      </g>
     </g>
    </g>
    <g id="xtick_5">
     <g id="line2d_9">
      <path d="M 614.275225 390.04 
L 614.275225 25.44 
" clip-path="url(#p5724f9d77d)" style="fill: none; stroke: #b0b0b0; stroke-width: 0.8; stroke-linecap: square"/>
     </g>
     <g id="line2d_10">
      <g>
       <use xlink:href="#me3eb00aa52" x="614.275225" y="390.04" style="stroke: #000000; stroke-width: 0.8"/>
      </g>
     </g>
     <g id="text_5">
      <!-- 400 -->
      <g transform="translate(604.731475 404.638438) scale(0.1 -0.1)">
       <defs>
        <path id="DejaVuSans-34" d="M 2419 4116 
L 825 1625 
L 2419 1625 
L 2419 4116 
z
M 2253 4666 
L 3047 4666 
L 3047 1625 
L 3713 1625 
L 3713 1100 
L 3047 1100 
L 3047 0 
L 2419 0 
L 2419 1100 
L 313 1100 
L 313 1709 
L 2253 4666 
z
" transform="scale(0.015625)"/>
       </defs>
       <use xlink:href="#DejaVuSans-34"/>
       <use xlink:href="#DejaVuSans-30" x="63.623047"/>
       <use xlink:href="#DejaVuSans-30" x="127.246094"/>
      </g>
     </g>
    </g>
    <g id="text_6">
     <!-- Episode -->
     <g transform="translate(361.4775 418.316562) scale(0.1 -0.1)">
      <defs>
       <path id="DejaVuSans-45" d="M 628 4666 
L 3578 4666 
L 3578 4134 
L 1259 4134 
L 1259 2753 
L 3481 2753 
L 3481 2222 
L 1259 2222 
L 1259 531 
L 3634 531 
L 3634 0 
L 628 0 
L 628 4666 
z
" transform="scale(0.015625)"/>
       <path id="DejaVuSans-70" d="M 1159 525 
L 1159 -1331 
L 581 -1331 
L 581 3500 
L 1159 3500 
L 1159 2969 
Q 1341 3281 1617 3432 
Q 1894 3584 2278 3584 
Q 2916 3584 3314 3078 
Q 3713 2572 3713 1747 
Q 3713 922 3314 415 
Q 2916 -91 2278 -91 
Q 1894 -91 1617 61 
Q 1341 213 1159 525 
z
M 3116 1747 
Q 3116 2381 2855 2742 
Q 2594 3103 2138 3103 
Q 1681 3103 1420 2742 
Q 1159 2381 1159 1747 
Q 1159 1113 1420 752 
Q 1681 391 2138 391 
Q 2594 391 2855 752 
Q 3116 1113 3116 1747 
z
" transform="scale(0.015625)"/>
       <path id="DejaVuSans-69" d="M 603 3500 
L 1178 3500 
L 1178 0 
L 603 0 
L 603 3500 
z
M 603 4863 
L 1178 4863 
L 1178 4134 
L 603 4134 
L 603 4863 
z
" transform="scale(0.015625)"/>
       <path id="DejaVuSans-73" d="M 2834 3397 
L 2834 2853 
Q 2591 2978 2328 3040 
Q 2066 3103 1784 3103 
Q 1356 3103 1142 2972 
Q 928 2841 928 2578 
Q 928 2378 1081 2264 
Q 1234 2150 1697 2047 
L 1894 2003 
Q 2506 1872 2764 1633 
Q 3022 1394 3022 966 
Q 3022 478 2636 193 
Q 2250 -91 1575 -91 
Q 1294 -91 989 -36 
Q 684 19 347 128 
L 347 722 
Q 666 556 975 473 
Q 1284 391 1588 391 
Q 1994 391 2212 530 
Q 2431 669 2431 922 
Q 2431 1156 2273 1281 
Q 2116 1406 1581 1522 
L 1381 1569 
Q 847 1681 609 1914 
Q 372 2147 372 2553 
Q 372 3047 722 3315 
Q 1072 3584 1716 3584 
Q 2034 3584 2315 3537 
Q 2597 3491 2834 3397 
z
" transform="scale(0.015625)"/>
       <path id="DejaVuSans-6f" d="M 1959 3097 
Q 1497 3097 1228 2736 
Q 959 2375 959 1747 
Q 959 1119 1226 758 
Q 1494 397 1959 397 
Q 2419 397 2687 759 
Q 2956 1122 2956 1747 
Q 2956 2369 2687 2733 
Q 2419 3097 1959 3097 
z
M 1959 3584 
Q 2709 3584 3137 3096 
Q 3566 2609 3566 1747 
Q 3566 888 3137 398 
Q 2709 -91 1959 -91 
Q 1206 -91 779 398 
Q 353 888 353 1747 
Q 353 2609 779 3096 
Q 1206 3584 1959 3584 
z
" transform="scale(0.015625)"/>
       <path id="DejaVuSans-64" d="M 2906 2969 
L 2906 4863 
L 3481 4863 
L 3481 0 
L 2906 0 
L 2906 525 
Q 2725 213 2448 61 
Q 2172 -91 1784 -91 
Q 1150 -91 751 415 
Q 353 922 353 1747 
Q 353 2572 751 3078 
Q 1150 3584 1784 3584 
Q 2172 3584 2448 3432 
Q 2725 3281 2906 2969 
z
M 947 1747 
Q 947 1113 1208 752 
Q 1469 391 1925 391 
Q 2381 391 2643 752 
Q 2906 1113 2906 1747 
Q 2906 2381 2643 2742 
Q 2381 3103 1925 3103 
Q 1469 3103 1208 2742 
Q 947 2381 947 1747 
z
" transform="scale(0.015625)"/>
       <path id="DejaVuSans-65" d="M 3597 1894 
L 3597 1613 
L 953 1613 
Q 991 1019 1311 708 
Q 1631 397 2203 397 
Q 2534 397 2845 478 
Q 3156 559 3463 722 
L 3463 178 
Q 3153 47 2828 -22 
Q 2503 -91 2169 -91 
Q 1331 -91 842 396 
Q 353 884 353 1716 
Q 353 2575 817 3079 
Q 1281 3584 2069 3584 
Q 2775 3584 3186 3129 
Q 3597 2675 3597 1894 
z
M 3022 2063 
Q 3016 2534 2758 2815 
Q 2500 3097 2075 3097 
Q 1594 3097 1305 2825 
Q 1016 2553 972 2059 
L 3022 2063 
z
" transform="scale(0.015625)"/>
      </defs>
      <use xlink:href="#DejaVuSans-45"/>
      <use xlink:href="#DejaVuSans-70" x="63.183594"/>
      <use xlink:href="#DejaVuSans-69" x="126.660156"/>
      <use xlink:href="#DejaVuSans-73" x="154.443359"/>
      <use xlink:href="#DejaVuSans-6f" x="206.542969"/>
      <use xlink:href="#DejaVuSans-64" x="267.724609"/>
      <use xlink:href="#DejaVuSans-65" x="331.201172"/>
     </g>
    </g>
   </g>
   <g id="matplotlib.axis_2">
    <g id="ytick_1">
     <g id="line2d_11">
      <path d="M 53.03 383.956341 
L 709.2 383.956341 
" clip-path="url(#p5724f9d77d)" style="fill: none; stroke: #b0b0b0; stroke-width: 0.8; stroke-linecap: square"/>
     </g>
     <g id="line2d_12">
      <defs>
       <path id="m1d96c79ac7" d="M 0 0 
L -3.5 0 
" style="stroke: #000000; stroke-width: 0.8"/>
      </defs>
      <g>
       <use xlink:href="#m1d96c79ac7" x="53.03" y="383.956341" style="stroke: #000000; stroke-width: 0.8"/>
      </g>
     </g>
     <g id="text_7">
      <!-- −15 -->
      <g transform="translate(24.925313 387.755559) scale(0.1 -0.1)">
       <defs>
        <path id="DejaVuSans-2212" d="M 678 2272 
L 4684 2272 
L 4684 1741 
L 678 1741 
L 678 2272 
z
" transform="scale(0.015625)"/>
        <path id="DejaVuSans-35" d="M 691 4666 
L 3169 4666 
L 3169 4134 
L 1269 4134 
L 1269 2991 
Q 1406 3038 1543 3061 
Q 1681 3084 1819 3084 
Q 2600 3084 3056 2656 
Q 3513 2228 3513 1497 
Q 3513 744 3044 326 
Q 2575 -91 1722 -91 
Q 1428 -91 1123 -41 
Q 819 9 494 109 
L 494 744 
Q 775 591 1075 516 
Q 1375 441 1709 441 
Q 2250 441 2565 725 
Q 2881 1009 2881 1497 
Q 2881 1984 2565 2268 
Q 2250 2553 1709 2553 
Q 1456 2553 1204 2497 
Q 953 2441 691 2322 
L 691 4666 
z
" transform="scale(0.015625)"/>
       </defs>
       <use xlink:href="#DejaVuSans-2212"/>
       <use xlink:href="#DejaVuSans-31" x="83.789062"/>
       <use xlink:href="#DejaVuSans-35" x="147.412109"/>
      </g>
     </g>
    </g>
    <g id="ytick_2">
     <g id="line2d_13">
      <path d="M 53.03 335.706628 
L 709.2 335.706628 
" clip-path="url(#p5724f9d77d)" style="fill: none; stroke: #b0b0b0; stroke-width: 0.8; stroke-linecap: square"/>
     </g>
     <g id="line2d_14">
      <g>
       <use xlink:href="#m1d96c79ac7" x="53.03" y="335.706628" style="stroke: #000000; stroke-width: 0.8"/>
      </g>
     </g>
     <g id="text_8">
      <!-- −10 -->
      <g transform="translate(24.925313 339.505847) scale(0.1 -0.1)">
       <use xlink:href="#DejaVuSans-2212"/>
       <use xlink:href="#DejaVuSans-31" x="83.789062"/>
       <use xlink:href="#DejaVuSans-30" x="147.412109"/>
      </g>
     </g>
    </g>
    <g id="ytick_3">
     <g id="line2d_15">
      <path d="M 53.03 287.456916 
L 709.2 287.456916 
" clip-path="url(#p5724f9d77d)" style="fill: none; stroke: #b0b0b0; stroke-width: 0.8; stroke-linecap: square"/>
     </g>
     <g id="line2d_16">
      <g>
       <use xlink:href="#m1d96c79ac7" x="53.03" y="287.456916" style="stroke: #000000; stroke-width: 0.8"/>
      </g>
     </g>
     <g id="text_9">
      <!-- −5 -->
      <g transform="translate(31.287813 291.256135) scale(0.1 -0.1)">
       <use xlink:href="#DejaVuSans-2212"/>
       <use xlink:href="#DejaVuSans-35" x="83.789062"/>
      </g>
     </g>
    </g>
    <g id="ytick_4">
     <g id="line2d_17">
      <path d="M 53.03 239.207204 
L 709.2 239.207204 
" clip-path="url(#p5724f9d77d)" style="fill: none; stroke: #b0b0b0; stroke-width: 0.8; stroke-linecap: square"/>
     </g>
     <g id="line2d_18">
      <g>
       <use xlink:href="#m1d96c79ac7" x="53.03" y="239.207204" style="stroke: #000000; stroke-width: 0.8"/>
      </g>
     </g>
     <g id="text_10">
      <!-- 0 -->
      <g transform="translate(39.6675 243.006422) scale(0.1 -0.1)">
       <use xlink:href="#DejaVuSans-30"/>
      </g>
     </g>
    </g>
    <g id="ytick_5">
     <g id="line2d_19">
      <path d="M 53.03 190.957491 
L 709.2 190.957491 
" clip-path="url(#p5724f9d77d)" style="fill: none; stroke: #b0b0b0; stroke-width: 0.8; stroke-linecap: square"/>
     </g>
     <g id="line2d_20">
      <g>
       <use xlink:href="#m1d96c79ac7" x="53.03" y="190.957491" style="stroke: #000000; stroke-width: 0.8"/>
      </g>
     </g>
     <g id="text_11">
      <!-- 5 -->
      <g transform="translate(39.6675 194.75671) scale(0.1 -0.1)">
       <use xlink:href="#DejaVuSans-35"/>
      </g>
     </g>
    </g>
    <g id="ytick_6">
     <g id="line2d_21">
      <path d="M 53.03 142.707779 
L 709.2 142.707779 
" clip-path="url(#p5724f9d77d)" style="fill: none; stroke: #b0b0b0; stroke-width: 0.8; stroke-linecap: square"/>
     </g>
     <g id="line2d_22">
      <g>
       <use xlink:href="#m1d96c79ac7" x="53.03" y="142.707779" style="stroke: #000000; stroke-width: 0.8"/>
      </g>
     </g>
     <g id="text_12">
      <!-- 10 -->
      <g transform="translate(33.305 146.506998) scale(0.1 -0.1)">
       <use xlink:href="#DejaVuSans-31"/>
       <use xlink:href="#DejaVuSans-30" x="63.623047"/>
      </g>
     </g>
    </g>
    <g id="ytick_7">
     <g id="line2d_23">
      <path d="M 53.03 94.458067 
L 709.2 94.458067 
" clip-path="url(#p5724f9d77d)" style="fill: none; stroke: #b0b0b0; stroke-width: 0.8; stroke-linecap: square"/>
     </g>
     <g id="line2d_24">
      <g>
       <use xlink:href="#m1d96c79ac7" x="53.03" y="94.458067" style="stroke: #000000; stroke-width: 0.8"/>
      </g>
     </g>
     <g id="text_13">
      <!-- 15 -->
      <g transform="translate(33.305 98.257285) scale(0.1 -0.1)">
       <use xlink:href="#DejaVuSans-31"/>
       <use xlink:href="#DejaVuSans-35" x="63.623047"/>
      </g>
     </g>
    </g>
    <g id="ytick_8">
     <g id="line2d_25">
      <path d="M 53.03 46.208354 
L 709.2 46.208354 
" clip-path="url(#p5724f9d77d)" style="fill: none; stroke: #b0b0b0; stroke-width: 0.8; stroke-linecap: square"/>
     </g>
     <g id="line2d_26">
      <g>
       <use xlink:href="#m1d96c79ac7" x="53.03" y="46.208354" style="stroke: #000000; stroke-width: 0.8"/>
      </g>
     </g>
     <g id="text_14">
      <!-- 20 -->
      <g transform="translate(33.305 50.007573) scale(0.1 -0.1)">
       <use xlink:href="#DejaVuSans-32"/>
       <use xlink:href="#DejaVuSans-30" x="63.623047"/>
      </g>
     </g>
    </g>
    <g id="text_15">
     <!-- Average Reward -->
     <g transform="translate(18.845625 248.482969) rotate(-90) scale(0.1 -0.1)">
      <defs>
       <path id="DejaVuSans-41" d="M 2188 4044 
L 1331 1722 
L 3047 1722 
L 2188 4044 
z
M 1831 4666 
L 2547 4666 
L 4325 0 
L 3669 0 
L 3244 1197 
L 1141 1197 
L 716 0 
L 50 0 
L 1831 4666 
z
" transform="scale(0.015625)"/>
       <path id="DejaVuSans-76" d="M 191 3500 
L 800 3500 
L 1894 563 
L 2988 3500 
L 3597 3500 
L 2284 0 
L 1503 0 
L 191 3500 
z
" transform="scale(0.015625)"/>
       <path id="DejaVuSans-72" d="M 2631 2963 
Q 2534 3019 2420 3045 
Q 2306 3072 2169 3072 
Q 1681 3072 1420 2755 
Q 1159 2438 1159 1844 
L 1159 0 
L 581 0 
L 581 3500 
L 1159 3500 
L 1159 2956 
Q 1341 3275 1631 3429 
Q 1922 3584 2338 3584 
Q 2397 3584 2469 3576 
Q 2541 3569 2628 3553 
L 2631 2963 
z
" transform="scale(0.015625)"/>
       <path id="DejaVuSans-61" d="M 2194 1759 
Q 1497 1759 1228 1600 
Q 959 1441 959 1056 
Q 959 750 1161 570 
Q 1363 391 1709 391 
Q 2188 391 2477 730 
Q 2766 1069 2766 1631 
L 2766 1759 
L 2194 1759 
z
M 3341 1997 
L 3341 0 
L 2766 0 
L 2766 531 
Q 2569 213 2275 61 
Q 1981 -91 1556 -91 
Q 1019 -91 701 211 
Q 384 513 384 1019 
Q 384 1609 779 1909 
Q 1175 2209 1959 2209 
L 2766 2209 
L 2766 2266 
Q 2766 2663 2505 2880 
Q 2244 3097 1772 3097 
Q 1472 3097 1187 3025 
Q 903 2953 641 2809 
L 641 3341 
Q 956 3463 1253 3523 
Q 1550 3584 1831 3584 
Q 2591 3584 2966 3190 
Q 3341 2797 3341 1997 
z
" transform="scale(0.015625)"/>
       <path id="DejaVuSans-67" d="M 2906 1791 
Q 2906 2416 2648 2759 
Q 2391 3103 1925 3103 
Q 1463 3103 1205 2759 
Q 947 2416 947 1791 
Q 947 1169 1205 825 
Q 1463 481 1925 481 
Q 2391 481 2648 825 
Q 2906 1169 2906 1791 
z
M 3481 434 
Q 3481 -459 3084 -895 
Q 2688 -1331 1869 -1331 
Q 1566 -1331 1297 -1286 
Q 1028 -1241 775 -1147 
L 775 -588 
Q 1028 -725 1275 -790 
Q 1522 -856 1778 -856 
Q 2344 -856 2625 -561 
Q 2906 -266 2906 331 
L 2906 616 
Q 2728 306 2450 153 
Q 2172 0 1784 0 
Q 1141 0 747 490 
Q 353 981 353 1791 
Q 353 2603 747 3093 
Q 1141 3584 1784 3584 
Q 2172 3584 2450 3431 
Q 2728 3278 2906 2969 
L 2906 3500 
L 3481 3500 
L 3481 434 
z
" transform="scale(0.015625)"/>
       <path id="DejaVuSans-20" transform="scale(0.015625)"/>
       <path id="DejaVuSans-52" d="M 2841 2188 
Q 3044 2119 3236 1894 
Q 3428 1669 3622 1275 
L 4263 0 
L 3584 0 
L 2988 1197 
Q 2756 1666 2539 1819 
Q 2322 1972 1947 1972 
L 1259 1972 
L 1259 0 
L 628 0 
L 628 4666 
L 2053 4666 
Q 2853 4666 3247 4331 
Q 3641 3997 3641 3322 
Q 3641 2881 3436 2590 
Q 3231 2300 2841 2188 
z
M 1259 4147 
L 1259 2491 
L 2053 2491 
Q 2509 2491 2742 2702 
Q 2975 2913 2975 3322 
Q 2975 3731 2742 3939 
Q 2509 4147 2053 4147 
L 1259 4147 
z
" transform="scale(0.015625)"/>
       <path id="DejaVuSans-77" d="M 269 3500 
L 844 3500 
L 1563 769 
L 2278 3500 
L 2956 3500 
L 3675 769 
L 4391 3500 
L 4966 3500 
L 4050 0 
L 3372 0 
L 2619 2869 
L 1863 0 
L 1184 0 
L 269 3500 
z
" transform="scale(0.015625)"/>
      </defs>
      <use xlink:href="#DejaVuSans-41"/>
      <use xlink:href="#DejaVuSans-76" x="62.533203"/>
      <use xlink:href="#DejaVuSans-65" x="121.712891"/>
      <use xlink:href="#DejaVuSans-72" x="183.236328"/>
      <use xlink:href="#DejaVuSans-61" x="224.349609"/>
      <use xlink:href="#DejaVuSans-67" x="285.628906"/>
      <use xlink:href="#DejaVuSans-65" x="349.105469"/>
      <use xlink:href="#DejaVuSans-20" x="410.628906"/>
      <use xlink:href="#DejaVuSans-52" x="442.416016"/>
      <use xlink:href="#DejaVuSans-65" x="507.398438"/>
      <use xlink:href="#DejaVuSans-77" x="568.921875"/>
      <use xlink:href="#DejaVuSans-61" x="650.708984"/>
      <use xlink:href="#DejaVuSans-72" x="711.988281"/>
      <use xlink:href="#DejaVuSans-64" x="751.351562"/>
     </g>
    </g>
   </g>
   <g id="line2d_27">
    <path d="M 82.855909 272.772221 
L 84.184457 323.119747 
L 85.513006 289.55473 
L 86.841554 293.750357 
L 88.170102 314.728493 
L 89.498651 289.55473 
L 90.827199 226.620322 
L 92.155747 293.750357 
L 93.484295 272.772221 
L 94.812844 272.772221 
L 96.141392 314.728493 
L 97.46994 272.772221 
L 98.798489 293.750357 
L 100.127037 302.141611 
L 101.455585 306.337238 
L 102.784133 306.337238 
L 104.112682 281.163475 
L 105.44123 318.92412 
L 106.769778 306.337238 
L 108.098327 314.728493 
L 109.426875 247.598458 
L 110.755423 272.772221 
L 112.083971 272.772221 
L 113.41252 281.163475 
L 114.741068 314.728493 
L 116.069616 289.55473 
L 117.398165 260.185339 
L 118.726713 331.511001 
L 120.055261 272.772221 
L 121.383809 339.902255 
L 122.712358 285.359102 
L 124.040906 276.967848 
L 125.369454 285.359102 
L 126.698003 268.576594 
L 128.026551 226.620322 
L 129.355099 306.337238 
L 130.683647 318.92412 
L 132.012196 272.772221 
L 133.340744 255.989712 
L 134.669292 293.750357 
L 135.997841 293.750357 
L 137.326389 247.598458 
L 138.654937 310.532865 
L 139.983486 276.967848 
L 141.312034 264.380967 
L 142.640582 314.728493 
L 143.96913 251.794085 
L 145.297679 281.163475 
L 146.626227 281.163475 
L 147.954775 235.011577 
L 149.283324 297.945984 
L 150.611872 268.576594 
L 151.94042 289.55473 
L 153.268968 264.380967 
L 154.597517 323.119747 
L 155.926065 260.185339 
L 157.254613 297.945984 
L 158.583162 268.576594 
L 159.91171 297.945984 
L 161.240258 264.380967 
L 162.568806 285.359102 
L 163.897355 327.315374 
L 165.225903 318.92412 
L 166.554451 264.380967 
L 167.883 293.750357 
L 169.211548 318.92412 
L 170.540096 268.576594 
L 171.868644 272.772221 
L 173.197193 306.337238 
L 174.525741 272.772221 
L 175.854289 289.55473 
L 177.182838 230.815949 
L 178.511386 281.163475 
L 179.839934 285.359102 
L 182.497031 276.967848 
L 183.825579 260.185339 
L 185.154127 293.750357 
L 186.482676 218.229068 
L 187.811224 243.402831 
L 189.139772 222.424695 
L 190.468321 276.967848 
L 191.796869 255.989712 
L 193.125417 260.185339 
L 194.453965 318.92412 
L 195.782514 272.772221 
L 197.111062 243.402831 
L 198.43961 285.359102 
L 199.768159 255.989712 
L 201.096707 276.967848 
L 202.425255 306.337238 
L 203.753803 293.750357 
L 205.082352 331.511001 
L 206.4109 272.772221 
L 207.739448 239.207204 
L 209.067997 272.772221 
L 210.396545 289.55473 
L 211.725093 260.185339 
L 213.053641 314.728493 
L 214.38219 239.207204 
L 215.710738 268.576594 
L 217.039286 281.163475 
L 218.367835 260.185339 
L 219.696383 302.141611 
L 221.024931 247.598458 
L 222.353479 268.576594 
L 223.682028 276.967848 
L 225.010576 268.576594 
L 226.339124 310.532865 
L 227.667673 297.945984 
L 228.996221 235.011577 
L 230.324769 310.532865 
L 231.653317 264.380967 
L 232.981866 264.380967 
L 234.310414 197.250932 
L 235.638962 310.532865 
L 236.967511 285.359102 
L 238.296059 218.229068 
L 239.624607 264.380967 
L 240.953155 247.598458 
L 242.281704 281.163475 
L 243.610252 281.163475 
L 244.9388 230.815949 
L 246.267349 239.207204 
L 247.595897 235.011577 
L 248.924445 235.011577 
L 250.252994 243.402831 
L 251.581542 226.620322 
L 252.91009 243.402831 
L 254.238638 247.598458 
L 255.567187 239.207204 
L 256.895735 310.532865 
L 259.552832 302.141611 
L 260.88138 293.750357 
L 262.209928 272.772221 
L 264.867025 205.642186 
L 266.195573 264.380967 
L 267.524121 230.815949 
L 268.85267 272.772221 
L 270.181218 255.989712 
L 271.509766 230.815949 
L 274.166863 281.163475 
L 275.495411 209.837814 
L 276.823959 218.229068 
L 278.152508 276.967848 
L 279.481056 251.794085 
L 280.809604 272.772221 
L 282.138152 251.794085 
L 283.466701 297.945984 
L 284.795249 272.772221 
L 286.123797 310.532865 
L 287.452346 235.011577 
L 288.780894 272.772221 
L 290.109442 268.576594 
L 291.43799 306.337238 
L 292.766539 323.119747 
L 294.095087 218.229068 
L 295.423635 314.728493 
L 296.752184 285.359102 
L 298.080732 239.207204 
L 299.40928 239.207204 
L 300.737829 285.359102 
L 302.066377 260.185339 
L 303.394925 218.229068 
L 304.723473 243.402831 
L 306.052022 264.380967 
L 307.38057 235.011577 
L 308.709118 251.794085 
L 310.037667 272.772221 
L 311.366215 218.229068 
L 312.694763 281.163475 
L 314.023311 188.859678 
L 315.35186 255.989712 
L 316.680408 260.185339 
L 318.008956 235.011577 
L 319.337505 235.011577 
L 320.666053 276.967848 
L 321.994601 243.402831 
L 323.323149 268.576594 
L 324.651698 268.576594 
L 325.980246 214.033441 
L 327.308794 243.402831 
L 328.637343 235.011577 
L 329.965891 209.837814 
L 331.294439 272.772221 
L 332.622987 184.664051 
L 333.951536 239.207204 
L 335.280084 222.424695 
L 336.608632 268.576594 
L 337.937181 218.229068 
L 339.265729 276.967848 
L 340.594277 260.185339 
L 341.922825 235.011577 
L 343.251374 243.402831 
L 344.579922 235.011577 
L 345.90847 247.598458 
L 347.237019 218.229068 
L 348.565567 201.446559 
L 349.894115 235.011577 
L 351.222663 255.989712 
L 352.551212 226.620322 
L 353.87976 184.664051 
L 355.208308 243.402831 
L 356.536857 239.207204 
L 357.865405 218.229068 
L 359.193953 222.424695 
L 360.522502 176.272796 
L 361.85105 230.815949 
L 363.179598 230.815949 
L 364.508146 272.772221 
L 365.836695 226.620322 
L 367.165243 218.229068 
L 368.493791 272.772221 
L 369.82234 226.620322 
L 372.479436 310.532865 
L 373.807984 255.989712 
L 375.136533 222.424695 
L 376.465081 239.207204 
L 377.793629 264.380967 
L 379.122178 255.989712 
L 380.450726 218.229068 
L 381.779274 251.794085 
L 383.107822 218.229068 
L 384.436371 251.794085 
L 385.764919 243.402831 
L 387.093467 272.772221 
L 388.422016 285.359102 
L 389.750564 218.229068 
L 391.079112 235.011577 
L 392.40766 235.011577 
L 393.736209 247.598458 
L 395.064757 218.229068 
L 396.393305 239.207204 
L 397.721854 235.011577 
L 399.050402 251.794085 
L 400.37895 193.055305 
L 401.707498 255.989712 
L 403.036047 226.620322 
L 404.364595 201.446559 
L 407.021692 235.011577 
L 408.35024 285.359102 
L 409.678788 235.011577 
L 411.007337 243.402831 
L 412.335885 235.011577 
L 413.664433 209.837814 
L 414.992981 218.229068 
L 416.32153 247.598458 
L 417.650078 209.837814 
L 418.978626 230.815949 
L 420.307175 230.815949 
L 421.635723 276.967848 
L 424.292819 193.055305 
L 425.621368 239.207204 
L 426.949916 255.989712 
L 428.278464 193.055305 
L 429.607013 201.446559 
L 430.935561 268.576594 
L 432.264109 264.380967 
L 433.592657 193.055305 
L 434.921206 205.642186 
L 436.249754 251.794085 
L 437.578302 272.772221 
L 438.906851 243.402831 
L 440.235399 205.642186 
L 441.563947 239.207204 
L 442.892495 226.620322 
L 444.221044 226.620322 
L 445.549592 230.815949 
L 446.87814 268.576594 
L 448.206689 218.229068 
L 449.535237 222.424695 
L 450.863785 201.446559 
L 452.192333 251.794085 
L 453.520882 235.011577 
L 454.84943 243.402831 
L 456.177978 214.033441 
L 457.506527 239.207204 
L 458.835075 218.229068 
L 460.163623 209.837814 
L 461.492171 209.837814 
L 462.82072 255.989712 
L 464.149268 226.620322 
L 465.477816 235.011577 
L 466.806365 205.642186 
L 468.134913 243.402831 
L 469.463461 197.250932 
L 470.79201 218.229068 
L 472.120558 230.815949 
L 473.449106 184.664051 
L 474.777654 218.229068 
L 476.106203 276.967848 
L 477.434751 209.837814 
L 478.763299 209.837814 
L 480.091848 176.272796 
L 481.420396 260.185339 
L 482.748944 205.642186 
L 484.077492 218.229068 
L 485.406041 209.837814 
L 486.734589 218.229068 
L 488.063137 247.598458 
L 489.391686 260.185339 
L 490.720234 209.837814 
L 492.048782 218.229068 
L 493.37733 201.446559 
L 494.705879 230.815949 
L 496.034427 209.837814 
L 497.362975 235.011577 
L 498.691524 197.250932 
L 500.020072 201.446559 
L 502.677168 218.229068 
L 504.005717 193.055305 
L 505.334265 193.055305 
L 506.662813 251.794085 
L 507.991362 218.229068 
L 509.31991 209.837814 
L 510.648458 209.837814 
L 511.977006 184.664051 
L 513.305555 205.642186 
L 514.634103 201.446559 
L 515.962651 201.446559 
L 517.2912 218.229068 
L 518.619748 201.446559 
L 519.948296 209.837814 
L 521.276845 255.989712 
L 522.605393 226.620322 
L 523.933941 209.837814 
L 525.262489 209.837814 
L 526.591038 214.033441 
L 527.919586 193.055305 
L 529.248134 209.837814 
L 530.576683 243.402831 
L 531.905231 218.229068 
L 533.233779 243.402831 
L 534.562327 184.664051 
L 535.890876 260.185339 
L 537.219424 193.055305 
L 538.547972 218.229068 
L 539.876521 201.446559 
L 541.205069 218.229068 
L 542.533617 201.446559 
L 545.190714 201.446559 
L 546.519262 218.229068 
L 547.84781 243.402831 
L 550.504907 193.055305 
L 551.833455 184.664051 
L 553.162003 193.055305 
L 554.490552 193.055305 
L 555.8191 188.859678 
L 557.147648 176.272796 
L 558.476197 201.446559 
L 559.804745 184.664051 
L 561.133293 205.642186 
L 562.461841 176.272796 
L 563.79039 184.664051 
L 565.118938 201.446559 
L 566.447486 226.620322 
L 567.776035 197.250932 
L 569.104583 218.229068 
L 570.433131 209.837814 
L 571.761679 184.664051 
L 573.090228 201.446559 
L 575.747324 184.664051 
L 577.075873 201.446559 
L 578.404421 193.055305 
L 579.732969 226.620322 
L 581.061518 184.664051 
L 582.390066 201.446559 
L 583.718614 193.055305 
L 585.047162 188.859678 
L 586.375711 209.837814 
L 587.704259 201.446559 
L 589.032807 184.664051 
L 590.361356 176.272796 
L 591.689904 193.055305 
L 593.018452 176.272796 
L 594.347 184.664051 
L 595.675549 176.272796 
L 597.004097 176.272796 
L 598.332645 218.229068 
L 599.661194 176.272796 
L 600.989742 201.446559 
L 602.31829 176.272796 
L 603.646838 201.446559 
L 604.975387 176.272796 
L 606.303935 193.055305 
L 607.632483 184.664051 
L 610.28958 184.664051 
L 611.618128 176.272796 
L 612.946676 193.055305 
L 614.275225 176.272796 
L 616.932321 193.055305 
L 618.26087 176.272796 
L 619.589418 176.272796 
L 620.917966 201.446559 
L 623.575063 184.664051 
L 624.903611 184.664051 
L 626.232159 176.272796 
L 627.560708 193.055305 
L 628.889256 201.446559 
L 630.217804 176.272796 
L 634.203449 176.272796 
L 635.531997 184.664051 
L 636.860546 184.664051 
L 638.189094 193.055305 
L 639.517642 176.272796 
L 640.846191 193.055305 
L 642.174739 193.055305 
L 644.831835 176.272796 
L 646.160384 226.620322 
L 647.488932 176.272796 
L 648.81748 184.664051 
L 650.146029 176.272796 
L 654.131673 176.272796 
L 655.460222 201.446559 
L 656.78877 201.446559 
L 658.117318 176.272796 
L 668.745705 176.272796 
L 671.402801 184.664051 
L 672.731349 176.272796 
L 679.374091 176.272796 
L 679.374091 176.272796 
" clip-path="url(#p5724f9d77d)" style="fill: none; stroke: #1f77b4; stroke-width: 1.5; stroke-linecap: square"/>
   </g>
   <g id="line2d_28">
    <path d="M 82.855909 335.706628 
L 84.184457 314.728493 
L 85.513006 205.642186 
L 86.841554 281.163475 
L 89.498651 306.337238 
L 90.827199 352.489137 
L 92.155747 260.185339 
L 93.484295 276.967848 
L 94.812844 306.337238 
L 96.141392 230.815949 
L 97.46994 276.967848 
L 100.127037 235.011577 
L 101.455585 327.315374 
L 102.784133 222.424695 
L 104.112682 293.750357 
L 105.44123 285.359102 
L 106.769778 272.772221 
L 108.098327 235.011577 
L 109.426875 285.359102 
L 110.755423 293.750357 
L 112.083971 306.337238 
L 113.41252 255.989712 
L 114.741068 281.163475 
L 116.069616 214.033441 
L 117.398165 260.185339 
L 118.726713 331.511001 
L 120.055261 293.750357 
L 121.383809 306.337238 
L 122.712358 281.163475 
L 124.040906 302.141611 
L 125.369454 327.315374 
L 126.698003 285.359102 
L 128.026551 302.141611 
L 129.355099 314.728493 
L 130.683647 281.163475 
L 132.012196 281.163475 
L 133.340744 247.598458 
L 134.669292 297.945984 
L 135.997841 310.532865 
L 137.326389 243.402831 
L 138.654937 268.576594 
L 139.983486 251.794085 
L 141.312034 218.229068 
L 142.640582 260.185339 
L 143.96913 276.967848 
L 145.297679 323.119747 
L 146.626227 302.141611 
L 147.954775 293.750357 
L 149.283324 293.750357 
L 150.611872 289.55473 
L 151.94042 272.772221 
L 153.268968 314.728493 
L 154.597517 251.794085 
L 155.926065 235.011577 
L 157.254613 293.750357 
L 158.583162 310.532865 
L 159.91171 260.185339 
L 161.240258 281.163475 
L 162.568806 356.684764 
L 163.897355 323.119747 
L 165.225903 314.728493 
L 166.554451 276.967848 
L 167.883 264.380967 
L 169.211548 302.141611 
L 170.540096 289.55473 
L 171.868644 243.402831 
L 173.197193 285.359102 
L 174.525741 226.620322 
L 175.854289 293.750357 
L 177.182838 193.055305 
L 178.511386 314.728493 
L 181.168482 272.772221 
L 182.497031 289.55473 
L 183.825579 289.55473 
L 185.154127 272.772221 
L 186.482676 285.359102 
L 187.811224 272.772221 
L 189.139772 289.55473 
L 191.796869 264.380967 
L 193.125417 293.750357 
L 194.453965 222.424695 
L 195.782514 335.706628 
L 197.111062 251.794085 
L 198.43961 268.576594 
L 199.768159 235.011577 
L 201.096707 167.881542 
L 202.425255 214.033441 
L 203.753803 251.794085 
L 205.082352 251.794085 
L 206.4109 272.772221 
L 207.739448 285.359102 
L 209.067997 293.750357 
L 210.396545 285.359102 
L 211.725093 226.620322 
L 213.053641 188.859678 
L 214.38219 184.664051 
L 215.710738 260.185339 
L 217.039286 197.250932 
L 218.367835 193.055305 
L 219.696383 281.163475 
L 221.024931 276.967848 
L 222.353479 281.163475 
L 223.682028 251.794085 
L 225.010576 268.576594 
L 226.339124 218.229068 
L 227.667673 335.706628 
L 228.996221 226.620322 
L 230.324769 235.011577 
L 231.653317 226.620322 
L 232.981866 230.815949 
L 234.310414 226.620322 
L 235.638962 306.337238 
L 238.296059 209.837814 
L 239.624607 222.424695 
L 240.953155 205.642186 
L 242.281704 297.945984 
L 243.610252 264.380967 
L 244.9388 201.446559 
L 246.267349 209.837814 
L 247.595897 297.945984 
L 248.924445 226.620322 
L 250.252994 172.077169 
L 251.581542 289.55473 
L 252.91009 255.989712 
L 254.238638 209.837814 
L 255.567187 239.207204 
L 256.895735 276.967848 
L 258.224283 264.380967 
L 259.552832 230.815949 
L 260.88138 293.750357 
L 262.209928 251.794085 
L 263.538476 272.772221 
L 264.867025 214.033441 
L 266.195573 230.815949 
L 267.524121 226.620322 
L 268.85267 230.815949 
L 270.181218 205.642186 
L 271.509766 205.642186 
L 272.838314 214.033441 
L 274.166863 188.859678 
L 275.495411 209.837814 
L 276.823959 243.402831 
L 278.152508 184.664051 
L 279.481056 235.011577 
L 280.809604 235.011577 
L 282.138152 260.185339 
L 283.466701 264.380967 
L 284.795249 226.620322 
L 286.123797 251.794085 
L 287.452346 222.424695 
L 288.780894 264.380967 
L 290.109442 260.185339 
L 291.43799 209.837814 
L 292.766539 184.664051 
L 294.095087 113.338389 
L 295.423635 268.576594 
L 296.752184 188.859678 
L 298.080732 167.881542 
L 299.40928 176.272796 
L 300.737829 293.750357 
L 302.066377 205.642186 
L 303.394925 268.576594 
L 304.723473 243.402831 
L 306.052022 226.620322 
L 307.38057 188.859678 
L 308.709118 193.055305 
L 310.037667 205.642186 
L 311.366215 180.468423 
L 312.694763 251.794085 
L 314.023311 226.620322 
L 315.35186 138.512152 
L 316.680408 230.815949 
L 318.008956 163.685915 
L 319.337505 243.402831 
L 320.666053 184.664051 
L 321.994601 243.402831 
L 323.323149 255.989712 
L 324.651698 163.685915 
L 325.980246 188.859678 
L 327.308794 272.772221 
L 328.637343 239.207204 
L 329.965891 201.446559 
L 331.294439 193.055305 
L 332.622987 100.751507 
L 333.951536 188.859678 
L 335.280084 151.099033 
L 336.608632 193.055305 
L 337.937181 130.120898 
L 339.265729 235.011577 
L 340.594277 172.077169 
L 341.922825 197.250932 
L 343.251374 172.077169 
L 344.579922 180.468423 
L 345.90847 214.033441 
L 347.237019 176.272796 
L 348.565567 163.685915 
L 349.894115 167.881542 
L 351.222663 180.468423 
L 352.551212 218.229068 
L 353.87976 134.316525 
L 355.208308 226.620322 
L 356.536857 176.272796 
L 357.865405 235.011577 
L 359.193953 214.033441 
L 360.522502 146.903406 
L 361.85105 130.120898 
L 363.179598 176.272796 
L 364.508146 318.92412 
L 365.836695 255.989712 
L 367.165243 184.664051 
L 368.493791 193.055305 
L 369.82234 163.685915 
L 371.150888 172.077169 
L 372.479436 167.881542 
L 373.807984 289.55473 
L 375.136533 197.250932 
L 376.465081 197.250932 
L 377.793629 167.881542 
L 379.122178 197.250932 
L 380.450726 155.294661 
L 383.107822 260.185339 
L 384.436371 235.011577 
L 385.764919 193.055305 
L 387.093467 235.011577 
L 388.422016 214.033441 
L 389.750564 151.099033 
L 391.079112 151.099033 
L 392.40766 117.534016 
L 393.736209 167.881542 
L 395.064757 121.729643 
L 396.393305 159.490288 
L 397.721854 130.120898 
L 401.707498 205.642186 
L 403.036047 205.642186 
L 404.364595 218.229068 
L 405.693143 167.881542 
L 407.021692 163.685915 
L 408.35024 176.272796 
L 409.678788 209.837814 
L 411.007337 159.490288 
L 412.335885 163.685915 
L 413.664433 176.272796 
L 414.992981 209.837814 
L 416.32153 201.446559 
L 417.650078 176.272796 
L 418.978626 205.642186 
L 420.307175 159.490288 
L 421.635723 146.903406 
L 422.964271 180.468423 
L 424.292819 117.534016 
L 425.621368 83.968999 
L 426.949916 176.272796 
L 428.278464 163.685915 
L 429.607013 167.881542 
L 430.935561 180.468423 
L 432.264109 214.033441 
L 433.592657 205.642186 
L 434.921206 138.512152 
L 436.249754 159.490288 
L 437.578302 176.272796 
L 438.906851 197.250932 
L 440.235399 163.685915 
L 441.563947 172.077169 
L 442.892495 155.294661 
L 444.221044 146.903406 
L 445.549592 151.099033 
L 446.87814 184.664051 
L 448.206689 142.707779 
L 449.535237 251.794085 
L 450.863785 188.859678 
L 452.192333 134.316525 
L 453.520882 142.707779 
L 454.84943 193.055305 
L 456.177978 151.099033 
L 457.506527 163.685915 
L 458.835075 121.729643 
L 460.163623 155.294661 
L 461.492171 109.142762 
L 462.82072 125.92527 
L 464.149268 159.490288 
L 465.477816 121.729643 
L 466.806365 184.664051 
L 468.134913 155.294661 
L 469.463461 130.120898 
L 470.79201 159.490288 
L 472.120558 159.490288 
L 473.449106 172.077169 
L 474.777654 167.881542 
L 476.106203 197.250932 
L 477.434751 146.903406 
L 478.763299 134.316525 
L 480.091848 138.512152 
L 481.420396 226.620322 
L 482.748944 125.92527 
L 484.077492 188.859678 
L 485.406041 130.120898 
L 486.734589 197.250932 
L 488.063137 222.424695 
L 489.391686 167.881542 
L 490.720234 88.164626 
L 492.048782 155.294661 
L 493.37733 146.903406 
L 494.705879 155.294661 
L 496.034427 100.751507 
L 497.362975 163.685915 
L 498.691524 218.229068 
L 500.020072 100.751507 
L 501.34862 138.512152 
L 502.677168 121.729643 
L 504.005717 75.577745 
L 505.334265 109.142762 
L 506.662813 125.92527 
L 507.991362 209.837814 
L 509.31991 54.599609 
L 510.648458 138.512152 
L 511.977006 159.490288 
L 513.305555 163.685915 
L 514.634103 125.92527 
L 515.962651 130.120898 
L 517.2912 125.92527 
L 518.619748 96.55588 
L 519.948296 214.033441 
L 521.276845 125.92527 
L 522.605393 125.92527 
L 523.933941 113.338389 
L 525.262489 96.55588 
L 526.591038 117.534016 
L 527.919586 151.099033 
L 529.248134 117.534016 
L 530.576683 167.881542 
L 531.905231 113.338389 
L 533.233779 142.707779 
L 534.562327 42.012727 
L 535.890876 125.92527 
L 537.219424 125.92527 
L 538.547972 92.360253 
L 541.205069 125.92527 
L 542.533617 67.18649 
L 543.862165 113.338389 
L 545.190714 138.512152 
L 546.519262 138.512152 
L 547.84781 96.55588 
L 549.176359 79.773372 
L 550.504907 113.338389 
L 551.833455 134.316525 
L 553.162003 100.751507 
L 554.490552 121.729643 
L 555.8191 104.947135 
L 557.147648 75.577745 
L 558.476197 88.164626 
L 559.804745 92.360253 
L 561.133293 92.360253 
L 562.461841 138.512152 
L 563.79039 58.795236 
L 565.118938 75.577745 
L 566.447486 125.92527 
L 567.776035 109.142762 
L 569.104583 125.92527 
L 570.433131 83.968999 
L 571.761679 125.92527 
L 573.090228 92.360253 
L 574.418776 104.947135 
L 575.747324 71.382117 
L 577.075873 104.947135 
L 578.404421 134.316525 
L 581.061518 92.360253 
L 582.390066 79.773372 
L 583.718614 54.599609 
L 585.047162 62.990863 
L 586.375711 62.990863 
L 587.704259 75.577745 
L 589.032807 42.012727 
L 590.361356 62.990863 
L 591.689904 75.577745 
L 593.018452 58.795236 
L 594.347 88.164626 
L 595.675549 100.751507 
L 597.004097 151.099033 
L 598.332645 88.164626 
L 599.661194 58.795236 
L 600.989742 92.360253 
L 603.646838 58.795236 
L 604.975387 62.990863 
L 606.303935 58.795236 
L 607.632483 88.164626 
L 608.961032 75.577745 
L 610.28958 109.142762 
L 611.618128 83.968999 
L 612.946676 75.577745 
L 614.275225 58.795236 
L 615.603773 117.534016 
L 616.932321 121.729643 
L 618.26087 58.795236 
L 622.246514 58.795236 
L 623.575063 42.012727 
L 624.903611 50.403982 
L 626.232159 75.577745 
L 627.560708 42.012727 
L 628.889256 96.55588 
L 630.217804 54.599609 
L 631.546353 42.012727 
L 632.874901 50.403982 
L 634.203449 75.577745 
L 635.531997 58.795236 
L 636.860546 92.360253 
L 638.189094 83.968999 
L 639.517642 42.012727 
L 640.846191 42.012727 
L 642.174739 58.795236 
L 643.503287 42.012727 
L 644.831835 83.968999 
L 646.160384 100.751507 
L 647.488932 42.012727 
L 652.803125 42.012727 
L 654.131673 58.795236 
L 655.460222 58.795236 
L 656.78877 62.990863 
L 658.117318 42.012727 
L 662.102963 42.012727 
L 663.431511 58.795236 
L 664.76006 42.012727 
L 666.088608 67.18649 
L 667.417156 42.012727 
L 668.745705 42.012727 
L 670.074253 46.208354 
L 671.402801 42.012727 
L 672.731349 42.012727 
L 674.059898 58.795236 
L 675.388446 42.012727 
L 679.374091 42.012727 
L 679.374091 42.012727 
" clip-path="url(#p5724f9d77d)" style="fill: none; stroke: #ff7f0e; stroke-width: 1.5; stroke-linecap: square"/>
   </g>
   <g id="line2d_29">
    <path d="M 82.855909 323.119747 
L 84.184457 314.728493 
L 86.841554 331.511001 
L 88.170102 331.511001 
L 89.498651 348.29351 
L 90.827199 356.684764 
L 92.155747 306.337238 
L 94.812844 323.119747 
L 96.141392 306.337238 
L 97.46994 339.902255 
L 98.798489 356.684764 
L 100.127037 314.728493 
L 101.455585 323.119747 
L 104.112682 356.684764 
L 105.44123 323.119747 
L 108.098327 339.902255 
L 109.426875 297.945984 
L 110.755423 323.119747 
L 114.741068 373.467273 
L 116.069616 339.902255 
L 117.398165 323.119747 
L 118.726713 323.119747 
L 120.055261 331.511001 
L 122.712358 331.511001 
L 124.040906 323.119747 
L 125.369454 348.29351 
L 126.698003 348.29351 
L 128.026551 297.945984 
L 129.355099 323.119747 
L 130.683647 339.902255 
L 132.012196 314.728493 
L 133.340744 339.902255 
L 134.669292 339.902255 
L 135.997841 365.076018 
L 137.326389 314.728493 
L 138.654937 356.684764 
L 139.983486 314.728493 
L 141.312034 297.945984 
L 142.640582 339.902255 
L 143.96913 314.728493 
L 145.297679 348.29351 
L 146.626227 323.119747 
L 147.954775 289.55473 
L 149.283324 331.511001 
L 150.611872 314.728493 
L 151.94042 331.511001 
L 153.268968 306.337238 
L 154.597517 339.902255 
L 155.926065 348.29351 
L 157.254613 314.728493 
L 158.583162 306.337238 
L 159.91171 348.29351 
L 161.240258 339.902255 
L 162.568806 314.728493 
L 163.897355 348.29351 
L 165.225903 339.902255 
L 166.554451 297.945984 
L 167.883 289.55473 
L 169.211548 323.119747 
L 170.540096 323.119747 
L 171.868644 306.337238 
L 173.197193 373.467273 
L 174.525741 281.163475 
L 175.854289 339.902255 
L 177.182838 314.728493 
L 178.511386 297.945984 
L 179.839934 297.945984 
L 181.168482 331.511001 
L 182.497031 348.29351 
L 183.825579 323.119747 
L 185.154127 289.55473 
L 186.482676 306.337238 
L 187.811224 306.337238 
L 189.139772 365.076018 
L 190.468321 323.119747 
L 191.796869 339.902255 
L 193.125417 323.119747 
L 194.453965 348.29351 
L 195.782514 323.119747 
L 197.111062 331.511001 
L 198.43961 348.29351 
L 199.768159 323.119747 
L 201.096707 331.511001 
L 202.425255 297.945984 
L 203.753803 339.902255 
L 205.082352 323.119747 
L 206.4109 323.119747 
L 207.739448 314.728493 
L 209.067997 323.119747 
L 210.396545 289.55473 
L 211.725093 323.119747 
L 213.053641 297.945984 
L 215.710738 314.728493 
L 217.039286 306.337238 
L 218.367835 339.902255 
L 219.696383 306.337238 
L 221.024931 314.728493 
L 222.353479 297.945984 
L 223.682028 297.945984 
L 225.010576 314.728493 
L 226.339124 339.902255 
L 227.667673 314.728493 
L 228.996221 314.728493 
L 230.324769 289.55473 
L 231.653317 289.55473 
L 232.981866 297.945984 
L 234.310414 339.902255 
L 235.638962 339.902255 
L 236.967511 314.728493 
L 238.296059 323.119747 
L 239.624607 339.902255 
L 240.953155 306.337238 
L 242.281704 306.337238 
L 243.610252 365.076018 
L 244.9388 281.163475 
L 246.267349 323.119747 
L 247.595897 297.945984 
L 248.924445 297.945984 
L 250.252994 306.337238 
L 251.581542 289.55473 
L 252.91009 339.902255 
L 254.238638 306.337238 
L 255.567187 297.945984 
L 256.895735 306.337238 
L 258.224283 289.55473 
L 259.552832 331.511001 
L 260.88138 356.684764 
L 262.209928 297.945984 
L 266.195573 297.945984 
L 267.524121 314.728493 
L 268.85267 289.55473 
L 270.181218 323.119747 
L 271.509766 323.119747 
L 272.838314 281.163475 
L 274.166863 323.119747 
L 275.495411 331.511001 
L 276.823959 297.945984 
L 278.152508 289.55473 
L 279.481056 272.772221 
L 280.809604 297.945984 
L 282.138152 297.945984 
L 283.466701 306.337238 
L 284.795249 281.163475 
L 288.780894 331.511001 
L 290.109442 297.945984 
L 291.43799 314.728493 
L 294.095087 281.163475 
L 295.423635 306.337238 
L 296.752184 289.55473 
L 298.080732 281.163475 
L 299.40928 297.945984 
L 300.737829 306.337238 
L 302.066377 306.337238 
L 303.394925 331.511001 
L 306.052022 281.163475 
L 307.38057 289.55473 
L 308.709118 272.772221 
L 310.037667 289.55473 
L 311.366215 314.728493 
L 312.694763 289.55473 
L 314.023311 297.945984 
L 315.35186 272.772221 
L 316.680408 297.945984 
L 318.008956 297.945984 
L 319.337505 314.728493 
L 320.666053 281.163475 
L 323.323149 297.945984 
L 325.980246 281.163475 
L 327.308794 289.55473 
L 328.637343 272.772221 
L 329.965891 289.55473 
L 331.294439 281.163475 
L 332.622987 281.163475 
L 333.951536 255.989712 
L 335.280084 289.55473 
L 337.937181 255.989712 
L 339.265729 272.772221 
L 340.594277 323.119747 
L 341.922825 281.163475 
L 343.251374 297.945984 
L 344.579922 247.598458 
L 345.90847 323.119747 
L 347.237019 297.945984 
L 348.565567 281.163475 
L 349.894115 297.945984 
L 351.222663 281.163475 
L 352.551212 306.337238 
L 353.87976 314.728493 
L 355.208308 297.945984 
L 356.536857 289.55473 
L 359.193953 255.989712 
L 360.522502 306.337238 
L 361.85105 289.55473 
L 363.179598 281.163475 
L 364.508146 306.337238 
L 365.836695 314.728493 
L 367.165243 281.163475 
L 368.493791 289.55473 
L 369.82234 264.380967 
L 371.150888 289.55473 
L 372.479436 297.945984 
L 373.807984 281.163475 
L 375.136533 306.337238 
L 376.465081 281.163475 
L 377.793629 297.945984 
L 379.122178 289.55473 
L 380.450726 306.337238 
L 381.779274 264.380967 
L 383.107822 272.772221 
L 384.436371 264.380967 
L 385.764919 289.55473 
L 387.093467 289.55473 
L 389.750564 272.772221 
L 391.079112 306.337238 
L 392.40766 314.728493 
L 393.736209 272.772221 
L 395.064757 272.772221 
L 396.393305 255.989712 
L 397.721854 272.772221 
L 399.050402 306.337238 
L 400.37895 289.55473 
L 401.707498 297.945984 
L 403.036047 297.945984 
L 404.364595 281.163475 
L 405.693143 281.163475 
L 407.021692 306.337238 
L 409.678788 255.989712 
L 411.007337 281.163475 
L 412.335885 272.772221 
L 413.664433 297.945984 
L 414.992981 289.55473 
L 416.32153 314.728493 
L 417.650078 281.163475 
L 418.978626 264.380967 
L 420.307175 264.380967 
L 421.635723 272.772221 
L 424.292819 272.772221 
L 425.621368 264.380967 
L 426.949916 281.163475 
L 429.607013 247.598458 
L 430.935561 255.989712 
L 433.592657 239.207204 
L 434.921206 272.772221 
L 436.249754 264.380967 
L 437.578302 281.163475 
L 438.906851 306.337238 
L 440.235399 306.337238 
L 441.563947 281.163475 
L 442.892495 264.380967 
L 444.221044 289.55473 
L 445.549592 264.380967 
L 446.87814 281.163475 
L 448.206689 281.163475 
L 449.535237 264.380967 
L 450.863785 264.380967 
L 453.520882 297.945984 
L 456.177978 297.945984 
L 457.506527 264.380967 
L 458.835075 264.380967 
L 460.163623 272.772221 
L 461.492171 255.989712 
L 462.82072 281.163475 
L 464.149268 264.380967 
L 465.477816 289.55473 
L 466.806365 281.163475 
L 468.134913 281.163475 
L 469.463461 272.772221 
L 473.449106 272.772221 
L 474.777654 264.380967 
L 476.106203 272.772221 
L 477.434751 255.989712 
L 480.091848 255.989712 
L 481.420396 281.163475 
L 484.077492 247.598458 
L 485.406041 264.380967 
L 488.063137 264.380967 
L 489.391686 272.772221 
L 490.720234 255.989712 
L 492.048782 297.945984 
L 494.705879 247.598458 
L 496.034427 289.55473 
L 497.362975 264.380967 
L 500.020072 264.380967 
L 501.34862 272.772221 
L 502.677168 272.772221 
L 505.334265 255.989712 
L 506.662813 272.772221 
L 507.991362 264.380967 
L 509.31991 264.380967 
L 510.648458 247.598458 
L 511.977006 272.772221 
L 513.305555 272.772221 
L 514.634103 281.163475 
L 515.962651 255.989712 
L 518.619748 272.772221 
L 519.948296 255.989712 
L 521.276845 255.989712 
L 523.933941 272.772221 
L 525.262489 264.380967 
L 526.591038 264.380967 
L 527.919586 255.989712 
L 529.248134 281.163475 
L 530.576683 264.380967 
L 531.905231 255.989712 
L 533.233779 255.989712 
L 534.562327 247.598458 
L 535.890876 272.772221 
L 537.219424 255.989712 
L 538.547972 247.598458 
L 539.876521 289.55473 
L 541.205069 255.989712 
L 543.862165 272.772221 
L 546.519262 255.989712 
L 547.84781 239.207204 
L 549.176359 255.989712 
L 550.504907 247.598458 
L 551.833455 255.989712 
L 553.162003 289.55473 
L 554.490552 247.598458 
L 555.8191 255.989712 
L 557.147648 272.772221 
L 558.476197 247.598458 
L 561.133293 247.598458 
L 562.461841 239.207204 
L 563.79039 255.989712 
L 565.118938 247.598458 
L 566.447486 247.598458 
L 567.776035 272.772221 
L 569.104583 272.772221 
L 570.433131 239.207204 
L 571.761679 255.989712 
L 573.090228 255.989712 
L 574.418776 239.207204 
L 575.747324 247.598458 
L 577.075873 264.380967 
L 578.404421 247.598458 
L 579.732969 255.989712 
L 581.061518 281.163475 
L 582.390066 255.989712 
L 583.718614 255.989712 
L 585.047162 272.772221 
L 587.704259 255.989712 
L 589.032807 255.989712 
L 590.361356 264.380967 
L 593.018452 247.598458 
L 594.347 247.598458 
L 595.675549 264.380967 
L 597.004097 239.207204 
L 598.332645 247.598458 
L 599.661194 239.207204 
L 600.989742 264.380967 
L 602.31829 247.598458 
L 604.975387 247.598458 
L 606.303935 255.989712 
L 607.632483 255.989712 
L 608.961032 247.598458 
L 610.28958 247.598458 
L 611.618128 264.380967 
L 612.946676 247.598458 
L 614.275225 239.207204 
L 616.932321 255.989712 
L 618.26087 239.207204 
L 619.589418 239.207204 
L 620.917966 255.989712 
L 622.246514 255.989712 
L 623.575063 247.598458 
L 624.903611 247.598458 
L 626.232159 239.207204 
L 628.889256 255.989712 
L 630.217804 255.989712 
L 632.874901 239.207204 
L 634.203449 255.989712 
L 635.531997 239.207204 
L 636.860546 247.598458 
L 639.517642 247.598458 
L 640.846191 272.772221 
L 642.174739 247.598458 
L 647.488932 247.598458 
L 648.81748 239.207204 
L 650.146029 255.989712 
L 651.474577 239.207204 
L 652.803125 247.598458 
L 654.131673 239.207204 
L 656.78877 239.207204 
L 658.117318 255.989712 
L 659.445867 247.598458 
L 660.774415 247.598458 
L 662.102963 239.207204 
L 668.745705 239.207204 
L 670.074253 255.989712 
L 671.402801 239.207204 
L 679.374091 239.207204 
L 679.374091 239.207204 
" clip-path="url(#p5724f9d77d)" style="fill: none; stroke: #2ca02c; stroke-width: 1.5; stroke-linecap: square"/>
   </g>
   <g id="patch_3">
    <path d="M 53.03 390.04 
L 53.03 25.44 
" style="fill: none; stroke: #000000; stroke-width: 0.8; stroke-linejoin: miter; stroke-linecap: square"/>
   </g>
   <g id="patch_4">
    <path d="M 709.2 390.04 
L 709.2 25.44 
" style="fill: none; stroke: #000000; stroke-width: 0.8; stroke-linejoin: miter; stroke-linecap: square"/>
   </g>
   <g id="patch_5">
    <path d="M 53.03 390.04 
L 709.2 390.04 
" style="fill: none; stroke: #000000; stroke-width: 0.8; stroke-linejoin: miter; stroke-linecap: square"/>
   </g>
   <g id="patch_6">
    <path d="M 53.03 25.44 
L 709.2 25.44 
" style="fill: none; stroke: #000000; stroke-width: 0.8; stroke-linejoin: miter; stroke-linecap: square"/>
   </g>
   <g id="text_16">
    <!-- Average Reward per Episode by Agent -->
    <g transform="translate(265.943125 19.44) scale(0.12 -0.12)">
     <defs>
      <path id="DejaVuSans-62" d="M 3116 1747 
Q 3116 2381 2855 2742 
Q 2594 3103 2138 3103 
Q 1681 3103 1420 2742 
Q 1159 2381 1159 1747 
Q 1159 1113 1420 752 
Q 1681 391 2138 391 
Q 2594 391 2855 752 
Q 3116 1113 3116 1747 
z
M 1159 2969 
Q 1341 3281 1617 3432 
Q 1894 3584 2278 3584 
Q 2916 3584 3314 3078 
Q 3713 2572 3713 1747 
Q 3713 922 3314 415 
Q 2916 -91 2278 -91 
Q 1894 -91 1617 61 
Q 1341 213 1159 525 
L 1159 0 
L 581 0 
L 581 4863 
L 1159 4863 
L 1159 2969 
z
" transform="scale(0.015625)"/>
      <path id="DejaVuSans-79" d="M 2059 -325 
Q 1816 -950 1584 -1140 
Q 1353 -1331 966 -1331 
L 506 -1331 
L 506 -850 
L 844 -850 
Q 1081 -850 1212 -737 
Q 1344 -625 1503 -206 
L 1606 56 
L 191 3500 
L 800 3500 
L 1894 763 
L 2988 3500 
L 3597 3500 
L 2059 -325 
z
" transform="scale(0.015625)"/>
      <path id="DejaVuSans-6e" d="M 3513 2113 
L 3513 0 
L 2938 0 
L 2938 2094 
Q 2938 2591 2744 2837 
Q 2550 3084 2163 3084 
Q 1697 3084 1428 2787 
Q 1159 2491 1159 1978 
L 1159 0 
L 581 0 
L 581 3500 
L 1159 3500 
L 1159 2956 
Q 1366 3272 1645 3428 
Q 1925 3584 2291 3584 
Q 2894 3584 3203 3211 
Q 3513 2838 3513 2113 
z
" transform="scale(0.015625)"/>
      <path id="DejaVuSans-74" d="M 1172 4494 
L 1172 3500 
L 2356 3500 
L 2356 3053 
L 1172 3053 
L 1172 1153 
Q 1172 725 1289 603 
Q 1406 481 1766 481 
L 2356 481 
L 2356 0 
L 1766 0 
Q 1100 0 847 248 
Q 594 497 594 1153 
L 594 3053 
L 172 3053 
L 172 3500 
L 594 3500 
L 594 4494 
L 1172 4494 
z
" transform="scale(0.015625)"/>
     </defs>
     <use xlink:href="#DejaVuSans-41"/>
     <use xlink:href="#DejaVuSans-76" x="62.533203"/>
     <use xlink:href="#DejaVuSans-65" x="121.712891"/>
     <use xlink:href="#DejaVuSans-72" x="183.236328"/>
     <use xlink:href="#DejaVuSans-61" x="224.349609"/>
     <use xlink:href="#DejaVuSans-67" x="285.628906"/>
     <use xlink:href="#DejaVuSans-65" x="349.105469"/>
     <use xlink:href="#DejaVuSans-20" x="410.628906"/>
     <use xlink:href="#DejaVuSans-52" x="442.416016"/>
     <use xlink:href="#DejaVuSans-65" x="507.398438"/>
     <use xlink:href="#DejaVuSans-77" x="568.921875"/>
     <use xlink:href="#DejaVuSans-61" x="650.708984"/>
     <use xlink:href="#DejaVuSans-72" x="711.988281"/>
     <use xlink:href="#DejaVuSans-64" x="751.351562"/>
     <use xlink:href="#DejaVuSans-20" x="814.828125"/>
     <use xlink:href="#DejaVuSans-70" x="846.615234"/>
     <use xlink:href="#DejaVuSans-65" x="910.091797"/>
     <use xlink:href="#DejaVuSans-72" x="971.615234"/>
     <use xlink:href="#DejaVuSans-20" x="1012.728516"/>
     <use xlink:href="#DejaVuSans-45" x="1044.515625"/>
     <use xlink:href="#DejaVuSans-70" x="1107.699219"/>
     <use xlink:href="#DejaVuSans-69" x="1171.175781"/>
     <use xlink:href="#DejaVuSans-73" x="1198.958984"/>
     <use xlink:href="#DejaVuSans-6f" x="1251.058594"/>
     <use xlink:href="#DejaVuSans-64" x="1312.240234"/>
     <use xlink:href="#DejaVuSans-65" x="1375.716797"/>
     <use xlink:href="#DejaVuSans-20" x="1437.240234"/>
     <use xlink:href="#DejaVuSans-62" x="1469.027344"/>
     <use xlink:href="#DejaVuSans-79" x="1532.503906"/>
     <use xlink:href="#DejaVuSans-20" x="1591.683594"/>
     <use xlink:href="#DejaVuSans-41" x="1623.470703"/>
     <use xlink:href="#DejaVuSans-67" x="1691.878906"/>
     <use xlink:href="#DejaVuSans-65" x="1755.355469"/>
     <use xlink:href="#DejaVuSans-6e" x="1816.878906"/>
     <use xlink:href="#DejaVuSans-74" x="1880.257812"/>
    </g>
   </g>
   <g id="legend_1">
    <g id="patch_7">
     <path d="M 60.03 77.474375 
L 207.825313 77.474375 
Q 209.825313 77.474375 209.825313 75.474375 
L 209.825313 32.44 
Q 209.825313 30.44 207.825313 30.44 
L 60.03 30.44 
Q 58.03 30.44 58.03 32.44 
L 58.03 75.474375 
Q 58.03 77.474375 60.03 77.474375 
z
" style="fill: #ffffff; opacity: 0.8; stroke: #cccccc; stroke-linejoin: miter"/>
    </g>
    <g id="line2d_30">
     <path d="M 62.03 38.538437 
L 72.03 38.538437 
L 82.03 38.538437 
" style="fill: none; stroke: #1f77b4; stroke-width: 1.5; stroke-linecap: square"/>
    </g>
    <g id="text_17">
     <!-- solar - Average Reward -->
     <g transform="translate(90.03 42.038437) scale(0.1 -0.1)">
      <defs>
       <path id="DejaVuSans-6c" d="M 603 4863 
L 1178 4863 
L 1178 0 
L 603 0 
L 603 4863 
z
" transform="scale(0.015625)"/>
       <path id="DejaVuSans-2d" d="M 313 2009 
L 1997 2009 
L 1997 1497 
L 313 1497 
L 313 2009 
z
" transform="scale(0.015625)"/>
      </defs>
      <use xlink:href="#DejaVuSans-73"/>
      <use xlink:href="#DejaVuSans-6f" x="52.099609"/>
      <use xlink:href="#DejaVuSans-6c" x="113.28125"/>
      <use xlink:href="#DejaVuSans-61" x="141.064453"/>
      <use xlink:href="#DejaVuSans-72" x="202.34375"/>
      <use xlink:href="#DejaVuSans-20" x="243.457031"/>
      <use xlink:href="#DejaVuSans-2d" x="275.244141"/>
      <use xlink:href="#DejaVuSans-20" x="311.328125"/>
      <use xlink:href="#DejaVuSans-41" x="343.115234"/>
      <use xlink:href="#DejaVuSans-76" x="405.648438"/>
      <use xlink:href="#DejaVuSans-65" x="464.828125"/>
      <use xlink:href="#DejaVuSans-72" x="526.351562"/>
      <use xlink:href="#DejaVuSans-61" x="567.464844"/>
      <use xlink:href="#DejaVuSans-67" x="628.744141"/>
      <use xlink:href="#DejaVuSans-65" x="692.220703"/>
      <use xlink:href="#DejaVuSans-20" x="753.744141"/>
      <use xlink:href="#DejaVuSans-52" x="785.53125"/>
      <use xlink:href="#DejaVuSans-65" x="850.513672"/>
      <use xlink:href="#DejaVuSans-77" x="912.037109"/>
      <use xlink:href="#DejaVuSans-61" x="993.824219"/>
      <use xlink:href="#DejaVuSans-72" x="1055.103516"/>
      <use xlink:href="#DejaVuSans-64" x="1094.466797"/>
     </g>
    </g>
    <g id="line2d_31">
     <path d="M 62.03 53.216563 
L 72.03 53.216563 
L 82.03 53.216563 
" style="fill: none; stroke: #ff7f0e; stroke-width: 1.5; stroke-linecap: square"/>
    </g>
    <g id="text_18">
     <!-- bat - Average Reward -->
     <g transform="translate(90.03 56.716563) scale(0.1 -0.1)">
      <use xlink:href="#DejaVuSans-62"/>
      <use xlink:href="#DejaVuSans-61" x="63.476562"/>
      <use xlink:href="#DejaVuSans-74" x="124.755859"/>
      <use xlink:href="#DejaVuSans-20" x="163.964844"/>
      <use xlink:href="#DejaVuSans-2d" x="195.751953"/>
      <use xlink:href="#DejaVuSans-20" x="231.835938"/>
      <use xlink:href="#DejaVuSans-41" x="263.623047"/>
      <use xlink:href="#DejaVuSans-76" x="326.15625"/>
      <use xlink:href="#DejaVuSans-65" x="385.335938"/>
      <use xlink:href="#DejaVuSans-72" x="446.859375"/>
      <use xlink:href="#DejaVuSans-61" x="487.972656"/>
      <use xlink:href="#DejaVuSans-67" x="549.251953"/>
      <use xlink:href="#DejaVuSans-65" x="612.728516"/>
      <use xlink:href="#DejaVuSans-20" x="674.251953"/>
      <use xlink:href="#DejaVuSans-52" x="706.039062"/>
      <use xlink:href="#DejaVuSans-65" x="771.021484"/>
      <use xlink:href="#DejaVuSans-77" x="832.544922"/>
      <use xlink:href="#DejaVuSans-61" x="914.332031"/>
      <use xlink:href="#DejaVuSans-72" x="975.611328"/>
      <use xlink:href="#DejaVuSans-64" x="1014.974609"/>
     </g>
    </g>
    <g id="line2d_32">
     <path d="M 62.03 67.894687 
L 72.03 67.894687 
L 82.03 67.894687 
" style="fill: none; stroke: #2ca02c; stroke-width: 1.5; stroke-linecap: square"/>
    </g>
    <g id="text_19">
     <!-- grid - Average Reward -->
     <g transform="translate(90.03 71.394687) scale(0.1 -0.1)">
      <use xlink:href="#DejaVuSans-67"/>
      <use xlink:href="#DejaVuSans-72" x="63.476562"/>
      <use xlink:href="#DejaVuSans-69" x="104.589844"/>
      <use xlink:href="#DejaVuSans-64" x="132.373047"/>
      <use xlink:href="#DejaVuSans-20" x="195.849609"/>
      <use xlink:href="#DejaVuSans-2d" x="227.636719"/>
      <use xlink:href="#DejaVuSans-20" x="263.720703"/>
      <use xlink:href="#DejaVuSans-41" x="295.507812"/>
      <use xlink:href="#DejaVuSans-76" x="358.041016"/>
      <use xlink:href="#DejaVuSans-65" x="417.220703"/>
      <use xlink:href="#DejaVuSans-72" x="478.744141"/>
      <use xlink:href="#DejaVuSans-61" x="519.857422"/>
      <use xlink:href="#DejaVuSans-67" x="581.136719"/>
      <use xlink:href="#DejaVuSans-65" x="644.613281"/>
      <use xlink:href="#DejaVuSans-20" x="706.136719"/>
      <use xlink:href="#DejaVuSans-52" x="737.923828"/>
      <use xlink:href="#DejaVuSans-65" x="802.90625"/>
      <use xlink:href="#DejaVuSans-77" x="864.429688"/>
      <use xlink:href="#DejaVuSans-61" x="946.216797"/>
      <use xlink:href="#DejaVuSans-72" x="1007.496094"/>
      <use xlink:href="#DejaVuSans-64" x="1046.859375"/>
     </g>
    </g>
   </g>
  </g>
 </g>
 <defs>
  <clipPath id="p5724f9d77d">
   <rect x="53.03" y="25.44" width="656.17" height="364.6"/>
  </clipPath>
 </defs>
</svg>
