<?xml version="1.0" encoding="utf-8" standalone="no"?>
<!DOCTYPE svg PUBLIC "-//W3C//DTD SVG 1.1//EN"
  "http://www.w3.org/Graphics/SVG/1.1/DTD/svg11.dtd">
<svg xmlns:xlink="http://www.w3.org/1999/xlink" width="720pt" height="432pt" viewBox="0 0 720 432" xmlns="http://www.w3.org/2000/svg" version="1.1">
 <metadata>
  <rdf:RDF xmlns:dc="http://purl.org/dc/elements/1.1/" xmlns:cc="http://creativecommons.org/ns#" xmlns:rdf="http://www.w3.org/1999/02/22-rdf-syntax-ns#">
   <cc:Work>
    <dc:type rdf:resource="http://purl.org/dc/dcmitype/StillImage"/>
    <dc:date>2025-06-05T12:40:23.765591</dc:date>
    <dc:format>image/svg+xml</dc:format>
    <dc:creator>
     <cc:Agent>
      <dc:title>Matplotlib v3.8.4, https://matplotlib.org/</dc:title>
     </cc:Agent>
    </dc:creator>
   </cc:Work>
  </rdf:RDF>
 </metadata>
 <defs>
  <style type="text/css">*{stroke-linejoin: round; stroke-linecap: butt}</style>
 </defs>
 <g id="figure_1">
  <g id="patch_1">
   <path d="M 0 432 
L 720 432 
L 720 0 
L 0 0 
z
" style="fill: #ffffff"/>
  </g>
  <g id="axes_1">
   <g id="patch_2">
    <path d="M 53.03 390.04 
L 709.2 390.04 
L 709.2 25.44 
L 53.03 25.44 
z
" style="fill: #ffffff"/>
   </g>
   <g id="matplotlib.axis_1">
    <g id="xtick_1">
     <g id="line2d_1">
      <path d="M 82.855909 390.04 
L 82.855909 25.44 
" clip-path="url(#p6b10dd9430)" style="fill: none; stroke: #b0b0b0; stroke-width: 0.8; stroke-linecap: square"/>
     </g>
     <g id="line2d_2">
      <defs>
       <path id="m2122ccfb70" d="M 0 0 
L 0 3.5 
" style="stroke: #000000; stroke-width: 0.8"/>
      </defs>
      <g>
       <use xlink:href="#m2122ccfb70" x="82.855909" y="390.04" style="stroke: #000000; stroke-width: 0.8"/>
      </g>
     </g>
     <g id="text_1">
      <!-- 0 -->
      <g transform="translate(79.674659 404.638438) scale(0.1 -0.1)">
       <defs>
        <path id="DejaVuSans-30" d="M 2034 4250 
Q 1547 4250 1301 3770 
Q 1056 3291 1056 2328 
Q 1056 1369 1301 889 
Q 1547 409 2034 409 
Q 2525 409 2770 889 
Q 3016 1369 3016 2328 
Q 3016 3291 2770 3770 
Q 2525 4250 2034 4250 
z
M 2034 4750 
Q 2819 4750 3233 4129 
Q 3647 3509 3647 2328 
Q 3647 1150 3233 529 
Q 2819 -91 2034 -91 
Q 1250 -91 836 529 
Q 422 1150 422 2328 
Q 422 3509 836 4129 
Q 1250 4750 2034 4750 
z
" transform="scale(0.015625)"/>
       </defs>
       <use xlink:href="#DejaVuSans-30"/>
      </g>
     </g>
    </g>
    <g id="xtick_2">
     <g id="line2d_3">
      <path d="M 215.710738 390.04 
L 215.710738 25.44 
" clip-path="url(#p6b10dd9430)" style="fill: none; stroke: #b0b0b0; stroke-width: 0.8; stroke-linecap: square"/>
     </g>
     <g id="line2d_4">
      <g>
       <use xlink:href="#m2122ccfb70" x="215.710738" y="390.04" style="stroke: #000000; stroke-width: 0.8"/>
      </g>
     </g>
     <g id="text_2">
      <!-- 100 -->
      <g transform="translate(206.166988 404.638438) scale(0.1 -0.1)">
       <defs>
        <path id="DejaVuSans-31" d="M 794 531 
L 1825 531 
L 1825 4091 
L 703 3866 
L 703 4441 
L 1819 4666 
L 2450 4666 
L 2450 531 
L 3481 531 
L 3481 0 
L 794 0 
L 794 531 
z
" transform="scale(0.015625)"/>
       </defs>
       <use xlink:href="#DejaVuSans-31"/>
       <use xlink:href="#DejaVuSans-30" x="63.623047"/>
       <use xlink:href="#DejaVuSans-30" x="127.246094"/>
      </g>
     </g>
    </g>
    <g id="xtick_3">
     <g id="line2d_5">
      <path d="M 348.565567 390.04 
L 348.565567 25.44 
" clip-path="url(#p6b10dd9430)" style="fill: none; stroke: #b0b0b0; stroke-width: 0.8; stroke-linecap: square"/>
     </g>
     <g id="line2d_6">
      <g>
       <use xlink:href="#m2122ccfb70" x="348.565567" y="390.04" style="stroke: #000000; stroke-width: 0.8"/>
      </g>
     </g>
     <g id="text_3">
      <!-- 200 -->
      <g transform="translate(339.021817 404.638438) scale(0.1 -0.1)">
       <defs>
        <path id="DejaVuSans-32" d="M 1228 531 
L 3431 531 
L 3431 0 
L 469 0 
L 469 531 
Q 828 903 1448 1529 
Q 2069 2156 2228 2338 
Q 2531 2678 2651 2914 
Q 2772 3150 2772 3378 
Q 2772 3750 2511 3984 
Q 2250 4219 1831 4219 
Q 1534 4219 1204 4116 
Q 875 4013 500 3803 
L 500 4441 
Q 881 4594 1212 4672 
Q 1544 4750 1819 4750 
Q 2544 4750 2975 4387 
Q 3406 4025 3406 3419 
Q 3406 3131 3298 2873 
Q 3191 2616 2906 2266 
Q 2828 2175 2409 1742 
Q 1991 1309 1228 531 
z
" transform="scale(0.015625)"/>
       </defs>
       <use xlink:href="#DejaVuSans-32"/>
       <use xlink:href="#DejaVuSans-30" x="63.623047"/>
       <use xlink:href="#DejaVuSans-30" x="127.246094"/>
      </g>
     </g>
    </g>
    <g id="xtick_4">
     <g id="line2d_7">
      <path d="M 481.420396 390.04 
L 481.420396 25.44 
" clip-path="url(#p6b10dd9430)" style="fill: none; stroke: #b0b0b0; stroke-width: 0.8; stroke-linecap: square"/>
     </g>
     <g id="line2d_8">
      <g>
       <use xlink:href="#m2122ccfb70" x="481.420396" y="390.04" style="stroke: #000000; stroke-width: 0.8"/>
      </g>
     </g>
     <g id="text_4">
      <!-- 300 -->
      <g transform="translate(471.876646 404.638438) scale(0.1 -0.1)">
       <defs>
        <path id="DejaVuSans-33" d="M 2597 2516 
Q 3050 2419 3304 2112 
Q 3559 1806 3559 1356 
Q 3559 666 3084 287 
Q 2609 -91 1734 -91 
Q 1441 -91 1130 -33 
Q 819 25 488 141 
L 488 750 
Q 750 597 1062 519 
Q 1375 441 1716 441 
Q 2309 441 2620 675 
Q 2931 909 2931 1356 
Q 2931 1769 2642 2001 
Q 2353 2234 1838 2234 
L 1294 2234 
L 1294 2753 
L 1863 2753 
Q 2328 2753 2575 2939 
Q 2822 3125 2822 3475 
Q 2822 3834 2567 4026 
Q 2313 4219 1838 4219 
Q 1578 4219 1281 4162 
Q 984 4106 628 3988 
L 628 4550 
Q 988 4650 1302 4700 
Q 1616 4750 1894 4750 
Q 2613 4750 3031 4423 
Q 3450 4097 3450 3541 
Q 3450 3153 3228 2886 
Q 3006 2619 2597 2516 
z
" transform="scale(0.015625)"/>
       </defs>
       <use xlink:href="#DejaVuSans-33"/>
       <use xlink:href="#DejaVuSans-30" x="63.623047"/>
       <use xlink:href="#DejaVuSans-30" x="127.246094"/>
      </g>
     </g>
    </g>
    <g id="xtick_5">
     <g id="line2d_9">
      <path d="M 614.275225 390.04 
L 614.275225 25.44 
" clip-path="url(#p6b10dd9430)" style="fill: none; stroke: #b0b0b0; stroke-width: 0.8; stroke-linecap: square"/>
     </g>
     <g id="line2d_10">
      <g>
       <use xlink:href="#m2122ccfb70" x="614.275225" y="390.04" style="stroke: #000000; stroke-width: 0.8"/>
      </g>
     </g>
     <g id="text_5">
      <!-- 400 -->
      <g transform="translate(604.731475 404.638438) scale(0.1 -0.1)">
       <defs>
        <path id="DejaVuSans-34" d="M 2419 4116 
L 825 1625 
L 2419 1625 
L 2419 4116 
z
M 2253 4666 
L 3047 4666 
L 3047 1625 
L 3713 1625 
L 3713 1100 
L 3047 1100 
L 3047 0 
L 2419 0 
L 2419 1100 
L 313 1100 
L 313 1709 
L 2253 4666 
z
" transform="scale(0.015625)"/>
       </defs>
       <use xlink:href="#DejaVuSans-34"/>
       <use xlink:href="#DejaVuSans-30" x="63.623047"/>
       <use xlink:href="#DejaVuSans-30" x="127.246094"/>
      </g>
     </g>
    </g>
    <g id="text_6">
     <!-- Episode -->
     <g transform="translate(361.4775 418.316562) scale(0.1 -0.1)">
      <defs>
       <path id="DejaVuSans-45" d="M 628 4666 
L 3578 4666 
L 3578 4134 
L 1259 4134 
L 1259 2753 
L 3481 2753 
L 3481 2222 
L 1259 2222 
L 1259 531 
L 3634 531 
L 3634 0 
L 628 0 
L 628 4666 
z
" transform="scale(0.015625)"/>
       <path id="DejaVuSans-70" d="M 1159 525 
L 1159 -1331 
L 581 -1331 
L 581 3500 
L 1159 3500 
L 1159 2969 
Q 1341 3281 1617 3432 
Q 1894 3584 2278 3584 
Q 2916 3584 3314 3078 
Q 3713 2572 3713 1747 
Q 3713 922 3314 415 
Q 2916 -91 2278 -91 
Q 1894 -91 1617 61 
Q 1341 213 1159 525 
z
M 3116 1747 
Q 3116 2381 2855 2742 
Q 2594 3103 2138 3103 
Q 1681 3103 1420 2742 
Q 1159 2381 1159 1747 
Q 1159 1113 1420 752 
Q 1681 391 2138 391 
Q 2594 391 2855 752 
Q 3116 1113 3116 1747 
z
" transform="scale(0.015625)"/>
       <path id="DejaVuSans-69" d="M 603 3500 
L 1178 3500 
L 1178 0 
L 603 0 
L 603 3500 
z
M 603 4863 
L 1178 4863 
L 1178 4134 
L 603 4134 
L 603 4863 
z
" transform="scale(0.015625)"/>
       <path id="DejaVuSans-73" d="M 2834 3397 
L 2834 2853 
Q 2591 2978 2328 3040 
Q 2066 3103 1784 3103 
Q 1356 3103 1142 2972 
Q 928 2841 928 2578 
Q 928 2378 1081 2264 
Q 1234 2150 1697 2047 
L 1894 2003 
Q 2506 1872 2764 1633 
Q 3022 1394 3022 966 
Q 3022 478 2636 193 
Q 2250 -91 1575 -91 
Q 1294 -91 989 -36 
Q 684 19 347 128 
L 347 722 
Q 666 556 975 473 
Q 1284 391 1588 391 
Q 1994 391 2212 530 
Q 2431 669 2431 922 
Q 2431 1156 2273 1281 
Q 2116 1406 1581 1522 
L 1381 1569 
Q 847 1681 609 1914 
Q 372 2147 372 2553 
Q 372 3047 722 3315 
Q 1072 3584 1716 3584 
Q 2034 3584 2315 3537 
Q 2597 3491 2834 3397 
z
" transform="scale(0.015625)"/>
       <path id="DejaVuSans-6f" d="M 1959 3097 
Q 1497 3097 1228 2736 
Q 959 2375 959 1747 
Q 959 1119 1226 758 
Q 1494 397 1959 397 
Q 2419 397 2687 759 
Q 2956 1122 2956 1747 
Q 2956 2369 2687 2733 
Q 2419 3097 1959 3097 
z
M 1959 3584 
Q 2709 3584 3137 3096 
Q 3566 2609 3566 1747 
Q 3566 888 3137 398 
Q 2709 -91 1959 -91 
Q 1206 -91 779 398 
Q 353 888 353 1747 
Q 353 2609 779 3096 
Q 1206 3584 1959 3584 
z
" transform="scale(0.015625)"/>
       <path id="DejaVuSans-64" d="M 2906 2969 
L 2906 4863 
L 3481 4863 
L 3481 0 
L 2906 0 
L 2906 525 
Q 2725 213 2448 61 
Q 2172 -91 1784 -91 
Q 1150 -91 751 415 
Q 353 922 353 1747 
Q 353 2572 751 3078 
Q 1150 3584 1784 3584 
Q 2172 3584 2448 3432 
Q 2725 3281 2906 2969 
z
M 947 1747 
Q 947 1113 1208 752 
Q 1469 391 1925 391 
Q 2381 391 2643 752 
Q 2906 1113 2906 1747 
Q 2906 2381 2643 2742 
Q 2381 3103 1925 3103 
Q 1469 3103 1208 2742 
Q 947 2381 947 1747 
z
" transform="scale(0.015625)"/>
       <path id="DejaVuSans-65" d="M 3597 1894 
L 3597 1613 
L 953 1613 
Q 991 1019 1311 708 
Q 1631 397 2203 397 
Q 2534 397 2845 478 
Q 3156 559 3463 722 
L 3463 178 
Q 3153 47 2828 -22 
Q 2503 -91 2169 -91 
Q 1331 -91 842 396 
Q 353 884 353 1716 
Q 353 2575 817 3079 
Q 1281 3584 2069 3584 
Q 2775 3584 3186 3129 
Q 3597 2675 3597 1894 
z
M 3022 2063 
Q 3016 2534 2758 2815 
Q 2500 3097 2075 3097 
Q 1594 3097 1305 2825 
Q 1016 2553 972 2059 
L 3022 2063 
z
" transform="scale(0.015625)"/>
      </defs>
      <use xlink:href="#DejaVuSans-45"/>
      <use xlink:href="#DejaVuSans-70" x="63.183594"/>
      <use xlink:href="#DejaVuSans-69" x="126.660156"/>
      <use xlink:href="#DejaVuSans-73" x="154.443359"/>
      <use xlink:href="#DejaVuSans-6f" x="206.542969"/>
      <use xlink:href="#DejaVuSans-64" x="267.724609"/>
      <use xlink:href="#DejaVuSans-65" x="331.201172"/>
     </g>
    </g>
   </g>
   <g id="matplotlib.axis_2">
    <g id="ytick_1">
     <g id="line2d_11">
      <path d="M 53.03 376.016923 
L 709.2 376.016923 
" clip-path="url(#p6b10dd9430)" style="fill: none; stroke: #b0b0b0; stroke-width: 0.8; stroke-linecap: square"/>
     </g>
     <g id="line2d_12">
      <defs>
       <path id="mc7acd5d0a0" d="M 0 0 
L -3.5 0 
" style="stroke: #000000; stroke-width: 0.8"/>
      </defs>
      <g>
       <use xlink:href="#mc7acd5d0a0" x="53.03" y="376.016923" style="stroke: #000000; stroke-width: 0.8"/>
      </g>
     </g>
     <g id="text_7">
      <!-- −15 -->
      <g transform="translate(24.925313 379.816142) scale(0.1 -0.1)">
       <defs>
        <path id="DejaVuSans-2212" d="M 678 2272 
L 4684 2272 
L 4684 1741 
L 678 1741 
L 678 2272 
z
" transform="scale(0.015625)"/>
        <path id="DejaVuSans-35" d="M 691 4666 
L 3169 4666 
L 3169 4134 
L 1269 4134 
L 1269 2991 
Q 1406 3038 1543 3061 
Q 1681 3084 1819 3084 
Q 2600 3084 3056 2656 
Q 3513 2228 3513 1497 
Q 3513 744 3044 326 
Q 2575 -91 1722 -91 
Q 1428 -91 1123 -41 
Q 819 9 494 109 
L 494 744 
Q 775 591 1075 516 
Q 1375 441 1709 441 
Q 2250 441 2565 725 
Q 2881 1009 2881 1497 
Q 2881 1984 2565 2268 
Q 2250 2553 1709 2553 
Q 1456 2553 1204 2497 
Q 953 2441 691 2322 
L 691 4666 
z
" transform="scale(0.015625)"/>
       </defs>
       <use xlink:href="#DejaVuSans-2212"/>
       <use xlink:href="#DejaVuSans-31" x="83.789062"/>
       <use xlink:href="#DejaVuSans-35" x="147.412109"/>
      </g>
     </g>
    </g>
    <g id="ytick_2">
     <g id="line2d_13">
      <path d="M 53.03 317.374965 
L 709.2 317.374965 
" clip-path="url(#p6b10dd9430)" style="fill: none; stroke: #b0b0b0; stroke-width: 0.8; stroke-linecap: square"/>
     </g>
     <g id="line2d_14">
      <g>
       <use xlink:href="#mc7acd5d0a0" x="53.03" y="317.374965" style="stroke: #000000; stroke-width: 0.8"/>
      </g>
     </g>
     <g id="text_8">
      <!-- −10 -->
      <g transform="translate(24.925313 321.174184) scale(0.1 -0.1)">
       <use xlink:href="#DejaVuSans-2212"/>
       <use xlink:href="#DejaVuSans-31" x="83.789062"/>
       <use xlink:href="#DejaVuSans-30" x="147.412109"/>
      </g>
     </g>
    </g>
    <g id="ytick_3">
     <g id="line2d_15">
      <path d="M 53.03 258.733007 
L 709.2 258.733007 
" clip-path="url(#p6b10dd9430)" style="fill: none; stroke: #b0b0b0; stroke-width: 0.8; stroke-linecap: square"/>
     </g>
     <g id="line2d_16">
      <g>
       <use xlink:href="#mc7acd5d0a0" x="53.03" y="258.733007" style="stroke: #000000; stroke-width: 0.8"/>
      </g>
     </g>
     <g id="text_9">
      <!-- −5 -->
      <g transform="translate(31.287813 262.532226) scale(0.1 -0.1)">
       <use xlink:href="#DejaVuSans-2212"/>
       <use xlink:href="#DejaVuSans-35" x="83.789062"/>
      </g>
     </g>
    </g>
    <g id="ytick_4">
     <g id="line2d_17">
      <path d="M 53.03 200.091049 
L 709.2 200.091049 
" clip-path="url(#p6b10dd9430)" style="fill: none; stroke: #b0b0b0; stroke-width: 0.8; stroke-linecap: square"/>
     </g>
     <g id="line2d_18">
      <g>
       <use xlink:href="#mc7acd5d0a0" x="53.03" y="200.091049" style="stroke: #000000; stroke-width: 0.8"/>
      </g>
     </g>
     <g id="text_10">
      <!-- 0 -->
      <g transform="translate(39.6675 203.890268) scale(0.1 -0.1)">
       <use xlink:href="#DejaVuSans-30"/>
      </g>
     </g>
    </g>
    <g id="ytick_5">
     <g id="line2d_19">
      <path d="M 53.03 141.449091 
L 709.2 141.449091 
" clip-path="url(#p6b10dd9430)" style="fill: none; stroke: #b0b0b0; stroke-width: 0.8; stroke-linecap: square"/>
     </g>
     <g id="line2d_20">
      <g>
       <use xlink:href="#mc7acd5d0a0" x="53.03" y="141.449091" style="stroke: #000000; stroke-width: 0.8"/>
      </g>
     </g>
     <g id="text_11">
      <!-- 5 -->
      <g transform="translate(39.6675 145.24831) scale(0.1 -0.1)">
       <use xlink:href="#DejaVuSans-35"/>
      </g>
     </g>
    </g>
    <g id="ytick_6">
     <g id="line2d_21">
      <path d="M 53.03 82.807133 
L 709.2 82.807133 
" clip-path="url(#p6b10dd9430)" style="fill: none; stroke: #b0b0b0; stroke-width: 0.8; stroke-linecap: square"/>
     </g>
     <g id="line2d_22">
      <g>
       <use xlink:href="#mc7acd5d0a0" x="53.03" y="82.807133" style="stroke: #000000; stroke-width: 0.8"/>
      </g>
     </g>
     <g id="text_12">
      <!-- 10 -->
      <g transform="translate(33.305 86.606352) scale(0.1 -0.1)">
       <use xlink:href="#DejaVuSans-31"/>
       <use xlink:href="#DejaVuSans-30" x="63.623047"/>
      </g>
     </g>
    </g>
    <g id="text_13">
     <!-- Average Reward -->
     <g transform="translate(18.845625 248.482969) rotate(-90) scale(0.1 -0.1)">
      <defs>
       <path id="DejaVuSans-41" d="M 2188 4044 
L 1331 1722 
L 3047 1722 
L 2188 4044 
z
M 1831 4666 
L 2547 4666 
L 4325 0 
L 3669 0 
L 3244 1197 
L 1141 1197 
L 716 0 
L 50 0 
L 1831 4666 
z
" transform="scale(0.015625)"/>
       <path id="DejaVuSans-76" d="M 191 3500 
L 800 3500 
L 1894 563 
L 2988 3500 
L 3597 3500 
L 2284 0 
L 1503 0 
L 191 3500 
z
" transform="scale(0.015625)"/>
       <path id="DejaVuSans-72" d="M 2631 2963 
Q 2534 3019 2420 3045 
Q 2306 3072 2169 3072 
Q 1681 3072 1420 2755 
Q 1159 2438 1159 1844 
L 1159 0 
L 581 0 
L 581 3500 
L 1159 3500 
L 1159 2956 
Q 1341 3275 1631 3429 
Q 1922 3584 2338 3584 
Q 2397 3584 2469 3576 
Q 2541 3569 2628 3553 
L 2631 2963 
z
" transform="scale(0.015625)"/>
       <path id="DejaVuSans-61" d="M 2194 1759 
Q 1497 1759 1228 1600 
Q 959 1441 959 1056 
Q 959 750 1161 570 
Q 1363 391 1709 391 
Q 2188 391 2477 730 
Q 2766 1069 2766 1631 
L 2766 1759 
L 2194 1759 
z
M 3341 1997 
L 3341 0 
L 2766 0 
L 2766 531 
Q 2569 213 2275 61 
Q 1981 -91 1556 -91 
Q 1019 -91 701 211 
Q 384 513 384 1019 
Q 384 1609 779 1909 
Q 1175 2209 1959 2209 
L 2766 2209 
L 2766 2266 
Q 2766 2663 2505 2880 
Q 2244 3097 1772 3097 
Q 1472 3097 1187 3025 
Q 903 2953 641 2809 
L 641 3341 
Q 956 3463 1253 3523 
Q 1550 3584 1831 3584 
Q 2591 3584 2966 3190 
Q 3341 2797 3341 1997 
z
" transform="scale(0.015625)"/>
       <path id="DejaVuSans-67" d="M 2906 1791 
Q 2906 2416 2648 2759 
Q 2391 3103 1925 3103 
Q 1463 3103 1205 2759 
Q 947 2416 947 1791 
Q 947 1169 1205 825 
Q 1463 481 1925 481 
Q 2391 481 2648 825 
Q 2906 1169 2906 1791 
z
M 3481 434 
Q 3481 -459 3084 -895 
Q 2688 -1331 1869 -1331 
Q 1566 -1331 1297 -1286 
Q 1028 -1241 775 -1147 
L 775 -588 
Q 1028 -725 1275 -790 
Q 1522 -856 1778 -856 
Q 2344 -856 2625 -561 
Q 2906 -266 2906 331 
L 2906 616 
Q 2728 306 2450 153 
Q 2172 0 1784 0 
Q 1141 0 747 490 
Q 353 981 353 1791 
Q 353 2603 747 3093 
Q 1141 3584 1784 3584 
Q 2172 3584 2450 3431 
Q 2728 3278 2906 2969 
L 2906 3500 
L 3481 3500 
L 3481 434 
z
" transform="scale(0.015625)"/>
       <path id="DejaVuSans-20" transform="scale(0.015625)"/>
       <path id="DejaVuSans-52" d="M 2841 2188 
Q 3044 2119 3236 1894 
Q 3428 1669 3622 1275 
L 4263 0 
L 3584 0 
L 2988 1197 
Q 2756 1666 2539 1819 
Q 2322 1972 1947 1972 
L 1259 1972 
L 1259 0 
L 628 0 
L 628 4666 
L 2053 4666 
Q 2853 4666 3247 4331 
Q 3641 3997 3641 3322 
Q 3641 2881 3436 2590 
Q 3231 2300 2841 2188 
z
M 1259 4147 
L 1259 2491 
L 2053 2491 
Q 2509 2491 2742 2702 
Q 2975 2913 2975 3322 
Q 2975 3731 2742 3939 
Q 2509 4147 2053 4147 
L 1259 4147 
z
" transform="scale(0.015625)"/>
       <path id="DejaVuSans-77" d="M 269 3500 
L 844 3500 
L 1563 769 
L 2278 3500 
L 2956 3500 
L 3675 769 
L 4391 3500 
L 4966 3500 
L 4050 0 
L 3372 0 
L 2619 2869 
L 1863 0 
L 1184 0 
L 269 3500 
z
" transform="scale(0.015625)"/>
      </defs>
      <use xlink:href="#DejaVuSans-41"/>
      <use xlink:href="#DejaVuSans-76" x="62.533203"/>
      <use xlink:href="#DejaVuSans-65" x="121.712891"/>
      <use xlink:href="#DejaVuSans-72" x="183.236328"/>
      <use xlink:href="#DejaVuSans-61" x="224.349609"/>
      <use xlink:href="#DejaVuSans-67" x="285.628906"/>
      <use xlink:href="#DejaVuSans-65" x="349.105469"/>
      <use xlink:href="#DejaVuSans-20" x="410.628906"/>
      <use xlink:href="#DejaVuSans-52" x="442.416016"/>
      <use xlink:href="#DejaVuSans-65" x="507.398438"/>
      <use xlink:href="#DejaVuSans-77" x="568.921875"/>
      <use xlink:href="#DejaVuSans-61" x="650.708984"/>
      <use xlink:href="#DejaVuSans-72" x="711.988281"/>
      <use xlink:href="#DejaVuSans-64" x="751.351562"/>
     </g>
    </g>
   </g>
   <g id="line2d_23">
    <path d="M 82.855909 291.878462 
L 84.184457 286.779161 
L 85.513006 302.077063 
L 86.841554 256.183357 
L 88.170102 261.282657 
L 89.498651 286.779161 
L 90.827199 291.878462 
L 92.155747 276.580559 
L 93.484295 256.183357 
L 94.812844 312.275664 
L 96.141392 276.580559 
L 97.46994 251.084056 
L 98.798489 261.282657 
L 100.127037 281.67986 
L 101.455585 286.779161 
L 102.784133 271.481259 
L 104.112682 266.381958 
L 106.769778 296.977762 
L 108.098327 296.977762 
L 109.426875 251.084056 
L 110.755423 327.573566 
L 112.083971 271.481259 
L 113.41252 210.28965 
L 114.741068 200.091049 
L 116.069616 240.885455 
L 117.398165 245.984755 
L 118.726713 256.183357 
L 120.055261 261.282657 
L 121.383809 194.991748 
L 122.712358 225.587552 
L 124.040906 271.481259 
L 125.369454 281.67986 
L 126.698003 235.786154 
L 128.026551 220.488252 
L 129.355099 256.183357 
L 130.683647 276.580559 
L 132.012196 261.282657 
L 133.340744 291.878462 
L 134.669292 296.977762 
L 135.997841 230.686853 
L 137.326389 225.587552 
L 139.983486 256.183357 
L 141.312034 266.381958 
L 142.640582 291.878462 
L 143.96913 256.183357 
L 145.297679 225.587552 
L 146.626227 225.587552 
L 147.954775 271.481259 
L 149.283324 281.67986 
L 150.611872 205.19035 
L 151.94042 256.183357 
L 153.268968 302.077063 
L 154.597517 281.67986 
L 155.926065 245.984755 
L 157.254613 220.488252 
L 158.583162 215.388951 
L 159.91171 235.786154 
L 161.240258 251.084056 
L 162.568806 210.28965 
L 163.897355 256.183357 
L 165.225903 189.892448 
L 166.554451 220.488252 
L 167.883 200.091049 
L 169.211548 240.885455 
L 170.540096 205.19035 
L 171.868644 266.381958 
L 173.197193 189.892448 
L 174.525741 230.686853 
L 175.854289 281.67986 
L 177.182838 266.381958 
L 178.511386 240.885455 
L 179.839934 256.183357 
L 181.168482 220.488252 
L 182.497031 261.282657 
L 183.825579 240.885455 
L 185.154127 276.580559 
L 186.482676 322.474266 
L 187.811224 276.580559 
L 189.139772 225.587552 
L 190.468321 220.488252 
L 191.796869 184.793147 
L 193.125417 240.885455 
L 194.453965 245.984755 
L 195.782514 291.878462 
L 197.111062 251.084056 
L 198.43961 245.984755 
L 199.768159 230.686853 
L 201.096707 271.481259 
L 202.425255 286.779161 
L 203.753803 307.176364 
L 205.082352 235.786154 
L 206.4109 245.984755 
L 207.739448 215.388951 
L 209.067997 230.686853 
L 211.725093 251.084056 
L 213.053641 230.686853 
L 214.38219 296.977762 
L 215.710738 271.481259 
L 217.039286 302.077063 
L 218.367835 225.587552 
L 219.696383 205.19035 
L 221.024931 189.892448 
L 222.353479 266.381958 
L 223.682028 210.28965 
L 225.010576 240.885455 
L 226.339124 245.984755 
L 227.667673 184.793147 
L 228.996221 200.091049 
L 230.324769 184.793147 
L 231.653317 276.580559 
L 232.981866 266.381958 
L 234.310414 225.587552 
L 235.638962 261.282657 
L 236.967511 245.984755 
L 238.296059 240.885455 
L 239.624607 179.693846 
L 240.953155 184.793147 
L 242.281704 235.786154 
L 243.610252 174.594545 
L 244.9388 174.594545 
L 246.267349 205.19035 
L 247.595897 261.282657 
L 248.924445 251.084056 
L 250.252994 256.183357 
L 251.581542 174.594545 
L 252.91009 276.580559 
L 254.238638 240.885455 
L 255.567187 164.395944 
L 256.895735 194.991748 
L 258.224283 261.282657 
L 259.552832 225.587552 
L 260.88138 261.282657 
L 262.209928 245.984755 
L 263.538476 184.793147 
L 264.867025 225.587552 
L 267.524121 194.991748 
L 268.85267 194.991748 
L 270.181218 179.693846 
L 271.509766 194.991748 
L 272.838314 230.686853 
L 274.166863 261.282657 
L 275.495411 251.084056 
L 276.823959 169.495245 
L 278.152508 271.481259 
L 279.481056 256.183357 
L 280.809604 179.693846 
L 282.138152 215.388951 
L 283.466701 179.693846 
L 284.795249 169.495245 
L 286.123797 235.786154 
L 287.452346 205.19035 
L 288.780894 210.28965 
L 290.109442 230.686853 
L 291.43799 159.296643 
L 292.766539 245.984755 
L 294.095087 189.892448 
L 295.423635 235.786154 
L 296.752184 184.793147 
L 298.080732 200.091049 
L 299.40928 200.091049 
L 300.737829 215.388951 
L 302.066377 225.587552 
L 303.394925 225.587552 
L 304.723473 164.395944 
L 306.052022 225.587552 
L 307.38057 194.991748 
L 308.709118 215.388951 
L 310.037667 240.885455 
L 311.366215 235.786154 
L 312.694763 164.395944 
L 314.023311 215.388951 
L 315.35186 205.19035 
L 316.680408 205.19035 
L 318.008956 276.580559 
L 319.337505 225.587552 
L 320.666053 251.084056 
L 321.994601 205.19035 
L 325.980246 174.594545 
L 327.308794 184.793147 
L 328.637343 174.594545 
L 331.294439 256.183357 
L 332.622987 215.388951 
L 333.951536 240.885455 
L 335.280084 251.084056 
L 336.608632 205.19035 
L 337.937181 184.793147 
L 339.265729 240.885455 
L 340.594277 174.594545 
L 341.922825 194.991748 
L 343.251374 200.091049 
L 344.579922 200.091049 
L 345.90847 322.474266 
L 347.237019 164.395944 
L 348.565567 174.594545 
L 349.894115 174.594545 
L 351.222663 179.693846 
L 352.551212 235.786154 
L 353.87976 169.495245 
L 355.208308 169.495245 
L 356.536857 174.594545 
L 357.865405 174.594545 
L 359.193953 164.395944 
L 360.522502 205.19035 
L 361.85105 169.495245 
L 363.179598 143.998741 
L 364.508146 210.28965 
L 365.836695 184.793147 
L 367.165243 189.892448 
L 368.493791 210.28965 
L 369.82234 194.991748 
L 371.150888 154.197343 
L 372.479436 184.793147 
L 373.807984 174.594545 
L 375.136533 210.28965 
L 376.465081 164.395944 
L 377.793629 225.587552 
L 379.122178 159.296643 
L 380.450726 235.786154 
L 381.779274 154.197343 
L 383.107822 220.488252 
L 384.436371 194.991748 
L 385.764919 164.395944 
L 387.093467 138.899441 
L 388.422016 194.991748 
L 389.750564 210.28965 
L 391.079112 220.488252 
L 392.40766 189.892448 
L 393.736209 164.395944 
L 395.064757 205.19035 
L 396.393305 240.885455 
L 397.721854 154.197343 
L 399.050402 164.395944 
L 401.707498 205.19035 
L 403.036047 194.991748 
L 404.364595 189.892448 
L 405.693143 225.587552 
L 407.021692 174.594545 
L 408.35024 245.984755 
L 409.678788 215.388951 
L 411.007337 225.587552 
L 412.335885 184.793147 
L 413.664433 256.183357 
L 414.992981 194.991748 
L 416.32153 194.991748 
L 417.650078 184.793147 
L 418.978626 184.793147 
L 420.307175 174.594545 
L 421.635723 184.793147 
L 422.964271 184.793147 
L 424.292819 174.594545 
L 426.949916 215.388951 
L 428.278464 143.998741 
L 429.607013 194.991748 
L 430.935561 194.991748 
L 432.264109 220.488252 
L 433.592657 174.594545 
L 434.921206 235.786154 
L 436.249754 143.998741 
L 437.578302 205.19035 
L 440.235399 194.991748 
L 441.563947 164.395944 
L 442.892495 251.084056 
L 444.221044 164.395944 
L 445.549592 184.793147 
L 446.87814 164.395944 
L 448.206689 194.991748 
L 449.535237 128.700839 
L 450.863785 205.19035 
L 452.192333 138.899441 
L 453.520882 174.594545 
L 454.84943 138.899441 
L 456.177978 169.495245 
L 457.506527 169.495245 
L 458.835075 133.80014 
L 460.163623 143.998741 
L 461.492171 164.395944 
L 462.82072 159.296643 
L 464.149268 164.395944 
L 465.477816 143.998741 
L 466.806365 205.19035 
L 468.134913 169.495245 
L 469.463461 154.197343 
L 470.79201 225.587552 
L 472.120558 164.395944 
L 473.449106 174.594545 
L 476.106203 164.395944 
L 477.434751 184.793147 
L 478.763299 143.998741 
L 480.091848 154.197343 
L 481.420396 230.686853 
L 482.748944 205.19035 
L 484.077492 154.197343 
L 485.406041 159.296643 
L 486.734589 179.693846 
L 488.063137 174.594545 
L 489.391686 215.388951 
L 490.720234 174.594545 
L 492.048782 154.197343 
L 493.37733 184.793147 
L 494.705879 194.991748 
L 496.034427 149.098042 
L 497.362975 149.098042 
L 498.691524 159.296643 
L 500.020072 205.19035 
L 501.34862 174.594545 
L 504.005717 133.80014 
L 505.334265 174.594545 
L 506.662813 174.594545 
L 507.991362 184.793147 
L 509.31991 179.693846 
L 510.648458 143.998741 
L 511.977006 205.19035 
L 513.305555 220.488252 
L 514.634103 143.998741 
L 515.962651 184.793147 
L 517.2912 149.098042 
L 518.619748 143.998741 
L 519.948296 174.594545 
L 521.276845 143.998741 
L 522.605393 164.395944 
L 523.933941 123.601538 
L 525.262489 184.793147 
L 526.591038 123.601538 
L 527.919586 194.991748 
L 529.248134 164.395944 
L 530.576683 164.395944 
L 531.905231 154.197343 
L 533.233779 174.594545 
L 534.562327 164.395944 
L 535.890876 133.80014 
L 538.547972 143.998741 
L 539.876521 164.395944 
L 541.205069 133.80014 
L 542.533617 169.495245 
L 543.862165 154.197343 
L 545.190714 225.587552 
L 546.519262 179.693846 
L 547.84781 179.693846 
L 549.176359 128.700839 
L 550.504907 133.80014 
L 551.833455 174.594545 
L 553.162003 138.899441 
L 554.490552 164.395944 
L 555.8191 154.197343 
L 557.147648 123.601538 
L 558.476197 194.991748 
L 559.804745 143.998741 
L 561.133293 133.80014 
L 563.79039 154.197343 
L 565.118938 143.998741 
L 566.447486 138.899441 
L 567.776035 164.395944 
L 569.104583 194.991748 
L 570.433131 123.601538 
L 571.761679 133.80014 
L 573.090228 154.197343 
L 575.747324 154.197343 
L 577.075873 143.998741 
L 578.404421 128.700839 
L 579.732969 149.098042 
L 581.061518 164.395944 
L 583.718614 123.601538 
L 585.047162 159.296643 
L 587.704259 149.098042 
L 589.032807 133.80014 
L 590.361356 133.80014 
L 591.689904 123.601538 
L 593.018452 133.80014 
L 594.347 133.80014 
L 595.675549 184.793147 
L 597.004097 133.80014 
L 598.332645 143.998741 
L 600.989742 143.998741 
L 602.31829 159.296643 
L 603.646838 123.601538 
L 604.975387 143.998741 
L 606.303935 133.80014 
L 607.632483 133.80014 
L 608.961032 123.601538 
L 612.946676 154.197343 
L 614.275225 133.80014 
L 615.603773 133.80014 
L 616.932321 143.998741 
L 618.26087 123.601538 
L 620.917966 143.998741 
L 622.246514 123.601538 
L 623.575063 164.395944 
L 624.903611 164.395944 
L 626.232159 123.601538 
L 628.889256 164.395944 
L 630.217804 123.601538 
L 631.546353 143.998741 
L 632.874901 143.998741 
L 634.203449 154.197343 
L 636.860546 133.80014 
L 638.189094 154.197343 
L 639.517642 123.601538 
L 646.160384 123.601538 
L 647.488932 133.80014 
L 648.81748 123.601538 
L 650.146029 143.998741 
L 651.474577 123.601538 
L 652.803125 123.601538 
L 654.131673 174.594545 
L 655.460222 133.80014 
L 656.78877 123.601538 
L 659.445867 123.601538 
L 660.774415 133.80014 
L 662.102963 174.594545 
L 663.431511 154.197343 
L 664.76006 123.601538 
L 679.374091 123.601538 
L 679.374091 123.601538 
" clip-path="url(#p6b10dd9430)" style="fill: none; stroke: #1f77b4; stroke-width: 1.5; stroke-linecap: square"/>
   </g>
   <g id="line2d_24">
    <path d="M 82.855909 205.19035 
L 84.184457 312.275664 
L 85.513006 312.275664 
L 86.841554 215.388951 
L 88.170102 251.084056 
L 89.498651 332.672867 
L 90.827199 327.573566 
L 92.155747 210.28965 
L 93.484295 296.977762 
L 94.812844 220.488252 
L 96.141392 256.183357 
L 97.46994 210.28965 
L 98.798489 210.28965 
L 100.127037 215.388951 
L 101.455585 286.779161 
L 102.784133 266.381958 
L 104.112682 220.488252 
L 105.44123 215.388951 
L 106.769778 322.474266 
L 108.098327 235.786154 
L 109.426875 235.786154 
L 110.755423 312.275664 
L 113.41252 154.197343 
L 114.741068 261.282657 
L 116.069616 271.481259 
L 117.398165 256.183357 
L 118.726713 220.488252 
L 120.055261 215.388951 
L 121.383809 215.388951 
L 122.712358 281.67986 
L 124.040906 240.885455 
L 125.369454 286.779161 
L 126.698003 286.779161 
L 128.026551 215.388951 
L 129.355099 281.67986 
L 130.683647 138.899441 
L 132.012196 200.091049 
L 133.340744 210.28965 
L 135.997841 271.481259 
L 137.326389 281.67986 
L 138.654937 337.772168 
L 139.983486 281.67986 
L 141.312034 235.786154 
L 142.640582 205.19035 
L 143.96913 302.077063 
L 145.297679 291.878462 
L 146.626227 205.19035 
L 147.954775 225.587552 
L 149.283324 215.388951 
L 150.611872 276.580559 
L 151.94042 256.183357 
L 153.268968 302.077063 
L 154.597517 215.388951 
L 155.926065 189.892448 
L 157.254613 184.793147 
L 158.583162 276.580559 
L 159.91171 200.091049 
L 161.240258 240.885455 
L 162.568806 189.892448 
L 163.897355 256.183357 
L 165.225903 230.686853 
L 166.554451 240.885455 
L 167.883 174.594545 
L 169.211548 251.084056 
L 170.540096 184.793147 
L 171.868644 210.28965 
L 173.197193 143.998741 
L 174.525741 230.686853 
L 175.854289 281.67986 
L 177.182838 184.793147 
L 178.511386 251.084056 
L 179.839934 245.984755 
L 181.168482 220.488252 
L 182.497031 317.374965 
L 183.825579 164.395944 
L 185.154127 266.381958 
L 186.482676 220.488252 
L 187.811224 169.495245 
L 189.139772 205.19035 
L 190.468321 230.686853 
L 191.796869 251.084056 
L 193.125417 256.183357 
L 194.453965 138.899441 
L 195.782514 189.892448 
L 197.111062 194.991748 
L 198.43961 205.19035 
L 199.768159 235.786154 
L 201.096707 174.594545 
L 202.425255 240.885455 
L 203.753803 174.594545 
L 205.082352 149.098042 
L 206.4109 225.587552 
L 207.739448 256.183357 
L 209.067997 189.892448 
L 210.396545 164.395944 
L 211.725093 235.786154 
L 213.053641 200.091049 
L 214.38219 220.488252 
L 215.710738 230.686853 
L 217.039286 200.091049 
L 218.367835 154.197343 
L 219.696383 174.594545 
L 221.024931 271.481259 
L 222.353479 210.28965 
L 223.682028 225.587552 
L 225.010576 220.488252 
L 226.339124 184.793147 
L 227.667673 220.488252 
L 228.996221 205.19035 
L 230.324769 230.686853 
L 231.653317 276.580559 
L 232.981866 215.388951 
L 234.310414 143.998741 
L 235.638962 220.488252 
L 236.967511 149.098042 
L 238.296059 281.67986 
L 239.624607 179.693846 
L 240.953155 108.303636 
L 242.281704 220.488252 
L 243.610252 143.998741 
L 244.9388 164.395944 
L 246.267349 210.28965 
L 247.595897 220.488252 
L 248.924445 169.495245 
L 250.252994 184.793147 
L 251.581542 87.906434 
L 252.91009 164.395944 
L 254.238638 189.892448 
L 255.567187 108.303636 
L 256.895735 200.091049 
L 258.224283 281.67986 
L 259.552832 133.80014 
L 260.88138 271.481259 
L 262.209928 154.197343 
L 263.538476 164.395944 
L 264.867025 143.998741 
L 266.195573 230.686853 
L 267.524121 87.906434 
L 268.85267 261.282657 
L 270.181218 189.892448 
L 271.509766 159.296643 
L 272.838314 149.098042 
L 274.166863 184.793147 
L 275.495411 210.28965 
L 276.823959 189.892448 
L 278.152508 189.892448 
L 279.481056 154.197343 
L 280.809604 128.700839 
L 282.138152 266.381958 
L 283.466701 154.197343 
L 284.795249 194.991748 
L 286.123797 154.197343 
L 287.452346 225.587552 
L 288.780894 138.899441 
L 290.109442 215.388951 
L 291.43799 256.183357 
L 292.766539 93.005734 
L 294.095087 138.899441 
L 295.423635 220.488252 
L 296.752184 143.998741 
L 298.080732 194.991748 
L 299.40928 113.402937 
L 300.737829 164.395944 
L 302.066377 143.998741 
L 303.394925 82.807133 
L 304.723473 194.991748 
L 306.052022 245.984755 
L 307.38057 159.296643 
L 308.709118 235.786154 
L 310.037667 184.793147 
L 311.366215 184.793147 
L 312.694763 169.495245 
L 314.023311 194.991748 
L 315.35186 164.395944 
L 316.680408 169.495245 
L 318.008956 169.495245 
L 319.337505 143.998741 
L 320.666053 240.885455 
L 321.994601 133.80014 
L 323.323149 149.098042 
L 324.651698 154.197343 
L 325.980246 149.098042 
L 327.308794 332.672867 
L 328.637343 291.878462 
L 329.965891 210.28965 
L 331.294439 215.388951 
L 332.622987 184.793147 
L 333.951536 261.282657 
L 335.280084 205.19035 
L 336.608632 194.991748 
L 337.937181 200.091049 
L 339.265729 261.282657 
L 340.594277 251.084056 
L 341.922825 215.388951 
L 343.251374 215.388951 
L 344.579922 240.885455 
L 345.90847 271.481259 
L 347.237019 179.693846 
L 348.565567 179.693846 
L 349.894115 205.19035 
L 351.222663 154.197343 
L 352.551212 296.977762 
L 353.87976 149.098042 
L 355.208308 138.899441 
L 356.536857 133.80014 
L 357.865405 215.388951 
L 359.193953 138.899441 
L 360.522502 154.197343 
L 361.85105 225.587552 
L 363.179598 143.998741 
L 364.508146 174.594545 
L 365.836695 184.793147 
L 367.165243 82.807133 
L 368.493791 184.793147 
L 369.82234 128.700839 
L 371.150888 281.67986 
L 372.479436 179.693846 
L 375.136533 210.28965 
L 376.465081 103.204336 
L 377.793629 189.892448 
L 379.122178 154.197343 
L 380.450726 159.296643 
L 381.779274 220.488252 
L 383.107822 189.892448 
L 384.436371 240.885455 
L 385.764919 261.282657 
L 388.422016 42.012727 
L 389.750564 174.594545 
L 391.079112 164.395944 
L 392.40766 189.892448 
L 393.736209 230.686853 
L 395.064757 240.885455 
L 396.393305 194.991748 
L 397.721854 215.388951 
L 399.050402 128.700839 
L 400.37895 159.296643 
L 401.707498 220.488252 
L 403.036047 133.80014 
L 404.364595 138.899441 
L 405.693143 210.28965 
L 407.021692 164.395944 
L 408.35024 225.587552 
L 409.678788 245.984755 
L 411.007337 322.474266 
L 412.335885 220.488252 
L 413.664433 179.693846 
L 414.992981 215.388951 
L 416.32153 302.077063 
L 417.650078 179.693846 
L 418.978626 210.28965 
L 420.307175 179.693846 
L 421.635723 118.502238 
L 422.964271 220.488252 
L 424.292819 77.707832 
L 425.621368 174.594545 
L 426.949916 143.998741 
L 428.278464 154.197343 
L 429.607013 210.28965 
L 430.935561 189.892448 
L 432.264109 205.19035 
L 433.592657 174.594545 
L 434.921206 149.098042 
L 436.249754 113.402937 
L 437.578302 123.601538 
L 438.906851 194.991748 
L 440.235399 154.197343 
L 441.563947 230.686853 
L 442.892495 220.488252 
L 444.221044 118.502238 
L 445.549592 189.892448 
L 446.87814 123.601538 
L 448.206689 82.807133 
L 449.535237 169.495245 
L 450.863785 143.998741 
L 452.192333 159.296643 
L 453.520882 149.098042 
L 454.84943 98.105035 
L 456.177978 138.899441 
L 457.506527 98.105035 
L 458.835075 133.80014 
L 460.163623 154.197343 
L 461.492171 93.005734 
L 462.82072 93.005734 
L 464.149268 189.892448 
L 465.477816 149.098042 
L 466.806365 159.296643 
L 468.134913 154.197343 
L 469.463461 87.906434 
L 472.120558 118.502238 
L 473.449106 154.197343 
L 474.777654 230.686853 
L 476.106203 179.693846 
L 477.434751 200.091049 
L 478.763299 179.693846 
L 480.091848 235.786154 
L 481.420396 215.388951 
L 482.748944 210.28965 
L 484.077492 77.707832 
L 485.406041 118.502238 
L 486.734589 128.700839 
L 488.063137 200.091049 
L 489.391686 184.793147 
L 490.720234 98.105035 
L 492.048782 271.481259 
L 493.37733 220.488252 
L 494.705879 179.693846 
L 496.034427 123.601538 
L 497.362975 123.601538 
L 498.691524 143.998741 
L 500.020072 154.197343 
L 501.34862 113.402937 
L 502.677168 82.807133 
L 504.005717 220.488252 
L 505.334265 159.296643 
L 506.662813 194.991748 
L 507.991362 210.28965 
L 509.31991 271.481259 
L 510.648458 93.005734 
L 511.977006 154.197343 
L 513.305555 174.594545 
L 514.634103 179.693846 
L 515.962651 62.40993 
L 517.2912 143.998741 
L 518.619748 159.296643 
L 519.948296 128.700839 
L 521.276845 169.495245 
L 522.605393 164.395944 
L 523.933941 118.502238 
L 525.262489 93.005734 
L 526.591038 143.998741 
L 527.919586 210.28965 
L 529.248134 52.211329 
L 530.576683 138.899441 
L 531.905231 98.105035 
L 533.233779 108.303636 
L 534.562327 133.80014 
L 535.890876 174.594545 
L 537.219424 98.105035 
L 538.547972 128.700839 
L 541.205069 118.502238 
L 542.533617 82.807133 
L 543.862165 133.80014 
L 545.190714 128.700839 
L 546.519262 133.80014 
L 547.84781 179.693846 
L 549.176359 149.098042 
L 550.504907 67.509231 
L 551.833455 72.608531 
L 553.162003 108.303636 
L 554.490552 93.005734 
L 555.8191 164.395944 
L 557.147648 72.608531 
L 558.476197 128.700839 
L 559.804745 57.310629 
L 561.133293 143.998741 
L 562.461841 133.80014 
L 563.79039 77.707832 
L 565.118938 128.700839 
L 566.447486 154.197343 
L 567.776035 118.502238 
L 569.104583 149.098042 
L 570.433131 113.402937 
L 571.761679 82.807133 
L 573.090228 200.091049 
L 574.418776 77.707832 
L 575.747324 118.502238 
L 577.075873 133.80014 
L 578.404421 179.693846 
L 579.732969 159.296643 
L 581.061518 113.402937 
L 582.390066 143.998741 
L 583.718614 72.608531 
L 585.047162 169.495245 
L 586.375711 128.700839 
L 587.704259 93.005734 
L 589.032807 93.005734 
L 590.361356 128.700839 
L 591.689904 159.296643 
L 593.018452 103.204336 
L 594.347 128.700839 
L 595.675549 103.204336 
L 597.004097 123.601538 
L 598.332645 118.502238 
L 599.661194 108.303636 
L 600.989742 77.707832 
L 602.31829 210.28965 
L 603.646838 93.005734 
L 604.975387 108.303636 
L 606.303935 82.807133 
L 607.632483 143.998741 
L 608.961032 62.40993 
L 610.28958 154.197343 
L 611.618128 67.509231 
L 612.946676 138.899441 
L 614.275225 77.707832 
L 615.603773 98.105035 
L 616.932321 113.402937 
L 618.26087 72.608531 
L 619.589418 77.707832 
L 620.917966 113.402937 
L 622.246514 77.707832 
L 623.575063 123.601538 
L 624.903611 123.601538 
L 626.232159 133.80014 
L 627.560708 133.80014 
L 628.889256 113.402937 
L 630.217804 143.998741 
L 631.546353 93.005734 
L 632.874901 98.105035 
L 634.203449 128.700839 
L 635.531997 194.991748 
L 636.860546 123.601538 
L 638.189094 133.80014 
L 639.517642 113.402937 
L 640.846191 113.402937 
L 642.174739 77.707832 
L 644.831835 77.707832 
L 646.160384 103.204336 
L 648.81748 93.005734 
L 650.146029 82.807133 
L 651.474577 82.807133 
L 652.803125 72.608531 
L 654.131673 103.204336 
L 655.460222 77.707832 
L 656.78877 87.906434 
L 658.117318 67.509231 
L 659.445867 77.707832 
L 660.774415 67.509231 
L 663.431511 149.098042 
L 664.76006 72.608531 
L 666.088608 82.807133 
L 667.417156 77.707832 
L 668.745705 93.005734 
L 670.074253 77.707832 
L 672.731349 77.707832 
L 674.059898 113.402937 
L 675.388446 82.807133 
L 676.716994 77.707832 
L 679.374091 77.707832 
L 679.374091 77.707832 
" clip-path="url(#p6b10dd9430)" style="fill: none; stroke: #ff7f0e; stroke-width: 1.5; stroke-linecap: square"/>
   </g>
   <g id="line2d_25">
    <path d="M 82.855909 322.474266 
L 84.184457 322.474266 
L 85.513006 312.275664 
L 88.170102 332.672867 
L 89.498651 312.275664 
L 90.827199 342.871469 
L 92.155747 322.474266 
L 93.484295 312.275664 
L 94.812844 291.878462 
L 96.141392 302.077063 
L 97.46994 281.67986 
L 98.798489 332.672867 
L 100.127037 332.672867 
L 101.455585 291.878462 
L 102.784133 322.474266 
L 104.112682 291.878462 
L 105.44123 322.474266 
L 106.769778 342.871469 
L 108.098327 271.481259 
L 109.426875 302.077063 
L 110.755423 312.275664 
L 112.083971 332.672867 
L 113.41252 302.077063 
L 114.741068 312.275664 
L 116.069616 281.67986 
L 117.398165 322.474266 
L 118.726713 322.474266 
L 120.055261 312.275664 
L 121.383809 332.672867 
L 122.712358 332.672867 
L 124.040906 271.481259 
L 125.369454 312.275664 
L 126.698003 291.878462 
L 128.026551 312.275664 
L 129.355099 312.275664 
L 130.683647 302.077063 
L 132.012196 281.67986 
L 133.340744 322.474266 
L 135.997841 302.077063 
L 137.326389 302.077063 
L 139.983486 281.67986 
L 141.312034 353.07007 
L 142.640582 291.878462 
L 143.96913 353.07007 
L 145.297679 291.878462 
L 146.626227 291.878462 
L 147.954775 312.275664 
L 149.283324 291.878462 
L 150.611872 312.275664 
L 151.94042 322.474266 
L 153.268968 281.67986 
L 154.597517 281.67986 
L 155.926065 302.077063 
L 157.254613 353.07007 
L 158.583162 291.878462 
L 159.91171 251.084056 
L 162.568806 291.878462 
L 165.225903 312.275664 
L 166.554451 271.481259 
L 167.883 291.878462 
L 169.211548 281.67986 
L 170.540096 261.282657 
L 171.868644 302.077063 
L 173.197193 302.077063 
L 174.525741 312.275664 
L 175.854289 332.672867 
L 177.182838 312.275664 
L 178.511386 302.077063 
L 179.839934 363.268671 
L 181.168482 373.467273 
L 182.497031 302.077063 
L 183.825579 291.878462 
L 185.154127 322.474266 
L 186.482676 291.878462 
L 187.811224 312.275664 
L 189.139772 302.077063 
L 193.125417 302.077063 
L 194.453965 291.878462 
L 195.782514 271.481259 
L 197.111062 312.275664 
L 198.43961 342.871469 
L 199.768159 271.481259 
L 201.096707 312.275664 
L 202.425255 281.67986 
L 203.753803 281.67986 
L 205.082352 271.481259 
L 206.4109 281.67986 
L 207.739448 302.077063 
L 209.067997 312.275664 
L 210.396545 251.084056 
L 211.725093 291.878462 
L 213.053641 281.67986 
L 214.38219 261.282657 
L 215.710738 332.672867 
L 217.039286 261.282657 
L 218.367835 271.481259 
L 219.696383 291.878462 
L 221.024931 281.67986 
L 222.353479 302.077063 
L 223.682028 230.686853 
L 225.010576 271.481259 
L 226.339124 302.077063 
L 227.667673 261.282657 
L 228.996221 281.67986 
L 230.324769 261.282657 
L 231.653317 363.268671 
L 232.981866 302.077063 
L 234.310414 291.878462 
L 235.638962 322.474266 
L 236.967511 342.871469 
L 238.296059 281.67986 
L 239.624607 251.084056 
L 240.953155 312.275664 
L 242.281704 291.878462 
L 243.610252 302.077063 
L 246.267349 281.67986 
L 247.595897 291.878462 
L 248.924445 281.67986 
L 250.252994 261.282657 
L 251.581542 261.282657 
L 252.91009 291.878462 
L 254.238638 271.481259 
L 255.567187 302.077063 
L 258.224283 261.282657 
L 259.552832 302.077063 
L 260.88138 281.67986 
L 262.209928 271.481259 
L 263.538476 251.084056 
L 264.867025 291.878462 
L 266.195573 281.67986 
L 267.524121 312.275664 
L 268.85267 291.878462 
L 270.181218 291.878462 
L 271.509766 302.077063 
L 272.838314 251.084056 
L 274.166863 291.878462 
L 275.495411 271.481259 
L 276.823959 261.282657 
L 278.152508 291.878462 
L 279.481056 240.885455 
L 282.138152 302.077063 
L 283.466701 240.885455 
L 284.795249 281.67986 
L 287.452346 281.67986 
L 288.780894 261.282657 
L 290.109442 332.672867 
L 291.43799 281.67986 
L 292.766539 271.481259 
L 294.095087 271.481259 
L 295.423635 281.67986 
L 296.752184 281.67986 
L 298.080732 271.481259 
L 299.40928 271.481259 
L 300.737829 261.282657 
L 303.394925 261.282657 
L 304.723473 240.885455 
L 306.052022 291.878462 
L 307.38057 302.077063 
L 308.709118 291.878462 
L 310.037667 271.481259 
L 311.366215 291.878462 
L 312.694763 271.481259 
L 314.023311 240.885455 
L 316.680408 322.474266 
L 318.008956 281.67986 
L 319.337505 281.67986 
L 320.666053 271.481259 
L 321.994601 291.878462 
L 323.323149 281.67986 
L 324.651698 291.878462 
L 325.980246 261.282657 
L 327.308794 263.832308 
L 328.637343 314.825315 
L 329.965891 325.023916 
L 331.294439 284.22951 
L 332.622987 248.534406 
L 333.951536 286.779161 
L 335.280084 271.481259 
L 336.608632 253.633706 
L 337.937181 251.084056 
L 339.265729 284.22951 
L 340.594277 253.633706 
L 341.922825 284.22951 
L 343.251374 240.885455 
L 344.579922 205.19035 
L 345.90847 258.733007 
L 347.237019 217.938601 
L 348.565567 251.084056 
L 351.222663 210.28965 
L 352.551212 312.275664 
L 353.87976 289.328811 
L 355.208308 228.137203 
L 357.865405 274.030909 
L 359.193953 299.527413 
L 360.522502 235.786154 
L 361.85105 225.587552 
L 363.179598 319.924615 
L 364.508146 251.084056 
L 365.836695 274.030909 
L 367.165243 299.527413 
L 368.493791 309.726014 
L 369.82234 314.825315 
L 371.150888 256.183357 
L 372.479436 317.374965 
L 373.807984 253.633706 
L 375.136533 289.328811 
L 376.465081 281.67986 
L 377.793629 261.282657 
L 379.122178 342.871469 
L 380.450726 261.282657 
L 381.779274 253.633706 
L 383.107822 217.938601 
L 384.436371 230.686853 
L 385.764919 230.686853 
L 387.093467 235.786154 
L 388.422016 342.871469 
L 389.750564 251.084056 
L 391.079112 256.183357 
L 392.40766 319.924615 
L 393.736209 268.931608 
L 395.064757 230.686853 
L 396.393305 302.077063 
L 397.721854 261.282657 
L 399.050402 281.67986 
L 400.37895 256.183357 
L 401.707498 192.442098 
L 403.036047 286.779161 
L 404.364595 243.435105 
L 405.693143 240.885455 
L 407.021692 194.991748 
L 408.35024 197.541399 
L 409.678788 207.74 
L 411.007337 240.885455 
L 412.335885 228.137203 
L 413.664433 243.435105 
L 414.992981 243.435105 
L 416.32153 266.381958 
L 417.650078 238.335804 
L 418.978626 279.13021 
L 420.307175 281.67986 
L 421.635723 248.534406 
L 422.964271 256.183357 
L 424.292819 251.084056 
L 425.621368 266.381958 
L 426.949916 327.573566 
L 428.278464 243.435105 
L 429.607013 225.587552 
L 430.935561 271.481259 
L 432.264109 276.580559 
L 433.592657 223.037902 
L 434.921206 373.467273 
L 436.249754 274.030909 
L 437.578302 299.527413 
L 438.906851 223.037902 
L 440.235399 238.335804 
L 441.563947 210.28965 
L 442.892495 225.587552 
L 444.221044 235.786154 
L 445.549592 274.030909 
L 446.87814 261.282657 
L 448.206689 210.28965 
L 449.535237 200.091049 
L 450.863785 230.686853 
L 452.192333 245.984755 
L 453.520882 220.488252 
L 454.84943 263.832308 
L 456.177978 217.938601 
L 457.506527 230.686853 
L 458.835075 238.335804 
L 460.163623 233.236503 
L 461.492171 291.878462 
L 462.82072 207.74 
L 464.149268 225.587552 
L 465.477816 225.587552 
L 466.806365 233.236503 
L 468.134913 228.137203 
L 469.463461 291.878462 
L 470.79201 286.779161 
L 472.120558 268.931608 
L 473.449106 256.183357 
L 474.777654 207.74 
L 476.106203 197.541399 
L 477.434751 205.19035 
L 478.763299 172.044895 
L 480.091848 210.28965 
L 481.420396 228.137203 
L 482.748944 240.885455 
L 484.077492 207.74 
L 485.406041 256.183357 
L 486.734589 197.541399 
L 488.063137 256.183357 
L 489.391686 207.74 
L 490.720234 271.481259 
L 492.048782 286.779161 
L 493.37733 240.885455 
L 494.705879 263.832308 
L 496.034427 220.488252 
L 497.362975 258.733007 
L 498.691524 258.733007 
L 500.020072 251.084056 
L 501.34862 268.931608 
L 502.677168 215.388951 
L 504.005717 223.037902 
L 505.334265 225.587552 
L 506.662813 169.495245 
L 507.991362 225.587552 
L 509.31991 200.091049 
L 510.648458 192.442098 
L 511.977006 248.534406 
L 513.305555 240.885455 
L 514.634103 210.28965 
L 515.962651 210.28965 
L 517.2912 217.938601 
L 518.619748 245.984755 
L 519.948296 258.733007 
L 521.276845 197.541399 
L 522.605393 233.236503 
L 523.933941 261.282657 
L 525.262489 228.137203 
L 526.591038 238.335804 
L 527.919586 212.839301 
L 529.248134 238.335804 
L 530.576683 210.28965 
L 531.905231 200.091049 
L 534.562327 205.19035 
L 537.219424 240.885455 
L 538.547972 220.488252 
L 539.876521 256.183357 
L 541.205069 225.587552 
L 542.533617 240.885455 
L 543.862165 215.388951 
L 545.190714 217.938601 
L 546.519262 266.381958 
L 547.84781 205.19035 
L 549.176359 192.442098 
L 550.504907 238.335804 
L 551.833455 223.037902 
L 553.162003 243.435105 
L 554.490552 223.037902 
L 555.8191 212.839301 
L 557.147648 192.442098 
L 558.476197 286.779161 
L 559.804745 289.328811 
L 561.133293 172.044895 
L 563.79039 207.74 
L 565.118938 228.137203 
L 566.447486 207.74 
L 567.776035 210.28965 
L 569.104583 187.342797 
L 570.433131 223.037902 
L 571.761679 212.839301 
L 573.090228 172.044895 
L 574.418776 174.594545 
L 575.747324 189.892448 
L 577.075873 217.938601 
L 578.404421 197.541399 
L 579.732969 187.342797 
L 581.061518 223.037902 
L 582.390066 210.28965 
L 585.047162 225.587552 
L 586.375711 187.342797 
L 587.704259 182.243497 
L 589.032807 212.839301 
L 590.361356 225.587552 
L 591.689904 184.793147 
L 593.018452 200.091049 
L 594.347 205.19035 
L 595.675549 243.435105 
L 597.004097 177.144196 
L 598.332645 233.236503 
L 599.661194 217.938601 
L 600.989742 245.984755 
L 602.31829 184.793147 
L 603.646838 207.74 
L 604.975387 205.19035 
L 606.303935 240.885455 
L 607.632483 192.442098 
L 608.961032 266.381958 
L 610.28958 223.037902 
L 611.618128 200.091049 
L 612.946676 192.442098 
L 614.275225 266.381958 
L 615.603773 202.640699 
L 616.932321 215.388951 
L 618.26087 207.74 
L 619.589418 192.442098 
L 620.917966 194.991748 
L 622.246514 194.991748 
L 623.575063 202.640699 
L 624.903611 217.938601 
L 626.232159 205.19035 
L 627.560708 235.786154 
L 628.889256 202.640699 
L 630.217804 212.839301 
L 631.546353 228.137203 
L 632.874901 215.388951 
L 634.203449 233.236503 
L 635.531997 187.342797 
L 636.860546 202.640699 
L 638.189094 230.686853 
L 639.517642 182.243497 
L 640.846191 230.686853 
L 642.174739 200.091049 
L 643.503287 187.342797 
L 644.831835 200.091049 
L 647.488932 210.28965 
L 648.81748 223.037902 
L 650.146029 223.037902 
L 651.474577 184.793147 
L 652.803125 210.28965 
L 654.131673 187.342797 
L 655.460222 187.342797 
L 656.78877 179.693846 
L 658.117318 200.091049 
L 659.445867 207.74 
L 660.774415 200.091049 
L 662.102963 230.686853 
L 663.431511 179.693846 
L 664.76006 210.28965 
L 666.088608 184.793147 
L 667.417156 187.342797 
L 668.745705 220.488252 
L 670.074253 207.74 
L 671.402801 187.342797 
L 674.059898 187.342797 
L 675.388446 184.793147 
L 676.716994 187.342797 
L 679.374091 187.342797 
L 679.374091 187.342797 
" clip-path="url(#p6b10dd9430)" style="fill: none; stroke: #2ca02c; stroke-width: 1.5; stroke-linecap: square"/>
   </g>
   <g id="patch_3">
    <path d="M 53.03 390.04 
L 53.03 25.44 
" style="fill: none; stroke: #000000; stroke-width: 0.8; stroke-linejoin: miter; stroke-linecap: square"/>
   </g>
   <g id="patch_4">
    <path d="M 709.2 390.04 
L 709.2 25.44 
" style="fill: none; stroke: #000000; stroke-width: 0.8; stroke-linejoin: miter; stroke-linecap: square"/>
   </g>
   <g id="patch_5">
    <path d="M 53.03 390.04 
L 709.2 390.04 
" style="fill: none; stroke: #000000; stroke-width: 0.8; stroke-linejoin: miter; stroke-linecap: square"/>
   </g>
   <g id="patch_6">
    <path d="M 53.03 25.44 
L 709.2 25.44 
" style="fill: none; stroke: #000000; stroke-width: 0.8; stroke-linejoin: miter; stroke-linecap: square"/>
   </g>
   <g id="text_14">
    <!-- Average Reward per Episode by Agent -->
    <g transform="translate(265.943125 19.44) scale(0.12 -0.12)">
     <defs>
      <path id="DejaVuSans-62" d="M 3116 1747 
Q 3116 2381 2855 2742 
Q 2594 3103 2138 3103 
Q 1681 3103 1420 2742 
Q 1159 2381 1159 1747 
Q 1159 1113 1420 752 
Q 1681 391 2138 391 
Q 2594 391 2855 752 
Q 3116 1113 3116 1747 
z
M 1159 2969 
Q 1341 3281 1617 3432 
Q 1894 3584 2278 3584 
Q 2916 3584 3314 3078 
Q 3713 2572 3713 1747 
Q 3713 922 3314 415 
Q 2916 -91 2278 -91 
Q 1894 -91 1617 61 
Q 1341 213 1159 525 
L 1159 0 
L 581 0 
L 581 4863 
L 1159 4863 
L 1159 2969 
z
" transform="scale(0.015625)"/>
      <path id="DejaVuSans-79" d="M 2059 -325 
Q 1816 -950 1584 -1140 
Q 1353 -1331 966 -1331 
L 506 -1331 
L 506 -850 
L 844 -850 
Q 1081 -850 1212 -737 
Q 1344 -625 1503 -206 
L 1606 56 
L 191 3500 
L 800 3500 
L 1894 763 
L 2988 3500 
L 3597 3500 
L 2059 -325 
z
" transform="scale(0.015625)"/>
      <path id="DejaVuSans-6e" d="M 3513 2113 
L 3513 0 
L 2938 0 
L 2938 2094 
Q 2938 2591 2744 2837 
Q 2550 3084 2163 3084 
Q 1697 3084 1428 2787 
Q 1159 2491 1159 1978 
L 1159 0 
L 581 0 
L 581 3500 
L 1159 3500 
L 1159 2956 
Q 1366 3272 1645 3428 
Q 1925 3584 2291 3584 
Q 2894 3584 3203 3211 
Q 3513 2838 3513 2113 
z
" transform="scale(0.015625)"/>
      <path id="DejaVuSans-74" d="M 1172 4494 
L 1172 3500 
L 2356 3500 
L 2356 3053 
L 1172 3053 
L 1172 1153 
Q 1172 725 1289 603 
Q 1406 481 1766 481 
L 2356 481 
L 2356 0 
L 1766 0 
Q 1100 0 847 248 
Q 594 497 594 1153 
L 594 3053 
L 172 3053 
L 172 3500 
L 594 3500 
L 594 4494 
L 1172 4494 
z
" transform="scale(0.015625)"/>
     </defs>
     <use xlink:href="#DejaVuSans-41"/>
     <use xlink:href="#DejaVuSans-76" x="62.533203"/>
     <use xlink:href="#DejaVuSans-65" x="121.712891"/>
     <use xlink:href="#DejaVuSans-72" x="183.236328"/>
     <use xlink:href="#DejaVuSans-61" x="224.349609"/>
     <use xlink:href="#DejaVuSans-67" x="285.628906"/>
     <use xlink:href="#DejaVuSans-65" x="349.105469"/>
     <use xlink:href="#DejaVuSans-20" x="410.628906"/>
     <use xlink:href="#DejaVuSans-52" x="442.416016"/>
     <use xlink:href="#DejaVuSans-65" x="507.398438"/>
     <use xlink:href="#DejaVuSans-77" x="568.921875"/>
     <use xlink:href="#DejaVuSans-61" x="650.708984"/>
     <use xlink:href="#DejaVuSans-72" x="711.988281"/>
     <use xlink:href="#DejaVuSans-64" x="751.351562"/>
     <use xlink:href="#DejaVuSans-20" x="814.828125"/>
     <use xlink:href="#DejaVuSans-70" x="846.615234"/>
     <use xlink:href="#DejaVuSans-65" x="910.091797"/>
     <use xlink:href="#DejaVuSans-72" x="971.615234"/>
     <use xlink:href="#DejaVuSans-20" x="1012.728516"/>
     <use xlink:href="#DejaVuSans-45" x="1044.515625"/>
     <use xlink:href="#DejaVuSans-70" x="1107.699219"/>
     <use xlink:href="#DejaVuSans-69" x="1171.175781"/>
     <use xlink:href="#DejaVuSans-73" x="1198.958984"/>
     <use xlink:href="#DejaVuSans-6f" x="1251.058594"/>
     <use xlink:href="#DejaVuSans-64" x="1312.240234"/>
     <use xlink:href="#DejaVuSans-65" x="1375.716797"/>
     <use xlink:href="#DejaVuSans-20" x="1437.240234"/>
     <use xlink:href="#DejaVuSans-62" x="1469.027344"/>
     <use xlink:href="#DejaVuSans-79" x="1532.503906"/>
     <use xlink:href="#DejaVuSans-20" x="1591.683594"/>
     <use xlink:href="#DejaVuSans-41" x="1623.470703"/>
     <use xlink:href="#DejaVuSans-67" x="1691.878906"/>
     <use xlink:href="#DejaVuSans-65" x="1755.355469"/>
     <use xlink:href="#DejaVuSans-6e" x="1816.878906"/>
     <use xlink:href="#DejaVuSans-74" x="1880.257812"/>
    </g>
   </g>
   <g id="legend_1">
    <g id="patch_7">
     <path d="M 60.03 77.474375 
L 207.825313 77.474375 
Q 209.825313 77.474375 209.825313 75.474375 
L 209.825313 32.44 
Q 209.825313 30.44 207.825313 30.44 
L 60.03 30.44 
Q 58.03 30.44 58.03 32.44 
L 58.03 75.474375 
Q 58.03 77.474375 60.03 77.474375 
z
" style="fill: #ffffff; opacity: 0.8; stroke: #cccccc; stroke-linejoin: miter"/>
    </g>
    <g id="line2d_26">
     <path d="M 62.03 38.538437 
L 72.03 38.538437 
L 82.03 38.538437 
" style="fill: none; stroke: #1f77b4; stroke-width: 1.5; stroke-linecap: square"/>
    </g>
    <g id="text_15">
     <!-- solar - Average Reward -->
     <g transform="translate(90.03 42.038437) scale(0.1 -0.1)">
      <defs>
       <path id="DejaVuSans-6c" d="M 603 4863 
L 1178 4863 
L 1178 0 
L 603 0 
L 603 4863 
z
" transform="scale(0.015625)"/>
       <path id="DejaVuSans-2d" d="M 313 2009 
L 1997 2009 
L 1997 1497 
L 313 1497 
L 313 2009 
z
" transform="scale(0.015625)"/>
      </defs>
      <use xlink:href="#DejaVuSans-73"/>
      <use xlink:href="#DejaVuSans-6f" x="52.099609"/>
      <use xlink:href="#DejaVuSans-6c" x="113.28125"/>
      <use xlink:href="#DejaVuSans-61" x="141.064453"/>
      <use xlink:href="#DejaVuSans-72" x="202.34375"/>
      <use xlink:href="#DejaVuSans-20" x="243.457031"/>
      <use xlink:href="#DejaVuSans-2d" x="275.244141"/>
      <use xlink:href="#DejaVuSans-20" x="311.328125"/>
      <use xlink:href="#DejaVuSans-41" x="343.115234"/>
      <use xlink:href="#DejaVuSans-76" x="405.648438"/>
      <use xlink:href="#DejaVuSans-65" x="464.828125"/>
      <use xlink:href="#DejaVuSans-72" x="526.351562"/>
      <use xlink:href="#DejaVuSans-61" x="567.464844"/>
      <use xlink:href="#DejaVuSans-67" x="628.744141"/>
      <use xlink:href="#DejaVuSans-65" x="692.220703"/>
      <use xlink:href="#DejaVuSans-20" x="753.744141"/>
      <use xlink:href="#DejaVuSans-52" x="785.53125"/>
      <use xlink:href="#DejaVuSans-65" x="850.513672"/>
      <use xlink:href="#DejaVuSans-77" x="912.037109"/>
      <use xlink:href="#DejaVuSans-61" x="993.824219"/>
      <use xlink:href="#DejaVuSans-72" x="1055.103516"/>
      <use xlink:href="#DejaVuSans-64" x="1094.466797"/>
     </g>
    </g>
    <g id="line2d_27">
     <path d="M 62.03 53.216563 
L 72.03 53.216563 
L 82.03 53.216563 
" style="fill: none; stroke: #ff7f0e; stroke-width: 1.5; stroke-linecap: square"/>
    </g>
    <g id="text_16">
     <!-- bat - Average Reward -->
     <g transform="translate(90.03 56.716563) scale(0.1 -0.1)">
      <use xlink:href="#DejaVuSans-62"/>
      <use xlink:href="#DejaVuSans-61" x="63.476562"/>
      <use xlink:href="#DejaVuSans-74" x="124.755859"/>
      <use xlink:href="#DejaVuSans-20" x="163.964844"/>
      <use xlink:href="#DejaVuSans-2d" x="195.751953"/>
      <use xlink:href="#DejaVuSans-20" x="231.835938"/>
      <use xlink:href="#DejaVuSans-41" x="263.623047"/>
      <use xlink:href="#DejaVuSans-76" x="326.15625"/>
      <use xlink:href="#DejaVuSans-65" x="385.335938"/>
      <use xlink:href="#DejaVuSans-72" x="446.859375"/>
      <use xlink:href="#DejaVuSans-61" x="487.972656"/>
      <use xlink:href="#DejaVuSans-67" x="549.251953"/>
      <use xlink:href="#DejaVuSans-65" x="612.728516"/>
      <use xlink:href="#DejaVuSans-20" x="674.251953"/>
      <use xlink:href="#DejaVuSans-52" x="706.039062"/>
      <use xlink:href="#DejaVuSans-65" x="771.021484"/>
      <use xlink:href="#DejaVuSans-77" x="832.544922"/>
      <use xlink:href="#DejaVuSans-61" x="914.332031"/>
      <use xlink:href="#DejaVuSans-72" x="975.611328"/>
      <use xlink:href="#DejaVuSans-64" x="1014.974609"/>
     </g>
    </g>
    <g id="line2d_28">
     <path d="M 62.03 67.894687 
L 72.03 67.894687 
L 82.03 67.894687 
" style="fill: none; stroke: #2ca02c; stroke-width: 1.5; stroke-linecap: square"/>
    </g>
    <g id="text_17">
     <!-- grid - Average Reward -->
     <g transform="translate(90.03 71.394687) scale(0.1 -0.1)">
      <use xlink:href="#DejaVuSans-67"/>
      <use xlink:href="#DejaVuSans-72" x="63.476562"/>
      <use xlink:href="#DejaVuSans-69" x="104.589844"/>
      <use xlink:href="#DejaVuSans-64" x="132.373047"/>
      <use xlink:href="#DejaVuSans-20" x="195.849609"/>
      <use xlink:href="#DejaVuSans-2d" x="227.636719"/>
      <use xlink:href="#DejaVuSans-20" x="263.720703"/>
      <use xlink:href="#DejaVuSans-41" x="295.507812"/>
      <use xlink:href="#DejaVuSans-76" x="358.041016"/>
      <use xlink:href="#DejaVuSans-65" x="417.220703"/>
      <use xlink:href="#DejaVuSans-72" x="478.744141"/>
      <use xlink:href="#DejaVuSans-61" x="519.857422"/>
      <use xlink:href="#DejaVuSans-67" x="581.136719"/>
      <use xlink:href="#DejaVuSans-65" x="644.613281"/>
      <use xlink:href="#DejaVuSans-20" x="706.136719"/>
      <use xlink:href="#DejaVuSans-52" x="737.923828"/>
      <use xlink:href="#DejaVuSans-65" x="802.90625"/>
      <use xlink:href="#DejaVuSans-77" x="864.429688"/>
      <use xlink:href="#DejaVuSans-61" x="946.216797"/>
      <use xlink:href="#DejaVuSans-72" x="1007.496094"/>
      <use xlink:href="#DejaVuSans-64" x="1046.859375"/>
     </g>
    </g>
   </g>
  </g>
 </g>
 <defs>
  <clipPath id="p6b10dd9430">
   <rect x="53.03" y="25.44" width="656.17" height="364.6"/>
  </clipPath>
 </defs>
</svg>
