<?xml version="1.0" encoding="utf-8" standalone="no"?>
<!DOCTYPE svg PUBLIC "-//W3C//DTD SVG 1.1//EN"
  "http://www.w3.org/Graphics/SVG/1.1/DTD/svg11.dtd">
<svg xmlns:xlink="http://www.w3.org/1999/xlink" width="720pt" height="432pt" viewBox="0 0 720 432" xmlns="http://www.w3.org/2000/svg" version="1.1">
 <metadata>
  <rdf:RDF xmlns:dc="http://purl.org/dc/elements/1.1/" xmlns:cc="http://creativecommons.org/ns#" xmlns:rdf="http://www.w3.org/1999/02/22-rdf-syntax-ns#">
   <cc:Work>
    <dc:type rdf:resource="http://purl.org/dc/dcmitype/StillImage"/>
    <dc:date>2025-07-04T14:28:52.211194</dc:date>
    <dc:format>image/svg+xml</dc:format>
    <dc:creator>
     <cc:Agent>
      <dc:title>Matplotlib v3.8.4, https://matplotlib.org/</dc:title>
     </cc:Agent>
    </dc:creator>
   </cc:Work>
  </rdf:RDF>
 </metadata>
 <defs>
  <style type="text/css">*{stroke-linejoin: round; stroke-linecap: butt}</style>
 </defs>
 <g id="figure_1">
  <g id="patch_1">
   <path d="M 0 432 
L 720 432 
L 720 0 
L 0 0 
z
" style="fill: #ffffff"/>
  </g>
  <g id="axes_1">
   <g id="patch_2">
    <path d="M 53.03 390.04 
L 709.2 390.04 
L 709.2 25.44 
L 53.03 25.44 
z
" style="fill: #ffffff"/>
   </g>
   <g id="matplotlib.axis_1">
    <g id="xtick_1">
     <g id="line2d_1">
      <path d="M 82.855909 390.04 
L 82.855909 25.44 
" clip-path="url(#p843466ab03)" style="fill: none; stroke: #b0b0b0; stroke-width: 0.8; stroke-linecap: square"/>
     </g>
     <g id="line2d_2">
      <defs>
       <path id="m3c5b81c6e5" d="M 0 0 
L 0 3.5 
" style="stroke: #000000; stroke-width: 0.8"/>
      </defs>
      <g>
       <use xlink:href="#m3c5b81c6e5" x="82.855909" y="390.04" style="stroke: #000000; stroke-width: 0.8"/>
      </g>
     </g>
     <g id="text_1">
      <!-- 0 -->
      <g transform="translate(79.674659 404.638438) scale(0.1 -0.1)">
       <defs>
        <path id="DejaVuSans-30" d="M 2034 4250 
Q 1547 4250 1301 3770 
Q 1056 3291 1056 2328 
Q 1056 1369 1301 889 
Q 1547 409 2034 409 
Q 2525 409 2770 889 
Q 3016 1369 3016 2328 
Q 3016 3291 2770 3770 
Q 2525 4250 2034 4250 
z
M 2034 4750 
Q 2819 4750 3233 4129 
Q 3647 3509 3647 2328 
Q 3647 1150 3233 529 
Q 2819 -91 2034 -91 
Q 1250 -91 836 529 
Q 422 1150 422 2328 
Q 422 3509 836 4129 
Q 1250 4750 2034 4750 
z
" transform="scale(0.015625)"/>
       </defs>
       <use xlink:href="#DejaVuSans-30"/>
      </g>
     </g>
    </g>
    <g id="xtick_2">
     <g id="line2d_3">
      <path d="M 203.364633 390.04 
L 203.364633 25.44 
" clip-path="url(#p843466ab03)" style="fill: none; stroke: #b0b0b0; stroke-width: 0.8; stroke-linecap: square"/>
     </g>
     <g id="line2d_4">
      <g>
       <use xlink:href="#m3c5b81c6e5" x="203.364633" y="390.04" style="stroke: #000000; stroke-width: 0.8"/>
      </g>
     </g>
     <g id="text_2">
      <!-- 20 -->
      <g transform="translate(197.002133 404.638438) scale(0.1 -0.1)">
       <defs>
        <path id="DejaVuSans-32" d="M 1228 531 
L 3431 531 
L 3431 0 
L 469 0 
L 469 531 
Q 828 903 1448 1529 
Q 2069 2156 2228 2338 
Q 2531 2678 2651 2914 
Q 2772 3150 2772 3378 
Q 2772 3750 2511 3984 
Q 2250 4219 1831 4219 
Q 1534 4219 1204 4116 
Q 875 4013 500 3803 
L 500 4441 
Q 881 4594 1212 4672 
Q 1544 4750 1819 4750 
Q 2544 4750 2975 4387 
Q 3406 4025 3406 3419 
Q 3406 3131 3298 2873 
Q 3191 2616 2906 2266 
Q 2828 2175 2409 1742 
Q 1991 1309 1228 531 
z
" transform="scale(0.015625)"/>
       </defs>
       <use xlink:href="#DejaVuSans-32"/>
       <use xlink:href="#DejaVuSans-30" x="63.623047"/>
      </g>
     </g>
    </g>
    <g id="xtick_3">
     <g id="line2d_5">
      <path d="M 323.873356 390.04 
L 323.873356 25.44 
" clip-path="url(#p843466ab03)" style="fill: none; stroke: #b0b0b0; stroke-width: 0.8; stroke-linecap: square"/>
     </g>
     <g id="line2d_6">
      <g>
       <use xlink:href="#m3c5b81c6e5" x="323.873356" y="390.04" style="stroke: #000000; stroke-width: 0.8"/>
      </g>
     </g>
     <g id="text_3">
      <!-- 40 -->
      <g transform="translate(317.510856 404.638438) scale(0.1 -0.1)">
       <defs>
        <path id="DejaVuSans-34" d="M 2419 4116 
L 825 1625 
L 2419 1625 
L 2419 4116 
z
M 2253 4666 
L 3047 4666 
L 3047 1625 
L 3713 1625 
L 3713 1100 
L 3047 1100 
L 3047 0 
L 2419 0 
L 2419 1100 
L 313 1100 
L 313 1709 
L 2253 4666 
z
" transform="scale(0.015625)"/>
       </defs>
       <use xlink:href="#DejaVuSans-34"/>
       <use xlink:href="#DejaVuSans-30" x="63.623047"/>
      </g>
     </g>
    </g>
    <g id="xtick_4">
     <g id="line2d_7">
      <path d="M 444.38208 390.04 
L 444.38208 25.44 
" clip-path="url(#p843466ab03)" style="fill: none; stroke: #b0b0b0; stroke-width: 0.8; stroke-linecap: square"/>
     </g>
     <g id="line2d_8">
      <g>
       <use xlink:href="#m3c5b81c6e5" x="444.38208" y="390.04" style="stroke: #000000; stroke-width: 0.8"/>
      </g>
     </g>
     <g id="text_4">
      <!-- 60 -->
      <g transform="translate(438.01958 404.638438) scale(0.1 -0.1)">
       <defs>
        <path id="DejaVuSans-36" d="M 2113 2584 
Q 1688 2584 1439 2293 
Q 1191 2003 1191 1497 
Q 1191 994 1439 701 
Q 1688 409 2113 409 
Q 2538 409 2786 701 
Q 3034 994 3034 1497 
Q 3034 2003 2786 2293 
Q 2538 2584 2113 2584 
z
M 3366 4563 
L 3366 3988 
Q 3128 4100 2886 4159 
Q 2644 4219 2406 4219 
Q 1781 4219 1451 3797 
Q 1122 3375 1075 2522 
Q 1259 2794 1537 2939 
Q 1816 3084 2150 3084 
Q 2853 3084 3261 2657 
Q 3669 2231 3669 1497 
Q 3669 778 3244 343 
Q 2819 -91 2113 -91 
Q 1303 -91 875 529 
Q 447 1150 447 2328 
Q 447 3434 972 4092 
Q 1497 4750 2381 4750 
Q 2619 4750 2861 4703 
Q 3103 4656 3366 4563 
z
" transform="scale(0.015625)"/>
       </defs>
       <use xlink:href="#DejaVuSans-36"/>
       <use xlink:href="#DejaVuSans-30" x="63.623047"/>
      </g>
     </g>
    </g>
    <g id="xtick_5">
     <g id="line2d_9">
      <path d="M 564.890803 390.04 
L 564.890803 25.44 
" clip-path="url(#p843466ab03)" style="fill: none; stroke: #b0b0b0; stroke-width: 0.8; stroke-linecap: square"/>
     </g>
     <g id="line2d_10">
      <g>
       <use xlink:href="#m3c5b81c6e5" x="564.890803" y="390.04" style="stroke: #000000; stroke-width: 0.8"/>
      </g>
     </g>
     <g id="text_5">
      <!-- 80 -->
      <g transform="translate(558.528303 404.638438) scale(0.1 -0.1)">
       <defs>
        <path id="DejaVuSans-38" d="M 2034 2216 
Q 1584 2216 1326 1975 
Q 1069 1734 1069 1313 
Q 1069 891 1326 650 
Q 1584 409 2034 409 
Q 2484 409 2743 651 
Q 3003 894 3003 1313 
Q 3003 1734 2745 1975 
Q 2488 2216 2034 2216 
z
M 1403 2484 
Q 997 2584 770 2862 
Q 544 3141 544 3541 
Q 544 4100 942 4425 
Q 1341 4750 2034 4750 
Q 2731 4750 3128 4425 
Q 3525 4100 3525 3541 
Q 3525 3141 3298 2862 
Q 3072 2584 2669 2484 
Q 3125 2378 3379 2068 
Q 3634 1759 3634 1313 
Q 3634 634 3220 271 
Q 2806 -91 2034 -91 
Q 1263 -91 848 271 
Q 434 634 434 1313 
Q 434 1759 690 2068 
Q 947 2378 1403 2484 
z
M 1172 3481 
Q 1172 3119 1398 2916 
Q 1625 2713 2034 2713 
Q 2441 2713 2670 2916 
Q 2900 3119 2900 3481 
Q 2900 3844 2670 4047 
Q 2441 4250 2034 4250 
Q 1625 4250 1398 4047 
Q 1172 3844 1172 3481 
z
" transform="scale(0.015625)"/>
       </defs>
       <use xlink:href="#DejaVuSans-38"/>
       <use xlink:href="#DejaVuSans-30" x="63.623047"/>
      </g>
     </g>
    </g>
    <g id="xtick_6">
     <g id="line2d_11">
      <path d="M 685.399527 390.04 
L 685.399527 25.44 
" clip-path="url(#p843466ab03)" style="fill: none; stroke: #b0b0b0; stroke-width: 0.8; stroke-linecap: square"/>
     </g>
     <g id="line2d_12">
      <g>
       <use xlink:href="#m3c5b81c6e5" x="685.399527" y="390.04" style="stroke: #000000; stroke-width: 0.8"/>
      </g>
     </g>
     <g id="text_6">
      <!-- 100 -->
      <g transform="translate(675.855777 404.638438) scale(0.1 -0.1)">
       <defs>
        <path id="DejaVuSans-31" d="M 794 531 
L 1825 531 
L 1825 4091 
L 703 3866 
L 703 4441 
L 1819 4666 
L 2450 4666 
L 2450 531 
L 3481 531 
L 3481 0 
L 794 0 
L 794 531 
z
" transform="scale(0.015625)"/>
       </defs>
       <use xlink:href="#DejaVuSans-31"/>
       <use xlink:href="#DejaVuSans-30" x="63.623047"/>
       <use xlink:href="#DejaVuSans-30" x="127.246094"/>
      </g>
     </g>
    </g>
    <g id="text_7">
     <!-- Episode -->
     <g transform="translate(361.4775 418.316562) scale(0.1 -0.1)">
      <defs>
       <path id="DejaVuSans-45" d="M 628 4666 
L 3578 4666 
L 3578 4134 
L 1259 4134 
L 1259 2753 
L 3481 2753 
L 3481 2222 
L 1259 2222 
L 1259 531 
L 3634 531 
L 3634 0 
L 628 0 
L 628 4666 
z
" transform="scale(0.015625)"/>
       <path id="DejaVuSans-70" d="M 1159 525 
L 1159 -1331 
L 581 -1331 
L 581 3500 
L 1159 3500 
L 1159 2969 
Q 1341 3281 1617 3432 
Q 1894 3584 2278 3584 
Q 2916 3584 3314 3078 
Q 3713 2572 3713 1747 
Q 3713 922 3314 415 
Q 2916 -91 2278 -91 
Q 1894 -91 1617 61 
Q 1341 213 1159 525 
z
M 3116 1747 
Q 3116 2381 2855 2742 
Q 2594 3103 2138 3103 
Q 1681 3103 1420 2742 
Q 1159 2381 1159 1747 
Q 1159 1113 1420 752 
Q 1681 391 2138 391 
Q 2594 391 2855 752 
Q 3116 1113 3116 1747 
z
" transform="scale(0.015625)"/>
       <path id="DejaVuSans-69" d="M 603 3500 
L 1178 3500 
L 1178 0 
L 603 0 
L 603 3500 
z
M 603 4863 
L 1178 4863 
L 1178 4134 
L 603 4134 
L 603 4863 
z
" transform="scale(0.015625)"/>
       <path id="DejaVuSans-73" d="M 2834 3397 
L 2834 2853 
Q 2591 2978 2328 3040 
Q 2066 3103 1784 3103 
Q 1356 3103 1142 2972 
Q 928 2841 928 2578 
Q 928 2378 1081 2264 
Q 1234 2150 1697 2047 
L 1894 2003 
Q 2506 1872 2764 1633 
Q 3022 1394 3022 966 
Q 3022 478 2636 193 
Q 2250 -91 1575 -91 
Q 1294 -91 989 -36 
Q 684 19 347 128 
L 347 722 
Q 666 556 975 473 
Q 1284 391 1588 391 
Q 1994 391 2212 530 
Q 2431 669 2431 922 
Q 2431 1156 2273 1281 
Q 2116 1406 1581 1522 
L 1381 1569 
Q 847 1681 609 1914 
Q 372 2147 372 2553 
Q 372 3047 722 3315 
Q 1072 3584 1716 3584 
Q 2034 3584 2315 3537 
Q 2597 3491 2834 3397 
z
" transform="scale(0.015625)"/>
       <path id="DejaVuSans-6f" d="M 1959 3097 
Q 1497 3097 1228 2736 
Q 959 2375 959 1747 
Q 959 1119 1226 758 
Q 1494 397 1959 397 
Q 2419 397 2687 759 
Q 2956 1122 2956 1747 
Q 2956 2369 2687 2733 
Q 2419 3097 1959 3097 
z
M 1959 3584 
Q 2709 3584 3137 3096 
Q 3566 2609 3566 1747 
Q 3566 888 3137 398 
Q 2709 -91 1959 -91 
Q 1206 -91 779 398 
Q 353 888 353 1747 
Q 353 2609 779 3096 
Q 1206 3584 1959 3584 
z
" transform="scale(0.015625)"/>
       <path id="DejaVuSans-64" d="M 2906 2969 
L 2906 4863 
L 3481 4863 
L 3481 0 
L 2906 0 
L 2906 525 
Q 2725 213 2448 61 
Q 2172 -91 1784 -91 
Q 1150 -91 751 415 
Q 353 922 353 1747 
Q 353 2572 751 3078 
Q 1150 3584 1784 3584 
Q 2172 3584 2448 3432 
Q 2725 3281 2906 2969 
z
M 947 1747 
Q 947 1113 1208 752 
Q 1469 391 1925 391 
Q 2381 391 2643 752 
Q 2906 1113 2906 1747 
Q 2906 2381 2643 2742 
Q 2381 3103 1925 3103 
Q 1469 3103 1208 2742 
Q 947 2381 947 1747 
z
" transform="scale(0.015625)"/>
       <path id="DejaVuSans-65" d="M 3597 1894 
L 3597 1613 
L 953 1613 
Q 991 1019 1311 708 
Q 1631 397 2203 397 
Q 2534 397 2845 478 
Q 3156 559 3463 722 
L 3463 178 
Q 3153 47 2828 -22 
Q 2503 -91 2169 -91 
Q 1331 -91 842 396 
Q 353 884 353 1716 
Q 353 2575 817 3079 
Q 1281 3584 2069 3584 
Q 2775 3584 3186 3129 
Q 3597 2675 3597 1894 
z
M 3022 2063 
Q 3016 2534 2758 2815 
Q 2500 3097 2075 3097 
Q 1594 3097 1305 2825 
Q 1016 2553 972 2059 
L 3022 2063 
z
" transform="scale(0.015625)"/>
      </defs>
      <use xlink:href="#DejaVuSans-45"/>
      <use xlink:href="#DejaVuSans-70" x="63.183594"/>
      <use xlink:href="#DejaVuSans-69" x="126.660156"/>
      <use xlink:href="#DejaVuSans-73" x="154.443359"/>
      <use xlink:href="#DejaVuSans-6f" x="206.542969"/>
      <use xlink:href="#DejaVuSans-64" x="267.724609"/>
      <use xlink:href="#DejaVuSans-65" x="331.201172"/>
     </g>
    </g>
   </g>
   <g id="matplotlib.axis_2">
    <g id="ytick_1">
     <g id="line2d_13">
      <path d="M 53.03 375.67697 
L 709.2 375.67697 
" clip-path="url(#p843466ab03)" style="fill: none; stroke: #b0b0b0; stroke-width: 0.8; stroke-linecap: square"/>
     </g>
     <g id="line2d_14">
      <defs>
       <path id="m63b6eeff66" d="M 0 0 
L -3.5 0 
" style="stroke: #000000; stroke-width: 0.8"/>
      </defs>
      <g>
       <use xlink:href="#m63b6eeff66" x="53.03" y="375.67697" style="stroke: #000000; stroke-width: 0.8"/>
      </g>
     </g>
     <g id="text_8">
      <!-- −15 -->
      <g transform="translate(24.925313 379.476188) scale(0.1 -0.1)">
       <defs>
        <path id="DejaVuSans-2212" d="M 678 2272 
L 4684 2272 
L 4684 1741 
L 678 1741 
L 678 2272 
z
" transform="scale(0.015625)"/>
        <path id="DejaVuSans-35" d="M 691 4666 
L 3169 4666 
L 3169 4134 
L 1269 4134 
L 1269 2991 
Q 1406 3038 1543 3061 
Q 1681 3084 1819 3084 
Q 2600 3084 3056 2656 
Q 3513 2228 3513 1497 
Q 3513 744 3044 326 
Q 2575 -91 1722 -91 
Q 1428 -91 1123 -41 
Q 819 9 494 109 
L 494 744 
Q 775 591 1075 516 
Q 1375 441 1709 441 
Q 2250 441 2565 725 
Q 2881 1009 2881 1497 
Q 2881 1984 2565 2268 
Q 2250 2553 1709 2553 
Q 1456 2553 1204 2497 
Q 953 2441 691 2322 
L 691 4666 
z
" transform="scale(0.015625)"/>
       </defs>
       <use xlink:href="#DejaVuSans-2212"/>
       <use xlink:href="#DejaVuSans-31" x="83.789062"/>
       <use xlink:href="#DejaVuSans-35" x="147.412109"/>
      </g>
     </g>
    </g>
    <g id="ytick_2">
     <g id="line2d_15">
      <path d="M 53.03 324.853939 
L 709.2 324.853939 
" clip-path="url(#p843466ab03)" style="fill: none; stroke: #b0b0b0; stroke-width: 0.8; stroke-linecap: square"/>
     </g>
     <g id="line2d_16">
      <g>
       <use xlink:href="#m63b6eeff66" x="53.03" y="324.853939" style="stroke: #000000; stroke-width: 0.8"/>
      </g>
     </g>
     <g id="text_9">
      <!-- −10 -->
      <g transform="translate(24.925313 328.653158) scale(0.1 -0.1)">
       <use xlink:href="#DejaVuSans-2212"/>
       <use xlink:href="#DejaVuSans-31" x="83.789062"/>
       <use xlink:href="#DejaVuSans-30" x="147.412109"/>
      </g>
     </g>
    </g>
    <g id="ytick_3">
     <g id="line2d_17">
      <path d="M 53.03 274.030909 
L 709.2 274.030909 
" clip-path="url(#p843466ab03)" style="fill: none; stroke: #b0b0b0; stroke-width: 0.8; stroke-linecap: square"/>
     </g>
     <g id="line2d_18">
      <g>
       <use xlink:href="#m63b6eeff66" x="53.03" y="274.030909" style="stroke: #000000; stroke-width: 0.8"/>
      </g>
     </g>
     <g id="text_10">
      <!-- −5 -->
      <g transform="translate(31.287813 277.830128) scale(0.1 -0.1)">
       <use xlink:href="#DejaVuSans-2212"/>
       <use xlink:href="#DejaVuSans-35" x="83.789062"/>
      </g>
     </g>
    </g>
    <g id="ytick_4">
     <g id="line2d_19">
      <path d="M 53.03 223.207879 
L 709.2 223.207879 
" clip-path="url(#p843466ab03)" style="fill: none; stroke: #b0b0b0; stroke-width: 0.8; stroke-linecap: square"/>
     </g>
     <g id="line2d_20">
      <g>
       <use xlink:href="#m63b6eeff66" x="53.03" y="223.207879" style="stroke: #000000; stroke-width: 0.8"/>
      </g>
     </g>
     <g id="text_11">
      <!-- 0 -->
      <g transform="translate(39.6675 227.007098) scale(0.1 -0.1)">
       <use xlink:href="#DejaVuSans-30"/>
      </g>
     </g>
    </g>
    <g id="ytick_5">
     <g id="line2d_21">
      <path d="M 53.03 172.384848 
L 709.2 172.384848 
" clip-path="url(#p843466ab03)" style="fill: none; stroke: #b0b0b0; stroke-width: 0.8; stroke-linecap: square"/>
     </g>
     <g id="line2d_22">
      <g>
       <use xlink:href="#m63b6eeff66" x="53.03" y="172.384848" style="stroke: #000000; stroke-width: 0.8"/>
      </g>
     </g>
     <g id="text_12">
      <!-- 5 -->
      <g transform="translate(39.6675 176.184067) scale(0.1 -0.1)">
       <use xlink:href="#DejaVuSans-35"/>
      </g>
     </g>
    </g>
    <g id="ytick_6">
     <g id="line2d_23">
      <path d="M 53.03 121.561818 
L 709.2 121.561818 
" clip-path="url(#p843466ab03)" style="fill: none; stroke: #b0b0b0; stroke-width: 0.8; stroke-linecap: square"/>
     </g>
     <g id="line2d_24">
      <g>
       <use xlink:href="#m63b6eeff66" x="53.03" y="121.561818" style="stroke: #000000; stroke-width: 0.8"/>
      </g>
     </g>
     <g id="text_13">
      <!-- 10 -->
      <g transform="translate(33.305 125.361037) scale(0.1 -0.1)">
       <use xlink:href="#DejaVuSans-31"/>
       <use xlink:href="#DejaVuSans-30" x="63.623047"/>
      </g>
     </g>
    </g>
    <g id="ytick_7">
     <g id="line2d_25">
      <path d="M 53.03 70.738788 
L 709.2 70.738788 
" clip-path="url(#p843466ab03)" style="fill: none; stroke: #b0b0b0; stroke-width: 0.8; stroke-linecap: square"/>
     </g>
     <g id="line2d_26">
      <g>
       <use xlink:href="#m63b6eeff66" x="53.03" y="70.738788" style="stroke: #000000; stroke-width: 0.8"/>
      </g>
     </g>
     <g id="text_14">
      <!-- 15 -->
      <g transform="translate(33.305 74.538007) scale(0.1 -0.1)">
       <use xlink:href="#DejaVuSans-31"/>
       <use xlink:href="#DejaVuSans-35" x="63.623047"/>
      </g>
     </g>
    </g>
    <g id="text_15">
     <!-- Average Reward -->
     <g transform="translate(18.845625 248.482969) rotate(-90) scale(0.1 -0.1)">
      <defs>
       <path id="DejaVuSans-41" d="M 2188 4044 
L 1331 1722 
L 3047 1722 
L 2188 4044 
z
M 1831 4666 
L 2547 4666 
L 4325 0 
L 3669 0 
L 3244 1197 
L 1141 1197 
L 716 0 
L 50 0 
L 1831 4666 
z
" transform="scale(0.015625)"/>
       <path id="DejaVuSans-76" d="M 191 3500 
L 800 3500 
L 1894 563 
L 2988 3500 
L 3597 3500 
L 2284 0 
L 1503 0 
L 191 3500 
z
" transform="scale(0.015625)"/>
       <path id="DejaVuSans-72" d="M 2631 2963 
Q 2534 3019 2420 3045 
Q 2306 3072 2169 3072 
Q 1681 3072 1420 2755 
Q 1159 2438 1159 1844 
L 1159 0 
L 581 0 
L 581 3500 
L 1159 3500 
L 1159 2956 
Q 1341 3275 1631 3429 
Q 1922 3584 2338 3584 
Q 2397 3584 2469 3576 
Q 2541 3569 2628 3553 
L 2631 2963 
z
" transform="scale(0.015625)"/>
       <path id="DejaVuSans-61" d="M 2194 1759 
Q 1497 1759 1228 1600 
Q 959 1441 959 1056 
Q 959 750 1161 570 
Q 1363 391 1709 391 
Q 2188 391 2477 730 
Q 2766 1069 2766 1631 
L 2766 1759 
L 2194 1759 
z
M 3341 1997 
L 3341 0 
L 2766 0 
L 2766 531 
Q 2569 213 2275 61 
Q 1981 -91 1556 -91 
Q 1019 -91 701 211 
Q 384 513 384 1019 
Q 384 1609 779 1909 
Q 1175 2209 1959 2209 
L 2766 2209 
L 2766 2266 
Q 2766 2663 2505 2880 
Q 2244 3097 1772 3097 
Q 1472 3097 1187 3025 
Q 903 2953 641 2809 
L 641 3341 
Q 956 3463 1253 3523 
Q 1550 3584 1831 3584 
Q 2591 3584 2966 3190 
Q 3341 2797 3341 1997 
z
" transform="scale(0.015625)"/>
       <path id="DejaVuSans-67" d="M 2906 1791 
Q 2906 2416 2648 2759 
Q 2391 3103 1925 3103 
Q 1463 3103 1205 2759 
Q 947 2416 947 1791 
Q 947 1169 1205 825 
Q 1463 481 1925 481 
Q 2391 481 2648 825 
Q 2906 1169 2906 1791 
z
M 3481 434 
Q 3481 -459 3084 -895 
Q 2688 -1331 1869 -1331 
Q 1566 -1331 1297 -1286 
Q 1028 -1241 775 -1147 
L 775 -588 
Q 1028 -725 1275 -790 
Q 1522 -856 1778 -856 
Q 2344 -856 2625 -561 
Q 2906 -266 2906 331 
L 2906 616 
Q 2728 306 2450 153 
Q 2172 0 1784 0 
Q 1141 0 747 490 
Q 353 981 353 1791 
Q 353 2603 747 3093 
Q 1141 3584 1784 3584 
Q 2172 3584 2450 3431 
Q 2728 3278 2906 2969 
L 2906 3500 
L 3481 3500 
L 3481 434 
z
" transform="scale(0.015625)"/>
       <path id="DejaVuSans-20" transform="scale(0.015625)"/>
       <path id="DejaVuSans-52" d="M 2841 2188 
Q 3044 2119 3236 1894 
Q 3428 1669 3622 1275 
L 4263 0 
L 3584 0 
L 2988 1197 
Q 2756 1666 2539 1819 
Q 2322 1972 1947 1972 
L 1259 1972 
L 1259 0 
L 628 0 
L 628 4666 
L 2053 4666 
Q 2853 4666 3247 4331 
Q 3641 3997 3641 3322 
Q 3641 2881 3436 2590 
Q 3231 2300 2841 2188 
z
M 1259 4147 
L 1259 2491 
L 2053 2491 
Q 2509 2491 2742 2702 
Q 2975 2913 2975 3322 
Q 2975 3731 2742 3939 
Q 2509 4147 2053 4147 
L 1259 4147 
z
" transform="scale(0.015625)"/>
       <path id="DejaVuSans-77" d="M 269 3500 
L 844 3500 
L 1563 769 
L 2278 3500 
L 2956 3500 
L 3675 769 
L 4391 3500 
L 4966 3500 
L 4050 0 
L 3372 0 
L 2619 2869 
L 1863 0 
L 1184 0 
L 269 3500 
z
" transform="scale(0.015625)"/>
      </defs>
      <use xlink:href="#DejaVuSans-41"/>
      <use xlink:href="#DejaVuSans-76" x="62.533203"/>
      <use xlink:href="#DejaVuSans-65" x="121.712891"/>
      <use xlink:href="#DejaVuSans-72" x="183.236328"/>
      <use xlink:href="#DejaVuSans-61" x="224.349609"/>
      <use xlink:href="#DejaVuSans-67" x="285.628906"/>
      <use xlink:href="#DejaVuSans-65" x="349.105469"/>
      <use xlink:href="#DejaVuSans-20" x="410.628906"/>
      <use xlink:href="#DejaVuSans-52" x="442.416016"/>
      <use xlink:href="#DejaVuSans-65" x="507.398438"/>
      <use xlink:href="#DejaVuSans-77" x="568.921875"/>
      <use xlink:href="#DejaVuSans-61" x="650.708984"/>
      <use xlink:href="#DejaVuSans-72" x="711.988281"/>
      <use xlink:href="#DejaVuSans-64" x="751.351562"/>
     </g>
    </g>
   </g>
   <g id="line2d_27">
    <path d="M 82.855909 232.046667 
L 88.881345 302.75697 
L 94.906781 293.918182 
L 100.932218 258.56303 
L 106.957654 249.724242 
L 112.98309 223.207879 
L 119.008526 236.466061 
L 125.033962 289.498788 
L 131.059399 316.015152 
L 137.084835 285.079394 
L 143.110271 280.66 
L 149.135707 254.143636 
L 155.161143 223.207879 
L 161.186579 227.627273 
L 167.212016 280.66 
L 173.237452 267.401818 
L 179.262888 232.046667 
L 185.288324 240.885455 
L 191.31376 227.627273 
L 197.339197 285.079394 
L 203.364633 262.982424 
L 209.390069 245.304848 
L 215.415505 214.369091 
L 221.440941 262.982424 
L 227.466377 258.56303 
L 233.491814 223.207879 
L 239.51725 240.885455 
L 245.542686 249.724242 
L 251.568122 254.143636 
L 257.593558 262.982424 
L 263.618994 249.724242 
L 269.644431 209.949697 
L 275.669867 254.143636 
L 281.695303 214.369091 
L 287.720739 236.466061 
L 293.746175 240.885455 
L 299.771612 227.627273 
L 305.797048 240.885455 
L 311.822484 249.724242 
L 317.84792 205.530303 
L 323.873356 187.852727 
L 329.898792 232.046667 
L 335.924229 192.272121 
L 341.949665 262.982424 
L 347.975101 187.852727 
L 354.000537 271.821212 
L 360.025973 179.013939 
L 366.05141 209.949697 
L 372.076846 214.369091 
L 378.102282 245.304848 
L 384.127718 205.530303 
L 390.153154 192.272121 
L 396.17859 223.207879 
L 402.204027 196.691515 
L 408.229463 196.691515 
L 414.254899 218.788485 
L 420.280335 209.949697 
L 426.305771 196.691515 
L 432.331208 183.433333 
L 438.356644 187.852727 
L 444.38208 227.627273 
L 450.407516 192.272121 
L 456.432952 223.207879 
L 462.458388 214.369091 
L 468.483825 236.466061 
L 474.509261 174.594545 
L 480.534697 214.369091 
L 486.560133 174.594545 
L 492.585569 165.755758 
L 498.611006 196.691515 
L 504.636442 183.433333 
L 510.661878 174.594545 
L 516.687314 192.272121 
L 522.71275 223.207879 
L 528.738186 156.91697 
L 534.763623 218.788485 
L 540.789059 174.594545 
L 546.814495 165.755758 
L 552.839931 156.91697 
L 558.865367 201.110909 
L 564.890803 156.91697 
L 570.91624 183.433333 
L 576.941676 218.788485 
L 582.967112 165.755758 
L 588.992548 165.755758 
L 595.017984 165.755758 
L 601.043421 165.755758 
L 607.068857 156.91697 
L 613.094293 156.91697 
L 619.119729 165.755758 
L 625.145165 174.594545 
L 631.170601 192.272121 
L 637.196038 192.272121 
L 643.221474 174.594545 
L 649.24691 156.91697 
L 655.272346 174.594545 
L 661.297782 156.91697 
L 667.323219 156.91697 
L 673.348655 156.91697 
L 679.374091 183.433333 
" clip-path="url(#p843466ab03)" style="fill: none; stroke: #1f77b4; stroke-width: 1.5; stroke-linecap: square"/>
   </g>
   <g id="line2d_28">
    <path d="M 82.855909 240.885455 
L 88.881345 262.982424 
L 94.906781 223.207879 
L 100.932218 311.595758 
L 106.957654 316.015152 
L 112.98309 240.885455 
L 119.008526 258.56303 
L 125.033962 298.337576 
L 131.059399 276.240606 
L 137.084835 258.56303 
L 143.110271 218.788485 
L 149.135707 267.401818 
L 155.161143 223.207879 
L 161.186579 262.982424 
L 167.212016 267.401818 
L 173.237452 249.724242 
L 179.262888 232.046667 
L 185.288324 267.401818 
L 191.31376 227.627273 
L 197.339197 196.691515 
L 203.364633 232.046667 
L 209.390069 218.788485 
L 215.415505 223.207879 
L 221.440941 192.272121 
L 227.466377 156.91697 
L 233.491814 373.467273 
L 239.51725 254.143636 
L 245.542686 196.691515 
L 251.568122 165.755758 
L 257.593558 196.691515 
L 263.618994 187.852727 
L 269.644431 192.272121 
L 275.669867 179.013939 
L 281.695303 196.691515 
L 287.720739 187.852727 
L 293.746175 236.466061 
L 299.771612 236.466061 
L 305.797048 179.013939 
L 311.822484 174.594545 
L 317.84792 117.142424 
L 323.873356 223.207879 
L 329.898792 223.207879 
L 335.924229 289.498788 
L 341.949665 143.658788 
L 347.975101 165.755758 
L 354.000537 192.272121 
L 360.025973 165.755758 
L 366.05141 170.175152 
L 372.076846 143.658788 
L 378.102282 240.885455 
L 384.127718 148.078182 
L 390.153154 236.466061 
L 396.17859 143.658788 
L 402.204027 121.561818 
L 408.229463 170.175152 
L 414.254899 196.691515 
L 420.280335 125.981212 
L 426.305771 90.626061 
L 432.331208 112.72303 
L 438.356644 99.464848 
L 444.38208 103.884242 
L 450.407516 152.497576 
L 456.432952 108.303636 
L 462.458388 223.207879 
L 468.483825 125.981212 
L 474.509261 86.206667 
L 480.534697 72.948485 
L 486.560133 152.497576 
L 492.585569 77.367879 
L 498.611006 196.691515 
L 504.636442 95.045455 
L 510.661878 59.690303 
L 516.687314 77.367879 
L 522.71275 103.884242 
L 528.738186 90.626061 
L 534.763623 86.206667 
L 540.789059 77.367879 
L 546.814495 95.045455 
L 552.839931 42.012727 
L 558.865367 86.206667 
L 564.890803 64.109697 
L 570.91624 59.690303 
L 576.941676 55.270909 
L 582.967112 99.464848 
L 588.992548 77.367879 
L 595.017984 50.851515 
L 601.043421 81.787273 
L 607.068857 68.529091 
L 613.094293 68.529091 
L 619.119729 90.626061 
L 625.145165 42.012727 
L 631.170601 59.690303 
L 637.196038 59.690303 
L 643.221474 50.851515 
L 649.24691 42.012727 
L 655.272346 55.270909 
L 661.297782 42.012727 
L 667.323219 42.012727 
L 673.348655 59.690303 
L 679.374091 42.012727 
" clip-path="url(#p843466ab03)" style="fill: none; stroke: #ff7f0e; stroke-width: 1.5; stroke-linecap: square"/>
   </g>
   <g id="line2d_29">
    <path d="M 82.855909 329.273333 
L 88.881345 311.595758 
L 94.906781 302.75697 
L 100.932218 329.273333 
L 106.957654 276.240606 
L 112.98309 276.240606 
L 119.008526 364.628485 
L 125.033962 338.112121 
L 131.059399 329.273333 
L 137.084835 320.434545 
L 143.110271 329.273333 
L 149.135707 302.75697 
L 155.161143 285.079394 
L 161.186579 311.595758 
L 167.212016 311.595758 
L 173.237452 355.789697 
L 179.262888 320.434545 
L 185.288324 302.75697 
L 191.31376 293.918182 
L 197.339197 293.918182 
L 203.364633 285.079394 
L 209.390069 311.595758 
L 215.415505 302.75697 
L 221.440941 293.918182 
L 227.466377 311.595758 
L 233.491814 320.434545 
L 239.51725 302.75697 
L 245.542686 293.918182 
L 251.568122 320.434545 
L 257.593558 285.079394 
L 263.618994 302.75697 
L 269.644431 302.75697 
L 275.669867 276.240606 
L 281.695303 302.75697 
L 287.720739 329.273333 
L 293.746175 276.240606 
L 299.771612 267.401818 
L 305.797048 320.434545 
L 311.822484 302.75697 
L 317.84792 311.595758 
L 323.873356 293.918182 
L 329.898792 285.079394 
L 335.924229 302.75697 
L 341.949665 293.918182 
L 347.975101 258.56303 
L 354.000537 293.918182 
L 360.025973 276.240606 
L 366.05141 249.724242 
L 372.076846 249.724242 
L 378.102282 302.75697 
L 384.127718 293.918182 
L 390.153154 249.724242 
L 396.17859 232.046667 
L 402.204027 311.595758 
L 408.229463 249.724242 
L 414.254899 249.724242 
L 420.280335 285.079394 
L 426.305771 249.724242 
L 432.331208 249.724242 
L 438.356644 276.240606 
L 444.38208 249.724242 
L 450.407516 285.079394 
L 456.432952 249.724242 
L 462.458388 258.56303 
L 468.483825 240.885455 
L 474.509261 267.401818 
L 480.534697 258.56303 
L 486.560133 249.724242 
L 492.585569 240.885455 
L 498.611006 232.046667 
L 504.636442 258.56303 
L 510.661878 258.56303 
L 516.687314 249.724242 
L 522.71275 258.56303 
L 528.738186 267.401818 
L 534.763623 240.885455 
L 540.789059 240.885455 
L 546.814495 240.885455 
L 552.839931 276.240606 
L 558.865367 240.885455 
L 564.890803 249.724242 
L 570.91624 240.885455 
L 576.941676 240.885455 
L 582.967112 240.885455 
L 588.992548 249.724242 
L 595.017984 249.724242 
L 601.043421 232.046667 
L 607.068857 223.207879 
L 613.094293 223.207879 
L 619.119729 223.207879 
L 625.145165 232.046667 
L 631.170601 232.046667 
L 637.196038 232.046667 
L 643.221474 223.207879 
L 649.24691 223.207879 
L 655.272346 223.207879 
L 661.297782 223.207879 
L 667.323219 223.207879 
L 673.348655 232.046667 
L 679.374091 223.207879 
" clip-path="url(#p843466ab03)" style="fill: none; stroke: #2ca02c; stroke-width: 1.5; stroke-linecap: square"/>
   </g>
   <g id="line2d_30">
    <path d="M 82.855909 311.595758 
L 88.881345 302.75697 
L 94.906781 320.434545 
L 100.932218 311.595758 
L 106.957654 302.75697 
L 112.98309 346.950909 
L 119.008526 338.112121 
L 125.033962 320.434545 
L 131.059399 285.079394 
L 137.084835 338.112121 
L 143.110271 311.595758 
L 149.135707 276.240606 
L 155.161143 276.240606 
L 161.186579 338.112121 
L 167.212016 276.240606 
L 173.237452 338.112121 
L 179.262888 285.079394 
L 185.288324 311.595758 
L 191.31376 302.75697 
L 197.339197 320.434545 
L 203.364633 302.75697 
L 209.390069 293.918182 
L 215.415505 267.401818 
L 221.440941 338.112121 
L 227.466377 302.75697 
L 233.491814 293.918182 
L 239.51725 293.918182 
L 245.542686 302.75697 
L 251.568122 293.918182 
L 257.593558 267.401818 
L 263.618994 320.434545 
L 269.644431 355.789697 
L 275.669867 293.918182 
L 281.695303 258.56303 
L 287.720739 320.434545 
L 293.746175 267.401818 
L 299.771612 285.079394 
L 305.797048 285.079394 
L 311.822484 285.079394 
L 317.84792 285.079394 
L 323.873356 285.079394 
L 329.898792 276.240606 
L 335.924229 258.56303 
L 341.949665 293.918182 
L 347.975101 293.918182 
L 354.000537 302.75697 
L 360.025973 293.918182 
L 366.05141 258.56303 
L 372.076846 267.401818 
L 378.102282 293.918182 
L 384.127718 249.724242 
L 390.153154 338.112121 
L 396.17859 258.56303 
L 402.204027 285.079394 
L 408.229463 258.56303 
L 414.254899 293.918182 
L 420.280335 258.56303 
L 426.305771 267.401818 
L 432.331208 276.240606 
L 438.356644 276.240606 
L 444.38208 293.918182 
L 450.407516 258.56303 
L 456.432952 249.724242 
L 462.458388 258.56303 
L 468.483825 240.885455 
L 474.509261 232.046667 
L 480.534697 267.401818 
L 486.560133 258.56303 
L 492.585569 267.401818 
L 498.611006 258.56303 
L 504.636442 285.079394 
L 510.661878 258.56303 
L 516.687314 258.56303 
L 522.71275 240.885455 
L 528.738186 249.724242 
L 534.763623 240.885455 
L 540.789059 232.046667 
L 546.814495 258.56303 
L 552.839931 232.046667 
L 558.865367 223.207879 
L 564.890803 249.724242 
L 570.91624 232.046667 
L 576.941676 232.046667 
L 582.967112 240.885455 
L 588.992548 232.046667 
L 595.017984 249.724242 
L 601.043421 223.207879 
L 607.068857 258.56303 
L 613.094293 223.207879 
L 619.119729 240.885455 
L 625.145165 232.046667 
L 631.170601 240.885455 
L 637.196038 223.207879 
L 643.221474 240.885455 
L 649.24691 223.207879 
L 655.272346 223.207879 
L 661.297782 232.046667 
L 667.323219 258.56303 
L 673.348655 223.207879 
L 679.374091 223.207879 
" clip-path="url(#p843466ab03)" style="fill: none; stroke: #d62728; stroke-width: 1.5; stroke-linecap: square"/>
   </g>
   <g id="line2d_31">
    <path d="M 82.855909 201.110909 
L 88.881345 236.466061 
L 94.906781 209.949697 
L 100.932218 201.110909 
L 106.957654 227.627273 
L 112.98309 209.949697 
L 119.008526 209.949697 
L 125.033962 218.788485 
L 131.059399 209.949697 
L 137.084835 227.627273 
L 143.110271 245.304848 
L 149.135707 245.304848 
L 155.161143 209.949697 
L 161.186579 227.627273 
L 167.212016 165.755758 
L 173.237452 209.949697 
L 179.262888 218.788485 
L 185.288324 201.110909 
L 191.31376 245.304848 
L 197.339197 192.272121 
L 203.364633 192.272121 
L 209.390069 192.272121 
L 215.415505 174.594545 
L 221.440941 201.110909 
L 227.466377 218.788485 
L 233.491814 201.110909 
L 239.51725 209.949697 
L 245.542686 192.272121 
L 251.568122 192.272121 
L 257.593558 209.949697 
L 263.618994 156.91697 
L 269.644431 201.110909 
L 275.669867 174.594545 
L 281.695303 174.594545 
L 287.720739 165.755758 
L 293.746175 192.272121 
L 299.771612 209.949697 
L 305.797048 148.078182 
L 311.822484 165.755758 
L 317.84792 165.755758 
L 323.873356 174.594545 
L 329.898792 165.755758 
L 335.924229 183.433333 
L 341.949665 209.949697 
L 347.975101 174.594545 
L 354.000537 165.755758 
L 360.025973 192.272121 
L 366.05141 130.400606 
L 372.076846 165.755758 
L 378.102282 139.239394 
L 384.127718 156.91697 
L 390.153154 174.594545 
L 396.17859 156.91697 
L 402.204027 148.078182 
L 408.229463 201.110909 
L 414.254899 156.91697 
L 420.280335 148.078182 
L 426.305771 192.272121 
L 432.331208 165.755758 
L 438.356644 174.594545 
L 444.38208 148.078182 
L 450.407516 183.433333 
L 456.432952 174.594545 
L 462.458388 148.078182 
L 468.483825 156.91697 
L 474.509261 156.91697 
L 480.534697 156.91697 
L 486.560133 165.755758 
L 492.585569 156.91697 
L 498.611006 174.594545 
L 504.636442 139.239394 
L 510.661878 139.239394 
L 516.687314 174.594545 
L 522.71275 130.400606 
L 528.738186 139.239394 
L 534.763623 148.078182 
L 540.789059 148.078182 
L 546.814495 148.078182 
L 552.839931 148.078182 
L 558.865367 121.561818 
L 564.890803 139.239394 
L 570.91624 130.400606 
L 576.941676 148.078182 
L 582.967112 121.561818 
L 588.992548 148.078182 
L 595.017984 139.239394 
L 601.043421 130.400606 
L 607.068857 156.91697 
L 613.094293 130.400606 
L 619.119729 156.91697 
L 625.145165 121.561818 
L 631.170601 121.561818 
L 637.196038 130.400606 
L 643.221474 130.400606 
L 649.24691 130.400606 
L 655.272346 121.561818 
L 661.297782 130.400606 
L 667.323219 130.400606 
L 673.348655 130.400606 
L 679.374091 130.400606 
" clip-path="url(#p843466ab03)" style="fill: none; stroke: #9467bd; stroke-width: 1.5; stroke-linecap: square"/>
   </g>
   <g id="line2d_32"/>
   <g id="patch_3">
    <path d="M 53.03 390.04 
L 53.03 25.44 
" style="fill: none; stroke: #000000; stroke-width: 0.8; stroke-linejoin: miter; stroke-linecap: square"/>
   </g>
   <g id="patch_4">
    <path d="M 709.2 390.04 
L 709.2 25.44 
" style="fill: none; stroke: #000000; stroke-width: 0.8; stroke-linejoin: miter; stroke-linecap: square"/>
   </g>
   <g id="patch_5">
    <path d="M 53.03 390.04 
L 709.2 390.04 
" style="fill: none; stroke: #000000; stroke-width: 0.8; stroke-linejoin: miter; stroke-linecap: square"/>
   </g>
   <g id="patch_6">
    <path d="M 53.03 25.44 
L 709.2 25.44 
" style="fill: none; stroke: #000000; stroke-width: 0.8; stroke-linejoin: miter; stroke-linecap: square"/>
   </g>
   <g id="text_16">
    <!-- Average Reward per Episode by Agent -->
    <g transform="translate(265.943125 19.44) scale(0.12 -0.12)">
     <defs>
      <path id="DejaVuSans-62" d="M 3116 1747 
Q 3116 2381 2855 2742 
Q 2594 3103 2138 3103 
Q 1681 3103 1420 2742 
Q 1159 2381 1159 1747 
Q 1159 1113 1420 752 
Q 1681 391 2138 391 
Q 2594 391 2855 752 
Q 3116 1113 3116 1747 
z
M 1159 2969 
Q 1341 3281 1617 3432 
Q 1894 3584 2278 3584 
Q 2916 3584 3314 3078 
Q 3713 2572 3713 1747 
Q 3713 922 3314 415 
Q 2916 -91 2278 -91 
Q 1894 -91 1617 61 
Q 1341 213 1159 525 
L 1159 0 
L 581 0 
L 581 4863 
L 1159 4863 
L 1159 2969 
z
" transform="scale(0.015625)"/>
      <path id="DejaVuSans-79" d="M 2059 -325 
Q 1816 -950 1584 -1140 
Q 1353 -1331 966 -1331 
L 506 -1331 
L 506 -850 
L 844 -850 
Q 1081 -850 1212 -737 
Q 1344 -625 1503 -206 
L 1606 56 
L 191 3500 
L 800 3500 
L 1894 763 
L 2988 3500 
L 3597 3500 
L 2059 -325 
z
" transform="scale(0.015625)"/>
      <path id="DejaVuSans-6e" d="M 3513 2113 
L 3513 0 
L 2938 0 
L 2938 2094 
Q 2938 2591 2744 2837 
Q 2550 3084 2163 3084 
Q 1697 3084 1428 2787 
Q 1159 2491 1159 1978 
L 1159 0 
L 581 0 
L 581 3500 
L 1159 3500 
L 1159 2956 
Q 1366 3272 1645 3428 
Q 1925 3584 2291 3584 
Q 2894 3584 3203 3211 
Q 3513 2838 3513 2113 
z
" transform="scale(0.015625)"/>
      <path id="DejaVuSans-74" d="M 1172 4494 
L 1172 3500 
L 2356 3500 
L 2356 3053 
L 1172 3053 
L 1172 1153 
Q 1172 725 1289 603 
Q 1406 481 1766 481 
L 2356 481 
L 2356 0 
L 1766 0 
Q 1100 0 847 248 
Q 594 497 594 1153 
L 594 3053 
L 172 3053 
L 172 3500 
L 594 3500 
L 594 4494 
L 1172 4494 
z
" transform="scale(0.015625)"/>
     </defs>
     <use xlink:href="#DejaVuSans-41"/>
     <use xlink:href="#DejaVuSans-76" x="62.533203"/>
     <use xlink:href="#DejaVuSans-65" x="121.712891"/>
     <use xlink:href="#DejaVuSans-72" x="183.236328"/>
     <use xlink:href="#DejaVuSans-61" x="224.349609"/>
     <use xlink:href="#DejaVuSans-67" x="285.628906"/>
     <use xlink:href="#DejaVuSans-65" x="349.105469"/>
     <use xlink:href="#DejaVuSans-20" x="410.628906"/>
     <use xlink:href="#DejaVuSans-52" x="442.416016"/>
     <use xlink:href="#DejaVuSans-65" x="507.398438"/>
     <use xlink:href="#DejaVuSans-77" x="568.921875"/>
     <use xlink:href="#DejaVuSans-61" x="650.708984"/>
     <use xlink:href="#DejaVuSans-72" x="711.988281"/>
     <use xlink:href="#DejaVuSans-64" x="751.351562"/>
     <use xlink:href="#DejaVuSans-20" x="814.828125"/>
     <use xlink:href="#DejaVuSans-70" x="846.615234"/>
     <use xlink:href="#DejaVuSans-65" x="910.091797"/>
     <use xlink:href="#DejaVuSans-72" x="971.615234"/>
     <use xlink:href="#DejaVuSans-20" x="1012.728516"/>
     <use xlink:href="#DejaVuSans-45" x="1044.515625"/>
     <use xlink:href="#DejaVuSans-70" x="1107.699219"/>
     <use xlink:href="#DejaVuSans-69" x="1171.175781"/>
     <use xlink:href="#DejaVuSans-73" x="1198.958984"/>
     <use xlink:href="#DejaVuSans-6f" x="1251.058594"/>
     <use xlink:href="#DejaVuSans-64" x="1312.240234"/>
     <use xlink:href="#DejaVuSans-65" x="1375.716797"/>
     <use xlink:href="#DejaVuSans-20" x="1437.240234"/>
     <use xlink:href="#DejaVuSans-62" x="1469.027344"/>
     <use xlink:href="#DejaVuSans-79" x="1532.503906"/>
     <use xlink:href="#DejaVuSans-20" x="1591.683594"/>
     <use xlink:href="#DejaVuSans-41" x="1623.470703"/>
     <use xlink:href="#DejaVuSans-67" x="1691.878906"/>
     <use xlink:href="#DejaVuSans-65" x="1755.355469"/>
     <use xlink:href="#DejaVuSans-6e" x="1816.878906"/>
     <use xlink:href="#DejaVuSans-74" x="1880.257812"/>
    </g>
   </g>
   <g id="legend_1">
    <g id="patch_7">
     <path d="M 60.03 121.50875 
L 224.53625 121.50875 
Q 226.53625 121.50875 226.53625 119.50875 
L 226.53625 32.44 
Q 226.53625 30.44 224.53625 30.44 
L 60.03 30.44 
Q 58.03 30.44 58.03 32.44 
L 58.03 119.50875 
Q 58.03 121.50875 60.03 121.50875 
z
" style="fill: #ffffff; opacity: 0.8; stroke: #cccccc; stroke-linejoin: miter"/>
    </g>
    <g id="line2d_33">
     <path d="M 62.03 38.538437 
L 72.03 38.538437 
L 82.03 38.538437 
" style="fill: none; stroke: #1f77b4; stroke-width: 1.5; stroke-linecap: square"/>
    </g>
    <g id="text_17">
     <!-- solar - Average Reward -->
     <g transform="translate(90.03 42.038437) scale(0.1 -0.1)">
      <defs>
       <path id="DejaVuSans-6c" d="M 603 4863 
L 1178 4863 
L 1178 0 
L 603 0 
L 603 4863 
z
" transform="scale(0.015625)"/>
       <path id="DejaVuSans-2d" d="M 313 2009 
L 1997 2009 
L 1997 1497 
L 313 1497 
L 313 2009 
z
" transform="scale(0.015625)"/>
      </defs>
      <use xlink:href="#DejaVuSans-73"/>
      <use xlink:href="#DejaVuSans-6f" x="52.099609"/>
      <use xlink:href="#DejaVuSans-6c" x="113.28125"/>
      <use xlink:href="#DejaVuSans-61" x="141.064453"/>
      <use xlink:href="#DejaVuSans-72" x="202.34375"/>
      <use xlink:href="#DejaVuSans-20" x="243.457031"/>
      <use xlink:href="#DejaVuSans-2d" x="275.244141"/>
      <use xlink:href="#DejaVuSans-20" x="311.328125"/>
      <use xlink:href="#DejaVuSans-41" x="343.115234"/>
      <use xlink:href="#DejaVuSans-76" x="405.648438"/>
      <use xlink:href="#DejaVuSans-65" x="464.828125"/>
      <use xlink:href="#DejaVuSans-72" x="526.351562"/>
      <use xlink:href="#DejaVuSans-61" x="567.464844"/>
      <use xlink:href="#DejaVuSans-67" x="628.744141"/>
      <use xlink:href="#DejaVuSans-65" x="692.220703"/>
      <use xlink:href="#DejaVuSans-20" x="753.744141"/>
      <use xlink:href="#DejaVuSans-52" x="785.53125"/>
      <use xlink:href="#DejaVuSans-65" x="850.513672"/>
      <use xlink:href="#DejaVuSans-77" x="912.037109"/>
      <use xlink:href="#DejaVuSans-61" x="993.824219"/>
      <use xlink:href="#DejaVuSans-72" x="1055.103516"/>
      <use xlink:href="#DejaVuSans-64" x="1094.466797"/>
     </g>
    </g>
    <g id="line2d_34">
     <path d="M 62.03 53.216563 
L 72.03 53.216563 
L 82.03 53.216563 
" style="fill: none; stroke: #ff7f0e; stroke-width: 1.5; stroke-linecap: square"/>
    </g>
    <g id="text_18">
     <!-- bat - Average Reward -->
     <g transform="translate(90.03 56.716563) scale(0.1 -0.1)">
      <use xlink:href="#DejaVuSans-62"/>
      <use xlink:href="#DejaVuSans-61" x="63.476562"/>
      <use xlink:href="#DejaVuSans-74" x="124.755859"/>
      <use xlink:href="#DejaVuSans-20" x="163.964844"/>
      <use xlink:href="#DejaVuSans-2d" x="195.751953"/>
      <use xlink:href="#DejaVuSans-20" x="231.835938"/>
      <use xlink:href="#DejaVuSans-41" x="263.623047"/>
      <use xlink:href="#DejaVuSans-76" x="326.15625"/>
      <use xlink:href="#DejaVuSans-65" x="385.335938"/>
      <use xlink:href="#DejaVuSans-72" x="446.859375"/>
      <use xlink:href="#DejaVuSans-61" x="487.972656"/>
      <use xlink:href="#DejaVuSans-67" x="549.251953"/>
      <use xlink:href="#DejaVuSans-65" x="612.728516"/>
      <use xlink:href="#DejaVuSans-20" x="674.251953"/>
      <use xlink:href="#DejaVuSans-52" x="706.039062"/>
      <use xlink:href="#DejaVuSans-65" x="771.021484"/>
      <use xlink:href="#DejaVuSans-77" x="832.544922"/>
      <use xlink:href="#DejaVuSans-61" x="914.332031"/>
      <use xlink:href="#DejaVuSans-72" x="975.611328"/>
      <use xlink:href="#DejaVuSans-64" x="1014.974609"/>
     </g>
    </g>
    <g id="line2d_35">
     <path d="M 62.03 67.894687 
L 72.03 67.894687 
L 82.03 67.894687 
" style="fill: none; stroke: #2ca02c; stroke-width: 1.5; stroke-linecap: square"/>
    </g>
    <g id="text_19">
     <!-- grid - Average Reward -->
     <g transform="translate(90.03 71.394687) scale(0.1 -0.1)">
      <use xlink:href="#DejaVuSans-67"/>
      <use xlink:href="#DejaVuSans-72" x="63.476562"/>
      <use xlink:href="#DejaVuSans-69" x="104.589844"/>
      <use xlink:href="#DejaVuSans-64" x="132.373047"/>
      <use xlink:href="#DejaVuSans-20" x="195.849609"/>
      <use xlink:href="#DejaVuSans-2d" x="227.636719"/>
      <use xlink:href="#DejaVuSans-20" x="263.720703"/>
      <use xlink:href="#DejaVuSans-41" x="295.507812"/>
      <use xlink:href="#DejaVuSans-76" x="358.041016"/>
      <use xlink:href="#DejaVuSans-65" x="417.220703"/>
      <use xlink:href="#DejaVuSans-72" x="478.744141"/>
      <use xlink:href="#DejaVuSans-61" x="519.857422"/>
      <use xlink:href="#DejaVuSans-67" x="581.136719"/>
      <use xlink:href="#DejaVuSans-65" x="644.613281"/>
      <use xlink:href="#DejaVuSans-20" x="706.136719"/>
      <use xlink:href="#DejaVuSans-52" x="737.923828"/>
      <use xlink:href="#DejaVuSans-65" x="802.90625"/>
      <use xlink:href="#DejaVuSans-77" x="864.429688"/>
      <use xlink:href="#DejaVuSans-61" x="946.216797"/>
      <use xlink:href="#DejaVuSans-72" x="1007.496094"/>
      <use xlink:href="#DejaVuSans-64" x="1046.859375"/>
     </g>
    </g>
    <g id="line2d_36">
     <path d="M 62.03 82.572812 
L 72.03 82.572812 
L 82.03 82.572812 
" style="fill: none; stroke: #d62728; stroke-width: 1.5; stroke-linecap: square"/>
    </g>
    <g id="text_20">
     <!-- wind - Average Reward -->
     <g transform="translate(90.03 86.072812) scale(0.1 -0.1)">
      <use xlink:href="#DejaVuSans-77"/>
      <use xlink:href="#DejaVuSans-69" x="81.787109"/>
      <use xlink:href="#DejaVuSans-6e" x="109.570312"/>
      <use xlink:href="#DejaVuSans-64" x="172.949219"/>
      <use xlink:href="#DejaVuSans-20" x="236.425781"/>
      <use xlink:href="#DejaVuSans-2d" x="268.212891"/>
      <use xlink:href="#DejaVuSans-20" x="304.296875"/>
      <use xlink:href="#DejaVuSans-41" x="336.083984"/>
      <use xlink:href="#DejaVuSans-76" x="398.617188"/>
      <use xlink:href="#DejaVuSans-65" x="457.796875"/>
      <use xlink:href="#DejaVuSans-72" x="519.320312"/>
      <use xlink:href="#DejaVuSans-61" x="560.433594"/>
      <use xlink:href="#DejaVuSans-67" x="621.712891"/>
      <use xlink:href="#DejaVuSans-65" x="685.189453"/>
      <use xlink:href="#DejaVuSans-20" x="746.712891"/>
      <use xlink:href="#DejaVuSans-52" x="778.5"/>
      <use xlink:href="#DejaVuSans-65" x="843.482422"/>
      <use xlink:href="#DejaVuSans-77" x="905.005859"/>
      <use xlink:href="#DejaVuSans-61" x="986.792969"/>
      <use xlink:href="#DejaVuSans-72" x="1048.072266"/>
      <use xlink:href="#DejaVuSans-64" x="1087.435547"/>
     </g>
    </g>
    <g id="line2d_37">
     <path d="M 62.03 97.250937 
L 72.03 97.250937 
L 82.03 97.250937 
" style="fill: none; stroke: #9467bd; stroke-width: 1.5; stroke-linecap: square"/>
    </g>
    <g id="text_21">
     <!-- demand - Average Reward -->
     <g transform="translate(90.03 100.750937) scale(0.1 -0.1)">
      <defs>
       <path id="DejaVuSans-6d" d="M 3328 2828 
Q 3544 3216 3844 3400 
Q 4144 3584 4550 3584 
Q 5097 3584 5394 3201 
Q 5691 2819 5691 2113 
L 5691 0 
L 5113 0 
L 5113 2094 
Q 5113 2597 4934 2840 
Q 4756 3084 4391 3084 
Q 3944 3084 3684 2787 
Q 3425 2491 3425 1978 
L 3425 0 
L 2847 0 
L 2847 2094 
Q 2847 2600 2669 2842 
Q 2491 3084 2119 3084 
Q 1678 3084 1418 2786 
Q 1159 2488 1159 1978 
L 1159 0 
L 581 0 
L 581 3500 
L 1159 3500 
L 1159 2956 
Q 1356 3278 1631 3431 
Q 1906 3584 2284 3584 
Q 2666 3584 2933 3390 
Q 3200 3197 3328 2828 
z
" transform="scale(0.015625)"/>
      </defs>
      <use xlink:href="#DejaVuSans-64"/>
      <use xlink:href="#DejaVuSans-65" x="63.476562"/>
      <use xlink:href="#DejaVuSans-6d" x="125"/>
      <use xlink:href="#DejaVuSans-61" x="222.412109"/>
      <use xlink:href="#DejaVuSans-6e" x="283.691406"/>
      <use xlink:href="#DejaVuSans-64" x="347.070312"/>
      <use xlink:href="#DejaVuSans-20" x="410.546875"/>
      <use xlink:href="#DejaVuSans-2d" x="442.333984"/>
      <use xlink:href="#DejaVuSans-20" x="478.417969"/>
      <use xlink:href="#DejaVuSans-41" x="510.205078"/>
      <use xlink:href="#DejaVuSans-76" x="572.738281"/>
      <use xlink:href="#DejaVuSans-65" x="631.917969"/>
      <use xlink:href="#DejaVuSans-72" x="693.441406"/>
      <use xlink:href="#DejaVuSans-61" x="734.554688"/>
      <use xlink:href="#DejaVuSans-67" x="795.833984"/>
      <use xlink:href="#DejaVuSans-65" x="859.310547"/>
      <use xlink:href="#DejaVuSans-20" x="920.833984"/>
      <use xlink:href="#DejaVuSans-52" x="952.621094"/>
      <use xlink:href="#DejaVuSans-65" x="1017.603516"/>
      <use xlink:href="#DejaVuSans-77" x="1079.126953"/>
      <use xlink:href="#DejaVuSans-61" x="1160.914062"/>
      <use xlink:href="#DejaVuSans-72" x="1222.193359"/>
      <use xlink:href="#DejaVuSans-64" x="1261.556641"/>
     </g>
    </g>
    <g id="line2d_38">
     <path d="M 62.03 111.929062 
L 72.03 111.929062 
L 82.03 111.929062 
" style="fill: none; stroke: #8c564b; stroke-width: 1.5; stroke-linecap: square"/>
    </g>
    <g id="text_22">
     <!-- nan - Average Reward -->
     <g transform="translate(90.03 115.429062) scale(0.1 -0.1)">
      <use xlink:href="#DejaVuSans-6e"/>
      <use xlink:href="#DejaVuSans-61" x="63.378906"/>
      <use xlink:href="#DejaVuSans-6e" x="124.658203"/>
      <use xlink:href="#DejaVuSans-20" x="188.037109"/>
      <use xlink:href="#DejaVuSans-2d" x="219.824219"/>
      <use xlink:href="#DejaVuSans-20" x="255.908203"/>
      <use xlink:href="#DejaVuSans-41" x="287.695312"/>
      <use xlink:href="#DejaVuSans-76" x="350.228516"/>
      <use xlink:href="#DejaVuSans-65" x="409.408203"/>
      <use xlink:href="#DejaVuSans-72" x="470.931641"/>
      <use xlink:href="#DejaVuSans-61" x="512.044922"/>
      <use xlink:href="#DejaVuSans-67" x="573.324219"/>
      <use xlink:href="#DejaVuSans-65" x="636.800781"/>
      <use xlink:href="#DejaVuSans-20" x="698.324219"/>
      <use xlink:href="#DejaVuSans-52" x="730.111328"/>
      <use xlink:href="#DejaVuSans-65" x="795.09375"/>
      <use xlink:href="#DejaVuSans-77" x="856.617188"/>
      <use xlink:href="#DejaVuSans-61" x="938.404297"/>
      <use xlink:href="#DejaVuSans-72" x="999.683594"/>
      <use xlink:href="#DejaVuSans-64" x="1039.046875"/>
     </g>
    </g>
   </g>
  </g>
 </g>
 <defs>
  <clipPath id="p843466ab03">
   <rect x="53.03" y="25.44" width="656.17" height="364.6"/>
  </clipPath>
 </defs>
</svg>
