<?xml version="1.0" encoding="utf-8" standalone="no"?>
<!DOCTYPE svg PUBLIC "-//W3C//DTD SVG 1.1//EN"
  "http://www.w3.org/Graphics/SVG/1.1/DTD/svg11.dtd">
<svg xmlns:xlink="http://www.w3.org/1999/xlink" width="720pt" height="432pt" viewBox="0 0 720 432" xmlns="http://www.w3.org/2000/svg" version="1.1">
 <metadata>
  <rdf:RDF xmlns:dc="http://purl.org/dc/elements/1.1/" xmlns:cc="http://creativecommons.org/ns#" xmlns:rdf="http://www.w3.org/1999/02/22-rdf-syntax-ns#">
   <cc:Work>
    <dc:type rdf:resource="http://purl.org/dc/dcmitype/StillImage"/>
    <dc:date>2025-07-21T21:19:13.723407</dc:date>
    <dc:format>image/svg+xml</dc:format>
    <dc:creator>
     <cc:Agent>
      <dc:title>Matplotlib v3.8.0, https://matplotlib.org/</dc:title>
     </cc:Agent>
    </dc:creator>
   </cc:Work>
  </rdf:RDF>
 </metadata>
 <defs>
  <style type="text/css">*{stroke-linejoin: round; stroke-linecap: butt}</style>
 </defs>
 <g id="figure_1">
  <g id="patch_1">
   <path d="M 0 432 
L 720 432 
L 720 0 
L 0 0 
z
" style="fill: #ffffff"/>
  </g>
  <g id="axes_1">
   <g id="patch_2">
    <path d="M 90 384.48 
L 648 384.48 
L 648 51.84 
L 90 51.84 
z
" style="fill: #ffffff"/>
   </g>
   <g id="matplotlib.axis_1">
    <g id="xtick_1">
     <g id="line2d_1">
      <path d="M 115.363636 384.48 
L 115.363636 51.84 
" clip-path="url(#p51d650aec4)" style="fill: none; stroke: #b0b0b0; stroke-width: 0.8; stroke-linecap: square"/>
     </g>
     <g id="line2d_2">
      <defs>
       <path id="m6bd4eb779d" d="M 0 0 
L 0 3.5 
" style="stroke: #000000; stroke-width: 0.8"/>
      </defs>
      <g>
       <use xlink:href="#m6bd4eb779d" x="115.363636" y="384.48" style="stroke: #000000; stroke-width: 0.8"/>
      </g>
     </g>
     <g id="text_1">
      <!-- 0 -->
      <g transform="translate(112.182386 399.078438) scale(0.1 -0.1)">
       <defs>
        <path id="DejaVuSans-30" d="M 2034 4250 
Q 1547 4250 1301 3770 
Q 1056 3291 1056 2328 
Q 1056 1369 1301 889 
Q 1547 409 2034 409 
Q 2525 409 2770 889 
Q 3016 1369 3016 2328 
Q 3016 3291 2770 3770 
Q 2525 4250 2034 4250 
z
M 2034 4750 
Q 2819 4750 3233 4129 
Q 3647 3509 3647 2328 
Q 3647 1150 3233 529 
Q 2819 -91 2034 -91 
Q 1250 -91 836 529 
Q 422 1150 422 2328 
Q 422 3509 836 4129 
Q 1250 4750 2034 4750 
z
" transform="scale(0.015625)"/>
       </defs>
       <use xlink:href="#DejaVuSans-30"/>
      </g>
     </g>
    </g>
    <g id="xtick_2">
     <g id="line2d_3">
      <path d="M 189.353241 384.48 
L 189.353241 51.84 
" clip-path="url(#p51d650aec4)" style="fill: none; stroke: #b0b0b0; stroke-width: 0.8; stroke-linecap: square"/>
     </g>
     <g id="line2d_4">
      <g>
       <use xlink:href="#m6bd4eb779d" x="189.353241" y="384.48" style="stroke: #000000; stroke-width: 0.8"/>
      </g>
     </g>
     <g id="text_2">
      <!-- 500 -->
      <g transform="translate(179.809491 399.078438) scale(0.1 -0.1)">
       <defs>
        <path id="DejaVuSans-35" d="M 691 4666 
L 3169 4666 
L 3169 4134 
L 1269 4134 
L 1269 2991 
Q 1406 3038 1543 3061 
Q 1681 3084 1819 3084 
Q 2600 3084 3056 2656 
Q 3513 2228 3513 1497 
Q 3513 744 3044 326 
Q 2575 -91 1722 -91 
Q 1428 -91 1123 -41 
Q 819 9 494 109 
L 494 744 
Q 775 591 1075 516 
Q 1375 441 1709 441 
Q 2250 441 2565 725 
Q 2881 1009 2881 1497 
Q 2881 1984 2565 2268 
Q 2250 2553 1709 2553 
Q 1456 2553 1204 2497 
Q 953 2441 691 2322 
L 691 4666 
z
" transform="scale(0.015625)"/>
       </defs>
       <use xlink:href="#DejaVuSans-35"/>
       <use xlink:href="#DejaVuSans-30" x="63.623047"/>
       <use xlink:href="#DejaVuSans-30" x="127.246094"/>
      </g>
     </g>
    </g>
    <g id="xtick_3">
     <g id="line2d_5">
      <path d="M 263.342845 384.48 
L 263.342845 51.84 
" clip-path="url(#p51d650aec4)" style="fill: none; stroke: #b0b0b0; stroke-width: 0.8; stroke-linecap: square"/>
     </g>
     <g id="line2d_6">
      <g>
       <use xlink:href="#m6bd4eb779d" x="263.342845" y="384.48" style="stroke: #000000; stroke-width: 0.8"/>
      </g>
     </g>
     <g id="text_3">
      <!-- 1000 -->
      <g transform="translate(250.617845 399.078438) scale(0.1 -0.1)">
       <defs>
        <path id="DejaVuSans-31" d="M 794 531 
L 1825 531 
L 1825 4091 
L 703 3866 
L 703 4441 
L 1819 4666 
L 2450 4666 
L 2450 531 
L 3481 531 
L 3481 0 
L 794 0 
L 794 531 
z
" transform="scale(0.015625)"/>
       </defs>
       <use xlink:href="#DejaVuSans-31"/>
       <use xlink:href="#DejaVuSans-30" x="63.623047"/>
       <use xlink:href="#DejaVuSans-30" x="127.246094"/>
       <use xlink:href="#DejaVuSans-30" x="190.869141"/>
      </g>
     </g>
    </g>
    <g id="xtick_4">
     <g id="line2d_7">
      <path d="M 337.332449 384.48 
L 337.332449 51.84 
" clip-path="url(#p51d650aec4)" style="fill: none; stroke: #b0b0b0; stroke-width: 0.8; stroke-linecap: square"/>
     </g>
     <g id="line2d_8">
      <g>
       <use xlink:href="#m6bd4eb779d" x="337.332449" y="384.48" style="stroke: #000000; stroke-width: 0.8"/>
      </g>
     </g>
     <g id="text_4">
      <!-- 1500 -->
      <g transform="translate(324.607449 399.078438) scale(0.1 -0.1)">
       <use xlink:href="#DejaVuSans-31"/>
       <use xlink:href="#DejaVuSans-35" x="63.623047"/>
       <use xlink:href="#DejaVuSans-30" x="127.246094"/>
       <use xlink:href="#DejaVuSans-30" x="190.869141"/>
      </g>
     </g>
    </g>
    <g id="xtick_5">
     <g id="line2d_9">
      <path d="M 411.322054 384.48 
L 411.322054 51.84 
" clip-path="url(#p51d650aec4)" style="fill: none; stroke: #b0b0b0; stroke-width: 0.8; stroke-linecap: square"/>
     </g>
     <g id="line2d_10">
      <g>
       <use xlink:href="#m6bd4eb779d" x="411.322054" y="384.48" style="stroke: #000000; stroke-width: 0.8"/>
      </g>
     </g>
     <g id="text_5">
      <!-- 2000 -->
      <g transform="translate(398.597054 399.078438) scale(0.1 -0.1)">
       <defs>
        <path id="DejaVuSans-32" d="M 1228 531 
L 3431 531 
L 3431 0 
L 469 0 
L 469 531 
Q 828 903 1448 1529 
Q 2069 2156 2228 2338 
Q 2531 2678 2651 2914 
Q 2772 3150 2772 3378 
Q 2772 3750 2511 3984 
Q 2250 4219 1831 4219 
Q 1534 4219 1204 4116 
Q 875 4013 500 3803 
L 500 4441 
Q 881 4594 1212 4672 
Q 1544 4750 1819 4750 
Q 2544 4750 2975 4387 
Q 3406 4025 3406 3419 
Q 3406 3131 3298 2873 
Q 3191 2616 2906 2266 
Q 2828 2175 2409 1742 
Q 1991 1309 1228 531 
z
" transform="scale(0.015625)"/>
       </defs>
       <use xlink:href="#DejaVuSans-32"/>
       <use xlink:href="#DejaVuSans-30" x="63.623047"/>
       <use xlink:href="#DejaVuSans-30" x="127.246094"/>
       <use xlink:href="#DejaVuSans-30" x="190.869141"/>
      </g>
     </g>
    </g>
    <g id="xtick_6">
     <g id="line2d_11">
      <path d="M 485.311658 384.48 
L 485.311658 51.84 
" clip-path="url(#p51d650aec4)" style="fill: none; stroke: #b0b0b0; stroke-width: 0.8; stroke-linecap: square"/>
     </g>
     <g id="line2d_12">
      <g>
       <use xlink:href="#m6bd4eb779d" x="485.311658" y="384.48" style="stroke: #000000; stroke-width: 0.8"/>
      </g>
     </g>
     <g id="text_6">
      <!-- 2500 -->
      <g transform="translate(472.586658 399.078438) scale(0.1 -0.1)">
       <use xlink:href="#DejaVuSans-32"/>
       <use xlink:href="#DejaVuSans-35" x="63.623047"/>
       <use xlink:href="#DejaVuSans-30" x="127.246094"/>
       <use xlink:href="#DejaVuSans-30" x="190.869141"/>
      </g>
     </g>
    </g>
    <g id="xtick_7">
     <g id="line2d_13">
      <path d="M 559.301262 384.48 
L 559.301262 51.84 
" clip-path="url(#p51d650aec4)" style="fill: none; stroke: #b0b0b0; stroke-width: 0.8; stroke-linecap: square"/>
     </g>
     <g id="line2d_14">
      <g>
       <use xlink:href="#m6bd4eb779d" x="559.301262" y="384.48" style="stroke: #000000; stroke-width: 0.8"/>
      </g>
     </g>
     <g id="text_7">
      <!-- 3000 -->
      <g transform="translate(546.576262 399.078438) scale(0.1 -0.1)">
       <defs>
        <path id="DejaVuSans-33" d="M 2597 2516 
Q 3050 2419 3304 2112 
Q 3559 1806 3559 1356 
Q 3559 666 3084 287 
Q 2609 -91 1734 -91 
Q 1441 -91 1130 -33 
Q 819 25 488 141 
L 488 750 
Q 750 597 1062 519 
Q 1375 441 1716 441 
Q 2309 441 2620 675 
Q 2931 909 2931 1356 
Q 2931 1769 2642 2001 
Q 2353 2234 1838 2234 
L 1294 2234 
L 1294 2753 
L 1863 2753 
Q 2328 2753 2575 2939 
Q 2822 3125 2822 3475 
Q 2822 3834 2567 4026 
Q 2313 4219 1838 4219 
Q 1578 4219 1281 4162 
Q 984 4106 628 3988 
L 628 4550 
Q 988 4650 1302 4700 
Q 1616 4750 1894 4750 
Q 2613 4750 3031 4423 
Q 3450 4097 3450 3541 
Q 3450 3153 3228 2886 
Q 3006 2619 2597 2516 
z
" transform="scale(0.015625)"/>
       </defs>
       <use xlink:href="#DejaVuSans-33"/>
       <use xlink:href="#DejaVuSans-30" x="63.623047"/>
       <use xlink:href="#DejaVuSans-30" x="127.246094"/>
       <use xlink:href="#DejaVuSans-30" x="190.869141"/>
      </g>
     </g>
    </g>
    <g id="xtick_8">
     <g id="line2d_15">
      <path d="M 633.290867 384.48 
L 633.290867 51.84 
" clip-path="url(#p51d650aec4)" style="fill: none; stroke: #b0b0b0; stroke-width: 0.8; stroke-linecap: square"/>
     </g>
     <g id="line2d_16">
      <g>
       <use xlink:href="#m6bd4eb779d" x="633.290867" y="384.48" style="stroke: #000000; stroke-width: 0.8"/>
      </g>
     </g>
     <g id="text_8">
      <!-- 3500 -->
      <g transform="translate(620.565867 399.078438) scale(0.1 -0.1)">
       <use xlink:href="#DejaVuSans-33"/>
       <use xlink:href="#DejaVuSans-35" x="63.623047"/>
       <use xlink:href="#DejaVuSans-30" x="127.246094"/>
       <use xlink:href="#DejaVuSans-30" x="190.869141"/>
      </g>
     </g>
    </g>
    <g id="text_9">
     <!-- Hours -->
     <g transform="translate(354.351562 412.756563) scale(0.1 -0.1)">
      <defs>
       <path id="DejaVuSans-48" d="M 628 4666 
L 1259 4666 
L 1259 2753 
L 3553 2753 
L 3553 4666 
L 4184 4666 
L 4184 0 
L 3553 0 
L 3553 2222 
L 1259 2222 
L 1259 0 
L 628 0 
L 628 4666 
z
" transform="scale(0.015625)"/>
       <path id="DejaVuSans-6f" d="M 1959 3097 
Q 1497 3097 1228 2736 
Q 959 2375 959 1747 
Q 959 1119 1226 758 
Q 1494 397 1959 397 
Q 2419 397 2687 759 
Q 2956 1122 2956 1747 
Q 2956 2369 2687 2733 
Q 2419 3097 1959 3097 
z
M 1959 3584 
Q 2709 3584 3137 3096 
Q 3566 2609 3566 1747 
Q 3566 888 3137 398 
Q 2709 -91 1959 -91 
Q 1206 -91 779 398 
Q 353 888 353 1747 
Q 353 2609 779 3096 
Q 1206 3584 1959 3584 
z
" transform="scale(0.015625)"/>
       <path id="DejaVuSans-75" d="M 544 1381 
L 544 3500 
L 1119 3500 
L 1119 1403 
Q 1119 906 1312 657 
Q 1506 409 1894 409 
Q 2359 409 2629 706 
Q 2900 1003 2900 1516 
L 2900 3500 
L 3475 3500 
L 3475 0 
L 2900 0 
L 2900 538 
Q 2691 219 2414 64 
Q 2138 -91 1772 -91 
Q 1169 -91 856 284 
Q 544 659 544 1381 
z
M 1991 3584 
L 1991 3584 
z
" transform="scale(0.015625)"/>
       <path id="DejaVuSans-72" d="M 2631 2963 
Q 2534 3019 2420 3045 
Q 2306 3072 2169 3072 
Q 1681 3072 1420 2755 
Q 1159 2438 1159 1844 
L 1159 0 
L 581 0 
L 581 3500 
L 1159 3500 
L 1159 2956 
Q 1341 3275 1631 3429 
Q 1922 3584 2338 3584 
Q 2397 3584 2469 3576 
Q 2541 3569 2628 3553 
L 2631 2963 
z
" transform="scale(0.015625)"/>
       <path id="DejaVuSans-73" d="M 2834 3397 
L 2834 2853 
Q 2591 2978 2328 3040 
Q 2066 3103 1784 3103 
Q 1356 3103 1142 2972 
Q 928 2841 928 2578 
Q 928 2378 1081 2264 
Q 1234 2150 1697 2047 
L 1894 2003 
Q 2506 1872 2764 1633 
Q 3022 1394 3022 966 
Q 3022 478 2636 193 
Q 2250 -91 1575 -91 
Q 1294 -91 989 -36 
Q 684 19 347 128 
L 347 722 
Q 666 556 975 473 
Q 1284 391 1588 391 
Q 1994 391 2212 530 
Q 2431 669 2431 922 
Q 2431 1156 2273 1281 
Q 2116 1406 1581 1522 
L 1381 1569 
Q 847 1681 609 1914 
Q 372 2147 372 2553 
Q 372 3047 722 3315 
Q 1072 3584 1716 3584 
Q 2034 3584 2315 3537 
Q 2597 3491 2834 3397 
z
" transform="scale(0.015625)"/>
      </defs>
      <use xlink:href="#DejaVuSans-48"/>
      <use xlink:href="#DejaVuSans-6f" x="75.195312"/>
      <use xlink:href="#DejaVuSans-75" x="136.376953"/>
      <use xlink:href="#DejaVuSans-72" x="199.755859"/>
      <use xlink:href="#DejaVuSans-73" x="240.869141"/>
     </g>
    </g>
   </g>
   <g id="matplotlib.axis_2">
    <g id="ytick_1">
     <g id="line2d_17">
      <path d="M 90 353.002909 
L 648 353.002909 
" clip-path="url(#p51d650aec4)" style="fill: none; stroke: #b0b0b0; stroke-width: 0.8; stroke-linecap: square"/>
     </g>
     <g id="line2d_18">
      <defs>
       <path id="m2fa745bd26" d="M 0 0 
L -3.5 0 
" style="stroke: #000000; stroke-width: 0.8"/>
      </defs>
      <g>
       <use xlink:href="#m2fa745bd26" x="90" y="353.002909" style="stroke: #000000; stroke-width: 0.8"/>
      </g>
     </g>
     <g id="text_10">
      <!-- −10 -->
      <g transform="translate(61.895313 356.802128) scale(0.1 -0.1)">
       <defs>
        <path id="DejaVuSans-2212" d="M 678 2272 
L 4684 2272 
L 4684 1741 
L 678 1741 
L 678 2272 
z
" transform="scale(0.015625)"/>
       </defs>
       <use xlink:href="#DejaVuSans-2212"/>
       <use xlink:href="#DejaVuSans-31" x="83.789062"/>
       <use xlink:href="#DejaVuSans-30" x="147.412109"/>
      </g>
     </g>
    </g>
    <g id="ytick_2">
     <g id="line2d_19">
      <path d="M 90 303.912 
L 648 303.912 
" clip-path="url(#p51d650aec4)" style="fill: none; stroke: #b0b0b0; stroke-width: 0.8; stroke-linecap: square"/>
     </g>
     <g id="line2d_20">
      <g>
       <use xlink:href="#m2fa745bd26" x="90" y="303.912" style="stroke: #000000; stroke-width: 0.8"/>
      </g>
     </g>
     <g id="text_11">
      <!-- −5 -->
      <g transform="translate(68.257812 307.711219) scale(0.1 -0.1)">
       <use xlink:href="#DejaVuSans-2212"/>
       <use xlink:href="#DejaVuSans-35" x="83.789062"/>
      </g>
     </g>
    </g>
    <g id="ytick_3">
     <g id="line2d_21">
      <path d="M 90 254.821091 
L 648 254.821091 
" clip-path="url(#p51d650aec4)" style="fill: none; stroke: #b0b0b0; stroke-width: 0.8; stroke-linecap: square"/>
     </g>
     <g id="line2d_22">
      <g>
       <use xlink:href="#m2fa745bd26" x="90" y="254.821091" style="stroke: #000000; stroke-width: 0.8"/>
      </g>
     </g>
     <g id="text_12">
      <!-- 0 -->
      <g transform="translate(76.6375 258.62031) scale(0.1 -0.1)">
       <use xlink:href="#DejaVuSans-30"/>
      </g>
     </g>
    </g>
    <g id="ytick_4">
     <g id="line2d_23">
      <path d="M 90 205.730182 
L 648 205.730182 
" clip-path="url(#p51d650aec4)" style="fill: none; stroke: #b0b0b0; stroke-width: 0.8; stroke-linecap: square"/>
     </g>
     <g id="line2d_24">
      <g>
       <use xlink:href="#m2fa745bd26" x="90" y="205.730182" style="stroke: #000000; stroke-width: 0.8"/>
      </g>
     </g>
     <g id="text_13">
      <!-- 5 -->
      <g transform="translate(76.6375 209.529401) scale(0.1 -0.1)">
       <use xlink:href="#DejaVuSans-35"/>
      </g>
     </g>
    </g>
    <g id="ytick_5">
     <g id="line2d_25">
      <path d="M 90 156.639273 
L 648 156.639273 
" clip-path="url(#p51d650aec4)" style="fill: none; stroke: #b0b0b0; stroke-width: 0.8; stroke-linecap: square"/>
     </g>
     <g id="line2d_26">
      <g>
       <use xlink:href="#m2fa745bd26" x="90" y="156.639273" style="stroke: #000000; stroke-width: 0.8"/>
      </g>
     </g>
     <g id="text_14">
      <!-- 10 -->
      <g transform="translate(70.275 160.438491) scale(0.1 -0.1)">
       <use xlink:href="#DejaVuSans-31"/>
       <use xlink:href="#DejaVuSans-30" x="63.623047"/>
      </g>
     </g>
    </g>
    <g id="ytick_6">
     <g id="line2d_27">
      <path d="M 90 107.548364 
L 648 107.548364 
" clip-path="url(#p51d650aec4)" style="fill: none; stroke: #b0b0b0; stroke-width: 0.8; stroke-linecap: square"/>
     </g>
     <g id="line2d_28">
      <g>
       <use xlink:href="#m2fa745bd26" x="90" y="107.548364" style="stroke: #000000; stroke-width: 0.8"/>
      </g>
     </g>
     <g id="text_15">
      <!-- 15 -->
      <g transform="translate(70.275 111.347582) scale(0.1 -0.1)">
       <use xlink:href="#DejaVuSans-31"/>
       <use xlink:href="#DejaVuSans-35" x="63.623047"/>
      </g>
     </g>
    </g>
    <g id="ytick_7">
     <g id="line2d_29">
      <path d="M 90 58.457455 
L 648 58.457455 
" clip-path="url(#p51d650aec4)" style="fill: none; stroke: #b0b0b0; stroke-width: 0.8; stroke-linecap: square"/>
     </g>
     <g id="line2d_30">
      <g>
       <use xlink:href="#m2fa745bd26" x="90" y="58.457455" style="stroke: #000000; stroke-width: 0.8"/>
      </g>
     </g>
     <g id="text_16">
      <!-- 20 -->
      <g transform="translate(70.275 62.256673) scale(0.1 -0.1)">
       <use xlink:href="#DejaVuSans-32"/>
       <use xlink:href="#DejaVuSans-30" x="63.623047"/>
      </g>
     </g>
    </g>
    <g id="text_17">
     <!-- Power [kW] -->
     <g transform="translate(55.815625 246.60375) rotate(-90) scale(0.1 -0.1)">
      <defs>
       <path id="DejaVuSans-50" d="M 1259 4147 
L 1259 2394 
L 2053 2394 
Q 2494 2394 2734 2622 
Q 2975 2850 2975 3272 
Q 2975 3691 2734 3919 
Q 2494 4147 2053 4147 
L 1259 4147 
z
M 628 4666 
L 2053 4666 
Q 2838 4666 3239 4311 
Q 3641 3956 3641 3272 
Q 3641 2581 3239 2228 
Q 2838 1875 2053 1875 
L 1259 1875 
L 1259 0 
L 628 0 
L 628 4666 
z
" transform="scale(0.015625)"/>
       <path id="DejaVuSans-77" d="M 269 3500 
L 844 3500 
L 1563 769 
L 2278 3500 
L 2956 3500 
L 3675 769 
L 4391 3500 
L 4966 3500 
L 4050 0 
L 3372 0 
L 2619 2869 
L 1863 0 
L 1184 0 
L 269 3500 
z
" transform="scale(0.015625)"/>
       <path id="DejaVuSans-65" d="M 3597 1894 
L 3597 1613 
L 953 1613 
Q 991 1019 1311 708 
Q 1631 397 2203 397 
Q 2534 397 2845 478 
Q 3156 559 3463 722 
L 3463 178 
Q 3153 47 2828 -22 
Q 2503 -91 2169 -91 
Q 1331 -91 842 396 
Q 353 884 353 1716 
Q 353 2575 817 3079 
Q 1281 3584 2069 3584 
Q 2775 3584 3186 3129 
Q 3597 2675 3597 1894 
z
M 3022 2063 
Q 3016 2534 2758 2815 
Q 2500 3097 2075 3097 
Q 1594 3097 1305 2825 
Q 1016 2553 972 2059 
L 3022 2063 
z
" transform="scale(0.015625)"/>
       <path id="DejaVuSans-20" transform="scale(0.015625)"/>
       <path id="DejaVuSans-5b" d="M 550 4863 
L 1875 4863 
L 1875 4416 
L 1125 4416 
L 1125 -397 
L 1875 -397 
L 1875 -844 
L 550 -844 
L 550 4863 
z
" transform="scale(0.015625)"/>
       <path id="DejaVuSans-6b" d="M 581 4863 
L 1159 4863 
L 1159 1991 
L 2875 3500 
L 3609 3500 
L 1753 1863 
L 3688 0 
L 2938 0 
L 1159 1709 
L 1159 0 
L 581 0 
L 581 4863 
z
" transform="scale(0.015625)"/>
       <path id="DejaVuSans-57" d="M 213 4666 
L 850 4666 
L 1831 722 
L 2809 4666 
L 3519 4666 
L 4500 722 
L 5478 4666 
L 6119 4666 
L 4947 0 
L 4153 0 
L 3169 4050 
L 2175 0 
L 1381 0 
L 213 4666 
z
" transform="scale(0.015625)"/>
       <path id="DejaVuSans-5d" d="M 1947 4863 
L 1947 -844 
L 622 -844 
L 622 -397 
L 1369 -397 
L 1369 4416 
L 622 4416 
L 622 4863 
L 1947 4863 
z
" transform="scale(0.015625)"/>
      </defs>
      <use xlink:href="#DejaVuSans-50"/>
      <use xlink:href="#DejaVuSans-6f" x="56.677734"/>
      <use xlink:href="#DejaVuSans-77" x="117.859375"/>
      <use xlink:href="#DejaVuSans-65" x="199.646484"/>
      <use xlink:href="#DejaVuSans-72" x="261.169922"/>
      <use xlink:href="#DejaVuSans-20" x="302.283203"/>
      <use xlink:href="#DejaVuSans-5b" x="334.070312"/>
      <use xlink:href="#DejaVuSans-6b" x="373.083984"/>
      <use xlink:href="#DejaVuSans-57" x="430.994141"/>
      <use xlink:href="#DejaVuSans-5d" x="529.871094"/>
     </g>
    </g>
   </g>
   <g id="patch_3">
    <path d="M 90 384.48 
L 90 51.84 
" style="fill: none; stroke: #000000; stroke-width: 0.8; stroke-linejoin: miter; stroke-linecap: square"/>
   </g>
   <g id="patch_4">
    <path d="M 648 384.48 
L 648 51.84 
" style="fill: none; stroke: #000000; stroke-width: 0.8; stroke-linejoin: miter; stroke-linecap: square"/>
   </g>
   <g id="patch_5">
    <path d="M 90 384.48 
L 648 384.48 
" style="fill: none; stroke: #000000; stroke-width: 0.8; stroke-linejoin: miter; stroke-linecap: square"/>
   </g>
   <g id="patch_6">
    <path d="M 90 51.84 
L 648 51.84 
" style="fill: none; stroke: #000000; stroke-width: 0.8; stroke-linejoin: miter; stroke-linecap: square"/>
   </g>
   <g id="line2d_31">
    <path d="M 115.363636 254.821091 
L 116.695449 254.821091 
L 116.843428 300.652364 
L 117.139387 254.821091 
L 122.762597 254.821091 
L 122.910576 369.36 
L 123.058555 254.821091 
L 125.574202 254.821091 
L 125.722181 246.642545 
L 127.053994 246.642545 
L 127.201973 254.821091 
L 137.11658 254.821091 
L 137.264559 222.087273 
L 137.412538 254.821091 
L 137.560518 261.369818 
L 137.708497 254.821091 
L 146.291291 254.821091 
L 146.43927 205.730182 
L 146.587249 254.821091 
L 146.735229 254.821091 
L 146.883208 205.730182 
L 147.031187 254.821091 
L 147.179166 205.730182 
L 147.327145 254.821091 
L 147.475125 205.730182 
L 147.623104 254.821091 
L 147.771083 205.730182 
L 147.919062 251.561455 
L 149.250875 251.561455 
L 149.398854 254.821091 
L 156.649836 254.821091 
L 156.797815 189.373091 
L 158.129628 189.373091 
L 158.277607 254.821091 
L 158.425586 235.204364 
L 159.60942 235.204364 
L 159.757399 254.821091 
L 168.192214 254.821091 
L 168.340193 172.996364 
L 168.488172 254.821091 
L 169.967964 254.821091 
L 170.115944 259.720364 
L 170.263923 254.821091 
L 177.514904 254.821091 
L 177.662883 156.639273 
L 177.810862 254.821091 
L 177.958842 156.639273 
L 178.106821 254.821091 
L 178.2548 156.639273 
L 178.402779 254.821091 
L 178.550758 156.639273 
L 178.698738 254.821091 
L 178.846717 156.639273 
L 178.994696 254.821091 
L 181.806301 254.821091 
L 181.95428 274.457455 
L 182.102259 254.821091 
L 182.250239 274.457455 
L 182.398218 254.821091 
L 182.546197 274.457455 
L 182.694176 254.821091 
L 182.842156 274.457455 
L 182.990135 254.821091 
L 183.138114 274.457455 
L 183.286093 254.821091 
L 183.434072 297.373091 
L 183.582052 254.821091 
L 183.730031 297.373091 
L 183.87801 254.821091 
L 184.025989 297.373091 
L 184.173968 254.821091 
L 184.321948 297.373091 
L 184.469927 254.821091 
L 184.617906 297.373091 
L 184.765885 254.821091 
L 187.873449 254.821091 
L 188.021428 245.984727 
L 188.169407 245.002909 
L 188.317386 245.002909 
L 188.465365 245.984727 
L 189.205261 254.821091 
L 198.379972 254.821091 
L 198.527952 222.754909 
L 198.675931 254.821091 
L 198.82391 254.821091 
L 198.971889 218.827636 
L 199.119868 254.821091 
L 199.267848 224.718545 
L 199.415827 254.821091 
L 199.563806 234.536727 
L 199.711785 254.821091 
L 201.043598 254.821091 
L 201.191577 300.632727 
L 201.339557 254.821091 
L 208.590538 254.821091 
L 208.738517 218.16 
L 208.886496 254.821091 
L 209.034475 210.305455 
L 209.182455 254.821091 
L 209.330434 204.414545 
L 209.478413 254.821091 
L 209.626392 202.450909 
L 209.774371 254.821091 
L 209.922351 254.821091 
L 210.07033 261.369818 
L 210.218309 254.821091 
L 218.949082 254.821091 
L 219.097062 205.730182 
L 219.245041 254.821091 
L 219.39302 201.802909 
L 219.540999 254.821091 
L 219.688978 193.948364 
L 219.836958 254.821091 
L 219.984937 188.057455 
L 220.132916 254.821091 
L 220.280895 186.093818 
L 220.428875 253.191273 
L 220.576854 251.561455 
L 221.760687 251.561455 
L 221.908667 254.821091 
L 229.307627 254.821091 
L 229.455606 189.373091 
L 229.603585 254.821091 
L 229.751565 189.373091 
L 229.899544 254.821091 
L 230.047523 185.445818 
L 230.195502 254.821091 
L 230.343481 254.821091 
L 230.491461 173.664 
L 230.63944 254.821091 
L 231.527315 254.821091 
L 231.675294 235.204364 
L 232.119232 235.204364 
L 232.267211 254.821091 
L 239.666172 254.821091 
L 239.814151 172.996364 
L 239.96213 254.821091 
L 240.110109 172.996364 
L 240.258088 254.821091 
L 240.406068 172.996364 
L 240.554047 254.821091 
L 240.702026 169.069091 
L 240.850005 254.821091 
L 240.997985 161.214545 
L 241.145964 254.821091 
L 242.477777 254.821091 
L 242.625756 259.720364 
L 242.773735 254.821091 
L 244.401506 254.821091 
L 244.549486 282.636 
L 245.437361 282.636 
L 245.58534 254.821091 
L 250.024716 254.821091 
L 250.172695 156.639273 
L 250.320675 254.821091 
L 250.468654 156.639273 
L 250.616633 254.821091 
L 250.764612 156.639273 
L 250.912591 254.821091 
L 251.060571 156.639273 
L 251.20855 254.821091 
L 251.356529 152.712 
L 251.504508 254.821091 
L 254.316113 254.821091 
L 254.464093 274.457455 
L 254.612072 254.821091 
L 254.760051 274.457455 
L 254.90803 254.821091 
L 255.056009 274.457455 
L 255.203989 254.821091 
L 255.351968 274.457455 
L 255.499947 254.821091 
L 255.943885 254.821091 
L 256.091864 297.373091 
L 256.239843 254.821091 
L 256.387822 297.373091 
L 256.535801 254.821091 
L 256.683781 297.373091 
L 256.83176 254.821091 
L 256.979739 297.373091 
L 257.127718 254.821091 
L 270.593826 254.821091 
L 270.741805 246.642545 
L 272.073618 246.642545 
L 272.221598 254.821091 
L 281.248329 254.821091 
L 281.396308 222.087273 
L 281.692267 222.087273 
L 281.988225 254.821091 
L 282.284184 254.821091 
L 282.432163 222.087273 
L 282.580142 254.821091 
L 283.468017 254.821091 
L 283.763976 236.500364 
L 283.911955 232.573091 
L 284.059934 254.821091 
L 291.458895 254.821091 
L 291.606874 178.239273 
L 291.754853 254.821091 
L 291.902832 226.348364 
L 292.050811 254.821091 
L 292.198791 205.730182 
L 292.34677 254.821091 
L 292.494749 205.730182 
L 292.642728 254.821091 
L 292.790708 205.730182 
L 292.938687 254.821091 
L 293.086666 251.561455 
L 294.12252 251.561455 
L 294.418479 260.378182 
L 294.566458 254.821091 
L 301.817439 254.821091 
L 301.965418 150.100364 
L 302.113398 254.821091 
L 302.261377 161.882182 
L 302.409356 254.821091 
L 302.557335 189.373091 
L 302.705315 254.821091 
L 302.853294 189.373091 
L 303.001273 254.821091 
L 303.149252 189.373091 
L 303.297231 254.821091 
L 303.445211 235.204364 
L 304.333086 235.204364 
L 304.481065 254.821091 
L 304.629044 254.821091 
L 304.777023 267.908727 
L 304.925003 256.126909 
L 305.072982 254.821091 
L 307.29267 254.821091 
L 307.440649 290.824364 
L 307.588628 254.821091 
L 312.175984 254.821091 
L 312.323963 137.650909 
L 312.471942 254.821091 
L 312.619922 133.723636 
L 312.767901 254.821091 
L 312.91588 145.505455 
L 313.063859 254.821091 
L 313.211838 172.996364 
L 313.359818 254.821091 
L 313.507797 172.996364 
L 313.655776 254.821091 
L 314.987589 254.821091 
L 315.135568 259.720364 
L 315.283547 254.821091 
L 315.431526 264.619636 
L 315.579506 254.821091 
L 316.467381 254.821091 
L 316.61536 282.636 
L 316.763339 254.821091 
L 322.534528 254.821091 
L 322.682508 133.075636 
L 322.830487 254.821091 
L 322.978466 121.293818 
L 323.126445 254.821091 
L 323.274425 117.366545 
L 323.422404 254.821091 
L 323.570383 129.148364 
L 323.718362 254.821091 
L 323.866341 156.639273 
L 324.014321 254.821091 
L 326.825926 254.821091 
L 326.973905 256.784727 
L 327.121884 254.821091 
L 327.269863 274.457455 
L 327.417842 254.821091 
L 327.565822 274.457455 
L 327.713801 254.821091 
L 327.86178 274.457455 
L 328.009759 254.821091 
L 328.157738 274.457455 
L 328.305718 254.821091 
L 328.453697 297.373091 
L 328.601676 254.821091 
L 328.749655 297.373091 
L 328.897634 254.821091 
L 329.045614 297.373091 
L 329.193593 254.821091 
L 329.341572 297.373091 
L 329.489551 254.821091 
L 329.63753 297.373091 
L 329.78551 254.821091 
L 332.745094 254.821091 
L 332.893073 251.875636 
L 333.041052 254.821091 
L 333.48499 254.821091 
L 333.632969 201.802909 
L 333.780948 254.821091 
L 333.928928 195.912 
L 334.076907 254.821091 
L 334.224886 213.584727 
L 334.372865 265.954909 
L 334.520844 254.821091 
L 343.103638 254.821091 
L 343.251618 246.642545 
L 343.547576 246.642545 
L 343.695555 254.821091 
L 343.843535 254.821091 
L 343.991514 203.118545 
L 344.139493 254.821091 
L 344.287472 185.445818 
L 344.435451 254.821091 
L 344.583431 179.554909 
L 344.73141 254.821091 
L 346.063223 254.821091 
L 346.211202 300.632727 
L 346.359181 254.821091 
L 353.610162 254.821091 
L 353.758142 222.087273 
L 354.0541 254.821091 
L 354.202079 222.087273 
L 354.498038 254.821091 
L 354.646017 186.741818 
L 354.793996 254.821091 
L 354.941975 169.069091 
L 355.089954 254.821091 
L 355.533892 254.821091 
L 355.681871 244.354909 
L 355.82985 254.821091 
L 363.968707 254.821091 
L 364.116686 205.730182 
L 364.264665 254.821091 
L 364.412645 205.730182 
L 364.560624 254.821091 
L 364.708603 205.730182 
L 364.856582 254.821091 
L 365.004561 205.730182 
L 365.152541 254.821091 
L 365.30052 170.384727 
L 365.448499 254.821091 
L 366.336374 254.821091 
L 366.484353 251.561455 
L 366.780312 251.561455 
L 366.928291 254.821091 
L 374.327252 254.821091 
L 374.475231 189.373091 
L 374.62321 254.821091 
L 374.771189 189.373091 
L 374.919168 254.821091 
L 375.067148 189.373091 
L 375.215127 254.821091 
L 375.363106 189.373091 
L 375.511085 254.821091 
L 375.659064 189.373091 
L 375.807044 254.821091 
L 384.685796 254.821091 
L 384.833775 172.996364 
L 384.981755 254.821091 
L 385.129734 172.996364 
L 385.277713 254.821091 
L 385.425692 172.996364 
L 385.573671 254.821091 
L 385.721651 172.996364 
L 385.86963 254.821091 
L 386.017609 172.996364 
L 386.165588 254.821091 
L 387.64538 254.821091 
L 387.793359 264.619636 
L 387.941339 254.821091 
L 389.717089 254.821091 
L 389.865068 282.636 
L 390.309006 254.821091 
L 390.456985 254.821091 
L 390.604964 276.097091 
L 390.752944 254.821091 
L 391.048902 254.821091 
L 391.196881 293.769818 
L 391.344861 254.821091 
L 395.044341 254.821091 
L 395.19232 156.639273 
L 395.340299 254.821091 
L 395.488278 156.639273 
L 395.636258 254.821091 
L 395.784237 156.639273 
L 395.932216 254.821091 
L 396.080195 156.639273 
L 396.228174 254.821091 
L 396.376154 156.639273 
L 396.524133 254.821091 
L 396.820091 254.821091 
L 396.96807 202.470545 
L 397.11605 254.821091 
L 399.335738 254.821091 
L 399.483717 274.457455 
L 399.631696 254.821091 
L 399.779675 274.457455 
L 399.927655 254.821091 
L 400.075634 274.457455 
L 400.223613 254.821091 
L 400.371592 274.457455 
L 400.519571 254.821091 
L 401.851384 254.821091 
L 401.999364 297.373091 
L 402.147343 254.821091 
L 402.295322 297.373091 
L 402.443301 254.821091 
L 402.59128 320.269091 
L 402.73926 254.821091 
L 402.887239 320.269091 
L 403.035218 254.821091 
L 407.770553 254.821091 
L 407.918532 253.525091 
L 408.066511 237.816 
L 408.36247 261.36 
L 408.510449 254.821091 
L 415.76143 254.821091 
L 415.909409 183.482182 
L 416.057388 254.821091 
L 416.205368 238.464 
L 417.093243 238.464 
L 417.241222 277.736727 
L 417.389201 254.821091 
L 418.425056 254.821091 
L 418.573035 253.525091 
L 418.721014 254.821091 
L 426.119975 254.821091 
L 426.267954 143.541818 
L 426.415933 254.821091 
L 426.563912 167.105455 
L 426.711891 254.821091 
L 426.859871 222.087273 
L 427.00785 254.821091 
L 427.155829 222.087273 
L 427.303808 254.821091 
L 427.451787 222.087273 
L 427.599767 254.821091 
L 436.478519 254.821091 
L 436.626498 135.039273 
L 436.774478 254.821091 
L 436.922457 127.184727 
L 437.070436 254.821091 
L 437.218415 150.748364 
L 437.366394 254.821091 
L 437.514374 205.730182 
L 437.662353 254.821091 
L 437.810332 205.730182 
L 437.958311 254.821091 
L 438.10629 251.561455 
L 439.290124 251.561455 
L 439.438103 254.821091 
L 446.837064 254.821091 
L 446.985043 142.245818 
L 447.133022 254.821091 
L 447.281001 118.682182 
L 447.428981 254.821091 
L 447.57696 110.827636 
L 447.724939 254.821091 
L 447.872918 134.391273 
L 448.020897 254.821091 
L 448.168877 189.373091 
L 448.316856 254.821091 
L 448.464835 235.204364 
L 448.612814 245.012727 
L 448.760793 235.204364 
L 448.908773 245.012727 
L 449.056752 235.204364 
L 449.204731 245.012727 
L 449.35271 235.204364 
L 449.50069 245.012727 
L 449.648669 235.204364 
L 449.796648 254.821091 
L 451.128461 254.821091 
L 451.27644 255.478909 
L 451.424419 254.821091 
L 451.572398 275.115273 
L 451.720378 254.821091 
L 457.195608 254.821091 
L 457.343588 172.996364 
L 457.491567 254.821091 
L 457.639546 125.869091 
L 457.787525 254.821091 
L 457.935504 102.305455 
L 458.083484 254.821091 
L 458.231463 94.450909 
L 458.379442 254.821091 
L 458.527421 118.014545 
L 458.6754 254.821091 
L 460.007213 254.821091 
L 460.155193 259.720364 
L 460.303172 254.821091 
L 460.747109 254.821091 
L 460.895089 264.619636 
L 461.043068 254.821091 
L 461.487005 254.821091 
L 461.782964 231.905455 
L 461.930943 239.76 
L 462.226901 266.926909 
L 462.374881 254.821091 
L 467.554153 254.821091 
L 467.702132 156.639273 
L 467.850111 254.821091 
L 467.998091 156.639273 
L 468.14607 254.821091 
L 468.294049 109.512 
L 468.442028 254.821091 
L 468.590007 85.948364 
L 468.737987 254.821091 
L 468.885966 78.093818 
L 469.033945 254.821091 
L 471.84555 254.821091 
L 472.437467 215.548364 
L 472.585446 223.402909 
L 473.029384 274.457455 
L 473.177363 254.821091 
L 473.325342 274.457455 
L 473.473321 254.821091 
L 473.621301 297.373091 
L 473.76928 254.821091 
L 473.917259 297.373091 
L 474.065238 254.821091 
L 474.213217 297.373091 
L 474.361197 254.821091 
L 474.509176 297.373091 
L 474.657155 254.821091 
L 474.805134 297.373091 
L 474.953113 254.821091 
L 475.101093 320.269091 
L 475.249072 254.821091 
L 478.948552 254.821091 
L 479.096531 176.275636 
L 479.24451 254.821091 
L 488.123263 254.821091 
L 488.271242 246.642545 
L 489.011138 246.642545 
L 489.159117 254.821091 
L 489.455076 254.821091 
L 489.603055 179.554909 
L 489.751034 254.821091 
L 499.81362 254.821091 
L 499.9616 222.087273 
L 500.109579 254.821091 
L 500.997454 254.821091 
L 501.145433 267.918545 
L 501.293413 254.821091 
L 501.441392 254.821091 
L 501.589371 284.265818 
L 501.73735 254.821091 
L 508.988331 254.821091 
L 509.136311 205.730182 
L 509.28429 254.821091 
L 509.432269 205.730182 
L 509.580248 254.821091 
L 509.728227 205.730182 
L 509.876207 254.821091 
L 510.024186 205.730182 
L 510.172165 254.821091 
L 510.320144 205.730182 
L 510.468123 251.561455 
L 510.616103 254.821091 
L 511.799936 254.821091 
L 511.947916 256.450909 
L 512.095895 254.821091 
L 519.346876 254.821091 
L 519.494855 189.373091 
L 519.642834 254.821091 
L 519.790814 189.373091 
L 519.938793 254.821091 
L 520.086772 189.373091 
L 520.234751 254.821091 
L 520.38273 189.373091 
L 520.53071 254.821091 
L 520.678689 189.373091 
L 520.826668 254.821091 
L 520.974647 235.204364 
L 521.122626 254.821091 
L 529.705421 254.821091 
L 529.8534 172.996364 
L 530.149358 254.821091 
L 530.297337 172.996364 
L 530.593296 254.821091 
L 530.741275 172.996364 
L 531.037233 254.821091 
L 533.256922 254.821091 
L 533.404901 264.619636 
L 533.55288 254.821091 
L 535.180651 254.821091 
L 535.328631 282.636 
L 535.47661 282.636 
L 535.624589 285.915273 
L 535.772568 254.821091 
L 536.808423 254.821091 
L 536.956402 305.551636 
L 537.104381 254.821091 
L 540.063965 254.821091 
L 540.211944 87.912 
L 540.359924 254.821091 
L 540.507903 156.639273 
L 540.655882 254.821091 
L 540.803861 156.639273 
L 540.95184 254.821091 
L 541.09982 156.639273 
L 541.247799 254.821091 
L 541.395778 156.639273 
L 541.543757 254.821091 
L 544.355362 254.821091 
L 544.503341 274.457455 
L 544.651321 254.821091 
L 544.7993 274.457455 
L 544.947279 254.821091 
L 545.095258 274.457455 
L 545.243238 254.821091 
L 545.391217 274.457455 
L 545.539196 254.821091 
L 545.687175 274.457455 
L 545.835154 254.821091 
L 545.983134 297.373091 
L 546.131113 254.821091 
L 546.57505 254.821091 
L 546.72303 251.561455 
L 546.871009 241.743273 
L 547.018988 241.743273 
L 547.314946 254.821091 
L 547.610905 254.821091 
L 547.758884 320.269091 
L 547.906863 254.821091 
L 548.054842 320.269091 
L 548.202822 254.821091 
L 548.350801 320.269091 
L 548.49878 254.821091 
L 548.646759 320.269091 
L 548.794739 254.821091 
L 548.942718 343.184727 
L 549.090697 254.821091 
L 550.42251 254.821091 
L 550.570489 137.002909 
L 550.718468 254.821091 
L 550.866447 172.348364 
L 551.014427 254.821091 
L 561.077013 254.821091 
L 561.224992 120.645818 
L 561.372971 254.821091 
L 561.52095 155.991273 
L 561.66893 254.821091 
L 564.924472 254.821091 
L 565.072451 263.971636 
L 565.220431 254.821091 
L 571.139599 254.821091 
L 571.287578 151.396364 
L 571.435557 254.821091 
L 571.583537 116.050909 
L 571.731516 254.821091 
L 571.879495 104.269091 
L 572.027474 254.821091 
L 572.175453 139.614545 
L 572.323433 254.821091 
L 572.471412 198.523636 
L 572.619391 254.821091 
L 575.430996 254.821091 
L 575.578975 254.163273 
L 575.726954 254.821091 
L 581.646123 254.821091 
L 581.794102 158.602909 
L 581.942081 254.821091 
L 582.09006 111.475636 
L 582.23804 254.821091 
L 582.386019 87.912 
L 582.533998 254.821091 
L 582.681977 99.693818 
L 582.829957 254.821091 
L 583.125915 254.821091 
L 583.273894 251.561455 
L 584.309749 251.561455 
L 584.457728 254.821091 
L 585.789541 254.821091 
L 586.085499 225.366545 
L 586.381458 254.821091 
L 586.529437 275.439273 
L 586.677416 254.821091 
L 592.004667 254.821091 
L 592.152647 189.373091 
L 592.300626 254.821091 
L 592.448605 142.245818 
L 592.596584 254.821091 
L 592.744563 95.118545 
L 592.892543 254.821091 
L 593.040522 71.554909 
L 593.188501 254.821091 
L 593.780418 254.821091 
L 593.928397 235.204364 
L 594.076376 235.204364 
L 594.224356 245.012727 
L 594.372335 235.204364 
L 594.520314 245.012727 
L 594.668293 235.204364 
L 594.816272 254.821091 
L 596.148085 254.821091 
L 596.296064 243.697091 
L 596.592023 209.009455 
L 596.740002 209.009455 
L 596.887981 220.791273 
L 597.18394 267.260727 
L 597.331919 254.821091 
L 602.215233 254.821091 
L 602.363212 172.996364 
L 602.511191 254.821091 
L 602.65917 172.996364 
L 602.80715 254.821091 
L 602.955129 149.432727 
L 603.103108 254.821091 
L 603.251087 102.305455 
L 603.399067 254.821091 
L 603.547046 66.96 
L 603.695025 254.821091 
L 605.026838 254.821091 
L 605.174817 264.619636 
L 605.322796 254.821091 
L 606.210671 254.821091 
L 606.358651 264.619636 
L 606.50663 254.821091 
L 606.654609 259.072364 
L 607.246526 192.632727 
L 607.394505 192.632727 
L 607.542484 204.414545 
L 607.986422 270.854182 
L 608.134401 254.821091 
L 612.573777 254.821091 
L 612.721757 156.639273 
L 612.869736 254.821091 
L 613.017715 156.639273 
L 613.165694 254.821091 
L 613.313673 156.639273 
L 613.461653 254.821091 
L 613.609632 133.075636 
L 613.757611 254.821091 
L 613.90559 85.948364 
L 614.05357 254.821091 
L 616.865174 254.821091 
L 617.013154 274.457455 
L 617.75305 188.057455 
L 617.901029 176.275636 
L 618.049008 176.275636 
L 618.196987 188.057455 
L 618.344967 211.621091 
L 618.492946 254.821091 
L 618.640925 254.821091 
L 618.788904 297.373091 
L 618.936883 254.821091 
L 619.084863 297.373091 
L 619.232842 254.821091 
L 619.380821 297.373091 
L 619.5288 254.821091 
L 619.676779 297.373091 
L 619.824759 254.821091 
L 619.972738 320.269091 
L 620.120717 254.821091 
L 620.268696 320.269091 
L 620.416676 254.821091 
L 622.636364 254.821091 
L 622.636364 254.821091 
" clip-path="url(#p51d650aec4)" style="fill: none; stroke: #1f77b4; stroke-width: 1.5; stroke-linecap: square"/>
   </g>
   <g id="text_18">
    <!-- Energy balance -->
    <g transform="translate(322.4625 45.84) scale(0.12 -0.12)">
     <defs>
      <path id="DejaVuSans-45" d="M 628 4666 
L 3578 4666 
L 3578 4134 
L 1259 4134 
L 1259 2753 
L 3481 2753 
L 3481 2222 
L 1259 2222 
L 1259 531 
L 3634 531 
L 3634 0 
L 628 0 
L 628 4666 
z
" transform="scale(0.015625)"/>
      <path id="DejaVuSans-6e" d="M 3513 2113 
L 3513 0 
L 2938 0 
L 2938 2094 
Q 2938 2591 2744 2837 
Q 2550 3084 2163 3084 
Q 1697 3084 1428 2787 
Q 1159 2491 1159 1978 
L 1159 0 
L 581 0 
L 581 3500 
L 1159 3500 
L 1159 2956 
Q 1366 3272 1645 3428 
Q 1925 3584 2291 3584 
Q 2894 3584 3203 3211 
Q 3513 2838 3513 2113 
z
" transform="scale(0.015625)"/>
      <path id="DejaVuSans-67" d="M 2906 1791 
Q 2906 2416 2648 2759 
Q 2391 3103 1925 3103 
Q 1463 3103 1205 2759 
Q 947 2416 947 1791 
Q 947 1169 1205 825 
Q 1463 481 1925 481 
Q 2391 481 2648 825 
Q 2906 1169 2906 1791 
z
M 3481 434 
Q 3481 -459 3084 -895 
Q 2688 -1331 1869 -1331 
Q 1566 -1331 1297 -1286 
Q 1028 -1241 775 -1147 
L 775 -588 
Q 1028 -725 1275 -790 
Q 1522 -856 1778 -856 
Q 2344 -856 2625 -561 
Q 2906 -266 2906 331 
L 2906 616 
Q 2728 306 2450 153 
Q 2172 0 1784 0 
Q 1141 0 747 490 
Q 353 981 353 1791 
Q 353 2603 747 3093 
Q 1141 3584 1784 3584 
Q 2172 3584 2450 3431 
Q 2728 3278 2906 2969 
L 2906 3500 
L 3481 3500 
L 3481 434 
z
" transform="scale(0.015625)"/>
      <path id="DejaVuSans-79" d="M 2059 -325 
Q 1816 -950 1584 -1140 
Q 1353 -1331 966 -1331 
L 506 -1331 
L 506 -850 
L 844 -850 
Q 1081 -850 1212 -737 
Q 1344 -625 1503 -206 
L 1606 56 
L 191 3500 
L 800 3500 
L 1894 763 
L 2988 3500 
L 3597 3500 
L 2059 -325 
z
" transform="scale(0.015625)"/>
      <path id="DejaVuSans-62" d="M 3116 1747 
Q 3116 2381 2855 2742 
Q 2594 3103 2138 3103 
Q 1681 3103 1420 2742 
Q 1159 2381 1159 1747 
Q 1159 1113 1420 752 
Q 1681 391 2138 391 
Q 2594 391 2855 752 
Q 3116 1113 3116 1747 
z
M 1159 2969 
Q 1341 3281 1617 3432 
Q 1894 3584 2278 3584 
Q 2916 3584 3314 3078 
Q 3713 2572 3713 1747 
Q 3713 922 3314 415 
Q 2916 -91 2278 -91 
Q 1894 -91 1617 61 
Q 1341 213 1159 525 
L 1159 0 
L 581 0 
L 581 4863 
L 1159 4863 
L 1159 2969 
z
" transform="scale(0.015625)"/>
      <path id="DejaVuSans-61" d="M 2194 1759 
Q 1497 1759 1228 1600 
Q 959 1441 959 1056 
Q 959 750 1161 570 
Q 1363 391 1709 391 
Q 2188 391 2477 730 
Q 2766 1069 2766 1631 
L 2766 1759 
L 2194 1759 
z
M 3341 1997 
L 3341 0 
L 2766 0 
L 2766 531 
Q 2569 213 2275 61 
Q 1981 -91 1556 -91 
Q 1019 -91 701 211 
Q 384 513 384 1019 
Q 384 1609 779 1909 
Q 1175 2209 1959 2209 
L 2766 2209 
L 2766 2266 
Q 2766 2663 2505 2880 
Q 2244 3097 1772 3097 
Q 1472 3097 1187 3025 
Q 903 2953 641 2809 
L 641 3341 
Q 956 3463 1253 3523 
Q 1550 3584 1831 3584 
Q 2591 3584 2966 3190 
Q 3341 2797 3341 1997 
z
" transform="scale(0.015625)"/>
      <path id="DejaVuSans-6c" d="M 603 4863 
L 1178 4863 
L 1178 0 
L 603 0 
L 603 4863 
z
" transform="scale(0.015625)"/>
      <path id="DejaVuSans-63" d="M 3122 3366 
L 3122 2828 
Q 2878 2963 2633 3030 
Q 2388 3097 2138 3097 
Q 1578 3097 1268 2742 
Q 959 2388 959 1747 
Q 959 1106 1268 751 
Q 1578 397 2138 397 
Q 2388 397 2633 464 
Q 2878 531 3122 666 
L 3122 134 
Q 2881 22 2623 -34 
Q 2366 -91 2075 -91 
Q 1284 -91 818 406 
Q 353 903 353 1747 
Q 353 2603 823 3093 
Q 1294 3584 2113 3584 
Q 2378 3584 2631 3529 
Q 2884 3475 3122 3366 
z
" transform="scale(0.015625)"/>
     </defs>
     <use xlink:href="#DejaVuSans-45"/>
     <use xlink:href="#DejaVuSans-6e" x="63.183594"/>
     <use xlink:href="#DejaVuSans-65" x="126.5625"/>
     <use xlink:href="#DejaVuSans-72" x="188.085938"/>
     <use xlink:href="#DejaVuSans-67" x="227.449219"/>
     <use xlink:href="#DejaVuSans-79" x="290.925781"/>
     <use xlink:href="#DejaVuSans-20" x="350.105469"/>
     <use xlink:href="#DejaVuSans-62" x="381.892578"/>
     <use xlink:href="#DejaVuSans-61" x="445.369141"/>
     <use xlink:href="#DejaVuSans-6c" x="506.648438"/>
     <use xlink:href="#DejaVuSans-61" x="534.431641"/>
     <use xlink:href="#DejaVuSans-6e" x="595.710938"/>
     <use xlink:href="#DejaVuSans-63" x="659.089844"/>
     <use xlink:href="#DejaVuSans-65" x="714.070312"/>
    </g>
   </g>
   <g id="legend_1">
    <g id="patch_7">
     <path d="M 596.353125 74.518125 
L 641 74.518125 
Q 643 74.518125 643 72.518125 
L 643 58.84 
Q 643 56.84 641 56.84 
L 596.353125 56.84 
Q 594.353125 56.84 594.353125 58.84 
L 594.353125 72.518125 
Q 594.353125 74.518125 596.353125 74.518125 
z
" style="fill: #ffffff; opacity: 0.8; stroke: #cccccc; stroke-linejoin: miter"/>
    </g>
    <g id="line2d_32">
     <path d="M 598.353125 64.938438 
L 608.353125 64.938438 
L 618.353125 64.938438 
" style="fill: none; stroke: #1f77b4; stroke-width: 1.5; stroke-linecap: square"/>
    </g>
    <g id="text_19">
     <!-- dif -->
     <g transform="translate(626.353125 68.438438) scale(0.1 -0.1)">
      <defs>
       <path id="DejaVuSans-64" d="M 2906 2969 
L 2906 4863 
L 3481 4863 
L 3481 0 
L 2906 0 
L 2906 525 
Q 2725 213 2448 61 
Q 2172 -91 1784 -91 
Q 1150 -91 751 415 
Q 353 922 353 1747 
Q 353 2572 751 3078 
Q 1150 3584 1784 3584 
Q 2172 3584 2448 3432 
Q 2725 3281 2906 2969 
z
M 947 1747 
Q 947 1113 1208 752 
Q 1469 391 1925 391 
Q 2381 391 2643 752 
Q 2906 1113 2906 1747 
Q 2906 2381 2643 2742 
Q 2381 3103 1925 3103 
Q 1469 3103 1208 2742 
Q 947 2381 947 1747 
z
" transform="scale(0.015625)"/>
       <path id="DejaVuSans-69" d="M 603 3500 
L 1178 3500 
L 1178 0 
L 603 0 
L 603 3500 
z
M 603 4863 
L 1178 4863 
L 1178 4134 
L 603 4134 
L 603 4863 
z
" transform="scale(0.015625)"/>
       <path id="DejaVuSans-66" d="M 2375 4863 
L 2375 4384 
L 1825 4384 
Q 1516 4384 1395 4259 
Q 1275 4134 1275 3809 
L 1275 3500 
L 2222 3500 
L 2222 3053 
L 1275 3053 
L 1275 0 
L 697 0 
L 697 3053 
L 147 3053 
L 147 3500 
L 697 3500 
L 697 3744 
Q 697 4328 969 4595 
Q 1241 4863 1831 4863 
L 2375 4863 
z
" transform="scale(0.015625)"/>
      </defs>
      <use xlink:href="#DejaVuSans-64"/>
      <use xlink:href="#DejaVuSans-69" x="63.476562"/>
      <use xlink:href="#DejaVuSans-66" x="91.259766"/>
     </g>
    </g>
   </g>
  </g>
 </g>
 <defs>
  <clipPath id="p51d650aec4">
   <rect x="90" y="51.84" width="558" height="332.64"/>
  </clipPath>
 </defs>
</svg>
