<?xml version="1.0" encoding="utf-8" standalone="no"?>
<!DOCTYPE svg PUBLIC "-//W3C//DTD SVG 1.1//EN"
  "http://www.w3.org/Graphics/SVG/1.1/DTD/svg11.dtd">
<svg xmlns:xlink="http://www.w3.org/1999/xlink" width="720pt" height="432pt" viewBox="0 0 720 432" xmlns="http://www.w3.org/2000/svg" version="1.1">
 <metadata>
  <rdf:RDF xmlns:dc="http://purl.org/dc/elements/1.1/" xmlns:cc="http://creativecommons.org/ns#" xmlns:rdf="http://www.w3.org/1999/02/22-rdf-syntax-ns#">
   <cc:Work>
    <dc:type rdf:resource="http://purl.org/dc/dcmitype/StillImage"/>
    <dc:date>2025-07-23T14:14:58.387154</dc:date>
    <dc:format>image/svg+xml</dc:format>
    <dc:creator>
     <cc:Agent>
      <dc:title>Matplotlib v3.8.4, https://matplotlib.org/</dc:title>
     </cc:Agent>
    </dc:creator>
   </cc:Work>
  </rdf:RDF>
 </metadata>
 <defs>
  <style type="text/css">*{stroke-linejoin: round; stroke-linecap: butt}</style>
 </defs>
 <g id="figure_1">
  <g id="patch_1">
   <path d="M 0 432 
L 720 432 
L 720 0 
L 0 0 
z
" style="fill: #ffffff"/>
  </g>
  <g id="axes_1">
   <g id="patch_2">
    <path d="M 90 384.48 
L 648 384.48 
L 648 51.84 
L 90 51.84 
z
" style="fill: #ffffff"/>
   </g>
   <g id="matplotlib.axis_1">
    <g id="xtick_1">
     <g id="line2d_1">
      <path d="M 115.363636 384.48 
L 115.363636 51.84 
" clip-path="url(#p648ba340a6)" style="fill: none; stroke: #b0b0b0; stroke-width: 0.8; stroke-linecap: square"/>
     </g>
     <g id="line2d_2">
      <defs>
       <path id="m2d193bcb24" d="M 0 0 
L 0 3.5 
" style="stroke: #000000; stroke-width: 0.8"/>
      </defs>
      <g>
       <use xlink:href="#m2d193bcb24" x="115.363636" y="384.48" style="stroke: #000000; stroke-width: 0.8"/>
      </g>
     </g>
     <g id="text_1">
      <!-- 0 -->
      <g transform="translate(112.182386 399.078438) scale(0.1 -0.1)">
       <defs>
        <path id="DejaVuSans-30" d="M 2034 4250 
Q 1547 4250 1301 3770 
Q 1056 3291 1056 2328 
Q 1056 1369 1301 889 
Q 1547 409 2034 409 
Q 2525 409 2770 889 
Q 3016 1369 3016 2328 
Q 3016 3291 2770 3770 
Q 2525 4250 2034 4250 
z
M 2034 4750 
Q 2819 4750 3233 4129 
Q 3647 3509 3647 2328 
Q 3647 1150 3233 529 
Q 2819 -91 2034 -91 
Q 1250 -91 836 529 
Q 422 1150 422 2328 
Q 422 3509 836 4129 
Q 1250 4750 2034 4750 
z
" transform="scale(0.015625)"/>
       </defs>
       <use xlink:href="#DejaVuSans-30"/>
      </g>
     </g>
    </g>
    <g id="xtick_2">
     <g id="line2d_3">
      <path d="M 222.157895 384.48 
L 222.157895 51.84 
" clip-path="url(#p648ba340a6)" style="fill: none; stroke: #b0b0b0; stroke-width: 0.8; stroke-linecap: square"/>
     </g>
     <g id="line2d_4">
      <g>
       <use xlink:href="#m2d193bcb24" x="222.157895" y="384.48" style="stroke: #000000; stroke-width: 0.8"/>
      </g>
     </g>
     <g id="text_2">
      <!-- 20 -->
      <g transform="translate(215.795395 399.078438) scale(0.1 -0.1)">
       <defs>
        <path id="DejaVuSans-32" d="M 1228 531 
L 3431 531 
L 3431 0 
L 469 0 
L 469 531 
Q 828 903 1448 1529 
Q 2069 2156 2228 2338 
Q 2531 2678 2651 2914 
Q 2772 3150 2772 3378 
Q 2772 3750 2511 3984 
Q 2250 4219 1831 4219 
Q 1534 4219 1204 4116 
Q 875 4013 500 3803 
L 500 4441 
Q 881 4594 1212 4672 
Q 1544 4750 1819 4750 
Q 2544 4750 2975 4387 
Q 3406 4025 3406 3419 
Q 3406 3131 3298 2873 
Q 3191 2616 2906 2266 
Q 2828 2175 2409 1742 
Q 1991 1309 1228 531 
z
" transform="scale(0.015625)"/>
       </defs>
       <use xlink:href="#DejaVuSans-32"/>
       <use xlink:href="#DejaVuSans-30" x="63.623047"/>
      </g>
     </g>
    </g>
    <g id="xtick_3">
     <g id="line2d_5">
      <path d="M 328.952153 384.48 
L 328.952153 51.84 
" clip-path="url(#p648ba340a6)" style="fill: none; stroke: #b0b0b0; stroke-width: 0.8; stroke-linecap: square"/>
     </g>
     <g id="line2d_6">
      <g>
       <use xlink:href="#m2d193bcb24" x="328.952153" y="384.48" style="stroke: #000000; stroke-width: 0.8"/>
      </g>
     </g>
     <g id="text_3">
      <!-- 40 -->
      <g transform="translate(322.589653 399.078438) scale(0.1 -0.1)">
       <defs>
        <path id="DejaVuSans-34" d="M 2419 4116 
L 825 1625 
L 2419 1625 
L 2419 4116 
z
M 2253 4666 
L 3047 4666 
L 3047 1625 
L 3713 1625 
L 3713 1100 
L 3047 1100 
L 3047 0 
L 2419 0 
L 2419 1100 
L 313 1100 
L 313 1709 
L 2253 4666 
z
" transform="scale(0.015625)"/>
       </defs>
       <use xlink:href="#DejaVuSans-34"/>
       <use xlink:href="#DejaVuSans-30" x="63.623047"/>
      </g>
     </g>
    </g>
    <g id="xtick_4">
     <g id="line2d_7">
      <path d="M 435.746411 384.48 
L 435.746411 51.84 
" clip-path="url(#p648ba340a6)" style="fill: none; stroke: #b0b0b0; stroke-width: 0.8; stroke-linecap: square"/>
     </g>
     <g id="line2d_8">
      <g>
       <use xlink:href="#m2d193bcb24" x="435.746411" y="384.48" style="stroke: #000000; stroke-width: 0.8"/>
      </g>
     </g>
     <g id="text_4">
      <!-- 60 -->
      <g transform="translate(429.383911 399.078438) scale(0.1 -0.1)">
       <defs>
        <path id="DejaVuSans-36" d="M 2113 2584 
Q 1688 2584 1439 2293 
Q 1191 2003 1191 1497 
Q 1191 994 1439 701 
Q 1688 409 2113 409 
Q 2538 409 2786 701 
Q 3034 994 3034 1497 
Q 3034 2003 2786 2293 
Q 2538 2584 2113 2584 
z
M 3366 4563 
L 3366 3988 
Q 3128 4100 2886 4159 
Q 2644 4219 2406 4219 
Q 1781 4219 1451 3797 
Q 1122 3375 1075 2522 
Q 1259 2794 1537 2939 
Q 1816 3084 2150 3084 
Q 2853 3084 3261 2657 
Q 3669 2231 3669 1497 
Q 3669 778 3244 343 
Q 2819 -91 2113 -91 
Q 1303 -91 875 529 
Q 447 1150 447 2328 
Q 447 3434 972 4092 
Q 1497 4750 2381 4750 
Q 2619 4750 2861 4703 
Q 3103 4656 3366 4563 
z
" transform="scale(0.015625)"/>
       </defs>
       <use xlink:href="#DejaVuSans-36"/>
       <use xlink:href="#DejaVuSans-30" x="63.623047"/>
      </g>
     </g>
    </g>
    <g id="xtick_5">
     <g id="line2d_9">
      <path d="M 542.54067 384.48 
L 542.54067 51.84 
" clip-path="url(#p648ba340a6)" style="fill: none; stroke: #b0b0b0; stroke-width: 0.8; stroke-linecap: square"/>
     </g>
     <g id="line2d_10">
      <g>
       <use xlink:href="#m2d193bcb24" x="542.54067" y="384.48" style="stroke: #000000; stroke-width: 0.8"/>
      </g>
     </g>
     <g id="text_5">
      <!-- 80 -->
      <g transform="translate(536.17817 399.078438) scale(0.1 -0.1)">
       <defs>
        <path id="DejaVuSans-38" d="M 2034 2216 
Q 1584 2216 1326 1975 
Q 1069 1734 1069 1313 
Q 1069 891 1326 650 
Q 1584 409 2034 409 
Q 2484 409 2743 651 
Q 3003 894 3003 1313 
Q 3003 1734 2745 1975 
Q 2488 2216 2034 2216 
z
M 1403 2484 
Q 997 2584 770 2862 
Q 544 3141 544 3541 
Q 544 4100 942 4425 
Q 1341 4750 2034 4750 
Q 2731 4750 3128 4425 
Q 3525 4100 3525 3541 
Q 3525 3141 3298 2862 
Q 3072 2584 2669 2484 
Q 3125 2378 3379 2068 
Q 3634 1759 3634 1313 
Q 3634 634 3220 271 
Q 2806 -91 2034 -91 
Q 1263 -91 848 271 
Q 434 634 434 1313 
Q 434 1759 690 2068 
Q 947 2378 1403 2484 
z
M 1172 3481 
Q 1172 3119 1398 2916 
Q 1625 2713 2034 2713 
Q 2441 2713 2670 2916 
Q 2900 3119 2900 3481 
Q 2900 3844 2670 4047 
Q 2441 4250 2034 4250 
Q 1625 4250 1398 4047 
Q 1172 3844 1172 3481 
z
" transform="scale(0.015625)"/>
       </defs>
       <use xlink:href="#DejaVuSans-38"/>
       <use xlink:href="#DejaVuSans-30" x="63.623047"/>
      </g>
     </g>
    </g>
    <g id="text_6">
     <!-- Hours -->
     <g transform="translate(354.351562 412.756563) scale(0.1 -0.1)">
      <defs>
       <path id="DejaVuSans-48" d="M 628 4666 
L 1259 4666 
L 1259 2753 
L 3553 2753 
L 3553 4666 
L 4184 4666 
L 4184 0 
L 3553 0 
L 3553 2222 
L 1259 2222 
L 1259 0 
L 628 0 
L 628 4666 
z
" transform="scale(0.015625)"/>
       <path id="DejaVuSans-6f" d="M 1959 3097 
Q 1497 3097 1228 2736 
Q 959 2375 959 1747 
Q 959 1119 1226 758 
Q 1494 397 1959 397 
Q 2419 397 2687 759 
Q 2956 1122 2956 1747 
Q 2956 2369 2687 2733 
Q 2419 3097 1959 3097 
z
M 1959 3584 
Q 2709 3584 3137 3096 
Q 3566 2609 3566 1747 
Q 3566 888 3137 398 
Q 2709 -91 1959 -91 
Q 1206 -91 779 398 
Q 353 888 353 1747 
Q 353 2609 779 3096 
Q 1206 3584 1959 3584 
z
" transform="scale(0.015625)"/>
       <path id="DejaVuSans-75" d="M 544 1381 
L 544 3500 
L 1119 3500 
L 1119 1403 
Q 1119 906 1312 657 
Q 1506 409 1894 409 
Q 2359 409 2629 706 
Q 2900 1003 2900 1516 
L 2900 3500 
L 3475 3500 
L 3475 0 
L 2900 0 
L 2900 538 
Q 2691 219 2414 64 
Q 2138 -91 1772 -91 
Q 1169 -91 856 284 
Q 544 659 544 1381 
z
M 1991 3584 
L 1991 3584 
z
" transform="scale(0.015625)"/>
       <path id="DejaVuSans-72" d="M 2631 2963 
Q 2534 3019 2420 3045 
Q 2306 3072 2169 3072 
Q 1681 3072 1420 2755 
Q 1159 2438 1159 1844 
L 1159 0 
L 581 0 
L 581 3500 
L 1159 3500 
L 1159 2956 
Q 1341 3275 1631 3429 
Q 1922 3584 2338 3584 
Q 2397 3584 2469 3576 
Q 2541 3569 2628 3553 
L 2631 2963 
z
" transform="scale(0.015625)"/>
       <path id="DejaVuSans-73" d="M 2834 3397 
L 2834 2853 
Q 2591 2978 2328 3040 
Q 2066 3103 1784 3103 
Q 1356 3103 1142 2972 
Q 928 2841 928 2578 
Q 928 2378 1081 2264 
Q 1234 2150 1697 2047 
L 1894 2003 
Q 2506 1872 2764 1633 
Q 3022 1394 3022 966 
Q 3022 478 2636 193 
Q 2250 -91 1575 -91 
Q 1294 -91 989 -36 
Q 684 19 347 128 
L 347 722 
Q 666 556 975 473 
Q 1284 391 1588 391 
Q 1994 391 2212 530 
Q 2431 669 2431 922 
Q 2431 1156 2273 1281 
Q 2116 1406 1581 1522 
L 1381 1569 
Q 847 1681 609 1914 
Q 372 2147 372 2553 
Q 372 3047 722 3315 
Q 1072 3584 1716 3584 
Q 2034 3584 2315 3537 
Q 2597 3491 2834 3397 
z
" transform="scale(0.015625)"/>
      </defs>
      <use xlink:href="#DejaVuSans-48"/>
      <use xlink:href="#DejaVuSans-6f" x="75.195312"/>
      <use xlink:href="#DejaVuSans-75" x="136.376953"/>
      <use xlink:href="#DejaVuSans-72" x="199.755859"/>
      <use xlink:href="#DejaVuSans-73" x="240.869141"/>
     </g>
    </g>
   </g>
   <g id="matplotlib.axis_2">
    <g id="ytick_1">
     <g id="line2d_11">
      <path d="M 90 347.439049 
L 648 347.439049 
" clip-path="url(#p648ba340a6)" style="fill: none; stroke: #b0b0b0; stroke-width: 0.8; stroke-linecap: square"/>
     </g>
     <g id="line2d_12">
      <defs>
       <path id="m594d4ffbde" d="M 0 0 
L -3.5 0 
" style="stroke: #000000; stroke-width: 0.8"/>
      </defs>
      <g>
       <use xlink:href="#m594d4ffbde" x="90" y="347.439049" style="stroke: #000000; stroke-width: 0.8"/>
      </g>
     </g>
     <g id="text_7">
      <!-- 0 -->
      <g transform="translate(76.6375 351.238268) scale(0.1 -0.1)">
       <use xlink:href="#DejaVuSans-30"/>
      </g>
     </g>
    </g>
    <g id="ytick_2">
     <g id="line2d_13">
      <path d="M 90 307.082351 
L 648 307.082351 
" clip-path="url(#p648ba340a6)" style="fill: none; stroke: #b0b0b0; stroke-width: 0.8; stroke-linecap: square"/>
     </g>
     <g id="line2d_14">
      <g>
       <use xlink:href="#m594d4ffbde" x="90" y="307.082351" style="stroke: #000000; stroke-width: 0.8"/>
      </g>
     </g>
     <g id="text_8">
      <!-- 10 -->
      <g transform="translate(70.275 310.88157) scale(0.1 -0.1)">
       <defs>
        <path id="DejaVuSans-31" d="M 794 531 
L 1825 531 
L 1825 4091 
L 703 3866 
L 703 4441 
L 1819 4666 
L 2450 4666 
L 2450 531 
L 3481 531 
L 3481 0 
L 794 0 
L 794 531 
z
" transform="scale(0.015625)"/>
       </defs>
       <use xlink:href="#DejaVuSans-31"/>
       <use xlink:href="#DejaVuSans-30" x="63.623047"/>
      </g>
     </g>
    </g>
    <g id="ytick_3">
     <g id="line2d_15">
      <path d="M 90 266.725654 
L 648 266.725654 
" clip-path="url(#p648ba340a6)" style="fill: none; stroke: #b0b0b0; stroke-width: 0.8; stroke-linecap: square"/>
     </g>
     <g id="line2d_16">
      <g>
       <use xlink:href="#m594d4ffbde" x="90" y="266.725654" style="stroke: #000000; stroke-width: 0.8"/>
      </g>
     </g>
     <g id="text_9">
      <!-- 20 -->
      <g transform="translate(70.275 270.524872) scale(0.1 -0.1)">
       <use xlink:href="#DejaVuSans-32"/>
       <use xlink:href="#DejaVuSans-30" x="63.623047"/>
      </g>
     </g>
    </g>
    <g id="ytick_4">
     <g id="line2d_17">
      <path d="M 90 226.368956 
L 648 226.368956 
" clip-path="url(#p648ba340a6)" style="fill: none; stroke: #b0b0b0; stroke-width: 0.8; stroke-linecap: square"/>
     </g>
     <g id="line2d_18">
      <g>
       <use xlink:href="#m594d4ffbde" x="90" y="226.368956" style="stroke: #000000; stroke-width: 0.8"/>
      </g>
     </g>
     <g id="text_10">
      <!-- 30 -->
      <g transform="translate(70.275 230.168175) scale(0.1 -0.1)">
       <defs>
        <path id="DejaVuSans-33" d="M 2597 2516 
Q 3050 2419 3304 2112 
Q 3559 1806 3559 1356 
Q 3559 666 3084 287 
Q 2609 -91 1734 -91 
Q 1441 -91 1130 -33 
Q 819 25 488 141 
L 488 750 
Q 750 597 1062 519 
Q 1375 441 1716 441 
Q 2309 441 2620 675 
Q 2931 909 2931 1356 
Q 2931 1769 2642 2001 
Q 2353 2234 1838 2234 
L 1294 2234 
L 1294 2753 
L 1863 2753 
Q 2328 2753 2575 2939 
Q 2822 3125 2822 3475 
Q 2822 3834 2567 4026 
Q 2313 4219 1838 4219 
Q 1578 4219 1281 4162 
Q 984 4106 628 3988 
L 628 4550 
Q 988 4650 1302 4700 
Q 1616 4750 1894 4750 
Q 2613 4750 3031 4423 
Q 3450 4097 3450 3541 
Q 3450 3153 3228 2886 
Q 3006 2619 2597 2516 
z
" transform="scale(0.015625)"/>
       </defs>
       <use xlink:href="#DejaVuSans-33"/>
       <use xlink:href="#DejaVuSans-30" x="63.623047"/>
      </g>
     </g>
    </g>
    <g id="ytick_5">
     <g id="line2d_19">
      <path d="M 90 186.012258 
L 648 186.012258 
" clip-path="url(#p648ba340a6)" style="fill: none; stroke: #b0b0b0; stroke-width: 0.8; stroke-linecap: square"/>
     </g>
     <g id="line2d_20">
      <g>
       <use xlink:href="#m594d4ffbde" x="90" y="186.012258" style="stroke: #000000; stroke-width: 0.8"/>
      </g>
     </g>
     <g id="text_11">
      <!-- 40 -->
      <g transform="translate(70.275 189.811477) scale(0.1 -0.1)">
       <use xlink:href="#DejaVuSans-34"/>
       <use xlink:href="#DejaVuSans-30" x="63.623047"/>
      </g>
     </g>
    </g>
    <g id="ytick_6">
     <g id="line2d_21">
      <path d="M 90 145.65556 
L 648 145.65556 
" clip-path="url(#p648ba340a6)" style="fill: none; stroke: #b0b0b0; stroke-width: 0.8; stroke-linecap: square"/>
     </g>
     <g id="line2d_22">
      <g>
       <use xlink:href="#m594d4ffbde" x="90" y="145.65556" style="stroke: #000000; stroke-width: 0.8"/>
      </g>
     </g>
     <g id="text_12">
      <!-- 50 -->
      <g transform="translate(70.275 149.454779) scale(0.1 -0.1)">
       <defs>
        <path id="DejaVuSans-35" d="M 691 4666 
L 3169 4666 
L 3169 4134 
L 1269 4134 
L 1269 2991 
Q 1406 3038 1543 3061 
Q 1681 3084 1819 3084 
Q 2600 3084 3056 2656 
Q 3513 2228 3513 1497 
Q 3513 744 3044 326 
Q 2575 -91 1722 -91 
Q 1428 -91 1123 -41 
Q 819 9 494 109 
L 494 744 
Q 775 591 1075 516 
Q 1375 441 1709 441 
Q 2250 441 2565 725 
Q 2881 1009 2881 1497 
Q 2881 1984 2565 2268 
Q 2250 2553 1709 2553 
Q 1456 2553 1204 2497 
Q 953 2441 691 2322 
L 691 4666 
z
" transform="scale(0.015625)"/>
       </defs>
       <use xlink:href="#DejaVuSans-35"/>
       <use xlink:href="#DejaVuSans-30" x="63.623047"/>
      </g>
     </g>
    </g>
    <g id="ytick_7">
     <g id="line2d_23">
      <path d="M 90 105.298863 
L 648 105.298863 
" clip-path="url(#p648ba340a6)" style="fill: none; stroke: #b0b0b0; stroke-width: 0.8; stroke-linecap: square"/>
     </g>
     <g id="line2d_24">
      <g>
       <use xlink:href="#m594d4ffbde" x="90" y="105.298863" style="stroke: #000000; stroke-width: 0.8"/>
      </g>
     </g>
     <g id="text_13">
      <!-- 60 -->
      <g transform="translate(70.275 109.098082) scale(0.1 -0.1)">
       <use xlink:href="#DejaVuSans-36"/>
       <use xlink:href="#DejaVuSans-30" x="63.623047"/>
      </g>
     </g>
    </g>
    <g id="ytick_8">
     <g id="line2d_25">
      <path d="M 90 64.942165 
L 648 64.942165 
" clip-path="url(#p648ba340a6)" style="fill: none; stroke: #b0b0b0; stroke-width: 0.8; stroke-linecap: square"/>
     </g>
     <g id="line2d_26">
      <g>
       <use xlink:href="#m594d4ffbde" x="90" y="64.942165" style="stroke: #000000; stroke-width: 0.8"/>
      </g>
     </g>
     <g id="text_14">
      <!-- 70 -->
      <g transform="translate(70.275 68.741384) scale(0.1 -0.1)">
       <defs>
        <path id="DejaVuSans-37" d="M 525 4666 
L 3525 4666 
L 3525 4397 
L 1831 0 
L 1172 0 
L 2766 4134 
L 525 4134 
L 525 4666 
z
" transform="scale(0.015625)"/>
       </defs>
       <use xlink:href="#DejaVuSans-37"/>
       <use xlink:href="#DejaVuSans-30" x="63.623047"/>
      </g>
     </g>
    </g>
    <g id="text_15">
     <!-- Power [kW] -->
     <g transform="translate(64.195312 246.60375) rotate(-90) scale(0.1 -0.1)">
      <defs>
       <path id="DejaVuSans-50" d="M 1259 4147 
L 1259 2394 
L 2053 2394 
Q 2494 2394 2734 2622 
Q 2975 2850 2975 3272 
Q 2975 3691 2734 3919 
Q 2494 4147 2053 4147 
L 1259 4147 
z
M 628 4666 
L 2053 4666 
Q 2838 4666 3239 4311 
Q 3641 3956 3641 3272 
Q 3641 2581 3239 2228 
Q 2838 1875 2053 1875 
L 1259 1875 
L 1259 0 
L 628 0 
L 628 4666 
z
" transform="scale(0.015625)"/>
       <path id="DejaVuSans-77" d="M 269 3500 
L 844 3500 
L 1563 769 
L 2278 3500 
L 2956 3500 
L 3675 769 
L 4391 3500 
L 4966 3500 
L 4050 0 
L 3372 0 
L 2619 2869 
L 1863 0 
L 1184 0 
L 269 3500 
z
" transform="scale(0.015625)"/>
       <path id="DejaVuSans-65" d="M 3597 1894 
L 3597 1613 
L 953 1613 
Q 991 1019 1311 708 
Q 1631 397 2203 397 
Q 2534 397 2845 478 
Q 3156 559 3463 722 
L 3463 178 
Q 3153 47 2828 -22 
Q 2503 -91 2169 -91 
Q 1331 -91 842 396 
Q 353 884 353 1716 
Q 353 2575 817 3079 
Q 1281 3584 2069 3584 
Q 2775 3584 3186 3129 
Q 3597 2675 3597 1894 
z
M 3022 2063 
Q 3016 2534 2758 2815 
Q 2500 3097 2075 3097 
Q 1594 3097 1305 2825 
Q 1016 2553 972 2059 
L 3022 2063 
z
" transform="scale(0.015625)"/>
       <path id="DejaVuSans-20" transform="scale(0.015625)"/>
       <path id="DejaVuSans-5b" d="M 550 4863 
L 1875 4863 
L 1875 4416 
L 1125 4416 
L 1125 -397 
L 1875 -397 
L 1875 -844 
L 550 -844 
L 550 4863 
z
" transform="scale(0.015625)"/>
       <path id="DejaVuSans-6b" d="M 581 4863 
L 1159 4863 
L 1159 1991 
L 2875 3500 
L 3609 3500 
L 1753 1863 
L 3688 0 
L 2938 0 
L 1159 1709 
L 1159 0 
L 581 0 
L 581 4863 
z
" transform="scale(0.015625)"/>
       <path id="DejaVuSans-57" d="M 213 4666 
L 850 4666 
L 1831 722 
L 2809 4666 
L 3519 4666 
L 4500 722 
L 5478 4666 
L 6119 4666 
L 4947 0 
L 4153 0 
L 3169 4050 
L 2175 0 
L 1381 0 
L 213 4666 
z
" transform="scale(0.015625)"/>
       <path id="DejaVuSans-5d" d="M 1947 4863 
L 1947 -844 
L 622 -844 
L 622 -397 
L 1369 -397 
L 1369 4416 
L 622 4416 
L 622 4863 
L 1947 4863 
z
" transform="scale(0.015625)"/>
      </defs>
      <use xlink:href="#DejaVuSans-50"/>
      <use xlink:href="#DejaVuSans-6f" x="56.677734"/>
      <use xlink:href="#DejaVuSans-77" x="117.859375"/>
      <use xlink:href="#DejaVuSans-65" x="199.646484"/>
      <use xlink:href="#DejaVuSans-72" x="261.169922"/>
      <use xlink:href="#DejaVuSans-20" x="302.283203"/>
      <use xlink:href="#DejaVuSans-5b" x="334.070312"/>
      <use xlink:href="#DejaVuSans-6b" x="373.083984"/>
      <use xlink:href="#DejaVuSans-57" x="430.994141"/>
      <use xlink:href="#DejaVuSans-5d" x="529.871094"/>
     </g>
    </g>
   </g>
   <g id="patch_3">
    <path d="M 90 384.48 
L 90 51.84 
" style="fill: none; stroke: #000000; stroke-width: 0.8; stroke-linejoin: miter; stroke-linecap: square"/>
   </g>
   <g id="patch_4">
    <path d="M 648 384.48 
L 648 51.84 
" style="fill: none; stroke: #000000; stroke-width: 0.8; stroke-linejoin: miter; stroke-linecap: square"/>
   </g>
   <g id="patch_5">
    <path d="M 90 384.48 
L 648 384.48 
" style="fill: none; stroke: #000000; stroke-width: 0.8; stroke-linejoin: miter; stroke-linecap: square"/>
   </g>
   <g id="patch_6">
    <path d="M 90 51.84 
L 648 51.84 
" style="fill: none; stroke: #000000; stroke-width: 0.8; stroke-linejoin: miter; stroke-linecap: square"/>
   </g>
   <g id="line2d_27">
    <path d="M 115.363636 347.439049 
L 120.703349 347.439049 
L 126.043062 347.439049 
L 131.382775 347.439049 
L 136.722488 347.439049 
L 142.062201 347.439049 
L 147.401914 347.439049 
L 152.741627 347.339112 
L 158.08134 341.995833 
L 163.421053 330.214039 
L 168.760766 325.055093 
L 174.100478 327.026534 
L 179.440191 324.268814 
L 184.779904 329.530021 
L 190.119617 330.722572 
L 195.45933 336.218385 
L 200.799043 342.769806 
L 206.138756 346.701995 
L 211.478469 347.439049 
L 216.818182 347.439049 
L 222.157895 347.439049 
L 227.497608 347.439049 
L 232.837321 347.439049 
L 238.177033 347.439049 
L 243.516746 347.439049 
L 248.856459 347.439049 
L 254.196172 347.439049 
L 259.535885 347.439049 
L 264.875598 347.439049 
L 270.215311 347.439049 
L 275.555024 347.439049 
L 280.894737 347.190426 
L 286.23445 330.413039 
L 291.574163 309.482271 
L 296.913876 305.791657 
L 302.253589 347.439049 
L 307.593301 347.439049 
L 312.933014 314.954162 
L 318.272727 318.13671 
L 323.61244 324.984327 
L 328.952153 335.793022 
L 334.291866 347.428648 
L 339.631579 347.439049 
L 344.971292 347.439049 
L 350.311005 347.439049 
L 355.650718 347.439049 
L 360.990431 347.439049 
L 366.330144 347.439049 
L 371.669856 347.439049 
L 377.009569 347.439049 
L 382.349282 347.439049 
L 387.688995 347.439049 
L 393.028708 347.439049 
L 398.368421 347.439049 
L 403.708134 347.439049 
L 409.047847 347.439049 
L 414.38756 346.620809 
L 419.727273 341.617849 
L 425.066986 335.94546 
L 430.406699 327.412606 
L 435.746411 325.77217 
L 441.086124 324.177858 
L 446.425837 326.321947 
L 451.76555 333.004508 
L 457.105263 342.982618 
L 462.444976 347.439049 
L 467.784689 347.439049 
L 473.124402 347.439049 
L 478.464115 347.439049 
L 483.803828 347.439049 
L 489.143541 347.439049 
L 494.483254 347.439049 
L 499.822967 347.439049 
L 505.162679 347.439049 
L 510.502392 347.439049 
L 515.842105 347.439049 
L 521.181818 347.439049 
L 526.521531 347.439049 
L 531.861244 347.439049 
L 537.200957 347.439049 
L 542.54067 342.291777 
L 547.880383 329.259021 
L 553.220096 316.263194 
L 558.559809 313.126673 
L 563.899522 313.211271 
L 569.239234 314.417217 
L 574.578947 317.805763 
L 579.91866 326.03517 
L 585.258373 340.937641 
L 590.598086 347.439049 
L 595.937799 347.439049 
L 601.277512 347.439049 
L 606.617225 347.439049 
L 611.956938 347.439049 
L 617.296651 347.439049 
L 622.636364 347.439049 
" clip-path="url(#p648ba340a6)" style="fill: none; stroke: #1f77b4; stroke-width: 1.5; stroke-linecap: square"/>
   </g>
   <g id="line2d_28">
    <path d="M 115.363636 319.776954 
L 120.703349 320.958598 
L 126.043062 322.145085 
L 131.382775 321.781875 
L 136.722488 322.520402 
L 142.062201 322.571252 
L 147.401914 322.365433 
L 152.741627 321.939266 
L 158.08134 320.876271 
L 163.421053 319.776954 
L 168.760766 318.312006 
L 174.100478 317.442723 
L 179.440191 317.391873 
L 184.779904 317.149733 
L 190.119617 316.895486 
L 195.45933 317.108569 
L 200.799043 317.110991 
L 206.138756 317.399137 
L 211.478469 316.975392 
L 216.818182 315.495916 
L 222.157895 314.866351 
L 227.497608 315.173869 
L 232.837321 315.817962 
L 238.177033 316.987499 
L 243.516746 318.418548 
L 248.856459 310.323801 
L 254.196172 311.7718 
L 259.535885 312.544227 
L 264.875598 313.113256 
L 270.215311 313.384453 
L 275.555024 313.32634 
L 280.894737 313.229483 
L 286.23445 312.67014 
L 291.574163 311.570823 
L 296.913876 310.733018 
L 302.253589 310.56352 
L 307.593301 311.241513 
L 312.933014 311.931612 
L 318.272727 312.587812 
L 323.61244 313.520052 
L 328.952153 314.297322 
L 334.291866 314.616947 
L 339.631579 314.299743 
L 344.971292 313.064828 
L 350.311005 311.275412 
L 355.650718 311.343211 
L 360.990431 311.287519 
L 366.330144 311.483653 
L 371.669856 312.055104 
L 377.009569 307.376955 
L 382.349282 308.427844 
L 387.688995 308.61187 
L 393.028708 309.040458 
L 398.368421 369.36 
L 403.708134 368.594837 
L 409.047847 366.727936 
L 414.38756 363.480836 
L 419.727273 361.822176 
L 425.066986 301.258073 
L 430.406699 301.308922 
L 435.746411 301.32345 
L 441.086124 301.548641 
L 446.425837 301.943329 
L 451.76555 302.10072 
L 457.105263 302.41066 
L 462.444976 363.183004 
L 467.784689 362.856115 
L 473.124402 361.388745 
L 478.464115 360.764023 
L 483.803828 361.19019 
L 489.143541 361.44928 
L 494.483254 362.517118 
L 499.822967 364.638266 
L 505.162679 366.166171 
L 510.502392 367.168631 
L 515.842105 367.526999 
L 521.181818 367.858731 
L 526.521531 367.4592 
L 531.861244 366.723093 
L 537.200957 364.98937 
L 542.54067 361.889975 
L 547.880383 359.906847 
L 553.220096 299.238623 
L 558.559809 299.253152 
L 563.899522 299.776175 
L 569.239234 300.308883 
L 574.578947 301.083732 
L 579.91866 301.427571 
L 585.258373 362.182965 
L 590.598086 362.272557 
L 595.937799 361.822176 
L 601.277512 360.364492 
L 606.617225 359.703449 
L 611.956938 360.006125 
L 617.296651 360.403235 
L 622.636364 361.115127 
" clip-path="url(#p648ba340a6)" style="fill: none; stroke: #ff7f0e; stroke-width: 1.5; stroke-linecap: square"/>
   </g>
   <g id="line2d_29">
    <path d="M 115.363636 347.439049 
L 120.703349 347.439049 
L 126.043062 347.439049 
L 131.382775 347.439049 
L 136.722488 347.439049 
L 142.062201 347.439049 
L 147.401914 347.439049 
L 152.741627 347.439049 
L 158.08134 347.439049 
L 163.421053 347.439049 
L 168.760766 347.439049 
L 174.100478 347.439049 
L 179.440191 347.439049 
L 184.779904 347.439049 
L 190.119617 347.439049 
L 195.45933 347.439049 
L 200.799043 347.439049 
L 206.138756 347.439049 
L 211.478469 347.439049 
L 216.818182 347.439049 
L 222.157895 347.439049 
L 227.497608 347.439049 
L 232.837321 347.439049 
L 238.177033 347.439049 
L 243.516746 347.439049 
L 248.856459 347.439049 
L 254.196172 347.439049 
L 259.535885 347.439049 
L 264.875598 347.439049 
L 270.215311 347.439049 
L 275.555024 347.439049 
L 280.894737 347.439049 
L 286.23445 347.439049 
L 291.574163 347.439049 
L 296.913876 347.439049 
L 302.253589 347.439049 
L 307.593301 347.439049 
L 312.933014 347.439049 
L 318.272727 347.439049 
L 323.61244 347.439049 
L 328.952153 347.439049 
L 334.291866 347.439049 
L 339.631579 347.439049 
L 344.971292 347.439049 
L 350.311005 347.439049 
L 355.650718 347.439049 
L 360.990431 347.439049 
L 366.330144 347.439049 
L 371.669856 347.439049 
L 377.009569 347.439049 
L 382.349282 347.439049 
L 387.688995 347.439049 
L 393.028708 347.439049 
L 398.368421 347.439049 
L 403.708134 347.439049 
L 409.047847 347.439049 
L 414.38756 347.439049 
L 419.727273 308.373529 
L 425.066986 321.418821 
L 430.406699 331.827203 
L 435.746411 335.606845 
L 441.086124 339.188359 
L 446.425837 338.969483 
L 451.76555 319.808102 
L 457.105263 347.439049 
L 462.444976 347.439049 
L 467.784689 347.439049 
L 473.124402 300.853699 
L 478.464115 318.29683 
L 483.803828 317.429979 
L 489.143541 315.51208 
L 494.483254 313.46263 
L 499.822967 312.185394 
L 505.162679 311.060853 
L 510.502392 309.724161 
L 515.842105 308.824797 
L 521.181818 308.484945 
L 526.521531 307.543437 
L 531.861244 306.427962 
L 537.200957 304.659606 
L 542.54067 301.491022 
L 547.880383 317.646445 
L 553.220096 330.603465 
L 558.559809 334.438429 
L 563.899522 327.143326 
L 569.239234 339.141592 
L 574.578947 337.631987 
L 579.91866 328.700755 
L 585.258373 307.369899 
L 590.598086 307.952146 
L 595.937799 305.785813 
L 601.277512 303.032369 
L 606.617225 301.848747 
L 611.956938 301.841897 
L 617.296651 301.804595 
L 622.636364 302.112173 
" clip-path="url(#p648ba340a6)" style="fill: none; stroke: #2ca02c; stroke-width: 1.5; stroke-linecap: square"/>
   </g>
   <g id="line2d_30">
    <path d="M 115.363636 326.635043 
L 120.703349 333.706147 
L 126.043062 333.742138 
L 131.382775 333.742138 
L 136.722488 324.156955 
L 142.062201 324.279668 
L 147.401914 316.506413 
L 152.741627 303.123586 
L 158.08134 300.921218 
L 163.421053 292.357855 
L 168.760766 289.474662 
L 174.100478 288.785682 
L 179.440191 288.570601 
L 184.779904 288.939839 
L 190.119617 289.441711 
L 195.45933 290.51053 
L 200.799043 293.544791 
L 206.138756 298.25449 
L 211.478469 303.092846 
L 216.818182 308.752074 
L 222.157895 314.758164 
L 227.497608 320.163998 
L 232.837321 323.850087 
L 238.177033 327.774966 
L 243.516746 331.147354 
L 248.856459 346.770949 
L 254.196172 345.713337 
L 259.535885 343.002117 
L 264.875598 337.546133 
L 270.215311 333.655626 
L 275.555024 327.542205 
L 280.894737 325.170855 
L 286.23445 323.411462 
L 291.574163 311.994546 
L 296.913876 301.724028 
L 302.253589 297.646178 
L 307.593301 295.73264 
L 312.933014 294.553662 
L 318.272727 294.492466 
L 323.61244 296.337889 
L 328.952153 302.695784 
L 334.291866 311.99378 
L 339.631579 318.239576 
L 344.971292 327.666017 
L 350.311005 339.144648 
L 355.650718 344.561033 
L 360.990431 345.784725 
L 366.330144 345.389554 
L 371.669856 342.957922 
L 377.009569 338.151925 
L 382.349282 340.236287 
L 387.688995 340.28808 
L 393.028708 340.34143 
L 398.368421 341.805792 
L 403.708134 341.22576 
L 409.047847 341.552891 
L 414.38756 341.407803 
L 419.727273 340.352649 
L 425.066986 338.771889 
L 430.406699 336.947211 
L 435.746411 334.822534 
L 441.086124 333.060521 
L 446.425837 331.529998 
L 451.76555 330.350735 
L 457.105263 332.041667 
L 462.444976 328.334661 
L 467.784689 347.439049 
L 473.124402 347.439049 
L 478.464115 329.371195 
L 483.803828 330.664213 
L 489.143541 332.841203 
L 494.483254 335.958491 
L 499.822967 339.356875 
L 505.162679 342.00932 
L 510.502392 344.348473 
L 515.842105 345.606204 
L 521.181818 346.277788 
L 526.521531 346.819765 
L 531.861244 347.199134 
L 537.200957 347.233766 
L 542.54067 347.302955 
L 547.880383 347.344432 
L 553.220096 347.250062 
L 558.559809 346.566148 
L 563.899522 344.151814 
L 569.239234 341.628172 
L 574.578947 340.524079 
L 579.91866 341.569744 
L 585.258373 341.717068 
L 590.598086 341.224413 
L 595.937799 342.940365 
L 601.277512 344.236126 
L 606.617225 344.758705 
L 611.956938 345.06823 
L 617.296651 345.502642 
L 622.636364 345.906956 
" clip-path="url(#p648ba340a6)" style="fill: none; stroke: #d62728; stroke-width: 1.5; stroke-linecap: square"/>
   </g>
   <g id="line2d_31">
    <path d="M 115.363636 290.939672 
L 120.703349 307.122708 
L 126.043062 310.714454 
L 131.382775 310.714454 
L 136.722488 313.337639 
L 142.062201 292.473227 
L 147.401914 266.76601 
L 152.741627 226.368956 
L 158.08134 206.190607 
L 163.421053 206.15025 
L 168.760766 212.566965 
L 174.100478 215.513004 
L 179.440191 221.324369 
L 184.779904 226.328599 
L 190.119617 234.440295 
L 195.45933 234.238512 
L 200.799043 224.351121 
L 206.138756 198.159624 
L 211.478469 165.833909 
L 216.818182 153.686543 
L 222.157895 155.502595 
L 227.497608 172.694548 
L 232.837321 181.129098 
L 238.177033 192.872897 
L 243.516746 198.240338 
L 248.856459 127.737187 
L 254.196172 138.472068 
L 259.535885 150.619434 
L 264.875598 150.619434 
L 270.215311 149.08588 
L 275.555024 107.478124 
L 280.894737 88.792973 
L 286.23445 72.731008 
L 291.574163 73.013505 
L 296.913876 81.932335 
L 302.253589 93.797204 
L 307.593301 107.922048 
L 312.933014 112.643782 
L 318.272727 113.531629 
L 323.61244 113.208776 
L 328.952153 103.886378 
L 334.291866 92.949713 
L 339.631579 81.932335 
L 344.971292 77.735238 
L 350.311005 75.03134 
L 355.650718 76.645607 
L 360.990431 90.165101 
L 366.330144 95.169332 
L 371.669856 92.182936 
L 377.009569 66.96 
L 382.349282 72.731008 
L 387.688995 81.084844 
L 393.028708 89.438681 
L 398.368421 97.227523 
L 403.708134 101.9089 
L 409.047847 93.514707 
L 414.38756 102.110684 
L 419.727273 77.372028 
L 425.066986 68.493555 
L 430.406699 72.004587 
L 435.746411 74.345276 
L 441.086124 89.156184 
L 446.425837 98.962861 
L 451.76555 107.720265 
L 457.105263 112.119145 
L 462.444976 76.24204 
L 467.784689 68.977835 
L 473.124402 70.148179 
L 478.464115 72.731008 
L 483.803828 83.586959 
L 489.143541 82.053405 
L 494.483254 93.998987 
L 499.822967 90.165101 
L 505.162679 126.687913 
L 510.502392 129.311098 
L 515.842105 153.48476 
L 521.181818 152.233702 
L 526.521531 157.076506 
L 531.861244 152.960123 
L 537.200957 144.848427 
L 542.54067 136.777087 
L 547.880383 126.687913 
L 553.220096 97.227523 
L 558.559809 89.115827 
L 563.899522 88.429763 
L 569.239234 85.685508 
L 574.578947 89.115827 
L 579.91866 112.119145 
L 585.258373 125.719352 
L 590.598086 91.456515 
L 595.937799 75.555977 
L 601.277512 76.24204 
L 606.617225 80.963774 
L 611.956938 73.013505 
L 617.296651 74.425989 
L 622.636364 83.586959 
" clip-path="url(#p648ba340a6)" style="fill: none; stroke: #9467bd; stroke-width: 1.5; stroke-linecap: square"/>
   </g>
   <g id="text_16">
    <!-- Environment variables -->
    <g transform="translate(301.453125 45.84) scale(0.12 -0.12)">
     <defs>
      <path id="DejaVuSans-45" d="M 628 4666 
L 3578 4666 
L 3578 4134 
L 1259 4134 
L 1259 2753 
L 3481 2753 
L 3481 2222 
L 1259 2222 
L 1259 531 
L 3634 531 
L 3634 0 
L 628 0 
L 628 4666 
z
" transform="scale(0.015625)"/>
      <path id="DejaVuSans-6e" d="M 3513 2113 
L 3513 0 
L 2938 0 
L 2938 2094 
Q 2938 2591 2744 2837 
Q 2550 3084 2163 3084 
Q 1697 3084 1428 2787 
Q 1159 2491 1159 1978 
L 1159 0 
L 581 0 
L 581 3500 
L 1159 3500 
L 1159 2956 
Q 1366 3272 1645 3428 
Q 1925 3584 2291 3584 
Q 2894 3584 3203 3211 
Q 3513 2838 3513 2113 
z
" transform="scale(0.015625)"/>
      <path id="DejaVuSans-76" d="M 191 3500 
L 800 3500 
L 1894 563 
L 2988 3500 
L 3597 3500 
L 2284 0 
L 1503 0 
L 191 3500 
z
" transform="scale(0.015625)"/>
      <path id="DejaVuSans-69" d="M 603 3500 
L 1178 3500 
L 1178 0 
L 603 0 
L 603 3500 
z
M 603 4863 
L 1178 4863 
L 1178 4134 
L 603 4134 
L 603 4863 
z
" transform="scale(0.015625)"/>
      <path id="DejaVuSans-6d" d="M 3328 2828 
Q 3544 3216 3844 3400 
Q 4144 3584 4550 3584 
Q 5097 3584 5394 3201 
Q 5691 2819 5691 2113 
L 5691 0 
L 5113 0 
L 5113 2094 
Q 5113 2597 4934 2840 
Q 4756 3084 4391 3084 
Q 3944 3084 3684 2787 
Q 3425 2491 3425 1978 
L 3425 0 
L 2847 0 
L 2847 2094 
Q 2847 2600 2669 2842 
Q 2491 3084 2119 3084 
Q 1678 3084 1418 2786 
Q 1159 2488 1159 1978 
L 1159 0 
L 581 0 
L 581 3500 
L 1159 3500 
L 1159 2956 
Q 1356 3278 1631 3431 
Q 1906 3584 2284 3584 
Q 2666 3584 2933 3390 
Q 3200 3197 3328 2828 
z
" transform="scale(0.015625)"/>
      <path id="DejaVuSans-74" d="M 1172 4494 
L 1172 3500 
L 2356 3500 
L 2356 3053 
L 1172 3053 
L 1172 1153 
Q 1172 725 1289 603 
Q 1406 481 1766 481 
L 2356 481 
L 2356 0 
L 1766 0 
Q 1100 0 847 248 
Q 594 497 594 1153 
L 594 3053 
L 172 3053 
L 172 3500 
L 594 3500 
L 594 4494 
L 1172 4494 
z
" transform="scale(0.015625)"/>
      <path id="DejaVuSans-61" d="M 2194 1759 
Q 1497 1759 1228 1600 
Q 959 1441 959 1056 
Q 959 750 1161 570 
Q 1363 391 1709 391 
Q 2188 391 2477 730 
Q 2766 1069 2766 1631 
L 2766 1759 
L 2194 1759 
z
M 3341 1997 
L 3341 0 
L 2766 0 
L 2766 531 
Q 2569 213 2275 61 
Q 1981 -91 1556 -91 
Q 1019 -91 701 211 
Q 384 513 384 1019 
Q 384 1609 779 1909 
Q 1175 2209 1959 2209 
L 2766 2209 
L 2766 2266 
Q 2766 2663 2505 2880 
Q 2244 3097 1772 3097 
Q 1472 3097 1187 3025 
Q 903 2953 641 2809 
L 641 3341 
Q 956 3463 1253 3523 
Q 1550 3584 1831 3584 
Q 2591 3584 2966 3190 
Q 3341 2797 3341 1997 
z
" transform="scale(0.015625)"/>
      <path id="DejaVuSans-62" d="M 3116 1747 
Q 3116 2381 2855 2742 
Q 2594 3103 2138 3103 
Q 1681 3103 1420 2742 
Q 1159 2381 1159 1747 
Q 1159 1113 1420 752 
Q 1681 391 2138 391 
Q 2594 391 2855 752 
Q 3116 1113 3116 1747 
z
M 1159 2969 
Q 1341 3281 1617 3432 
Q 1894 3584 2278 3584 
Q 2916 3584 3314 3078 
Q 3713 2572 3713 1747 
Q 3713 922 3314 415 
Q 2916 -91 2278 -91 
Q 1894 -91 1617 61 
Q 1341 213 1159 525 
L 1159 0 
L 581 0 
L 581 4863 
L 1159 4863 
L 1159 2969 
z
" transform="scale(0.015625)"/>
      <path id="DejaVuSans-6c" d="M 603 4863 
L 1178 4863 
L 1178 0 
L 603 0 
L 603 4863 
z
" transform="scale(0.015625)"/>
     </defs>
     <use xlink:href="#DejaVuSans-45"/>
     <use xlink:href="#DejaVuSans-6e" x="63.183594"/>
     <use xlink:href="#DejaVuSans-76" x="126.5625"/>
     <use xlink:href="#DejaVuSans-69" x="185.742188"/>
     <use xlink:href="#DejaVuSans-72" x="213.525391"/>
     <use xlink:href="#DejaVuSans-6f" x="252.388672"/>
     <use xlink:href="#DejaVuSans-6e" x="313.570312"/>
     <use xlink:href="#DejaVuSans-6d" x="376.949219"/>
     <use xlink:href="#DejaVuSans-65" x="474.361328"/>
     <use xlink:href="#DejaVuSans-6e" x="535.884766"/>
     <use xlink:href="#DejaVuSans-74" x="599.263672"/>
     <use xlink:href="#DejaVuSans-20" x="638.472656"/>
     <use xlink:href="#DejaVuSans-76" x="670.259766"/>
     <use xlink:href="#DejaVuSans-61" x="729.439453"/>
     <use xlink:href="#DejaVuSans-72" x="790.71875"/>
     <use xlink:href="#DejaVuSans-69" x="831.832031"/>
     <use xlink:href="#DejaVuSans-61" x="859.615234"/>
     <use xlink:href="#DejaVuSans-62" x="920.894531"/>
     <use xlink:href="#DejaVuSans-6c" x="984.371094"/>
     <use xlink:href="#DejaVuSans-65" x="1012.154297"/>
     <use xlink:href="#DejaVuSans-73" x="1073.677734"/>
    </g>
   </g>
   <g id="legend_1">
    <g id="patch_7">
     <path d="M 535.171875 148.743125 
L 641 148.743125 
Q 643 148.743125 643 146.743125 
L 643 58.84 
Q 643 56.84 641 56.84 
L 535.171875 56.84 
Q 533.171875 56.84 533.171875 58.84 
L 533.171875 146.743125 
Q 533.171875 148.743125 535.171875 148.743125 
z
" style="fill: #ffffff; opacity: 0.8; stroke: #cccccc; stroke-linejoin: miter"/>
    </g>
    <g id="line2d_32">
     <path d="M 537.171875 64.938437 
L 547.171875 64.938437 
L 557.171875 64.938437 
" style="fill: none; stroke: #1f77b4; stroke-width: 1.5; stroke-linecap: square"/>
    </g>
    <g id="text_17">
     <!-- solar_potential -->
     <g transform="translate(565.171875 68.438437) scale(0.1 -0.1)">
      <defs>
       <path id="DejaVuSans-5f" d="M 3263 -1063 
L 3263 -1509 
L -63 -1509 
L -63 -1063 
L 3263 -1063 
z
" transform="scale(0.015625)"/>
       <path id="DejaVuSans-70" d="M 1159 525 
L 1159 -1331 
L 581 -1331 
L 581 3500 
L 1159 3500 
L 1159 2969 
Q 1341 3281 1617 3432 
Q 1894 3584 2278 3584 
Q 2916 3584 3314 3078 
Q 3713 2572 3713 1747 
Q 3713 922 3314 415 
Q 2916 -91 2278 -91 
Q 1894 -91 1617 61 
Q 1341 213 1159 525 
z
M 3116 1747 
Q 3116 2381 2855 2742 
Q 2594 3103 2138 3103 
Q 1681 3103 1420 2742 
Q 1159 2381 1159 1747 
Q 1159 1113 1420 752 
Q 1681 391 2138 391 
Q 2594 391 2855 752 
Q 3116 1113 3116 1747 
z
" transform="scale(0.015625)"/>
      </defs>
      <use xlink:href="#DejaVuSans-73"/>
      <use xlink:href="#DejaVuSans-6f" x="52.099609"/>
      <use xlink:href="#DejaVuSans-6c" x="113.28125"/>
      <use xlink:href="#DejaVuSans-61" x="141.064453"/>
      <use xlink:href="#DejaVuSans-72" x="202.34375"/>
      <use xlink:href="#DejaVuSans-5f" x="243.457031"/>
      <use xlink:href="#DejaVuSans-70" x="293.457031"/>
      <use xlink:href="#DejaVuSans-6f" x="356.933594"/>
      <use xlink:href="#DejaVuSans-74" x="418.115234"/>
      <use xlink:href="#DejaVuSans-65" x="457.324219"/>
      <use xlink:href="#DejaVuSans-6e" x="518.847656"/>
      <use xlink:href="#DejaVuSans-74" x="582.226562"/>
      <use xlink:href="#DejaVuSans-69" x="621.435547"/>
      <use xlink:href="#DejaVuSans-61" x="649.21875"/>
      <use xlink:href="#DejaVuSans-6c" x="710.498047"/>
     </g>
    </g>
    <g id="line2d_33">
     <path d="M 537.171875 79.894687 
L 547.171875 79.894687 
L 557.171875 79.894687 
" style="fill: none; stroke: #ff7f0e; stroke-width: 1.5; stroke-linecap: square"/>
    </g>
    <g id="text_18">
     <!-- demand -->
     <g transform="translate(565.171875 83.394687) scale(0.1 -0.1)">
      <defs>
       <path id="DejaVuSans-64" d="M 2906 2969 
L 2906 4863 
L 3481 4863 
L 3481 0 
L 2906 0 
L 2906 525 
Q 2725 213 2448 61 
Q 2172 -91 1784 -91 
Q 1150 -91 751 415 
Q 353 922 353 1747 
Q 353 2572 751 3078 
Q 1150 3584 1784 3584 
Q 2172 3584 2448 3432 
Q 2725 3281 2906 2969 
z
M 947 1747 
Q 947 1113 1208 752 
Q 1469 391 1925 391 
Q 2381 391 2643 752 
Q 2906 1113 2906 1747 
Q 2906 2381 2643 2742 
Q 2381 3103 1925 3103 
Q 1469 3103 1208 2742 
Q 947 2381 947 1747 
z
" transform="scale(0.015625)"/>
      </defs>
      <use xlink:href="#DejaVuSans-64"/>
      <use xlink:href="#DejaVuSans-65" x="63.476562"/>
      <use xlink:href="#DejaVuSans-6d" x="125"/>
      <use xlink:href="#DejaVuSans-61" x="222.412109"/>
      <use xlink:href="#DejaVuSans-6e" x="283.691406"/>
      <use xlink:href="#DejaVuSans-64" x="347.070312"/>
     </g>
    </g>
    <g id="line2d_34">
     <path d="M 537.171875 94.572812 
L 547.171875 94.572812 
L 557.171875 94.572812 
" style="fill: none; stroke: #2ca02c; stroke-width: 1.5; stroke-linecap: square"/>
    </g>
    <g id="text_19">
     <!-- grid -->
     <g transform="translate(565.171875 98.072812) scale(0.1 -0.1)">
      <defs>
       <path id="DejaVuSans-67" d="M 2906 1791 
Q 2906 2416 2648 2759 
Q 2391 3103 1925 3103 
Q 1463 3103 1205 2759 
Q 947 2416 947 1791 
Q 947 1169 1205 825 
Q 1463 481 1925 481 
Q 2391 481 2648 825 
Q 2906 1169 2906 1791 
z
M 3481 434 
Q 3481 -459 3084 -895 
Q 2688 -1331 1869 -1331 
Q 1566 -1331 1297 -1286 
Q 1028 -1241 775 -1147 
L 775 -588 
Q 1028 -725 1275 -790 
Q 1522 -856 1778 -856 
Q 2344 -856 2625 -561 
Q 2906 -266 2906 331 
L 2906 616 
Q 2728 306 2450 153 
Q 2172 0 1784 0 
Q 1141 0 747 490 
Q 353 981 353 1791 
Q 353 2603 747 3093 
Q 1141 3584 1784 3584 
Q 2172 3584 2450 3431 
Q 2728 3278 2906 2969 
L 2906 3500 
L 3481 3500 
L 3481 434 
z
" transform="scale(0.015625)"/>
      </defs>
      <use xlink:href="#DejaVuSans-67"/>
      <use xlink:href="#DejaVuSans-72" x="63.476562"/>
      <use xlink:href="#DejaVuSans-69" x="104.589844"/>
      <use xlink:href="#DejaVuSans-64" x="132.373047"/>
     </g>
    </g>
    <g id="line2d_35">
     <path d="M 537.171875 109.250937 
L 547.171875 109.250937 
L 557.171875 109.250937 
" style="fill: none; stroke: #d62728; stroke-width: 1.5; stroke-linecap: square"/>
    </g>
    <g id="text_20">
     <!-- wind_potential -->
     <g transform="translate(565.171875 112.750937) scale(0.1 -0.1)">
      <use xlink:href="#DejaVuSans-77"/>
      <use xlink:href="#DejaVuSans-69" x="81.787109"/>
      <use xlink:href="#DejaVuSans-6e" x="109.570312"/>
      <use xlink:href="#DejaVuSans-64" x="172.949219"/>
      <use xlink:href="#DejaVuSans-5f" x="236.425781"/>
      <use xlink:href="#DejaVuSans-70" x="286.425781"/>
      <use xlink:href="#DejaVuSans-6f" x="349.902344"/>
      <use xlink:href="#DejaVuSans-74" x="411.083984"/>
      <use xlink:href="#DejaVuSans-65" x="450.292969"/>
      <use xlink:href="#DejaVuSans-6e" x="511.816406"/>
      <use xlink:href="#DejaVuSans-74" x="575.195312"/>
      <use xlink:href="#DejaVuSans-69" x="614.404297"/>
      <use xlink:href="#DejaVuSans-61" x="642.1875"/>
      <use xlink:href="#DejaVuSans-6c" x="703.466797"/>
     </g>
    </g>
    <g id="line2d_36">
     <path d="M 537.171875 124.207187 
L 547.171875 124.207187 
L 557.171875 124.207187 
" style="fill: none; stroke: #9467bd; stroke-width: 1.5; stroke-linecap: square"/>
    </g>
    <g id="text_21">
     <!-- price -->
     <g transform="translate(565.171875 127.707187) scale(0.1 -0.1)">
      <defs>
       <path id="DejaVuSans-63" d="M 3122 3366 
L 3122 2828 
Q 2878 2963 2633 3030 
Q 2388 3097 2138 3097 
Q 1578 3097 1268 2742 
Q 959 2388 959 1747 
Q 959 1106 1268 751 
Q 1578 397 2138 397 
Q 2388 397 2633 464 
Q 2878 531 3122 666 
L 3122 134 
Q 2881 22 2623 -34 
Q 2366 -91 2075 -91 
Q 1284 -91 818 406 
Q 353 903 353 1747 
Q 353 2603 823 3093 
Q 1294 3584 2113 3584 
Q 2378 3584 2631 3529 
Q 2884 3475 3122 3366 
z
" transform="scale(0.015625)"/>
      </defs>
      <use xlink:href="#DejaVuSans-70"/>
      <use xlink:href="#DejaVuSans-72" x="63.476562"/>
      <use xlink:href="#DejaVuSans-69" x="104.589844"/>
      <use xlink:href="#DejaVuSans-63" x="132.373047"/>
      <use xlink:href="#DejaVuSans-65" x="187.353516"/>
     </g>
    </g>
    <g id="line2d_37">
     <path d="M 537.171875 138.885312 
L 547.171875 138.885312 
L 557.171875 138.885312 
" style="fill: none; stroke-dasharray: 7.4,3.2; stroke-dashoffset: 0; stroke: #ff7f0e; stroke-width: 2"/>
    </g>
    <g id="text_22">
     <!-- bat_soc [%] -->
     <g transform="translate(565.171875 142.385312) scale(0.1 -0.1)">
      <defs>
       <path id="DejaVuSans-25" d="M 4653 2053 
Q 4381 2053 4226 1822 
Q 4072 1591 4072 1178 
Q 4072 772 4226 539 
Q 4381 306 4653 306 
Q 4919 306 5073 539 
Q 5228 772 5228 1178 
Q 5228 1588 5073 1820 
Q 4919 2053 4653 2053 
z
M 4653 2450 
Q 5147 2450 5437 2106 
Q 5728 1763 5728 1178 
Q 5728 594 5436 251 
Q 5144 -91 4653 -91 
Q 4153 -91 3862 251 
Q 3572 594 3572 1178 
Q 3572 1766 3864 2108 
Q 4156 2450 4653 2450 
z
M 1428 4353 
Q 1159 4353 1004 4120 
Q 850 3888 850 3481 
Q 850 3069 1003 2837 
Q 1156 2606 1428 2606 
Q 1700 2606 1854 2837 
Q 2009 3069 2009 3481 
Q 2009 3884 1853 4118 
Q 1697 4353 1428 4353 
z
M 4250 4750 
L 4750 4750 
L 1831 -91 
L 1331 -91 
L 4250 4750 
z
M 1428 4750 
Q 1922 4750 2215 4408 
Q 2509 4066 2509 3481 
Q 2509 2891 2217 2550 
Q 1925 2209 1428 2209 
Q 931 2209 642 2551 
Q 353 2894 353 3481 
Q 353 4063 643 4406 
Q 934 4750 1428 4750 
z
" transform="scale(0.015625)"/>
      </defs>
      <use xlink:href="#DejaVuSans-62"/>
      <use xlink:href="#DejaVuSans-61" x="63.476562"/>
      <use xlink:href="#DejaVuSans-74" x="124.755859"/>
      <use xlink:href="#DejaVuSans-5f" x="163.964844"/>
      <use xlink:href="#DejaVuSans-73" x="213.964844"/>
      <use xlink:href="#DejaVuSans-6f" x="266.064453"/>
      <use xlink:href="#DejaVuSans-63" x="327.246094"/>
      <use xlink:href="#DejaVuSans-20" x="382.226562"/>
      <use xlink:href="#DejaVuSans-5b" x="414.013672"/>
      <use xlink:href="#DejaVuSans-25" x="453.027344"/>
      <use xlink:href="#DejaVuSans-5d" x="548.046875"/>
     </g>
    </g>
   </g>
  </g>
  <g id="axes_2">
   <g id="matplotlib.axis_3">
    <g id="ytick_9">
     <g id="line2d_38">
      <defs>
       <path id="m1796f35b4a" d="M 0 0 
L 3.5 0 
" style="stroke: #000000; stroke-width: 0.8"/>
      </defs>
      <g>
       <use xlink:href="#m1796f35b4a" x="648" y="384.48" style="stroke: #000000; stroke-width: 0.8"/>
      </g>
     </g>
     <g id="text_23">
      <!-- 0 -->
      <g transform="translate(655 388.279219) scale(0.1 -0.1)">
       <use xlink:href="#DejaVuSans-30"/>
      </g>
     </g>
    </g>
    <g id="ytick_10">
     <g id="line2d_39">
      <g>
       <use xlink:href="#m1796f35b4a" x="648" y="317.952" style="stroke: #000000; stroke-width: 0.8"/>
      </g>
     </g>
     <g id="text_24">
      <!-- 20 -->
      <g transform="translate(655 321.751219) scale(0.1 -0.1)">
       <use xlink:href="#DejaVuSans-32"/>
       <use xlink:href="#DejaVuSans-30" x="63.623047"/>
      </g>
     </g>
    </g>
    <g id="ytick_11">
     <g id="line2d_40">
      <g>
       <use xlink:href="#m1796f35b4a" x="648" y="251.424" style="stroke: #000000; stroke-width: 0.8"/>
      </g>
     </g>
     <g id="text_25">
      <!-- 40 -->
      <g transform="translate(655 255.223219) scale(0.1 -0.1)">
       <use xlink:href="#DejaVuSans-34"/>
       <use xlink:href="#DejaVuSans-30" x="63.623047"/>
      </g>
     </g>
    </g>
    <g id="ytick_12">
     <g id="line2d_41">
      <g>
       <use xlink:href="#m1796f35b4a" x="648" y="184.896" style="stroke: #000000; stroke-width: 0.8"/>
      </g>
     </g>
     <g id="text_26">
      <!-- 60 -->
      <g transform="translate(655 188.695219) scale(0.1 -0.1)">
       <use xlink:href="#DejaVuSans-36"/>
       <use xlink:href="#DejaVuSans-30" x="63.623047"/>
      </g>
     </g>
    </g>
    <g id="ytick_13">
     <g id="line2d_42">
      <g>
       <use xlink:href="#m1796f35b4a" x="648" y="118.368" style="stroke: #000000; stroke-width: 0.8"/>
      </g>
     </g>
     <g id="text_27">
      <!-- 80 -->
      <g transform="translate(655 122.167219) scale(0.1 -0.1)">
       <use xlink:href="#DejaVuSans-38"/>
       <use xlink:href="#DejaVuSans-30" x="63.623047"/>
      </g>
     </g>
    </g>
    <g id="ytick_14">
     <g id="line2d_43">
      <g>
       <use xlink:href="#m1796f35b4a" x="648" y="51.84" style="stroke: #000000; stroke-width: 0.8"/>
      </g>
     </g>
     <g id="text_28">
      <!-- 100 -->
      <g transform="translate(655 55.639219) scale(0.1 -0.1)">
       <use xlink:href="#DejaVuSans-31"/>
       <use xlink:href="#DejaVuSans-30" x="63.623047"/>
       <use xlink:href="#DejaVuSans-30" x="127.246094"/>
      </g>
     </g>
    </g>
    <g id="text_29">
     <!-- State of Charge [%] -->
     <g transform="translate(685.685938 267.577187) rotate(-90) scale(0.1 -0.1)">
      <defs>
       <path id="DejaVuSans-53" d="M 3425 4513 
L 3425 3897 
Q 3066 4069 2747 4153 
Q 2428 4238 2131 4238 
Q 1616 4238 1336 4038 
Q 1056 3838 1056 3469 
Q 1056 3159 1242 3001 
Q 1428 2844 1947 2747 
L 2328 2669 
Q 3034 2534 3370 2195 
Q 3706 1856 3706 1288 
Q 3706 609 3251 259 
Q 2797 -91 1919 -91 
Q 1588 -91 1214 -16 
Q 841 59 441 206 
L 441 856 
Q 825 641 1194 531 
Q 1563 422 1919 422 
Q 2459 422 2753 634 
Q 3047 847 3047 1241 
Q 3047 1584 2836 1778 
Q 2625 1972 2144 2069 
L 1759 2144 
Q 1053 2284 737 2584 
Q 422 2884 422 3419 
Q 422 4038 858 4394 
Q 1294 4750 2059 4750 
Q 2388 4750 2728 4690 
Q 3069 4631 3425 4513 
z
" transform="scale(0.015625)"/>
       <path id="DejaVuSans-66" d="M 2375 4863 
L 2375 4384 
L 1825 4384 
Q 1516 4384 1395 4259 
Q 1275 4134 1275 3809 
L 1275 3500 
L 2222 3500 
L 2222 3053 
L 1275 3053 
L 1275 0 
L 697 0 
L 697 3053 
L 147 3053 
L 147 3500 
L 697 3500 
L 697 3744 
Q 697 4328 969 4595 
Q 1241 4863 1831 4863 
L 2375 4863 
z
" transform="scale(0.015625)"/>
       <path id="DejaVuSans-43" d="M 4122 4306 
L 4122 3641 
Q 3803 3938 3442 4084 
Q 3081 4231 2675 4231 
Q 1875 4231 1450 3742 
Q 1025 3253 1025 2328 
Q 1025 1406 1450 917 
Q 1875 428 2675 428 
Q 3081 428 3442 575 
Q 3803 722 4122 1019 
L 4122 359 
Q 3791 134 3420 21 
Q 3050 -91 2638 -91 
Q 1578 -91 968 557 
Q 359 1206 359 2328 
Q 359 3453 968 4101 
Q 1578 4750 2638 4750 
Q 3056 4750 3426 4639 
Q 3797 4528 4122 4306 
z
" transform="scale(0.015625)"/>
       <path id="DejaVuSans-68" d="M 3513 2113 
L 3513 0 
L 2938 0 
L 2938 2094 
Q 2938 2591 2744 2837 
Q 2550 3084 2163 3084 
Q 1697 3084 1428 2787 
Q 1159 2491 1159 1978 
L 1159 0 
L 581 0 
L 581 4863 
L 1159 4863 
L 1159 2956 
Q 1366 3272 1645 3428 
Q 1925 3584 2291 3584 
Q 2894 3584 3203 3211 
Q 3513 2838 3513 2113 
z
" transform="scale(0.015625)"/>
      </defs>
      <use xlink:href="#DejaVuSans-53"/>
      <use xlink:href="#DejaVuSans-74" x="63.476562"/>
      <use xlink:href="#DejaVuSans-61" x="102.685547"/>
      <use xlink:href="#DejaVuSans-74" x="163.964844"/>
      <use xlink:href="#DejaVuSans-65" x="203.173828"/>
      <use xlink:href="#DejaVuSans-20" x="264.697266"/>
      <use xlink:href="#DejaVuSans-6f" x="296.484375"/>
      <use xlink:href="#DejaVuSans-66" x="357.666016"/>
      <use xlink:href="#DejaVuSans-20" x="392.871094"/>
      <use xlink:href="#DejaVuSans-43" x="424.658203"/>
      <use xlink:href="#DejaVuSans-68" x="494.482422"/>
      <use xlink:href="#DejaVuSans-61" x="557.861328"/>
      <use xlink:href="#DejaVuSans-72" x="619.140625"/>
      <use xlink:href="#DejaVuSans-67" x="658.503906"/>
      <use xlink:href="#DejaVuSans-65" x="721.980469"/>
      <use xlink:href="#DejaVuSans-20" x="783.503906"/>
      <use xlink:href="#DejaVuSans-5b" x="815.291016"/>
      <use xlink:href="#DejaVuSans-25" x="854.304688"/>
      <use xlink:href="#DejaVuSans-5d" x="949.324219"/>
     </g>
    </g>
   </g>
   <g id="patch_8">
    <path d="M 90 384.48 
L 90 51.84 
" style="fill: none; stroke: #000000; stroke-width: 0.8; stroke-linejoin: miter; stroke-linecap: square"/>
   </g>
   <g id="patch_9">
    <path d="M 648 384.48 
L 648 51.84 
" style="fill: none; stroke: #000000; stroke-width: 0.8; stroke-linejoin: miter; stroke-linecap: square"/>
   </g>
   <g id="patch_10">
    <path d="M 90 384.48 
L 648 384.48 
" style="fill: none; stroke: #000000; stroke-width: 0.8; stroke-linejoin: miter; stroke-linecap: square"/>
   </g>
   <g id="patch_11">
    <path d="M 90 51.84 
L 648 51.84 
" style="fill: none; stroke: #000000; stroke-width: 0.8; stroke-linejoin: miter; stroke-linecap: square"/>
   </g>
   <g id="line2d_44">
    <path d="M 115.363636 51.84 
L 120.703349 59.136642 
L 126.043062 65.774745 
L 131.382775 72.620748 
L 136.722488 73.557504 
L 142.062201 74.535394 
L 147.401914 71.181716 
L 152.741627 60.411702 
L 158.08134 51.84 
L 163.421053 51.84 
L 168.760766 51.84 
L 174.100478 51.84 
L 179.440191 51.84 
L 184.779904 51.84 
L 190.119617 51.84 
L 195.45933 51.84 
L 200.799043 51.84 
L 206.138756 51.84 
L 211.478469 51.84 
L 216.818182 51.84 
L 222.157895 51.84 
L 227.497608 54.696328 
L 232.837321 59.293882 
L 238.177033 65.468582 
L 243.516746 72.754496 
L 248.856459 93.616687 
L 254.196172 113.044676 
L 259.535885 130.478641 
L 264.875598 144.463915 
L 270.215311 156.067047 
L 275.555024 164.204147 
L 280.894737 171.039337 
L 286.23445 167.442009 
L 291.574163 145.95825 
L 296.913876 140.801543 
L 302.253589 133.407711 
L 307.593301 124.5305 
L 312.933014 95.989226 
L 318.272727 68.858996 
L 323.61244 51.84 
L 328.952153 51.84 
L 334.291866 51.84 
L 339.631579 54.095143 
L 344.971292 62.452801 
L 350.311005 78.405032 
L 355.650718 97.41877 
L 360.990431 117.164822 
L 366.330144 136.572414 
L 371.669856 154.261054 
L 377.009569 171.876514 
L 382.349282 190.083531 
L 387.688995 208.214857 
L 393.028708 226.131399 
L 398.368421 245.009488 
L 403.708134 263.993547 
L 409.047847 284.233459 
L 414.38756 306.24895 
L 419.727273 306.24895 
L 425.066986 306.24895 
L 430.406699 306.24895 
L 435.746411 306.24895 
L 441.086124 306.24895 
L 446.425837 306.24895 
L 451.76555 298.341033 
L 457.105263 281.380372 
L 462.444976 296.08333 
L 467.784689 321.908668 
L 473.124402 321.908668 
L 478.464115 321.908668 
L 483.803828 321.908668 
L 489.143541 321.908668 
L 494.483254 321.908668 
L 499.822967 321.908668 
L 505.162679 321.908668 
L 510.502392 321.908668 
L 515.842105 321.908668 
L 521.181818 321.908668 
L 526.521531 321.908668 
L 531.861244 321.908668 
L 537.200957 321.908668 
L 542.54067 321.908668 
L 547.880383 321.908668 
L 553.220096 321.908668 
L 558.559809 321.908668 
L 563.899522 316.100076 
L 569.239234 316.100076 
L 574.578947 316.100076 
L 579.91866 316.100076 
L 585.258373 316.100076 
L 590.598086 316.100076 
L 595.937799 316.100076 
L 601.277512 316.100076 
L 606.617225 316.100076 
L 611.956938 316.100076 
L 617.296651 316.100076 
L 622.636364 316.100076 
" clip-path="url(#p648ba340a6)" style="fill: none; stroke-dasharray: 7.4,3.2; stroke-dashoffset: 0; stroke: #ff7f0e; stroke-width: 2"/>
   </g>
  </g>
 </g>
 <defs>
  <clipPath id="p648ba340a6">
   <rect x="90" y="51.84" width="558" height="332.64"/>
  </clipPath>
 </defs>
</svg>
