<?xml version="1.0" encoding="utf-8" standalone="no"?>
<!DOCTYPE svg PUBLIC "-//W3C//DTD SVG 1.1//EN"
  "http://www.w3.org/Graphics/SVG/1.1/DTD/svg11.dtd">
<svg xmlns:xlink="http://www.w3.org/1999/xlink" width="720pt" height="432pt" viewBox="0 0 720 432" xmlns="http://www.w3.org/2000/svg" version="1.1">
 <metadata>
  <rdf:RDF xmlns:dc="http://purl.org/dc/elements/1.1/" xmlns:cc="http://creativecommons.org/ns#" xmlns:rdf="http://www.w3.org/1999/02/22-rdf-syntax-ns#">
   <cc:Work>
    <dc:type rdf:resource="http://purl.org/dc/dcmitype/StillImage"/>
    <dc:date>2025-07-04T14:28:52.286534</dc:date>
    <dc:format>image/svg+xml</dc:format>
    <dc:creator>
     <cc:Agent>
      <dc:title>Matplotlib v3.8.4, https://matplotlib.org/</dc:title>
     </cc:Agent>
    </dc:creator>
   </cc:Work>
  </rdf:RDF>
 </metadata>
 <defs>
  <style type="text/css">*{stroke-linejoin: round; stroke-linecap: butt}</style>
 </defs>
 <g id="figure_1">
  <g id="patch_1">
   <path d="M 0 432 
L 720 432 
L 720 0 
L 0 0 
z
" style="fill: #ffffff"/>
  </g>
  <g id="axes_1">
   <g id="patch_2">
    <path d="M 51.05 390.04 
L 709.2 390.04 
L 709.2 25.44 
L 51.05 25.44 
z
" style="fill: #ffffff"/>
   </g>
   <g id="matplotlib.axis_1">
    <g id="xtick_1">
     <g id="line2d_1">
      <path d="M 80.965909 390.04 
L 80.965909 25.44 
" clip-path="url(#p3c3de20163)" style="fill: none; stroke: #b0b0b0; stroke-width: 0.8; stroke-linecap: square"/>
     </g>
     <g id="line2d_2">
      <defs>
       <path id="m43bf36f01f" d="M 0 0 
L 0 3.5 
" style="stroke: #000000; stroke-width: 0.8"/>
      </defs>
      <g>
       <use xlink:href="#m43bf36f01f" x="80.965909" y="390.04" style="stroke: #000000; stroke-width: 0.8"/>
      </g>
     </g>
     <g id="text_1">
      <!-- 0 -->
      <g transform="translate(77.784659 404.638438) scale(0.1 -0.1)">
       <defs>
        <path id="DejaVuSans-30" d="M 2034 4250 
Q 1547 4250 1301 3770 
Q 1056 3291 1056 2328 
Q 1056 1369 1301 889 
Q 1547 409 2034 409 
Q 2525 409 2770 889 
Q 3016 1369 3016 2328 
Q 3016 3291 2770 3770 
Q 2525 4250 2034 4250 
z
M 2034 4750 
Q 2819 4750 3233 4129 
Q 3647 3509 3647 2328 
Q 3647 1150 3233 529 
Q 2819 -91 2034 -91 
Q 1250 -91 836 529 
Q 422 1150 422 2328 
Q 422 3509 836 4129 
Q 1250 4750 2034 4750 
z
" transform="scale(0.015625)"/>
       </defs>
       <use xlink:href="#DejaVuSans-30"/>
      </g>
     </g>
    </g>
    <g id="xtick_2">
     <g id="line2d_3">
      <path d="M 201.838269 390.04 
L 201.838269 25.44 
" clip-path="url(#p3c3de20163)" style="fill: none; stroke: #b0b0b0; stroke-width: 0.8; stroke-linecap: square"/>
     </g>
     <g id="line2d_4">
      <g>
       <use xlink:href="#m43bf36f01f" x="201.838269" y="390.04" style="stroke: #000000; stroke-width: 0.8"/>
      </g>
     </g>
     <g id="text_2">
      <!-- 20 -->
      <g transform="translate(195.475769 404.638438) scale(0.1 -0.1)">
       <defs>
        <path id="DejaVuSans-32" d="M 1228 531 
L 3431 531 
L 3431 0 
L 469 0 
L 469 531 
Q 828 903 1448 1529 
Q 2069 2156 2228 2338 
Q 2531 2678 2651 2914 
Q 2772 3150 2772 3378 
Q 2772 3750 2511 3984 
Q 2250 4219 1831 4219 
Q 1534 4219 1204 4116 
Q 875 4013 500 3803 
L 500 4441 
Q 881 4594 1212 4672 
Q 1544 4750 1819 4750 
Q 2544 4750 2975 4387 
Q 3406 4025 3406 3419 
Q 3406 3131 3298 2873 
Q 3191 2616 2906 2266 
Q 2828 2175 2409 1742 
Q 1991 1309 1228 531 
z
" transform="scale(0.015625)"/>
       </defs>
       <use xlink:href="#DejaVuSans-32"/>
       <use xlink:href="#DejaVuSans-30" x="63.623047"/>
      </g>
     </g>
    </g>
    <g id="xtick_3">
     <g id="line2d_5">
      <path d="M 322.710629 390.04 
L 322.710629 25.44 
" clip-path="url(#p3c3de20163)" style="fill: none; stroke: #b0b0b0; stroke-width: 0.8; stroke-linecap: square"/>
     </g>
     <g id="line2d_6">
      <g>
       <use xlink:href="#m43bf36f01f" x="322.710629" y="390.04" style="stroke: #000000; stroke-width: 0.8"/>
      </g>
     </g>
     <g id="text_3">
      <!-- 40 -->
      <g transform="translate(316.348129 404.638438) scale(0.1 -0.1)">
       <defs>
        <path id="DejaVuSans-34" d="M 2419 4116 
L 825 1625 
L 2419 1625 
L 2419 4116 
z
M 2253 4666 
L 3047 4666 
L 3047 1625 
L 3713 1625 
L 3713 1100 
L 3047 1100 
L 3047 0 
L 2419 0 
L 2419 1100 
L 313 1100 
L 313 1709 
L 2253 4666 
z
" transform="scale(0.015625)"/>
       </defs>
       <use xlink:href="#DejaVuSans-34"/>
       <use xlink:href="#DejaVuSans-30" x="63.623047"/>
      </g>
     </g>
    </g>
    <g id="xtick_4">
     <g id="line2d_7">
      <path d="M 443.582989 390.04 
L 443.582989 25.44 
" clip-path="url(#p3c3de20163)" style="fill: none; stroke: #b0b0b0; stroke-width: 0.8; stroke-linecap: square"/>
     </g>
     <g id="line2d_8">
      <g>
       <use xlink:href="#m43bf36f01f" x="443.582989" y="390.04" style="stroke: #000000; stroke-width: 0.8"/>
      </g>
     </g>
     <g id="text_4">
      <!-- 60 -->
      <g transform="translate(437.220489 404.638438) scale(0.1 -0.1)">
       <defs>
        <path id="DejaVuSans-36" d="M 2113 2584 
Q 1688 2584 1439 2293 
Q 1191 2003 1191 1497 
Q 1191 994 1439 701 
Q 1688 409 2113 409 
Q 2538 409 2786 701 
Q 3034 994 3034 1497 
Q 3034 2003 2786 2293 
Q 2538 2584 2113 2584 
z
M 3366 4563 
L 3366 3988 
Q 3128 4100 2886 4159 
Q 2644 4219 2406 4219 
Q 1781 4219 1451 3797 
Q 1122 3375 1075 2522 
Q 1259 2794 1537 2939 
Q 1816 3084 2150 3084 
Q 2853 3084 3261 2657 
Q 3669 2231 3669 1497 
Q 3669 778 3244 343 
Q 2819 -91 2113 -91 
Q 1303 -91 875 529 
Q 447 1150 447 2328 
Q 447 3434 972 4092 
Q 1497 4750 2381 4750 
Q 2619 4750 2861 4703 
Q 3103 4656 3366 4563 
z
" transform="scale(0.015625)"/>
       </defs>
       <use xlink:href="#DejaVuSans-36"/>
       <use xlink:href="#DejaVuSans-30" x="63.623047"/>
      </g>
     </g>
    </g>
    <g id="xtick_5">
     <g id="line2d_9">
      <path d="M 564.455349 390.04 
L 564.455349 25.44 
" clip-path="url(#p3c3de20163)" style="fill: none; stroke: #b0b0b0; stroke-width: 0.8; stroke-linecap: square"/>
     </g>
     <g id="line2d_10">
      <g>
       <use xlink:href="#m43bf36f01f" x="564.455349" y="390.04" style="stroke: #000000; stroke-width: 0.8"/>
      </g>
     </g>
     <g id="text_5">
      <!-- 80 -->
      <g transform="translate(558.092849 404.638438) scale(0.1 -0.1)">
       <defs>
        <path id="DejaVuSans-38" d="M 2034 2216 
Q 1584 2216 1326 1975 
Q 1069 1734 1069 1313 
Q 1069 891 1326 650 
Q 1584 409 2034 409 
Q 2484 409 2743 651 
Q 3003 894 3003 1313 
Q 3003 1734 2745 1975 
Q 2488 2216 2034 2216 
z
M 1403 2484 
Q 997 2584 770 2862 
Q 544 3141 544 3541 
Q 544 4100 942 4425 
Q 1341 4750 2034 4750 
Q 2731 4750 3128 4425 
Q 3525 4100 3525 3541 
Q 3525 3141 3298 2862 
Q 3072 2584 2669 2484 
Q 3125 2378 3379 2068 
Q 3634 1759 3634 1313 
Q 3634 634 3220 271 
Q 2806 -91 2034 -91 
Q 1263 -91 848 271 
Q 434 634 434 1313 
Q 434 1759 690 2068 
Q 947 2378 1403 2484 
z
M 1172 3481 
Q 1172 3119 1398 2916 
Q 1625 2713 2034 2713 
Q 2441 2713 2670 2916 
Q 2900 3119 2900 3481 
Q 2900 3844 2670 4047 
Q 2441 4250 2034 4250 
Q 1625 4250 1398 4047 
Q 1172 3844 1172 3481 
z
" transform="scale(0.015625)"/>
       </defs>
       <use xlink:href="#DejaVuSans-38"/>
       <use xlink:href="#DejaVuSans-30" x="63.623047"/>
      </g>
     </g>
    </g>
    <g id="xtick_6">
     <g id="line2d_11">
      <path d="M 685.327709 390.04 
L 685.327709 25.44 
" clip-path="url(#p3c3de20163)" style="fill: none; stroke: #b0b0b0; stroke-width: 0.8; stroke-linecap: square"/>
     </g>
     <g id="line2d_12">
      <g>
       <use xlink:href="#m43bf36f01f" x="685.327709" y="390.04" style="stroke: #000000; stroke-width: 0.8"/>
      </g>
     </g>
     <g id="text_6">
      <!-- 100 -->
      <g transform="translate(675.783959 404.638438) scale(0.1 -0.1)">
       <defs>
        <path id="DejaVuSans-31" d="M 794 531 
L 1825 531 
L 1825 4091 
L 703 3866 
L 703 4441 
L 1819 4666 
L 2450 4666 
L 2450 531 
L 3481 531 
L 3481 0 
L 794 0 
L 794 531 
z
" transform="scale(0.015625)"/>
       </defs>
       <use xlink:href="#DejaVuSans-31"/>
       <use xlink:href="#DejaVuSans-30" x="63.623047"/>
       <use xlink:href="#DejaVuSans-30" x="127.246094"/>
      </g>
     </g>
    </g>
    <g id="text_7">
     <!-- Episode -->
     <g transform="translate(360.4875 418.316562) scale(0.1 -0.1)">
      <defs>
       <path id="DejaVuSans-45" d="M 628 4666 
L 3578 4666 
L 3578 4134 
L 1259 4134 
L 1259 2753 
L 3481 2753 
L 3481 2222 
L 1259 2222 
L 1259 531 
L 3634 531 
L 3634 0 
L 628 0 
L 628 4666 
z
" transform="scale(0.015625)"/>
       <path id="DejaVuSans-70" d="M 1159 525 
L 1159 -1331 
L 581 -1331 
L 581 3500 
L 1159 3500 
L 1159 2969 
Q 1341 3281 1617 3432 
Q 1894 3584 2278 3584 
Q 2916 3584 3314 3078 
Q 3713 2572 3713 1747 
Q 3713 922 3314 415 
Q 2916 -91 2278 -91 
Q 1894 -91 1617 61 
Q 1341 213 1159 525 
z
M 3116 1747 
Q 3116 2381 2855 2742 
Q 2594 3103 2138 3103 
Q 1681 3103 1420 2742 
Q 1159 2381 1159 1747 
Q 1159 1113 1420 752 
Q 1681 391 2138 391 
Q 2594 391 2855 752 
Q 3116 1113 3116 1747 
z
" transform="scale(0.015625)"/>
       <path id="DejaVuSans-69" d="M 603 3500 
L 1178 3500 
L 1178 0 
L 603 0 
L 603 3500 
z
M 603 4863 
L 1178 4863 
L 1178 4134 
L 603 4134 
L 603 4863 
z
" transform="scale(0.015625)"/>
       <path id="DejaVuSans-73" d="M 2834 3397 
L 2834 2853 
Q 2591 2978 2328 3040 
Q 2066 3103 1784 3103 
Q 1356 3103 1142 2972 
Q 928 2841 928 2578 
Q 928 2378 1081 2264 
Q 1234 2150 1697 2047 
L 1894 2003 
Q 2506 1872 2764 1633 
Q 3022 1394 3022 966 
Q 3022 478 2636 193 
Q 2250 -91 1575 -91 
Q 1294 -91 989 -36 
Q 684 19 347 128 
L 347 722 
Q 666 556 975 473 
Q 1284 391 1588 391 
Q 1994 391 2212 530 
Q 2431 669 2431 922 
Q 2431 1156 2273 1281 
Q 2116 1406 1581 1522 
L 1381 1569 
Q 847 1681 609 1914 
Q 372 2147 372 2553 
Q 372 3047 722 3315 
Q 1072 3584 1716 3584 
Q 2034 3584 2315 3537 
Q 2597 3491 2834 3397 
z
" transform="scale(0.015625)"/>
       <path id="DejaVuSans-6f" d="M 1959 3097 
Q 1497 3097 1228 2736 
Q 959 2375 959 1747 
Q 959 1119 1226 758 
Q 1494 397 1959 397 
Q 2419 397 2687 759 
Q 2956 1122 2956 1747 
Q 2956 2369 2687 2733 
Q 2419 3097 1959 3097 
z
M 1959 3584 
Q 2709 3584 3137 3096 
Q 3566 2609 3566 1747 
Q 3566 888 3137 398 
Q 2709 -91 1959 -91 
Q 1206 -91 779 398 
Q 353 888 353 1747 
Q 353 2609 779 3096 
Q 1206 3584 1959 3584 
z
" transform="scale(0.015625)"/>
       <path id="DejaVuSans-64" d="M 2906 2969 
L 2906 4863 
L 3481 4863 
L 3481 0 
L 2906 0 
L 2906 525 
Q 2725 213 2448 61 
Q 2172 -91 1784 -91 
Q 1150 -91 751 415 
Q 353 922 353 1747 
Q 353 2572 751 3078 
Q 1150 3584 1784 3584 
Q 2172 3584 2448 3432 
Q 2725 3281 2906 2969 
z
M 947 1747 
Q 947 1113 1208 752 
Q 1469 391 1925 391 
Q 2381 391 2643 752 
Q 2906 1113 2906 1747 
Q 2906 2381 2643 2742 
Q 2381 3103 1925 3103 
Q 1469 3103 1208 2742 
Q 947 2381 947 1747 
z
" transform="scale(0.015625)"/>
       <path id="DejaVuSans-65" d="M 3597 1894 
L 3597 1613 
L 953 1613 
Q 991 1019 1311 708 
Q 1631 397 2203 397 
Q 2534 397 2845 478 
Q 3156 559 3463 722 
L 3463 178 
Q 3153 47 2828 -22 
Q 2503 -91 2169 -91 
Q 1331 -91 842 396 
Q 353 884 353 1716 
Q 353 2575 817 3079 
Q 1281 3584 2069 3584 
Q 2775 3584 3186 3129 
Q 3597 2675 3597 1894 
z
M 3022 2063 
Q 3016 2534 2758 2815 
Q 2500 3097 2075 3097 
Q 1594 3097 1305 2825 
Q 1016 2553 972 2059 
L 3022 2063 
z
" transform="scale(0.015625)"/>
      </defs>
      <use xlink:href="#DejaVuSans-45"/>
      <use xlink:href="#DejaVuSans-70" x="63.183594"/>
      <use xlink:href="#DejaVuSans-69" x="126.660156"/>
      <use xlink:href="#DejaVuSans-73" x="154.443359"/>
      <use xlink:href="#DejaVuSans-6f" x="206.542969"/>
      <use xlink:href="#DejaVuSans-64" x="267.724609"/>
      <use xlink:href="#DejaVuSans-65" x="331.201172"/>
     </g>
    </g>
   </g>
   <g id="matplotlib.axis_2">
    <g id="ytick_1">
     <g id="line2d_13">
      <path d="M 51.05 325.579597 
L 709.2 325.579597 
" clip-path="url(#p3c3de20163)" style="fill: none; stroke: #b0b0b0; stroke-width: 0.8; stroke-linecap: square"/>
     </g>
     <g id="line2d_14">
      <defs>
       <path id="mf240c2ead7" d="M 0 0 
L -3.5 0 
" style="stroke: #000000; stroke-width: 0.8"/>
      </defs>
      <g>
       <use xlink:href="#mf240c2ead7" x="51.05" y="325.579597" style="stroke: #000000; stroke-width: 0.8"/>
      </g>
     </g>
     <g id="text_8">
      <!-- 100 -->
      <g transform="translate(24.9625 329.378816) scale(0.1 -0.1)">
       <use xlink:href="#DejaVuSans-31"/>
       <use xlink:href="#DejaVuSans-30" x="63.623047"/>
       <use xlink:href="#DejaVuSans-30" x="127.246094"/>
      </g>
     </g>
    </g>
    <g id="ytick_2">
     <g id="line2d_15">
      <path d="M 51.05 245.766805 
L 709.2 245.766805 
" clip-path="url(#p3c3de20163)" style="fill: none; stroke: #b0b0b0; stroke-width: 0.8; stroke-linecap: square"/>
     </g>
     <g id="line2d_16">
      <g>
       <use xlink:href="#mf240c2ead7" x="51.05" y="245.766805" style="stroke: #000000; stroke-width: 0.8"/>
      </g>
     </g>
     <g id="text_9">
      <!-- 200 -->
      <g transform="translate(24.9625 249.566024) scale(0.1 -0.1)">
       <use xlink:href="#DejaVuSans-32"/>
       <use xlink:href="#DejaVuSans-30" x="63.623047"/>
       <use xlink:href="#DejaVuSans-30" x="127.246094"/>
      </g>
     </g>
    </g>
    <g id="ytick_3">
     <g id="line2d_17">
      <path d="M 51.05 165.954013 
L 709.2 165.954013 
" clip-path="url(#p3c3de20163)" style="fill: none; stroke: #b0b0b0; stroke-width: 0.8; stroke-linecap: square"/>
     </g>
     <g id="line2d_18">
      <g>
       <use xlink:href="#mf240c2ead7" x="51.05" y="165.954013" style="stroke: #000000; stroke-width: 0.8"/>
      </g>
     </g>
     <g id="text_10">
      <!-- 300 -->
      <g transform="translate(24.9625 169.753231) scale(0.1 -0.1)">
       <defs>
        <path id="DejaVuSans-33" d="M 2597 2516 
Q 3050 2419 3304 2112 
Q 3559 1806 3559 1356 
Q 3559 666 3084 287 
Q 2609 -91 1734 -91 
Q 1441 -91 1130 -33 
Q 819 25 488 141 
L 488 750 
Q 750 597 1062 519 
Q 1375 441 1716 441 
Q 2309 441 2620 675 
Q 2931 909 2931 1356 
Q 2931 1769 2642 2001 
Q 2353 2234 1838 2234 
L 1294 2234 
L 1294 2753 
L 1863 2753 
Q 2328 2753 2575 2939 
Q 2822 3125 2822 3475 
Q 2822 3834 2567 4026 
Q 2313 4219 1838 4219 
Q 1578 4219 1281 4162 
Q 984 4106 628 3988 
L 628 4550 
Q 988 4650 1302 4700 
Q 1616 4750 1894 4750 
Q 2613 4750 3031 4423 
Q 3450 4097 3450 3541 
Q 3450 3153 3228 2886 
Q 3006 2619 2597 2516 
z
" transform="scale(0.015625)"/>
       </defs>
       <use xlink:href="#DejaVuSans-33"/>
       <use xlink:href="#DejaVuSans-30" x="63.623047"/>
       <use xlink:href="#DejaVuSans-30" x="127.246094"/>
      </g>
     </g>
    </g>
    <g id="ytick_4">
     <g id="line2d_19">
      <path d="M 51.05 86.14122 
L 709.2 86.14122 
" clip-path="url(#p3c3de20163)" style="fill: none; stroke: #b0b0b0; stroke-width: 0.8; stroke-linecap: square"/>
     </g>
     <g id="line2d_20">
      <g>
       <use xlink:href="#mf240c2ead7" x="51.05" y="86.14122" style="stroke: #000000; stroke-width: 0.8"/>
      </g>
     </g>
     <g id="text_11">
      <!-- 400 -->
      <g transform="translate(24.9625 89.940439) scale(0.1 -0.1)">
       <use xlink:href="#DejaVuSans-34"/>
       <use xlink:href="#DejaVuSans-30" x="63.623047"/>
       <use xlink:href="#DejaVuSans-30" x="127.246094"/>
      </g>
     </g>
    </g>
    <g id="text_12">
     <!-- Integral Absolute Error -->
     <g transform="translate(18.882812 264.319687) rotate(-90) scale(0.1 -0.1)">
      <defs>
       <path id="DejaVuSans-49" d="M 628 4666 
L 1259 4666 
L 1259 0 
L 628 0 
L 628 4666 
z
" transform="scale(0.015625)"/>
       <path id="DejaVuSans-6e" d="M 3513 2113 
L 3513 0 
L 2938 0 
L 2938 2094 
Q 2938 2591 2744 2837 
Q 2550 3084 2163 3084 
Q 1697 3084 1428 2787 
Q 1159 2491 1159 1978 
L 1159 0 
L 581 0 
L 581 3500 
L 1159 3500 
L 1159 2956 
Q 1366 3272 1645 3428 
Q 1925 3584 2291 3584 
Q 2894 3584 3203 3211 
Q 3513 2838 3513 2113 
z
" transform="scale(0.015625)"/>
       <path id="DejaVuSans-74" d="M 1172 4494 
L 1172 3500 
L 2356 3500 
L 2356 3053 
L 1172 3053 
L 1172 1153 
Q 1172 725 1289 603 
Q 1406 481 1766 481 
L 2356 481 
L 2356 0 
L 1766 0 
Q 1100 0 847 248 
Q 594 497 594 1153 
L 594 3053 
L 172 3053 
L 172 3500 
L 594 3500 
L 594 4494 
L 1172 4494 
z
" transform="scale(0.015625)"/>
       <path id="DejaVuSans-67" d="M 2906 1791 
Q 2906 2416 2648 2759 
Q 2391 3103 1925 3103 
Q 1463 3103 1205 2759 
Q 947 2416 947 1791 
Q 947 1169 1205 825 
Q 1463 481 1925 481 
Q 2391 481 2648 825 
Q 2906 1169 2906 1791 
z
M 3481 434 
Q 3481 -459 3084 -895 
Q 2688 -1331 1869 -1331 
Q 1566 -1331 1297 -1286 
Q 1028 -1241 775 -1147 
L 775 -588 
Q 1028 -725 1275 -790 
Q 1522 -856 1778 -856 
Q 2344 -856 2625 -561 
Q 2906 -266 2906 331 
L 2906 616 
Q 2728 306 2450 153 
Q 2172 0 1784 0 
Q 1141 0 747 490 
Q 353 981 353 1791 
Q 353 2603 747 3093 
Q 1141 3584 1784 3584 
Q 2172 3584 2450 3431 
Q 2728 3278 2906 2969 
L 2906 3500 
L 3481 3500 
L 3481 434 
z
" transform="scale(0.015625)"/>
       <path id="DejaVuSans-72" d="M 2631 2963 
Q 2534 3019 2420 3045 
Q 2306 3072 2169 3072 
Q 1681 3072 1420 2755 
Q 1159 2438 1159 1844 
L 1159 0 
L 581 0 
L 581 3500 
L 1159 3500 
L 1159 2956 
Q 1341 3275 1631 3429 
Q 1922 3584 2338 3584 
Q 2397 3584 2469 3576 
Q 2541 3569 2628 3553 
L 2631 2963 
z
" transform="scale(0.015625)"/>
       <path id="DejaVuSans-61" d="M 2194 1759 
Q 1497 1759 1228 1600 
Q 959 1441 959 1056 
Q 959 750 1161 570 
Q 1363 391 1709 391 
Q 2188 391 2477 730 
Q 2766 1069 2766 1631 
L 2766 1759 
L 2194 1759 
z
M 3341 1997 
L 3341 0 
L 2766 0 
L 2766 531 
Q 2569 213 2275 61 
Q 1981 -91 1556 -91 
Q 1019 -91 701 211 
Q 384 513 384 1019 
Q 384 1609 779 1909 
Q 1175 2209 1959 2209 
L 2766 2209 
L 2766 2266 
Q 2766 2663 2505 2880 
Q 2244 3097 1772 3097 
Q 1472 3097 1187 3025 
Q 903 2953 641 2809 
L 641 3341 
Q 956 3463 1253 3523 
Q 1550 3584 1831 3584 
Q 2591 3584 2966 3190 
Q 3341 2797 3341 1997 
z
" transform="scale(0.015625)"/>
       <path id="DejaVuSans-6c" d="M 603 4863 
L 1178 4863 
L 1178 0 
L 603 0 
L 603 4863 
z
" transform="scale(0.015625)"/>
       <path id="DejaVuSans-20" transform="scale(0.015625)"/>
       <path id="DejaVuSans-41" d="M 2188 4044 
L 1331 1722 
L 3047 1722 
L 2188 4044 
z
M 1831 4666 
L 2547 4666 
L 4325 0 
L 3669 0 
L 3244 1197 
L 1141 1197 
L 716 0 
L 50 0 
L 1831 4666 
z
" transform="scale(0.015625)"/>
       <path id="DejaVuSans-62" d="M 3116 1747 
Q 3116 2381 2855 2742 
Q 2594 3103 2138 3103 
Q 1681 3103 1420 2742 
Q 1159 2381 1159 1747 
Q 1159 1113 1420 752 
Q 1681 391 2138 391 
Q 2594 391 2855 752 
Q 3116 1113 3116 1747 
z
M 1159 2969 
Q 1341 3281 1617 3432 
Q 1894 3584 2278 3584 
Q 2916 3584 3314 3078 
Q 3713 2572 3713 1747 
Q 3713 922 3314 415 
Q 2916 -91 2278 -91 
Q 1894 -91 1617 61 
Q 1341 213 1159 525 
L 1159 0 
L 581 0 
L 581 4863 
L 1159 4863 
L 1159 2969 
z
" transform="scale(0.015625)"/>
       <path id="DejaVuSans-75" d="M 544 1381 
L 544 3500 
L 1119 3500 
L 1119 1403 
Q 1119 906 1312 657 
Q 1506 409 1894 409 
Q 2359 409 2629 706 
Q 2900 1003 2900 1516 
L 2900 3500 
L 3475 3500 
L 3475 0 
L 2900 0 
L 2900 538 
Q 2691 219 2414 64 
Q 2138 -91 1772 -91 
Q 1169 -91 856 284 
Q 544 659 544 1381 
z
M 1991 3584 
L 1991 3584 
z
" transform="scale(0.015625)"/>
      </defs>
      <use xlink:href="#DejaVuSans-49"/>
      <use xlink:href="#DejaVuSans-6e" x="29.492188"/>
      <use xlink:href="#DejaVuSans-74" x="92.871094"/>
      <use xlink:href="#DejaVuSans-65" x="132.080078"/>
      <use xlink:href="#DejaVuSans-67" x="193.603516"/>
      <use xlink:href="#DejaVuSans-72" x="257.080078"/>
      <use xlink:href="#DejaVuSans-61" x="298.193359"/>
      <use xlink:href="#DejaVuSans-6c" x="359.472656"/>
      <use xlink:href="#DejaVuSans-20" x="387.255859"/>
      <use xlink:href="#DejaVuSans-41" x="419.042969"/>
      <use xlink:href="#DejaVuSans-62" x="487.451172"/>
      <use xlink:href="#DejaVuSans-73" x="550.927734"/>
      <use xlink:href="#DejaVuSans-6f" x="603.027344"/>
      <use xlink:href="#DejaVuSans-6c" x="664.208984"/>
      <use xlink:href="#DejaVuSans-75" x="691.992188"/>
      <use xlink:href="#DejaVuSans-74" x="755.371094"/>
      <use xlink:href="#DejaVuSans-65" x="794.580078"/>
      <use xlink:href="#DejaVuSans-20" x="856.103516"/>
      <use xlink:href="#DejaVuSans-45" x="887.890625"/>
      <use xlink:href="#DejaVuSans-72" x="951.074219"/>
      <use xlink:href="#DejaVuSans-72" x="990.4375"/>
      <use xlink:href="#DejaVuSans-6f" x="1029.300781"/>
      <use xlink:href="#DejaVuSans-72" x="1090.482422"/>
     </g>
    </g>
   </g>
   <g id="line2d_21">
    <path d="M 679.284091 325.579597 
" clip-path="url(#p3c3de20163)" style="fill: none; stroke: #1f77b4; stroke-width: 1.5; stroke-linecap: square"/>
    <defs>
     <path id="m38fb7c3780" d="M 0 3 
C 0.795609 3 1.55874 2.683901 2.12132 2.12132 
C 2.683901 1.55874 3 0.795609 3 0 
C 3 -0.795609 2.683901 -1.55874 2.12132 -2.12132 
C 1.55874 -2.683901 0.795609 -3 0 -3 
C -0.795609 -3 -1.55874 -2.683901 -2.12132 -2.12132 
C -2.683901 -1.55874 -3 -0.795609 -3 0 
C -3 0.795609 -2.683901 1.55874 -2.12132 2.12132 
C -1.55874 2.683901 -0.795609 3 0 3 
z
" style="stroke: #1f77b4"/>
    </defs>
    <g clip-path="url(#p3c3de20163)">
     <use xlink:href="#m38fb7c3780" x="80.965909" y="174.142805" style="fill: #1f77b4; stroke: #1f77b4"/>
     <use xlink:href="#m38fb7c3780" x="87.009527" y="192.57956" style="fill: #1f77b4; stroke: #1f77b4"/>
     <use xlink:href="#m38fb7c3780" x="93.053145" y="139.647716" style="fill: #1f77b4; stroke: #1f77b4"/>
     <use xlink:href="#m38fb7c3780" x="99.096763" y="210.489551" style="fill: #1f77b4; stroke: #1f77b4"/>
     <use xlink:href="#m38fb7c3780" x="105.140381" y="42.012727" style="fill: #1f77b4; stroke: #1f77b4"/>
     <use xlink:href="#m38fb7c3780" x="111.183999" y="101.577014" style="fill: #1f77b4; stroke: #1f77b4"/>
     <use xlink:href="#m38fb7c3780" x="117.227617" y="254.777669" style="fill: #1f77b4; stroke: #1f77b4"/>
     <use xlink:href="#m38fb7c3780" x="123.271235" y="157.445969" style="fill: #1f77b4; stroke: #1f77b4"/>
     <use xlink:href="#m38fb7c3780" x="129.314853" y="245.319853" style="fill: #1f77b4; stroke: #1f77b4"/>
     <use xlink:href="#m38fb7c3780" x="135.358471" y="280.828565" style="fill: #1f77b4; stroke: #1f77b4"/>
     <use xlink:href="#m38fb7c3780" x="141.402089" y="301.923086" style="fill: #1f77b4; stroke: #1f77b4"/>
     <use xlink:href="#m38fb7c3780" x="147.445707" y="138.634094" style="fill: #1f77b4; stroke: #1f77b4"/>
     <use xlink:href="#m38fb7c3780" x="153.489325" y="169.385963" style="fill: #1f77b4; stroke: #1f77b4"/>
     <use xlink:href="#m38fb7c3780" x="159.532943" y="119.806256" style="fill: #1f77b4; stroke: #1f77b4"/>
     <use xlink:href="#m38fb7c3780" x="165.576561" y="115.041432" style="fill: #1f77b4; stroke: #1f77b4"/>
     <use xlink:href="#m38fb7c3780" x="171.620179" y="191.446218" style="fill: #1f77b4; stroke: #1f77b4"/>
     <use xlink:href="#m38fb7c3780" x="177.663797" y="122.855105" style="fill: #1f77b4; stroke: #1f77b4"/>
     <use xlink:href="#m38fb7c3780" x="183.707415" y="144.54024" style="fill: #1f77b4; stroke: #1f77b4"/>
     <use xlink:href="#m38fb7c3780" x="189.751033" y="105.998643" style="fill: #1f77b4; stroke: #1f77b4"/>
     <use xlink:href="#m38fb7c3780" x="195.794651" y="212.197544" style="fill: #1f77b4; stroke: #1f77b4"/>
     <use xlink:href="#m38fb7c3780" x="201.838269" y="165.738518" style="fill: #1f77b4; stroke: #1f77b4"/>
     <use xlink:href="#m38fb7c3780" x="207.881887" y="176.840477" style="fill: #1f77b4; stroke: #1f77b4"/>
     <use xlink:href="#m38fb7c3780" x="213.925505" y="228.838512" style="fill: #1f77b4; stroke: #1f77b4"/>
     <use xlink:href="#m38fb7c3780" x="219.969123" y="150.21493" style="fill: #1f77b4; stroke: #1f77b4"/>
     <use xlink:href="#m38fb7c3780" x="226.012741" y="284.595728" style="fill: #1f77b4; stroke: #1f77b4"/>
     <use xlink:href="#m38fb7c3780" x="232.056359" y="188.133988" style="fill: #1f77b4; stroke: #1f77b4"/>
     <use xlink:href="#m38fb7c3780" x="238.099977" y="178.332977" style="fill: #1f77b4; stroke: #1f77b4"/>
     <use xlink:href="#m38fb7c3780" x="244.143595" y="214.065164" style="fill: #1f77b4; stroke: #1f77b4"/>
     <use xlink:href="#m38fb7c3780" x="250.187213" y="294.173264" style="fill: #1f77b4; stroke: #1f77b4"/>
     <use xlink:href="#m38fb7c3780" x="256.230831" y="220.178824" style="fill: #1f77b4; stroke: #1f77b4"/>
     <use xlink:href="#m38fb7c3780" x="262.274449" y="184.630206" style="fill: #1f77b4; stroke: #1f77b4"/>
     <use xlink:href="#m38fb7c3780" x="268.318067" y="224.009838" style="fill: #1f77b4; stroke: #1f77b4"/>
     <use xlink:href="#m38fb7c3780" x="274.361685" y="220.545963" style="fill: #1f77b4; stroke: #1f77b4"/>
     <use xlink:href="#m38fb7c3780" x="280.405303" y="245.088396" style="fill: #1f77b4; stroke: #1f77b4"/>
     <use xlink:href="#m38fb7c3780" x="286.448921" y="183.488883" style="fill: #1f77b4; stroke: #1f77b4"/>
     <use xlink:href="#m38fb7c3780" x="292.492539" y="153.056265" style="fill: #1f77b4; stroke: #1f77b4"/>
     <use xlink:href="#m38fb7c3780" x="298.536157" y="82.150581" style="fill: #1f77b4; stroke: #1f77b4"/>
     <use xlink:href="#m38fb7c3780" x="304.579775" y="268.066499" style="fill: #1f77b4; stroke: #1f77b4"/>
     <use xlink:href="#m38fb7c3780" x="310.623393" y="180.272428" style="fill: #1f77b4; stroke: #1f77b4"/>
     <use xlink:href="#m38fb7c3780" x="316.667011" y="351.119691" style="fill: #1f77b4; stroke: #1f77b4"/>
     <use xlink:href="#m38fb7c3780" x="322.710629" y="126.638231" style="fill: #1f77b4; stroke: #1f77b4"/>
     <use xlink:href="#m38fb7c3780" x="328.754247" y="155.921545" style="fill: #1f77b4; stroke: #1f77b4"/>
     <use xlink:href="#m38fb7c3780" x="334.797865" y="115.863504" style="fill: #1f77b4; stroke: #1f77b4"/>
     <use xlink:href="#m38fb7c3780" x="340.841483" y="306.025463" style="fill: #1f77b4; stroke: #1f77b4"/>
     <use xlink:href="#m38fb7c3780" x="346.885101" y="214.41634" style="fill: #1f77b4; stroke: #1f77b4"/>
     <use xlink:href="#m38fb7c3780" x="352.928719" y="142.010175" style="fill: #1f77b4; stroke: #1f77b4"/>
     <use xlink:href="#m38fb7c3780" x="358.972337" y="171.61274" style="fill: #1f77b4; stroke: #1f77b4"/>
     <use xlink:href="#m38fb7c3780" x="365.015955" y="208.717707" style="fill: #1f77b4; stroke: #1f77b4"/>
     <use xlink:href="#m38fb7c3780" x="371.059573" y="295.601912" style="fill: #1f77b4; stroke: #1f77b4"/>
     <use xlink:href="#m38fb7c3780" x="377.103191" y="112.271928" style="fill: #1f77b4; stroke: #1f77b4"/>
     <use xlink:href="#m38fb7c3780" x="383.146809" y="222.796683" style="fill: #1f77b4; stroke: #1f77b4"/>
     <use xlink:href="#m38fb7c3780" x="389.190427" y="121.418474" style="fill: #1f77b4; stroke: #1f77b4"/>
     <use xlink:href="#m38fb7c3780" x="395.234045" y="233.563429" style="fill: #1f77b4; stroke: #1f77b4"/>
     <use xlink:href="#m38fb7c3780" x="401.277663" y="245.830655" style="fill: #1f77b4; stroke: #1f77b4"/>
     <use xlink:href="#m38fb7c3780" x="407.321281" y="253.22132" style="fill: #1f77b4; stroke: #1f77b4"/>
     <use xlink:href="#m38fb7c3780" x="413.364899" y="116.238624" style="fill: #1f77b4; stroke: #1f77b4"/>
     <use xlink:href="#m38fb7c3780" x="419.408517" y="271.195161" style="fill: #1f77b4; stroke: #1f77b4"/>
     <use xlink:href="#m38fb7c3780" x="425.452135" y="327.447217" style="fill: #1f77b4; stroke: #1f77b4"/>
     <use xlink:href="#m38fb7c3780" x="431.495753" y="341.542156" style="fill: #1f77b4; stroke: #1f77b4"/>
     <use xlink:href="#m38fb7c3780" x="437.539371" y="216.483491" style="fill: #1f77b4; stroke: #1f77b4"/>
     <use xlink:href="#m38fb7c3780" x="443.582989" y="357.057763" style="fill: #1f77b4; stroke: #1f77b4"/>
     <use xlink:href="#m38fb7c3780" x="449.626607" y="283.566143" style="fill: #1f77b4; stroke: #1f77b4"/>
     <use xlink:href="#m38fb7c3780" x="455.670225" y="253.859822" style="fill: #1f77b4; stroke: #1f77b4"/>
     <use xlink:href="#m38fb7c3780" x="461.713843" y="145.889077" style="fill: #1f77b4; stroke: #1f77b4"/>
     <use xlink:href="#m38fb7c3780" x="467.757461" y="266.589962" style="fill: #1f77b4; stroke: #1f77b4"/>
     <use xlink:href="#m38fb7c3780" x="473.801079" y="361.830568" style="fill: #1f77b4; stroke: #1f77b4"/>
     <use xlink:href="#m38fb7c3780" x="479.844697" y="282.017775" style="fill: #1f77b4; stroke: #1f77b4"/>
     <use xlink:href="#m38fb7c3780" x="485.888315" y="267.659454" style="fill: #1f77b4; stroke: #1f77b4"/>
     <use xlink:href="#m38fb7c3780" x="491.931933" y="318.268746" style="fill: #1f77b4; stroke: #1f77b4"/>
     <use xlink:href="#m38fb7c3780" x="497.975551" y="155.434687" style="fill: #1f77b4; stroke: #1f77b4"/>
     <use xlink:href="#m38fb7c3780" x="504.019169" y="304.317469" style="fill: #1f77b4; stroke: #1f77b4"/>
     <use xlink:href="#m38fb7c3780" x="510.062787" y="341.542156" style="fill: #1f77b4; stroke: #1f77b4"/>
     <use xlink:href="#m38fb7c3780" x="516.106405" y="290.669482" style="fill: #1f77b4; stroke: #1f77b4"/>
     <use xlink:href="#m38fb7c3780" x="522.150023" y="271.873569" style="fill: #1f77b4; stroke: #1f77b4"/>
     <use xlink:href="#m38fb7c3780" x="528.193641" y="306.967254" style="fill: #1f77b4; stroke: #1f77b4"/>
     <use xlink:href="#m38fb7c3780" x="534.237259" y="213.841688" style="fill: #1f77b4; stroke: #1f77b4"/>
     <use xlink:href="#m38fb7c3780" x="540.280877" y="315.954175" style="fill: #1f77b4; stroke: #1f77b4"/>
     <use xlink:href="#m38fb7c3780" x="546.324495" y="299.991616" style="fill: #1f77b4; stroke: #1f77b4"/>
     <use xlink:href="#m38fb7c3780" x="552.368113" y="373.467273" style="fill: #1f77b4; stroke: #1f77b4"/>
     <use xlink:href="#m38fb7c3780" x="558.411731" y="282.017775" style="fill: #1f77b4; stroke: #1f77b4"/>
     <use xlink:href="#m38fb7c3780" x="564.455349" y="367.64892" style="fill: #1f77b4; stroke: #1f77b4"/>
     <use xlink:href="#m38fb7c3780" x="570.498967" y="293.65448" style="fill: #1f77b4; stroke: #1f77b4"/>
     <use xlink:href="#m38fb7c3780" x="576.542585" y="275.640733" style="fill: #1f77b4; stroke: #1f77b4"/>
     <use xlink:href="#m38fb7c3780" x="582.586203" y="265.456621" style="fill: #1f77b4; stroke: #1f77b4"/>
     <use xlink:href="#m38fb7c3780" x="588.629821" y="340.344964" style="fill: #1f77b4; stroke: #1f77b4"/>
     <use xlink:href="#m38fb7c3780" x="594.673439" y="341.542156" style="fill: #1f77b4; stroke: #1f77b4"/>
     <use xlink:href="#m38fb7c3780" x="600.717057" y="291.603292" style="fill: #1f77b4; stroke: #1f77b4"/>
     <use xlink:href="#m38fb7c3780" x="606.760675" y="325.579597" style="fill: #1f77b4; stroke: #1f77b4"/>
     <use xlink:href="#m38fb7c3780" x="612.804293" y="341.542156" style="fill: #1f77b4; stroke: #1f77b4"/>
     <use xlink:href="#m38fb7c3780" x="618.847911" y="279.854849" style="fill: #1f77b4; stroke: #1f77b4"/>
     <use xlink:href="#m38fb7c3780" x="624.891529" y="372.270081" style="fill: #1f77b4; stroke: #1f77b4"/>
     <use xlink:href="#m38fb7c3780" x="630.935147" y="357.504714" style="fill: #1f77b4; stroke: #1f77b4"/>
     <use xlink:href="#m38fb7c3780" x="636.978765" y="293.65448" style="fill: #1f77b4; stroke: #1f77b4"/>
     <use xlink:href="#m38fb7c3780" x="643.022383" y="313.942892" style="fill: #1f77b4; stroke: #1f77b4"/>
     <use xlink:href="#m38fb7c3780" x="649.066001" y="357.504714" style="fill: #1f77b4; stroke: #1f77b4"/>
     <use xlink:href="#m38fb7c3780" x="655.109619" y="339.490967" style="fill: #1f77b4; stroke: #1f77b4"/>
     <use xlink:href="#m38fb7c3780" x="661.153237" y="357.504714" style="fill: #1f77b4; stroke: #1f77b4"/>
     <use xlink:href="#m38fb7c3780" x="667.196855" y="357.504714" style="fill: #1f77b4; stroke: #1f77b4"/>
     <use xlink:href="#m38fb7c3780" x="673.240473" y="325.579597" style="fill: #1f77b4; stroke: #1f77b4"/>
     <use xlink:href="#m38fb7c3780" x="679.284091" y="325.579597" style="fill: #1f77b4; stroke: #1f77b4"/>
    </g>
   </g>
   <g id="patch_3">
    <path d="M 51.05 390.04 
L 51.05 25.44 
" style="fill: none; stroke: #000000; stroke-width: 0.8; stroke-linejoin: miter; stroke-linecap: square"/>
   </g>
   <g id="patch_4">
    <path d="M 709.2 390.04 
L 709.2 25.44 
" style="fill: none; stroke: #000000; stroke-width: 0.8; stroke-linejoin: miter; stroke-linecap: square"/>
   </g>
   <g id="patch_5">
    <path d="M 51.05 390.04 
L 709.2 390.04 
" style="fill: none; stroke: #000000; stroke-width: 0.8; stroke-linejoin: miter; stroke-linecap: square"/>
   </g>
   <g id="patch_6">
    <path d="M 51.05 25.44 
L 709.2 25.44 
" style="fill: none; stroke: #000000; stroke-width: 0.8; stroke-linejoin: miter; stroke-linecap: square"/>
   </g>
   <g id="text_13">
    <!-- Integral Absolute Error over Episodes -->
    <g transform="translate(268.344063 19.44) scale(0.12 -0.12)">
     <defs>
      <path id="DejaVuSans-76" d="M 191 3500 
L 800 3500 
L 1894 563 
L 2988 3500 
L 3597 3500 
L 2284 0 
L 1503 0 
L 191 3500 
z
" transform="scale(0.015625)"/>
     </defs>
     <use xlink:href="#DejaVuSans-49"/>
     <use xlink:href="#DejaVuSans-6e" x="29.492188"/>
     <use xlink:href="#DejaVuSans-74" x="92.871094"/>
     <use xlink:href="#DejaVuSans-65" x="132.080078"/>
     <use xlink:href="#DejaVuSans-67" x="193.603516"/>
     <use xlink:href="#DejaVuSans-72" x="257.080078"/>
     <use xlink:href="#DejaVuSans-61" x="298.193359"/>
     <use xlink:href="#DejaVuSans-6c" x="359.472656"/>
     <use xlink:href="#DejaVuSans-20" x="387.255859"/>
     <use xlink:href="#DejaVuSans-41" x="419.042969"/>
     <use xlink:href="#DejaVuSans-62" x="487.451172"/>
     <use xlink:href="#DejaVuSans-73" x="550.927734"/>
     <use xlink:href="#DejaVuSans-6f" x="603.027344"/>
     <use xlink:href="#DejaVuSans-6c" x="664.208984"/>
     <use xlink:href="#DejaVuSans-75" x="691.992188"/>
     <use xlink:href="#DejaVuSans-74" x="755.371094"/>
     <use xlink:href="#DejaVuSans-65" x="794.580078"/>
     <use xlink:href="#DejaVuSans-20" x="856.103516"/>
     <use xlink:href="#DejaVuSans-45" x="887.890625"/>
     <use xlink:href="#DejaVuSans-72" x="951.074219"/>
     <use xlink:href="#DejaVuSans-72" x="990.4375"/>
     <use xlink:href="#DejaVuSans-6f" x="1029.300781"/>
     <use xlink:href="#DejaVuSans-72" x="1090.482422"/>
     <use xlink:href="#DejaVuSans-20" x="1131.595703"/>
     <use xlink:href="#DejaVuSans-6f" x="1163.382812"/>
     <use xlink:href="#DejaVuSans-76" x="1224.564453"/>
     <use xlink:href="#DejaVuSans-65" x="1283.744141"/>
     <use xlink:href="#DejaVuSans-72" x="1345.267578"/>
     <use xlink:href="#DejaVuSans-20" x="1386.380859"/>
     <use xlink:href="#DejaVuSans-45" x="1418.167969"/>
     <use xlink:href="#DejaVuSans-70" x="1481.351562"/>
     <use xlink:href="#DejaVuSans-69" x="1544.828125"/>
     <use xlink:href="#DejaVuSans-73" x="1572.611328"/>
     <use xlink:href="#DejaVuSans-6f" x="1624.710938"/>
     <use xlink:href="#DejaVuSans-64" x="1685.892578"/>
     <use xlink:href="#DejaVuSans-65" x="1749.369141"/>
     <use xlink:href="#DejaVuSans-73" x="1810.892578"/>
    </g>
   </g>
  </g>
 </g>
 <defs>
  <clipPath id="p3c3de20163">
   <rect x="51.05" y="25.44" width="658.15" height="364.6"/>
  </clipPath>
 </defs>
</svg>
