<?xml version="1.0" encoding="utf-8" standalone="no"?>
<!DOCTYPE svg PUBLIC "-//W3C//DTD SVG 1.1//EN"
  "http://www.w3.org/Graphics/SVG/1.1/DTD/svg11.dtd">
<svg xmlns:xlink="http://www.w3.org/1999/xlink" width="720pt" height="432pt" viewBox="0 0 720 432" xmlns="http://www.w3.org/2000/svg" version="1.1">
 <metadata>
  <rdf:RDF xmlns:dc="http://purl.org/dc/elements/1.1/" xmlns:cc="http://creativecommons.org/ns#" xmlns:rdf="http://www.w3.org/1999/02/22-rdf-syntax-ns#">
   <cc:Work>
    <dc:type rdf:resource="http://purl.org/dc/dcmitype/StillImage"/>
    <dc:date>2025-07-21T21:19:18.987156</dc:date>
    <dc:format>image/svg+xml</dc:format>
    <dc:creator>
     <cc:Agent>
      <dc:title>Matplotlib v3.8.0, https://matplotlib.org/</dc:title>
     </cc:Agent>
    </dc:creator>
   </cc:Work>
  </rdf:RDF>
 </metadata>
 <defs>
  <style type="text/css">*{stroke-linejoin: round; stroke-linecap: butt}</style>
 </defs>
 <g id="figure_1">
  <g id="patch_1">
   <path d="M 0 432 
L 720 432 
L 720 0 
L 0 0 
z
" style="fill: #ffffff"/>
  </g>
  <g id="axes_1">
   <g id="patch_2">
    <path d="M 53.03 390.04 
L 709.2 390.04 
L 709.2 25.44 
L 53.03 25.44 
z
" style="fill: #ffffff"/>
   </g>
   <g id="matplotlib.axis_1">
    <g id="xtick_1">
     <g id="line2d_1">
      <path d="M 82.855909 390.04 
L 82.855909 25.44 
" clip-path="url(#pc2b8e8d91b)" style="fill: none; stroke: #b0b0b0; stroke-width: 0.8; stroke-linecap: square"/>
     </g>
     <g id="line2d_2">
      <defs>
       <path id="m58e9f87b4b" d="M 0 0 
L 0 3.5 
" style="stroke: #000000; stroke-width: 0.8"/>
      </defs>
      <g>
       <use xlink:href="#m58e9f87b4b" x="82.855909" y="390.04" style="stroke: #000000; stroke-width: 0.8"/>
      </g>
     </g>
     <g id="text_1">
      <!-- 0 -->
      <g transform="translate(79.674659 404.638438) scale(0.1 -0.1)">
       <defs>
        <path id="DejaVuSans-30" d="M 2034 4250 
Q 1547 4250 1301 3770 
Q 1056 3291 1056 2328 
Q 1056 1369 1301 889 
Q 1547 409 2034 409 
Q 2525 409 2770 889 
Q 3016 1369 3016 2328 
Q 3016 3291 2770 3770 
Q 2525 4250 2034 4250 
z
M 2034 4750 
Q 2819 4750 3233 4129 
Q 3647 3509 3647 2328 
Q 3647 1150 3233 529 
Q 2819 -91 2034 -91 
Q 1250 -91 836 529 
Q 422 1150 422 2328 
Q 422 3509 836 4129 
Q 1250 4750 2034 4750 
z
" transform="scale(0.015625)"/>
       </defs>
       <use xlink:href="#DejaVuSans-30"/>
      </g>
     </g>
    </g>
    <g id="xtick_2">
     <g id="line2d_3">
      <path d="M 215.710738 390.04 
L 215.710738 25.44 
" clip-path="url(#pc2b8e8d91b)" style="fill: none; stroke: #b0b0b0; stroke-width: 0.8; stroke-linecap: square"/>
     </g>
     <g id="line2d_4">
      <g>
       <use xlink:href="#m58e9f87b4b" x="215.710738" y="390.04" style="stroke: #000000; stroke-width: 0.8"/>
      </g>
     </g>
     <g id="text_2">
      <!-- 100 -->
      <g transform="translate(206.166988 404.638438) scale(0.1 -0.1)">
       <defs>
        <path id="DejaVuSans-31" d="M 794 531 
L 1825 531 
L 1825 4091 
L 703 3866 
L 703 4441 
L 1819 4666 
L 2450 4666 
L 2450 531 
L 3481 531 
L 3481 0 
L 794 0 
L 794 531 
z
" transform="scale(0.015625)"/>
       </defs>
       <use xlink:href="#DejaVuSans-31"/>
       <use xlink:href="#DejaVuSans-30" x="63.623047"/>
       <use xlink:href="#DejaVuSans-30" x="127.246094"/>
      </g>
     </g>
    </g>
    <g id="xtick_3">
     <g id="line2d_5">
      <path d="M 348.565567 390.04 
L 348.565567 25.44 
" clip-path="url(#pc2b8e8d91b)" style="fill: none; stroke: #b0b0b0; stroke-width: 0.8; stroke-linecap: square"/>
     </g>
     <g id="line2d_6">
      <g>
       <use xlink:href="#m58e9f87b4b" x="348.565567" y="390.04" style="stroke: #000000; stroke-width: 0.8"/>
      </g>
     </g>
     <g id="text_3">
      <!-- 200 -->
      <g transform="translate(339.021817 404.638438) scale(0.1 -0.1)">
       <defs>
        <path id="DejaVuSans-32" d="M 1228 531 
L 3431 531 
L 3431 0 
L 469 0 
L 469 531 
Q 828 903 1448 1529 
Q 2069 2156 2228 2338 
Q 2531 2678 2651 2914 
Q 2772 3150 2772 3378 
Q 2772 3750 2511 3984 
Q 2250 4219 1831 4219 
Q 1534 4219 1204 4116 
Q 875 4013 500 3803 
L 500 4441 
Q 881 4594 1212 4672 
Q 1544 4750 1819 4750 
Q 2544 4750 2975 4387 
Q 3406 4025 3406 3419 
Q 3406 3131 3298 2873 
Q 3191 2616 2906 2266 
Q 2828 2175 2409 1742 
Q 1991 1309 1228 531 
z
" transform="scale(0.015625)"/>
       </defs>
       <use xlink:href="#DejaVuSans-32"/>
       <use xlink:href="#DejaVuSans-30" x="63.623047"/>
       <use xlink:href="#DejaVuSans-30" x="127.246094"/>
      </g>
     </g>
    </g>
    <g id="xtick_4">
     <g id="line2d_7">
      <path d="M 481.420396 390.04 
L 481.420396 25.44 
" clip-path="url(#pc2b8e8d91b)" style="fill: none; stroke: #b0b0b0; stroke-width: 0.8; stroke-linecap: square"/>
     </g>
     <g id="line2d_8">
      <g>
       <use xlink:href="#m58e9f87b4b" x="481.420396" y="390.04" style="stroke: #000000; stroke-width: 0.8"/>
      </g>
     </g>
     <g id="text_4">
      <!-- 300 -->
      <g transform="translate(471.876646 404.638438) scale(0.1 -0.1)">
       <defs>
        <path id="DejaVuSans-33" d="M 2597 2516 
Q 3050 2419 3304 2112 
Q 3559 1806 3559 1356 
Q 3559 666 3084 287 
Q 2609 -91 1734 -91 
Q 1441 -91 1130 -33 
Q 819 25 488 141 
L 488 750 
Q 750 597 1062 519 
Q 1375 441 1716 441 
Q 2309 441 2620 675 
Q 2931 909 2931 1356 
Q 2931 1769 2642 2001 
Q 2353 2234 1838 2234 
L 1294 2234 
L 1294 2753 
L 1863 2753 
Q 2328 2753 2575 2939 
Q 2822 3125 2822 3475 
Q 2822 3834 2567 4026 
Q 2313 4219 1838 4219 
Q 1578 4219 1281 4162 
Q 984 4106 628 3988 
L 628 4550 
Q 988 4650 1302 4700 
Q 1616 4750 1894 4750 
Q 2613 4750 3031 4423 
Q 3450 4097 3450 3541 
Q 3450 3153 3228 2886 
Q 3006 2619 2597 2516 
z
" transform="scale(0.015625)"/>
       </defs>
       <use xlink:href="#DejaVuSans-33"/>
       <use xlink:href="#DejaVuSans-30" x="63.623047"/>
       <use xlink:href="#DejaVuSans-30" x="127.246094"/>
      </g>
     </g>
    </g>
    <g id="xtick_5">
     <g id="line2d_9">
      <path d="M 614.275225 390.04 
L 614.275225 25.44 
" clip-path="url(#pc2b8e8d91b)" style="fill: none; stroke: #b0b0b0; stroke-width: 0.8; stroke-linecap: square"/>
     </g>
     <g id="line2d_10">
      <g>
       <use xlink:href="#m58e9f87b4b" x="614.275225" y="390.04" style="stroke: #000000; stroke-width: 0.8"/>
      </g>
     </g>
     <g id="text_5">
      <!-- 400 -->
      <g transform="translate(604.731475 404.638438) scale(0.1 -0.1)">
       <defs>
        <path id="DejaVuSans-34" d="M 2419 4116 
L 825 1625 
L 2419 1625 
L 2419 4116 
z
M 2253 4666 
L 3047 4666 
L 3047 1625 
L 3713 1625 
L 3713 1100 
L 3047 1100 
L 3047 0 
L 2419 0 
L 2419 1100 
L 313 1100 
L 313 1709 
L 2253 4666 
z
" transform="scale(0.015625)"/>
       </defs>
       <use xlink:href="#DejaVuSans-34"/>
       <use xlink:href="#DejaVuSans-30" x="63.623047"/>
       <use xlink:href="#DejaVuSans-30" x="127.246094"/>
      </g>
     </g>
    </g>
    <g id="text_6">
     <!-- Episode -->
     <g transform="translate(361.4775 418.316562) scale(0.1 -0.1)">
      <defs>
       <path id="DejaVuSans-45" d="M 628 4666 
L 3578 4666 
L 3578 4134 
L 1259 4134 
L 1259 2753 
L 3481 2753 
L 3481 2222 
L 1259 2222 
L 1259 531 
L 3634 531 
L 3634 0 
L 628 0 
L 628 4666 
z
" transform="scale(0.015625)"/>
       <path id="DejaVuSans-70" d="M 1159 525 
L 1159 -1331 
L 581 -1331 
L 581 3500 
L 1159 3500 
L 1159 2969 
Q 1341 3281 1617 3432 
Q 1894 3584 2278 3584 
Q 2916 3584 3314 3078 
Q 3713 2572 3713 1747 
Q 3713 922 3314 415 
Q 2916 -91 2278 -91 
Q 1894 -91 1617 61 
Q 1341 213 1159 525 
z
M 3116 1747 
Q 3116 2381 2855 2742 
Q 2594 3103 2138 3103 
Q 1681 3103 1420 2742 
Q 1159 2381 1159 1747 
Q 1159 1113 1420 752 
Q 1681 391 2138 391 
Q 2594 391 2855 752 
Q 3116 1113 3116 1747 
z
" transform="scale(0.015625)"/>
       <path id="DejaVuSans-69" d="M 603 3500 
L 1178 3500 
L 1178 0 
L 603 0 
L 603 3500 
z
M 603 4863 
L 1178 4863 
L 1178 4134 
L 603 4134 
L 603 4863 
z
" transform="scale(0.015625)"/>
       <path id="DejaVuSans-73" d="M 2834 3397 
L 2834 2853 
Q 2591 2978 2328 3040 
Q 2066 3103 1784 3103 
Q 1356 3103 1142 2972 
Q 928 2841 928 2578 
Q 928 2378 1081 2264 
Q 1234 2150 1697 2047 
L 1894 2003 
Q 2506 1872 2764 1633 
Q 3022 1394 3022 966 
Q 3022 478 2636 193 
Q 2250 -91 1575 -91 
Q 1294 -91 989 -36 
Q 684 19 347 128 
L 347 722 
Q 666 556 975 473 
Q 1284 391 1588 391 
Q 1994 391 2212 530 
Q 2431 669 2431 922 
Q 2431 1156 2273 1281 
Q 2116 1406 1581 1522 
L 1381 1569 
Q 847 1681 609 1914 
Q 372 2147 372 2553 
Q 372 3047 722 3315 
Q 1072 3584 1716 3584 
Q 2034 3584 2315 3537 
Q 2597 3491 2834 3397 
z
" transform="scale(0.015625)"/>
       <path id="DejaVuSans-6f" d="M 1959 3097 
Q 1497 3097 1228 2736 
Q 959 2375 959 1747 
Q 959 1119 1226 758 
Q 1494 397 1959 397 
Q 2419 397 2687 759 
Q 2956 1122 2956 1747 
Q 2956 2369 2687 2733 
Q 2419 3097 1959 3097 
z
M 1959 3584 
Q 2709 3584 3137 3096 
Q 3566 2609 3566 1747 
Q 3566 888 3137 398 
Q 2709 -91 1959 -91 
Q 1206 -91 779 398 
Q 353 888 353 1747 
Q 353 2609 779 3096 
Q 1206 3584 1959 3584 
z
" transform="scale(0.015625)"/>
       <path id="DejaVuSans-64" d="M 2906 2969 
L 2906 4863 
L 3481 4863 
L 3481 0 
L 2906 0 
L 2906 525 
Q 2725 213 2448 61 
Q 2172 -91 1784 -91 
Q 1150 -91 751 415 
Q 353 922 353 1747 
Q 353 2572 751 3078 
Q 1150 3584 1784 3584 
Q 2172 3584 2448 3432 
Q 2725 3281 2906 2969 
z
M 947 1747 
Q 947 1113 1208 752 
Q 1469 391 1925 391 
Q 2381 391 2643 752 
Q 2906 1113 2906 1747 
Q 2906 2381 2643 2742 
Q 2381 3103 1925 3103 
Q 1469 3103 1208 2742 
Q 947 2381 947 1747 
z
" transform="scale(0.015625)"/>
       <path id="DejaVuSans-65" d="M 3597 1894 
L 3597 1613 
L 953 1613 
Q 991 1019 1311 708 
Q 1631 397 2203 397 
Q 2534 397 2845 478 
Q 3156 559 3463 722 
L 3463 178 
Q 3153 47 2828 -22 
Q 2503 -91 2169 -91 
Q 1331 -91 842 396 
Q 353 884 353 1716 
Q 353 2575 817 3079 
Q 1281 3584 2069 3584 
Q 2775 3584 3186 3129 
Q 3597 2675 3597 1894 
z
M 3022 2063 
Q 3016 2534 2758 2815 
Q 2500 3097 2075 3097 
Q 1594 3097 1305 2825 
Q 1016 2553 972 2059 
L 3022 2063 
z
" transform="scale(0.015625)"/>
      </defs>
      <use xlink:href="#DejaVuSans-45"/>
      <use xlink:href="#DejaVuSans-70" x="63.183594"/>
      <use xlink:href="#DejaVuSans-69" x="126.660156"/>
      <use xlink:href="#DejaVuSans-73" x="154.443359"/>
      <use xlink:href="#DejaVuSans-6f" x="206.542969"/>
      <use xlink:href="#DejaVuSans-64" x="267.724609"/>
      <use xlink:href="#DejaVuSans-65" x="331.201172"/>
     </g>
    </g>
   </g>
   <g id="matplotlib.axis_2">
    <g id="ytick_1">
     <g id="line2d_11">
      <path d="M 53.03 349.585833 
L 709.2 349.585833 
" clip-path="url(#pc2b8e8d91b)" style="fill: none; stroke: #b0b0b0; stroke-width: 0.8; stroke-linecap: square"/>
     </g>
     <g id="line2d_12">
      <defs>
       <path id="m38ccd7be15" d="M 0 0 
L -3.5 0 
" style="stroke: #000000; stroke-width: 0.8"/>
      </defs>
      <g>
       <use xlink:href="#m38ccd7be15" x="53.03" y="349.585833" style="stroke: #000000; stroke-width: 0.8"/>
      </g>
     </g>
     <g id="text_7">
      <!-- −20 -->
      <g transform="translate(24.925313 353.385051) scale(0.1 -0.1)">
       <defs>
        <path id="DejaVuSans-2212" d="M 678 2272 
L 4684 2272 
L 4684 1741 
L 678 1741 
L 678 2272 
z
" transform="scale(0.015625)"/>
       </defs>
       <use xlink:href="#DejaVuSans-2212"/>
       <use xlink:href="#DejaVuSans-32" x="83.789062"/>
       <use xlink:href="#DejaVuSans-30" x="147.412109"/>
      </g>
     </g>
    </g>
    <g id="ytick_2">
     <g id="line2d_13">
      <path d="M 53.03 302.491289 
L 709.2 302.491289 
" clip-path="url(#pc2b8e8d91b)" style="fill: none; stroke: #b0b0b0; stroke-width: 0.8; stroke-linecap: square"/>
     </g>
     <g id="line2d_14">
      <g>
       <use xlink:href="#m38ccd7be15" x="53.03" y="302.491289" style="stroke: #000000; stroke-width: 0.8"/>
      </g>
     </g>
     <g id="text_8">
      <!-- −10 -->
      <g transform="translate(24.925313 306.290508) scale(0.1 -0.1)">
       <use xlink:href="#DejaVuSans-2212"/>
       <use xlink:href="#DejaVuSans-31" x="83.789062"/>
       <use xlink:href="#DejaVuSans-30" x="147.412109"/>
      </g>
     </g>
    </g>
    <g id="ytick_3">
     <g id="line2d_15">
      <path d="M 53.03 255.396745 
L 709.2 255.396745 
" clip-path="url(#pc2b8e8d91b)" style="fill: none; stroke: #b0b0b0; stroke-width: 0.8; stroke-linecap: square"/>
     </g>
     <g id="line2d_16">
      <g>
       <use xlink:href="#m38ccd7be15" x="53.03" y="255.396745" style="stroke: #000000; stroke-width: 0.8"/>
      </g>
     </g>
     <g id="text_9">
      <!-- 0 -->
      <g transform="translate(39.6675 259.195964) scale(0.1 -0.1)">
       <use xlink:href="#DejaVuSans-30"/>
      </g>
     </g>
    </g>
    <g id="ytick_4">
     <g id="line2d_17">
      <path d="M 53.03 208.302201 
L 709.2 208.302201 
" clip-path="url(#pc2b8e8d91b)" style="fill: none; stroke: #b0b0b0; stroke-width: 0.8; stroke-linecap: square"/>
     </g>
     <g id="line2d_18">
      <g>
       <use xlink:href="#m38ccd7be15" x="53.03" y="208.302201" style="stroke: #000000; stroke-width: 0.8"/>
      </g>
     </g>
     <g id="text_10">
      <!-- 10 -->
      <g transform="translate(33.305 212.10142) scale(0.1 -0.1)">
       <use xlink:href="#DejaVuSans-31"/>
       <use xlink:href="#DejaVuSans-30" x="63.623047"/>
      </g>
     </g>
    </g>
    <g id="ytick_5">
     <g id="line2d_19">
      <path d="M 53.03 161.207658 
L 709.2 161.207658 
" clip-path="url(#pc2b8e8d91b)" style="fill: none; stroke: #b0b0b0; stroke-width: 0.8; stroke-linecap: square"/>
     </g>
     <g id="line2d_20">
      <g>
       <use xlink:href="#m38ccd7be15" x="53.03" y="161.207658" style="stroke: #000000; stroke-width: 0.8"/>
      </g>
     </g>
     <g id="text_11">
      <!-- 20 -->
      <g transform="translate(33.305 165.006876) scale(0.1 -0.1)">
       <use xlink:href="#DejaVuSans-32"/>
       <use xlink:href="#DejaVuSans-30" x="63.623047"/>
      </g>
     </g>
    </g>
    <g id="ytick_6">
     <g id="line2d_21">
      <path d="M 53.03 114.113114 
L 709.2 114.113114 
" clip-path="url(#pc2b8e8d91b)" style="fill: none; stroke: #b0b0b0; stroke-width: 0.8; stroke-linecap: square"/>
     </g>
     <g id="line2d_22">
      <g>
       <use xlink:href="#m38ccd7be15" x="53.03" y="114.113114" style="stroke: #000000; stroke-width: 0.8"/>
      </g>
     </g>
     <g id="text_12">
      <!-- 30 -->
      <g transform="translate(33.305 117.912333) scale(0.1 -0.1)">
       <use xlink:href="#DejaVuSans-33"/>
       <use xlink:href="#DejaVuSans-30" x="63.623047"/>
      </g>
     </g>
    </g>
    <g id="ytick_7">
     <g id="line2d_23">
      <path d="M 53.03 67.01857 
L 709.2 67.01857 
" clip-path="url(#pc2b8e8d91b)" style="fill: none; stroke: #b0b0b0; stroke-width: 0.8; stroke-linecap: square"/>
     </g>
     <g id="line2d_24">
      <g>
       <use xlink:href="#m38ccd7be15" x="53.03" y="67.01857" style="stroke: #000000; stroke-width: 0.8"/>
      </g>
     </g>
     <g id="text_13">
      <!-- 40 -->
      <g transform="translate(33.305 70.817789) scale(0.1 -0.1)">
       <use xlink:href="#DejaVuSans-34"/>
       <use xlink:href="#DejaVuSans-30" x="63.623047"/>
      </g>
     </g>
    </g>
    <g id="text_14">
     <!-- Average Reward -->
     <g transform="translate(18.845625 248.482969) rotate(-90) scale(0.1 -0.1)">
      <defs>
       <path id="DejaVuSans-41" d="M 2188 4044 
L 1331 1722 
L 3047 1722 
L 2188 4044 
z
M 1831 4666 
L 2547 4666 
L 4325 0 
L 3669 0 
L 3244 1197 
L 1141 1197 
L 716 0 
L 50 0 
L 1831 4666 
z
" transform="scale(0.015625)"/>
       <path id="DejaVuSans-76" d="M 191 3500 
L 800 3500 
L 1894 563 
L 2988 3500 
L 3597 3500 
L 2284 0 
L 1503 0 
L 191 3500 
z
" transform="scale(0.015625)"/>
       <path id="DejaVuSans-72" d="M 2631 2963 
Q 2534 3019 2420 3045 
Q 2306 3072 2169 3072 
Q 1681 3072 1420 2755 
Q 1159 2438 1159 1844 
L 1159 0 
L 581 0 
L 581 3500 
L 1159 3500 
L 1159 2956 
Q 1341 3275 1631 3429 
Q 1922 3584 2338 3584 
Q 2397 3584 2469 3576 
Q 2541 3569 2628 3553 
L 2631 2963 
z
" transform="scale(0.015625)"/>
       <path id="DejaVuSans-61" d="M 2194 1759 
Q 1497 1759 1228 1600 
Q 959 1441 959 1056 
Q 959 750 1161 570 
Q 1363 391 1709 391 
Q 2188 391 2477 730 
Q 2766 1069 2766 1631 
L 2766 1759 
L 2194 1759 
z
M 3341 1997 
L 3341 0 
L 2766 0 
L 2766 531 
Q 2569 213 2275 61 
Q 1981 -91 1556 -91 
Q 1019 -91 701 211 
Q 384 513 384 1019 
Q 384 1609 779 1909 
Q 1175 2209 1959 2209 
L 2766 2209 
L 2766 2266 
Q 2766 2663 2505 2880 
Q 2244 3097 1772 3097 
Q 1472 3097 1187 3025 
Q 903 2953 641 2809 
L 641 3341 
Q 956 3463 1253 3523 
Q 1550 3584 1831 3584 
Q 2591 3584 2966 3190 
Q 3341 2797 3341 1997 
z
" transform="scale(0.015625)"/>
       <path id="DejaVuSans-67" d="M 2906 1791 
Q 2906 2416 2648 2759 
Q 2391 3103 1925 3103 
Q 1463 3103 1205 2759 
Q 947 2416 947 1791 
Q 947 1169 1205 825 
Q 1463 481 1925 481 
Q 2391 481 2648 825 
Q 2906 1169 2906 1791 
z
M 3481 434 
Q 3481 -459 3084 -895 
Q 2688 -1331 1869 -1331 
Q 1566 -1331 1297 -1286 
Q 1028 -1241 775 -1147 
L 775 -588 
Q 1028 -725 1275 -790 
Q 1522 -856 1778 -856 
Q 2344 -856 2625 -561 
Q 2906 -266 2906 331 
L 2906 616 
Q 2728 306 2450 153 
Q 2172 0 1784 0 
Q 1141 0 747 490 
Q 353 981 353 1791 
Q 353 2603 747 3093 
Q 1141 3584 1784 3584 
Q 2172 3584 2450 3431 
Q 2728 3278 2906 2969 
L 2906 3500 
L 3481 3500 
L 3481 434 
z
" transform="scale(0.015625)"/>
       <path id="DejaVuSans-20" transform="scale(0.015625)"/>
       <path id="DejaVuSans-52" d="M 2841 2188 
Q 3044 2119 3236 1894 
Q 3428 1669 3622 1275 
L 4263 0 
L 3584 0 
L 2988 1197 
Q 2756 1666 2539 1819 
Q 2322 1972 1947 1972 
L 1259 1972 
L 1259 0 
L 628 0 
L 628 4666 
L 2053 4666 
Q 2853 4666 3247 4331 
Q 3641 3997 3641 3322 
Q 3641 2881 3436 2590 
Q 3231 2300 2841 2188 
z
M 1259 4147 
L 1259 2491 
L 2053 2491 
Q 2509 2491 2742 2702 
Q 2975 2913 2975 3322 
Q 2975 3731 2742 3939 
Q 2509 4147 2053 4147 
L 1259 4147 
z
" transform="scale(0.015625)"/>
       <path id="DejaVuSans-77" d="M 269 3500 
L 844 3500 
L 1563 769 
L 2278 3500 
L 2956 3500 
L 3675 769 
L 4391 3500 
L 4966 3500 
L 4050 0 
L 3372 0 
L 2619 2869 
L 1863 0 
L 1184 0 
L 269 3500 
z
" transform="scale(0.015625)"/>
      </defs>
      <use xlink:href="#DejaVuSans-41"/>
      <use xlink:href="#DejaVuSans-76" x="62.533203"/>
      <use xlink:href="#DejaVuSans-65" x="121.712891"/>
      <use xlink:href="#DejaVuSans-72" x="183.236328"/>
      <use xlink:href="#DejaVuSans-61" x="224.349609"/>
      <use xlink:href="#DejaVuSans-67" x="285.628906"/>
      <use xlink:href="#DejaVuSans-65" x="349.105469"/>
      <use xlink:href="#DejaVuSans-20" x="410.628906"/>
      <use xlink:href="#DejaVuSans-52" x="442.416016"/>
      <use xlink:href="#DejaVuSans-65" x="507.398438"/>
      <use xlink:href="#DejaVuSans-77" x="568.921875"/>
      <use xlink:href="#DejaVuSans-61" x="650.708984"/>
      <use xlink:href="#DejaVuSans-72" x="711.988281"/>
      <use xlink:href="#DejaVuSans-64" x="751.351562"/>
     </g>
    </g>
   </g>
   <g id="line2d_25">
    <path d="M 82.855909 276.325837 
L 84.184457 299.531799 
L 85.513006 291.919881 
L 86.841554 297.408373 
L 88.170102 263.073786 
L 89.498651 293.346439 
L 90.827199 275.340432 
L 92.155747 297.031826 
L 93.484295 288.428994 
L 94.812844 297.662389 
L 96.141392 291.961141 
L 97.46994 292.131125 
L 98.798489 295.676086 
L 100.127037 293.997117 
L 101.455585 294.762635 
L 102.784133 278.174618 
L 104.112682 294.366107 
L 105.44123 296.65789 
L 106.769778 293.069339 
L 108.098327 297.773701 
L 109.426875 265.052357 
L 110.755423 296.167203 
L 112.083971 296.138251 
L 113.41252 287.799266 
L 114.741068 295.171204 
L 116.069616 295.207853 
L 117.398165 272.604816 
L 118.726713 290.413514 
L 120.055261 293.934682 
L 121.383809 295.113464 
L 122.712358 293.332461 
L 124.040906 292.489755 
L 125.369454 293.608149 
L 126.698003 275.096676 
L 128.026551 293.566643 
L 129.355099 292.129347 
L 130.683647 261.809068 
L 132.012196 294.299952 
L 133.340744 264.6951 
L 134.669292 294.460541 
L 135.997841 291.165355 
L 137.326389 289.778965 
L 138.654937 292.258147 
L 139.983486 292.215088 
L 141.312034 276.912488 
L 142.640582 293.387209 
L 143.96913 293.489544 
L 145.297679 290.83085 
L 146.626227 275.233572 
L 147.954775 289.078304 
L 149.283324 292.091007 
L 150.611872 292.510461 
L 151.94042 291.821167 
L 153.268968 292.434475 
L 154.597517 290.358971 
L 155.926065 294.435012 
L 157.254613 290.456128 
L 158.583162 287.974215 
L 159.91171 290.266951 
L 161.240258 291.574471 
L 162.568806 284.0043 
L 163.897355 274.310852 
L 165.225903 291.509878 
L 166.554451 291.648662 
L 169.211548 288.412249 
L 171.868644 290.426669 
L 173.197193 284.56007 
L 174.525741 283.53191 
L 175.854289 290.093352 
L 177.182838 292.090729 
L 178.511386 270.988429 
L 179.839934 291.642756 
L 181.168482 288.663371 
L 182.497031 288.84308 
L 183.825579 288.655565 
L 185.154127 289.288703 
L 186.482676 290.523484 
L 187.811224 289.522447 
L 189.139772 292.630571 
L 190.468321 267.447986 
L 191.796869 288.964293 
L 193.125417 291.537122 
L 194.453965 289.658236 
L 195.782514 287.082752 
L 197.111062 289.644144 
L 198.43961 274.186815 
L 199.768159 283.712176 
L 201.096707 267.621501 
L 202.425255 285.734736 
L 203.753803 263.081439 
L 205.082352 286.584643 
L 206.4109 287.512163 
L 207.739448 259.440167 
L 209.067997 288.243794 
L 210.396545 275.105623 
L 211.725093 288.817805 
L 213.053641 286.941792 
L 214.38219 287.448629 
L 215.710738 287.204767 
L 217.039286 286.807403 
L 218.367835 285.280998 
L 219.696383 273.580055 
L 221.024931 285.738998 
L 222.353479 279.02888 
L 223.682028 285.961569 
L 225.010576 284.631146 
L 226.339124 266.485524 
L 227.667673 284.924591 
L 228.996221 286.355903 
L 230.324769 284.611115 
L 231.653317 283.983775 
L 232.981866 285.549216 
L 234.310414 286.917772 
L 235.638962 280.039907 
L 236.967511 285.796002 
L 238.296059 288.698623 
L 239.624607 265.551563 
L 240.953155 284.789208 
L 242.281704 286.933224 
L 243.610252 256.040842 
L 244.9388 284.453345 
L 246.267349 286.311893 
L 247.595897 284.798374 
L 248.924445 269.681517 
L 250.252994 284.22368 
L 251.581542 286.768517 
L 252.91009 283.909259 
L 254.238638 283.95745 
L 255.567187 281.928823 
L 256.895735 263.596887 
L 258.224283 282.633619 
L 259.552832 277.247785 
L 260.88138 282.324828 
L 262.209928 278.69437 
L 263.538476 283.947387 
L 264.867025 280.126691 
L 266.195573 282.600262 
L 267.524121 283.253259 
L 268.85267 265.550979 
L 270.181218 282.915521 
L 271.509766 284.052641 
L 272.838314 282.690383 
L 274.166863 282.253956 
L 275.495411 283.131945 
L 276.823959 270.097162 
L 278.152508 274.741245 
L 279.481056 284.345821 
L 280.809604 281.894648 
L 282.138152 281.001423 
L 283.466701 279.92528 
L 284.795249 267.575652 
L 286.123797 280.092756 
L 287.452346 279.627727 
L 288.780894 275.260342 
L 290.109442 276.362583 
L 291.43799 275.144358 
L 292.766539 274.817581 
L 294.095087 269.514803 
L 295.423635 265.884361 
L 296.752184 280.633702 
L 298.080732 279.165929 
L 299.40928 280.395983 
L 300.737829 278.999681 
L 302.066377 268.565903 
L 303.394925 277.305746 
L 304.723473 275.997134 
L 306.052022 274.892765 
L 307.38057 278.19137 
L 308.709118 279.230008 
L 310.037667 278.833771 
L 311.366215 277.514712 
L 312.694763 276.408703 
L 315.35186 278.142399 
L 316.680408 278.706735 
L 319.337505 277.259174 
L 320.666053 274.079707 
L 321.994601 278.718989 
L 323.323149 277.847379 
L 324.651698 278.034783 
L 325.980246 274.529446 
L 327.308794 277.469644 
L 329.965891 276.557125 
L 331.294439 271.394272 
L 332.622987 277.824112 
L 333.951536 274.834982 
L 335.280084 277.267368 
L 336.608632 278.6847 
L 337.937181 277.540077 
L 339.265729 275.324589 
L 340.594277 273.628931 
L 341.922825 274.487586 
L 343.251374 257.997426 
L 344.579922 257.825973 
L 345.90847 262.084718 
L 347.237019 258.112277 
L 348.565567 274.112478 
L 349.894115 273.033441 
L 351.222663 274.306265 
L 352.551212 272.909103 
L 353.87976 265.774394 
L 355.208308 277.85377 
L 356.536857 275.489817 
L 357.865405 275.135479 
L 359.193953 272.261309 
L 360.522502 273.674028 
L 363.179598 274.487043 
L 364.508146 273.509036 
L 365.836695 252.673177 
L 367.165243 273.283091 
L 368.493791 272.579378 
L 369.82234 273.27949 
L 372.479436 273.827566 
L 373.807984 272.03619 
L 375.136533 265.962571 
L 376.465081 274.650941 
L 377.793629 273.360056 
L 379.122178 273.649165 
L 380.450726 270.096177 
L 381.779274 275.751757 
L 383.107822 268.954541 
L 384.436371 268.278756 
L 385.764919 272.254846 
L 387.093467 274.20398 
L 388.422016 270.012425 
L 389.750564 270.294726 
L 391.079112 271.685861 
L 392.40766 272.236652 
L 393.736209 271.127578 
L 395.064757 271.746922 
L 396.393305 271.288621 
L 397.721854 262.612892 
L 399.050402 271.892271 
L 400.37895 273.146541 
L 401.707498 269.633232 
L 403.036047 271.791099 
L 405.693143 267.398031 
L 407.021692 249.674119 
L 408.35024 269.868923 
L 409.678788 270.976878 
L 411.007337 269.011382 
L 413.664433 271.009667 
L 414.992981 268.942958 
L 416.32153 268.540402 
L 417.650078 269.455812 
L 418.978626 268.664955 
L 420.307175 270.038926 
L 421.635723 266.568502 
L 422.964271 269.462276 
L 424.292819 267.411942 
L 425.621368 268.866092 
L 426.949916 267.960108 
L 428.278464 268.904731 
L 429.607013 257.166125 
L 430.935561 267.67655 
L 432.264109 269.493068 
L 433.592657 268.047628 
L 434.921206 266.159601 
L 436.249754 266.429527 
L 437.578302 266.372498 
L 438.906851 268.193807 
L 440.235399 264.537109 
L 441.563947 266.683867 
L 442.892495 264.214069 
L 444.221044 267.900701 
L 445.549592 268.210416 
L 446.87814 263.686936 
L 448.206689 266.040149 
L 449.535237 267.594725 
L 452.192333 266.509459 
L 453.520882 267.712379 
L 454.84943 266.046012 
L 456.177978 266.45261 
L 457.506527 267.174035 
L 458.835075 259.637726 
L 460.163623 253.056784 
L 461.492171 265.253296 
L 462.82072 264.996541 
L 464.149268 247.571964 
L 465.477816 264.786506 
L 466.806365 258.592995 
L 468.134913 263.845836 
L 469.463461 265.698444 
L 470.79201 263.942694 
L 472.120558 265.132323 
L 473.449106 264.565121 
L 474.777654 264.47574 
L 476.106203 264.99342 
L 477.434751 264.238298 
L 478.763299 263.002893 
L 480.091848 264.388179 
L 481.420396 260.083422 
L 482.748944 263.260081 
L 484.077492 263.137165 
L 485.406041 248.347424 
L 486.734589 263.095207 
L 488.063137 256.99129 
L 489.391686 263.821507 
L 490.720234 262.166673 
L 492.048782 263.906549 
L 493.37733 263.524583 
L 494.705879 260.66142 
L 496.034427 262.51303 
L 497.362975 261.878525 
L 498.691524 254.141962 
L 500.020072 262.140916 
L 501.34862 262.042133 
L 502.677168 261.579767 
L 504.005717 259.924753 
L 505.334265 254.72272 
L 506.662813 251.671109 
L 507.991362 262.821591 
L 509.31991 246.61936 
L 510.648458 261.105233 
L 511.977006 246.453726 
L 513.305555 261.908731 
L 514.634103 259.986212 
L 515.962651 261.262468 
L 517.2912 258.623489 
L 518.619748 258.780751 
L 519.948296 253.408633 
L 521.276845 260.126115 
L 522.605393 255.891826 
L 523.933941 259.675923 
L 525.262489 247.442486 
L 526.591038 260.539308 
L 527.919586 259.52072 
L 529.248134 259.9242 
L 530.576683 250.856101 
L 531.905231 259.45608 
L 533.233779 259.831723 
L 534.562327 259.333465 
L 535.890876 259.259783 
L 537.219424 259.849986 
L 538.547972 248.878612 
L 539.876521 259.407789 
L 541.205069 256.567018 
L 542.533617 255.525427 
L 543.862165 258.293044 
L 545.190714 253.794516 
L 546.519262 259.188104 
L 547.84781 258.454292 
L 549.176359 258.488723 
L 550.504907 256.832226 
L 551.833455 258.104007 
L 553.162003 258.368312 
L 554.490552 258.316249 
L 555.8191 256.676227 
L 557.147648 257.171024 
L 558.476197 255.938106 
L 559.804745 256.946539 
L 561.133293 255.826238 
L 562.461841 247.151628 
L 563.79039 252.506486 
L 565.118938 247.615622 
L 566.447486 256.387366 
L 567.776035 255.398469 
L 569.104583 254.073149 
L 570.433131 256.551512 
L 571.761679 255.636962 
L 573.090228 255.383243 
L 574.418776 255.0026 
L 575.747324 255.490828 
L 577.075873 255.452649 
L 578.404421 256.097825 
L 579.732969 255.70737 
L 581.061518 254.137251 
L 582.390066 254.780385 
L 583.718614 253.11293 
L 585.047162 254.77887 
L 586.375711 248.830339 
L 587.704259 244.541927 
L 589.032807 254.467993 
L 590.361356 254.720743 
L 591.689904 252.831751 
L 593.018452 251.820444 
L 594.347 253.014681 
L 595.675549 253.085523 
L 597.004097 252.995423 
L 598.332645 254.434594 
L 599.661194 252.662415 
L 600.989742 252.299797 
L 602.31829 253.050565 
L 603.646838 252.177294 
L 604.975387 253.79799 
L 606.303935 252.037273 
L 607.632483 251.357103 
L 608.961032 252.599891 
L 610.28958 252.950318 
L 611.618128 248.924169 
L 612.946676 248.26925 
L 614.275225 253.110469 
L 615.603773 251.712754 
L 616.932321 251.949418 
L 618.26087 251.539155 
L 619.589418 250.00758 
L 620.917966 249.791844 
L 622.246514 251.08395 
L 623.575063 250.299621 
L 624.903611 250.689533 
L 626.232159 249.983753 
L 627.560708 250.659796 
L 630.217804 249.845873 
L 631.546353 243.930694 
L 632.874901 249.861771 
L 634.203449 249.671478 
L 635.531997 249.968256 
L 636.860546 250.575001 
L 638.189094 249.654585 
L 639.517642 249.958417 
L 640.846191 249.803802 
L 642.174739 248.618163 
L 643.503287 249.50735 
L 644.831835 248.397042 
L 646.160384 248.261409 
L 647.488932 248.729457 
L 648.81748 248.656623 
L 650.146029 248.144074 
L 651.474577 247.986988 
L 652.803125 248.414675 
L 654.131673 248.175543 
L 655.460222 247.280111 
L 656.78877 248.115271 
L 658.117318 246.540499 
L 659.445867 247.293048 
L 662.102963 247.530465 
L 663.431511 247.165736 
L 664.76006 246.109945 
L 666.088608 247.372747 
L 667.417156 246.766119 
L 668.745705 246.472341 
L 670.074253 247.159654 
L 671.402801 245.784528 
L 672.731349 244.917616 
L 674.059898 246.178273 
L 675.388446 244.466506 
L 676.716994 245.895288 
L 678.045543 245.794119 
L 679.374091 245.897568 
L 679.374091 245.897568 
" clip-path="url(#pc2b8e8d91b)" style="fill: none; stroke: #1f77b4; stroke-width: 1.5; stroke-linecap: square"/>
   </g>
   <g id="line2d_26">
    <path d="M 82.855909 272.956716 
L 84.184457 292.94914 
L 85.513006 288.18567 
L 86.841554 292.635911 
L 88.170102 262.657366 
L 89.498651 287.448584 
L 90.827199 271.726009 
L 92.155747 288.988082 
L 93.484295 280.093001 
L 94.812844 289.763317 
L 96.141392 288.858363 
L 97.46994 289.140223 
L 98.798489 288.204647 
L 100.127037 294.580509 
L 101.455585 291.612561 
L 102.784133 274.290156 
L 104.112682 289.239825 
L 105.44123 286.419507 
L 106.769778 290.151468 
L 108.098327 290.84497 
L 109.426875 264.400172 
L 110.755423 288.117102 
L 112.083971 290.352616 
L 113.41252 281.540741 
L 114.741068 288.818343 
L 116.069616 286.359855 
L 117.398165 266.804096 
L 118.726713 284.271956 
L 120.055261 288.294634 
L 121.383809 288.630373 
L 122.712358 285.710383 
L 124.040906 287.399317 
L 125.369454 287.095333 
L 126.698003 270.374365 
L 128.026551 287.520575 
L 129.355099 284.77353 
L 130.683647 262.890452 
L 132.012196 287.065053 
L 133.340744 264.118584 
L 134.669292 286.124198 
L 135.997841 285.49677 
L 137.326389 282.252853 
L 138.654937 286.429307 
L 139.983486 285.023885 
L 141.312034 271.337043 
L 142.640582 288.580812 
L 143.96913 284.590036 
L 145.297679 286.957283 
L 146.626227 269.79793 
L 147.954775 281.82023 
L 149.283324 282.263443 
L 150.611872 282.883197 
L 151.94042 283.704425 
L 153.268968 283.816014 
L 154.597517 279.541855 
L 155.926065 284.480151 
L 157.254613 280.860291 
L 158.583162 279.514284 
L 159.91171 283.715169 
L 161.240258 284.351773 
L 163.897355 267.010861 
L 165.225903 283.043556 
L 166.554451 280.480174 
L 167.883 281.976017 
L 169.211548 282.333268 
L 170.540096 283.477918 
L 171.868644 280.869508 
L 173.197193 275.548201 
L 174.525741 275.659847 
L 175.854289 279.339202 
L 177.182838 280.50849 
L 178.511386 261.802182 
L 179.839934 280.732001 
L 181.168482 280.817525 
L 182.497031 279.271984 
L 183.825579 280.005413 
L 185.154127 278.190115 
L 186.482676 278.904844 
L 187.811224 274.900018 
L 189.139772 278.885079 
L 190.468321 259.791414 
L 191.796869 273.468373 
L 193.125417 278.551487 
L 194.453965 277.866848 
L 197.111062 276.987578 
L 198.43961 264.263141 
L 199.768159 274.764735 
L 201.096707 259.725565 
L 202.425255 278.476597 
L 203.753803 257.173865 
L 205.082352 275.164522 
L 206.4109 278.675701 
L 207.739448 254.73932 
L 209.067997 276.27524 
L 210.396545 265.97528 
L 211.725093 276.02464 
L 213.053641 276.107347 
L 214.38219 278.478386 
L 215.710738 274.010934 
L 217.039286 273.311945 
L 218.367835 274.443091 
L 219.696383 265.821359 
L 221.024931 274.386894 
L 222.353479 270.225988 
L 223.682028 270.967477 
L 225.010576 272.266143 
L 226.339124 257.647369 
L 227.667673 276.800663 
L 228.996221 274.745314 
L 231.653317 274.534037 
L 232.981866 272.641699 
L 234.310414 275.188247 
L 235.638962 268.790318 
L 236.967511 274.494511 
L 238.296059 271.906656 
L 239.624607 255.579028 
L 240.953155 273.79135 
L 242.281704 274.797718 
L 243.610252 252.166201 
L 244.9388 270.470261 
L 246.267349 271.47683 
L 247.595897 273.601165 
L 248.924445 258.581492 
L 250.252994 272.764509 
L 251.581542 273.245157 
L 252.91009 271.705589 
L 254.238638 269.881953 
L 255.567187 270.203885 
L 256.895735 255.454951 
L 258.224283 269.718016 
L 259.552832 263.357593 
L 260.88138 272.592992 
L 262.209928 266.049838 
L 263.538476 270.314 
L 264.867025 267.96825 
L 266.195573 266.67108 
L 267.524121 268.964438 
L 268.85267 252.923309 
L 270.181218 268.285265 
L 271.509766 269.728954 
L 272.838314 268.389707 
L 274.166863 270.462378 
L 275.495411 269.007605 
L 276.823959 260.106565 
L 279.481056 270.494429 
L 280.809604 268.96328 
L 282.138152 267.086593 
L 283.466701 268.59909 
L 284.795249 256.630548 
L 286.123797 266.283487 
L 287.452346 263.602318 
L 288.780894 263.818729 
L 290.109442 263.140718 
L 291.43799 264.092664 
L 292.766539 262.214485 
L 294.095087 258.581594 
L 295.423635 255.637502 
L 296.752184 266.236296 
L 298.080732 266.002109 
L 299.40928 268.028301 
L 300.737829 264.926995 
L 302.066377 258.431203 
L 303.394925 264.73317 
L 304.723473 261.978449 
L 306.052022 263.500032 
L 307.38057 265.549394 
L 308.709118 263.112801 
L 310.037667 264.760517 
L 311.366215 261.798247 
L 312.694763 264.519119 
L 314.023311 263.629041 
L 315.35186 264.939945 
L 316.680408 264.956634 
L 318.008956 262.610597 
L 319.337505 264.11988 
L 320.666053 262.384133 
L 321.994601 264.539268 
L 323.323149 262.770692 
L 324.651698 263.263794 
L 325.980246 259.936277 
L 327.308794 264.031097 
L 328.637343 263.347566 
L 329.965891 264.770069 
L 331.294439 260.023644 
L 332.622987 263.421739 
L 333.951536 261.464246 
L 335.280084 260.649148 
L 336.608632 261.004435 
L 337.937181 262.215442 
L 339.265729 262.087477 
L 341.922825 260.59475 
L 343.251374 246.187435 
L 344.579922 247.533189 
L 345.90847 248.160006 
L 347.237019 247.511602 
L 348.565567 260.907778 
L 349.894115 259.385655 
L 351.222663 260.50651 
L 352.551212 259.61425 
L 353.87976 254.488872 
L 355.208308 259.092318 
L 356.536857 259.354834 
L 357.865405 258.626244 
L 359.193953 259.357662 
L 360.522502 261.264396 
L 361.85105 259.329002 
L 363.179598 259.492778 
L 364.508146 257.287551 
L 365.836695 243.543243 
L 367.165243 259.346623 
L 368.493791 257.945031 
L 369.82234 256.761053 
L 371.150888 257.985533 
L 372.479436 259.395079 
L 373.807984 257.111034 
L 375.136533 252.308271 
L 376.465081 260.07783 
L 379.122178 255.158705 
L 380.450726 256.737589 
L 381.779274 255.575159 
L 383.107822 255.701567 
L 384.436371 254.305038 
L 385.764919 256.624029 
L 387.093467 255.303511 
L 388.422016 256.480779 
L 389.750564 254.394136 
L 391.079112 256.137669 
L 392.40766 255.385376 
L 393.736209 256.123412 
L 395.064757 255.515723 
L 396.393305 254.072801 
L 397.721854 247.956519 
L 399.050402 254.601226 
L 400.37895 254.633966 
L 401.707498 252.415836 
L 403.036047 251.851964 
L 404.364595 252.741884 
L 405.693143 251.112707 
L 407.021692 241.937633 
L 408.35024 253.896285 
L 411.007337 251.532168 
L 412.335885 251.458005 
L 413.664433 252.650642 
L 414.992981 252.223575 
L 416.32153 253.328706 
L 417.650078 252.638603 
L 418.978626 252.685592 
L 420.307175 254.409355 
L 421.635723 252.026477 
L 422.964271 253.137461 
L 424.292819 250.168759 
L 425.621368 251.928309 
L 426.949916 251.341443 
L 428.278464 251.146012 
L 429.607013 242.199808 
L 430.935561 251.321477 
L 432.264109 251.066228 
L 433.592657 251.972799 
L 434.921206 249.608155 
L 436.249754 248.181317 
L 437.578302 251.510657 
L 438.906851 250.81786 
L 440.235399 248.882873 
L 441.563947 249.477543 
L 442.892495 247.997749 
L 444.221044 250.458011 
L 445.549592 250.908435 
L 446.87814 249.302143 
L 448.206689 249.897489 
L 449.535237 249.767262 
L 450.863785 248.465875 
L 452.192333 247.344447 
L 453.520882 248.932605 
L 454.84943 247.117901 
L 456.177978 247.880367 
L 457.506527 249.766773 
L 460.163623 239.59621 
L 461.492171 248.689631 
L 462.82072 247.841142 
L 464.149268 237.507455 
L 465.477816 247.560809 
L 466.806365 244.126031 
L 468.134913 246.200691 
L 469.463461 245.070993 
L 470.79201 246.826869 
L 472.120558 244.830901 
L 473.449106 248.24917 
L 474.777654 244.555142 
L 476.106203 245.098096 
L 477.434751 245.868278 
L 478.763299 246.216205 
L 480.091848 247.034467 
L 481.420396 243.924073 
L 482.748944 245.153142 
L 484.077492 245.964063 
L 485.406041 234.87033 
L 486.734589 243.890629 
L 488.063137 240.655897 
L 489.391686 244.374646 
L 490.720234 244.722264 
L 492.048782 243.079197 
L 493.37733 245.172308 
L 494.705879 243.917327 
L 496.034427 243.742699 
L 497.362975 243.028788 
L 498.691524 237.444017 
L 500.020072 244.080529 
L 501.34862 244.667505 
L 502.677168 241.081922 
L 504.005717 241.82239 
L 505.334265 238.651996 
L 506.662813 236.165135 
L 507.991362 241.466096 
L 509.31991 232.461941 
L 510.648458 241.866229 
L 511.977006 233.27595 
L 513.305555 243.88612 
L 514.634103 240.9068 
L 515.962651 242.623854 
L 517.2912 242.684862 
L 518.619748 241.018536 
L 519.948296 237.062796 
L 521.276845 241.563265 
L 522.605393 237.992862 
L 523.933941 242.161579 
L 525.262489 233.395687 
L 526.591038 239.929522 
L 527.919586 241.094894 
L 529.248134 241.529191 
L 530.576683 232.973601 
L 531.905231 240.019067 
L 533.233779 238.462713 
L 534.562327 240.564681 
L 537.219424 239.668811 
L 538.547972 231.727698 
L 539.876521 239.560302 
L 541.205069 238.998428 
L 542.533617 238.707916 
L 543.862165 237.700955 
L 545.190714 234.927503 
L 546.519262 240.055317 
L 547.84781 237.958667 
L 550.504907 236.97553 
L 551.833455 238.226625 
L 553.162003 239.877354 
L 554.490552 237.946038 
L 555.8191 238.548924 
L 557.147648 237.725698 
L 558.476197 237.688587 
L 559.804745 236.487473 
L 561.133293 236.292577 
L 562.461841 230.925658 
L 563.79039 234.059426 
L 565.118938 231.710498 
L 566.447486 235.673315 
L 567.776035 235.567499 
L 569.104583 236.034619 
L 570.433131 236.238643 
L 571.761679 236.165362 
L 573.090228 237.089445 
L 574.418776 235.719953 
L 575.747324 235.059224 
L 578.404421 234.481317 
L 579.732969 236.761984 
L 581.061518 234.375053 
L 582.390066 235.118722 
L 585.047162 234.900738 
L 586.375711 228.404649 
L 587.704259 227.268648 
L 589.032807 235.196313 
L 590.361356 232.814583 
L 593.018452 233.550606 
L 594.347 233.016285 
L 595.675549 232.885252 
L 597.004097 233.469421 
L 598.332645 233.409079 
L 599.661194 233.04865 
L 600.989742 233.530283 
L 602.31829 232.440514 
L 603.646838 232.746992 
L 604.975387 234.663738 
L 606.303935 232.93039 
L 607.632483 231.417318 
L 610.28958 231.580722 
L 611.618128 230.161566 
L 612.946676 228.563973 
L 614.275225 230.901321 
L 615.603773 230.219553 
L 616.932321 232.24962 
L 618.26087 232.409825 
L 619.589418 229.20245 
L 620.917966 229.158685 
L 622.246514 231.973744 
L 623.575063 229.065427 
L 624.903611 230.525008 
L 626.232159 231.264448 
L 627.560708 229.282848 
L 628.889256 230.357197 
L 630.217804 228.674546 
L 631.546353 225.706323 
L 632.874901 231.1525 
L 634.203449 229.586093 
L 635.531997 229.90677 
L 636.860546 230.885668 
L 638.189094 228.337865 
L 639.517642 229.337983 
L 640.846191 229.280694 
L 642.174739 228.888389 
L 643.503287 228.752055 
L 644.831835 227.972975 
L 646.160384 228.580007 
L 647.488932 228.241207 
L 648.81748 227.28694 
L 650.146029 227.14543 
L 651.474577 227.151828 
L 652.803125 227.300801 
L 656.78877 226.280809 
L 658.117318 225.300307 
L 660.774415 226.554272 
L 662.102963 225.457024 
L 663.431511 226.5348 
L 664.76006 224.549402 
L 666.088608 225.997806 
L 667.417156 225.256175 
L 668.745705 225.110423 
L 670.074253 225.690598 
L 672.731349 223.405594 
L 674.059898 224.35686 
L 675.388446 223.218709 
L 676.716994 225.126419 
L 678.045543 224.113046 
L 679.374091 224.383648 
L 679.374091 224.383648 
" clip-path="url(#pc2b8e8d91b)" style="fill: none; stroke: #ff7f0e; stroke-width: 1.5; stroke-linecap: square"/>
   </g>
   <g id="line2d_27">
    <path d="M 82.855909 297.250871 
L 84.184457 345.21662 
L 85.513006 340.950871 
L 86.841554 344.071506 
L 88.170102 274.6584 
L 89.498651 336.875387 
L 90.827199 295.446198 
L 92.155747 369.120733 
L 93.484295 329.348501 
L 94.812844 338.126971 
L 96.141392 342.409717 
L 97.46994 339.960409 
L 98.798489 364.642716 
L 100.127037 350.599335 
L 101.455585 358.163075 
L 102.784133 308.101706 
L 104.112682 350.23641 
L 105.44123 373.467273 
L 106.769778 354.933641 
L 108.098327 350.676253 
L 109.426875 272.507625 
L 110.755423 370.212471 
L 112.083971 357.411299 
L 113.41252 327.785825 
L 114.741068 352.336379 
L 116.069616 359.662928 
L 117.398165 286.042397 
L 118.726713 332.569583 
L 120.055261 357.077077 
L 121.383809 347.744903 
L 122.712358 348.329793 
L 124.040906 360.997669 
L 125.369454 350.290107 
L 126.698003 287.267714 
L 128.026551 350.33321 
L 129.355099 342.545827 
L 130.683647 267.024751 
L 132.012196 358.656742 
L 133.340744 269.589884 
L 134.669292 347.443701 
L 135.997841 353.757056 
L 137.326389 332.430454 
L 138.654937 347.89775 
L 139.983486 355.719526 
L 141.312034 287.532568 
L 142.640582 344.665871 
L 143.96913 348.426725 
L 145.297679 353.998354 
L 146.626227 283.154075 
L 147.954775 323.962416 
L 149.283324 353.608688 
L 150.611872 362.654343 
L 151.94042 354.550089 
L 153.268968 351.205957 
L 154.597517 338.681434 
L 155.926065 360.582624 
L 157.254613 349.396155 
L 158.583162 330.642605 
L 159.91171 340.753431 
L 161.240258 342.602468 
L 163.897355 277.379687 
L 165.225903 340.713011 
L 166.554451 361.388129 
L 167.883 343.502794 
L 169.211548 358.404278 
L 170.540096 358.920066 
L 171.868644 352.599615 
L 173.197193 318.921151 
L 174.525741 324.105279 
L 175.854289 358.599909 
L 177.182838 335.617334 
L 178.511386 261.363091 
L 179.839934 343.163591 
L 181.168482 349.608302 
L 182.497031 345.256 
L 183.825579 352.389064 
L 185.154127 342.160757 
L 186.482676 355.47863 
L 187.811224 355.476442 
L 189.139772 340.546069 
L 190.468321 259.211736 
L 191.796869 351.664247 
L 193.125417 354.745396 
L 194.453965 350.633436 
L 195.782514 356.476671 
L 197.111062 355.077389 
L 198.43961 270.033929 
L 199.768159 320.691751 
L 201.096707 252.94659 
L 202.425255 337.305227 
L 203.753803 259.55078 
L 205.082352 348.207697 
L 206.4109 338.084705 
L 207.739448 263.461236 
L 209.067997 345.907663 
L 210.396545 276.776668 
L 211.725093 344.069105 
L 213.053641 347.635546 
L 214.38219 343.460884 
L 215.710738 345.881068 
L 217.039286 338.649093 
L 218.367835 352.904089 
L 219.696383 278.248813 
L 221.024931 346.418844 
L 222.353479 298.416651 
L 223.682028 352.798896 
L 225.010576 322.590951 
L 226.339124 254.963887 
L 227.667673 326.103653 
L 228.996221 333.327382 
L 230.324769 338.674192 
L 231.653317 349.339893 
L 232.981866 332.820784 
L 234.310414 331.247712 
L 235.638962 300.391135 
L 236.967511 344.209153 
L 238.296059 343.296689 
L 239.624607 247.830469 
L 240.953155 341.31051 
L 242.281704 338.626934 
L 243.610252 264.565877 
L 244.9388 338.406089 
L 246.267349 343.898904 
L 247.595897 328.433841 
L 248.924445 256.290502 
L 250.252994 335.207106 
L 251.581542 330.109858 
L 252.91009 342.067169 
L 254.238638 343.820868 
L 255.567187 337.494584 
L 256.895735 243.670016 
L 258.224283 342.091532 
L 259.552832 295.269104 
L 260.88138 320.03151 
L 262.209928 300.581425 
L 263.538476 346.906717 
L 264.867025 299.621433 
L 266.195573 340.029869 
L 267.524121 323.502803 
L 268.85267 248.44456 
L 270.181218 337.743675 
L 271.509766 339.024749 
L 272.838314 336.141535 
L 274.166863 338.759364 
L 275.495411 344.313789 
L 276.823959 262.510145 
L 278.152508 287.553798 
L 279.481056 337.26748 
L 280.809604 343.702971 
L 282.138152 326.013907 
L 283.466701 313.554198 
L 284.795249 250.773181 
L 286.123797 311.136954 
L 287.452346 336.57143 
L 288.780894 288.201006 
L 290.109442 302.895929 
L 291.43799 294.155638 
L 292.766539 298.438581 
L 294.095087 261.745374 
L 295.423635 245.640914 
L 296.752184 336.180956 
L 298.080732 325.390152 
L 299.40928 319.550736 
L 300.737829 327.266763 
L 302.066377 255.684742 
L 303.394925 300.283724 
L 304.723473 295.186209 
L 306.052022 298.751875 
L 307.38057 339.525596 
L 308.709118 326.259043 
L 310.037667 327.149524 
L 311.366215 328.998951 
L 312.694763 307.891732 
L 314.023311 325.416027 
L 315.35186 329.124522 
L 316.680408 332.135772 
L 318.008956 340.588092 
L 319.337505 323.77523 
L 320.666053 292.013064 
L 321.994601 313.827505 
L 323.323149 328.983148 
L 324.651698 314.556327 
L 325.980246 339.981544 
L 327.308794 323.507866 
L 328.637343 324.657997 
L 329.965891 325.627295 
L 331.294439 274.69106 
L 332.622987 331.892743 
L 333.951536 335.110056 
L 335.280084 322.609526 
L 336.608632 338.432157 
L 337.937181 322.233126 
L 339.265729 304.281521 
L 340.594277 295.802163 
L 341.922825 325.254851 
L 343.251374 231.791951 
L 344.579922 233.294908 
L 345.90847 232.530814 
L 347.237019 236.725348 
L 348.565567 327.587671 
L 349.894115 322.787656 
L 351.222663 323.095545 
L 352.551212 291.011239 
L 353.87976 248.372741 
L 355.208308 318.15863 
L 356.536857 326.189481 
L 357.865405 326.626571 
L 359.193953 326.244526 
L 360.522502 318.743106 
L 361.85105 303.679026 
L 363.179598 313.27739 
L 364.508146 317.937563 
L 365.836695 240.718258 
L 367.165243 310.068129 
L 368.493791 308.227226 
L 369.82234 318.178702 
L 371.150888 330.067585 
L 372.479436 329.940934 
L 373.807984 321.329808 
L 375.136533 254.246712 
L 376.465081 324.212051 
L 377.793629 312.332883 
L 379.122178 313.3421 
L 380.450726 281.654215 
L 381.779274 326.093064 
L 383.107822 284.458983 
L 384.436371 269.449512 
L 385.764919 325.500856 
L 387.093467 317.479633 
L 388.422016 322.750933 
L 389.750564 286.092054 
L 391.079112 309.595305 
L 392.40766 322.803478 
L 393.736209 316.34523 
L 395.064757 328.669109 
L 396.393305 312.52269 
L 397.721854 244.550013 
L 399.050402 318.78755 
L 400.37895 311.713061 
L 401.707498 325.539303 
L 403.036047 325.903375 
L 404.364595 312.531608 
L 405.693143 273.155756 
L 407.021692 222.602517 
L 408.35024 292.756154 
L 409.678788 323.346284 
L 411.007337 289.306512 
L 412.335885 292.306258 
L 413.664433 310.675454 
L 414.992981 305.300084 
L 416.32153 306.032055 
L 417.650078 321.761039 
L 418.978626 318.685022 
L 420.307175 310.461264 
L 421.635723 273.286172 
L 422.964271 318.649331 
L 424.292819 315.022775 
L 425.621368 312.858356 
L 426.949916 295.900097 
L 428.278464 284.749788 
L 429.607013 216.36085 
L 430.935561 319.531913 
L 432.264109 303.397924 
L 433.592657 298.010335 
L 434.921206 271.152489 
L 436.249754 306.484467 
L 437.578302 317.510616 
L 438.906851 307.551864 
L 440.235399 255.371142 
L 441.563947 305.217031 
L 442.892495 282.764615 
L 444.221044 317.013841 
L 445.549592 320.004335 
L 446.87814 266.034999 
L 448.206689 296.717022 
L 449.535237 306.808958 
L 450.863785 303.389176 
L 452.192333 311.627431 
L 453.520882 309.90919 
L 454.84943 311.416975 
L 456.177978 301.090998 
L 457.506527 300.533705 
L 458.835075 231.479357 
L 460.163623 201.196035 
L 461.492171 291.022593 
L 462.82072 302.897763 
L 464.149268 204.216142 
L 465.477816 272.905302 
L 466.806365 233.22 
L 468.134913 304.182339 
L 469.463461 308.751542 
L 470.79201 275.080074 
L 472.120558 299.508651 
L 473.449106 279.681728 
L 474.777654 315.935294 
L 477.434751 299.493881 
L 478.763299 280.366074 
L 480.091848 309.440462 
L 481.420396 250.093358 
L 482.748944 277.755016 
L 484.077492 308.554826 
L 485.406041 194.020009 
L 486.734589 288.063335 
L 488.063137 219.873105 
L 489.391686 290.034035 
L 490.720234 297.946287 
L 492.048782 296.566267 
L 493.37733 291.569507 
L 494.705879 276.828703 
L 496.034427 305.475596 
L 497.362975 310.479996 
L 498.691524 206.085552 
L 500.020072 305.634737 
L 501.34862 293.098411 
L 502.677168 301.536198 
L 504.005717 278.103027 
L 505.334265 209.37651 
L 506.662813 198.135675 
L 507.991362 308.598086 
L 509.31991 190.30423 
L 510.648458 307.272134 
L 511.977006 184.254868 
L 513.305555 286.65324 
L 514.634103 253.633304 
L 515.962651 301.885211 
L 517.2912 265.364563 
L 518.619748 245.396425 
L 519.948296 205.894015 
L 521.276845 299.30792 
L 522.605393 224.876817 
L 523.933941 273.337907 
L 525.262489 183.298218 
L 526.591038 305.685596 
L 527.919586 298.830623 
L 529.248134 297.630163 
L 530.576683 186.623472 
L 531.905231 297.346824 
L 533.233779 304.051957 
L 534.562327 282.018464 
L 535.890876 291.328091 
L 537.219424 285.874711 
L 538.547972 179.744014 
L 539.876521 294.439402 
L 541.205069 243.779851 
L 542.533617 239.862309 
L 543.862165 281.29127 
L 545.190714 204.672334 
L 546.519262 281.03346 
L 547.84781 293.050537 
L 549.176359 298.309534 
L 550.504907 259.737495 
L 551.833455 291.14311 
L 553.162003 289.916633 
L 554.490552 301.832721 
L 555.8191 287.966512 
L 557.147648 302.765847 
L 558.476197 291.875747 
L 559.804745 266.659427 
L 561.133293 277.797958 
L 562.461841 174.317696 
L 563.79039 211.668746 
L 565.118938 176.603745 
L 566.447486 298.051476 
L 567.776035 256.439407 
L 569.104583 248.426362 
L 570.433131 292.145701 
L 571.761679 250.474864 
L 573.090228 264.017162 
L 574.418776 264.673154 
L 577.075873 295.947762 
L 578.404421 297.57914 
L 579.732969 285.549871 
L 581.061518 251.016089 
L 582.390066 293.887428 
L 583.718614 264.398048 
L 585.047162 284.724279 
L 586.375711 174.689303 
L 587.704259 164.621016 
L 589.032807 293.024912 
L 590.361356 281.573362 
L 591.689904 243.470849 
L 593.018452 247.480247 
L 594.347 254.867449 
L 595.675549 287.31819 
L 597.004097 288.066886 
L 598.332645 277.498268 
L 599.661194 250.374875 
L 600.989742 275.191307 
L 602.31829 291.215531 
L 603.646838 282.952842 
L 604.975387 283.224445 
L 606.303935 271.692731 
L 607.632483 241.863828 
L 608.961032 256.807603 
L 610.28958 269.72774 
L 611.618128 195.20218 
L 612.946676 179.408085 
L 614.275225 288.970715 
L 615.603773 293.705558 
L 616.932321 287.563037 
L 618.26087 279.395431 
L 619.589418 210.794293 
L 620.917966 204.391855 
L 622.246514 275.478905 
L 623.575063 210.93893 
L 624.903611 263.990797 
L 626.232159 275.616952 
L 627.560708 276.213023 
L 628.889256 238.460356 
L 630.217804 287.287073 
L 631.546353 150.037168 
L 632.874901 277.589913 
L 634.203449 285.179097 
L 635.531997 286.659499 
L 636.860546 281.975701 
L 638.189094 290.480314 
L 639.517642 268.237858 
L 640.846191 265.428111 
L 642.174739 273.953541 
L 643.503287 274.020783 
L 644.831835 279.238542 
L 646.160384 256.103646 
L 647.488932 273.108696 
L 648.81748 269.757986 
L 650.146029 270.299457 
L 651.474577 245.634948 
L 652.803125 276.563083 
L 654.131673 232.56569 
L 655.460222 269.10846 
L 656.78877 280.926977 
L 658.117318 174.845172 
L 659.445867 208.665849 
L 660.774415 282.784575 
L 662.102963 268.558103 
L 663.431511 261.076888 
L 664.76006 171.26028 
L 666.088608 261.912473 
L 667.417156 267.824611 
L 668.745705 259.766522 
L 670.074253 260.94685 
L 671.402801 170.980255 
L 672.731349 162.743803 
L 674.059898 205.621792 
L 675.388446 154.01184 
L 676.716994 280.634313 
L 678.045543 199.20597 
L 679.374091 260.763478 
L 679.374091 260.763478 
" clip-path="url(#pc2b8e8d91b)" style="fill: none; stroke: #2ca02c; stroke-width: 1.5; stroke-linecap: square"/>
   </g>
   <g id="line2d_28">
    <path d="M 82.855909 269.229335 
L 85.513006 278.389525 
L 86.841554 276.534964 
L 88.170102 252.593057 
L 89.498651 279.995439 
L 90.827199 267.533778 
L 92.155747 294.782035 
L 93.484295 278.785007 
L 94.812844 259.870159 
L 96.141392 283.108199 
L 97.46994 279.766411 
L 98.798489 298.169646 
L 100.127037 282.03478 
L 101.455585 280.339084 
L 102.784133 268.165684 
L 104.112682 281.319238 
L 105.44123 300.171032 
L 106.769778 281.861607 
L 108.098327 273.755605 
L 109.426875 254.799601 
L 110.755423 305.020873 
L 112.083971 291.498133 
L 113.41252 274.948593 
L 114.741068 283.264056 
L 116.069616 289.803228 
L 117.398165 261.199619 
L 118.726713 268.922881 
L 120.055261 287.107945 
L 121.383809 275.241798 
L 122.712358 277.226907 
L 124.040906 299.24633 
L 125.369454 284.090748 
L 126.698003 258.948055 
L 128.026551 277.122366 
L 129.355099 282.806916 
L 130.683647 249.857131 
L 132.012196 294.970764 
L 133.340744 252.45315 
L 134.669292 276.797609 
L 135.997841 285.660434 
L 137.326389 282.765511 
L 138.654937 281.315269 
L 139.983486 292.623029 
L 141.312034 258.741885 
L 142.640582 272.577204 
L 143.96913 277.028525 
L 145.297679 285.988088 
L 146.626227 256.672803 
L 147.954775 267.244372 
L 149.283324 294.387645 
L 150.611872 295.001024 
L 151.94042 281.72699 
L 153.268968 286.15068 
L 154.597517 276.816387 
L 155.926065 298.030157 
L 157.254613 286.409299 
L 158.583162 269.094357 
L 159.91171 278.496598 
L 161.240258 269.284244 
L 162.568806 265.757971 
L 163.897355 253.109758 
L 165.225903 270.062597 
L 166.554451 296.684479 
L 167.883 272.176835 
L 169.211548 290.910068 
L 170.540096 297.611509 
L 171.868644 293.378857 
L 173.197193 271.872691 
L 174.525741 274.443248 
L 175.854289 289.304079 
L 178.511386 249.233139 
L 179.839934 269.293983 
L 181.168482 286.726168 
L 182.497031 280.586735 
L 183.825579 290.365156 
L 185.154127 269.127241 
L 186.482676 288.036685 
L 187.811224 293.363606 
L 189.139772 270.768743 
L 190.468321 245.666853 
L 191.796869 287.554851 
L 193.125417 292.981537 
L 194.453965 288.983665 
L 195.782514 302.33452 
L 197.111062 289.700263 
L 198.43961 248.355614 
L 199.768159 260.492224 
L 201.096707 245.68634 
L 202.425255 269.587934 
L 203.753803 233.421749 
L 205.082352 280.253608 
L 206.4109 268.610005 
L 207.739448 232.042285 
L 209.067997 292.784133 
L 210.396545 249.217147 
L 211.725093 279.656956 
L 213.053641 282.730841 
L 214.38219 283.069814 
L 215.710738 283.929802 
L 217.039286 281.467086 
L 218.367835 289.295594 
L 219.696383 247.112462 
L 221.024931 289.823538 
L 222.353479 263.807987 
L 223.682028 291.463855 
L 225.010576 260.919818 
L 226.339124 239.295317 
L 227.667673 263.228326 
L 228.996221 272.736439 
L 230.324769 276.219848 
L 231.653317 283.735939 
L 232.981866 269.897283 
L 235.638962 258.53991 
L 236.967511 279.359412 
L 238.296059 283.78915 
L 239.624607 239.615948 
L 240.953155 284.016242 
L 242.281704 275.277855 
L 243.610252 215.912317 
L 244.9388 277.600178 
L 246.267349 284.648238 
L 247.595897 262.913383 
L 248.924445 244.512953 
L 250.252994 271.147795 
L 251.581542 264.858691 
L 252.91009 285.098972 
L 254.238638 287.686173 
L 255.567187 281.353164 
L 256.895735 233.023952 
L 258.224283 273.585277 
L 259.552832 255.903465 
L 260.88138 266.105377 
L 262.209928 254.556722 
L 263.538476 290.318424 
L 264.867025 256.437849 
L 266.195573 283.390755 
L 267.524121 263.95586 
L 268.85267 229.274234 
L 270.181218 281.003241 
L 271.509766 286.53393 
L 272.838314 272.2527 
L 274.166863 273.584982 
L 275.495411 286.583513 
L 276.823959 241.096386 
L 278.152508 250.218404 
L 279.481056 274.420016 
L 280.809604 291.504038 
L 282.138152 271.005365 
L 283.466701 262.95372 
L 284.795249 232.603299 
L 286.123797 260.458754 
L 287.452346 281.269251 
L 288.780894 250.388932 
L 290.109442 257.952686 
L 291.43799 255.00827 
L 292.766539 254.479155 
L 294.095087 241.47795 
L 295.423635 237.483899 
L 296.752184 285.885593 
L 298.080732 264.184805 
L 299.40928 268.846995 
L 300.737829 278.132079 
L 302.066377 239.099043 
L 303.394925 255.630113 
L 304.723473 254.883528 
L 306.052022 250.140443 
L 307.38057 287.009164 
L 308.709118 263.102062 
L 311.366215 280.81595 
L 312.694763 257.539325 
L 314.023311 274.675927 
L 315.35186 277.274813 
L 316.680408 275.067986 
L 318.008956 287.940846 
L 319.337505 263.802802 
L 320.666053 253.354889 
L 321.994601 260.289973 
L 323.323149 280.66327 
L 324.651698 262.837169 
L 325.980246 290.398232 
L 327.308794 271.22032 
L 328.637343 277.999288 
L 329.965891 274.407866 
L 331.294439 247.516884 
L 332.622987 280.540472 
L 333.951536 286.63501 
L 335.280084 266.856945 
L 336.608632 286.751628 
L 339.265729 251.532942 
L 340.594277 255.434443 
L 341.922825 278.793849 
L 343.251374 195.992245 
L 344.579922 200.958529 
L 345.90847 205.021103 
L 347.237019 197.520861 
L 348.565567 283.824004 
L 349.894115 277.684131 
L 351.222663 267.122523 
L 352.551212 249.685921 
L 353.87976 235.971279 
L 355.208308 266.298013 
L 356.536857 274.705729 
L 357.865405 286.377624 
L 359.193953 278.319368 
L 360.522502 265.771074 
L 361.85105 255.618076 
L 363.179598 257.642405 
L 364.508146 268.654449 
L 365.836695 178.713259 
L 367.165243 258.088047 
L 368.493791 257.371817 
L 369.82234 266.234039 
L 371.150888 287.83463 
L 372.479436 279.108742 
L 373.807984 282.051116 
L 375.136533 234.816841 
L 376.465081 277.022678 
L 377.793629 259.876776 
L 379.122178 262.494449 
L 380.450726 247.564047 
L 381.779274 283.577712 
L 383.107822 248.190638 
L 384.436371 242.632892 
L 385.764919 283.143144 
L 387.093467 269.052479 
L 388.422016 276.333196 
L 389.750564 249.220883 
L 391.079112 259.390441 
L 392.40766 281.930513 
L 393.736209 268.878878 
L 395.064757 291.400461 
L 396.393305 254.179117 
L 397.721854 232.385104 
L 399.050402 268.189434 
L 400.37895 263.594633 
L 401.707498 282.985292 
L 403.036047 283.132968 
L 404.364595 268.648529 
L 405.693143 245.277727 
L 407.021692 157.524147 
L 408.35024 252.519702 
L 409.678788 283.794603 
L 411.007337 251.889821 
L 412.335885 250.433188 
L 413.664433 260.488263 
L 414.992981 255.428338 
L 416.32153 258.380429 
L 417.650078 283.601196 
L 418.978626 280.228092 
L 420.307175 266.527763 
L 421.635723 245.880933 
L 422.964271 281.123922 
L 424.292819 271.694842 
L 425.621368 268.247415 
L 426.949916 250.438278 
L 428.278464 249.43215 
L 429.607013 179.377993 
L 430.935561 281.098962 
L 432.264109 263.411547 
L 433.592657 252.332957 
L 434.921206 243.949068 
L 436.249754 275.785793 
L 437.578302 275.703831 
L 438.906851 265.851841 
L 440.235399 233.04542 
L 441.563947 259.215364 
L 442.892495 248.746851 
L 444.221044 270.439767 
L 445.549592 280.02824 
L 446.87814 243.088399 
L 449.535237 269.811879 
L 450.863785 267.866688 
L 452.192333 270.292862 
L 454.84943 273.356874 
L 456.177978 256.291491 
L 457.506527 268.953233 
L 458.835075 217.622972 
L 460.163623 160.494853 
L 461.492171 255.398881 
L 462.82072 268.815427 
L 464.149268 142.151467 
L 465.477816 245.69753 
L 466.806365 226.33921 
L 468.134913 265.956499 
L 469.463461 273.749707 
L 470.79201 243.366519 
L 472.120558 269.82699 
L 473.449106 245.270711 
L 474.777654 286.144537 
L 476.106203 270.744207 
L 478.763299 247.871885 
L 480.091848 272.154777 
L 481.420396 232.780763 
L 482.748944 249.724057 
L 484.077492 270.634552 
L 485.406041 139.015951 
L 486.734589 252.787978 
L 488.063137 202.807151 
L 489.391686 254.010377 
L 490.720234 267.297298 
L 492.048782 264.23275 
L 493.37733 250.714417 
L 494.705879 246.672947 
L 496.034427 270.789374 
L 497.362975 279.775544 
L 498.691524 162.066045 
L 500.020072 272.134057 
L 501.34862 253.84671 
L 502.677168 269.331969 
L 504.005717 245.959 
L 505.334265 160.472878 
L 506.662813 144.918906 
L 507.991362 280.536963 
L 509.31991 130.977328 
L 510.648458 281.602723 
L 511.977006 129.24682 
L 513.305555 249.413849 
L 514.634103 231.962522 
L 515.962651 275.793316 
L 517.2912 238.472146 
L 518.619748 227.085661 
L 519.948296 157.83454 
L 521.276845 273.462783 
L 522.605393 220.241518 
L 523.933941 243.864273 
L 525.262489 134.26804 
L 526.591038 277.445696 
L 527.919586 271.604827 
L 529.248134 274.802863 
L 530.576683 137.919962 
L 531.905231 262.933748 
L 533.233779 278.724444 
L 534.562327 244.387299 
L 535.890876 260.253758 
L 537.219424 249.157497 
L 538.547972 130.508992 
L 539.876521 274.984779 
L 541.205069 228.546033 
L 542.533617 222.873462 
L 543.862165 247.524803 
L 545.190714 149.841241 
L 546.519262 249.825223 
L 547.84781 274.812738 
L 549.176359 269.452395 
L 550.504907 234.549605 
L 551.833455 258.582952 
L 553.162003 265.817261 
L 554.490552 279.32573 
L 555.8191 250.534305 
L 557.147648 277.877562 
L 558.476197 256.013659 
L 559.804745 244.199242 
L 561.133293 244.572139 
L 562.461841 123.078794 
L 563.79039 184.947208 
L 565.118938 123.078794 
L 566.447486 275.172701 
L 567.776035 234.01013 
L 569.104583 228.949016 
L 570.433131 272.047016 
L 571.761679 231.262821 
L 573.090228 240.810319 
L 574.418776 244.480868 
L 575.747324 255.940096 
L 577.075873 276.501831 
L 578.404421 273.480418 
L 579.732969 258.061135 
L 581.061518 230.054613 
L 582.390066 276.449383 
L 583.718614 238.866602 
L 585.047162 260.364288 
L 586.375711 121.476014 
L 587.704259 108.785621 
L 589.032807 278.083276 
L 590.361356 252.766125 
L 591.689904 223.4185 
L 593.018452 227.779585 
L 594.347 234.118433 
L 595.675549 266.861102 
L 597.004097 269.191565 
L 598.332645 252.065392 
L 599.661194 227.540774 
L 600.989742 251.347543 
L 602.31829 279.051999 
L 603.646838 259.333534 
L 604.975387 256.563199 
L 607.632483 225.648758 
L 608.961032 240.255936 
L 610.28958 242.806837 
L 611.618128 125.603139 
L 612.946676 119.683702 
L 614.275225 271.537479 
L 615.603773 270.774701 
L 616.932321 263.385631 
L 618.26087 249.130874 
L 619.589418 170.735067 
L 620.917966 152.833921 
L 622.246514 255.761494 
L 623.575063 200.816368 
L 624.903611 242.909975 
L 626.232159 255.722598 
L 627.560708 254.918359 
L 628.889256 219.967959 
L 630.217804 270.839293 
L 631.546353 101.336195 
L 632.874901 252.721866 
L 634.203449 261.333134 
L 635.531997 262.639466 
L 636.860546 252.770412 
L 638.189094 269.285697 
L 639.517642 238.233541 
L 640.846191 240.336036 
L 642.174739 249.478027 
L 643.503287 255.489096 
L 644.831835 264.471561 
L 646.160384 237.374962 
L 647.488932 256.264996 
L 648.81748 248.607116 
L 650.146029 255.117397 
L 651.474577 229.478336 
L 652.803125 266.626945 
L 654.131673 213.068502 
L 655.460222 262.115214 
L 656.78877 272.176161 
L 658.117318 104.640642 
L 659.445867 192.006944 
L 660.774415 268.22909 
L 662.102963 249.446485 
L 663.431511 243.160846 
L 664.76006 103.252115 
L 666.088608 244.548605 
L 667.417156 256.063947 
L 668.745705 244.171727 
L 670.074253 243.524122 
L 671.402801 98.616825 
L 672.731349 96.527855 
L 674.059898 185.651187 
L 675.388446 92.518844 
L 676.716994 263.727511 
L 678.045543 120.521488 
L 679.374091 243.332311 
L 679.374091 243.332311 
" clip-path="url(#pc2b8e8d91b)" style="fill: none; stroke: #d62728; stroke-width: 1.5; stroke-linecap: square"/>
   </g>
   <g id="line2d_29">
    <path d="M 82.855909 241.540319 
L 84.184457 243.276779 
L 85.513006 241.614484 
L 86.841554 240.366961 
L 88.170102 240.860476 
L 89.498651 241.486756 
L 90.827199 239.043443 
L 92.155747 239.851929 
L 93.484295 239.546114 
L 94.812844 230.281029 
L 96.141392 237.56427 
L 97.46994 237.670024 
L 98.798489 238.193296 
L 100.127037 237.164605 
L 101.455585 239.809811 
L 104.112682 235.979803 
L 105.44123 240.052906 
L 106.769778 240.478208 
L 108.098327 239.160641 
L 109.426875 239.245336 
L 110.755423 239.837737 
L 112.083971 236.579987 
L 113.41252 238.441885 
L 114.741068 238.15072 
L 116.069616 237.693372 
L 117.398165 235.302249 
L 118.726713 235.326513 
L 120.055261 237.124319 
L 121.383809 237.160027 
L 122.712358 234.234645 
L 124.040906 236.112109 
L 125.369454 235.701456 
L 126.698003 235.647893 
L 128.026551 235.118669 
L 129.355099 233.674747 
L 130.683647 234.120193 
L 132.012196 236.173912 
L 133.340744 236.699474 
L 134.669292 233.784163 
L 135.997841 236.090134 
L 137.326389 231.837112 
L 138.654937 237.738695 
L 139.983486 235.267914 
L 141.312034 233.897241 
L 142.640582 233.407388 
L 143.96913 232.471174 
L 145.297679 234.823841 
L 146.626227 234.775314 
L 147.954775 234.076244 
L 149.283324 233.677952 
L 150.611872 233.956756 
L 151.94042 235.604859 
L 153.268968 233.633545 
L 154.597517 233.650026 
L 155.926065 234.860924 
L 157.254613 231.552815 
L 159.91171 228.791784 
L 161.240258 233.448591 
L 162.568806 230.974147 
L 163.897355 231.033662 
L 165.225903 231.796368 
L 166.554451 231.787212 
L 167.883 232.33429 
L 169.211548 231.875568 
L 170.540096 230.848708 
L 171.868644 230.875719 
L 173.197193 227.609728 
L 174.525741 229.921193 
L 177.182838 229.448737 
L 178.511386 228.276294 
L 179.839934 228.743257 
L 181.168482 231.463085 
L 183.825579 226.957812 
L 185.154127 227.214184 
L 186.482676 231.08631 
L 187.811224 228.293691 
L 189.139772 230.22014 
L 190.468321 220.347545 
L 191.796869 225.453002 
L 193.125417 226.649708 
L 194.453965 226.825964 
L 195.782514 227.85145 
L 197.111062 229.071046 
L 198.43961 227.876172 
L 199.768159 229.395173 
L 201.096707 226.512366 
L 202.425255 227.414703 
L 203.753803 199.954102 
L 205.082352 224.539221 
L 206.4109 226.561809 
L 207.739448 204.012555 
L 209.067997 224.972763 
L 210.396545 224.075005 
L 211.725093 228.069366 
L 213.053641 226.317341 
L 214.38219 227.100648 
L 215.710738 225.727686 
L 217.039286 226.384638 
L 218.367835 222.756523 
L 219.696383 226.566845 
L 221.024931 222.933694 
L 222.353479 221.427511 
L 223.682028 225.178776 
L 225.010576 222.925453 
L 226.339124 210.550031 
L 227.667673 223.83191 
L 228.996221 222.308788 
L 230.324769 222.772546 
L 231.653317 224.476501 
L 232.981866 221.593237 
L 234.310414 221.487941 
L 235.638962 222.585761 
L 236.967511 221.373947 
L 238.296059 221.500302 
L 239.624607 215.95352 
L 240.953155 220.884552 
L 242.281704 221.902256 
L 243.610252 178.928885 
L 244.9388 220.991221 
L 246.267349 221.993817 
L 247.595897 221.90134 
L 248.924445 221.040206 
L 250.252994 220.962837 
L 251.581542 220.72844 
L 252.91009 219.707074 
L 254.238638 219.108264 
L 255.567187 219.177392 
L 256.895735 205.765496 
L 258.224283 219.438342 
L 259.552832 221.787804 
L 260.88138 217.788865 
L 262.209928 219.746903 
L 263.538476 219.113757 
L 264.867025 220.421252 
L 266.195573 217.917051 
L 267.524121 217.788865 
L 268.85267 197.615169 
L 270.181218 221.340985 
L 271.509766 215.818467 
L 272.838314 219.179224 
L 274.166863 218.644048 
L 275.495411 217.011968 
L 276.823959 220.406602 
L 278.152508 219.290928 
L 279.481056 218.632145 
L 280.809604 218.29291 
L 282.138152 217.506857 
L 283.466701 216.553704 
L 284.795249 207.783049 
L 286.123797 218.804738 
L 287.452346 215.12077 
L 288.780894 218.052562 
L 290.109442 216.42506 
L 291.43799 215.648621 
L 292.766539 215.843188 
L 294.095087 215.253991 
L 295.423635 217.222101 
L 296.752184 214.126414 
L 299.40928 216.403086 
L 300.737829 216.356847 
L 302.066377 216.778029 
L 303.394925 213.139842 
L 304.723473 214.372714 
L 306.052022 215.043401 
L 307.38057 213.99594 
L 308.709118 214.274744 
L 310.037667 210.896132 
L 311.366215 212.056672 
L 312.694763 214.76185 
L 314.023311 214.211109 
L 315.35186 212.738345 
L 316.680408 213.286797 
L 318.008956 212.367522 
L 319.337505 213.284051 
L 320.666053 212.584522 
L 321.994601 214.619014 
L 323.323149 212.506238 
L 324.651698 212.904529 
L 325.980246 211.243607 
L 327.308794 211.620382 
L 328.637343 212.158305 
L 329.965891 211.137396 
L 331.294439 212.881181 
L 332.622987 213.210802 
L 333.951536 209.926956 
L 335.280084 214.065068 
L 336.608632 210.124271 
L 337.937181 210.247421 
L 339.265729 211.369504 
L 340.594277 208.984791 
L 341.922825 210.344018 
L 343.251374 143.539993 
L 344.579922 154.948986 
L 345.90847 150.647438 
L 347.237019 149.151784 
L 348.565567 209.249861 
L 349.894115 208.983875 
L 351.222663 207.849431 
L 352.551212 209.459994 
L 353.87976 212.040648 
L 355.208308 207.199346 
L 356.536857 208.378655 
L 357.865405 209.374384 
L 359.193953 206.991044 
L 360.522502 207.685078 
L 363.179598 207.796783 
L 364.508146 206.142271 
L 365.836695 136.580878 
L 367.165243 209.583144 
L 368.493791 206.459073 
L 369.82234 208.014699 
L 371.150888 207.412226 
L 372.479436 205.590156 
L 373.807984 205.356217 
L 375.136533 211.349819 
L 376.465081 206.807464 
L 377.793629 204.997297 
L 379.122178 207.118314 
L 380.450726 208.501805 
L 381.779274 205.829131 
L 383.107822 204.893833 
L 384.436371 207.669055 
L 385.764919 204.789453 
L 387.093467 204.389788 
L 388.422016 201.496452 
L 389.750564 206.109309 
L 391.079112 203.508053 
L 392.40766 202.675303 
L 393.736209 204.533081 
L 395.064757 204.151271 
L 396.393305 204.750539 
L 397.721854 207.747798 
L 399.050402 206.535069 
L 400.37895 203.73192 
L 401.707498 203.616553 
L 403.036047 201.621891 
L 404.364595 201.096787 
L 405.693143 203.818903 
L 407.021692 117.866669 
L 408.35024 201.765642 
L 409.678788 201.601747 
L 411.007337 202.367199 
L 412.335885 202.063674 
L 413.664433 200.944337 
L 414.992981 202.322334 
L 416.32153 201.876431 
L 417.650078 202.339731 
L 418.978626 199.074198 
L 420.307175 199.585568 
L 421.635723 204.923132 
L 422.964271 200.283265 
L 424.292819 199.925718 
L 425.621368 199.136917 
L 426.949916 202.155693 
L 428.278464 201.16912 
L 429.607013 124.739258 
L 430.935561 199.146074 
L 432.264109 198.447919 
L 433.592657 201.372844 
L 436.249754 198.251978 
L 437.578302 197.605555 
L 438.906851 198.243279 
L 440.235399 202.269687 
L 441.563947 197.698032 
L 442.892495 198.603115 
L 444.221044 197.128979 
L 445.549592 198.406258 
L 446.87814 197.747933 
L 448.206689 196.711001 
L 449.535237 196.824995 
L 450.863785 195.938224 
L 452.192333 196.745337 
L 453.520882 197.096932 
L 454.84943 193.915635 
L 456.177978 196.528337 
L 457.506527 195.198409 
L 458.835075 192.826514 
L 460.163623 106.816138 
L 461.492171 198.034977 
L 462.82072 192.953784 
L 464.149268 104.385186 
L 465.477816 197.915948 
L 466.806365 199.314088 
L 468.134913 196.194596 
L 469.463461 191.767608 
L 470.79201 197.585412 
L 472.120558 194.389923 
L 473.449106 195.78669 
L 474.777654 192.526193 
L 476.106203 190.927533 
L 477.434751 194.765782 
L 478.763299 195.669034 
L 480.091848 190.928449 
L 481.420396 199.245875 
L 482.748944 193.700924 
L 484.077492 192.636524 
L 485.406041 96.577298 
L 486.734589 194.447607 
L 488.063137 167.276797 
L 489.391686 194.147286 
L 490.720234 193.551679 
L 492.048782 190.920666 
L 493.37733 193.154303 
L 494.705879 194.233811 
L 496.034427 190.599286 
L 497.362975 192.193368 
L 498.691524 105.901441 
L 500.020072 191.502996 
L 501.34862 191.683829 
L 502.677168 190.952713 
L 504.005717 192.227703 
L 505.334265 105.081509 
L 506.662813 87.364402 
L 507.991362 189.339861 
L 509.31991 88.678764 
L 510.648458 188.672837 
L 511.977006 87.689902 
L 513.305555 191.242504 
L 514.634103 194.928761 
L 515.962651 186.759664 
L 517.2912 192.815069 
L 518.619748 195.340329 
L 519.948296 100.44622 
L 521.276845 187.689926 
L 522.605393 190.924786 
L 523.933941 189.015734 
L 525.262489 85.464963 
L 526.591038 186.644297 
L 527.919586 185.749743 
L 529.248134 185.044721 
L 530.576683 86.490907 
L 531.905231 187.475673 
L 533.233779 186.372817 
L 534.562327 189.439205 
L 535.890876 188.329024 
L 537.219424 188.550145 
L 538.547972 81.509516 
L 539.876521 184.756761 
L 541.205069 190.975603 
L 542.533617 191.872446 
L 543.862165 186.891054 
L 545.190714 91.002589 
L 546.519262 185.032818 
L 547.84781 183.996802 
L 549.176359 184.513666 
L 550.504907 185.541899 
L 551.833455 184.119952 
L 553.162003 183.633762 
L 554.490552 182.732799 
L 555.8191 184.115374 
L 557.147648 182.69297 
L 558.476197 182.725932 
L 559.804745 184.109423 
L 561.133293 184.510003 
L 562.461841 71.567335 
L 563.79039 144.409368 
L 565.118938 74.657528 
L 566.447486 179.323972 
L 567.776035 186.736773 
L 569.104583 185.829859 
L 570.433131 181.309021 
L 571.761679 185.094622 
L 573.090228 183.694192 
L 574.418776 181.939878 
L 575.747324 182.555628 
L 577.075873 179.095985 
L 578.404421 180.775676 
L 579.732969 181.232109 
L 581.061518 183.904325 
L 582.390066 178.286583 
L 583.718614 182.935607 
L 585.047162 180.892875 
L 586.375711 65.325144 
L 587.704259 64.336283 
L 589.032807 177.597584 
L 590.361356 178.948571 
L 591.689904 184.229368 
L 593.018452 181.946287 
L 594.347 181.157945 
L 595.675549 177.855787 
L 597.004097 177.721192 
L 598.332645 179.435219 
L 599.661194 183.088056 
L 600.989742 177.889207 
L 602.31829 176.794592 
L 603.646838 178.327328 
L 604.975387 179.418738 
L 606.303935 179.831222 
L 607.632483 181.788344 
L 608.961032 179.337706 
L 610.28958 177.241869 
L 611.618128 66.763114 
L 612.946676 60.904108 
L 614.275225 175.146031 
L 615.603773 174.519294 
L 616.932321 176.288258 
L 618.26087 178.395083 
L 619.589418 130.536461 
L 620.917966 100.44622 
L 622.246514 176.590868 
L 623.575063 169.442221 
L 624.903611 178.023802 
L 626.232159 176.583085 
L 627.560708 176.631155 
L 628.889256 180.02991 
L 630.217804 173.407282 
L 631.546353 52.507023 
L 632.874901 175.63039 
L 634.203449 172.672961 
L 635.531997 173.632981 
L 636.860546 174.281235 
L 638.189094 172.333269 
L 639.517642 176.60094 
L 640.846191 174.067439 
L 642.174739 173.156405 
L 643.503287 173.539131 
L 644.831835 172.404229 
L 646.160384 174.025321 
L 647.488932 171.94276 
L 648.81748 172.709128 
L 650.146029 173.652667 
L 651.474577 174.172735 
L 652.803125 170.472286 
L 654.131673 177.593922 
L 655.460222 170.524476 
L 656.78877 170.026382 
L 658.117318 46.499688 
L 659.445867 165.461595 
L 660.774415 169.656017 
L 662.102963 171.81549 
L 663.431511 171.030809 
L 664.76006 45.350136 
L 666.088608 170.572087 
L 667.417156 169.439017 
L 668.745705 170.390796 
L 670.074253 170.474575 
L 671.402801 42.643127 
L 672.731349 42.791456 
L 674.059898 155.897104 
L 675.388446 42.012727 
L 676.716994 167.168297 
L 678.045543 64.192074 
L 679.374091 167.512567 
L 679.374091 167.512567 
" clip-path="url(#pc2b8e8d91b)" style="fill: none; stroke: #9467bd; stroke-width: 1.5; stroke-linecap: square"/>
   </g>
   <g id="line2d_30"/>
   <g id="patch_3">
    <path d="M 53.03 390.04 
L 53.03 25.44 
" style="fill: none; stroke: #000000; stroke-width: 0.8; stroke-linejoin: miter; stroke-linecap: square"/>
   </g>
   <g id="patch_4">
    <path d="M 709.2 390.04 
L 709.2 25.44 
" style="fill: none; stroke: #000000; stroke-width: 0.8; stroke-linejoin: miter; stroke-linecap: square"/>
   </g>
   <g id="patch_5">
    <path d="M 53.03 390.04 
L 709.2 390.04 
" style="fill: none; stroke: #000000; stroke-width: 0.8; stroke-linejoin: miter; stroke-linecap: square"/>
   </g>
   <g id="patch_6">
    <path d="M 53.03 25.44 
L 709.2 25.44 
" style="fill: none; stroke: #000000; stroke-width: 0.8; stroke-linejoin: miter; stroke-linecap: square"/>
   </g>
   <g id="text_15">
    <!-- Average Reward per Episode by Agent -->
    <g transform="translate(265.943125 19.44) scale(0.12 -0.12)">
     <defs>
      <path id="DejaVuSans-62" d="M 3116 1747 
Q 3116 2381 2855 2742 
Q 2594 3103 2138 3103 
Q 1681 3103 1420 2742 
Q 1159 2381 1159 1747 
Q 1159 1113 1420 752 
Q 1681 391 2138 391 
Q 2594 391 2855 752 
Q 3116 1113 3116 1747 
z
M 1159 2969 
Q 1341 3281 1617 3432 
Q 1894 3584 2278 3584 
Q 2916 3584 3314 3078 
Q 3713 2572 3713 1747 
Q 3713 922 3314 415 
Q 2916 -91 2278 -91 
Q 1894 -91 1617 61 
Q 1341 213 1159 525 
L 1159 0 
L 581 0 
L 581 4863 
L 1159 4863 
L 1159 2969 
z
" transform="scale(0.015625)"/>
      <path id="DejaVuSans-79" d="M 2059 -325 
Q 1816 -950 1584 -1140 
Q 1353 -1331 966 -1331 
L 506 -1331 
L 506 -850 
L 844 -850 
Q 1081 -850 1212 -737 
Q 1344 -625 1503 -206 
L 1606 56 
L 191 3500 
L 800 3500 
L 1894 763 
L 2988 3500 
L 3597 3500 
L 2059 -325 
z
" transform="scale(0.015625)"/>
      <path id="DejaVuSans-6e" d="M 3513 2113 
L 3513 0 
L 2938 0 
L 2938 2094 
Q 2938 2591 2744 2837 
Q 2550 3084 2163 3084 
Q 1697 3084 1428 2787 
Q 1159 2491 1159 1978 
L 1159 0 
L 581 0 
L 581 3500 
L 1159 3500 
L 1159 2956 
Q 1366 3272 1645 3428 
Q 1925 3584 2291 3584 
Q 2894 3584 3203 3211 
Q 3513 2838 3513 2113 
z
" transform="scale(0.015625)"/>
      <path id="DejaVuSans-74" d="M 1172 4494 
L 1172 3500 
L 2356 3500 
L 2356 3053 
L 1172 3053 
L 1172 1153 
Q 1172 725 1289 603 
Q 1406 481 1766 481 
L 2356 481 
L 2356 0 
L 1766 0 
Q 1100 0 847 248 
Q 594 497 594 1153 
L 594 3053 
L 172 3053 
L 172 3500 
L 594 3500 
L 594 4494 
L 1172 4494 
z
" transform="scale(0.015625)"/>
     </defs>
     <use xlink:href="#DejaVuSans-41"/>
     <use xlink:href="#DejaVuSans-76" x="62.533203"/>
     <use xlink:href="#DejaVuSans-65" x="121.712891"/>
     <use xlink:href="#DejaVuSans-72" x="183.236328"/>
     <use xlink:href="#DejaVuSans-61" x="224.349609"/>
     <use xlink:href="#DejaVuSans-67" x="285.628906"/>
     <use xlink:href="#DejaVuSans-65" x="349.105469"/>
     <use xlink:href="#DejaVuSans-20" x="410.628906"/>
     <use xlink:href="#DejaVuSans-52" x="442.416016"/>
     <use xlink:href="#DejaVuSans-65" x="507.398438"/>
     <use xlink:href="#DejaVuSans-77" x="568.921875"/>
     <use xlink:href="#DejaVuSans-61" x="650.708984"/>
     <use xlink:href="#DejaVuSans-72" x="711.988281"/>
     <use xlink:href="#DejaVuSans-64" x="751.351562"/>
     <use xlink:href="#DejaVuSans-20" x="814.828125"/>
     <use xlink:href="#DejaVuSans-70" x="846.615234"/>
     <use xlink:href="#DejaVuSans-65" x="910.091797"/>
     <use xlink:href="#DejaVuSans-72" x="971.615234"/>
     <use xlink:href="#DejaVuSans-20" x="1012.728516"/>
     <use xlink:href="#DejaVuSans-45" x="1044.515625"/>
     <use xlink:href="#DejaVuSans-70" x="1107.699219"/>
     <use xlink:href="#DejaVuSans-69" x="1171.175781"/>
     <use xlink:href="#DejaVuSans-73" x="1198.958984"/>
     <use xlink:href="#DejaVuSans-6f" x="1251.058594"/>
     <use xlink:href="#DejaVuSans-64" x="1312.240234"/>
     <use xlink:href="#DejaVuSans-65" x="1375.716797"/>
     <use xlink:href="#DejaVuSans-20" x="1437.240234"/>
     <use xlink:href="#DejaVuSans-62" x="1469.027344"/>
     <use xlink:href="#DejaVuSans-79" x="1532.503906"/>
     <use xlink:href="#DejaVuSans-20" x="1591.683594"/>
     <use xlink:href="#DejaVuSans-41" x="1623.470703"/>
     <use xlink:href="#DejaVuSans-67" x="1691.878906"/>
     <use xlink:href="#DejaVuSans-65" x="1755.355469"/>
     <use xlink:href="#DejaVuSans-6e" x="1816.878906"/>
     <use xlink:href="#DejaVuSans-74" x="1880.257812"/>
    </g>
   </g>
   <g id="legend_1">
    <g id="patch_7">
     <path d="M 60.03 121.50875 
L 224.53625 121.50875 
Q 226.53625 121.50875 226.53625 119.50875 
L 226.53625 32.44 
Q 226.53625 30.44 224.53625 30.44 
L 60.03 30.44 
Q 58.03 30.44 58.03 32.44 
L 58.03 119.50875 
Q 58.03 121.50875 60.03 121.50875 
z
" style="fill: #ffffff; opacity: 0.8; stroke: #cccccc; stroke-linejoin: miter"/>
    </g>
    <g id="line2d_31">
     <path d="M 62.03 38.538437 
L 72.03 38.538437 
L 82.03 38.538437 
" style="fill: none; stroke: #1f77b4; stroke-width: 1.5; stroke-linecap: square"/>
    </g>
    <g id="text_16">
     <!-- solar - Average Reward -->
     <g transform="translate(90.03 42.038437) scale(0.1 -0.1)">
      <defs>
       <path id="DejaVuSans-6c" d="M 603 4863 
L 1178 4863 
L 1178 0 
L 603 0 
L 603 4863 
z
" transform="scale(0.015625)"/>
       <path id="DejaVuSans-2d" d="M 313 2009 
L 1997 2009 
L 1997 1497 
L 313 1497 
L 313 2009 
z
" transform="scale(0.015625)"/>
      </defs>
      <use xlink:href="#DejaVuSans-73"/>
      <use xlink:href="#DejaVuSans-6f" x="52.099609"/>
      <use xlink:href="#DejaVuSans-6c" x="113.28125"/>
      <use xlink:href="#DejaVuSans-61" x="141.064453"/>
      <use xlink:href="#DejaVuSans-72" x="202.34375"/>
      <use xlink:href="#DejaVuSans-20" x="243.457031"/>
      <use xlink:href="#DejaVuSans-2d" x="275.244141"/>
      <use xlink:href="#DejaVuSans-20" x="311.328125"/>
      <use xlink:href="#DejaVuSans-41" x="343.115234"/>
      <use xlink:href="#DejaVuSans-76" x="405.648438"/>
      <use xlink:href="#DejaVuSans-65" x="464.828125"/>
      <use xlink:href="#DejaVuSans-72" x="526.351562"/>
      <use xlink:href="#DejaVuSans-61" x="567.464844"/>
      <use xlink:href="#DejaVuSans-67" x="628.744141"/>
      <use xlink:href="#DejaVuSans-65" x="692.220703"/>
      <use xlink:href="#DejaVuSans-20" x="753.744141"/>
      <use xlink:href="#DejaVuSans-52" x="785.53125"/>
      <use xlink:href="#DejaVuSans-65" x="850.513672"/>
      <use xlink:href="#DejaVuSans-77" x="912.037109"/>
      <use xlink:href="#DejaVuSans-61" x="993.824219"/>
      <use xlink:href="#DejaVuSans-72" x="1055.103516"/>
      <use xlink:href="#DejaVuSans-64" x="1094.466797"/>
     </g>
    </g>
    <g id="line2d_32">
     <path d="M 62.03 53.216563 
L 72.03 53.216563 
L 82.03 53.216563 
" style="fill: none; stroke: #ff7f0e; stroke-width: 1.5; stroke-linecap: square"/>
    </g>
    <g id="text_17">
     <!-- wind - Average Reward -->
     <g transform="translate(90.03 56.716563) scale(0.1 -0.1)">
      <use xlink:href="#DejaVuSans-77"/>
      <use xlink:href="#DejaVuSans-69" x="81.787109"/>
      <use xlink:href="#DejaVuSans-6e" x="109.570312"/>
      <use xlink:href="#DejaVuSans-64" x="172.949219"/>
      <use xlink:href="#DejaVuSans-20" x="236.425781"/>
      <use xlink:href="#DejaVuSans-2d" x="268.212891"/>
      <use xlink:href="#DejaVuSans-20" x="304.296875"/>
      <use xlink:href="#DejaVuSans-41" x="336.083984"/>
      <use xlink:href="#DejaVuSans-76" x="398.617188"/>
      <use xlink:href="#DejaVuSans-65" x="457.796875"/>
      <use xlink:href="#DejaVuSans-72" x="519.320312"/>
      <use xlink:href="#DejaVuSans-61" x="560.433594"/>
      <use xlink:href="#DejaVuSans-67" x="621.712891"/>
      <use xlink:href="#DejaVuSans-65" x="685.189453"/>
      <use xlink:href="#DejaVuSans-20" x="746.712891"/>
      <use xlink:href="#DejaVuSans-52" x="778.5"/>
      <use xlink:href="#DejaVuSans-65" x="843.482422"/>
      <use xlink:href="#DejaVuSans-77" x="905.005859"/>
      <use xlink:href="#DejaVuSans-61" x="986.792969"/>
      <use xlink:href="#DejaVuSans-72" x="1048.072266"/>
      <use xlink:href="#DejaVuSans-64" x="1087.435547"/>
     </g>
    </g>
    <g id="line2d_33">
     <path d="M 62.03 67.894687 
L 72.03 67.894687 
L 82.03 67.894687 
" style="fill: none; stroke: #2ca02c; stroke-width: 1.5; stroke-linecap: square"/>
    </g>
    <g id="text_18">
     <!-- bat - Average Reward -->
     <g transform="translate(90.03 71.394687) scale(0.1 -0.1)">
      <use xlink:href="#DejaVuSans-62"/>
      <use xlink:href="#DejaVuSans-61" x="63.476562"/>
      <use xlink:href="#DejaVuSans-74" x="124.755859"/>
      <use xlink:href="#DejaVuSans-20" x="163.964844"/>
      <use xlink:href="#DejaVuSans-2d" x="195.751953"/>
      <use xlink:href="#DejaVuSans-20" x="231.835938"/>
      <use xlink:href="#DejaVuSans-41" x="263.623047"/>
      <use xlink:href="#DejaVuSans-76" x="326.15625"/>
      <use xlink:href="#DejaVuSans-65" x="385.335938"/>
      <use xlink:href="#DejaVuSans-72" x="446.859375"/>
      <use xlink:href="#DejaVuSans-61" x="487.972656"/>
      <use xlink:href="#DejaVuSans-67" x="549.251953"/>
      <use xlink:href="#DejaVuSans-65" x="612.728516"/>
      <use xlink:href="#DejaVuSans-20" x="674.251953"/>
      <use xlink:href="#DejaVuSans-52" x="706.039062"/>
      <use xlink:href="#DejaVuSans-65" x="771.021484"/>
      <use xlink:href="#DejaVuSans-77" x="832.544922"/>
      <use xlink:href="#DejaVuSans-61" x="914.332031"/>
      <use xlink:href="#DejaVuSans-72" x="975.611328"/>
      <use xlink:href="#DejaVuSans-64" x="1014.974609"/>
     </g>
    </g>
    <g id="line2d_34">
     <path d="M 62.03 82.572812 
L 72.03 82.572812 
L 82.03 82.572812 
" style="fill: none; stroke: #d62728; stroke-width: 1.5; stroke-linecap: square"/>
    </g>
    <g id="text_19">
     <!-- grid - Average Reward -->
     <g transform="translate(90.03 86.072812) scale(0.1 -0.1)">
      <use xlink:href="#DejaVuSans-67"/>
      <use xlink:href="#DejaVuSans-72" x="63.476562"/>
      <use xlink:href="#DejaVuSans-69" x="104.589844"/>
      <use xlink:href="#DejaVuSans-64" x="132.373047"/>
      <use xlink:href="#DejaVuSans-20" x="195.849609"/>
      <use xlink:href="#DejaVuSans-2d" x="227.636719"/>
      <use xlink:href="#DejaVuSans-20" x="263.720703"/>
      <use xlink:href="#DejaVuSans-41" x="295.507812"/>
      <use xlink:href="#DejaVuSans-76" x="358.041016"/>
      <use xlink:href="#DejaVuSans-65" x="417.220703"/>
      <use xlink:href="#DejaVuSans-72" x="478.744141"/>
      <use xlink:href="#DejaVuSans-61" x="519.857422"/>
      <use xlink:href="#DejaVuSans-67" x="581.136719"/>
      <use xlink:href="#DejaVuSans-65" x="644.613281"/>
      <use xlink:href="#DejaVuSans-20" x="706.136719"/>
      <use xlink:href="#DejaVuSans-52" x="737.923828"/>
      <use xlink:href="#DejaVuSans-65" x="802.90625"/>
      <use xlink:href="#DejaVuSans-77" x="864.429688"/>
      <use xlink:href="#DejaVuSans-61" x="946.216797"/>
      <use xlink:href="#DejaVuSans-72" x="1007.496094"/>
      <use xlink:href="#DejaVuSans-64" x="1046.859375"/>
     </g>
    </g>
    <g id="line2d_35">
     <path d="M 62.03 97.250937 
L 72.03 97.250937 
L 82.03 97.250937 
" style="fill: none; stroke: #9467bd; stroke-width: 1.5; stroke-linecap: square"/>
    </g>
    <g id="text_20">
     <!-- demand - Average Reward -->
     <g transform="translate(90.03 100.750937) scale(0.1 -0.1)">
      <defs>
       <path id="DejaVuSans-6d" d="M 3328 2828 
Q 3544 3216 3844 3400 
Q 4144 3584 4550 3584 
Q 5097 3584 5394 3201 
Q 5691 2819 5691 2113 
L 5691 0 
L 5113 0 
L 5113 2094 
Q 5113 2597 4934 2840 
Q 4756 3084 4391 3084 
Q 3944 3084 3684 2787 
Q 3425 2491 3425 1978 
L 3425 0 
L 2847 0 
L 2847 2094 
Q 2847 2600 2669 2842 
Q 2491 3084 2119 3084 
Q 1678 3084 1418 2786 
Q 1159 2488 1159 1978 
L 1159 0 
L 581 0 
L 581 3500 
L 1159 3500 
L 1159 2956 
Q 1356 3278 1631 3431 
Q 1906 3584 2284 3584 
Q 2666 3584 2933 3390 
Q 3200 3197 3328 2828 
z
" transform="scale(0.015625)"/>
      </defs>
      <use xlink:href="#DejaVuSans-64"/>
      <use xlink:href="#DejaVuSans-65" x="63.476562"/>
      <use xlink:href="#DejaVuSans-6d" x="125"/>
      <use xlink:href="#DejaVuSans-61" x="222.412109"/>
      <use xlink:href="#DejaVuSans-6e" x="283.691406"/>
      <use xlink:href="#DejaVuSans-64" x="347.070312"/>
      <use xlink:href="#DejaVuSans-20" x="410.546875"/>
      <use xlink:href="#DejaVuSans-2d" x="442.333984"/>
      <use xlink:href="#DejaVuSans-20" x="478.417969"/>
      <use xlink:href="#DejaVuSans-41" x="510.205078"/>
      <use xlink:href="#DejaVuSans-76" x="572.738281"/>
      <use xlink:href="#DejaVuSans-65" x="631.917969"/>
      <use xlink:href="#DejaVuSans-72" x="693.441406"/>
      <use xlink:href="#DejaVuSans-61" x="734.554688"/>
      <use xlink:href="#DejaVuSans-67" x="795.833984"/>
      <use xlink:href="#DejaVuSans-65" x="859.310547"/>
      <use xlink:href="#DejaVuSans-20" x="920.833984"/>
      <use xlink:href="#DejaVuSans-52" x="952.621094"/>
      <use xlink:href="#DejaVuSans-65" x="1017.603516"/>
      <use xlink:href="#DejaVuSans-77" x="1079.126953"/>
      <use xlink:href="#DejaVuSans-61" x="1160.914062"/>
      <use xlink:href="#DejaVuSans-72" x="1222.193359"/>
      <use xlink:href="#DejaVuSans-64" x="1261.556641"/>
     </g>
    </g>
    <g id="line2d_36">
     <path d="M 62.03 111.929062 
L 72.03 111.929062 
L 82.03 111.929062 
" style="fill: none; stroke: #8c564b; stroke-width: 1.5; stroke-linecap: square"/>
    </g>
    <g id="text_21">
     <!-- nan - Average Reward -->
     <g transform="translate(90.03 115.429062) scale(0.1 -0.1)">
      <use xlink:href="#DejaVuSans-6e"/>
      <use xlink:href="#DejaVuSans-61" x="63.378906"/>
      <use xlink:href="#DejaVuSans-6e" x="124.658203"/>
      <use xlink:href="#DejaVuSans-20" x="188.037109"/>
      <use xlink:href="#DejaVuSans-2d" x="219.824219"/>
      <use xlink:href="#DejaVuSans-20" x="255.908203"/>
      <use xlink:href="#DejaVuSans-41" x="287.695312"/>
      <use xlink:href="#DejaVuSans-76" x="350.228516"/>
      <use xlink:href="#DejaVuSans-65" x="409.408203"/>
      <use xlink:href="#DejaVuSans-72" x="470.931641"/>
      <use xlink:href="#DejaVuSans-61" x="512.044922"/>
      <use xlink:href="#DejaVuSans-67" x="573.324219"/>
      <use xlink:href="#DejaVuSans-65" x="636.800781"/>
      <use xlink:href="#DejaVuSans-20" x="698.324219"/>
      <use xlink:href="#DejaVuSans-52" x="730.111328"/>
      <use xlink:href="#DejaVuSans-65" x="795.09375"/>
      <use xlink:href="#DejaVuSans-77" x="856.617188"/>
      <use xlink:href="#DejaVuSans-61" x="938.404297"/>
      <use xlink:href="#DejaVuSans-72" x="999.683594"/>
      <use xlink:href="#DejaVuSans-64" x="1039.046875"/>
     </g>
    </g>
   </g>
  </g>
 </g>
 <defs>
  <clipPath id="pc2b8e8d91b">
   <rect x="53.03" y="25.44" width="656.17" height="364.6"/>
  </clipPath>
 </defs>
</svg>
