<?xml version="1.0" encoding="utf-8" standalone="no"?>
<!DOCTYPE svg PUBLIC "-//W3C//DTD SVG 1.1//EN"
  "http://www.w3.org/Graphics/SVG/1.1/DTD/svg11.dtd">
<svg xmlns:xlink="http://www.w3.org/1999/xlink" width="720pt" height="432pt" viewBox="0 0 720 432" xmlns="http://www.w3.org/2000/svg" version="1.1">
 <metadata>
  <rdf:RDF xmlns:dc="http://purl.org/dc/elements/1.1/" xmlns:cc="http://creativecommons.org/ns#" xmlns:rdf="http://www.w3.org/1999/02/22-rdf-syntax-ns#">
   <cc:Work>
    <dc:type rdf:resource="http://purl.org/dc/dcmitype/StillImage"/>
    <dc:date>2025-09-09T16:49:50.529681</dc:date>
    <dc:format>image/svg+xml</dc:format>
    <dc:creator>
     <cc:Agent>
      <dc:title>Matplotlib v3.8.4, https://matplotlib.org/</dc:title>
     </cc:Agent>
    </dc:creator>
   </cc:Work>
  </rdf:RDF>
 </metadata>
 <defs>
  <style type="text/css">*{stroke-linejoin: round; stroke-linecap: butt}</style>
 </defs>
 <g id="figure_1">
  <g id="patch_1">
   <path d="M 0 432 
L 720 432 
L 720 0 
L 0 0 
z
" style="fill: #ffffff"/>
  </g>
  <g id="axes_1">
   <g id="patch_2">
    <path d="M 53.03 390.04 
L 709.2 390.04 
L 709.2 25.44 
L 53.03 25.44 
z
" style="fill: #ffffff"/>
   </g>
   <g id="matplotlib.axis_1">
    <g id="xtick_1">
     <g id="line2d_1">
      <path d="M 82.855909 390.04 
L 82.855909 25.44 
" clip-path="url(#pf5fb7379ba)" style="fill: none; stroke: #b0b0b0; stroke-width: 0.8; stroke-linecap: square"/>
     </g>
     <g id="line2d_2">
      <defs>
       <path id="m9039c6cd79" d="M 0 0 
L 0 3.5 
" style="stroke: #000000; stroke-width: 0.8"/>
      </defs>
      <g>
       <use xlink:href="#m9039c6cd79" x="82.855909" y="390.04" style="stroke: #000000; stroke-width: 0.8"/>
      </g>
     </g>
     <g id="text_1">
      <!-- 0 -->
      <g transform="translate(79.674659 404.638438) scale(0.1 -0.1)">
       <defs>
        <path id="DejaVuSans-30" d="M 2034 4250 
Q 1547 4250 1301 3770 
Q 1056 3291 1056 2328 
Q 1056 1369 1301 889 
Q 1547 409 2034 409 
Q 2525 409 2770 889 
Q 3016 1369 3016 2328 
Q 3016 3291 2770 3770 
Q 2525 4250 2034 4250 
z
M 2034 4750 
Q 2819 4750 3233 4129 
Q 3647 3509 3647 2328 
Q 3647 1150 3233 529 
Q 2819 -91 2034 -91 
Q 1250 -91 836 529 
Q 422 1150 422 2328 
Q 422 3509 836 4129 
Q 1250 4750 2034 4750 
z
" transform="scale(0.015625)"/>
       </defs>
       <use xlink:href="#DejaVuSans-30"/>
      </g>
     </g>
    </g>
    <g id="xtick_2">
     <g id="line2d_3">
      <path d="M 182.608113 390.04 
L 182.608113 25.44 
" clip-path="url(#pf5fb7379ba)" style="fill: none; stroke: #b0b0b0; stroke-width: 0.8; stroke-linecap: square"/>
     </g>
     <g id="line2d_4">
      <g>
       <use xlink:href="#m9039c6cd79" x="182.608113" y="390.04" style="stroke: #000000; stroke-width: 0.8"/>
      </g>
     </g>
     <g id="text_2">
      <!-- 50 -->
      <g transform="translate(176.245613 404.638438) scale(0.1 -0.1)">
       <defs>
        <path id="DejaVuSans-35" d="M 691 4666 
L 3169 4666 
L 3169 4134 
L 1269 4134 
L 1269 2991 
Q 1406 3038 1543 3061 
Q 1681 3084 1819 3084 
Q 2600 3084 3056 2656 
Q 3513 2228 3513 1497 
Q 3513 744 3044 326 
Q 2575 -91 1722 -91 
Q 1428 -91 1123 -41 
Q 819 9 494 109 
L 494 744 
Q 775 591 1075 516 
Q 1375 441 1709 441 
Q 2250 441 2565 725 
Q 2881 1009 2881 1497 
Q 2881 1984 2565 2268 
Q 2250 2553 1709 2553 
Q 1456 2553 1204 2497 
Q 953 2441 691 2322 
L 691 4666 
z
" transform="scale(0.015625)"/>
       </defs>
       <use xlink:href="#DejaVuSans-35"/>
       <use xlink:href="#DejaVuSans-30" x="63.623047"/>
      </g>
     </g>
    </g>
    <g id="xtick_3">
     <g id="line2d_5">
      <path d="M 282.360318 390.04 
L 282.360318 25.44 
" clip-path="url(#pf5fb7379ba)" style="fill: none; stroke: #b0b0b0; stroke-width: 0.8; stroke-linecap: square"/>
     </g>
     <g id="line2d_6">
      <g>
       <use xlink:href="#m9039c6cd79" x="282.360318" y="390.04" style="stroke: #000000; stroke-width: 0.8"/>
      </g>
     </g>
     <g id="text_3">
      <!-- 100 -->
      <g transform="translate(272.816568 404.638438) scale(0.1 -0.1)">
       <defs>
        <path id="DejaVuSans-31" d="M 794 531 
L 1825 531 
L 1825 4091 
L 703 3866 
L 703 4441 
L 1819 4666 
L 2450 4666 
L 2450 531 
L 3481 531 
L 3481 0 
L 794 0 
L 794 531 
z
" transform="scale(0.015625)"/>
       </defs>
       <use xlink:href="#DejaVuSans-31"/>
       <use xlink:href="#DejaVuSans-30" x="63.623047"/>
       <use xlink:href="#DejaVuSans-30" x="127.246094"/>
      </g>
     </g>
    </g>
    <g id="xtick_4">
     <g id="line2d_7">
      <path d="M 382.112522 390.04 
L 382.112522 25.44 
" clip-path="url(#pf5fb7379ba)" style="fill: none; stroke: #b0b0b0; stroke-width: 0.8; stroke-linecap: square"/>
     </g>
     <g id="line2d_8">
      <g>
       <use xlink:href="#m9039c6cd79" x="382.112522" y="390.04" style="stroke: #000000; stroke-width: 0.8"/>
      </g>
     </g>
     <g id="text_4">
      <!-- 150 -->
      <g transform="translate(372.568772 404.638438) scale(0.1 -0.1)">
       <use xlink:href="#DejaVuSans-31"/>
       <use xlink:href="#DejaVuSans-35" x="63.623047"/>
       <use xlink:href="#DejaVuSans-30" x="127.246094"/>
      </g>
     </g>
    </g>
    <g id="xtick_5">
     <g id="line2d_9">
      <path d="M 481.864726 390.04 
L 481.864726 25.44 
" clip-path="url(#pf5fb7379ba)" style="fill: none; stroke: #b0b0b0; stroke-width: 0.8; stroke-linecap: square"/>
     </g>
     <g id="line2d_10">
      <g>
       <use xlink:href="#m9039c6cd79" x="481.864726" y="390.04" style="stroke: #000000; stroke-width: 0.8"/>
      </g>
     </g>
     <g id="text_5">
      <!-- 200 -->
      <g transform="translate(472.320976 404.638438) scale(0.1 -0.1)">
       <defs>
        <path id="DejaVuSans-32" d="M 1228 531 
L 3431 531 
L 3431 0 
L 469 0 
L 469 531 
Q 828 903 1448 1529 
Q 2069 2156 2228 2338 
Q 2531 2678 2651 2914 
Q 2772 3150 2772 3378 
Q 2772 3750 2511 3984 
Q 2250 4219 1831 4219 
Q 1534 4219 1204 4116 
Q 875 4013 500 3803 
L 500 4441 
Q 881 4594 1212 4672 
Q 1544 4750 1819 4750 
Q 2544 4750 2975 4387 
Q 3406 4025 3406 3419 
Q 3406 3131 3298 2873 
Q 3191 2616 2906 2266 
Q 2828 2175 2409 1742 
Q 1991 1309 1228 531 
z
" transform="scale(0.015625)"/>
       </defs>
       <use xlink:href="#DejaVuSans-32"/>
       <use xlink:href="#DejaVuSans-30" x="63.623047"/>
       <use xlink:href="#DejaVuSans-30" x="127.246094"/>
      </g>
     </g>
    </g>
    <g id="xtick_6">
     <g id="line2d_11">
      <path d="M 581.616931 390.04 
L 581.616931 25.44 
" clip-path="url(#pf5fb7379ba)" style="fill: none; stroke: #b0b0b0; stroke-width: 0.8; stroke-linecap: square"/>
     </g>
     <g id="line2d_12">
      <g>
       <use xlink:href="#m9039c6cd79" x="581.616931" y="390.04" style="stroke: #000000; stroke-width: 0.8"/>
      </g>
     </g>
     <g id="text_6">
      <!-- 250 -->
      <g transform="translate(572.073181 404.638438) scale(0.1 -0.1)">
       <use xlink:href="#DejaVuSans-32"/>
       <use xlink:href="#DejaVuSans-35" x="63.623047"/>
       <use xlink:href="#DejaVuSans-30" x="127.246094"/>
      </g>
     </g>
    </g>
    <g id="xtick_7">
     <g id="line2d_13">
      <path d="M 681.369135 390.04 
L 681.369135 25.44 
" clip-path="url(#pf5fb7379ba)" style="fill: none; stroke: #b0b0b0; stroke-width: 0.8; stroke-linecap: square"/>
     </g>
     <g id="line2d_14">
      <g>
       <use xlink:href="#m9039c6cd79" x="681.369135" y="390.04" style="stroke: #000000; stroke-width: 0.8"/>
      </g>
     </g>
     <g id="text_7">
      <!-- 300 -->
      <g transform="translate(671.825385 404.638438) scale(0.1 -0.1)">
       <defs>
        <path id="DejaVuSans-33" d="M 2597 2516 
Q 3050 2419 3304 2112 
Q 3559 1806 3559 1356 
Q 3559 666 3084 287 
Q 2609 -91 1734 -91 
Q 1441 -91 1130 -33 
Q 819 25 488 141 
L 488 750 
Q 750 597 1062 519 
Q 1375 441 1716 441 
Q 2309 441 2620 675 
Q 2931 909 2931 1356 
Q 2931 1769 2642 2001 
Q 2353 2234 1838 2234 
L 1294 2234 
L 1294 2753 
L 1863 2753 
Q 2328 2753 2575 2939 
Q 2822 3125 2822 3475 
Q 2822 3834 2567 4026 
Q 2313 4219 1838 4219 
Q 1578 4219 1281 4162 
Q 984 4106 628 3988 
L 628 4550 
Q 988 4650 1302 4700 
Q 1616 4750 1894 4750 
Q 2613 4750 3031 4423 
Q 3450 4097 3450 3541 
Q 3450 3153 3228 2886 
Q 3006 2619 2597 2516 
z
" transform="scale(0.015625)"/>
       </defs>
       <use xlink:href="#DejaVuSans-33"/>
       <use xlink:href="#DejaVuSans-30" x="63.623047"/>
       <use xlink:href="#DejaVuSans-30" x="127.246094"/>
      </g>
     </g>
    </g>
    <g id="text_8">
     <!-- Episode -->
     <g transform="translate(361.4775 418.316562) scale(0.1 -0.1)">
      <defs>
       <path id="DejaVuSans-45" d="M 628 4666 
L 3578 4666 
L 3578 4134 
L 1259 4134 
L 1259 2753 
L 3481 2753 
L 3481 2222 
L 1259 2222 
L 1259 531 
L 3634 531 
L 3634 0 
L 628 0 
L 628 4666 
z
" transform="scale(0.015625)"/>
       <path id="DejaVuSans-70" d="M 1159 525 
L 1159 -1331 
L 581 -1331 
L 581 3500 
L 1159 3500 
L 1159 2969 
Q 1341 3281 1617 3432 
Q 1894 3584 2278 3584 
Q 2916 3584 3314 3078 
Q 3713 2572 3713 1747 
Q 3713 922 3314 415 
Q 2916 -91 2278 -91 
Q 1894 -91 1617 61 
Q 1341 213 1159 525 
z
M 3116 1747 
Q 3116 2381 2855 2742 
Q 2594 3103 2138 3103 
Q 1681 3103 1420 2742 
Q 1159 2381 1159 1747 
Q 1159 1113 1420 752 
Q 1681 391 2138 391 
Q 2594 391 2855 752 
Q 3116 1113 3116 1747 
z
" transform="scale(0.015625)"/>
       <path id="DejaVuSans-69" d="M 603 3500 
L 1178 3500 
L 1178 0 
L 603 0 
L 603 3500 
z
M 603 4863 
L 1178 4863 
L 1178 4134 
L 603 4134 
L 603 4863 
z
" transform="scale(0.015625)"/>
       <path id="DejaVuSans-73" d="M 2834 3397 
L 2834 2853 
Q 2591 2978 2328 3040 
Q 2066 3103 1784 3103 
Q 1356 3103 1142 2972 
Q 928 2841 928 2578 
Q 928 2378 1081 2264 
Q 1234 2150 1697 2047 
L 1894 2003 
Q 2506 1872 2764 1633 
Q 3022 1394 3022 966 
Q 3022 478 2636 193 
Q 2250 -91 1575 -91 
Q 1294 -91 989 -36 
Q 684 19 347 128 
L 347 722 
Q 666 556 975 473 
Q 1284 391 1588 391 
Q 1994 391 2212 530 
Q 2431 669 2431 922 
Q 2431 1156 2273 1281 
Q 2116 1406 1581 1522 
L 1381 1569 
Q 847 1681 609 1914 
Q 372 2147 372 2553 
Q 372 3047 722 3315 
Q 1072 3584 1716 3584 
Q 2034 3584 2315 3537 
Q 2597 3491 2834 3397 
z
" transform="scale(0.015625)"/>
       <path id="DejaVuSans-6f" d="M 1959 3097 
Q 1497 3097 1228 2736 
Q 959 2375 959 1747 
Q 959 1119 1226 758 
Q 1494 397 1959 397 
Q 2419 397 2687 759 
Q 2956 1122 2956 1747 
Q 2956 2369 2687 2733 
Q 2419 3097 1959 3097 
z
M 1959 3584 
Q 2709 3584 3137 3096 
Q 3566 2609 3566 1747 
Q 3566 888 3137 398 
Q 2709 -91 1959 -91 
Q 1206 -91 779 398 
Q 353 888 353 1747 
Q 353 2609 779 3096 
Q 1206 3584 1959 3584 
z
" transform="scale(0.015625)"/>
       <path id="DejaVuSans-64" d="M 2906 2969 
L 2906 4863 
L 3481 4863 
L 3481 0 
L 2906 0 
L 2906 525 
Q 2725 213 2448 61 
Q 2172 -91 1784 -91 
Q 1150 -91 751 415 
Q 353 922 353 1747 
Q 353 2572 751 3078 
Q 1150 3584 1784 3584 
Q 2172 3584 2448 3432 
Q 2725 3281 2906 2969 
z
M 947 1747 
Q 947 1113 1208 752 
Q 1469 391 1925 391 
Q 2381 391 2643 752 
Q 2906 1113 2906 1747 
Q 2906 2381 2643 2742 
Q 2381 3103 1925 3103 
Q 1469 3103 1208 2742 
Q 947 2381 947 1747 
z
" transform="scale(0.015625)"/>
       <path id="DejaVuSans-65" d="M 3597 1894 
L 3597 1613 
L 953 1613 
Q 991 1019 1311 708 
Q 1631 397 2203 397 
Q 2534 397 2845 478 
Q 3156 559 3463 722 
L 3463 178 
Q 3153 47 2828 -22 
Q 2503 -91 2169 -91 
Q 1331 -91 842 396 
Q 353 884 353 1716 
Q 353 2575 817 3079 
Q 1281 3584 2069 3584 
Q 2775 3584 3186 3129 
Q 3597 2675 3597 1894 
z
M 3022 2063 
Q 3016 2534 2758 2815 
Q 2500 3097 2075 3097 
Q 1594 3097 1305 2825 
Q 1016 2553 972 2059 
L 3022 2063 
z
" transform="scale(0.015625)"/>
      </defs>
      <use xlink:href="#DejaVuSans-45"/>
      <use xlink:href="#DejaVuSans-70" x="63.183594"/>
      <use xlink:href="#DejaVuSans-69" x="126.660156"/>
      <use xlink:href="#DejaVuSans-73" x="154.443359"/>
      <use xlink:href="#DejaVuSans-6f" x="206.542969"/>
      <use xlink:href="#DejaVuSans-64" x="267.724609"/>
      <use xlink:href="#DejaVuSans-65" x="331.201172"/>
     </g>
    </g>
   </g>
   <g id="matplotlib.axis_2">
    <g id="ytick_1">
     <g id="line2d_15">
      <path d="M 53.03 331.730677 
L 709.2 331.730677 
" clip-path="url(#pf5fb7379ba)" style="fill: none; stroke: #b0b0b0; stroke-width: 0.8; stroke-linecap: square"/>
     </g>
     <g id="line2d_16">
      <defs>
       <path id="m78d2177346" d="M 0 0 
L -3.5 0 
" style="stroke: #000000; stroke-width: 0.8"/>
      </defs>
      <g>
       <use xlink:href="#m78d2177346" x="53.03" y="331.730677" style="stroke: #000000; stroke-width: 0.8"/>
      </g>
     </g>
     <g id="text_9">
      <!-- −10 -->
      <g transform="translate(24.925313 335.529896) scale(0.1 -0.1)">
       <defs>
        <path id="DejaVuSans-2212" d="M 678 2272 
L 4684 2272 
L 4684 1741 
L 678 1741 
L 678 2272 
z
" transform="scale(0.015625)"/>
       </defs>
       <use xlink:href="#DejaVuSans-2212"/>
       <use xlink:href="#DejaVuSans-31" x="83.789062"/>
       <use xlink:href="#DejaVuSans-30" x="147.412109"/>
      </g>
     </g>
    </g>
    <g id="ytick_2">
     <g id="line2d_17">
      <path d="M 53.03 265.755302 
L 709.2 265.755302 
" clip-path="url(#pf5fb7379ba)" style="fill: none; stroke: #b0b0b0; stroke-width: 0.8; stroke-linecap: square"/>
     </g>
     <g id="line2d_18">
      <g>
       <use xlink:href="#m78d2177346" x="53.03" y="265.755302" style="stroke: #000000; stroke-width: 0.8"/>
      </g>
     </g>
     <g id="text_10">
      <!-- 0 -->
      <g transform="translate(39.6675 269.554521) scale(0.1 -0.1)">
       <use xlink:href="#DejaVuSans-30"/>
      </g>
     </g>
    </g>
    <g id="ytick_3">
     <g id="line2d_19">
      <path d="M 53.03 199.779928 
L 709.2 199.779928 
" clip-path="url(#pf5fb7379ba)" style="fill: none; stroke: #b0b0b0; stroke-width: 0.8; stroke-linecap: square"/>
     </g>
     <g id="line2d_20">
      <g>
       <use xlink:href="#m78d2177346" x="53.03" y="199.779928" style="stroke: #000000; stroke-width: 0.8"/>
      </g>
     </g>
     <g id="text_11">
      <!-- 10 -->
      <g transform="translate(33.305 203.579146) scale(0.1 -0.1)">
       <use xlink:href="#DejaVuSans-31"/>
       <use xlink:href="#DejaVuSans-30" x="63.623047"/>
      </g>
     </g>
    </g>
    <g id="ytick_4">
     <g id="line2d_21">
      <path d="M 53.03 133.804553 
L 709.2 133.804553 
" clip-path="url(#pf5fb7379ba)" style="fill: none; stroke: #b0b0b0; stroke-width: 0.8; stroke-linecap: square"/>
     </g>
     <g id="line2d_22">
      <g>
       <use xlink:href="#m78d2177346" x="53.03" y="133.804553" style="stroke: #000000; stroke-width: 0.8"/>
      </g>
     </g>
     <g id="text_12">
      <!-- 20 -->
      <g transform="translate(33.305 137.603772) scale(0.1 -0.1)">
       <use xlink:href="#DejaVuSans-32"/>
       <use xlink:href="#DejaVuSans-30" x="63.623047"/>
      </g>
     </g>
    </g>
    <g id="ytick_5">
     <g id="line2d_23">
      <path d="M 53.03 67.829178 
L 709.2 67.829178 
" clip-path="url(#pf5fb7379ba)" style="fill: none; stroke: #b0b0b0; stroke-width: 0.8; stroke-linecap: square"/>
     </g>
     <g id="line2d_24">
      <g>
       <use xlink:href="#m78d2177346" x="53.03" y="67.829178" style="stroke: #000000; stroke-width: 0.8"/>
      </g>
     </g>
     <g id="text_13">
      <!-- 30 -->
      <g transform="translate(33.305 71.628397) scale(0.1 -0.1)">
       <use xlink:href="#DejaVuSans-33"/>
       <use xlink:href="#DejaVuSans-30" x="63.623047"/>
      </g>
     </g>
    </g>
    <g id="text_14">
     <!-- Average Reward -->
     <g transform="translate(18.845625 248.482969) rotate(-90) scale(0.1 -0.1)">
      <defs>
       <path id="DejaVuSans-41" d="M 2188 4044 
L 1331 1722 
L 3047 1722 
L 2188 4044 
z
M 1831 4666 
L 2547 4666 
L 4325 0 
L 3669 0 
L 3244 1197 
L 1141 1197 
L 716 0 
L 50 0 
L 1831 4666 
z
" transform="scale(0.015625)"/>
       <path id="DejaVuSans-76" d="M 191 3500 
L 800 3500 
L 1894 563 
L 2988 3500 
L 3597 3500 
L 2284 0 
L 1503 0 
L 191 3500 
z
" transform="scale(0.015625)"/>
       <path id="DejaVuSans-72" d="M 2631 2963 
Q 2534 3019 2420 3045 
Q 2306 3072 2169 3072 
Q 1681 3072 1420 2755 
Q 1159 2438 1159 1844 
L 1159 0 
L 581 0 
L 581 3500 
L 1159 3500 
L 1159 2956 
Q 1341 3275 1631 3429 
Q 1922 3584 2338 3584 
Q 2397 3584 2469 3576 
Q 2541 3569 2628 3553 
L 2631 2963 
z
" transform="scale(0.015625)"/>
       <path id="DejaVuSans-61" d="M 2194 1759 
Q 1497 1759 1228 1600 
Q 959 1441 959 1056 
Q 959 750 1161 570 
Q 1363 391 1709 391 
Q 2188 391 2477 730 
Q 2766 1069 2766 1631 
L 2766 1759 
L 2194 1759 
z
M 3341 1997 
L 3341 0 
L 2766 0 
L 2766 531 
Q 2569 213 2275 61 
Q 1981 -91 1556 -91 
Q 1019 -91 701 211 
Q 384 513 384 1019 
Q 384 1609 779 1909 
Q 1175 2209 1959 2209 
L 2766 2209 
L 2766 2266 
Q 2766 2663 2505 2880 
Q 2244 3097 1772 3097 
Q 1472 3097 1187 3025 
Q 903 2953 641 2809 
L 641 3341 
Q 956 3463 1253 3523 
Q 1550 3584 1831 3584 
Q 2591 3584 2966 3190 
Q 3341 2797 3341 1997 
z
" transform="scale(0.015625)"/>
       <path id="DejaVuSans-67" d="M 2906 1791 
Q 2906 2416 2648 2759 
Q 2391 3103 1925 3103 
Q 1463 3103 1205 2759 
Q 947 2416 947 1791 
Q 947 1169 1205 825 
Q 1463 481 1925 481 
Q 2391 481 2648 825 
Q 2906 1169 2906 1791 
z
M 3481 434 
Q 3481 -459 3084 -895 
Q 2688 -1331 1869 -1331 
Q 1566 -1331 1297 -1286 
Q 1028 -1241 775 -1147 
L 775 -588 
Q 1028 -725 1275 -790 
Q 1522 -856 1778 -856 
Q 2344 -856 2625 -561 
Q 2906 -266 2906 331 
L 2906 616 
Q 2728 306 2450 153 
Q 2172 0 1784 0 
Q 1141 0 747 490 
Q 353 981 353 1791 
Q 353 2603 747 3093 
Q 1141 3584 1784 3584 
Q 2172 3584 2450 3431 
Q 2728 3278 2906 2969 
L 2906 3500 
L 3481 3500 
L 3481 434 
z
" transform="scale(0.015625)"/>
       <path id="DejaVuSans-20" transform="scale(0.015625)"/>
       <path id="DejaVuSans-52" d="M 2841 2188 
Q 3044 2119 3236 1894 
Q 3428 1669 3622 1275 
L 4263 0 
L 3584 0 
L 2988 1197 
Q 2756 1666 2539 1819 
Q 2322 1972 1947 1972 
L 1259 1972 
L 1259 0 
L 628 0 
L 628 4666 
L 2053 4666 
Q 2853 4666 3247 4331 
Q 3641 3997 3641 3322 
Q 3641 2881 3436 2590 
Q 3231 2300 2841 2188 
z
M 1259 4147 
L 1259 2491 
L 2053 2491 
Q 2509 2491 2742 2702 
Q 2975 2913 2975 3322 
Q 2975 3731 2742 3939 
Q 2509 4147 2053 4147 
L 1259 4147 
z
" transform="scale(0.015625)"/>
       <path id="DejaVuSans-77" d="M 269 3500 
L 844 3500 
L 1563 769 
L 2278 3500 
L 2956 3500 
L 3675 769 
L 4391 3500 
L 4966 3500 
L 4050 0 
L 3372 0 
L 2619 2869 
L 1863 0 
L 1184 0 
L 269 3500 
z
" transform="scale(0.015625)"/>
      </defs>
      <use xlink:href="#DejaVuSans-41"/>
      <use xlink:href="#DejaVuSans-76" x="62.533203"/>
      <use xlink:href="#DejaVuSans-65" x="121.712891"/>
      <use xlink:href="#DejaVuSans-72" x="183.236328"/>
      <use xlink:href="#DejaVuSans-61" x="224.349609"/>
      <use xlink:href="#DejaVuSans-67" x="285.628906"/>
      <use xlink:href="#DejaVuSans-65" x="349.105469"/>
      <use xlink:href="#DejaVuSans-20" x="410.628906"/>
      <use xlink:href="#DejaVuSans-52" x="442.416016"/>
      <use xlink:href="#DejaVuSans-65" x="507.398438"/>
      <use xlink:href="#DejaVuSans-77" x="568.921875"/>
      <use xlink:href="#DejaVuSans-61" x="650.708984"/>
      <use xlink:href="#DejaVuSans-72" x="711.988281"/>
      <use xlink:href="#DejaVuSans-64" x="751.351562"/>
     </g>
    </g>
   </g>
   <g id="line2d_25">
    <path d="M 82.855909 258.010367 
L 84.850953 261.45256 
L 86.845997 268.336947 
L 88.841041 247.683787 
L 90.836085 253.707625 
L 92.83113 238.217755 
L 94.826174 256.28927 
L 96.821218 268.336947 
L 98.816262 274.360786 
L 100.811306 273.500238 
L 102.80635 282.105721 
L 104.801394 261.45256 
L 106.796438 273.500238 
L 108.791482 253.707625 
L 110.786526 270.058044 
L 112.78157 249.404883 
L 114.776614 275.221334 
L 116.771659 251.12598 
L 118.766703 263.173657 
L 120.761747 272.639689 
L 122.756791 267.476399 
L 124.751835 258.010367 
L 126.746879 278.663528 
L 128.741923 259.731464 
L 130.736967 249.404883 
L 132.732011 270.058044 
L 134.727055 259.731464 
L 136.722099 263.173657 
L 138.717144 262.313109 
L 140.712188 271.779141 
L 142.707232 275.221334 
L 144.702276 258.010367 
L 146.69732 255.428722 
L 148.692364 271.779141 
L 150.687408 272.639689 
L 152.682452 264.894754 
L 154.677496 284.687366 
L 156.67254 257.149819 
L 158.667584 256.28927 
L 160.662628 261.45256 
L 162.657673 258.010367 
L 164.652717 270.058044 
L 166.647761 277.802979 
L 168.642805 260.592012 
L 170.637849 254.568174 
L 172.632893 257.149819 
L 174.627937 251.12598 
L 178.618025 266.615851 
L 180.613069 263.173657 
L 182.608113 250.265432 
L 184.603157 252.847077 
L 186.598202 252.847077 
L 188.593246 249.404883 
L 190.58829 247.683787 
L 192.583334 273.500238 
L 194.578378 258.010367 
L 196.573422 245.102142 
L 198.568466 268.336947 
L 200.56351 281.245173 
L 202.558554 263.173657 
L 204.553598 278.663528 
L 206.548642 254.568174 
L 208.543687 259.731464 
L 210.538731 254.568174 
L 212.533775 252.847077 
L 214.528819 249.404883 
L 216.523863 258.010367 
L 218.518907 254.568174 
L 220.513951 259.731464 
L 222.508995 256.28927 
L 224.504039 256.28927 
L 226.499083 252.847077 
L 228.494127 245.102142 
L 230.489171 260.592012 
L 232.484216 244.241593 
L 234.47926 266.615851 
L 236.474304 250.265432 
L 238.469348 264.894754 
L 240.464392 261.45256 
L 242.459436 259.731464 
L 244.45448 245.96269 
L 246.449524 245.102142 
L 248.444568 276.081883 
L 250.439612 239.938851 
L 252.434656 254.568174 
L 254.429701 264.894754 
L 256.424745 263.173657 
L 258.419789 263.173657 
L 260.414833 259.731464 
L 262.409877 254.568174 
L 264.404921 252.847077 
L 266.399965 249.404883 
L 268.395009 244.241593 
L 270.390053 252.847077 
L 272.385097 256.28927 
L 274.380141 264.894754 
L 276.375185 255.428722 
L 278.37023 258.010367 
L 280.365274 256.28927 
L 282.360318 261.45256 
L 284.355362 270.918593 
L 286.350406 268.336947 
L 288.34545 261.45256 
L 290.340494 262.313109 
L 292.335538 269.197496 
L 296.325626 245.102142 
L 298.32067 270.058044 
L 300.315715 268.336947 
L 302.310759 259.731464 
L 304.305803 268.336947 
L 306.300847 244.241593 
L 308.295891 264.894754 
L 310.290935 253.707625 
L 312.285979 260.592012 
L 314.281023 252.847077 
L 316.276067 239.078303 
L 318.271111 242.520496 
L 320.266155 270.918593 
L 322.261199 263.173657 
L 324.256244 260.592012 
L 326.251288 252.847077 
L 328.246332 253.707625 
L 330.241376 249.404883 
L 332.23642 272.639689 
L 334.231464 261.45256 
L 336.226508 246.823238 
L 340.216596 251.986528 
L 342.21164 251.12598 
L 344.206684 252.847077 
L 346.201728 245.96269 
L 348.196773 240.7994 
L 352.186861 254.568174 
L 354.181905 245.96269 
L 356.176949 247.683787 
L 358.171993 256.28927 
L 360.167037 243.381045 
L 362.162081 263.173657 
L 364.157125 235.63611 
L 366.152169 257.149819 
L 368.147213 262.313109 
L 370.142258 272.639689 
L 372.137302 245.96269 
L 374.132346 249.404883 
L 376.12739 251.12598 
L 378.122434 273.500238 
L 380.117478 251.12598 
L 382.112522 256.28927 
L 384.107566 240.7994 
L 386.10261 262.313109 
L 388.097654 236.496658 
L 390.092698 241.659948 
L 392.087742 270.058044 
L 394.082787 248.544335 
L 396.077831 262.313109 
L 398.072875 244.241593 
L 400.067919 263.173657 
L 402.062963 251.986528 
L 404.058007 250.265432 
L 406.053051 240.7994 
L 408.048095 253.707625 
L 410.043139 239.078303 
L 412.038183 266.615851 
L 414.033227 245.102142 
L 416.028272 256.28927 
L 418.023316 252.847077 
L 420.01836 264.894754 
L 422.013404 244.241593 
L 424.008448 254.568174 
L 426.003492 247.683787 
L 427.998536 268.336947 
L 429.99358 244.241593 
L 431.988624 253.707625 
L 433.983668 235.63611 
L 435.978712 263.173657 
L 437.973756 243.381045 
L 439.968801 246.823238 
L 441.963845 241.659948 
L 443.958889 245.96269 
L 445.953933 260.592012 
L 447.948977 238.217755 
L 449.944021 246.823238 
L 451.939065 266.615851 
L 453.934109 242.520496 
L 455.929153 252.847077 
L 457.924197 237.357206 
L 459.919241 245.96269 
L 461.914285 258.010367 
L 463.90933 242.520496 
L 465.904374 255.428722 
L 467.899418 237.357206 
L 469.894462 247.683787 
L 471.889506 239.078303 
L 473.88455 246.823238 
L 475.879594 250.265432 
L 477.874638 240.7994 
L 479.869682 259.731464 
L 481.864726 245.96269 
L 483.85977 253.707625 
L 485.854815 245.102142 
L 487.849859 245.96269 
L 489.844903 240.7994 
L 491.839947 240.7994 
L 493.834991 250.265432 
L 495.830035 240.7994 
L 499.820123 240.7994 
L 501.815167 235.63611 
L 503.810211 261.45256 
L 505.805255 239.078303 
L 507.800299 245.102142 
L 509.795344 242.520496 
L 511.790388 237.357206 
L 513.785432 245.102142 
L 515.780476 240.7994 
L 517.77552 252.847077 
L 519.770564 233.054464 
L 521.765608 242.520496 
L 523.760652 247.683787 
L 525.755696 244.241593 
L 527.75074 245.102142 
L 529.745784 253.707625 
L 531.740829 240.7994 
L 533.735873 256.28927 
L 535.730917 242.520496 
L 537.725961 236.496658 
L 539.721005 235.63611 
L 541.716049 251.12598 
L 543.711093 240.7994 
L 545.706137 244.241593 
L 547.701181 254.568174 
L 549.696225 245.96269 
L 551.691269 245.96269 
L 553.686313 239.078303 
L 555.681358 234.775561 
L 557.676402 234.775561 
L 559.671446 247.683787 
L 561.66649 239.938851 
L 563.661534 230.472819 
L 565.656578 242.520496 
L 567.651622 262.313109 
L 569.646666 244.241593 
L 571.64171 233.054464 
L 573.636754 233.054464 
L 575.631798 256.28927 
L 577.626843 264.894754 
L 579.621887 243.381045 
L 581.616931 251.986528 
L 585.607019 236.496658 
L 587.602063 250.265432 
L 589.597107 252.847077 
L 591.592151 230.472819 
L 593.587195 245.96269 
L 595.582239 244.241593 
L 597.577283 240.7994 
L 599.572327 243.381045 
L 601.567372 239.078303 
L 603.562416 240.7994 
L 605.55746 243.381045 
L 607.552504 247.683787 
L 609.547548 240.7994 
L 611.542592 230.472819 
L 613.537636 237.357206 
L 615.53268 233.054464 
L 617.527724 245.96269 
L 619.522768 243.381045 
L 621.517812 239.078303 
L 625.507901 239.078303 
L 627.502945 240.7994 
L 629.497989 227.891174 
L 631.493033 245.102142 
L 633.488077 252.847077 
L 635.483121 230.472819 
L 637.478165 235.63611 
L 639.473209 250.265432 
L 641.468253 239.078303 
L 643.463297 243.381045 
L 645.458341 239.078303 
L 647.453386 243.381045 
L 649.44843 245.102142 
L 651.443474 237.357206 
L 653.438518 233.054464 
L 655.433562 239.078303 
L 657.428606 230.472819 
L 659.42365 239.078303 
L 663.413738 235.63611 
L 665.408782 243.381045 
L 667.403826 239.078303 
L 669.39887 237.357206 
L 671.393915 230.472819 
L 675.384003 244.241593 
L 677.379047 237.357206 
L 679.374091 237.357206 
L 679.374091 237.357206 
" clip-path="url(#pf5fb7379ba)" style="fill: none; stroke: #1f77b4; stroke-width: 1.5; stroke-linecap: square"/>
   </g>
   <g id="line2d_26">
    <path d="M 82.855909 295.119876 
L 84.850953 304.282815 
L 86.845997 262.886808 
L 88.841041 291.850593 
L 90.836085 262.026259 
L 92.83113 299.268921 
L 94.826174 291.850593 
L 96.821218 285.312027 
L 98.816262 262.886808 
L 100.811306 295.119876 
L 102.80635 291.850593 
L 104.801394 304.927724 
L 106.796438 262.313109 
L 108.791482 314.310604 
L 110.786526 308.197007 
L 112.78157 285.312027 
L 114.776614 295.119876 
L 116.771659 309.29671 
L 118.766703 288.58131 
L 120.761747 262.599958 
L 122.756791 309.29671 
L 124.751835 262.599958 
L 126.746879 291.850593 
L 128.741923 298.389159 
L 130.736967 294.255026 
L 132.732011 295.119876 
L 134.727055 291.850593 
L 136.722099 285.312027 
L 138.717144 262.026259 
L 140.712188 304.927724 
L 142.707232 262.026259 
L 144.702276 301.658442 
L 146.69732 262.026259 
L 148.692364 304.927724 
L 150.687408 262.313109 
L 152.682452 263.173657 
L 154.677496 262.599958 
L 156.67254 309.29671 
L 158.667584 299.268921 
L 160.662628 288.58131 
L 162.657673 304.282815 
L 164.652717 291.850593 
L 166.647761 261.73941 
L 168.642805 262.026259 
L 170.637849 285.312027 
L 172.632893 294.255026 
L 174.627937 298.389159 
L 176.622981 324.338393 
L 178.618025 304.282815 
L 180.613069 291.850593 
L 182.608113 304.282815 
L 184.603157 278.773462 
L 186.598202 288.58131 
L 188.593246 304.282815 
L 190.58829 299.268921 
L 192.583334 291.850593 
L 194.578378 261.73941 
L 196.573422 289.241132 
L 198.568466 291.850593 
L 200.56351 262.026259 
L 202.558554 262.313109 
L 204.553598 261.45256 
L 206.548642 294.255026 
L 208.543687 295.119876 
L 210.538731 298.389159 
L 214.528819 285.312027 
L 216.523863 311.46629 
L 218.518907 309.29671 
L 220.513951 289.241132 
L 222.508995 288.58131 
L 224.504039 260.878862 
L 226.499083 308.197007 
L 228.494127 289.241132 
L 230.489171 262.026259 
L 232.484216 279.213343 
L 234.47926 275.504179 
L 236.474304 314.310604 
L 238.469348 298.389159 
L 240.464392 275.504179 
L 242.459436 288.58131 
L 244.45448 294.255026 
L 246.449524 304.282815 
L 248.444568 262.886808 
L 250.439612 299.268921 
L 252.434656 291.850593 
L 254.429701 291.850593 
L 256.424745 304.282815 
L 258.419789 291.850593 
L 260.414833 282.042745 
L 262.409877 324.338393 
L 264.404921 288.58131 
L 266.399965 275.504179 
L 268.395009 282.042745 
L 270.390053 260.592012 
L 272.385097 285.312027 
L 274.380141 262.599958 
L 276.375185 262.886808 
L 278.37023 298.389159 
L 280.365274 261.73941 
L 282.360318 272.234896 
L 284.355362 261.45256 
L 286.350406 294.255026 
L 288.34545 278.773462 
L 290.340494 260.592012 
L 292.335538 260.878862 
L 294.330582 299.268921 
L 296.325626 289.241132 
L 298.32067 272.234896 
L 300.315715 260.305163 
L 302.310759 282.042745 
L 304.305803 294.255026 
L 306.300847 288.58131 
L 308.295891 284.227237 
L 310.290935 294.255026 
L 312.285979 263.173657 
L 314.281023 260.878862 
L 316.276067 289.241132 
L 318.271111 288.58131 
L 320.266155 260.878862 
L 322.261199 295.119876 
L 324.256244 261.165711 
L 326.251288 275.504179 
L 328.246332 262.026259 
L 330.241376 284.227237 
L 332.23642 260.878862 
L 334.231464 265.69633 
L 336.226508 299.268921 
L 338.221552 304.282815 
L 340.216596 260.592012 
L 342.21164 285.312027 
L 344.206684 289.241132 
L 346.201728 274.199448 
L 348.196773 272.234896 
L 350.191817 282.042745 
L 352.186861 278.773462 
L 354.181905 260.018313 
L 356.176949 260.305163 
L 358.171993 288.58131 
L 360.167037 299.268921 
L 362.162081 261.73941 
L 364.157125 284.227237 
L 366.152169 260.592012 
L 368.147213 260.592012 
L 370.142258 262.313109 
L 372.137302 282.042745 
L 374.132346 272.234896 
L 376.12739 260.592012 
L 378.122434 261.45256 
L 380.117478 278.773462 
L 382.112522 268.965613 
L 384.107566 278.773462 
L 386.10261 261.165711 
L 388.097654 264.171659 
L 390.092698 304.282815 
L 392.087742 261.73941 
L 394.082787 261.45256 
L 396.077831 262.026259 
L 398.072875 282.042745 
L 400.067919 260.878862 
L 402.062963 260.305163 
L 404.058007 299.268921 
L 406.053051 282.042745 
L 408.048095 294.255026 
L 410.043139 304.282815 
L 412.038183 272.234896 
L 414.033227 260.592012 
L 416.028272 265.69633 
L 418.023316 275.504179 
L 420.01836 260.878862 
L 422.013404 275.504179 
L 424.008448 260.592012 
L 426.003492 272.234896 
L 427.998536 259.731464 
L 429.99358 272.234896 
L 431.988624 260.305163 
L 433.983668 294.255026 
L 435.978712 260.592012 
L 437.973756 274.199448 
L 439.968801 260.018313 
L 441.963845 284.227237 
L 445.953933 259.731464 
L 447.948977 289.241132 
L 449.944021 260.018313 
L 451.939065 261.165711 
L 453.934109 272.234896 
L 455.929153 275.504179 
L 457.924197 279.213343 
L 459.919241 260.018313 
L 461.914285 272.234896 
L 463.90933 275.504179 
L 465.904374 260.592012 
L 467.899418 279.213343 
L 469.894462 268.965613 
L 471.889506 265.69633 
L 473.88455 279.213343 
L 475.879594 260.018313 
L 477.874638 268.965613 
L 479.869682 260.305163 
L 481.864726 275.504179 
L 483.85977 260.018313 
L 485.854815 274.199448 
L 487.849859 268.965613 
L 489.844903 265.69633 
L 491.839947 289.241132 
L 493.834991 260.305163 
L 495.830035 264.171659 
L 497.825079 265.69633 
L 499.820123 260.018313 
L 501.815167 269.185554 
L 503.810211 260.592012 
L 505.805255 262.427048 
L 507.800299 259.731464 
L 509.795344 274.199448 
L 511.790388 265.69633 
L 513.785432 259.444614 
L 517.77552 268.965613 
L 519.770564 269.185554 
L 521.765608 262.427048 
L 523.760652 265.69633 
L 525.755696 265.69633 
L 527.75074 261.45256 
L 529.745784 260.305163 
L 531.740829 272.234896 
L 533.735873 268.965613 
L 535.730917 275.504179 
L 537.725961 274.199448 
L 539.721005 264.171659 
L 541.716049 265.69633 
L 543.711093 274.199448 
L 545.706137 260.305163 
L 547.701181 268.965613 
L 549.696225 259.444614 
L 551.691269 259.157765 
L 553.686313 272.234896 
L 555.681358 269.185554 
L 557.676402 274.199448 
L 559.671446 265.69633 
L 561.66649 274.199448 
L 563.661534 274.199448 
L 565.656578 262.427048 
L 567.651622 259.444614 
L 569.646666 262.427048 
L 571.64171 264.171659 
L 573.636754 259.157765 
L 575.631798 260.018313 
L 577.626843 260.592012 
L 579.621887 260.305163 
L 581.616931 259.444614 
L 583.611975 262.427048 
L 585.607019 269.185554 
L 587.602063 269.185554 
L 589.597107 265.69633 
L 591.592151 264.171659 
L 593.587195 265.69633 
L 595.582239 279.213343 
L 597.577283 265.69633 
L 599.572327 259.157765 
L 601.567372 265.69633 
L 603.562416 268.965613 
L 605.55746 269.185554 
L 607.552504 268.965613 
L 609.547548 265.69633 
L 611.542592 269.185554 
L 613.537636 265.69633 
L 615.53268 269.185554 
L 617.527724 262.427048 
L 619.522768 259.157765 
L 621.517812 265.69633 
L 623.512856 259.157765 
L 625.507901 259.157765 
L 627.502945 262.427048 
L 629.497989 259.157765 
L 631.493033 259.444614 
L 633.488077 259.157765 
L 635.483121 269.185554 
L 639.473209 259.157765 
L 641.468253 262.427048 
L 643.463297 259.157765 
L 645.458341 265.69633 
L 647.453386 259.157765 
L 657.428606 259.157765 
L 659.42365 262.427048 
L 661.418694 262.427048 
L 663.413738 259.157765 
L 679.374091 259.157765 
L 679.374091 259.157765 
" clip-path="url(#pf5fb7379ba)" style="fill: none; stroke: #ff7f0e; stroke-width: 1.5; stroke-linecap: square"/>
   </g>
   <g id="line2d_27">
    <path d="M 82.855909 325.488168 
L 84.850953 357.489758 
L 86.845997 319.969849 
L 88.841041 294.365002 
L 90.836085 344.925752 
L 92.83113 370.649081 
L 94.826174 300.091182 
L 96.821218 343.34808 
L 98.816262 330.870129 
L 100.811306 339.619037 
L 102.80635 299.417294 
L 104.801394 337.019516 
L 106.796438 308.065597 
L 108.791482 342.229367 
L 110.786526 336.033419 
L 112.78157 293.970897 
L 114.776614 264.306921 
L 116.771659 351.297552 
L 118.766703 299.746963 
L 120.761747 297.767702 
L 122.756791 370.283244 
L 124.751835 296.878468 
L 126.746879 308.775654 
L 128.741923 274.260597 
L 130.736967 325.692705 
L 132.732011 301.385747 
L 134.727055 310.428571 
L 136.722099 258.379946 
L 138.717144 344.581533 
L 140.712188 302.930992 
L 142.707232 298.74299 
L 144.702276 289.642795 
L 146.69732 311.880695 
L 148.692364 206.377882 
L 150.687408 373.467273 
L 154.677496 317.675054 
L 156.67254 365.005214 
L 158.667584 364.144665 
L 160.662628 317.961903 
L 162.657673 350.377965 
L 164.652717 296.419509 
L 166.647761 233.599478 
L 168.642805 297.566907 
L 170.637849 289.470685 
L 172.632893 323.415785 
L 174.627937 238.616019 
L 176.622981 312.082526 
L 178.618025 307.542201 
L 180.613069 277.982573 
L 182.608113 361.276171 
L 184.603157 261.370248 
L 186.598202 326.061867 
L 188.593246 313.623409 
L 190.58829 321.433818 
L 192.583334 312.149668 
L 194.578378 257.723518 
L 196.573422 289.033344 
L 198.568466 294.885073 
L 200.56351 263.173657 
L 202.558554 366.181297 
L 204.553598 260.477272 
L 206.548642 272.754429 
L 208.543687 233.742903 
L 212.533775 285.598218 
L 214.528819 204.513361 
L 216.523863 231.140057 
L 218.518907 299.456788 
L 220.513951 325.233745 
L 222.508995 248.910172 
L 224.504039 317.474259 
L 226.499083 324.556116 
L 228.494127 326.082853 
L 230.489171 238.590659 
L 232.484216 300.277843 
L 234.47926 269.348405 
L 236.474304 358.407676 
L 238.469348 303.142595 
L 240.464392 320.256699 
L 242.459436 265.927412 
L 244.45448 302.683636 
L 246.449524 319.801482 
L 248.444568 292.518356 
L 250.439612 349.095878 
L 252.434656 258.254398 
L 254.429701 269.222856 
L 256.424745 329.493251 
L 258.419789 239.099921 
L 260.414833 271.5031 
L 262.409877 311.91249 
L 264.404921 271.244936 
L 266.399965 299.173264 
L 268.395009 231.340852 
L 270.390053 217.994868 
L 272.385097 341.626983 
L 274.380141 276.885061 
L 276.375185 319.539575 
L 278.37023 251.932901 
L 280.365274 326.768181 
L 282.360318 318.342292 
L 284.355362 304.336554 
L 286.350406 300.123609 
L 288.34545 293.135291 
L 290.340494 353.330441 
L 292.335538 257.006394 
L 294.330582 290.772721 
L 296.325626 258.605684 
L 298.32067 271.176757 
L 300.315715 225.997968 
L 302.310759 287.140138 
L 304.305803 284.343147 
L 306.300847 229.218166 
L 308.295891 288.323288 
L 310.290935 328.023252 
L 312.285979 247.511677 
L 314.281023 246.220854 
L 316.276067 331.619679 
L 318.271111 210.90262 
L 320.266155 325.276564 
L 322.261199 247.791459 
L 324.256244 235.492685 
L 326.251288 294.870522 
L 328.246332 208.299356 
L 330.241376 284.540617 
L 332.23642 226.571667 
L 334.231464 273.414183 
L 336.226508 303.547927 
L 338.221552 307.674817 
L 340.216596 292.432302 
L 342.21164 319.331714 
L 344.206684 274.51502 
L 346.201728 330.41117 
L 348.196773 293.23548 
L 350.191817 224.420296 
L 352.186861 273.851941 
L 354.181905 285.949504 
L 356.176949 260.964916 
L 358.171993 275.156898 
L 360.167037 285.458535 
L 362.162081 254.568174 
L 364.157125 269.140126 
L 366.152169 230.616244 
L 368.147213 228.608298 
L 370.142258 290.194876 
L 372.137302 258.139658 
L 374.132346 247.479667 
L 376.12739 244.040799 
L 378.122434 246.536389 
L 380.117478 246.970405 
L 382.112522 185.193841 
L 384.107566 231.853439 
L 386.10261 226.887201 
L 388.097654 294.192892 
L 390.092698 243.424281 
L 392.087742 255.141872 
L 394.082787 281.388598 
L 396.077831 230.616244 
L 398.072875 221.73472 
L 400.067919 242.749976 
L 402.062963 212.860263 
L 404.058007 323.107317 
L 406.053051 205.255427 
L 408.048095 227.396463 
L 410.043139 302.414663 
L 412.038183 257.526465 
L 414.033227 238.361179 
L 416.028272 303.433187 
L 418.023316 278.94331 
L 420.01836 218.711992 
L 422.013404 287.182957 
L 424.008448 268.968016 
L 426.003492 212.928442 
L 427.998536 211.397331 
L 429.99358 263.532428 
L 431.988624 281.589392 
L 433.983668 256.28927 
L 435.978712 300.062497 
L 437.973756 240.225701 
L 439.968801 325.104455 
L 441.963845 305.283157 
L 443.958889 236.582713 
L 445.953933 268.193523 
L 447.948977 309.24168 
L 449.944021 210.249933 
L 451.939065 252.129953 
L 453.934109 282.85153 
L 455.929153 217.621964 
L 457.924197 275.569296 
L 459.919241 213.405277 
L 461.914285 207.905251 
L 463.90933 263.148714 
L 465.904374 250.552281 
L 467.899418 287.330123 
L 469.894462 273.098648 
L 471.889506 255.306915 
L 473.88455 282.855272 
L 475.879594 199.206229 
L 477.874638 261.101274 
L 479.869682 273.729717 
L 481.864726 215.95117 
L 483.85977 250.896501 
L 485.854815 263.768974 
L 487.849859 248.8025 
L 489.844903 244.392502 
L 491.839947 266.924318 
L 493.834991 216.388511 
L 495.830035 269.00751 
L 497.825079 255.238736 
L 499.820123 233.742903 
L 501.815167 271.779141 
L 503.810211 275.651609 
L 505.805255 246.959596 
L 507.800299 228.178024 
L 509.795344 300.159361 
L 511.790388 283.367859 
L 513.785432 194.473213 
L 515.780476 230.035478 
L 517.77552 237.28196 
L 519.770564 250.380172 
L 521.765608 237.00592 
L 523.760652 218.367772 
L 525.755696 183.261141 
L 527.75074 218.425142 
L 529.745784 256.862969 
L 531.740829 211.892459 
L 533.735873 236.460906 
L 535.730917 215.434841 
L 537.725961 227.299599 
L 539.721005 251.911283 
L 541.716049 207.897767 
L 543.711093 253.879735 
L 545.706137 274.360786 
L 547.701181 277.566433 
L 549.696225 208.098562 
L 551.691269 219.163884 
L 553.686313 282.557613 
L 555.681358 300.865676 
L 557.676402 281.073063 
L 559.671446 171.679907 
L 561.66649 238.791454 
L 563.661534 242.692606 
L 565.656578 283.056067 
L 567.651622 194.903487 
L 569.646666 208.758316 
L 571.64171 283.941558 
L 573.636754 261.395191 
L 575.631798 233.771588 
L 577.626843 231.849697 
L 579.621887 205.803766 
L 581.616931 230.329395 
L 583.611975 220.547828 
L 585.607019 276.655582 
L 587.602063 255.39297 
L 589.597107 272.18073 
L 591.592151 236.919865 
L 593.587195 209.934398 
L 595.582239 298.897223 
L 597.577283 223.789227 
L 599.572327 231.620217 
L 601.567372 199.199162 
L 603.562416 203.978739 
L 605.55746 248.773815 
L 607.552504 197.793599 
L 609.547548 261.050971 
L 611.542592 265.181603 
L 613.537636 187.208855 
L 615.53268 219.192569 
L 617.527724 207.065904 
L 619.522768 204.369519 
L 621.517812 242.749976 
L 623.512856 278.147199 
L 625.507901 209.159905 
L 627.502945 200.812586 
L 629.497989 259.272505 
L 631.493033 206.377465 
L 633.488077 209.676234 
L 635.483121 227.701189 
L 637.478165 227.546955 
L 639.473209 206.377465 
L 641.468253 226.141393 
L 643.463297 207.381438 
L 645.458341 206.23404 
L 647.453386 196.337734 
L 649.44843 208.098562 
L 651.443474 226.915886 
L 653.438518 228.120654 
L 655.433562 235.11978 
L 657.428606 232.538135 
L 659.42365 211.91366 
L 661.418694 228.705162 
L 663.413738 234.001068 
L 665.408782 212.831578 
L 667.403826 235.29189 
L 669.39887 237.90222 
L 671.393915 231.907067 
L 673.388959 198.431735 
L 675.384003 219.823638 
L 677.379047 217.01958 
L 679.374091 216.7901 
L 679.374091 216.7901 
" clip-path="url(#pf5fb7379ba)" style="fill: none; stroke: #2ca02c; stroke-width: 1.5; stroke-linecap: square"/>
   </g>
   <g id="line2d_28">
    <path d="M 82.855909 279.237227 
L 84.850953 270.074389 
L 86.845997 231.333368 
L 88.841041 234.495847 
L 90.836085 280.097775 
L 92.83113 284.400517 
L 94.826174 297.147479 
L 96.821218 278.663528 
L 98.816262 224.448981 
L 100.811306 278.950377 
L 102.80635 287.269011 
L 104.801394 296.727908 
L 106.796438 259.731464 
L 108.791482 261.133021 
L 110.786526 259.584471 
L 112.78157 215.843497 
L 114.776614 226.456927 
L 116.771659 268.591107 
L 118.766703 296.147074 
L 120.761747 234.775561 
L 122.756791 250.298122 
L 124.751835 245.67584 
L 126.746879 271.205442 
L 128.741923 278.516535 
L 130.736967 269.771195 
L 132.732011 260.298027 
L 134.727055 272.06599 
L 136.722099 234.775561 
L 138.717144 271.492291 
L 140.712188 266.748572 
L 142.707232 221.867336 
L 144.702276 297.007622 
L 146.69732 221.580486 
L 148.692364 316.814505 
L 150.687408 245.102142 
L 152.682452 235.63611 
L 154.677496 189.453347 
L 156.67254 233.00543 
L 158.667584 227.55529 
L 160.662628 253.553497 
L 162.657673 225.276839 
L 164.652717 310.503817 
L 166.647761 176.258272 
L 168.642805 215.556648 
L 170.637849 239.078303 
L 172.632893 253.101236 
L 174.627937 233.922148 
L 176.622981 234.218207 
L 178.618025 239.365152 
L 180.613069 267.903106 
L 182.608113 273.500238 
L 184.603157 227.464468 
L 186.598202 273.066396 
L 188.593246 230.997483 
L 190.58829 295.653025 
L 192.583334 233.922148 
L 194.578378 136.673047 
L 196.573422 279.556766 
L 198.568466 276.935296 
L 200.56351 237.930905 
L 202.558554 249.404883 
L 204.553598 165.071144 
L 206.548642 259.747809 
L 208.543687 270.631743 
L 210.538731 251.986528 
L 212.533775 251.559822 
L 214.528819 237.644056 
L 216.523863 252.700084 
L 218.518907 240.209356 
L 220.513951 239.365152 
L 222.508995 256.002421 
L 224.504039 245.102142 
L 226.499083 272.492697 
L 228.494127 242.807346 
L 230.489171 210.680207 
L 232.484216 247.110088 
L 234.47926 224.448981 
L 236.474304 278.393023 
L 238.469348 219.57254 
L 240.464392 238.217755 
L 242.459436 248.257486 
L 244.45448 217.564594 
L 246.449524 251.142325 
L 248.444568 213.261852 
L 250.439612 335.000436 
L 252.434656 237.217349 
L 254.429701 235.922959 
L 256.424745 269.78754 
L 258.419789 253.994475 
L 260.414833 265.181603 
L 262.409877 268.353292 
L 264.404921 250.839131 
L 266.399965 238.791454 
L 268.395009 236.209808 
L 270.390053 239.938851 
L 272.385097 278.236821 
L 274.380141 243.381045 
L 276.375185 159.907853 
L 278.37023 254.568174 
L 280.365274 174.537176 
L 282.360318 233.194321 
L 284.355362 216.704045 
L 286.350406 255.428722 
L 288.34545 287.408869 
L 290.340494 171.95553 
L 292.335538 208.098562 
L 294.330582 271.779141 
L 296.325626 212.975003 
L 298.32067 234.635704 
L 300.315715 218.711992 
L 302.310759 235.922959 
L 304.305803 302.504722 
L 306.300847 227.317475 
L 308.295891 210.680207 
L 310.290935 286.457498 
L 312.285979 216.704045 
L 314.281023 179.700466 
L 316.276067 215.253453 
L 318.271111 215.843497 
L 320.266155 214.982949 
L 322.261199 200.213769 
L 324.256244 194.329788 
L 326.251288 235.922959 
L 328.246332 177.979369 
L 330.241376 179.700466 
L 332.23642 137.533596 
L 334.231464 191.174444 
L 336.226508 249.978582 
L 338.221552 270.344894 
L 340.216596 187.732251 
L 342.21164 253.854618 
L 344.206684 270.107079 
L 346.201728 274.647635 
L 348.196773 216.704045 
L 350.191817 291.424761 
L 352.186861 206.090616 
L 354.181905 163.923746 
L 356.176949 188.305949 
L 358.171993 193.756089 
L 360.167037 248.290175 
L 362.162081 175.397724 
L 364.157125 247.126433 
L 366.152169 198.919379 
L 368.147213 155.605112 
L 370.142258 151.30237 
L 372.137302 237.070357 
L 374.132346 221.867336 
L 376.12739 142.410037 
L 378.122434 197.771981 
L 380.117478 245.388991 
L 382.112522 195.764035 
L 384.107566 209.532809 
L 386.10261 221.867336 
L 388.097654 227.858484 
L 390.092698 238.217755 
L 392.087742 152.162918 
L 394.082787 103.97221 
L 396.077831 171.668681 
L 398.072875 171.668681 
L 400.067919 118.601532 
L 402.062963 156.46566 
L 404.058007 293.35823 
L 406.053051 199.640071 
L 408.048095 217.851443 
L 410.043139 205.230067 
L 412.038183 176.545122 
L 414.033227 182.282111 
L 416.028272 218.138293 
L 418.023316 192.034992 
L 420.01836 200.066777 
L 422.013404 192.468834 
L 424.008448 168.513337 
L 426.003492 206.377465 
L 427.998536 149.581273 
L 429.99358 191.314301 
L 431.988624 165.931692 
L 433.983668 194.042939 
L 435.978712 155.605112 
L 437.973756 239.652002 
L 439.968801 118.601532 
L 441.963845 223.317928 
L 443.958889 220.433088 
L 445.953933 161.62895 
L 447.948977 224.719485 
L 449.944021 134.378252 
L 451.939065 197.771981 
L 453.934109 255.708436 
L 455.929153 209.532809 
L 457.924197 189.166498 
L 459.919241 159.907853 
L 461.914285 240.51255 
L 463.90933 196.337734 
L 465.904374 108.274951 
L 467.899418 270.090734 
L 469.894462 254.708031 
L 471.889506 206.377465 
L 473.88455 223.285238 
L 475.879594 203.508971 
L 477.874638 232.480766 
L 479.869682 122.904274 
L 481.864726 200.353627 
L 483.85977 196.624584 
L 485.854815 222.17053 
L 487.849859 227.597189 
L 489.844903 208.95911 
L 491.839947 205.803766 
L 493.834991 66.108082 
L 495.830035 221.309982 
L 497.825079 257.009962 
L 499.820123 156.46566 
L 501.815167 233.915013 
L 503.810211 149.868122 
L 505.805255 184.290057 
L 507.800299 208.098562 
L 509.795344 277.532475 
L 511.790388 272.632554 
L 513.785432 192.321842 
L 515.780476 225.580034 
L 517.77552 218.285285 
L 519.770564 212.098109 
L 521.765608 246.242404 
L 523.760652 214.975813 
L 525.755696 207.66472 
L 527.75074 177.118821 
L 529.745784 135.812499 
L 531.740829 184.290057 
L 533.735873 246.816103 
L 535.730917 220.433088 
L 537.725961 230.18597 
L 539.721005 212.688153 
L 541.716049 178.839917 
L 543.711093 227.58798 
L 545.706137 164.210595 
L 547.701181 208.95911 
L 549.696225 122.043725 
L 551.691269 229.744993 
L 553.686313 190.027046 
L 555.681358 242.233647 
L 557.676402 171.95553 
L 561.66649 216.687701 
L 563.661534 222.45738 
L 565.656578 183.142659 
L 567.651622 163.636896 
L 569.646666 214.541972 
L 571.64171 209.532809 
L 573.636754 206.680659 
L 575.631798 101.390564 
L 577.626843 83.319049 
L 579.621887 138.967843 
L 581.616931 175.971423 
L 585.607019 220.990442 
L 587.602063 194.616637 
L 589.597107 146.999628 
L 591.592151 178.553068 
L 593.587195 203.222121 
L 595.582239 233.070809 
L 597.577283 213.261852 
L 599.572327 182.56896 
L 601.567372 210.673072 
L 603.562416 179.987315 
L 605.55746 236.193463 
L 607.552504 177.979369 
L 609.547548 209.24596 
L 611.542592 222.42469 
L 613.537636 192.895541 
L 615.53268 225.02268 
L 617.527724 167.652789 
L 619.522768 121.183177 
L 621.517812 193.609097 
L 623.512856 199.779928 
L 625.507901 165.071144 
L 627.502945 170.234434 
L 629.497989 208.672261 
L 631.493033 153.023466 
L 633.488077 126.920166 
L 635.483121 226.760121 
L 637.478165 210.967056 
L 639.473209 121.756876 
L 641.468253 238.357612 
L 643.463297 182.85581 
L 645.458341 180.987721 
L 647.453386 167.07909 
L 649.44843 162.489498 
L 651.443474 223.301583 
L 653.438518 230.472819 
L 655.433562 236.496658 
L 657.428606 235.062411 
L 659.42365 216.990895 
L 661.418694 228.178024 
L 663.413738 216.130347 
L 665.408782 186.011154 
L 667.403826 231.333368 
L 669.39887 214.40925 
L 671.393915 218.138293 
L 673.388959 146.425929 
L 675.384003 215.409655 
L 677.379047 146.999628 
L 679.374091 138.967843 
L 679.374091 138.967843 
" clip-path="url(#pf5fb7379ba)" style="fill: none; stroke: #d62728; stroke-width: 1.5; stroke-linecap: square"/>
   </g>
   <g id="line2d_29">
    <path d="M 82.855909 244.241593 
L 84.850953 248.68776 
L 86.845997 229.89912 
L 88.841041 244.958717 
L 90.836085 237.78748 
L 92.83113 266.615851 
L 94.826174 233.628163 
L 96.821218 221.006787 
L 98.816262 199.206229 
L 100.811306 229.468846 
L 102.80635 221.867336 
L 104.801394 246.966663 
L 106.796438 236.496658 
L 108.791482 246.249539 
L 110.786526 225.883228 
L 112.78157 287.269011 
L 114.776614 211.540755 
L 116.771659 218.998841 
L 118.766703 219.142266 
L 120.761747 249.835158 
L 122.756791 216.273771 
L 124.751835 216.417196 
L 126.746879 231.333368 
L 128.741923 262.169684 
L 130.736967 191.748143 
L 132.732011 252.990502 
L 134.727055 257.149819 
L 136.722099 204.082669 
L 138.717144 252.129953 
L 140.712188 242.950771 
L 142.707232 205.516917 
L 144.702276 244.958717 
L 146.69732 250.695706 
L 148.692364 141.836338 
L 150.687408 172.816079 
L 152.682452 244.241593 
L 154.677496 247.253512 
L 156.67254 242.233647 
L 158.667584 277.659555 
L 160.662628 194.329788 
L 162.657673 226.313502 
L 164.652717 255.428722 
L 166.647761 184.863756 
L 168.642805 265.325028 
L 170.637849 211.253906 
L 172.632893 233.197889 
L 174.627937 258.870915 
L 176.622981 233.484739 
L 178.618025 214.1224 
L 180.613069 239.795427 
L 182.608113 239.508577 
L 184.603157 210.967056 
L 186.598202 254.855023 
L 188.593246 217.421169 
L 190.58829 220.146239 
L 192.583334 192.895541 
L 194.578378 118.601532 
L 196.573422 166.935665 
L 198.568466 145.85223 
L 200.56351 214.696099 
L 202.558554 153.023466 
L 204.553598 95.366726 
L 206.548642 205.373492 
L 208.543687 224.162131 
L 210.538731 108.274951 
L 212.533775 233.197889 
L 214.528819 234.775561 
L 216.523863 195.190336 
L 218.518907 200.783901 
L 220.513951 207.238013 
L 222.508995 265.755302 
L 224.504039 95.366726 
L 226.499083 240.655975 
L 228.494127 177.118821 
L 230.489171 202.074723 
L 232.484216 199.923352 
L 234.47926 189.166498 
L 236.474304 195.333761 
L 238.469348 199.493078 
L 240.464392 236.640083 
L 242.459436 243.094195 
L 244.45448 157.326208 
L 246.449524 217.851443 
L 248.444568 157.326208 
L 250.439612 239.795427 
L 252.434656 250.982555 
L 254.429701 199.636503 
L 256.424745 198.919379 
L 258.419789 228.751723 
L 260.414833 255.858996 
L 262.409877 138.394144 
L 264.404921 164.210595 
L 266.399965 150.441821 
L 268.395009 111.717145 
L 270.390053 241.373099 
L 272.385097 240.369126 
L 274.380141 192.608691 
L 276.375185 109.996048 
L 278.37023 179.126767 
L 280.365274 171.094982 
L 282.360318 226.887201 
L 284.355362 207.381438 
L 286.350406 127.207015 
L 288.34545 180.561014 
L 290.340494 237.357206 
L 292.335538 243.381045 
L 296.325626 116.593586 
L 298.32067 146.569354 
L 300.315715 128.928112 
L 302.310759 135.812499 
L 304.305803 227.4609 
L 306.300847 179.700466 
L 308.295891 185.150605 
L 310.290935 205.947191 
L 312.285979 244.958717 
L 314.281023 153.884015 
L 316.276067 231.333368 
L 318.271111 158.186757 
L 320.266155 215.843497 
L 322.261199 213.835551 
L 324.256244 176.258272 
L 326.251288 202.074723 
L 328.246332 113.438242 
L 330.241376 156.46566 
L 332.23642 149.581273 
L 334.231464 149.581273 
L 336.226508 183.429509 
L 338.221552 214.1224 
L 340.216596 153.884015 
L 342.21164 144.417983 
L 344.206684 230.759669 
L 346.201728 219.57254 
L 348.196773 165.071144 
L 350.191817 182.282111 
L 352.186861 101.390564 
L 354.181905 157.613058 
L 356.176949 189.166498 
L 358.171993 216.704045 
L 360.167037 194.903487 
L 362.162081 190.887595 
L 364.157125 185.007181 
L 366.152169 241.086249 
L 368.147213 161.62895 
L 370.142258 197.771981 
L 372.137302 88.482339 
L 374.132346 134.091402 
L 376.12739 161.485525 
L 378.122434 195.190336 
L 380.117478 124.62537 
L 382.112522 154.744563 
L 384.107566 131.796607 
L 386.10261 143.557434 
L 388.097654 173.676627 
L 390.092698 174.537176 
L 392.087742 128.928112 
L 394.082787 135.812499 
L 396.077831 175.971423 
L 398.072875 210.106508 
L 400.067919 190.027046 
L 402.062963 106.553855 
L 404.058007 213.118427 
L 406.053051 124.481946 
L 408.048095 118.601532 
L 410.043139 127.207015 
L 412.038183 105.693306 
L 414.033227 233.915013 
L 416.028272 124.62537 
L 418.023316 159.907853 
L 420.01836 144.704832 
L 422.013404 167.509364 
L 424.008448 152.162918 
L 426.003492 123.764822 
L 427.998536 130.649209 
L 429.99358 151.589219 
L 431.988624 168.513337 
L 433.983668 151.589219 
L 435.978712 188.305949 
L 437.973756 128.067564 
L 439.968801 157.326208 
L 441.963845 169.660735 
L 443.958889 130.649209 
L 445.953933 125.485919 
L 447.948977 192.608691 
L 449.944021 137.246746 
L 451.939065 175.684573 
L 453.934109 119.605505 
L 455.929153 146.13908 
L 457.924197 93.645629 
L 459.919241 161.62895 
L 461.914285 139.254693 
L 463.90933 120.322629 
L 465.904374 181.421562 
L 467.899418 197.198283 
L 469.894462 188.592799 
L 471.889506 103.398511 
L 473.88455 168.083063 
L 475.879594 213.978976 
L 477.874638 142.696886 
L 479.869682 107.414403 
L 481.864726 141.262639 
L 483.85977 170.521283 
L 485.854815 203.508971 
L 487.849859 187.445401 
L 489.844903 116.019887 
L 491.839947 182.56896 
L 493.834991 136.673047 
L 495.830035 136.673047 
L 497.825079 219.142266 
L 499.820123 155.605112 
L 501.815167 105.119607 
L 503.810211 158.90388 
L 505.805255 138.394144 
L 507.800299 169.373885 
L 509.795344 248.68776 
L 511.790388 208.241987 
L 513.785432 200.927325 
L 515.780476 191.461293 
L 517.77552 123.621397 
L 519.770564 142.266612 
L 521.765608 218.138293 
L 523.760652 146.712778 
L 525.755696 127.35044 
L 527.75074 106.41043 
L 529.745784 116.880435 
L 531.740829 91.924532 
L 533.735873 182.138686 
L 535.730917 139.541542 
L 537.725961 110.139473 
L 539.721005 123.764822 
L 541.716049 102.251113 
L 543.711093 127.780714 
L 545.706137 172.816079 
L 547.701181 118.027833 
L 549.696225 119.46208 
L 551.691269 133.947978 
L 553.686313 94.506178 
L 555.681358 177.979369 
L 557.676402 131.796607 
L 559.671446 155.605112 
L 561.66649 127.63729 
L 563.661534 136.242773 
L 565.656578 54.060404 
L 567.651622 95.940425 
L 569.646666 120.752903 
L 571.64171 80.450554 
L 573.636754 117.167285 
L 575.631798 79.016307 
L 577.626843 140.975789 
L 579.621887 137.820445 
L 581.616931 178.839917 
L 583.611975 83.605898 
L 585.607019 188.162525 
L 587.602063 130.649209 
L 589.597107 43.733824 
L 591.592151 150.441821 
L 593.587195 60.371092 
L 595.582239 144.274558 
L 597.577283 113.438242 
L 599.572327 176.545122 
L 601.567372 138.107295 
L 603.562416 83.319049 
L 605.55746 140.545515 
L 607.552504 95.366726 
L 609.547548 167.939638 
L 611.542592 145.995655 
L 613.537636 106.553855 
L 615.53268 126.633317 
L 617.527724 78.155759 
L 619.522768 108.274951 
L 621.517812 106.840704 
L 623.512856 123.764822 
L 625.507901 79.876855 
L 627.502945 81.597952 
L 629.497989 131.796607 
L 631.493033 134.951951 
L 633.488077 148.147026 
L 635.483121 100.243167 
L 637.478165 103.97221 
L 639.473209 141.262639 
L 641.468253 164.497445 
L 643.463297 165.357993 
L 645.458341 81.024253 
L 647.453386 156.17881 
L 649.44843 163.350047 
L 651.443474 205.803766 
L 653.438518 113.151392 
L 655.433562 175.110874 
L 657.428606 148.147026 
L 659.42365 157.613058 
L 661.418694 177.118821 
L 663.413738 168.800186 
L 665.408782 192.321842 
L 667.403826 200.353627 
L 669.39887 161.9158 
L 671.393915 111.430295 
L 673.388959 42.012727 
L 675.384003 151.589219 
L 677.379047 54.060404 
L 679.374091 54.060404 
L 679.374091 54.060404 
" clip-path="url(#pf5fb7379ba)" style="fill: none; stroke: #9467bd; stroke-width: 1.5; stroke-linecap: square"/>
   </g>
   <g id="line2d_30"/>
   <g id="patch_3">
    <path d="M 53.03 390.04 
L 53.03 25.44 
" style="fill: none; stroke: #000000; stroke-width: 0.8; stroke-linejoin: miter; stroke-linecap: square"/>
   </g>
   <g id="patch_4">
    <path d="M 709.2 390.04 
L 709.2 25.44 
" style="fill: none; stroke: #000000; stroke-width: 0.8; stroke-linejoin: miter; stroke-linecap: square"/>
   </g>
   <g id="patch_5">
    <path d="M 53.03 390.04 
L 709.2 390.04 
" style="fill: none; stroke: #000000; stroke-width: 0.8; stroke-linejoin: miter; stroke-linecap: square"/>
   </g>
   <g id="patch_6">
    <path d="M 53.03 25.44 
L 709.2 25.44 
" style="fill: none; stroke: #000000; stroke-width: 0.8; stroke-linejoin: miter; stroke-linecap: square"/>
   </g>
   <g id="text_15">
    <!-- Average Reward per Episode by Agent -->
    <g transform="translate(265.943125 19.44) scale(0.12 -0.12)">
     <defs>
      <path id="DejaVuSans-62" d="M 3116 1747 
Q 3116 2381 2855 2742 
Q 2594 3103 2138 3103 
Q 1681 3103 1420 2742 
Q 1159 2381 1159 1747 
Q 1159 1113 1420 752 
Q 1681 391 2138 391 
Q 2594 391 2855 752 
Q 3116 1113 3116 1747 
z
M 1159 2969 
Q 1341 3281 1617 3432 
Q 1894 3584 2278 3584 
Q 2916 3584 3314 3078 
Q 3713 2572 3713 1747 
Q 3713 922 3314 415 
Q 2916 -91 2278 -91 
Q 1894 -91 1617 61 
Q 1341 213 1159 525 
L 1159 0 
L 581 0 
L 581 4863 
L 1159 4863 
L 1159 2969 
z
" transform="scale(0.015625)"/>
      <path id="DejaVuSans-79" d="M 2059 -325 
Q 1816 -950 1584 -1140 
Q 1353 -1331 966 -1331 
L 506 -1331 
L 506 -850 
L 844 -850 
Q 1081 -850 1212 -737 
Q 1344 -625 1503 -206 
L 1606 56 
L 191 3500 
L 800 3500 
L 1894 763 
L 2988 3500 
L 3597 3500 
L 2059 -325 
z
" transform="scale(0.015625)"/>
      <path id="DejaVuSans-6e" d="M 3513 2113 
L 3513 0 
L 2938 0 
L 2938 2094 
Q 2938 2591 2744 2837 
Q 2550 3084 2163 3084 
Q 1697 3084 1428 2787 
Q 1159 2491 1159 1978 
L 1159 0 
L 581 0 
L 581 3500 
L 1159 3500 
L 1159 2956 
Q 1366 3272 1645 3428 
Q 1925 3584 2291 3584 
Q 2894 3584 3203 3211 
Q 3513 2838 3513 2113 
z
" transform="scale(0.015625)"/>
      <path id="DejaVuSans-74" d="M 1172 4494 
L 1172 3500 
L 2356 3500 
L 2356 3053 
L 1172 3053 
L 1172 1153 
Q 1172 725 1289 603 
Q 1406 481 1766 481 
L 2356 481 
L 2356 0 
L 1766 0 
Q 1100 0 847 248 
Q 594 497 594 1153 
L 594 3053 
L 172 3053 
L 172 3500 
L 594 3500 
L 594 4494 
L 1172 4494 
z
" transform="scale(0.015625)"/>
     </defs>
     <use xlink:href="#DejaVuSans-41"/>
     <use xlink:href="#DejaVuSans-76" x="62.533203"/>
     <use xlink:href="#DejaVuSans-65" x="121.712891"/>
     <use xlink:href="#DejaVuSans-72" x="183.236328"/>
     <use xlink:href="#DejaVuSans-61" x="224.349609"/>
     <use xlink:href="#DejaVuSans-67" x="285.628906"/>
     <use xlink:href="#DejaVuSans-65" x="349.105469"/>
     <use xlink:href="#DejaVuSans-20" x="410.628906"/>
     <use xlink:href="#DejaVuSans-52" x="442.416016"/>
     <use xlink:href="#DejaVuSans-65" x="507.398438"/>
     <use xlink:href="#DejaVuSans-77" x="568.921875"/>
     <use xlink:href="#DejaVuSans-61" x="650.708984"/>
     <use xlink:href="#DejaVuSans-72" x="711.988281"/>
     <use xlink:href="#DejaVuSans-64" x="751.351562"/>
     <use xlink:href="#DejaVuSans-20" x="814.828125"/>
     <use xlink:href="#DejaVuSans-70" x="846.615234"/>
     <use xlink:href="#DejaVuSans-65" x="910.091797"/>
     <use xlink:href="#DejaVuSans-72" x="971.615234"/>
     <use xlink:href="#DejaVuSans-20" x="1012.728516"/>
     <use xlink:href="#DejaVuSans-45" x="1044.515625"/>
     <use xlink:href="#DejaVuSans-70" x="1107.699219"/>
     <use xlink:href="#DejaVuSans-69" x="1171.175781"/>
     <use xlink:href="#DejaVuSans-73" x="1198.958984"/>
     <use xlink:href="#DejaVuSans-6f" x="1251.058594"/>
     <use xlink:href="#DejaVuSans-64" x="1312.240234"/>
     <use xlink:href="#DejaVuSans-65" x="1375.716797"/>
     <use xlink:href="#DejaVuSans-20" x="1437.240234"/>
     <use xlink:href="#DejaVuSans-62" x="1469.027344"/>
     <use xlink:href="#DejaVuSans-79" x="1532.503906"/>
     <use xlink:href="#DejaVuSans-20" x="1591.683594"/>
     <use xlink:href="#DejaVuSans-41" x="1623.470703"/>
     <use xlink:href="#DejaVuSans-67" x="1691.878906"/>
     <use xlink:href="#DejaVuSans-65" x="1755.355469"/>
     <use xlink:href="#DejaVuSans-6e" x="1816.878906"/>
     <use xlink:href="#DejaVuSans-74" x="1880.257812"/>
    </g>
   </g>
   <g id="legend_1">
    <g id="patch_7">
     <path d="M 537.69375 385.04 
L 702.2 385.04 
Q 704.2 385.04 704.2 383.04 
L 704.2 295.97125 
Q 704.2 293.97125 702.2 293.97125 
L 537.69375 293.97125 
Q 535.69375 293.97125 535.69375 295.97125 
L 535.69375 383.04 
Q 535.69375 385.04 537.69375 385.04 
z
" style="fill: #ffffff; opacity: 0.8; stroke: #cccccc; stroke-linejoin: miter"/>
    </g>
    <g id="line2d_31">
     <path d="M 539.69375 302.069687 
L 549.69375 302.069687 
L 559.69375 302.069687 
" style="fill: none; stroke: #1f77b4; stroke-width: 1.5; stroke-linecap: square"/>
    </g>
    <g id="text_16">
     <!-- solar - Average Reward -->
     <g transform="translate(567.69375 305.569687) scale(0.1 -0.1)">
      <defs>
       <path id="DejaVuSans-6c" d="M 603 4863 
L 1178 4863 
L 1178 0 
L 603 0 
L 603 4863 
z
" transform="scale(0.015625)"/>
       <path id="DejaVuSans-2d" d="M 313 2009 
L 1997 2009 
L 1997 1497 
L 313 1497 
L 313 2009 
z
" transform="scale(0.015625)"/>
      </defs>
      <use xlink:href="#DejaVuSans-73"/>
      <use xlink:href="#DejaVuSans-6f" x="52.099609"/>
      <use xlink:href="#DejaVuSans-6c" x="113.28125"/>
      <use xlink:href="#DejaVuSans-61" x="141.064453"/>
      <use xlink:href="#DejaVuSans-72" x="202.34375"/>
      <use xlink:href="#DejaVuSans-20" x="243.457031"/>
      <use xlink:href="#DejaVuSans-2d" x="275.244141"/>
      <use xlink:href="#DejaVuSans-20" x="311.328125"/>
      <use xlink:href="#DejaVuSans-41" x="343.115234"/>
      <use xlink:href="#DejaVuSans-76" x="405.648438"/>
      <use xlink:href="#DejaVuSans-65" x="464.828125"/>
      <use xlink:href="#DejaVuSans-72" x="526.351562"/>
      <use xlink:href="#DejaVuSans-61" x="567.464844"/>
      <use xlink:href="#DejaVuSans-67" x="628.744141"/>
      <use xlink:href="#DejaVuSans-65" x="692.220703"/>
      <use xlink:href="#DejaVuSans-20" x="753.744141"/>
      <use xlink:href="#DejaVuSans-52" x="785.53125"/>
      <use xlink:href="#DejaVuSans-65" x="850.513672"/>
      <use xlink:href="#DejaVuSans-77" x="912.037109"/>
      <use xlink:href="#DejaVuSans-61" x="993.824219"/>
      <use xlink:href="#DejaVuSans-72" x="1055.103516"/>
      <use xlink:href="#DejaVuSans-64" x="1094.466797"/>
     </g>
    </g>
    <g id="line2d_32">
     <path d="M 539.69375 316.747813 
L 549.69375 316.747813 
L 559.69375 316.747813 
" style="fill: none; stroke: #ff7f0e; stroke-width: 1.5; stroke-linecap: square"/>
    </g>
    <g id="text_17">
     <!-- wind - Average Reward -->
     <g transform="translate(567.69375 320.247813) scale(0.1 -0.1)">
      <use xlink:href="#DejaVuSans-77"/>
      <use xlink:href="#DejaVuSans-69" x="81.787109"/>
      <use xlink:href="#DejaVuSans-6e" x="109.570312"/>
      <use xlink:href="#DejaVuSans-64" x="172.949219"/>
      <use xlink:href="#DejaVuSans-20" x="236.425781"/>
      <use xlink:href="#DejaVuSans-2d" x="268.212891"/>
      <use xlink:href="#DejaVuSans-20" x="304.296875"/>
      <use xlink:href="#DejaVuSans-41" x="336.083984"/>
      <use xlink:href="#DejaVuSans-76" x="398.617188"/>
      <use xlink:href="#DejaVuSans-65" x="457.796875"/>
      <use xlink:href="#DejaVuSans-72" x="519.320312"/>
      <use xlink:href="#DejaVuSans-61" x="560.433594"/>
      <use xlink:href="#DejaVuSans-67" x="621.712891"/>
      <use xlink:href="#DejaVuSans-65" x="685.189453"/>
      <use xlink:href="#DejaVuSans-20" x="746.712891"/>
      <use xlink:href="#DejaVuSans-52" x="778.5"/>
      <use xlink:href="#DejaVuSans-65" x="843.482422"/>
      <use xlink:href="#DejaVuSans-77" x="905.005859"/>
      <use xlink:href="#DejaVuSans-61" x="986.792969"/>
      <use xlink:href="#DejaVuSans-72" x="1048.072266"/>
      <use xlink:href="#DejaVuSans-64" x="1087.435547"/>
     </g>
    </g>
    <g id="line2d_33">
     <path d="M 539.69375 331.425937 
L 549.69375 331.425937 
L 559.69375 331.425937 
" style="fill: none; stroke: #2ca02c; stroke-width: 1.5; stroke-linecap: square"/>
    </g>
    <g id="text_18">
     <!-- bat - Average Reward -->
     <g transform="translate(567.69375 334.925937) scale(0.1 -0.1)">
      <use xlink:href="#DejaVuSans-62"/>
      <use xlink:href="#DejaVuSans-61" x="63.476562"/>
      <use xlink:href="#DejaVuSans-74" x="124.755859"/>
      <use xlink:href="#DejaVuSans-20" x="163.964844"/>
      <use xlink:href="#DejaVuSans-2d" x="195.751953"/>
      <use xlink:href="#DejaVuSans-20" x="231.835938"/>
      <use xlink:href="#DejaVuSans-41" x="263.623047"/>
      <use xlink:href="#DejaVuSans-76" x="326.15625"/>
      <use xlink:href="#DejaVuSans-65" x="385.335938"/>
      <use xlink:href="#DejaVuSans-72" x="446.859375"/>
      <use xlink:href="#DejaVuSans-61" x="487.972656"/>
      <use xlink:href="#DejaVuSans-67" x="549.251953"/>
      <use xlink:href="#DejaVuSans-65" x="612.728516"/>
      <use xlink:href="#DejaVuSans-20" x="674.251953"/>
      <use xlink:href="#DejaVuSans-52" x="706.039062"/>
      <use xlink:href="#DejaVuSans-65" x="771.021484"/>
      <use xlink:href="#DejaVuSans-77" x="832.544922"/>
      <use xlink:href="#DejaVuSans-61" x="914.332031"/>
      <use xlink:href="#DejaVuSans-72" x="975.611328"/>
      <use xlink:href="#DejaVuSans-64" x="1014.974609"/>
     </g>
    </g>
    <g id="line2d_34">
     <path d="M 539.69375 346.104062 
L 549.69375 346.104062 
L 559.69375 346.104062 
" style="fill: none; stroke: #d62728; stroke-width: 1.5; stroke-linecap: square"/>
    </g>
    <g id="text_19">
     <!-- grid - Average Reward -->
     <g transform="translate(567.69375 349.604062) scale(0.1 -0.1)">
      <use xlink:href="#DejaVuSans-67"/>
      <use xlink:href="#DejaVuSans-72" x="63.476562"/>
      <use xlink:href="#DejaVuSans-69" x="104.589844"/>
      <use xlink:href="#DejaVuSans-64" x="132.373047"/>
      <use xlink:href="#DejaVuSans-20" x="195.849609"/>
      <use xlink:href="#DejaVuSans-2d" x="227.636719"/>
      <use xlink:href="#DejaVuSans-20" x="263.720703"/>
      <use xlink:href="#DejaVuSans-41" x="295.507812"/>
      <use xlink:href="#DejaVuSans-76" x="358.041016"/>
      <use xlink:href="#DejaVuSans-65" x="417.220703"/>
      <use xlink:href="#DejaVuSans-72" x="478.744141"/>
      <use xlink:href="#DejaVuSans-61" x="519.857422"/>
      <use xlink:href="#DejaVuSans-67" x="581.136719"/>
      <use xlink:href="#DejaVuSans-65" x="644.613281"/>
      <use xlink:href="#DejaVuSans-20" x="706.136719"/>
      <use xlink:href="#DejaVuSans-52" x="737.923828"/>
      <use xlink:href="#DejaVuSans-65" x="802.90625"/>
      <use xlink:href="#DejaVuSans-77" x="864.429688"/>
      <use xlink:href="#DejaVuSans-61" x="946.216797"/>
      <use xlink:href="#DejaVuSans-72" x="1007.496094"/>
      <use xlink:href="#DejaVuSans-64" x="1046.859375"/>
     </g>
    </g>
    <g id="line2d_35">
     <path d="M 539.69375 360.782187 
L 549.69375 360.782187 
L 559.69375 360.782187 
" style="fill: none; stroke: #9467bd; stroke-width: 1.5; stroke-linecap: square"/>
    </g>
    <g id="text_20">
     <!-- demand - Average Reward -->
     <g transform="translate(567.69375 364.282187) scale(0.1 -0.1)">
      <defs>
       <path id="DejaVuSans-6d" d="M 3328 2828 
Q 3544 3216 3844 3400 
Q 4144 3584 4550 3584 
Q 5097 3584 5394 3201 
Q 5691 2819 5691 2113 
L 5691 0 
L 5113 0 
L 5113 2094 
Q 5113 2597 4934 2840 
Q 4756 3084 4391 3084 
Q 3944 3084 3684 2787 
Q 3425 2491 3425 1978 
L 3425 0 
L 2847 0 
L 2847 2094 
Q 2847 2600 2669 2842 
Q 2491 3084 2119 3084 
Q 1678 3084 1418 2786 
Q 1159 2488 1159 1978 
L 1159 0 
L 581 0 
L 581 3500 
L 1159 3500 
L 1159 2956 
Q 1356 3278 1631 3431 
Q 1906 3584 2284 3584 
Q 2666 3584 2933 3390 
Q 3200 3197 3328 2828 
z
" transform="scale(0.015625)"/>
      </defs>
      <use xlink:href="#DejaVuSans-64"/>
      <use xlink:href="#DejaVuSans-65" x="63.476562"/>
      <use xlink:href="#DejaVuSans-6d" x="125"/>
      <use xlink:href="#DejaVuSans-61" x="222.412109"/>
      <use xlink:href="#DejaVuSans-6e" x="283.691406"/>
      <use xlink:href="#DejaVuSans-64" x="347.070312"/>
      <use xlink:href="#DejaVuSans-20" x="410.546875"/>
      <use xlink:href="#DejaVuSans-2d" x="442.333984"/>
      <use xlink:href="#DejaVuSans-20" x="478.417969"/>
      <use xlink:href="#DejaVuSans-41" x="510.205078"/>
      <use xlink:href="#DejaVuSans-76" x="572.738281"/>
      <use xlink:href="#DejaVuSans-65" x="631.917969"/>
      <use xlink:href="#DejaVuSans-72" x="693.441406"/>
      <use xlink:href="#DejaVuSans-61" x="734.554688"/>
      <use xlink:href="#DejaVuSans-67" x="795.833984"/>
      <use xlink:href="#DejaVuSans-65" x="859.310547"/>
      <use xlink:href="#DejaVuSans-20" x="920.833984"/>
      <use xlink:href="#DejaVuSans-52" x="952.621094"/>
      <use xlink:href="#DejaVuSans-65" x="1017.603516"/>
      <use xlink:href="#DejaVuSans-77" x="1079.126953"/>
      <use xlink:href="#DejaVuSans-61" x="1160.914062"/>
      <use xlink:href="#DejaVuSans-72" x="1222.193359"/>
      <use xlink:href="#DejaVuSans-64" x="1261.556641"/>
     </g>
    </g>
    <g id="line2d_36">
     <path d="M 539.69375 375.460312 
L 549.69375 375.460312 
L 559.69375 375.460312 
" style="fill: none; stroke: #8c564b; stroke-width: 1.5; stroke-linecap: square"/>
    </g>
    <g id="text_21">
     <!-- nan - Average Reward -->
     <g transform="translate(567.69375 378.960312) scale(0.1 -0.1)">
      <use xlink:href="#DejaVuSans-6e"/>
      <use xlink:href="#DejaVuSans-61" x="63.378906"/>
      <use xlink:href="#DejaVuSans-6e" x="124.658203"/>
      <use xlink:href="#DejaVuSans-20" x="188.037109"/>
      <use xlink:href="#DejaVuSans-2d" x="219.824219"/>
      <use xlink:href="#DejaVuSans-20" x="255.908203"/>
      <use xlink:href="#DejaVuSans-41" x="287.695312"/>
      <use xlink:href="#DejaVuSans-76" x="350.228516"/>
      <use xlink:href="#DejaVuSans-65" x="409.408203"/>
      <use xlink:href="#DejaVuSans-72" x="470.931641"/>
      <use xlink:href="#DejaVuSans-61" x="512.044922"/>
      <use xlink:href="#DejaVuSans-67" x="573.324219"/>
      <use xlink:href="#DejaVuSans-65" x="636.800781"/>
      <use xlink:href="#DejaVuSans-20" x="698.324219"/>
      <use xlink:href="#DejaVuSans-52" x="730.111328"/>
      <use xlink:href="#DejaVuSans-65" x="795.09375"/>
      <use xlink:href="#DejaVuSans-77" x="856.617188"/>
      <use xlink:href="#DejaVuSans-61" x="938.404297"/>
      <use xlink:href="#DejaVuSans-72" x="999.683594"/>
      <use xlink:href="#DejaVuSans-64" x="1039.046875"/>
     </g>
    </g>
   </g>
  </g>
 </g>
 <defs>
  <clipPath id="pf5fb7379ba">
   <rect x="53.03" y="25.44" width="656.17" height="364.6"/>
  </clipPath>
 </defs>
</svg>
