<?xml version="1.0" encoding="utf-8" standalone="no"?>
<!DOCTYPE svg PUBLIC "-//W3C//DTD SVG 1.1//EN"
  "http://www.w3.org/Graphics/SVG/1.1/DTD/svg11.dtd">
<svg xmlns:xlink="http://www.w3.org/1999/xlink" width="720pt" height="432pt" viewBox="0 0 720 432" xmlns="http://www.w3.org/2000/svg" version="1.1">
 <metadata>
  <rdf:RDF xmlns:dc="http://purl.org/dc/elements/1.1/" xmlns:cc="http://creativecommons.org/ns#" xmlns:rdf="http://www.w3.org/1999/02/22-rdf-syntax-ns#">
   <cc:Work>
    <dc:type rdf:resource="http://purl.org/dc/dcmitype/StillImage"/>
    <dc:date>2025-07-22T22:46:10.253952</dc:date>
    <dc:format>image/svg+xml</dc:format>
    <dc:creator>
     <cc:Agent>
      <dc:title>Matplotlib v3.8.0, https://matplotlib.org/</dc:title>
     </cc:Agent>
    </dc:creator>
   </cc:Work>
  </rdf:RDF>
 </metadata>
 <defs>
  <style type="text/css">*{stroke-linejoin: round; stroke-linecap: butt}</style>
 </defs>
 <g id="figure_1">
  <g id="patch_1">
   <path d="M 0 432 
L 720 432 
L 720 0 
L 0 0 
z
" style="fill: #ffffff"/>
  </g>
  <g id="axes_1">
   <g id="patch_2">
    <path d="M 53.03 390.04 
L 709.2 390.04 
L 709.2 25.44 
L 53.03 25.44 
z
" style="fill: #ffffff"/>
   </g>
   <g id="matplotlib.axis_1">
    <g id="xtick_1">
     <g id="line2d_1">
      <path d="M 82.855909 390.04 
L 82.855909 25.44 
" clip-path="url(#pcc0e05b769)" style="fill: none; stroke: #b0b0b0; stroke-width: 0.8; stroke-linecap: square"/>
     </g>
     <g id="line2d_2">
      <defs>
       <path id="m3dadeae414" d="M 0 0 
L 0 3.5 
" style="stroke: #000000; stroke-width: 0.8"/>
      </defs>
      <g>
       <use xlink:href="#m3dadeae414" x="82.855909" y="390.04" style="stroke: #000000; stroke-width: 0.8"/>
      </g>
     </g>
     <g id="text_1">
      <!-- 0 -->
      <g transform="translate(79.674659 404.638438) scale(0.1 -0.1)">
       <defs>
        <path id="DejaVuSans-30" d="M 2034 4250 
Q 1547 4250 1301 3770 
Q 1056 3291 1056 2328 
Q 1056 1369 1301 889 
Q 1547 409 2034 409 
Q 2525 409 2770 889 
Q 3016 1369 3016 2328 
Q 3016 3291 2770 3770 
Q 2525 4250 2034 4250 
z
M 2034 4750 
Q 2819 4750 3233 4129 
Q 3647 3509 3647 2328 
Q 3647 1150 3233 529 
Q 2819 -91 2034 -91 
Q 1250 -91 836 529 
Q 422 1150 422 2328 
Q 422 3509 836 4129 
Q 1250 4750 2034 4750 
z
" transform="scale(0.015625)"/>
       </defs>
       <use xlink:href="#DejaVuSans-30"/>
      </g>
     </g>
    </g>
    <g id="xtick_2">
     <g id="line2d_3">
      <path d="M 182.608113 390.04 
L 182.608113 25.44 
" clip-path="url(#pcc0e05b769)" style="fill: none; stroke: #b0b0b0; stroke-width: 0.8; stroke-linecap: square"/>
     </g>
     <g id="line2d_4">
      <g>
       <use xlink:href="#m3dadeae414" x="182.608113" y="390.04" style="stroke: #000000; stroke-width: 0.8"/>
      </g>
     </g>
     <g id="text_2">
      <!-- 50 -->
      <g transform="translate(176.245613 404.638438) scale(0.1 -0.1)">
       <defs>
        <path id="DejaVuSans-35" d="M 691 4666 
L 3169 4666 
L 3169 4134 
L 1269 4134 
L 1269 2991 
Q 1406 3038 1543 3061 
Q 1681 3084 1819 3084 
Q 2600 3084 3056 2656 
Q 3513 2228 3513 1497 
Q 3513 744 3044 326 
Q 2575 -91 1722 -91 
Q 1428 -91 1123 -41 
Q 819 9 494 109 
L 494 744 
Q 775 591 1075 516 
Q 1375 441 1709 441 
Q 2250 441 2565 725 
Q 2881 1009 2881 1497 
Q 2881 1984 2565 2268 
Q 2250 2553 1709 2553 
Q 1456 2553 1204 2497 
Q 953 2441 691 2322 
L 691 4666 
z
" transform="scale(0.015625)"/>
       </defs>
       <use xlink:href="#DejaVuSans-35"/>
       <use xlink:href="#DejaVuSans-30" x="63.623047"/>
      </g>
     </g>
    </g>
    <g id="xtick_3">
     <g id="line2d_5">
      <path d="M 282.360318 390.04 
L 282.360318 25.44 
" clip-path="url(#pcc0e05b769)" style="fill: none; stroke: #b0b0b0; stroke-width: 0.8; stroke-linecap: square"/>
     </g>
     <g id="line2d_6">
      <g>
       <use xlink:href="#m3dadeae414" x="282.360318" y="390.04" style="stroke: #000000; stroke-width: 0.8"/>
      </g>
     </g>
     <g id="text_3">
      <!-- 100 -->
      <g transform="translate(272.816568 404.638438) scale(0.1 -0.1)">
       <defs>
        <path id="DejaVuSans-31" d="M 794 531 
L 1825 531 
L 1825 4091 
L 703 3866 
L 703 4441 
L 1819 4666 
L 2450 4666 
L 2450 531 
L 3481 531 
L 3481 0 
L 794 0 
L 794 531 
z
" transform="scale(0.015625)"/>
       </defs>
       <use xlink:href="#DejaVuSans-31"/>
       <use xlink:href="#DejaVuSans-30" x="63.623047"/>
       <use xlink:href="#DejaVuSans-30" x="127.246094"/>
      </g>
     </g>
    </g>
    <g id="xtick_4">
     <g id="line2d_7">
      <path d="M 382.112522 390.04 
L 382.112522 25.44 
" clip-path="url(#pcc0e05b769)" style="fill: none; stroke: #b0b0b0; stroke-width: 0.8; stroke-linecap: square"/>
     </g>
     <g id="line2d_8">
      <g>
       <use xlink:href="#m3dadeae414" x="382.112522" y="390.04" style="stroke: #000000; stroke-width: 0.8"/>
      </g>
     </g>
     <g id="text_4">
      <!-- 150 -->
      <g transform="translate(372.568772 404.638438) scale(0.1 -0.1)">
       <use xlink:href="#DejaVuSans-31"/>
       <use xlink:href="#DejaVuSans-35" x="63.623047"/>
       <use xlink:href="#DejaVuSans-30" x="127.246094"/>
      </g>
     </g>
    </g>
    <g id="xtick_5">
     <g id="line2d_9">
      <path d="M 481.864726 390.04 
L 481.864726 25.44 
" clip-path="url(#pcc0e05b769)" style="fill: none; stroke: #b0b0b0; stroke-width: 0.8; stroke-linecap: square"/>
     </g>
     <g id="line2d_10">
      <g>
       <use xlink:href="#m3dadeae414" x="481.864726" y="390.04" style="stroke: #000000; stroke-width: 0.8"/>
      </g>
     </g>
     <g id="text_5">
      <!-- 200 -->
      <g transform="translate(472.320976 404.638438) scale(0.1 -0.1)">
       <defs>
        <path id="DejaVuSans-32" d="M 1228 531 
L 3431 531 
L 3431 0 
L 469 0 
L 469 531 
Q 828 903 1448 1529 
Q 2069 2156 2228 2338 
Q 2531 2678 2651 2914 
Q 2772 3150 2772 3378 
Q 2772 3750 2511 3984 
Q 2250 4219 1831 4219 
Q 1534 4219 1204 4116 
Q 875 4013 500 3803 
L 500 4441 
Q 881 4594 1212 4672 
Q 1544 4750 1819 4750 
Q 2544 4750 2975 4387 
Q 3406 4025 3406 3419 
Q 3406 3131 3298 2873 
Q 3191 2616 2906 2266 
Q 2828 2175 2409 1742 
Q 1991 1309 1228 531 
z
" transform="scale(0.015625)"/>
       </defs>
       <use xlink:href="#DejaVuSans-32"/>
       <use xlink:href="#DejaVuSans-30" x="63.623047"/>
       <use xlink:href="#DejaVuSans-30" x="127.246094"/>
      </g>
     </g>
    </g>
    <g id="xtick_6">
     <g id="line2d_11">
      <path d="M 581.616931 390.04 
L 581.616931 25.44 
" clip-path="url(#pcc0e05b769)" style="fill: none; stroke: #b0b0b0; stroke-width: 0.8; stroke-linecap: square"/>
     </g>
     <g id="line2d_12">
      <g>
       <use xlink:href="#m3dadeae414" x="581.616931" y="390.04" style="stroke: #000000; stroke-width: 0.8"/>
      </g>
     </g>
     <g id="text_6">
      <!-- 250 -->
      <g transform="translate(572.073181 404.638438) scale(0.1 -0.1)">
       <use xlink:href="#DejaVuSans-32"/>
       <use xlink:href="#DejaVuSans-35" x="63.623047"/>
       <use xlink:href="#DejaVuSans-30" x="127.246094"/>
      </g>
     </g>
    </g>
    <g id="xtick_7">
     <g id="line2d_13">
      <path d="M 681.369135 390.04 
L 681.369135 25.44 
" clip-path="url(#pcc0e05b769)" style="fill: none; stroke: #b0b0b0; stroke-width: 0.8; stroke-linecap: square"/>
     </g>
     <g id="line2d_14">
      <g>
       <use xlink:href="#m3dadeae414" x="681.369135" y="390.04" style="stroke: #000000; stroke-width: 0.8"/>
      </g>
     </g>
     <g id="text_7">
      <!-- 300 -->
      <g transform="translate(671.825385 404.638438) scale(0.1 -0.1)">
       <defs>
        <path id="DejaVuSans-33" d="M 2597 2516 
Q 3050 2419 3304 2112 
Q 3559 1806 3559 1356 
Q 3559 666 3084 287 
Q 2609 -91 1734 -91 
Q 1441 -91 1130 -33 
Q 819 25 488 141 
L 488 750 
Q 750 597 1062 519 
Q 1375 441 1716 441 
Q 2309 441 2620 675 
Q 2931 909 2931 1356 
Q 2931 1769 2642 2001 
Q 2353 2234 1838 2234 
L 1294 2234 
L 1294 2753 
L 1863 2753 
Q 2328 2753 2575 2939 
Q 2822 3125 2822 3475 
Q 2822 3834 2567 4026 
Q 2313 4219 1838 4219 
Q 1578 4219 1281 4162 
Q 984 4106 628 3988 
L 628 4550 
Q 988 4650 1302 4700 
Q 1616 4750 1894 4750 
Q 2613 4750 3031 4423 
Q 3450 4097 3450 3541 
Q 3450 3153 3228 2886 
Q 3006 2619 2597 2516 
z
" transform="scale(0.015625)"/>
       </defs>
       <use xlink:href="#DejaVuSans-33"/>
       <use xlink:href="#DejaVuSans-30" x="63.623047"/>
       <use xlink:href="#DejaVuSans-30" x="127.246094"/>
      </g>
     </g>
    </g>
    <g id="text_8">
     <!-- Episode -->
     <g transform="translate(361.4775 418.316562) scale(0.1 -0.1)">
      <defs>
       <path id="DejaVuSans-45" d="M 628 4666 
L 3578 4666 
L 3578 4134 
L 1259 4134 
L 1259 2753 
L 3481 2753 
L 3481 2222 
L 1259 2222 
L 1259 531 
L 3634 531 
L 3634 0 
L 628 0 
L 628 4666 
z
" transform="scale(0.015625)"/>
       <path id="DejaVuSans-70" d="M 1159 525 
L 1159 -1331 
L 581 -1331 
L 581 3500 
L 1159 3500 
L 1159 2969 
Q 1341 3281 1617 3432 
Q 1894 3584 2278 3584 
Q 2916 3584 3314 3078 
Q 3713 2572 3713 1747 
Q 3713 922 3314 415 
Q 2916 -91 2278 -91 
Q 1894 -91 1617 61 
Q 1341 213 1159 525 
z
M 3116 1747 
Q 3116 2381 2855 2742 
Q 2594 3103 2138 3103 
Q 1681 3103 1420 2742 
Q 1159 2381 1159 1747 
Q 1159 1113 1420 752 
Q 1681 391 2138 391 
Q 2594 391 2855 752 
Q 3116 1113 3116 1747 
z
" transform="scale(0.015625)"/>
       <path id="DejaVuSans-69" d="M 603 3500 
L 1178 3500 
L 1178 0 
L 603 0 
L 603 3500 
z
M 603 4863 
L 1178 4863 
L 1178 4134 
L 603 4134 
L 603 4863 
z
" transform="scale(0.015625)"/>
       <path id="DejaVuSans-73" d="M 2834 3397 
L 2834 2853 
Q 2591 2978 2328 3040 
Q 2066 3103 1784 3103 
Q 1356 3103 1142 2972 
Q 928 2841 928 2578 
Q 928 2378 1081 2264 
Q 1234 2150 1697 2047 
L 1894 2003 
Q 2506 1872 2764 1633 
Q 3022 1394 3022 966 
Q 3022 478 2636 193 
Q 2250 -91 1575 -91 
Q 1294 -91 989 -36 
Q 684 19 347 128 
L 347 722 
Q 666 556 975 473 
Q 1284 391 1588 391 
Q 1994 391 2212 530 
Q 2431 669 2431 922 
Q 2431 1156 2273 1281 
Q 2116 1406 1581 1522 
L 1381 1569 
Q 847 1681 609 1914 
Q 372 2147 372 2553 
Q 372 3047 722 3315 
Q 1072 3584 1716 3584 
Q 2034 3584 2315 3537 
Q 2597 3491 2834 3397 
z
" transform="scale(0.015625)"/>
       <path id="DejaVuSans-6f" d="M 1959 3097 
Q 1497 3097 1228 2736 
Q 959 2375 959 1747 
Q 959 1119 1226 758 
Q 1494 397 1959 397 
Q 2419 397 2687 759 
Q 2956 1122 2956 1747 
Q 2956 2369 2687 2733 
Q 2419 3097 1959 3097 
z
M 1959 3584 
Q 2709 3584 3137 3096 
Q 3566 2609 3566 1747 
Q 3566 888 3137 398 
Q 2709 -91 1959 -91 
Q 1206 -91 779 398 
Q 353 888 353 1747 
Q 353 2609 779 3096 
Q 1206 3584 1959 3584 
z
" transform="scale(0.015625)"/>
       <path id="DejaVuSans-64" d="M 2906 2969 
L 2906 4863 
L 3481 4863 
L 3481 0 
L 2906 0 
L 2906 525 
Q 2725 213 2448 61 
Q 2172 -91 1784 -91 
Q 1150 -91 751 415 
Q 353 922 353 1747 
Q 353 2572 751 3078 
Q 1150 3584 1784 3584 
Q 2172 3584 2448 3432 
Q 2725 3281 2906 2969 
z
M 947 1747 
Q 947 1113 1208 752 
Q 1469 391 1925 391 
Q 2381 391 2643 752 
Q 2906 1113 2906 1747 
Q 2906 2381 2643 2742 
Q 2381 3103 1925 3103 
Q 1469 3103 1208 2742 
Q 947 2381 947 1747 
z
" transform="scale(0.015625)"/>
       <path id="DejaVuSans-65" d="M 3597 1894 
L 3597 1613 
L 953 1613 
Q 991 1019 1311 708 
Q 1631 397 2203 397 
Q 2534 397 2845 478 
Q 3156 559 3463 722 
L 3463 178 
Q 3153 47 2828 -22 
Q 2503 -91 2169 -91 
Q 1331 -91 842 396 
Q 353 884 353 1716 
Q 353 2575 817 3079 
Q 1281 3584 2069 3584 
Q 2775 3584 3186 3129 
Q 3597 2675 3597 1894 
z
M 3022 2063 
Q 3016 2534 2758 2815 
Q 2500 3097 2075 3097 
Q 1594 3097 1305 2825 
Q 1016 2553 972 2059 
L 3022 2063 
z
" transform="scale(0.015625)"/>
      </defs>
      <use xlink:href="#DejaVuSans-45"/>
      <use xlink:href="#DejaVuSans-70" x="63.183594"/>
      <use xlink:href="#DejaVuSans-69" x="126.660156"/>
      <use xlink:href="#DejaVuSans-73" x="154.443359"/>
      <use xlink:href="#DejaVuSans-6f" x="206.542969"/>
      <use xlink:href="#DejaVuSans-64" x="267.724609"/>
      <use xlink:href="#DejaVuSans-65" x="331.201172"/>
     </g>
    </g>
   </g>
   <g id="matplotlib.axis_2">
    <g id="ytick_1">
     <g id="line2d_15">
      <path d="M 53.03 348.045112 
L 709.2 348.045112 
" clip-path="url(#pcc0e05b769)" style="fill: none; stroke: #b0b0b0; stroke-width: 0.8; stroke-linecap: square"/>
     </g>
     <g id="line2d_16">
      <defs>
       <path id="mbdae7d395f" d="M 0 0 
L -3.5 0 
" style="stroke: #000000; stroke-width: 0.8"/>
      </defs>
      <g>
       <use xlink:href="#mbdae7d395f" x="53.03" y="348.045112" style="stroke: #000000; stroke-width: 0.8"/>
      </g>
     </g>
     <g id="text_9">
      <!-- −20 -->
      <g transform="translate(24.925313 351.844331) scale(0.1 -0.1)">
       <defs>
        <path id="DejaVuSans-2212" d="M 678 2272 
L 4684 2272 
L 4684 1741 
L 678 1741 
L 678 2272 
z
" transform="scale(0.015625)"/>
       </defs>
       <use xlink:href="#DejaVuSans-2212"/>
       <use xlink:href="#DejaVuSans-32" x="83.789062"/>
       <use xlink:href="#DejaVuSans-30" x="147.412109"/>
      </g>
     </g>
    </g>
    <g id="ytick_2">
     <g id="line2d_17">
      <path d="M 53.03 272.247617 
L 709.2 272.247617 
" clip-path="url(#pcc0e05b769)" style="fill: none; stroke: #b0b0b0; stroke-width: 0.8; stroke-linecap: square"/>
     </g>
     <g id="line2d_18">
      <g>
       <use xlink:href="#mbdae7d395f" x="53.03" y="272.247617" style="stroke: #000000; stroke-width: 0.8"/>
      </g>
     </g>
     <g id="text_10">
      <!-- 0 -->
      <g transform="translate(39.6675 276.046836) scale(0.1 -0.1)">
       <use xlink:href="#DejaVuSans-30"/>
      </g>
     </g>
    </g>
    <g id="ytick_3">
     <g id="line2d_19">
      <path d="M 53.03 196.450123 
L 709.2 196.450123 
" clip-path="url(#pcc0e05b769)" style="fill: none; stroke: #b0b0b0; stroke-width: 0.8; stroke-linecap: square"/>
     </g>
     <g id="line2d_20">
      <g>
       <use xlink:href="#mbdae7d395f" x="53.03" y="196.450123" style="stroke: #000000; stroke-width: 0.8"/>
      </g>
     </g>
     <g id="text_11">
      <!-- 20 -->
      <g transform="translate(33.305 200.249341) scale(0.1 -0.1)">
       <use xlink:href="#DejaVuSans-32"/>
       <use xlink:href="#DejaVuSans-30" x="63.623047"/>
      </g>
     </g>
    </g>
    <g id="ytick_4">
     <g id="line2d_21">
      <path d="M 53.03 120.652628 
L 709.2 120.652628 
" clip-path="url(#pcc0e05b769)" style="fill: none; stroke: #b0b0b0; stroke-width: 0.8; stroke-linecap: square"/>
     </g>
     <g id="line2d_22">
      <g>
       <use xlink:href="#mbdae7d395f" x="53.03" y="120.652628" style="stroke: #000000; stroke-width: 0.8"/>
      </g>
     </g>
     <g id="text_12">
      <!-- 40 -->
      <g transform="translate(33.305 124.451847) scale(0.1 -0.1)">
       <defs>
        <path id="DejaVuSans-34" d="M 2419 4116 
L 825 1625 
L 2419 1625 
L 2419 4116 
z
M 2253 4666 
L 3047 4666 
L 3047 1625 
L 3713 1625 
L 3713 1100 
L 3047 1100 
L 3047 0 
L 2419 0 
L 2419 1100 
L 313 1100 
L 313 1709 
L 2253 4666 
z
" transform="scale(0.015625)"/>
       </defs>
       <use xlink:href="#DejaVuSans-34"/>
       <use xlink:href="#DejaVuSans-30" x="63.623047"/>
      </g>
     </g>
    </g>
    <g id="ytick_5">
     <g id="line2d_23">
      <path d="M 53.03 44.855133 
L 709.2 44.855133 
" clip-path="url(#pcc0e05b769)" style="fill: none; stroke: #b0b0b0; stroke-width: 0.8; stroke-linecap: square"/>
     </g>
     <g id="line2d_24">
      <g>
       <use xlink:href="#mbdae7d395f" x="53.03" y="44.855133" style="stroke: #000000; stroke-width: 0.8"/>
      </g>
     </g>
     <g id="text_13">
      <!-- 60 -->
      <g transform="translate(33.305 48.654352) scale(0.1 -0.1)">
       <defs>
        <path id="DejaVuSans-36" d="M 2113 2584 
Q 1688 2584 1439 2293 
Q 1191 2003 1191 1497 
Q 1191 994 1439 701 
Q 1688 409 2113 409 
Q 2538 409 2786 701 
Q 3034 994 3034 1497 
Q 3034 2003 2786 2293 
Q 2538 2584 2113 2584 
z
M 3366 4563 
L 3366 3988 
Q 3128 4100 2886 4159 
Q 2644 4219 2406 4219 
Q 1781 4219 1451 3797 
Q 1122 3375 1075 2522 
Q 1259 2794 1537 2939 
Q 1816 3084 2150 3084 
Q 2853 3084 3261 2657 
Q 3669 2231 3669 1497 
Q 3669 778 3244 343 
Q 2819 -91 2113 -91 
Q 1303 -91 875 529 
Q 447 1150 447 2328 
Q 447 3434 972 4092 
Q 1497 4750 2381 4750 
Q 2619 4750 2861 4703 
Q 3103 4656 3366 4563 
z
" transform="scale(0.015625)"/>
       </defs>
       <use xlink:href="#DejaVuSans-36"/>
       <use xlink:href="#DejaVuSans-30" x="63.623047"/>
      </g>
     </g>
    </g>
    <g id="text_14">
     <!-- Average Reward -->
     <g transform="translate(18.845625 248.482969) rotate(-90) scale(0.1 -0.1)">
      <defs>
       <path id="DejaVuSans-41" d="M 2188 4044 
L 1331 1722 
L 3047 1722 
L 2188 4044 
z
M 1831 4666 
L 2547 4666 
L 4325 0 
L 3669 0 
L 3244 1197 
L 1141 1197 
L 716 0 
L 50 0 
L 1831 4666 
z
" transform="scale(0.015625)"/>
       <path id="DejaVuSans-76" d="M 191 3500 
L 800 3500 
L 1894 563 
L 2988 3500 
L 3597 3500 
L 2284 0 
L 1503 0 
L 191 3500 
z
" transform="scale(0.015625)"/>
       <path id="DejaVuSans-72" d="M 2631 2963 
Q 2534 3019 2420 3045 
Q 2306 3072 2169 3072 
Q 1681 3072 1420 2755 
Q 1159 2438 1159 1844 
L 1159 0 
L 581 0 
L 581 3500 
L 1159 3500 
L 1159 2956 
Q 1341 3275 1631 3429 
Q 1922 3584 2338 3584 
Q 2397 3584 2469 3576 
Q 2541 3569 2628 3553 
L 2631 2963 
z
" transform="scale(0.015625)"/>
       <path id="DejaVuSans-61" d="M 2194 1759 
Q 1497 1759 1228 1600 
Q 959 1441 959 1056 
Q 959 750 1161 570 
Q 1363 391 1709 391 
Q 2188 391 2477 730 
Q 2766 1069 2766 1631 
L 2766 1759 
L 2194 1759 
z
M 3341 1997 
L 3341 0 
L 2766 0 
L 2766 531 
Q 2569 213 2275 61 
Q 1981 -91 1556 -91 
Q 1019 -91 701 211 
Q 384 513 384 1019 
Q 384 1609 779 1909 
Q 1175 2209 1959 2209 
L 2766 2209 
L 2766 2266 
Q 2766 2663 2505 2880 
Q 2244 3097 1772 3097 
Q 1472 3097 1187 3025 
Q 903 2953 641 2809 
L 641 3341 
Q 956 3463 1253 3523 
Q 1550 3584 1831 3584 
Q 2591 3584 2966 3190 
Q 3341 2797 3341 1997 
z
" transform="scale(0.015625)"/>
       <path id="DejaVuSans-67" d="M 2906 1791 
Q 2906 2416 2648 2759 
Q 2391 3103 1925 3103 
Q 1463 3103 1205 2759 
Q 947 2416 947 1791 
Q 947 1169 1205 825 
Q 1463 481 1925 481 
Q 2391 481 2648 825 
Q 2906 1169 2906 1791 
z
M 3481 434 
Q 3481 -459 3084 -895 
Q 2688 -1331 1869 -1331 
Q 1566 -1331 1297 -1286 
Q 1028 -1241 775 -1147 
L 775 -588 
Q 1028 -725 1275 -790 
Q 1522 -856 1778 -856 
Q 2344 -856 2625 -561 
Q 2906 -266 2906 331 
L 2906 616 
Q 2728 306 2450 153 
Q 2172 0 1784 0 
Q 1141 0 747 490 
Q 353 981 353 1791 
Q 353 2603 747 3093 
Q 1141 3584 1784 3584 
Q 2172 3584 2450 3431 
Q 2728 3278 2906 2969 
L 2906 3500 
L 3481 3500 
L 3481 434 
z
" transform="scale(0.015625)"/>
       <path id="DejaVuSans-20" transform="scale(0.015625)"/>
       <path id="DejaVuSans-52" d="M 2841 2188 
Q 3044 2119 3236 1894 
Q 3428 1669 3622 1275 
L 4263 0 
L 3584 0 
L 2988 1197 
Q 2756 1666 2539 1819 
Q 2322 1972 1947 1972 
L 1259 1972 
L 1259 0 
L 628 0 
L 628 4666 
L 2053 4666 
Q 2853 4666 3247 4331 
Q 3641 3997 3641 3322 
Q 3641 2881 3436 2590 
Q 3231 2300 2841 2188 
z
M 1259 4147 
L 1259 2491 
L 2053 2491 
Q 2509 2491 2742 2702 
Q 2975 2913 2975 3322 
Q 2975 3731 2742 3939 
Q 2509 4147 2053 4147 
L 1259 4147 
z
" transform="scale(0.015625)"/>
       <path id="DejaVuSans-77" d="M 269 3500 
L 844 3500 
L 1563 769 
L 2278 3500 
L 2956 3500 
L 3675 769 
L 4391 3500 
L 4966 3500 
L 4050 0 
L 3372 0 
L 2619 2869 
L 1863 0 
L 1184 0 
L 269 3500 
z
" transform="scale(0.015625)"/>
      </defs>
      <use xlink:href="#DejaVuSans-41"/>
      <use xlink:href="#DejaVuSans-76" x="62.533203"/>
      <use xlink:href="#DejaVuSans-65" x="121.712891"/>
      <use xlink:href="#DejaVuSans-72" x="183.236328"/>
      <use xlink:href="#DejaVuSans-61" x="224.349609"/>
      <use xlink:href="#DejaVuSans-67" x="285.628906"/>
      <use xlink:href="#DejaVuSans-65" x="349.105469"/>
      <use xlink:href="#DejaVuSans-20" x="410.628906"/>
      <use xlink:href="#DejaVuSans-52" x="442.416016"/>
      <use xlink:href="#DejaVuSans-65" x="507.398438"/>
      <use xlink:href="#DejaVuSans-77" x="568.921875"/>
      <use xlink:href="#DejaVuSans-61" x="650.708984"/>
      <use xlink:href="#DejaVuSans-72" x="711.988281"/>
      <use xlink:href="#DejaVuSans-64" x="751.351562"/>
     </g>
    </g>
   </g>
   <g id="line2d_25">
    <path d="M 82.855909 259.211642 
L 84.850953 259.211642 
L 86.845997 261.318331 
L 88.841041 261.119976 
L 90.836085 261.520317 
L 92.83113 261.119976 
L 104.801394 261.119976 
L 106.796438 262.363715 
L 108.791482 261.119976 
L 110.786526 259.211642 
L 112.78157 261.119976 
L 116.771659 261.119976 
L 118.766703 261.318331 
L 120.761747 261.119976 
L 122.756791 261.119976 
L 124.751835 261.318331 
L 126.746879 261.119976 
L 132.732011 261.119976 
L 134.727055 262.304384 
L 136.722099 262.304384 
L 138.717144 261.318331 
L 140.712188 259.013286 
L 144.702276 263.627007 
L 146.69732 261.119976 
L 148.692364 262.304384 
L 150.687408 261.119976 
L 152.682452 259.211642 
L 154.677496 261.119976 
L 156.67254 261.318331 
L 158.667584 261.119976 
L 164.652717 261.119976 
L 166.647761 262.363715 
L 168.642805 261.119976 
L 172.632893 261.119976 
L 174.627937 262.072962 
L 176.622981 261.318331 
L 178.618025 261.119976 
L 180.613069 261.318331 
L 182.608113 261.119976 
L 184.603157 261.119976 
L 186.598202 259.013286 
L 188.593246 261.119976 
L 190.58829 263.627007 
L 192.583334 261.119976 
L 198.568466 261.119976 
L 200.56351 259.211642 
L 202.558554 261.119976 
L 206.548642 261.119976 
L 208.543687 262.304384 
L 210.538731 263.825362 
L 212.533775 261.119976 
L 224.504039 261.119976 
L 226.499083 261.520317 
L 228.494127 261.119976 
L 230.489171 261.119976 
L 232.484216 259.013286 
L 234.47926 261.119976 
L 236.474304 261.318331 
L 238.469348 261.119976 
L 242.459436 261.119976 
L 244.45448 259.211642 
L 246.449524 261.119976 
L 248.444568 262.072962 
L 250.439612 261.318331 
L 252.434656 261.119976 
L 256.424745 261.119976 
L 258.419789 263.825362 
L 260.414833 262.304384 
L 262.409877 261.119976 
L 266.399965 261.119976 
L 268.395009 262.304384 
L 270.390053 262.304384 
L 272.385097 261.119976 
L 274.380141 259.013286 
L 276.375185 261.119976 
L 298.32067 261.119976 
L 300.315715 259.013286 
L 302.310759 261.119976 
L 310.290935 261.119976 
L 312.285979 263.627007 
L 314.281023 261.119976 
L 316.276067 261.119976 
L 318.271111 261.718673 
L 320.266155 261.119976 
L 322.261199 261.318331 
L 324.256244 261.119976 
L 328.246332 261.119976 
L 330.241376 261.318331 
L 332.23642 261.119976 
L 338.221552 261.119976 
L 340.216596 263.825362 
L 342.21164 263.627007 
L 344.206684 261.119976 
L 352.186861 261.119976 
L 354.181905 261.520317 
L 356.176949 259.013286 
L 358.171993 259.211642 
L 360.167037 261.119976 
L 386.10261 261.119976 
L 388.097654 263.825362 
L 390.092698 261.318331 
L 392.087742 259.013286 
L 394.082787 262.363715 
L 396.077831 261.119976 
L 398.072875 261.119976 
L 400.067919 263.627007 
L 402.062963 261.119976 
L 404.058007 261.119976 
L 406.053051 261.318331 
L 408.048095 261.119976 
L 412.038183 261.119976 
L 414.033227 261.318331 
L 416.028272 261.119976 
L 418.023316 259.013286 
L 420.01836 261.119976 
L 422.013404 262.304384 
L 424.008448 261.119976 
L 426.003492 259.013286 
L 427.998536 261.119976 
L 429.99358 262.072962 
L 431.988624 259.013286 
L 433.983668 262.304384 
L 435.978712 259.013286 
L 437.973756 261.119976 
L 439.968801 263.825362 
L 441.963845 259.013286 
L 443.958889 261.119976 
L 453.934109 261.119976 
L 455.929153 261.318331 
L 457.924197 261.119976 
L 459.919241 261.318331 
L 461.914285 259.013286 
L 463.90933 261.119976 
L 475.879594 261.119976 
L 477.874638 259.013286 
L 479.869682 261.119976 
L 491.839947 261.119976 
L 493.834991 262.304384 
L 495.830035 261.119976 
L 497.825079 262.363715 
L 499.820123 259.013286 
L 501.815167 262.072962 
L 503.810211 261.119976 
L 505.805255 261.119976 
L 507.800299 259.013286 
L 509.795344 261.119976 
L 511.790388 261.520317 
L 513.785432 261.119976 
L 515.780476 262.363715 
L 517.77552 261.318331 
L 519.770564 261.119976 
L 525.755696 261.119976 
L 527.75074 259.013286 
L 529.745784 261.119976 
L 531.740829 263.627007 
L 533.735873 259.013286 
L 535.730917 261.119976 
L 537.725961 262.304384 
L 539.721005 261.119976 
L 541.716049 261.779086 
L 543.711093 261.119976 
L 545.706137 261.119976 
L 547.701181 262.304384 
L 549.696225 261.119976 
L 553.686313 261.119976 
L 555.681358 261.318331 
L 557.676402 261.119976 
L 579.621887 261.119976 
L 581.616931 262.072962 
L 583.611975 261.119976 
L 589.597107 261.119976 
L 591.592151 261.318331 
L 593.587195 261.119976 
L 597.577283 261.119976 
L 599.572327 262.363715 
L 601.567372 261.318331 
L 603.562416 261.119976 
L 605.55746 262.072962 
L 607.552504 261.119976 
L 615.53268 261.119976 
L 617.527724 261.318331 
L 619.522768 262.304384 
L 621.517812 261.119976 
L 625.507901 261.119976 
L 627.502945 262.304384 
L 629.497989 262.072962 
L 631.493033 261.119976 
L 637.478165 261.119976 
L 639.473209 262.072962 
L 641.468253 261.119976 
L 649.44843 261.119976 
L 651.443474 261.318331 
L 653.438518 261.119976 
L 665.408782 261.119976 
L 667.403826 261.779086 
L 669.39887 261.119976 
L 677.379047 261.119976 
L 679.374091 262.304384 
L 679.374091 262.304384 
" clip-path="url(#pcc0e05b769)" style="fill: none; stroke: #1f77b4; stroke-width: 1.5; stroke-linecap: square"/>
   </g>
   <g id="line2d_26">
    <path d="M 82.855909 176.204695 
L 84.850953 173.86592 
L 86.845997 176.483117 
L 88.841041 171.229498 
L 90.836085 174.149151 
L 92.83113 164.376282 
L 94.826174 164.376282 
L 96.821218 173.025046 
L 98.816262 169.900016 
L 100.811306 168.210374 
L 102.80635 164.376282 
L 104.801394 164.376282 
L 106.796438 171.397989 
L 108.791482 164.376282 
L 110.786526 180.545292 
L 112.78157 170.394311 
L 114.776614 164.376282 
L 118.766703 168.393688 
L 120.761747 166.769413 
L 122.756791 164.376282 
L 124.751835 171.830525 
L 126.746879 167.084308 
L 128.741923 170.394311 
L 130.736967 164.376282 
L 132.732011 164.376282 
L 134.727055 169.737363 
L 136.722099 169.737363 
L 138.717144 174.829899 
L 140.712188 169.425777 
L 142.707232 179.353808 
L 144.702276 172.299925 
L 146.69732 164.376282 
L 148.692364 169.737363 
L 150.687408 164.376282 
L 152.682452 181.727074 
L 154.677496 167.474449 
L 156.67254 174.081765 
L 158.667584 164.376282 
L 164.652717 164.376282 
L 166.647761 168.135159 
L 168.642805 164.376282 
L 172.632893 164.376282 
L 174.627937 169.81824 
L 176.622981 176.479974 
L 178.618025 167.919495 
L 182.608113 168.92895 
L 184.603157 164.376282 
L 186.598202 173.983631 
L 188.593246 164.376282 
L 190.58829 173.655362 
L 192.583334 164.376282 
L 194.578378 168.357915 
L 196.573422 167.474449 
L 198.568466 164.376282 
L 200.56351 179.898978 
L 202.558554 169.906719 
L 204.553598 164.403146 
L 206.548642 164.403146 
L 208.543687 177.231771 
L 210.538731 176.876666 
L 212.533775 166.661571 
L 214.528819 164.376282 
L 218.518907 164.376282 
L 220.513951 172.192007 
L 222.508995 164.376282 
L 224.504039 167.084308 
L 226.499083 172.9111 
L 228.494127 164.376282 
L 230.489171 164.376282 
L 232.484216 169.672618 
L 234.47926 164.376282 
L 236.474304 170.951482 
L 238.469348 164.376282 
L 240.464392 166.564192 
L 242.459436 170.248286 
L 244.45448 178.871717 
L 246.449524 166.769413 
L 248.444568 169.81824 
L 250.439612 169.699892 
L 252.434656 171.017662 
L 254.429701 167.760774 
L 256.424745 167.803776 
L 258.419789 172.58459 
L 260.414833 169.737363 
L 262.409877 164.376282 
L 264.404921 164.376282 
L 268.395009 171.39857 
L 270.390053 169.737363 
L 272.385097 164.376282 
L 274.380141 172.787035 
L 276.375185 164.376282 
L 278.37023 164.376282 
L 280.365274 167.692018 
L 282.360318 164.376282 
L 284.355362 165.778105 
L 286.350406 164.376282 
L 298.32067 164.376282 
L 300.315715 171.098004 
L 302.310759 164.376282 
L 304.305803 164.376282 
L 306.300847 169.217818 
L 308.295891 164.376282 
L 310.290935 166.727492 
L 312.285979 172.345954 
L 314.281023 164.376282 
L 316.276067 164.376282 
L 318.271111 183.358984 
L 320.266155 164.376282 
L 322.261199 168.558351 
L 324.256244 164.376282 
L 326.251288 167.822795 
L 328.246332 164.376282 
L 330.241376 170.978549 
L 332.23642 164.376282 
L 336.226508 164.376282 
L 338.221552 167.084308 
L 340.216596 176.407482 
L 342.21164 171.321637 
L 346.201728 164.376282 
L 352.186861 164.376282 
L 354.181905 173.384153 
L 356.176949 169.398914 
L 358.171993 177.094864 
L 360.167037 168.108625 
L 362.162081 169.662359 
L 364.157125 164.376282 
L 366.152169 164.376282 
L 368.147213 166.769413 
L 370.142258 164.376282 
L 376.12739 164.376282 
L 378.122434 167.474449 
L 380.117478 168.780653 
L 382.112522 168.849408 
L 384.107566 164.376282 
L 386.10261 164.376282 
L 388.097654 173.775862 
L 390.092698 168.393688 
L 392.087742 169.398914 
L 394.082787 168.135159 
L 396.077831 164.376282 
L 398.072875 164.376282 
L 400.067919 173.638103 
L 402.062963 164.376282 
L 404.058007 168.575903 
L 406.053051 168.393688 
L 408.048095 164.376282 
L 412.038183 164.376282 
L 414.033227 174.213623 
L 416.028272 164.376282 
L 418.023316 169.398914 
L 420.01836 169.483982 
L 422.013404 169.737363 
L 424.008448 164.376282 
L 426.003492 173.940081 
L 427.998536 164.376282 
L 429.99358 169.81824 
L 431.988624 169.113084 
L 433.983668 169.737363 
L 435.978712 173.04429 
L 437.973756 164.376282 
L 439.968801 173.778499 
L 441.963845 171.14443 
L 443.958889 164.376282 
L 445.953933 164.376282 
L 447.948977 165.751241 
L 449.944021 167.760774 
L 451.939065 164.403146 
L 453.934109 164.376282 
L 455.929153 168.393688 
L 457.924197 164.376282 
L 459.919241 169.233032 
L 461.914285 169.398914 
L 463.90933 164.376282 
L 469.894462 164.376282 
L 471.889506 167.424402 
L 473.88455 164.376282 
L 475.879594 165.259749 
L 477.874638 169.425777 
L 479.869682 165.215626 
L 481.864726 167.474449 
L 483.85977 164.376282 
L 485.854815 164.376282 
L 487.849859 169.219966 
L 489.844903 164.376282 
L 491.839947 164.376282 
L 493.834991 169.737363 
L 495.830035 164.376282 
L 497.825079 168.299823 
L 499.820123 169.398914 
L 501.815167 169.81824 
L 503.810211 164.376282 
L 505.805255 164.376282 
L 507.800299 170.514906 
L 509.795344 164.376282 
L 511.790388 174.519709 
L 513.785432 167.474449 
L 515.780476 168.299823 
L 517.77552 171.538083 
L 519.770564 164.376282 
L 525.755696 164.376282 
L 527.75074 169.398914 
L 529.745784 164.376282 
L 531.740829 168.590905 
L 533.735873 169.398914 
L 535.730917 164.376282 
L 537.725961 169.737363 
L 539.721005 164.376282 
L 541.716049 173.562629 
L 543.711093 166.375741 
L 545.706137 164.376282 
L 547.701181 169.737363 
L 549.696225 164.376282 
L 553.686313 164.376282 
L 555.681358 168.393688 
L 557.676402 164.376282 
L 559.671446 165.835969 
L 561.66649 164.376282 
L 579.621887 164.376282 
L 581.616931 169.81824 
L 583.611975 165.358554 
L 585.607019 164.376282 
L 589.597107 164.376282 
L 591.592151 168.393688 
L 593.587195 166.092788 
L 595.582239 164.376282 
L 597.577283 164.376282 
L 599.572327 168.299823 
L 601.567372 168.174753 
L 603.562416 164.376282 
L 605.55746 172.211371 
L 607.552504 164.376282 
L 615.53268 164.376282 
L 617.527724 168.393688 
L 619.522768 170.620829 
L 621.517812 164.376282 
L 623.512856 164.090452 
L 625.507901 164.376282 
L 627.502945 169.737363 
L 629.497989 169.81824 
L 631.493033 164.376282 
L 637.478165 164.376282 
L 639.473209 169.81824 
L 641.468253 164.376282 
L 649.44843 164.376282 
L 651.443474 170.786819 
L 653.438518 164.376282 
L 665.408782 164.376282 
L 667.403826 173.562629 
L 669.39887 164.376282 
L 677.379047 164.376282 
L 679.374091 169.522652 
L 679.374091 169.522652 
" clip-path="url(#pcc0e05b769)" style="fill: none; stroke: #ff7f0e; stroke-width: 1.5; stroke-linecap: square"/>
   </g>
   <g id="line2d_27">
    <path d="M 82.855909 302.566615 
L 90.836085 302.566615 
L 92.83113 298.776741 
L 94.826174 139.128267 
L 96.821218 308.725162 
L 98.816262 308.725162 
L 100.811306 307.619782 
L 102.80635 298.776741 
L 104.801394 298.776741 
L 106.796438 198.34712 
L 108.791482 118.757691 
L 110.786526 302.566615 
L 112.78157 306.830224 
L 114.776614 298.776741 
L 116.771659 307.777693 
L 118.766703 181.685402 
L 120.761747 184.214046 
L 122.756791 189.10724 
L 124.751835 302.566615 
L 126.746879 306.198579 
L 128.741923 307.935605 
L 130.736967 298.776741 
L 132.732011 298.776741 
L 134.727055 292.381327 
L 136.722099 179.127237 
L 138.717144 308.725162 
L 140.712188 308.093516 
L 142.707232 302.566615 
L 144.702276 302.566615 
L 148.692364 294.828954 
L 152.682452 302.566615 
L 154.677496 179.711509 
L 156.67254 309.040985 
L 158.667584 298.776741 
L 164.652717 298.776741 
L 166.647761 130.680005 
L 168.642805 298.776741 
L 170.637849 137.391241 
L 172.632893 298.776741 
L 174.627937 200.55582 
L 176.622981 308.883073 
L 178.618025 308.883073 
L 180.613069 292.620254 
L 182.608113 180.374737 
L 184.603157 139.128267 
L 186.598202 302.566615 
L 188.593246 298.776741 
L 190.58829 302.566615 
L 192.583334 129.732536 
L 194.578378 307.303959 
L 196.573422 188.396639 
L 198.568466 298.776741 
L 200.56351 308.56725 
L 202.558554 307.146047 
L 204.553598 302.566615 
L 206.548642 305.882756 
L 208.543687 198.850377 
L 210.538731 302.566615 
L 212.533775 307.619782 
L 214.528819 298.776741 
L 216.523863 298.776741 
L 218.518907 118.757691 
L 220.513951 308.093516 
L 222.508995 139.128267 
L 224.504039 306.35649 
L 228.494127 298.776741 
L 230.489171 298.776741 
L 232.484216 302.566615 
L 234.47926 298.776741 
L 236.474304 189.399491 
L 238.469348 298.776741 
L 240.464392 154.919412 
L 242.459436 302.566615 
L 244.45448 302.566615 
L 246.449524 173.631919 
L 248.444568 200.55582 
L 250.439612 308.725162 
L 252.434656 302.566615 
L 254.429701 308.251427 
L 256.424745 180.295782 
L 258.419789 302.566615 
L 260.414833 200.55582 
L 262.409877 298.776741 
L 264.404921 298.776741 
L 266.399965 307.46187 
L 268.395009 296.28174 
L 270.390053 177.737616 
L 272.385097 307.619782 
L 274.380141 198.850377 
L 276.375185 298.776741 
L 278.37023 118.757691 
L 280.365274 306.672313 
L 282.360318 298.776741 
L 284.355362 306.198579 
L 286.350406 298.776741 
L 290.340494 298.776741 
L 292.335538 129.495669 
L 294.330582 298.776741 
L 296.325626 139.128267 
L 298.32067 298.776741 
L 300.315715 302.566615 
L 302.310759 118.757691 
L 304.305803 306.040667 
L 306.300847 302.566615 
L 308.295891 298.776741 
L 310.290935 302.566615 
L 312.285979 302.566615 
L 314.281023 298.776741 
L 316.276067 298.776741 
L 318.271111 302.566615 
L 320.266155 298.776741 
L 322.261199 127.048042 
L 324.256244 298.776741 
L 326.251288 302.566615 
L 328.246332 298.776741 
L 330.241376 302.566615 
L 332.23642 298.776741 
L 336.226508 298.776741 
L 338.221552 307.303959 
L 340.216596 308.883073 
L 342.21164 302.566615 
L 344.206684 309.040985 
L 346.201728 298.776741 
L 348.196773 298.776741 
L 350.191817 118.757691 
L 352.186861 298.776741 
L 354.181905 302.566615 
L 356.176949 121.91592 
L 358.171993 302.566615 
L 360.167037 309.040985 
L 362.162081 198.822914 
L 364.157125 298.776741 
L 366.152169 118.757691 
L 368.147213 184.214046 
L 370.142258 298.776741 
L 372.137302 118.757691 
L 374.132346 298.776741 
L 376.12739 305.566933 
L 378.122434 191.870691 
L 380.117478 308.093516 
L 382.112522 307.146047 
L 384.107566 139.128267 
L 386.10261 298.776741 
L 388.097654 302.566615 
L 390.092698 292.620254 
L 392.087742 198.34506 
L 394.082787 292.620254 
L 396.077831 166.604859 
L 398.072875 298.776741 
L 400.067919 302.566615 
L 402.062963 298.776741 
L 404.058007 302.566615 
L 406.053051 200.55582 
L 408.048095 298.776741 
L 410.043139 118.757691 
L 412.038183 305.724844 
L 414.033227 302.566615 
L 416.028272 137.628109 
L 418.023316 196.1343 
L 420.01836 306.514402 
L 422.013404 155.314191 
L 424.008448 298.776741 
L 426.003492 302.566615 
L 427.998536 305.724844 
L 429.99358 286.696515 
L 431.988624 302.566615 
L 433.983668 155.314191 
L 435.978712 302.566615 
L 437.973756 298.776741 
L 439.968801 302.566615 
L 441.963845 308.725162 
L 443.958889 164.867833 
L 445.953933 298.776741 
L 447.948977 306.672313 
L 449.944021 307.777693 
L 451.939065 305.724844 
L 453.934109 298.776741 
L 455.929153 294.303956 
L 457.924197 298.776741 
L 459.919241 309.040985 
L 461.914285 121.679052 
L 463.90933 130.680005 
L 465.904374 298.776741 
L 469.894462 298.776741 
L 471.889506 190.007336 
L 473.88455 302.566615 
L 475.879594 307.935605 
L 477.874638 309.198896 
L 479.869682 302.566615 
L 481.864726 204.452343 
L 483.85977 298.776741 
L 485.854815 298.776741 
L 489.844903 306.35649 
L 491.839947 298.776741 
L 493.834991 121.442185 
L 495.830035 298.776741 
L 497.825079 134.075101 
L 499.820123 302.566615 
L 501.815167 181.685402 
L 503.810211 298.776741 
L 505.805255 129.732536 
L 507.800299 309.040985 
L 509.795344 306.830224 
L 511.790388 302.566615 
L 513.785432 308.409339 
L 515.780476 293.198576 
L 517.77552 302.566615 
L 519.770564 298.776741 
L 521.765608 130.443138 
L 523.760652 298.776741 
L 525.755696 298.776741 
L 527.75074 302.961394 
L 529.745784 298.776741 
L 531.740829 302.566615 
L 533.735873 302.961394 
L 535.730917 298.776741 
L 537.725961 198.34506 
L 539.721005 298.776741 
L 541.716049 264.825779 
L 543.711093 302.566615 
L 545.706137 302.566615 
L 547.701181 121.679052 
L 549.696225 298.776741 
L 551.691269 305.566933 
L 553.686313 298.776741 
L 555.681358 294.303956 
L 557.676402 305.882756 
L 559.671446 302.566615 
L 561.66649 307.935605 
L 563.661534 298.776741 
L 565.656578 306.514402 
L 567.651622 302.566615 
L 569.646666 306.672313 
L 571.64171 298.776741 
L 573.636754 298.776741 
L 575.631798 139.128267 
L 577.626843 298.776741 
L 579.621887 308.251427 
L 581.616931 181.685402 
L 583.611975 302.566615 
L 585.607019 305.882756 
L 587.602063 298.776741 
L 589.597107 306.040667 
L 591.592151 302.566615 
L 593.587195 309.198896 
L 595.582239 298.776741 
L 597.577283 298.776741 
L 599.572327 291.514874 
L 601.567372 154.003526 
L 603.562416 163.604542 
L 605.55746 198.850377 
L 607.552504 298.776741 
L 615.53268 298.776741 
L 617.527724 308.883073 
L 619.522768 296.28174 
L 621.517812 305.882756 
L 623.512856 302.566615 
L 625.507901 298.776741 
L 627.502945 198.34506 
L 629.497989 281.80126 
L 631.493033 298.776741 
L 633.488077 163.604542 
L 635.483121 306.040667 
L 637.478165 308.883073 
L 639.473209 285.543761 
L 641.468253 298.776741 
L 643.463297 298.776741 
L 645.458341 118.757691 
L 647.453386 306.198579 
L 649.44843 298.776741 
L 651.443474 193.136042 
L 653.438518 130.443138 
L 655.433562 298.776741 
L 657.428606 298.776741 
L 661.418694 306.35649 
L 663.413738 139.128267 
L 665.408782 302.566615 
L 667.403826 264.825779 
L 669.39887 302.566615 
L 671.393915 298.776741 
L 673.388959 302.566615 
L 675.384003 309.198896 
L 677.379047 298.776741 
L 679.374091 296.28174 
L 679.374091 296.28174 
" clip-path="url(#pcc0e05b769)" style="fill: none; stroke: #2ca02c; stroke-width: 1.5; stroke-linecap: square"/>
   </g>
   <g id="line2d_28">
    <path d="M 82.855909 329.539755 
L 84.850953 313.648552 
L 86.845997 363.117039 
L 88.841041 308.351485 
L 90.836085 308.351485 
L 92.83113 245.24476 
L 94.826174 235.296339 
L 96.821218 332.697984 
L 98.816262 311.207959 
L 100.811306 301.805194 
L 102.80635 225.347918 
L 104.801394 244.297291 
L 106.796438 272.405529 
L 108.791482 263.246665 
L 110.786526 344.699254 
L 112.78157 310.964058 
L 114.776614 262.772931 
L 116.771659 285.282346 
L 118.766703 228.664058 
L 120.761747 272.247617 
L 122.756791 233.875136 
L 124.751835 331.822437 
L 126.746879 309.227032 
L 128.741923 293.435887 
L 130.736967 235.296339 
L 132.732011 273.195086 
L 134.727055 264.352045 
L 136.722099 268.931477 
L 138.717144 332.454082 
L 140.712188 297.211694 
L 142.707232 373.467273 
L 144.702276 321.472203 
L 146.69732 234.34887 
L 148.692364 272.247617 
L 150.687408 277.93243 
L 152.682452 357.819972 
L 154.677496 239.086214 
L 156.67254 328.980031 
L 158.667584 262.772931 
L 160.662628 298.303006 
L 162.657673 260.877993 
L 164.652717 214.452028 
L 166.647761 257.088118 
L 168.642805 254.719447 
L 170.637849 260.877993 
L 172.632893 276.511227 
L 174.627937 228.664058 
L 176.622981 339.803999 
L 178.618025 302.666673 
L 180.613069 238.612479 
L 182.608113 286.94745 
L 184.603157 235.296339 
L 186.598202 323.998786 
L 188.593246 235.296339 
L 190.58829 339.402186 
L 192.583334 272.247617 
L 194.578378 283.947132 
L 196.573422 253.140332 
L 198.568466 205.451075 
L 200.56351 313.418719 
L 202.558554 293.823632 
L 204.553598 292.704184 
L 206.548642 262.85892 
L 208.543687 317.027866 
L 210.538731 313.648552 
L 212.533775 306.614459 
L 214.528819 249.508369 
L 216.523863 214.452028 
L 218.518907 245.24476 
L 220.513951 321.874016 
L 222.508995 185.554233 
L 224.504039 294.067533 
L 226.499083 318.701719 
L 228.494127 248.5609 
L 230.489171 252.350775 
L 232.484216 316.175136 
L 234.47926 234.34887 
L 236.474304 250.140015 
L 238.469348 254.245712 
L 240.464392 212.55709 
L 242.459436 321.472203 
L 244.45448 342.17267 
L 246.449524 246.665963 
L 248.444568 232.453933 
L 250.439612 292.244517 
L 252.434656 313.648552 
L 254.429701 291.842705 
L 256.424745 280.792831 
L 258.419789 326.525369 
L 260.414833 212.55709 
L 262.409877 245.24476 
L 264.404921 234.34887 
L 266.399965 288.368653 
L 268.395009 326.618322 
L 270.390053 254.403624 
L 272.385097 273.037175 
L 274.380141 296.541161 
L 276.375185 235.770073 
L 278.37023 213.030825 
L 280.365274 283.243565 
L 282.360318 256.614384 
L 284.355362 270.682571 
L 286.350406 249.982103 
L 288.34545 237.191276 
L 290.340494 234.34887 
L 292.335538 252.034952 
L 294.330582 237.191276 
L 296.325626 245.24476 
L 298.32067 236.717542 
L 300.315715 331.578536 
L 302.310759 240.981151 
L 304.305803 246.508052 
L 306.300847 318.701719 
L 308.295891 221.084309 
L 310.290935 318.701719 
L 312.285979 313.648552 
L 314.281023 256.614384 
L 316.276067 219.189371 
L 318.271111 339.646087 
L 320.266155 217.294434 
L 322.261199 258.189571 
L 324.256244 226.769121 
L 326.251288 321.228302 
L 328.246332 211.609622 
L 330.241376 313.404651 
L 332.23642 227.716589 
L 334.231464 226.295386 
L 336.226508 232.453933 
L 338.221552 309.542855 
L 340.216596 335.052587 
L 342.21164 334.105119 
L 344.206684 303.772053 
L 346.201728 218.241902 
L 348.196773 185.554233 
L 350.191817 227.716589 
L 352.186861 243.823557 
L 354.181905 321.228302 
L 356.176949 245.876406 
L 358.171993 336.875603 
L 360.167037 308.035662 
L 362.162081 231.980198 
L 364.157125 244.771026 
L 366.152169 248.5609 
L 368.147213 218.715637 
L 370.142258 236.243807 
L 372.137302 236.717542 
L 374.132346 211.135887 
L 376.12739 230.401084 
L 378.122434 178.921952 
L 380.117478 300.929647 
L 382.112522 281.104726 
L 384.107566 195.502654 
L 386.10261 246.665963 
L 388.097654 336.875603 
L 390.092698 212.55709 
L 392.087742 212.55709 
L 394.082787 208.767216 
L 396.077831 215.399496 
L 398.072875 242.876088 
L 400.067919 347.225837 
L 402.062963 199.292529 
L 404.058007 313.404651 
L 406.053051 208.767216 
L 408.048095 243.349823 
L 410.043139 143.391876 
L 412.038183 228.032412 
L 414.033227 331.822437 
L 416.028272 182.238092 
L 418.023316 241.139062 
L 420.01836 266.418962 
L 422.013404 198.818794 
L 424.008448 240.033682 
L 426.003492 323.998786 
L 427.998536 239.875771 
L 429.99358 178.921952 
L 431.988624 308.107584 
L 433.983668 159.02511 
L 435.978712 323.754885 
L 437.973756 216.346965 
L 439.968801 313.404651 
L 441.963845 297.84334 
L 443.958889 207.819747 
L 445.953933 195.02892 
L 447.948977 264.753858 
L 449.944021 284.894601 
L 451.939065 246.751953 
L 453.934109 184.606764 
L 455.929153 216.662788 
L 457.924197 215.399496 
L 459.919241 297.685428 
L 461.914285 241.139062 
L 463.90933 228.664058 
L 465.904374 227.242855 
L 467.899418 247.139697 
L 469.894462 234.822604 
L 471.889506 306.015848 
L 473.88455 289.9337 
L 475.879594 278.334242 
L 477.874638 303.054418 
L 479.869682 297.75735 
L 481.864726 225.821652 
L 483.85977 222.505512 
L 485.854815 200.713732 
L 487.849859 310.634167 
L 489.844903 237.033365 
L 491.839947 178.921952 
L 493.834991 246.900866 
L 495.830035 196.923857 
L 497.825079 234.506782 
L 499.820123 300.283933 
L 501.815167 159.02511 
L 503.810211 207.819747 
L 505.805255 233.085579 
L 507.800299 320.912479 
L 509.795344 253.92989 
L 511.790388 318.457818 
L 515.780476 245.560583 
L 517.77552 331.578536 
L 519.770564 191.712779 
L 521.765608 236.717542 
L 523.760652 228.664058 
L 525.755696 173.23714 
L 527.75074 237.822922 
L 529.745784 240.033682 
L 531.740829 310.634167 
L 533.735873 237.822922 
L 535.730917 196.923857 
L 537.725961 199.292529 
L 539.721005 207.819747 
L 541.716049 232.296021 
L 543.711093 326.281468 
L 545.706137 289.9337 
L 547.701181 234.899596 
L 549.696225 186.501702 
L 551.691269 237.033365 
L 553.686313 155.708969 
L 557.676402 228.190324 
L 559.671446 310.634167 
L 561.66649 267.194451 
L 563.661534 233.401401 
L 565.656578 253.614067 
L 567.651622 292.460283 
L 569.646666 246.981786 
L 571.64171 183.185561 
L 573.636754 145.760548 
L 575.631798 165.657391 
L 577.626843 150.971626 
L 579.621887 282.038127 
L 581.616931 149.076689 
L 583.611975 318.457818 
L 585.607019 219.505194 
L 587.602063 152.866563 
L 589.597107 229.453615 
L 591.592151 285.268278 
L 593.587195 305.581001 
L 595.582239 222.031777 
L 597.577283 187.922905 
L 599.572327 233.875136 
L 601.567372 255.842823 
L 603.562416 213.504559 
L 605.55746 298.742813 
L 607.552504 201.187466 
L 609.547548 163.288719 
L 611.542592 179.395686 
L 613.537636 200.239997 
L 615.53268 195.976388 
L 617.527724 294.599121 
L 619.522768 303.054418 
L 621.517812 221.400131 
L 623.512856 300.283933 
L 625.507901 194.081451 
L 627.502945 190.133665 
L 629.497989 227.874501 
L 631.493033 186.975436 
L 633.488077 206.398544 
L 637.478165 286.775471 
L 639.473209 285.268278 
L 641.468253 169.921 
L 643.463297 226.769121 
L 645.458341 235.138427 
L 647.453386 225.190006 
L 649.44843 219.189371 
L 651.443474 148.12922 
L 653.438518 226.769121 
L 655.433562 216.346965 
L 657.428606 187.922905 
L 659.42365 289.9337 
L 661.418694 241.296974 
L 663.413738 135.812127 
L 665.408782 294.986866 
L 667.403826 228.979881 
L 669.39887 294.986866 
L 671.393915 150.971626 
L 673.388959 294.986866 
L 675.384003 292.460283 
L 677.379047 141.496939 
L 679.374091 292.199418 
L 679.374091 292.199418 
" clip-path="url(#pcc0e05b769)" style="fill: none; stroke: #d62728; stroke-width: 1.5; stroke-linecap: square"/>
   </g>
   <g id="line2d_29">
    <path d="M 82.855909 195.502654 
L 90.836085 195.502654 
L 92.83113 91.281099 
L 94.826174 42.012727 
L 96.821218 195.502654 
L 100.811306 195.502654 
L 102.80635 42.012727 
L 104.801394 168.026062 
L 106.796438 195.502654 
L 112.78157 195.502654 
L 114.776614 139.602002 
L 116.771659 195.502654 
L 118.766703 42.012727 
L 120.761747 42.012727 
L 122.756791 93.176036 
L 124.751835 195.502654 
L 126.746879 188.870373 
L 128.741923 195.502654 
L 130.736967 42.012727 
L 132.732011 54.32982 
L 134.727055 195.502654 
L 144.702276 195.502654 
L 146.69732 118.757691 
L 148.692364 118.757691 
L 150.687408 194.555185 
L 152.682452 195.502654 
L 154.677496 118.757691 
L 156.67254 195.502654 
L 158.667584 119.705159 
L 160.662628 115.915285 
L 162.657673 118.757691 
L 164.652717 118.757691 
L 166.647761 141.496939 
L 168.642805 194.555185 
L 170.637849 118.757691 
L 172.632893 195.502654 
L 174.627937 42.012727 
L 176.622981 195.502654 
L 178.618025 195.502654 
L 180.613069 42.012727 
L 182.608113 195.502654 
L 184.603157 42.012727 
L 186.598202 195.502654 
L 188.593246 153.814032 
L 190.58829 195.502654 
L 194.578378 195.502654 
L 196.573422 165.183656 
L 198.568466 112.12541 
L 200.56351 195.502654 
L 204.553598 195.502654 
L 206.548642 190.765311 
L 208.543687 195.502654 
L 212.533775 195.502654 
L 214.528819 172.763406 
L 216.523863 118.757691 
L 218.518907 42.012727 
L 220.513951 195.502654 
L 222.508995 42.012727 
L 224.504039 190.765311 
L 226.499083 195.502654 
L 228.494127 91.281099 
L 230.489171 163.288719 
L 232.484216 195.502654 
L 234.47926 118.757691 
L 238.469348 118.757691 
L 240.464392 42.012727 
L 242.459436 195.502654 
L 244.45448 195.502654 
L 246.449524 83.701349 
L 248.444568 42.012727 
L 250.439612 195.502654 
L 258.419789 195.502654 
L 260.414833 42.012727 
L 262.409877 42.012727 
L 264.404921 72.331725 
L 266.399965 195.502654 
L 274.380141 195.502654 
L 276.375185 100.755786 
L 278.37023 46.750071 
L 280.365274 193.607717 
L 282.360318 195.502654 
L 286.350406 195.502654 
L 288.34545 158.551375 
L 290.340494 101.703254 
L 292.335538 195.502654 
L 294.330582 188.870373 
L 296.325626 42.012727 
L 298.32067 86.543755 
L 300.315715 195.502654 
L 302.310759 132.022252 
L 304.305803 192.660248 
L 306.300847 195.502654 
L 308.295891 134.864658 
L 310.290935 195.502654 
L 314.281023 195.502654 
L 316.276067 67.594382 
L 318.271111 195.502654 
L 320.266155 115.915285 
L 322.261199 195.502654 
L 324.256244 86.543755 
L 326.251288 195.502654 
L 328.246332 51.487414 
L 330.241376 195.502654 
L 332.23642 118.757691 
L 334.231464 122.547565 
L 336.226508 117.810222 
L 338.221552 195.502654 
L 344.206684 195.502654 
L 346.201728 121.600097 
L 348.196773 42.012727 
L 350.191817 118.757691 
L 352.186861 158.551375 
L 354.181905 195.502654 
L 356.176949 194.555185 
L 358.171993 195.502654 
L 360.167037 195.502654 
L 362.162081 42.012727 
L 364.157125 177.500749 
L 366.152169 150.971626 
L 368.147213 42.012727 
L 370.142258 122.547565 
L 372.137302 195.502654 
L 374.132346 105.493129 
L 376.12739 152.866563 
L 378.122434 42.012727 
L 380.117478 195.502654 
L 382.112522 195.502654 
L 384.107566 42.012727 
L 386.10261 195.502654 
L 388.097654 195.502654 
L 390.092698 42.012727 
L 392.087742 118.757691 
L 394.082787 42.012727 
L 396.077831 42.012727 
L 398.072875 172.763406 
L 400.067919 195.502654 
L 402.062963 100.755786 
L 404.058007 195.502654 
L 406.053051 42.012727 
L 408.048095 182.238092 
L 410.043139 46.750071 
L 412.038183 177.500749 
L 414.033227 195.502654 
L 416.028272 88.438693 
L 418.023316 195.502654 
L 420.01836 195.502654 
L 422.013404 42.012727 
L 424.008448 195.502654 
L 427.998536 195.502654 
L 429.99358 42.012727 
L 431.988624 195.502654 
L 433.983668 42.012727 
L 435.978712 195.502654 
L 437.973756 77.069069 
L 439.968801 195.502654 
L 441.963845 195.502654 
L 443.958889 118.757691 
L 445.953933 81.806412 
L 447.948977 195.502654 
L 449.944021 195.502654 
L 451.939065 163.288719 
L 453.934109 72.331725 
L 455.929153 118.757691 
L 457.924197 125.389971 
L 459.919241 195.502654 
L 461.914285 195.502654 
L 463.90933 150.971626 
L 465.904374 158.551375 
L 467.899418 188.870373 
L 469.894462 194.555185 
L 471.889506 195.502654 
L 479.869682 195.502654 
L 481.864726 118.757691 
L 483.85977 163.288719 
L 485.854815 116.862753 
L 487.849859 195.502654 
L 489.844903 190.765311 
L 491.839947 58.119695 
L 493.834991 195.502654 
L 495.830035 86.543755 
L 497.825079 190.765311 
L 499.820123 195.502654 
L 501.815167 42.012727 
L 505.805255 195.502654 
L 517.77552 195.502654 
L 519.770564 81.806412 
L 521.765608 195.502654 
L 523.760652 125.389971 
L 525.755696 48.645008 
L 527.75074 195.502654 
L 533.735873 195.502654 
L 535.730917 128.232377 
L 537.725961 118.757691 
L 539.721005 118.757691 
L 541.716049 195.502654 
L 547.701181 195.502654 
L 549.696225 123.495034 
L 551.691269 195.502654 
L 553.686313 42.012727 
L 555.681358 118.757691 
L 557.676402 172.763406 
L 559.671446 195.502654 
L 563.661534 195.502654 
L 565.656578 193.607717 
L 567.651622 195.502654 
L 569.646666 195.502654 
L 571.64171 121.600097 
L 573.636754 42.012727 
L 575.631798 42.012727 
L 577.626843 62.857038 
L 579.621887 195.502654 
L 581.616931 42.012727 
L 583.611975 195.502654 
L 585.607019 182.238092 
L 587.602063 67.594382 
L 589.597107 188.870373 
L 591.592151 195.502654 
L 593.587195 195.502654 
L 595.582239 153.814032 
L 597.577283 118.757691 
L 599.572327 188.870373 
L 601.567372 195.502654 
L 603.562416 146.234282 
L 605.55746 195.502654 
L 607.552504 118.757691 
L 609.547548 77.069069 
L 611.542592 117.810222 
L 613.537636 149.076689 
L 615.53268 133.91719 
L 617.527724 195.502654 
L 619.522768 195.502654 
L 621.517812 186.027967 
L 623.512856 195.502654 
L 625.507901 116.862753 
L 627.502945 118.757691 
L 629.497989 195.502654 
L 631.493033 128.232377 
L 633.488077 136.759596 
L 635.483121 195.502654 
L 639.473209 195.502654 
L 641.468253 48.645008 
L 643.463297 195.502654 
L 645.458341 195.502654 
L 647.453386 182.238092 
L 649.44843 190.765311 
L 651.443474 45.802602 
L 653.438518 195.502654 
L 655.433562 139.602002 
L 657.428606 118.757691 
L 659.42365 195.502654 
L 661.418694 195.502654 
L 663.413738 42.012727 
L 665.408782 195.502654 
L 669.39887 195.502654 
L 671.393915 62.857038 
L 673.388959 195.502654 
L 675.384003 195.502654 
L 677.379047 46.750071 
L 679.374091 195.502654 
L 679.374091 195.502654 
" clip-path="url(#pcc0e05b769)" style="fill: none; stroke: #9467bd; stroke-width: 1.5; stroke-linecap: square"/>
   </g>
   <g id="line2d_30"/>
   <g id="patch_3">
    <path d="M 53.03 390.04 
L 53.03 25.44 
" style="fill: none; stroke: #000000; stroke-width: 0.8; stroke-linejoin: miter; stroke-linecap: square"/>
   </g>
   <g id="patch_4">
    <path d="M 709.2 390.04 
L 709.2 25.44 
" style="fill: none; stroke: #000000; stroke-width: 0.8; stroke-linejoin: miter; stroke-linecap: square"/>
   </g>
   <g id="patch_5">
    <path d="M 53.03 390.04 
L 709.2 390.04 
" style="fill: none; stroke: #000000; stroke-width: 0.8; stroke-linejoin: miter; stroke-linecap: square"/>
   </g>
   <g id="patch_6">
    <path d="M 53.03 25.44 
L 709.2 25.44 
" style="fill: none; stroke: #000000; stroke-width: 0.8; stroke-linejoin: miter; stroke-linecap: square"/>
   </g>
   <g id="text_15">
    <!-- Average Reward per Episode by Agent -->
    <g transform="translate(265.943125 19.44) scale(0.12 -0.12)">
     <defs>
      <path id="DejaVuSans-62" d="M 3116 1747 
Q 3116 2381 2855 2742 
Q 2594 3103 2138 3103 
Q 1681 3103 1420 2742 
Q 1159 2381 1159 1747 
Q 1159 1113 1420 752 
Q 1681 391 2138 391 
Q 2594 391 2855 752 
Q 3116 1113 3116 1747 
z
M 1159 2969 
Q 1341 3281 1617 3432 
Q 1894 3584 2278 3584 
Q 2916 3584 3314 3078 
Q 3713 2572 3713 1747 
Q 3713 922 3314 415 
Q 2916 -91 2278 -91 
Q 1894 -91 1617 61 
Q 1341 213 1159 525 
L 1159 0 
L 581 0 
L 581 4863 
L 1159 4863 
L 1159 2969 
z
" transform="scale(0.015625)"/>
      <path id="DejaVuSans-79" d="M 2059 -325 
Q 1816 -950 1584 -1140 
Q 1353 -1331 966 -1331 
L 506 -1331 
L 506 -850 
L 844 -850 
Q 1081 -850 1212 -737 
Q 1344 -625 1503 -206 
L 1606 56 
L 191 3500 
L 800 3500 
L 1894 763 
L 2988 3500 
L 3597 3500 
L 2059 -325 
z
" transform="scale(0.015625)"/>
      <path id="DejaVuSans-6e" d="M 3513 2113 
L 3513 0 
L 2938 0 
L 2938 2094 
Q 2938 2591 2744 2837 
Q 2550 3084 2163 3084 
Q 1697 3084 1428 2787 
Q 1159 2491 1159 1978 
L 1159 0 
L 581 0 
L 581 3500 
L 1159 3500 
L 1159 2956 
Q 1366 3272 1645 3428 
Q 1925 3584 2291 3584 
Q 2894 3584 3203 3211 
Q 3513 2838 3513 2113 
z
" transform="scale(0.015625)"/>
      <path id="DejaVuSans-74" d="M 1172 4494 
L 1172 3500 
L 2356 3500 
L 2356 3053 
L 1172 3053 
L 1172 1153 
Q 1172 725 1289 603 
Q 1406 481 1766 481 
L 2356 481 
L 2356 0 
L 1766 0 
Q 1100 0 847 248 
Q 594 497 594 1153 
L 594 3053 
L 172 3053 
L 172 3500 
L 594 3500 
L 594 4494 
L 1172 4494 
z
" transform="scale(0.015625)"/>
     </defs>
     <use xlink:href="#DejaVuSans-41"/>
     <use xlink:href="#DejaVuSans-76" x="62.533203"/>
     <use xlink:href="#DejaVuSans-65" x="121.712891"/>
     <use xlink:href="#DejaVuSans-72" x="183.236328"/>
     <use xlink:href="#DejaVuSans-61" x="224.349609"/>
     <use xlink:href="#DejaVuSans-67" x="285.628906"/>
     <use xlink:href="#DejaVuSans-65" x="349.105469"/>
     <use xlink:href="#DejaVuSans-20" x="410.628906"/>
     <use xlink:href="#DejaVuSans-52" x="442.416016"/>
     <use xlink:href="#DejaVuSans-65" x="507.398438"/>
     <use xlink:href="#DejaVuSans-77" x="568.921875"/>
     <use xlink:href="#DejaVuSans-61" x="650.708984"/>
     <use xlink:href="#DejaVuSans-72" x="711.988281"/>
     <use xlink:href="#DejaVuSans-64" x="751.351562"/>
     <use xlink:href="#DejaVuSans-20" x="814.828125"/>
     <use xlink:href="#DejaVuSans-70" x="846.615234"/>
     <use xlink:href="#DejaVuSans-65" x="910.091797"/>
     <use xlink:href="#DejaVuSans-72" x="971.615234"/>
     <use xlink:href="#DejaVuSans-20" x="1012.728516"/>
     <use xlink:href="#DejaVuSans-45" x="1044.515625"/>
     <use xlink:href="#DejaVuSans-70" x="1107.699219"/>
     <use xlink:href="#DejaVuSans-69" x="1171.175781"/>
     <use xlink:href="#DejaVuSans-73" x="1198.958984"/>
     <use xlink:href="#DejaVuSans-6f" x="1251.058594"/>
     <use xlink:href="#DejaVuSans-64" x="1312.240234"/>
     <use xlink:href="#DejaVuSans-65" x="1375.716797"/>
     <use xlink:href="#DejaVuSans-20" x="1437.240234"/>
     <use xlink:href="#DejaVuSans-62" x="1469.027344"/>
     <use xlink:href="#DejaVuSans-79" x="1532.503906"/>
     <use xlink:href="#DejaVuSans-20" x="1591.683594"/>
     <use xlink:href="#DejaVuSans-41" x="1623.470703"/>
     <use xlink:href="#DejaVuSans-67" x="1691.878906"/>
     <use xlink:href="#DejaVuSans-65" x="1755.355469"/>
     <use xlink:href="#DejaVuSans-6e" x="1816.878906"/>
     <use xlink:href="#DejaVuSans-74" x="1880.257812"/>
    </g>
   </g>
   <g id="legend_1">
    <g id="patch_7">
     <path d="M 537.69375 121.50875 
L 702.2 121.50875 
Q 704.2 121.50875 704.2 119.50875 
L 704.2 32.44 
Q 704.2 30.44 702.2 30.44 
L 537.69375 30.44 
Q 535.69375 30.44 535.69375 32.44 
L 535.69375 119.50875 
Q 535.69375 121.50875 537.69375 121.50875 
z
" style="fill: #ffffff; opacity: 0.8; stroke: #cccccc; stroke-linejoin: miter"/>
    </g>
    <g id="line2d_31">
     <path d="M 539.69375 38.538437 
L 549.69375 38.538437 
L 559.69375 38.538437 
" style="fill: none; stroke: #1f77b4; stroke-width: 1.5; stroke-linecap: square"/>
    </g>
    <g id="text_16">
     <!-- solar - Average Reward -->
     <g transform="translate(567.69375 42.038437) scale(0.1 -0.1)">
      <defs>
       <path id="DejaVuSans-6c" d="M 603 4863 
L 1178 4863 
L 1178 0 
L 603 0 
L 603 4863 
z
" transform="scale(0.015625)"/>
       <path id="DejaVuSans-2d" d="M 313 2009 
L 1997 2009 
L 1997 1497 
L 313 1497 
L 313 2009 
z
" transform="scale(0.015625)"/>
      </defs>
      <use xlink:href="#DejaVuSans-73"/>
      <use xlink:href="#DejaVuSans-6f" x="52.099609"/>
      <use xlink:href="#DejaVuSans-6c" x="113.28125"/>
      <use xlink:href="#DejaVuSans-61" x="141.064453"/>
      <use xlink:href="#DejaVuSans-72" x="202.34375"/>
      <use xlink:href="#DejaVuSans-20" x="243.457031"/>
      <use xlink:href="#DejaVuSans-2d" x="275.244141"/>
      <use xlink:href="#DejaVuSans-20" x="311.328125"/>
      <use xlink:href="#DejaVuSans-41" x="343.115234"/>
      <use xlink:href="#DejaVuSans-76" x="405.648438"/>
      <use xlink:href="#DejaVuSans-65" x="464.828125"/>
      <use xlink:href="#DejaVuSans-72" x="526.351562"/>
      <use xlink:href="#DejaVuSans-61" x="567.464844"/>
      <use xlink:href="#DejaVuSans-67" x="628.744141"/>
      <use xlink:href="#DejaVuSans-65" x="692.220703"/>
      <use xlink:href="#DejaVuSans-20" x="753.744141"/>
      <use xlink:href="#DejaVuSans-52" x="785.53125"/>
      <use xlink:href="#DejaVuSans-65" x="850.513672"/>
      <use xlink:href="#DejaVuSans-77" x="912.037109"/>
      <use xlink:href="#DejaVuSans-61" x="993.824219"/>
      <use xlink:href="#DejaVuSans-72" x="1055.103516"/>
      <use xlink:href="#DejaVuSans-64" x="1094.466797"/>
     </g>
    </g>
    <g id="line2d_32">
     <path d="M 539.69375 53.216563 
L 549.69375 53.216563 
L 559.69375 53.216563 
" style="fill: none; stroke: #ff7f0e; stroke-width: 1.5; stroke-linecap: square"/>
    </g>
    <g id="text_17">
     <!-- wind - Average Reward -->
     <g transform="translate(567.69375 56.716563) scale(0.1 -0.1)">
      <use xlink:href="#DejaVuSans-77"/>
      <use xlink:href="#DejaVuSans-69" x="81.787109"/>
      <use xlink:href="#DejaVuSans-6e" x="109.570312"/>
      <use xlink:href="#DejaVuSans-64" x="172.949219"/>
      <use xlink:href="#DejaVuSans-20" x="236.425781"/>
      <use xlink:href="#DejaVuSans-2d" x="268.212891"/>
      <use xlink:href="#DejaVuSans-20" x="304.296875"/>
      <use xlink:href="#DejaVuSans-41" x="336.083984"/>
      <use xlink:href="#DejaVuSans-76" x="398.617188"/>
      <use xlink:href="#DejaVuSans-65" x="457.796875"/>
      <use xlink:href="#DejaVuSans-72" x="519.320312"/>
      <use xlink:href="#DejaVuSans-61" x="560.433594"/>
      <use xlink:href="#DejaVuSans-67" x="621.712891"/>
      <use xlink:href="#DejaVuSans-65" x="685.189453"/>
      <use xlink:href="#DejaVuSans-20" x="746.712891"/>
      <use xlink:href="#DejaVuSans-52" x="778.5"/>
      <use xlink:href="#DejaVuSans-65" x="843.482422"/>
      <use xlink:href="#DejaVuSans-77" x="905.005859"/>
      <use xlink:href="#DejaVuSans-61" x="986.792969"/>
      <use xlink:href="#DejaVuSans-72" x="1048.072266"/>
      <use xlink:href="#DejaVuSans-64" x="1087.435547"/>
     </g>
    </g>
    <g id="line2d_33">
     <path d="M 539.69375 67.894687 
L 549.69375 67.894687 
L 559.69375 67.894687 
" style="fill: none; stroke: #2ca02c; stroke-width: 1.5; stroke-linecap: square"/>
    </g>
    <g id="text_18">
     <!-- bat - Average Reward -->
     <g transform="translate(567.69375 71.394687) scale(0.1 -0.1)">
      <use xlink:href="#DejaVuSans-62"/>
      <use xlink:href="#DejaVuSans-61" x="63.476562"/>
      <use xlink:href="#DejaVuSans-74" x="124.755859"/>
      <use xlink:href="#DejaVuSans-20" x="163.964844"/>
      <use xlink:href="#DejaVuSans-2d" x="195.751953"/>
      <use xlink:href="#DejaVuSans-20" x="231.835938"/>
      <use xlink:href="#DejaVuSans-41" x="263.623047"/>
      <use xlink:href="#DejaVuSans-76" x="326.15625"/>
      <use xlink:href="#DejaVuSans-65" x="385.335938"/>
      <use xlink:href="#DejaVuSans-72" x="446.859375"/>
      <use xlink:href="#DejaVuSans-61" x="487.972656"/>
      <use xlink:href="#DejaVuSans-67" x="549.251953"/>
      <use xlink:href="#DejaVuSans-65" x="612.728516"/>
      <use xlink:href="#DejaVuSans-20" x="674.251953"/>
      <use xlink:href="#DejaVuSans-52" x="706.039062"/>
      <use xlink:href="#DejaVuSans-65" x="771.021484"/>
      <use xlink:href="#DejaVuSans-77" x="832.544922"/>
      <use xlink:href="#DejaVuSans-61" x="914.332031"/>
      <use xlink:href="#DejaVuSans-72" x="975.611328"/>
      <use xlink:href="#DejaVuSans-64" x="1014.974609"/>
     </g>
    </g>
    <g id="line2d_34">
     <path d="M 539.69375 82.572812 
L 549.69375 82.572812 
L 559.69375 82.572812 
" style="fill: none; stroke: #d62728; stroke-width: 1.5; stroke-linecap: square"/>
    </g>
    <g id="text_19">
     <!-- grid - Average Reward -->
     <g transform="translate(567.69375 86.072812) scale(0.1 -0.1)">
      <use xlink:href="#DejaVuSans-67"/>
      <use xlink:href="#DejaVuSans-72" x="63.476562"/>
      <use xlink:href="#DejaVuSans-69" x="104.589844"/>
      <use xlink:href="#DejaVuSans-64" x="132.373047"/>
      <use xlink:href="#DejaVuSans-20" x="195.849609"/>
      <use xlink:href="#DejaVuSans-2d" x="227.636719"/>
      <use xlink:href="#DejaVuSans-20" x="263.720703"/>
      <use xlink:href="#DejaVuSans-41" x="295.507812"/>
      <use xlink:href="#DejaVuSans-76" x="358.041016"/>
      <use xlink:href="#DejaVuSans-65" x="417.220703"/>
      <use xlink:href="#DejaVuSans-72" x="478.744141"/>
      <use xlink:href="#DejaVuSans-61" x="519.857422"/>
      <use xlink:href="#DejaVuSans-67" x="581.136719"/>
      <use xlink:href="#DejaVuSans-65" x="644.613281"/>
      <use xlink:href="#DejaVuSans-20" x="706.136719"/>
      <use xlink:href="#DejaVuSans-52" x="737.923828"/>
      <use xlink:href="#DejaVuSans-65" x="802.90625"/>
      <use xlink:href="#DejaVuSans-77" x="864.429688"/>
      <use xlink:href="#DejaVuSans-61" x="946.216797"/>
      <use xlink:href="#DejaVuSans-72" x="1007.496094"/>
      <use xlink:href="#DejaVuSans-64" x="1046.859375"/>
     </g>
    </g>
    <g id="line2d_35">
     <path d="M 539.69375 97.250937 
L 549.69375 97.250937 
L 559.69375 97.250937 
" style="fill: none; stroke: #9467bd; stroke-width: 1.5; stroke-linecap: square"/>
    </g>
    <g id="text_20">
     <!-- demand - Average Reward -->
     <g transform="translate(567.69375 100.750937) scale(0.1 -0.1)">
      <defs>
       <path id="DejaVuSans-6d" d="M 3328 2828 
Q 3544 3216 3844 3400 
Q 4144 3584 4550 3584 
Q 5097 3584 5394 3201 
Q 5691 2819 5691 2113 
L 5691 0 
L 5113 0 
L 5113 2094 
Q 5113 2597 4934 2840 
Q 4756 3084 4391 3084 
Q 3944 3084 3684 2787 
Q 3425 2491 3425 1978 
L 3425 0 
L 2847 0 
L 2847 2094 
Q 2847 2600 2669 2842 
Q 2491 3084 2119 3084 
Q 1678 3084 1418 2786 
Q 1159 2488 1159 1978 
L 1159 0 
L 581 0 
L 581 3500 
L 1159 3500 
L 1159 2956 
Q 1356 3278 1631 3431 
Q 1906 3584 2284 3584 
Q 2666 3584 2933 3390 
Q 3200 3197 3328 2828 
z
" transform="scale(0.015625)"/>
      </defs>
      <use xlink:href="#DejaVuSans-64"/>
      <use xlink:href="#DejaVuSans-65" x="63.476562"/>
      <use xlink:href="#DejaVuSans-6d" x="125"/>
      <use xlink:href="#DejaVuSans-61" x="222.412109"/>
      <use xlink:href="#DejaVuSans-6e" x="283.691406"/>
      <use xlink:href="#DejaVuSans-64" x="347.070312"/>
      <use xlink:href="#DejaVuSans-20" x="410.546875"/>
      <use xlink:href="#DejaVuSans-2d" x="442.333984"/>
      <use xlink:href="#DejaVuSans-20" x="478.417969"/>
      <use xlink:href="#DejaVuSans-41" x="510.205078"/>
      <use xlink:href="#DejaVuSans-76" x="572.738281"/>
      <use xlink:href="#DejaVuSans-65" x="631.917969"/>
      <use xlink:href="#DejaVuSans-72" x="693.441406"/>
      <use xlink:href="#DejaVuSans-61" x="734.554688"/>
      <use xlink:href="#DejaVuSans-67" x="795.833984"/>
      <use xlink:href="#DejaVuSans-65" x="859.310547"/>
      <use xlink:href="#DejaVuSans-20" x="920.833984"/>
      <use xlink:href="#DejaVuSans-52" x="952.621094"/>
      <use xlink:href="#DejaVuSans-65" x="1017.603516"/>
      <use xlink:href="#DejaVuSans-77" x="1079.126953"/>
      <use xlink:href="#DejaVuSans-61" x="1160.914062"/>
      <use xlink:href="#DejaVuSans-72" x="1222.193359"/>
      <use xlink:href="#DejaVuSans-64" x="1261.556641"/>
     </g>
    </g>
    <g id="line2d_36">
     <path d="M 539.69375 111.929062 
L 549.69375 111.929062 
L 559.69375 111.929062 
" style="fill: none; stroke: #8c564b; stroke-width: 1.5; stroke-linecap: square"/>
    </g>
    <g id="text_21">
     <!-- nan - Average Reward -->
     <g transform="translate(567.69375 115.429062) scale(0.1 -0.1)">
      <use xlink:href="#DejaVuSans-6e"/>
      <use xlink:href="#DejaVuSans-61" x="63.378906"/>
      <use xlink:href="#DejaVuSans-6e" x="124.658203"/>
      <use xlink:href="#DejaVuSans-20" x="188.037109"/>
      <use xlink:href="#DejaVuSans-2d" x="219.824219"/>
      <use xlink:href="#DejaVuSans-20" x="255.908203"/>
      <use xlink:href="#DejaVuSans-41" x="287.695312"/>
      <use xlink:href="#DejaVuSans-76" x="350.228516"/>
      <use xlink:href="#DejaVuSans-65" x="409.408203"/>
      <use xlink:href="#DejaVuSans-72" x="470.931641"/>
      <use xlink:href="#DejaVuSans-61" x="512.044922"/>
      <use xlink:href="#DejaVuSans-67" x="573.324219"/>
      <use xlink:href="#DejaVuSans-65" x="636.800781"/>
      <use xlink:href="#DejaVuSans-20" x="698.324219"/>
      <use xlink:href="#DejaVuSans-52" x="730.111328"/>
      <use xlink:href="#DejaVuSans-65" x="795.09375"/>
      <use xlink:href="#DejaVuSans-77" x="856.617188"/>
      <use xlink:href="#DejaVuSans-61" x="938.404297"/>
      <use xlink:href="#DejaVuSans-72" x="999.683594"/>
      <use xlink:href="#DejaVuSans-64" x="1039.046875"/>
     </g>
    </g>
   </g>
  </g>
 </g>
 <defs>
  <clipPath id="pcc0e05b769">
   <rect x="53.03" y="25.44" width="656.17" height="364.6"/>
  </clipPath>
 </defs>
</svg>
