<?xml version="1.0" encoding="utf-8" standalone="no"?>
<!DOCTYPE svg PUBLIC "-//W3C//DTD SVG 1.1//EN"
  "http://www.w3.org/Graphics/SVG/1.1/DTD/svg11.dtd">
<svg xmlns:xlink="http://www.w3.org/1999/xlink" width="720pt" height="432pt" viewBox="0 0 720 432" xmlns="http://www.w3.org/2000/svg" version="1.1">
 <metadata>
  <rdf:RDF xmlns:dc="http://purl.org/dc/elements/1.1/" xmlns:cc="http://creativecommons.org/ns#" xmlns:rdf="http://www.w3.org/1999/02/22-rdf-syntax-ns#">
   <cc:Work>
    <dc:type rdf:resource="http://purl.org/dc/dcmitype/StillImage"/>
    <dc:date>2025-07-22T16:12:06.127761</dc:date>
    <dc:format>image/svg+xml</dc:format>
    <dc:creator>
     <cc:Agent>
      <dc:title>Matplotlib v3.8.4, https://matplotlib.org/</dc:title>
     </cc:Agent>
    </dc:creator>
   </cc:Work>
  </rdf:RDF>
 </metadata>
 <defs>
  <style type="text/css">*{stroke-linejoin: round; stroke-linecap: butt}</style>
 </defs>
 <g id="figure_1">
  <g id="patch_1">
   <path d="M 0 432 
L 720 432 
L 720 0 
L 0 0 
z
" style="fill: #ffffff"/>
  </g>
  <g id="axes_1">
   <g id="patch_2">
    <path d="M 53.03 390.04 
L 709.2 390.04 
L 709.2 25.44 
L 53.03 25.44 
z
" style="fill: #ffffff"/>
   </g>
   <g id="matplotlib.axis_1">
    <g id="xtick_1">
     <g id="line2d_1">
      <path d="M 82.855909 390.04 
L 82.855909 25.44 
" clip-path="url(#pcba7770e05)" style="fill: none; stroke: #b0b0b0; stroke-width: 0.8; stroke-linecap: square"/>
     </g>
     <g id="line2d_2">
      <defs>
       <path id="m05b7efd8c7" d="M 0 0 
L 0 3.5 
" style="stroke: #000000; stroke-width: 0.8"/>
      </defs>
      <g>
       <use xlink:href="#m05b7efd8c7" x="82.855909" y="390.04" style="stroke: #000000; stroke-width: 0.8"/>
      </g>
     </g>
     <g id="text_1">
      <!-- 0 -->
      <g transform="translate(79.674659 404.638438) scale(0.1 -0.1)">
       <defs>
        <path id="DejaVuSans-30" d="M 2034 4250 
Q 1547 4250 1301 3770 
Q 1056 3291 1056 2328 
Q 1056 1369 1301 889 
Q 1547 409 2034 409 
Q 2525 409 2770 889 
Q 3016 1369 3016 2328 
Q 3016 3291 2770 3770 
Q 2525 4250 2034 4250 
z
M 2034 4750 
Q 2819 4750 3233 4129 
Q 3647 3509 3647 2328 
Q 3647 1150 3233 529 
Q 2819 -91 2034 -91 
Q 1250 -91 836 529 
Q 422 1150 422 2328 
Q 422 3509 836 4129 
Q 1250 4750 2034 4750 
z
" transform="scale(0.015625)"/>
       </defs>
       <use xlink:href="#DejaVuSans-30"/>
      </g>
     </g>
    </g>
    <g id="xtick_2">
     <g id="line2d_3">
      <path d="M 182.608113 390.04 
L 182.608113 25.44 
" clip-path="url(#pcba7770e05)" style="fill: none; stroke: #b0b0b0; stroke-width: 0.8; stroke-linecap: square"/>
     </g>
     <g id="line2d_4">
      <g>
       <use xlink:href="#m05b7efd8c7" x="182.608113" y="390.04" style="stroke: #000000; stroke-width: 0.8"/>
      </g>
     </g>
     <g id="text_2">
      <!-- 50 -->
      <g transform="translate(176.245613 404.638438) scale(0.1 -0.1)">
       <defs>
        <path id="DejaVuSans-35" d="M 691 4666 
L 3169 4666 
L 3169 4134 
L 1269 4134 
L 1269 2991 
Q 1406 3038 1543 3061 
Q 1681 3084 1819 3084 
Q 2600 3084 3056 2656 
Q 3513 2228 3513 1497 
Q 3513 744 3044 326 
Q 2575 -91 1722 -91 
Q 1428 -91 1123 -41 
Q 819 9 494 109 
L 494 744 
Q 775 591 1075 516 
Q 1375 441 1709 441 
Q 2250 441 2565 725 
Q 2881 1009 2881 1497 
Q 2881 1984 2565 2268 
Q 2250 2553 1709 2553 
Q 1456 2553 1204 2497 
Q 953 2441 691 2322 
L 691 4666 
z
" transform="scale(0.015625)"/>
       </defs>
       <use xlink:href="#DejaVuSans-35"/>
       <use xlink:href="#DejaVuSans-30" x="63.623047"/>
      </g>
     </g>
    </g>
    <g id="xtick_3">
     <g id="line2d_5">
      <path d="M 282.360318 390.04 
L 282.360318 25.44 
" clip-path="url(#pcba7770e05)" style="fill: none; stroke: #b0b0b0; stroke-width: 0.8; stroke-linecap: square"/>
     </g>
     <g id="line2d_6">
      <g>
       <use xlink:href="#m05b7efd8c7" x="282.360318" y="390.04" style="stroke: #000000; stroke-width: 0.8"/>
      </g>
     </g>
     <g id="text_3">
      <!-- 100 -->
      <g transform="translate(272.816568 404.638438) scale(0.1 -0.1)">
       <defs>
        <path id="DejaVuSans-31" d="M 794 531 
L 1825 531 
L 1825 4091 
L 703 3866 
L 703 4441 
L 1819 4666 
L 2450 4666 
L 2450 531 
L 3481 531 
L 3481 0 
L 794 0 
L 794 531 
z
" transform="scale(0.015625)"/>
       </defs>
       <use xlink:href="#DejaVuSans-31"/>
       <use xlink:href="#DejaVuSans-30" x="63.623047"/>
       <use xlink:href="#DejaVuSans-30" x="127.246094"/>
      </g>
     </g>
    </g>
    <g id="xtick_4">
     <g id="line2d_7">
      <path d="M 382.112522 390.04 
L 382.112522 25.44 
" clip-path="url(#pcba7770e05)" style="fill: none; stroke: #b0b0b0; stroke-width: 0.8; stroke-linecap: square"/>
     </g>
     <g id="line2d_8">
      <g>
       <use xlink:href="#m05b7efd8c7" x="382.112522" y="390.04" style="stroke: #000000; stroke-width: 0.8"/>
      </g>
     </g>
     <g id="text_4">
      <!-- 150 -->
      <g transform="translate(372.568772 404.638438) scale(0.1 -0.1)">
       <use xlink:href="#DejaVuSans-31"/>
       <use xlink:href="#DejaVuSans-35" x="63.623047"/>
       <use xlink:href="#DejaVuSans-30" x="127.246094"/>
      </g>
     </g>
    </g>
    <g id="xtick_5">
     <g id="line2d_9">
      <path d="M 481.864726 390.04 
L 481.864726 25.44 
" clip-path="url(#pcba7770e05)" style="fill: none; stroke: #b0b0b0; stroke-width: 0.8; stroke-linecap: square"/>
     </g>
     <g id="line2d_10">
      <g>
       <use xlink:href="#m05b7efd8c7" x="481.864726" y="390.04" style="stroke: #000000; stroke-width: 0.8"/>
      </g>
     </g>
     <g id="text_5">
      <!-- 200 -->
      <g transform="translate(472.320976 404.638438) scale(0.1 -0.1)">
       <defs>
        <path id="DejaVuSans-32" d="M 1228 531 
L 3431 531 
L 3431 0 
L 469 0 
L 469 531 
Q 828 903 1448 1529 
Q 2069 2156 2228 2338 
Q 2531 2678 2651 2914 
Q 2772 3150 2772 3378 
Q 2772 3750 2511 3984 
Q 2250 4219 1831 4219 
Q 1534 4219 1204 4116 
Q 875 4013 500 3803 
L 500 4441 
Q 881 4594 1212 4672 
Q 1544 4750 1819 4750 
Q 2544 4750 2975 4387 
Q 3406 4025 3406 3419 
Q 3406 3131 3298 2873 
Q 3191 2616 2906 2266 
Q 2828 2175 2409 1742 
Q 1991 1309 1228 531 
z
" transform="scale(0.015625)"/>
       </defs>
       <use xlink:href="#DejaVuSans-32"/>
       <use xlink:href="#DejaVuSans-30" x="63.623047"/>
       <use xlink:href="#DejaVuSans-30" x="127.246094"/>
      </g>
     </g>
    </g>
    <g id="xtick_6">
     <g id="line2d_11">
      <path d="M 581.616931 390.04 
L 581.616931 25.44 
" clip-path="url(#pcba7770e05)" style="fill: none; stroke: #b0b0b0; stroke-width: 0.8; stroke-linecap: square"/>
     </g>
     <g id="line2d_12">
      <g>
       <use xlink:href="#m05b7efd8c7" x="581.616931" y="390.04" style="stroke: #000000; stroke-width: 0.8"/>
      </g>
     </g>
     <g id="text_6">
      <!-- 250 -->
      <g transform="translate(572.073181 404.638438) scale(0.1 -0.1)">
       <use xlink:href="#DejaVuSans-32"/>
       <use xlink:href="#DejaVuSans-35" x="63.623047"/>
       <use xlink:href="#DejaVuSans-30" x="127.246094"/>
      </g>
     </g>
    </g>
    <g id="xtick_7">
     <g id="line2d_13">
      <path d="M 681.369135 390.04 
L 681.369135 25.44 
" clip-path="url(#pcba7770e05)" style="fill: none; stroke: #b0b0b0; stroke-width: 0.8; stroke-linecap: square"/>
     </g>
     <g id="line2d_14">
      <g>
       <use xlink:href="#m05b7efd8c7" x="681.369135" y="390.04" style="stroke: #000000; stroke-width: 0.8"/>
      </g>
     </g>
     <g id="text_7">
      <!-- 300 -->
      <g transform="translate(671.825385 404.638438) scale(0.1 -0.1)">
       <defs>
        <path id="DejaVuSans-33" d="M 2597 2516 
Q 3050 2419 3304 2112 
Q 3559 1806 3559 1356 
Q 3559 666 3084 287 
Q 2609 -91 1734 -91 
Q 1441 -91 1130 -33 
Q 819 25 488 141 
L 488 750 
Q 750 597 1062 519 
Q 1375 441 1716 441 
Q 2309 441 2620 675 
Q 2931 909 2931 1356 
Q 2931 1769 2642 2001 
Q 2353 2234 1838 2234 
L 1294 2234 
L 1294 2753 
L 1863 2753 
Q 2328 2753 2575 2939 
Q 2822 3125 2822 3475 
Q 2822 3834 2567 4026 
Q 2313 4219 1838 4219 
Q 1578 4219 1281 4162 
Q 984 4106 628 3988 
L 628 4550 
Q 988 4650 1302 4700 
Q 1616 4750 1894 4750 
Q 2613 4750 3031 4423 
Q 3450 4097 3450 3541 
Q 3450 3153 3228 2886 
Q 3006 2619 2597 2516 
z
" transform="scale(0.015625)"/>
       </defs>
       <use xlink:href="#DejaVuSans-33"/>
       <use xlink:href="#DejaVuSans-30" x="63.623047"/>
       <use xlink:href="#DejaVuSans-30" x="127.246094"/>
      </g>
     </g>
    </g>
    <g id="text_8">
     <!-- Episode -->
     <g transform="translate(361.4775 418.316562) scale(0.1 -0.1)">
      <defs>
       <path id="DejaVuSans-45" d="M 628 4666 
L 3578 4666 
L 3578 4134 
L 1259 4134 
L 1259 2753 
L 3481 2753 
L 3481 2222 
L 1259 2222 
L 1259 531 
L 3634 531 
L 3634 0 
L 628 0 
L 628 4666 
z
" transform="scale(0.015625)"/>
       <path id="DejaVuSans-70" d="M 1159 525 
L 1159 -1331 
L 581 -1331 
L 581 3500 
L 1159 3500 
L 1159 2969 
Q 1341 3281 1617 3432 
Q 1894 3584 2278 3584 
Q 2916 3584 3314 3078 
Q 3713 2572 3713 1747 
Q 3713 922 3314 415 
Q 2916 -91 2278 -91 
Q 1894 -91 1617 61 
Q 1341 213 1159 525 
z
M 3116 1747 
Q 3116 2381 2855 2742 
Q 2594 3103 2138 3103 
Q 1681 3103 1420 2742 
Q 1159 2381 1159 1747 
Q 1159 1113 1420 752 
Q 1681 391 2138 391 
Q 2594 391 2855 752 
Q 3116 1113 3116 1747 
z
" transform="scale(0.015625)"/>
       <path id="DejaVuSans-69" d="M 603 3500 
L 1178 3500 
L 1178 0 
L 603 0 
L 603 3500 
z
M 603 4863 
L 1178 4863 
L 1178 4134 
L 603 4134 
L 603 4863 
z
" transform="scale(0.015625)"/>
       <path id="DejaVuSans-73" d="M 2834 3397 
L 2834 2853 
Q 2591 2978 2328 3040 
Q 2066 3103 1784 3103 
Q 1356 3103 1142 2972 
Q 928 2841 928 2578 
Q 928 2378 1081 2264 
Q 1234 2150 1697 2047 
L 1894 2003 
Q 2506 1872 2764 1633 
Q 3022 1394 3022 966 
Q 3022 478 2636 193 
Q 2250 -91 1575 -91 
Q 1294 -91 989 -36 
Q 684 19 347 128 
L 347 722 
Q 666 556 975 473 
Q 1284 391 1588 391 
Q 1994 391 2212 530 
Q 2431 669 2431 922 
Q 2431 1156 2273 1281 
Q 2116 1406 1581 1522 
L 1381 1569 
Q 847 1681 609 1914 
Q 372 2147 372 2553 
Q 372 3047 722 3315 
Q 1072 3584 1716 3584 
Q 2034 3584 2315 3537 
Q 2597 3491 2834 3397 
z
" transform="scale(0.015625)"/>
       <path id="DejaVuSans-6f" d="M 1959 3097 
Q 1497 3097 1228 2736 
Q 959 2375 959 1747 
Q 959 1119 1226 758 
Q 1494 397 1959 397 
Q 2419 397 2687 759 
Q 2956 1122 2956 1747 
Q 2956 2369 2687 2733 
Q 2419 3097 1959 3097 
z
M 1959 3584 
Q 2709 3584 3137 3096 
Q 3566 2609 3566 1747 
Q 3566 888 3137 398 
Q 2709 -91 1959 -91 
Q 1206 -91 779 398 
Q 353 888 353 1747 
Q 353 2609 779 3096 
Q 1206 3584 1959 3584 
z
" transform="scale(0.015625)"/>
       <path id="DejaVuSans-64" d="M 2906 2969 
L 2906 4863 
L 3481 4863 
L 3481 0 
L 2906 0 
L 2906 525 
Q 2725 213 2448 61 
Q 2172 -91 1784 -91 
Q 1150 -91 751 415 
Q 353 922 353 1747 
Q 353 2572 751 3078 
Q 1150 3584 1784 3584 
Q 2172 3584 2448 3432 
Q 2725 3281 2906 2969 
z
M 947 1747 
Q 947 1113 1208 752 
Q 1469 391 1925 391 
Q 2381 391 2643 752 
Q 2906 1113 2906 1747 
Q 2906 2381 2643 2742 
Q 2381 3103 1925 3103 
Q 1469 3103 1208 2742 
Q 947 2381 947 1747 
z
" transform="scale(0.015625)"/>
       <path id="DejaVuSans-65" d="M 3597 1894 
L 3597 1613 
L 953 1613 
Q 991 1019 1311 708 
Q 1631 397 2203 397 
Q 2534 397 2845 478 
Q 3156 559 3463 722 
L 3463 178 
Q 3153 47 2828 -22 
Q 2503 -91 2169 -91 
Q 1331 -91 842 396 
Q 353 884 353 1716 
Q 353 2575 817 3079 
Q 1281 3584 2069 3584 
Q 2775 3584 3186 3129 
Q 3597 2675 3597 1894 
z
M 3022 2063 
Q 3016 2534 2758 2815 
Q 2500 3097 2075 3097 
Q 1594 3097 1305 2825 
Q 1016 2553 972 2059 
L 3022 2063 
z
" transform="scale(0.015625)"/>
      </defs>
      <use xlink:href="#DejaVuSans-45"/>
      <use xlink:href="#DejaVuSans-70" x="63.183594"/>
      <use xlink:href="#DejaVuSans-69" x="126.660156"/>
      <use xlink:href="#DejaVuSans-73" x="154.443359"/>
      <use xlink:href="#DejaVuSans-6f" x="206.542969"/>
      <use xlink:href="#DejaVuSans-64" x="267.724609"/>
      <use xlink:href="#DejaVuSans-65" x="331.201172"/>
     </g>
    </g>
   </g>
   <g id="matplotlib.axis_2">
    <g id="ytick_1">
     <g id="line2d_15">
      <path d="M 53.03 366.581834 
L 709.2 366.581834 
" clip-path="url(#pcba7770e05)" style="fill: none; stroke: #b0b0b0; stroke-width: 0.8; stroke-linecap: square"/>
     </g>
     <g id="line2d_16">
      <defs>
       <path id="m7dae578397" d="M 0 0 
L -3.5 0 
" style="stroke: #000000; stroke-width: 0.8"/>
      </defs>
      <g>
       <use xlink:href="#m7dae578397" x="53.03" y="366.581834" style="stroke: #000000; stroke-width: 0.8"/>
      </g>
     </g>
     <g id="text_9">
      <!-- −20 -->
      <g transform="translate(24.925313 370.381053) scale(0.1 -0.1)">
       <defs>
        <path id="DejaVuSans-2212" d="M 678 2272 
L 4684 2272 
L 4684 1741 
L 678 1741 
L 678 2272 
z
" transform="scale(0.015625)"/>
       </defs>
       <use xlink:href="#DejaVuSans-2212"/>
       <use xlink:href="#DejaVuSans-32" x="83.789062"/>
       <use xlink:href="#DejaVuSans-30" x="147.412109"/>
      </g>
     </g>
    </g>
    <g id="ytick_2">
     <g id="line2d_17">
      <path d="M 53.03 294.435196 
L 709.2 294.435196 
" clip-path="url(#pcba7770e05)" style="fill: none; stroke: #b0b0b0; stroke-width: 0.8; stroke-linecap: square"/>
     </g>
     <g id="line2d_18">
      <g>
       <use xlink:href="#m7dae578397" x="53.03" y="294.435196" style="stroke: #000000; stroke-width: 0.8"/>
      </g>
     </g>
     <g id="text_10">
      <!-- 0 -->
      <g transform="translate(39.6675 298.234414) scale(0.1 -0.1)">
       <use xlink:href="#DejaVuSans-30"/>
      </g>
     </g>
    </g>
    <g id="ytick_3">
     <g id="line2d_19">
      <path d="M 53.03 222.288557 
L 709.2 222.288557 
" clip-path="url(#pcba7770e05)" style="fill: none; stroke: #b0b0b0; stroke-width: 0.8; stroke-linecap: square"/>
     </g>
     <g id="line2d_20">
      <g>
       <use xlink:href="#m7dae578397" x="53.03" y="222.288557" style="stroke: #000000; stroke-width: 0.8"/>
      </g>
     </g>
     <g id="text_11">
      <!-- 20 -->
      <g transform="translate(33.305 226.087776) scale(0.1 -0.1)">
       <use xlink:href="#DejaVuSans-32"/>
       <use xlink:href="#DejaVuSans-30" x="63.623047"/>
      </g>
     </g>
    </g>
    <g id="ytick_4">
     <g id="line2d_21">
      <path d="M 53.03 150.141919 
L 709.2 150.141919 
" clip-path="url(#pcba7770e05)" style="fill: none; stroke: #b0b0b0; stroke-width: 0.8; stroke-linecap: square"/>
     </g>
     <g id="line2d_22">
      <g>
       <use xlink:href="#m7dae578397" x="53.03" y="150.141919" style="stroke: #000000; stroke-width: 0.8"/>
      </g>
     </g>
     <g id="text_12">
      <!-- 40 -->
      <g transform="translate(33.305 153.941138) scale(0.1 -0.1)">
       <defs>
        <path id="DejaVuSans-34" d="M 2419 4116 
L 825 1625 
L 2419 1625 
L 2419 4116 
z
M 2253 4666 
L 3047 4666 
L 3047 1625 
L 3713 1625 
L 3713 1100 
L 3047 1100 
L 3047 0 
L 2419 0 
L 2419 1100 
L 313 1100 
L 313 1709 
L 2253 4666 
z
" transform="scale(0.015625)"/>
       </defs>
       <use xlink:href="#DejaVuSans-34"/>
       <use xlink:href="#DejaVuSans-30" x="63.623047"/>
      </g>
     </g>
    </g>
    <g id="ytick_5">
     <g id="line2d_23">
      <path d="M 53.03 77.995281 
L 709.2 77.995281 
" clip-path="url(#pcba7770e05)" style="fill: none; stroke: #b0b0b0; stroke-width: 0.8; stroke-linecap: square"/>
     </g>
     <g id="line2d_24">
      <g>
       <use xlink:href="#m7dae578397" x="53.03" y="77.995281" style="stroke: #000000; stroke-width: 0.8"/>
      </g>
     </g>
     <g id="text_13">
      <!-- 60 -->
      <g transform="translate(33.305 81.794499) scale(0.1 -0.1)">
       <defs>
        <path id="DejaVuSans-36" d="M 2113 2584 
Q 1688 2584 1439 2293 
Q 1191 2003 1191 1497 
Q 1191 994 1439 701 
Q 1688 409 2113 409 
Q 2538 409 2786 701 
Q 3034 994 3034 1497 
Q 3034 2003 2786 2293 
Q 2538 2584 2113 2584 
z
M 3366 4563 
L 3366 3988 
Q 3128 4100 2886 4159 
Q 2644 4219 2406 4219 
Q 1781 4219 1451 3797 
Q 1122 3375 1075 2522 
Q 1259 2794 1537 2939 
Q 1816 3084 2150 3084 
Q 2853 3084 3261 2657 
Q 3669 2231 3669 1497 
Q 3669 778 3244 343 
Q 2819 -91 2113 -91 
Q 1303 -91 875 529 
Q 447 1150 447 2328 
Q 447 3434 972 4092 
Q 1497 4750 2381 4750 
Q 2619 4750 2861 4703 
Q 3103 4656 3366 4563 
z
" transform="scale(0.015625)"/>
       </defs>
       <use xlink:href="#DejaVuSans-36"/>
       <use xlink:href="#DejaVuSans-30" x="63.623047"/>
      </g>
     </g>
    </g>
    <g id="text_14">
     <!-- Average Reward -->
     <g transform="translate(18.845625 248.482969) rotate(-90) scale(0.1 -0.1)">
      <defs>
       <path id="DejaVuSans-41" d="M 2188 4044 
L 1331 1722 
L 3047 1722 
L 2188 4044 
z
M 1831 4666 
L 2547 4666 
L 4325 0 
L 3669 0 
L 3244 1197 
L 1141 1197 
L 716 0 
L 50 0 
L 1831 4666 
z
" transform="scale(0.015625)"/>
       <path id="DejaVuSans-76" d="M 191 3500 
L 800 3500 
L 1894 563 
L 2988 3500 
L 3597 3500 
L 2284 0 
L 1503 0 
L 191 3500 
z
" transform="scale(0.015625)"/>
       <path id="DejaVuSans-72" d="M 2631 2963 
Q 2534 3019 2420 3045 
Q 2306 3072 2169 3072 
Q 1681 3072 1420 2755 
Q 1159 2438 1159 1844 
L 1159 0 
L 581 0 
L 581 3500 
L 1159 3500 
L 1159 2956 
Q 1341 3275 1631 3429 
Q 1922 3584 2338 3584 
Q 2397 3584 2469 3576 
Q 2541 3569 2628 3553 
L 2631 2963 
z
" transform="scale(0.015625)"/>
       <path id="DejaVuSans-61" d="M 2194 1759 
Q 1497 1759 1228 1600 
Q 959 1441 959 1056 
Q 959 750 1161 570 
Q 1363 391 1709 391 
Q 2188 391 2477 730 
Q 2766 1069 2766 1631 
L 2766 1759 
L 2194 1759 
z
M 3341 1997 
L 3341 0 
L 2766 0 
L 2766 531 
Q 2569 213 2275 61 
Q 1981 -91 1556 -91 
Q 1019 -91 701 211 
Q 384 513 384 1019 
Q 384 1609 779 1909 
Q 1175 2209 1959 2209 
L 2766 2209 
L 2766 2266 
Q 2766 2663 2505 2880 
Q 2244 3097 1772 3097 
Q 1472 3097 1187 3025 
Q 903 2953 641 2809 
L 641 3341 
Q 956 3463 1253 3523 
Q 1550 3584 1831 3584 
Q 2591 3584 2966 3190 
Q 3341 2797 3341 1997 
z
" transform="scale(0.015625)"/>
       <path id="DejaVuSans-67" d="M 2906 1791 
Q 2906 2416 2648 2759 
Q 2391 3103 1925 3103 
Q 1463 3103 1205 2759 
Q 947 2416 947 1791 
Q 947 1169 1205 825 
Q 1463 481 1925 481 
Q 2391 481 2648 825 
Q 2906 1169 2906 1791 
z
M 3481 434 
Q 3481 -459 3084 -895 
Q 2688 -1331 1869 -1331 
Q 1566 -1331 1297 -1286 
Q 1028 -1241 775 -1147 
L 775 -588 
Q 1028 -725 1275 -790 
Q 1522 -856 1778 -856 
Q 2344 -856 2625 -561 
Q 2906 -266 2906 331 
L 2906 616 
Q 2728 306 2450 153 
Q 2172 0 1784 0 
Q 1141 0 747 490 
Q 353 981 353 1791 
Q 353 2603 747 3093 
Q 1141 3584 1784 3584 
Q 2172 3584 2450 3431 
Q 2728 3278 2906 2969 
L 2906 3500 
L 3481 3500 
L 3481 434 
z
" transform="scale(0.015625)"/>
       <path id="DejaVuSans-20" transform="scale(0.015625)"/>
       <path id="DejaVuSans-52" d="M 2841 2188 
Q 3044 2119 3236 1894 
Q 3428 1669 3622 1275 
L 4263 0 
L 3584 0 
L 2988 1197 
Q 2756 1666 2539 1819 
Q 2322 1972 1947 1972 
L 1259 1972 
L 1259 0 
L 628 0 
L 628 4666 
L 2053 4666 
Q 2853 4666 3247 4331 
Q 3641 3997 3641 3322 
Q 3641 2881 3436 2590 
Q 3231 2300 2841 2188 
z
M 1259 4147 
L 1259 2491 
L 2053 2491 
Q 2509 2491 2742 2702 
Q 2975 2913 2975 3322 
Q 2975 3731 2742 3939 
Q 2509 4147 2053 4147 
L 1259 4147 
z
" transform="scale(0.015625)"/>
       <path id="DejaVuSans-77" d="M 269 3500 
L 844 3500 
L 1563 769 
L 2278 3500 
L 2956 3500 
L 3675 769 
L 4391 3500 
L 4966 3500 
L 4050 0 
L 3372 0 
L 2619 2869 
L 1863 0 
L 1184 0 
L 269 3500 
z
" transform="scale(0.015625)"/>
      </defs>
      <use xlink:href="#DejaVuSans-41"/>
      <use xlink:href="#DejaVuSans-76" x="62.533203"/>
      <use xlink:href="#DejaVuSans-65" x="121.712891"/>
      <use xlink:href="#DejaVuSans-72" x="183.236328"/>
      <use xlink:href="#DejaVuSans-61" x="224.349609"/>
      <use xlink:href="#DejaVuSans-67" x="285.628906"/>
      <use xlink:href="#DejaVuSans-65" x="349.105469"/>
      <use xlink:href="#DejaVuSans-20" x="410.628906"/>
      <use xlink:href="#DejaVuSans-52" x="442.416016"/>
      <use xlink:href="#DejaVuSans-65" x="507.398438"/>
      <use xlink:href="#DejaVuSans-77" x="568.921875"/>
      <use xlink:href="#DejaVuSans-61" x="650.708984"/>
      <use xlink:href="#DejaVuSans-72" x="711.988281"/>
      <use xlink:href="#DejaVuSans-64" x="751.351562"/>
     </g>
    </g>
   </g>
   <g id="line2d_25">
    <path d="M 82.855909 111.949736 
L 84.850953 90.505108 
L 86.845997 113.452107 
L 88.841041 111.949736 
L 90.836085 112.378667 
L 92.83113 108.16336 
L 94.826174 112.378667 
L 96.821218 110.747964 
L 98.816262 109.794064 
L 100.811306 83.369603 
L 102.80635 109.794064 
L 104.801394 110.747964 
L 106.796438 112.718556 
L 108.791482 92.528652 
L 110.786526 90.505108 
L 112.78157 106.36978 
L 114.776614 111.949736 
L 116.771659 89.590272 
L 118.766703 111.034901 
L 120.761747 112.378667 
L 122.756791 112.378667 
L 124.751835 133.642012 
L 126.746879 112.718556 
L 128.741923 108.16336 
L 130.736967 92.528652 
L 132.732011 112.378667 
L 134.727055 112.378667 
L 136.722099 109.794064 
L 138.717144 109.794064 
L 140.712188 112.378667 
L 142.707232 109.794064 
L 144.702276 109.794064 
L 146.69732 112.378667 
L 148.692364 109.794064 
L 150.687408 113.112218 
L 152.682452 110.747964 
L 154.677496 109.794064 
L 156.67254 108.16336 
L 158.667584 86.793887 
L 160.662628 109.794064 
L 162.657673 111.424767 
L 164.652717 108.16336 
L 166.647761 111.949736 
L 168.642805 110.747964 
L 170.637849 112.378667 
L 172.632893 111.949736 
L 174.627937 133.642012 
L 176.622981 108.16336 
L 178.618025 110.747964 
L 180.613069 112.378667 
L 182.608113 133.302123 
L 184.603157 111.949736 
L 186.598202 113.112218 
L 188.593246 113.112218 
L 190.58829 112.378667 
L 192.583334 111.034901 
L 194.578378 112.378667 
L 198.568466 112.378667 
L 200.56351 88.725414 
L 202.558554 112.718556 
L 204.553598 111.949736 
L 206.548642 112.378667 
L 210.538731 112.378667 
L 212.533775 112.718556 
L 214.528819 112.378667 
L 216.523863 111.424767 
L 218.518907 112.378667 
L 220.513951 111.949736 
L 222.508995 133.302123 
L 224.504039 112.378667 
L 226.499083 110.747964 
L 228.494127 107.32368 
L 230.489171 107.32368 
L 232.484216 109.794064 
L 234.47926 111.949736 
L 236.474304 88.725414 
L 238.469348 108.16336 
L 240.464392 86.793887 
L 242.459436 112.378667 
L 244.45448 109.794064 
L 246.449524 111.949736 
L 248.444568 88.725414 
L 250.439612 112.378667 
L 252.434656 112.378667 
L 254.429701 92.188763 
L 256.424745 108.16336 
L 258.419789 112.378667 
L 260.414833 92.188763 
L 262.409877 108.16336 
L 264.404921 92.188763 
L 266.399965 109.794064 
L 268.395009 109.794064 
L 270.390053 108.16336 
L 272.385097 108.16336 
L 274.380141 112.378667 
L 276.375185 112.718556 
L 278.37023 111.424767 
L 280.365274 109.794064 
L 282.360318 110.747964 
L 284.355362 109.794064 
L 286.350406 108.16336 
L 288.34545 111.424767 
L 290.340494 112.378667 
L 292.335538 108.16336 
L 294.330582 112.378667 
L 296.325626 108.16336 
L 298.32067 112.378667 
L 300.315715 112.718556 
L 302.310759 113.452107 
L 304.305803 109.794064 
L 306.300847 112.378667 
L 308.295891 111.424767 
L 310.290935 112.378667 
L 312.285979 111.424767 
L 314.281023 112.378667 
L 316.276067 108.16336 
L 318.271111 108.16336 
L 320.266155 133.642012 
L 322.261199 108.16336 
L 324.256244 112.378667 
L 326.251288 133.642012 
L 328.246332 110.747964 
L 330.241376 110.747964 
L 332.23642 112.378667 
L 334.231464 111.949736 
L 336.226508 110.747964 
L 338.221552 108.16336 
L 340.216596 110.747964 
L 342.21164 112.378667 
L 344.206684 133.302123 
L 346.201728 110.747964 
L 348.196773 92.188763 
L 350.191817 109.794064 
L 352.186861 111.949736 
L 354.181905 133.302123 
L 356.176949 111.949736 
L 358.171993 133.302123 
L 360.167037 110.747964 
L 362.162081 111.424767 
L 364.157125 110.747964 
L 366.152169 111.949736 
L 368.147213 111.949736 
L 370.142258 108.16336 
L 372.137302 112.378667 
L 374.132346 110.747964 
L 376.12739 108.16336 
L 378.122434 111.949736 
L 380.117478 112.378667 
L 384.107566 112.378667 
L 386.10261 108.16336 
L 388.097654 110.747964 
L 390.092698 112.378667 
L 392.087742 107.32368 
L 394.082787 111.424767 
L 396.077831 112.378667 
L 398.072875 110.747964 
L 400.067919 112.378667 
L 402.062963 112.378667 
L 404.058007 109.794064 
L 406.053051 112.378667 
L 408.048095 111.949736 
L 410.043139 111.949736 
L 412.038183 109.794064 
L 414.033227 111.949736 
L 416.028272 112.378667 
L 418.023316 108.16336 
L 420.01836 86.793887 
L 422.013404 111.949736 
L 424.008448 109.794064 
L 426.003492 111.949736 
L 427.998536 109.794064 
L 429.99358 112.378667 
L 435.978712 112.378667 
L 437.973756 111.034901 
L 439.968801 111.949736 
L 441.963845 110.747964 
L 443.958889 108.16336 
L 445.953933 109.794064 
L 447.948977 92.188763 
L 449.944021 90.505108 
L 451.939065 109.794064 
L 453.934109 110.747964 
L 455.929153 112.378667 
L 457.924197 111.949736 
L 459.919241 110.747964 
L 461.914285 110.747964 
L 463.90933 112.378667 
L 465.904374 90.505108 
L 467.899418 112.378667 
L 469.894462 108.16336 
L 471.889506 133.302123 
L 473.88455 112.718556 
L 475.879594 111.949736 
L 477.874638 108.16336 
L 479.869682 88.725414 
L 481.864726 112.378667 
L 483.85977 110.747964 
L 485.854815 89.590272 
L 487.849859 112.378667 
L 489.844903 111.949736 
L 491.839947 112.378667 
L 493.834991 109.794064 
L 495.830035 108.16336 
L 497.825079 133.302123 
L 499.820123 111.424767 
L 501.815167 112.378667 
L 503.810211 110.747964 
L 505.805255 111.949736 
L 507.800299 112.378667 
L 509.795344 112.378667 
L 511.790388 109.794064 
L 513.785432 112.378667 
L 515.780476 108.16336 
L 517.77552 112.378667 
L 519.770564 133.302123 
L 521.765608 110.747964 
L 523.760652 108.16336 
L 525.755696 112.378667 
L 527.75074 108.16336 
L 531.740829 111.424767 
L 533.735873 111.949736 
L 535.730917 110.747964 
L 537.725961 108.16336 
L 539.721005 112.378667 
L 541.716049 112.378667 
L 543.711093 133.302123 
L 545.706137 111.424767 
L 547.701181 109.794064 
L 549.696225 111.949736 
L 551.691269 90.505108 
L 553.686313 112.378667 
L 555.681358 112.378667 
L 557.676402 110.747964 
L 559.671446 112.378667 
L 561.66649 112.378667 
L 563.661534 111.424767 
L 565.656578 112.378667 
L 567.651622 110.747964 
L 569.646666 110.747964 
L 571.64171 112.378667 
L 575.631798 112.378667 
L 577.626843 111.424767 
L 579.621887 111.949736 
L 581.616931 109.794064 
L 583.611975 112.378667 
L 585.607019 111.949736 
L 587.602063 110.747964 
L 589.597107 92.188763 
L 591.592151 108.16336 
L 593.587195 111.424767 
L 595.582239 108.16336 
L 597.577283 109.794064 
L 599.572327 111.949736 
L 601.567372 109.794064 
L 603.562416 112.378667 
L 605.55746 112.378667 
L 607.552504 111.949736 
L 609.547548 112.378667 
L 611.542592 110.747964 
L 613.537636 111.949736 
L 615.53268 112.378667 
L 617.527724 108.16336 
L 619.522768 111.949736 
L 621.517812 112.378667 
L 623.512856 112.378667 
L 625.507901 111.949736 
L 627.502945 112.378667 
L 629.497989 111.949736 
L 631.493033 112.378667 
L 633.488077 110.747964 
L 635.483121 112.378667 
L 637.478165 109.794064 
L 639.473209 111.949736 
L 641.468253 112.378667 
L 643.463297 112.378667 
L 645.458341 111.949736 
L 647.453386 110.747964 
L 649.44843 112.378667 
L 651.443474 112.378667 
L 653.438518 92.188763 
L 655.433562 108.16336 
L 657.428606 112.378667 
L 659.42365 133.302123 
L 661.418694 111.949736 
L 663.413738 111.424767 
L 665.408782 111.949736 
L 667.403826 110.747964 
L 669.39887 108.16336 
L 671.393915 109.794064 
L 673.388959 111.949736 
L 675.384003 110.747964 
L 679.374091 110.747964 
L 679.374091 110.747964 
" clip-path="url(#pcba7770e05)" style="fill: none; stroke: #1f77b4; stroke-width: 1.5; stroke-linecap: square"/>
   </g>
   <g id="line2d_26">
    <path d="M 82.855909 76.236757 
L 84.850953 59.909736 
L 86.845997 114.985861 
L 88.841041 68.462488 
L 90.836085 49.6377 
L 92.83113 57.10336 
L 94.826174 97.616831 
L 96.821218 64.857171 
L 98.816262 43.130463 
L 100.811306 62.483617 
L 102.80635 77.561269 
L 104.801394 64.857171 
L 106.796438 94.908108 
L 108.791482 90.997724 
L 110.786526 80.466864 
L 112.78157 78.738599 
L 114.776614 68.462488 
L 116.771659 126.238819 
L 118.766703 77.722646 
L 120.761747 81.8243 
L 122.756791 92.575012 
L 124.751835 123.101113 
L 126.746879 109.028313 
L 128.741923 57.10336 
L 130.736967 119.660134 
L 132.732011 101.895366 
L 134.727055 92.575012 
L 136.722099 61.99547 
L 138.717144 69.039049 
L 140.712188 66.225091 
L 142.707232 50.057557 
L 144.702276 69.039049 
L 146.69732 69.749282 
L 148.692364 61.99547 
L 150.687408 97.977781 
L 152.682452 64.857171 
L 154.677496 61.99547 
L 156.67254 57.10336 
L 158.667584 70.87174 
L 160.662628 61.99547 
L 162.657673 66.887581 
L 164.652717 57.10336 
L 166.647761 68.462488 
L 168.642805 64.857171 
L 170.637849 108.367544 
L 172.632893 68.462488 
L 174.627937 75.121982 
L 176.622981 57.10336 
L 178.618025 64.857171 
L 180.613069 88.255962 
L 182.608113 98.056469 
L 184.603157 68.462488 
L 186.598202 111.005584 
L 188.593246 108.766523 
L 190.58829 80.499994 
L 192.583334 71.793946 
L 194.578378 65.430232 
L 196.573422 96.292526 
L 198.568466 69.749282 
L 200.56351 78.950352 
L 202.558554 79.001394 
L 204.553598 68.462488 
L 206.548642 81.8243 
L 208.543687 69.749282 
L 210.538731 97.616831 
L 212.533775 89.752106 
L 214.528819 97.616831 
L 216.523863 80.573649 
L 218.518907 68.102289 
L 220.513951 68.462488 
L 222.508995 74.832422 
L 224.504039 66.984552 
L 226.499083 64.857171 
L 228.494127 63.873533 
L 230.489171 82.718036 
L 232.484216 61.99547 
L 234.47926 57.90529 
L 236.474304 71.746731 
L 238.469348 57.10336 
L 240.464392 85.462254 
L 242.459436 49.6377 
L 244.45448 61.99547 
L 246.449524 68.462488 
L 248.444568 107.669301 
L 250.439612 108.367544 
L 252.434656 81.8243 
L 254.429701 75.982076 
L 256.424745 57.10336 
L 258.419789 96.134316 
L 260.414833 84.545978 
L 262.409877 57.10336 
L 264.404921 105.25202 
L 266.399965 61.99547 
L 268.395009 50.057557 
L 270.390053 57.10336 
L 272.385097 57.10336 
L 274.380141 60.388412 
L 276.375185 105.544638 
L 278.37023 66.887581 
L 280.365274 46.907062 
L 282.360318 64.857171 
L 284.355362 61.99547 
L 286.350406 57.10336 
L 288.34545 66.887581 
L 290.340494 80.499994 
L 292.335538 57.10336 
L 294.330582 61.712718 
L 296.325626 57.10336 
L 298.32067 80.499994 
L 300.315715 84.762444 
L 302.310759 80.199295 
L 304.305803 46.907062 
L 306.300847 97.654861 
L 308.295891 73.550162 
L 310.290935 65.430232 
L 312.285979 66.887581 
L 314.281023 69.749282 
L 316.276067 57.10336 
L 318.271111 57.10336 
L 320.266155 75.121982 
L 322.261199 57.10336 
L 324.256244 60.388412 
L 326.251288 75.121982 
L 328.246332 64.857171 
L 330.241376 64.857171 
L 332.23642 85.579843 
L 334.231464 68.462488 
L 336.226508 64.857171 
L 338.221552 57.10336 
L 340.216596 64.857171 
L 342.21164 80.499994 
L 344.206684 75.91194 
L 346.201728 64.857171 
L 348.196773 72.384742 
L 350.191817 69.039049 
L 352.186861 68.462488 
L 354.181905 101.773983 
L 356.176949 68.462488 
L 358.171993 105.013515 
L 360.167037 66.22838 
L 362.162081 66.887581 
L 364.157125 64.857171 
L 366.152169 68.462488 
L 368.147213 68.462488 
L 370.142258 57.10336 
L 372.137302 85.541813 
L 374.132346 64.857171 
L 376.12739 57.10336 
L 378.122434 82.788595 
L 380.117478 60.388412 
L 382.112522 80.499994 
L 384.107566 69.749282 
L 386.10261 57.10336 
L 388.097654 64.857171 
L 392.087742 74.556722 
L 394.082787 66.887581 
L 396.077831 69.749282 
L 398.072875 64.857171 
L 400.067919 80.499994 
L 402.062963 69.749282 
L 404.058007 61.99547 
L 406.053051 69.749282 
L 408.048095 68.462488 
L 410.043139 68.462488 
L 412.038183 61.99547 
L 414.033227 68.462488 
L 416.028272 81.8243 
L 418.023316 57.10336 
L 420.01836 77.300939 
L 422.013404 68.462488 
L 424.008448 61.99547 
L 426.003492 68.462488 
L 427.998536 50.057557 
L 429.99358 96.292526 
L 431.988624 81.8243 
L 433.983668 56.23384 
L 435.978712 49.6377 
L 437.973756 84.326831 
L 439.968801 68.462488 
L 441.963845 64.857171 
L 443.958889 57.10336 
L 445.953933 42.012727 
L 447.948977 89.459488 
L 449.944021 80.466864 
L 451.939065 61.99547 
L 453.934109 64.857171 
L 455.929153 69.749282 
L 457.924197 76.18441 
L 459.919241 64.857171 
L 461.914285 64.857171 
L 463.90933 85.541813 
L 465.904374 95.602148 
L 467.899418 81.8243 
L 469.894462 57.10336 
L 471.889506 65.869869 
L 473.88455 94.793926 
L 475.879594 68.462488 
L 477.874638 57.10336 
L 479.869682 85.612933 
L 481.864726 87.45704 
L 483.85977 64.857171 
L 485.854815 81.55328 
L 487.849859 76.345422 
L 489.844903 68.462488 
L 491.839947 69.749282 
L 493.834991 61.99547 
L 495.830035 57.10336 
L 497.825079 92.577592 
L 499.820123 66.887581 
L 501.815167 49.6377 
L 503.810211 64.857171 
L 505.805255 68.462488 
L 507.800299 49.6377 
L 509.795344 76.706328 
L 511.790388 61.99547 
L 513.785432 81.8243 
L 515.780476 57.10336 
L 517.77552 77.463158 
L 519.770564 68.992923 
L 521.765608 54.173982 
L 523.760652 57.10336 
L 525.755696 59.67977 
L 527.75074 57.10336 
L 529.745784 61.99547 
L 531.740829 73.550162 
L 533.735873 75.066674 
L 535.730917 51.023487 
L 537.725961 57.10336 
L 539.721005 80.499994 
L 541.716049 88.21387 
L 543.711093 93.695328 
L 545.706137 66.887581 
L 547.701181 50.057557 
L 549.696225 68.462488 
L 551.691269 80.466864 
L 553.686313 81.8243 
L 555.681358 69.749282 
L 557.676402 64.857171 
L 559.671446 69.749282 
L 561.66649 69.749282 
L 563.661534 66.887581 
L 565.656578 75.472302 
L 567.651622 64.857171 
L 569.646666 64.857171 
L 571.64171 80.499994 
L 573.636754 69.749282 
L 575.631798 69.749282 
L 577.626843 66.887581 
L 579.621887 68.462488 
L 581.616931 50.057557 
L 583.611975 69.749282 
L 585.607019 68.462488 
L 587.602063 64.857171 
L 589.597107 81.745612 
L 591.592151 57.10336 
L 593.587195 66.887581 
L 595.582239 57.10336 
L 597.577283 61.99547 
L 599.572327 68.462488 
L 601.567372 61.99547 
L 603.562416 69.749282 
L 605.55746 73.580977 
L 607.552504 68.462488 
L 609.547548 59.67977 
L 611.542592 64.857171 
L 613.537636 68.462488 
L 615.53268 69.749282 
L 617.527724 57.10336 
L 619.522768 68.462488 
L 621.517812 69.749282 
L 623.512856 69.749282 
L 625.507901 68.462488 
L 627.502945 69.749282 
L 629.497989 68.462488 
L 631.493033 69.749282 
L 633.488077 64.857171 
L 635.483121 69.749282 
L 637.478165 61.99547 
L 639.473209 68.462488 
L 641.468253 69.749282 
L 643.463297 69.749282 
L 645.458341 68.462488 
L 647.453386 64.857171 
L 649.44843 81.8243 
L 651.443474 69.749282 
L 653.438518 81.745612 
L 655.433562 57.10336 
L 657.428606 69.749282 
L 659.42365 85.981451 
L 661.418694 68.462488 
L 663.413738 66.887581 
L 665.408782 57.138253 
L 667.403826 64.857171 
L 669.39887 57.10336 
L 671.393915 50.174042 
L 673.388959 68.462488 
L 675.384003 64.857171 
L 679.374091 64.857171 
L 679.374091 64.857171 
" clip-path="url(#pcba7770e05)" style="fill: none; stroke: #ff7f0e; stroke-width: 1.5; stroke-linecap: square"/>
   </g>
   <g id="line2d_27">
    <path d="M 82.855909 268.587878 
L 84.850953 268.587878 
L 86.845997 329.410631 
L 88.841041 260.714484 
L 90.836085 328.626429 
L 92.83113 207.310288 
L 94.826174 328.155907 
L 96.821218 249.421967 
L 98.816262 219.622268 
L 100.811306 252.056888 
L 102.80635 226.20957 
L 104.801394 253.311612 
L 106.796438 323.293851 
L 108.791482 329.09695 
L 110.786526 272.03837 
L 112.78157 221.269094 
L 114.776614 260.714484 
L 116.771659 268.587878 
L 118.766703 267.019473 
L 120.761747 329.09695 
L 122.756791 327.685386 
L 124.751835 329.410631 
L 126.746879 323.293851 
L 128.741923 207.310288 
L 130.736967 329.724312 
L 132.732011 323.293851 
L 134.727055 327.371705 
L 136.722099 229.0327 
L 138.717144 221.190674 
L 140.712188 323.293851 
L 142.707232 219.622268 
L 144.702276 219.622268 
L 146.69732 327.058023 
L 148.692364 229.0327 
L 150.687408 328.94011 
L 152.682452 251.931415 
L 156.67254 207.310288 
L 158.667584 252.056888 
L 160.662628 229.0327 
L 162.657673 252.166676 
L 164.652717 207.310288 
L 166.647761 262.910252 
L 168.642805 251.931415 
L 170.637849 328.783269 
L 172.632893 261.655527 
L 174.627937 329.09695 
L 176.622981 216.328618 
L 178.618025 249.421967 
L 180.613069 327.842226 
L 182.608113 329.253791 
L 184.603157 260.714484 
L 186.598202 329.410631 
L 188.593246 329.881153 
L 190.58829 327.371705 
L 192.583334 268.587878 
L 194.578378 328.626429 
L 196.573422 328.94011 
L 198.568466 329.410631 
L 200.56351 254.472232 
L 202.558554 329.567472 
L 204.553598 262.910252 
L 206.548642 329.567472 
L 208.543687 327.685386 
L 210.538731 329.09695 
L 212.533775 329.724312 
L 214.528819 328.155907 
L 216.523863 251.100161 
L 218.518907 329.410631 
L 220.513951 260.714484 
L 222.508995 323.293851 
L 224.504039 329.567472 
L 226.499083 249.421967 
L 228.494127 254.817281 
L 230.489171 253.311612 
L 232.484216 223.700122 
L 234.47926 268.587878 
L 236.474304 251.100161 
L 238.469348 216.563878 
L 240.464392 254.566336 
L 242.459436 328.312748 
L 244.45448 222.602238 
L 246.449524 260.714484 
L 248.444568 255.178014 
L 250.439612 328.626429 
L 252.434656 327.058023 
L 254.429701 323.293851 
L 256.424745 219.073327 
L 258.419789 329.724312 
L 260.414833 323.293851 
L 262.409877 207.310288 
L 264.404921 329.253791 
L 266.399965 221.818036 
L 268.395009 221.190674 
L 270.390053 207.310288 
L 272.385097 216.328618 
L 274.380141 328.783269 
L 276.375185 323.293851 
L 278.37023 248.951445 
L 280.365274 220.09279 
L 282.360318 249.421967 
L 284.355362 228.875859 
L 286.350406 219.073327 
L 288.34545 248.951445 
L 290.340494 327.214864 
L 292.335538 215.13663 
L 294.330582 329.253791 
L 296.325626 215.073893 
L 298.32067 328.783269 
L 300.315715 323.293851 
L 302.310759 329.724312 
L 304.305803 219.622268 
L 306.300847 323.293851 
L 308.295891 255.099594 
L 310.290935 327.528545 
L 312.285979 248.951445 
L 314.281023 327.214864 
L 316.276067 219.073327 
L 318.271111 214.666108 
L 320.266155 329.567472 
L 322.261199 216.328618 
L 324.256244 328.94011 
L 326.251288 329.567472 
L 328.246332 251.931415 
L 330.241376 251.931415 
L 332.23642 323.293851 
L 334.231464 260.714484 
L 336.226508 254.440864 
L 338.221552 214.901369 
L 340.216596 253.029299 
L 342.21164 326.901183 
L 344.206684 323.293851 
L 346.201728 251.931415 
L 348.196773 329.567472 
L 350.191817 221.190674 
L 352.186861 267.960516 
L 354.181905 329.09695 
L 356.176949 260.714484 
L 358.171993 323.293851 
L 360.167037 252.056888 
L 362.162081 252.401937 
L 364.157125 249.421967 
L 366.152169 262.910252 
L 368.147213 260.714484 
L 370.142258 216.328618 
L 372.137302 328.626429 
L 374.132346 253.311612 
L 376.12739 207.310288 
L 378.122434 262.784779 
L 380.117478 327.999067 
L 382.112522 327.999067 
L 384.107566 327.371705 
L 386.10261 214.901369 
L 388.097654 248.951445 
L 390.092698 327.371705 
L 392.087742 253.311612 
L 394.082787 248.951445 
L 396.077831 328.312748 
L 398.072875 251.931415 
L 400.067919 327.685386 
L 402.062963 327.058023 
L 404.058007 227.777975 
L 406.053051 329.253791 
L 408.048095 262.910252 
L 410.043139 266.862633 
L 412.038183 229.0327 
L 414.033227 260.714484 
L 416.028272 329.567472 
L 418.023316 216.328618 
L 420.01836 251.586366 
L 422.013404 260.714484 
L 424.008448 227.777975 
L 426.003492 260.714484 
L 427.998536 221.190674 
L 429.99358 329.410631 
L 431.988624 328.783269 
L 433.983668 323.293851 
L 435.978712 323.293851 
L 437.973756 268.274197 
L 439.968801 261.655527 
L 441.963845 251.931415 
L 443.958889 219.073327 
L 445.953933 219.622268 
L 447.948977 329.410631 
L 449.944021 267.803676 
L 451.939065 227.777975 
L 453.934109 251.931415 
L 455.929153 328.783269 
L 457.924197 268.117357 
L 459.919241 251.931415 
L 461.914285 249.421967 
L 463.90933 329.881153 
L 465.904374 268.431038 
L 467.899418 329.253791 
L 469.894462 217.646078 
L 471.889506 329.410631 
L 473.88455 323.293851 
L 475.879594 260.714484 
L 477.874638 207.310288 
L 479.869682 251.805943 
L 481.864726 329.881153 
L 483.85977 251.931415 
L 485.854815 267.489995 
L 487.849859 329.724312 
L 489.844903 268.744719 
L 491.839947 327.999067 
L 493.834991 221.425934 
L 495.830035 216.328618 
L 497.825079 329.881153 
L 499.820123 252.166676 
L 501.815167 329.09695 
L 503.810211 252.056888 
L 505.805255 262.910252 
L 507.800299 329.09695 
L 509.795344 323.293851 
L 511.790388 229.0327 
L 513.785432 327.371705 
L 515.780476 219.073327 
L 517.77552 329.881153 
L 519.770564 323.293851 
L 521.765608 252.056888 
L 523.760652 219.073327 
L 525.755696 323.293851 
L 527.75074 219.073327 
L 529.745784 229.0327 
L 531.740829 254.785913 
L 533.735873 267.489995 
L 535.730917 252.056888 
L 537.725961 207.310288 
L 539.721005 328.94011 
L 541.716049 329.881153 
L 543.711093 329.410631 
L 545.706137 250.911952 
L 547.701181 221.347514 
L 549.696225 260.714484 
L 551.691269 272.352051 
L 553.686313 329.09695 
L 555.681358 327.842226 
L 557.676402 248.951445 
L 559.671446 326.901183 
L 561.66649 323.293851 
L 563.661534 250.911952 
L 565.656578 323.293851 
L 567.651622 249.421967 
L 569.646666 251.931415 
L 571.64171 328.312748 
L 573.636754 329.09695 
L 575.631798 329.410631 
L 577.626843 254.472232 
L 579.621887 260.714484 
L 581.616931 221.190674 
L 583.611975 329.881153 
L 585.607019 267.489995 
L 587.602063 254.440864 
L 589.597107 329.09695 
L 591.592151 219.073327 
L 593.587195 252.166676 
L 595.582239 216.328618 
L 597.577283 229.0327 
L 599.572327 268.117357 
L 601.567372 229.0327 
L 603.562416 329.567472 
L 605.55746 329.881153 
L 607.552504 260.714484 
L 609.547548 323.293851 
L 611.542592 249.421967 
L 613.537636 262.910252 
L 615.53268 323.293851 
L 617.527724 214.666108 
L 619.522768 262.910252 
L 621.517812 328.155907 
L 623.512856 328.94011 
L 625.507901 262.910252 
L 627.502945 328.783269 
L 629.497989 260.714484 
L 631.493033 323.293851 
L 633.488077 254.440864 
L 635.483121 329.09695 
L 637.478165 227.777975 
L 639.473209 268.117357 
L 641.468253 328.783269 
L 643.463297 323.293851 
L 645.458341 271.881529 
L 647.453386 249.421967 
L 649.44843 329.881153 
L 651.443474 327.842226 
L 653.438518 329.410631 
L 655.433562 214.901369 
L 657.428606 323.293851 
L 659.42365 329.09695 
L 661.418694 260.714484 
L 663.413738 251.805943 
L 665.408782 268.431038 
L 667.403826 251.586366 
L 669.39887 207.310288 
L 671.393915 219.622268 
L 673.388959 267.960516 
L 675.384003 251.931415 
L 677.379047 251.931415 
L 679.374091 251.586366 
L 679.374091 251.586366 
" clip-path="url(#pcba7770e05)" style="fill: none; stroke: #2ca02c; stroke-width: 1.5; stroke-linecap: square"/>
   </g>
   <g id="line2d_28">
    <path d="M 82.855909 330.597961 
L 84.850953 332.463199 
L 86.845997 352.750352 
L 88.841041 285.495286 
L 90.836085 304.244714 
L 92.83113 283.6132 
L 94.826174 307.081816 
L 96.821218 280.319549 
L 98.816262 299.52666 
L 100.811306 315.958094 
L 102.80635 260.871325 
L 104.801394 283.142678 
L 106.796438 357.683842 
L 108.791482 328.412127 
L 110.786526 295.986752 
L 112.78157 277.966941 
L 114.776614 296.787803 
L 116.771659 359.702903 
L 118.766703 303.358257 
L 120.761747 317.191043 
L 122.756791 308.022859 
L 124.751835 346.705006 
L 126.746879 373.467273 
L 128.741923 289.72998 
L 130.736967 366.167202 
L 132.732011 368.206129 
L 134.727055 289.273431 
L 136.722099 283.142678 
L 138.717144 292.239428 
L 140.712188 357.683842 
L 142.707232 281.807583 
L 144.702276 273.571505 
L 146.69732 289.501706 
L 148.692364 263.380773 
L 150.687408 315.237523 
L 152.682452 279.378506 
L 154.677496 273.261726 
L 156.67254 261.498687 
L 158.667584 310.302899 
L 160.662628 253.49982 
L 162.657673 293.023631 
L 164.652717 278.907984 
L 166.647761 276.084855 
L 168.642805 272.791204 
L 170.637849 320.028145 
L 172.632893 256.32295 
L 174.627937 333.51643 
L 176.622981 283.6132 
L 178.618025 259.616601 
L 180.613069 308.578787 
L 182.608113 329.124895 
L 184.603157 276.084855 
L 186.598202 365.53984 
L 188.593246 349.91325 
L 190.58829 284.568216 
L 192.583334 347.659881 
L 194.578378 301.03647 
L 196.573422 320.883782 
L 198.568466 316.406841 
L 200.56351 281.727212 
L 202.558554 319.22997 
L 204.553598 297.728847 
L 206.548642 321.197463 
L 208.543687 302.362628 
L 210.538731 325.902678 
L 212.533775 337.052328 
L 214.528819 312.956349 
L 216.523863 316.851686 
L 218.518907 338.535326 
L 220.513951 270.909118 
L 222.508995 355.174394 
L 224.504039 344.266991 
L 226.499083 283.6132 
L 228.494127 301.206149 
L 230.489171 279.55322 
L 232.484216 284.083721 
L 234.47926 317.613895 
L 236.474304 325.15643 
L 238.469348 236.090523 
L 240.464392 285.670001 
L 242.459436 301.421585 
L 244.45448 264.321816 
L 246.449524 268.55651 
L 248.444568 347.41608 
L 250.439612 312.414394 
L 252.434656 310.047813 
L 254.429701 357.683842 
L 256.424745 283.142678 
L 258.419789 339.319529 
L 260.414833 349.91325 
L 262.409877 250.676691 
L 264.404921 332.418546 
L 266.399965 293.964674 
L 268.395009 272.948045 
L 270.390053 261.498687 
L 272.385097 265.262859 
L 274.380141 310.532308 
L 276.375185 342.142658 
L 278.37023 265.262859 
L 280.365274 265.80985 
L 282.360318 262.43973 
L 284.355362 265.733381 
L 286.350406 253.49982 
L 288.34545 263.380773 
L 290.340494 295.233371 
L 292.335538 261.812368 
L 294.330582 332.176299 
L 296.325626 266.203902 
L 298.32067 301.892107 
L 300.315715 360.435537 
L 302.310759 355.644915 
L 304.305803 282.905467 
L 306.300847 349.91325 
L 308.295891 304.939609 
L 310.290935 323.478637 
L 312.285979 256.793471 
L 314.281023 279.463912 
L 316.276067 253.49982 
L 318.271111 268.55651 
L 320.266155 342.541746 
L 322.261199 245.971476 
L 324.256244 327.941605 
L 326.251288 332.803661 
L 328.246332 262.910252 
L 330.241376 208.329751 
L 332.23642 347.403802 
L 334.231464 267.615467 
L 336.226508 243.618868 
L 338.221552 275.300652 
L 340.216596 226.20957 
L 342.21164 296.089007 
L 344.206684 342.142658 
L 346.201728 285.965808 
L 348.196773 338.064805 
L 350.191817 246.128316 
L 352.186861 287.220532 
L 354.181905 321.354303 
L 356.176949 242.207303 
L 358.171993 334.372066 
L 360.167037 301.215086 
L 362.162081 263.223933 
L 364.157125 231.385307 
L 366.152169 212.093924 
L 368.147213 258.205036 
L 370.142258 234.678958 
L 372.137302 303.774193 
L 374.132346 293.807834 
L 376.12739 255.381907 
L 378.122434 301.599314 
L 380.117478 304.17328 
L 382.112522 295.07653 
L 384.107566 263.223933 
L 386.10261 274.51645 
L 388.097654 246.912519 
L 390.092698 293.351285 
L 392.087742 264.487594 
L 394.082787 253.49982 
L 396.077831 293.650993 
L 398.072875 237.972609 
L 400.067919 273.817654 
L 402.062963 266.517583 
L 404.058007 237.502088 
L 406.053051 314.90987 
L 408.048095 228.091656 
L 410.043139 273.889088 
L 412.038183 253.49982 
L 414.033227 276.084855 
L 416.028272 316.478275 
L 418.023316 224.327484 
L 420.01836 307.000311 
L 422.013404 244.089389 
L 424.008448 211.152881 
L 426.003492 283.142678 
L 427.998536 232.012669 
L 429.99358 318.916289 
L 431.988624 309.890973 
L 433.983668 344.652106 
L 435.978712 329.110923 
L 437.973756 286.559473 
L 439.968801 260.087122 
L 441.963845 205.506622 
L 443.958889 223.856962 
L 445.953933 260.15969 
L 447.948977 328.412127 
L 451.939065 232.796872 
L 453.934109 224.798006 
L 455.929153 306.198235 
L 457.924197 281.243744 
L 459.919241 260.087122 
L 461.914285 226.20957 
L 463.90933 334.372066 
L 465.904374 345.604105 
L 467.899418 315.936319 
L 469.894462 235.14948 
L 471.889506 315.622638 
L 473.88455 334.372066 
L 475.879594 260.557644 
L 477.874638 234.208437 
L 479.869682 309.793862 
L 481.864726 334.372066 
L 483.85977 210.211837 
L 485.854815 298.933025 
L 487.849859 321.02665 
L 489.844903 282.201635 
L 491.839947 301.336179 
L 493.834991 209.113954 
L 495.830035 222.915919 
L 497.825079 334.372066 
L 499.820123 194.214105 
L 501.815167 306.911003 
L 503.810211 270.438596 
L 505.805255 229.0327 
L 507.800299 306.754163 
L 509.795344 324.092026 
L 511.790388 194.214105 
L 513.785432 283.940853 
L 515.780476 233.737915 
L 517.77552 321.340331 
L 519.770564 344.652106 
L 521.765608 269.50649 
L 523.760652 213.97601 
L 525.755696 321.340331 
L 527.75074 213.97601 
L 529.745784 204.095057 
L 531.740829 279.060924 
L 533.735873 291.752058 
L 535.730917 288.954714 
L 537.725961 217.269661 
L 539.721005 300.637382 
L 541.716049 331.620371 
L 543.711093 315.622638 
L 545.706137 225.268527 
L 547.701181 241.813251 
L 549.696225 246.441997 
L 551.691269 283.439511 
L 553.686313 302.83315 
L 555.681358 281.81652 
L 557.676402 240.325217 
L 559.671446 240.325217 
L 561.66649 323.849779 
L 563.661534 193.743583 
L 565.656578 326.601474 
L 567.651622 228.091656 
L 569.646666 200.330885 
L 571.64171 294.050081 
L 573.636754 298.356209 
L 575.631798 305.100351 
L 577.626843 266.988105 
L 579.621887 261.028165 
L 581.616931 212.250764 
L 583.611975 316.079187 
L 585.607019 284.083721 
L 587.602063 174.452199 
L 589.597107 310.603742 
L 591.592151 194.214105 
L 593.587195 164.571247 
L 595.582239 199.860363 
L 597.577283 184.333152 
L 599.572327 294.748877 
L 601.567372 164.571247 
L 603.562416 307.92348 
L 605.55746 331.862618 
L 607.552504 232.32635 
L 609.547548 321.340331 
L 611.542592 214.446531 
L 613.537636 203.624536 
L 615.53268 311.060291 
L 617.527724 248.637764 
L 619.522768 191.861497 
L 621.517812 273.104885 
L 623.512856 300.637382 
L 625.507901 200.330885 
L 627.502945 285.652127 
L 629.497989 220.09279 
L 631.493033 316.079187 
L 633.488077 164.571247 
L 635.483121 307.224684 
L 637.478165 187.156281 
L 639.473209 263.223933 
L 641.468253 288.161575 
L 643.463297 316.079187 
L 645.458341 267.301786 
L 647.453386 224.798006 
L 649.44843 321.340331 
L 651.443474 267.458627 
L 653.438518 312.870943 
L 655.433562 231.698988 
L 657.428606 316.079187 
L 659.42365 304.715236 
L 661.418694 241.736782 
L 663.413738 276.555377 
L 665.408782 306.808748 
L 667.403826 291.141545 
L 669.39887 198.448799 
L 671.393915 260.155789 
L 673.388959 255.695588 
L 675.384003 187.156281 
L 677.379047 187.156281 
L 679.374091 288.318415 
L 679.374091 288.318415 
" clip-path="url(#pcba7770e05)" style="fill: none; stroke: #d62728; stroke-width: 1.5; stroke-linecap: square"/>
   </g>
   <g id="line2d_29">
    <path d="M 82.855909 240.795738 
L 86.845997 240.795738 
L 88.841041 209.741316 
L 90.836085 237.031566 
L 92.83113 183.392109 
L 94.826174 236.090523 
L 96.821218 203.154014 
L 98.816262 218.838066 
L 100.811306 218.838066 
L 102.80635 178.686893 
L 104.801394 218.210704 
L 106.796438 241.423101 
L 108.791482 240.795738 
L 110.786526 239.541014 
L 112.78157 202.212971 
L 114.776614 205.0361 
L 116.771659 240.795738 
L 118.766703 238.913652 
L 120.761747 239.854695 
L 122.756791 234.208437 
L 124.751835 240.795738 
L 126.746879 241.423101 
L 128.741923 173.981678 
L 130.736967 241.423101 
L 132.732011 241.423101 
L 134.727055 231.385307 
L 136.722099 127.870565 
L 138.717144 169.276462 
L 140.712188 241.423101 
L 142.707232 218.838066 
L 144.702276 218.838066 
L 146.69732 211.937083 
L 148.692364 127.870565 
L 150.687408 238.913652 
L 152.682452 157.983945 
L 154.677496 127.870565 
L 156.67254 169.276462 
L 158.667584 234.835799 
L 160.662628 127.870565 
L 162.657673 127.870565 
L 164.652717 188.097324 
L 166.647761 174.922721 
L 168.642805 157.983945 
L 170.637849 237.972609 
L 172.632893 196.566712 
L 174.627937 239.854695 
L 176.622981 143.868298 
L 178.618025 179.627936 
L 180.613069 237.031566 
L 182.608113 240.795738 
L 184.603157 212.564445 
L 186.598202 240.795738 
L 188.593246 241.423101 
L 190.58829 233.267394 
L 192.583334 240.795738 
L 194.578378 236.090523 
L 196.573422 237.972609 
L 198.568466 240.795738 
L 200.56351 219.151747 
L 202.558554 241.423101 
L 204.553598 163.630203 
L 206.548642 241.423101 
L 208.543687 234.208437 
L 210.538731 240.795738 
L 212.533775 241.423101 
L 214.528819 237.972609 
L 216.523863 239.541014 
L 218.518907 240.795738 
L 220.513951 210.682359 
L 222.508995 241.423101 
L 224.504039 241.423101 
L 226.499083 183.392109 
L 228.494127 237.658928 
L 230.489171 218.210704 
L 232.484216 167.394376 
L 234.47926 240.795738 
L 236.474304 239.541014 
L 238.469348 130.693695 
L 240.464392 218.210704 
L 242.459436 237.972609 
L 244.45448 167.394376 
L 248.444568 240.168376 
L 250.439612 237.031566 
L 252.434656 211.937083 
L 254.429701 241.423101 
L 256.424745 127.870565 
L 258.419789 241.423101 
L 260.414833 241.423101 
L 262.409877 183.392109 
L 264.404921 240.795738 
L 266.399965 223.543281 
L 268.395009 178.686893 
L 270.390053 169.276462 
L 272.385097 139.163083 
L 274.380141 237.972609 
L 276.375185 241.423101 
L 278.37023 218.210704 
L 280.365274 206.604505 
L 282.360318 173.981678 
L 284.355362 148.573514 
L 286.350406 127.870565 
L 288.34545 213.505488 
L 290.340494 230.444264 
L 292.335538 214.13285 
L 294.330582 240.795738 
L 296.325626 154.219772 
L 298.32067 238.913652 
L 300.315715 241.423101 
L 302.310759 241.423101 
L 304.305803 228.248497 
L 306.300847 241.423101 
L 308.295891 230.130583 
L 310.290935 233.267394 
L 312.285979 213.505488 
L 314.281023 231.385307 
L 316.276067 127.870565 
L 318.271111 218.838066 
L 320.266155 241.423101 
L 322.261199 148.573514 
L 324.256244 239.854695 
L 326.251288 241.423101 
L 328.246332 157.983945 
L 330.241376 139.163083 
L 332.23642 241.423101 
L 334.231464 210.682359 
L 336.226508 127.870565 
L 338.221552 215.073893 
L 340.216596 148.573514 
L 342.21164 205.663462 
L 344.206684 241.423101 
L 346.201728 157.983945 
L 348.196773 241.423101 
L 350.191817 202.212971 
L 352.186861 230.444264 
L 354.181905 238.913652 
L 356.176949 216.328618 
L 358.171993 241.423101 
L 360.167037 218.838066 
L 362.162081 229.503221 
L 364.157125 192.80254 
L 366.152169 148.573514 
L 368.147213 213.505488 
L 370.142258 153.278729 
L 372.137302 237.972609 
L 374.132346 218.210704 
L 376.12739 157.042902 
L 378.122434 239.541014 
L 380.117478 237.031566 
L 382.112522 237.031566 
L 384.107566 233.267394 
L 386.10261 216.95598 
L 388.097654 213.505488 
L 390.092698 231.385307 
L 392.087742 218.210704 
L 394.082787 213.505488 
L 396.077831 237.972609 
L 398.072875 153.278729 
L 400.067919 235.14948 
L 402.062963 221.347514 
L 404.058007 143.868298 
L 406.053051 240.795738 
L 408.048095 157.042902 
L 410.043139 238.913652 
L 412.038183 127.870565 
L 414.033227 196.566712 
L 416.028272 241.423101 
L 418.023316 143.868298 
L 420.01836 239.541014 
L 422.013404 205.0361 
L 424.008448 143.868298 
L 426.003492 229.503221 
L 427.998536 183.392109 
L 429.99358 240.795738 
L 431.988624 237.972609 
L 433.983668 241.423101 
L 435.978712 241.423101 
L 437.973756 237.031566 
L 439.968801 179.627936 
L 441.963845 144.809341 
L 443.958889 127.870565 
L 445.953933 218.838066 
L 447.948977 240.795738 
L 449.944021 229.503221 
L 451.939065 148.573514 
L 453.934109 153.278729 
L 455.929153 237.972609 
L 457.924197 230.444264 
L 459.919241 145.750384 
L 461.914285 173.981678 
L 463.90933 241.423101 
L 465.904374 240.168376 
L 467.899418 239.854695 
L 469.894462 193.429902 
L 471.889506 240.795738 
L 473.88455 241.423101 
L 475.879594 205.0361 
L 477.874638 183.392109 
L 479.869682 230.130583 
L 481.864726 241.423101 
L 483.85977 157.983945 
L 485.854815 239.541014 
L 487.849859 241.423101 
L 489.844903 235.776842 
L 491.839947 235.14948 
L 493.834991 168.335419 
L 495.830035 148.573514 
L 497.825079 241.423101 
L 499.820123 127.870565 
L 501.815167 239.854695 
L 503.810211 218.838066 
L 505.805255 166.453333 
L 507.800299 238.913652 
L 509.795344 241.423101 
L 511.790388 127.870565 
L 513.785432 234.208437 
L 515.780476 127.870565 
L 517.77552 241.423101 
L 519.770564 241.423101 
L 521.765608 224.484325 
L 523.760652 127.870565 
L 525.755696 241.423101 
L 527.75074 127.870565 
L 529.745784 127.870565 
L 531.740829 226.680092 
L 533.735873 239.541014 
L 535.730917 233.894756 
L 537.725961 173.981678 
L 539.721005 238.913652 
L 541.716049 241.423101 
L 543.711093 240.795738 
L 545.706137 162.68916 
L 547.701181 202.840333 
L 549.696225 211.623402 
L 551.691269 239.541014 
L 553.686313 239.854695 
L 555.681358 236.090523 
L 557.676402 213.505488 
L 559.671446 200.958247 
L 561.66649 241.423101 
L 563.661534 157.983945 
L 565.656578 241.423101 
L 567.651622 208.800273 
L 569.646666 157.983945 
L 571.64171 237.972609 
L 573.636754 239.854695 
L 575.631798 240.795738 
L 577.626843 228.562178 
L 579.621887 210.682359 
L 581.616931 183.392109 
L 583.611975 241.423101 
L 585.607019 239.541014 
L 587.602063 127.870565 
L 589.597107 239.854695 
L 591.592151 127.870565 
L 593.587195 127.870565 
L 595.582239 148.573514 
L 597.577283 127.870565 
L 599.572327 240.168376 
L 601.567372 127.870565 
L 603.562416 241.423101 
L 605.55746 241.423101 
L 607.552504 220.09279 
L 609.547548 241.423101 
L 611.542592 183.392109 
L 613.537636 157.983945 
L 615.53268 241.423101 
L 617.527724 218.838066 
L 619.522768 142.927255 
L 621.517812 236.090523 
L 623.512856 238.913652 
L 625.507901 173.981678 
L 627.502945 237.972609 
L 629.497989 196.566712 
L 631.493033 241.423101 
L 633.488077 127.870565 
L 635.483121 240.795738 
L 637.478165 157.983945 
L 639.473209 230.444264 
L 641.468253 237.972609 
L 643.463297 241.423101 
L 645.458341 239.541014 
L 647.453386 208.800273 
L 649.44843 241.423101 
L 651.443474 236.090523 
L 653.438518 240.795738 
L 655.433562 216.95598 
L 657.428606 241.423101 
L 659.42365 240.795738 
L 661.418694 228.562178 
L 663.413738 229.18954 
L 665.408782 240.168376 
L 667.403826 239.541014 
L 669.39887 163.630203 
L 671.393915 214.13285 
L 673.388959 229.503221 
L 675.384003 157.983945 
L 677.379047 157.983945 
L 679.374091 239.541014 
L 679.374091 239.541014 
" clip-path="url(#pcba7770e05)" style="fill: none; stroke: #9467bd; stroke-width: 1.5; stroke-linecap: square"/>
   </g>
   <g id="line2d_30"/>
   <g id="patch_3">
    <path d="M 53.03 390.04 
L 53.03 25.44 
" style="fill: none; stroke: #000000; stroke-width: 0.8; stroke-linejoin: miter; stroke-linecap: square"/>
   </g>
   <g id="patch_4">
    <path d="M 709.2 390.04 
L 709.2 25.44 
" style="fill: none; stroke: #000000; stroke-width: 0.8; stroke-linejoin: miter; stroke-linecap: square"/>
   </g>
   <g id="patch_5">
    <path d="M 53.03 390.04 
L 709.2 390.04 
" style="fill: none; stroke: #000000; stroke-width: 0.8; stroke-linejoin: miter; stroke-linecap: square"/>
   </g>
   <g id="patch_6">
    <path d="M 53.03 25.44 
L 709.2 25.44 
" style="fill: none; stroke: #000000; stroke-width: 0.8; stroke-linejoin: miter; stroke-linecap: square"/>
   </g>
   <g id="text_15">
    <!-- Average Reward per Episode by Agent -->
    <g transform="translate(265.943125 19.44) scale(0.12 -0.12)">
     <defs>
      <path id="DejaVuSans-62" d="M 3116 1747 
Q 3116 2381 2855 2742 
Q 2594 3103 2138 3103 
Q 1681 3103 1420 2742 
Q 1159 2381 1159 1747 
Q 1159 1113 1420 752 
Q 1681 391 2138 391 
Q 2594 391 2855 752 
Q 3116 1113 3116 1747 
z
M 1159 2969 
Q 1341 3281 1617 3432 
Q 1894 3584 2278 3584 
Q 2916 3584 3314 3078 
Q 3713 2572 3713 1747 
Q 3713 922 3314 415 
Q 2916 -91 2278 -91 
Q 1894 -91 1617 61 
Q 1341 213 1159 525 
L 1159 0 
L 581 0 
L 581 4863 
L 1159 4863 
L 1159 2969 
z
" transform="scale(0.015625)"/>
      <path id="DejaVuSans-79" d="M 2059 -325 
Q 1816 -950 1584 -1140 
Q 1353 -1331 966 -1331 
L 506 -1331 
L 506 -850 
L 844 -850 
Q 1081 -850 1212 -737 
Q 1344 -625 1503 -206 
L 1606 56 
L 191 3500 
L 800 3500 
L 1894 763 
L 2988 3500 
L 3597 3500 
L 2059 -325 
z
" transform="scale(0.015625)"/>
      <path id="DejaVuSans-6e" d="M 3513 2113 
L 3513 0 
L 2938 0 
L 2938 2094 
Q 2938 2591 2744 2837 
Q 2550 3084 2163 3084 
Q 1697 3084 1428 2787 
Q 1159 2491 1159 1978 
L 1159 0 
L 581 0 
L 581 3500 
L 1159 3500 
L 1159 2956 
Q 1366 3272 1645 3428 
Q 1925 3584 2291 3584 
Q 2894 3584 3203 3211 
Q 3513 2838 3513 2113 
z
" transform="scale(0.015625)"/>
      <path id="DejaVuSans-74" d="M 1172 4494 
L 1172 3500 
L 2356 3500 
L 2356 3053 
L 1172 3053 
L 1172 1153 
Q 1172 725 1289 603 
Q 1406 481 1766 481 
L 2356 481 
L 2356 0 
L 1766 0 
Q 1100 0 847 248 
Q 594 497 594 1153 
L 594 3053 
L 172 3053 
L 172 3500 
L 594 3500 
L 594 4494 
L 1172 4494 
z
" transform="scale(0.015625)"/>
     </defs>
     <use xlink:href="#DejaVuSans-41"/>
     <use xlink:href="#DejaVuSans-76" x="62.533203"/>
     <use xlink:href="#DejaVuSans-65" x="121.712891"/>
     <use xlink:href="#DejaVuSans-72" x="183.236328"/>
     <use xlink:href="#DejaVuSans-61" x="224.349609"/>
     <use xlink:href="#DejaVuSans-67" x="285.628906"/>
     <use xlink:href="#DejaVuSans-65" x="349.105469"/>
     <use xlink:href="#DejaVuSans-20" x="410.628906"/>
     <use xlink:href="#DejaVuSans-52" x="442.416016"/>
     <use xlink:href="#DejaVuSans-65" x="507.398438"/>
     <use xlink:href="#DejaVuSans-77" x="568.921875"/>
     <use xlink:href="#DejaVuSans-61" x="650.708984"/>
     <use xlink:href="#DejaVuSans-72" x="711.988281"/>
     <use xlink:href="#DejaVuSans-64" x="751.351562"/>
     <use xlink:href="#DejaVuSans-20" x="814.828125"/>
     <use xlink:href="#DejaVuSans-70" x="846.615234"/>
     <use xlink:href="#DejaVuSans-65" x="910.091797"/>
     <use xlink:href="#DejaVuSans-72" x="971.615234"/>
     <use xlink:href="#DejaVuSans-20" x="1012.728516"/>
     <use xlink:href="#DejaVuSans-45" x="1044.515625"/>
     <use xlink:href="#DejaVuSans-70" x="1107.699219"/>
     <use xlink:href="#DejaVuSans-69" x="1171.175781"/>
     <use xlink:href="#DejaVuSans-73" x="1198.958984"/>
     <use xlink:href="#DejaVuSans-6f" x="1251.058594"/>
     <use xlink:href="#DejaVuSans-64" x="1312.240234"/>
     <use xlink:href="#DejaVuSans-65" x="1375.716797"/>
     <use xlink:href="#DejaVuSans-20" x="1437.240234"/>
     <use xlink:href="#DejaVuSans-62" x="1469.027344"/>
     <use xlink:href="#DejaVuSans-79" x="1532.503906"/>
     <use xlink:href="#DejaVuSans-20" x="1591.683594"/>
     <use xlink:href="#DejaVuSans-41" x="1623.470703"/>
     <use xlink:href="#DejaVuSans-67" x="1691.878906"/>
     <use xlink:href="#DejaVuSans-65" x="1755.355469"/>
     <use xlink:href="#DejaVuSans-6e" x="1816.878906"/>
     <use xlink:href="#DejaVuSans-74" x="1880.257812"/>
    </g>
   </g>
   <g id="legend_1">
    <g id="patch_7">
     <path d="M 537.69375 385.04 
L 702.2 385.04 
Q 704.2 385.04 704.2 383.04 
L 704.2 295.97125 
Q 704.2 293.97125 702.2 293.97125 
L 537.69375 293.97125 
Q 535.69375 293.97125 535.69375 295.97125 
L 535.69375 383.04 
Q 535.69375 385.04 537.69375 385.04 
z
" style="fill: #ffffff; opacity: 0.8; stroke: #cccccc; stroke-linejoin: miter"/>
    </g>
    <g id="line2d_31">
     <path d="M 539.69375 302.069687 
L 549.69375 302.069687 
L 559.69375 302.069687 
" style="fill: none; stroke: #1f77b4; stroke-width: 1.5; stroke-linecap: square"/>
    </g>
    <g id="text_16">
     <!-- solar - Average Reward -->
     <g transform="translate(567.69375 305.569687) scale(0.1 -0.1)">
      <defs>
       <path id="DejaVuSans-6c" d="M 603 4863 
L 1178 4863 
L 1178 0 
L 603 0 
L 603 4863 
z
" transform="scale(0.015625)"/>
       <path id="DejaVuSans-2d" d="M 313 2009 
L 1997 2009 
L 1997 1497 
L 313 1497 
L 313 2009 
z
" transform="scale(0.015625)"/>
      </defs>
      <use xlink:href="#DejaVuSans-73"/>
      <use xlink:href="#DejaVuSans-6f" x="52.099609"/>
      <use xlink:href="#DejaVuSans-6c" x="113.28125"/>
      <use xlink:href="#DejaVuSans-61" x="141.064453"/>
      <use xlink:href="#DejaVuSans-72" x="202.34375"/>
      <use xlink:href="#DejaVuSans-20" x="243.457031"/>
      <use xlink:href="#DejaVuSans-2d" x="275.244141"/>
      <use xlink:href="#DejaVuSans-20" x="311.328125"/>
      <use xlink:href="#DejaVuSans-41" x="343.115234"/>
      <use xlink:href="#DejaVuSans-76" x="405.648438"/>
      <use xlink:href="#DejaVuSans-65" x="464.828125"/>
      <use xlink:href="#DejaVuSans-72" x="526.351562"/>
      <use xlink:href="#DejaVuSans-61" x="567.464844"/>
      <use xlink:href="#DejaVuSans-67" x="628.744141"/>
      <use xlink:href="#DejaVuSans-65" x="692.220703"/>
      <use xlink:href="#DejaVuSans-20" x="753.744141"/>
      <use xlink:href="#DejaVuSans-52" x="785.53125"/>
      <use xlink:href="#DejaVuSans-65" x="850.513672"/>
      <use xlink:href="#DejaVuSans-77" x="912.037109"/>
      <use xlink:href="#DejaVuSans-61" x="993.824219"/>
      <use xlink:href="#DejaVuSans-72" x="1055.103516"/>
      <use xlink:href="#DejaVuSans-64" x="1094.466797"/>
     </g>
    </g>
    <g id="line2d_32">
     <path d="M 539.69375 316.747813 
L 549.69375 316.747813 
L 559.69375 316.747813 
" style="fill: none; stroke: #ff7f0e; stroke-width: 1.5; stroke-linecap: square"/>
    </g>
    <g id="text_17">
     <!-- wind - Average Reward -->
     <g transform="translate(567.69375 320.247813) scale(0.1 -0.1)">
      <use xlink:href="#DejaVuSans-77"/>
      <use xlink:href="#DejaVuSans-69" x="81.787109"/>
      <use xlink:href="#DejaVuSans-6e" x="109.570312"/>
      <use xlink:href="#DejaVuSans-64" x="172.949219"/>
      <use xlink:href="#DejaVuSans-20" x="236.425781"/>
      <use xlink:href="#DejaVuSans-2d" x="268.212891"/>
      <use xlink:href="#DejaVuSans-20" x="304.296875"/>
      <use xlink:href="#DejaVuSans-41" x="336.083984"/>
      <use xlink:href="#DejaVuSans-76" x="398.617188"/>
      <use xlink:href="#DejaVuSans-65" x="457.796875"/>
      <use xlink:href="#DejaVuSans-72" x="519.320312"/>
      <use xlink:href="#DejaVuSans-61" x="560.433594"/>
      <use xlink:href="#DejaVuSans-67" x="621.712891"/>
      <use xlink:href="#DejaVuSans-65" x="685.189453"/>
      <use xlink:href="#DejaVuSans-20" x="746.712891"/>
      <use xlink:href="#DejaVuSans-52" x="778.5"/>
      <use xlink:href="#DejaVuSans-65" x="843.482422"/>
      <use xlink:href="#DejaVuSans-77" x="905.005859"/>
      <use xlink:href="#DejaVuSans-61" x="986.792969"/>
      <use xlink:href="#DejaVuSans-72" x="1048.072266"/>
      <use xlink:href="#DejaVuSans-64" x="1087.435547"/>
     </g>
    </g>
    <g id="line2d_33">
     <path d="M 539.69375 331.425937 
L 549.69375 331.425937 
L 559.69375 331.425937 
" style="fill: none; stroke: #2ca02c; stroke-width: 1.5; stroke-linecap: square"/>
    </g>
    <g id="text_18">
     <!-- bat - Average Reward -->
     <g transform="translate(567.69375 334.925937) scale(0.1 -0.1)">
      <use xlink:href="#DejaVuSans-62"/>
      <use xlink:href="#DejaVuSans-61" x="63.476562"/>
      <use xlink:href="#DejaVuSans-74" x="124.755859"/>
      <use xlink:href="#DejaVuSans-20" x="163.964844"/>
      <use xlink:href="#DejaVuSans-2d" x="195.751953"/>
      <use xlink:href="#DejaVuSans-20" x="231.835938"/>
      <use xlink:href="#DejaVuSans-41" x="263.623047"/>
      <use xlink:href="#DejaVuSans-76" x="326.15625"/>
      <use xlink:href="#DejaVuSans-65" x="385.335938"/>
      <use xlink:href="#DejaVuSans-72" x="446.859375"/>
      <use xlink:href="#DejaVuSans-61" x="487.972656"/>
      <use xlink:href="#DejaVuSans-67" x="549.251953"/>
      <use xlink:href="#DejaVuSans-65" x="612.728516"/>
      <use xlink:href="#DejaVuSans-20" x="674.251953"/>
      <use xlink:href="#DejaVuSans-52" x="706.039062"/>
      <use xlink:href="#DejaVuSans-65" x="771.021484"/>
      <use xlink:href="#DejaVuSans-77" x="832.544922"/>
      <use xlink:href="#DejaVuSans-61" x="914.332031"/>
      <use xlink:href="#DejaVuSans-72" x="975.611328"/>
      <use xlink:href="#DejaVuSans-64" x="1014.974609"/>
     </g>
    </g>
    <g id="line2d_34">
     <path d="M 539.69375 346.104062 
L 549.69375 346.104062 
L 559.69375 346.104062 
" style="fill: none; stroke: #d62728; stroke-width: 1.5; stroke-linecap: square"/>
    </g>
    <g id="text_19">
     <!-- grid - Average Reward -->
     <g transform="translate(567.69375 349.604062) scale(0.1 -0.1)">
      <use xlink:href="#DejaVuSans-67"/>
      <use xlink:href="#DejaVuSans-72" x="63.476562"/>
      <use xlink:href="#DejaVuSans-69" x="104.589844"/>
      <use xlink:href="#DejaVuSans-64" x="132.373047"/>
      <use xlink:href="#DejaVuSans-20" x="195.849609"/>
      <use xlink:href="#DejaVuSans-2d" x="227.636719"/>
      <use xlink:href="#DejaVuSans-20" x="263.720703"/>
      <use xlink:href="#DejaVuSans-41" x="295.507812"/>
      <use xlink:href="#DejaVuSans-76" x="358.041016"/>
      <use xlink:href="#DejaVuSans-65" x="417.220703"/>
      <use xlink:href="#DejaVuSans-72" x="478.744141"/>
      <use xlink:href="#DejaVuSans-61" x="519.857422"/>
      <use xlink:href="#DejaVuSans-67" x="581.136719"/>
      <use xlink:href="#DejaVuSans-65" x="644.613281"/>
      <use xlink:href="#DejaVuSans-20" x="706.136719"/>
      <use xlink:href="#DejaVuSans-52" x="737.923828"/>
      <use xlink:href="#DejaVuSans-65" x="802.90625"/>
      <use xlink:href="#DejaVuSans-77" x="864.429688"/>
      <use xlink:href="#DejaVuSans-61" x="946.216797"/>
      <use xlink:href="#DejaVuSans-72" x="1007.496094"/>
      <use xlink:href="#DejaVuSans-64" x="1046.859375"/>
     </g>
    </g>
    <g id="line2d_35">
     <path d="M 539.69375 360.782187 
L 549.69375 360.782187 
L 559.69375 360.782187 
" style="fill: none; stroke: #9467bd; stroke-width: 1.5; stroke-linecap: square"/>
    </g>
    <g id="text_20">
     <!-- demand - Average Reward -->
     <g transform="translate(567.69375 364.282187) scale(0.1 -0.1)">
      <defs>
       <path id="DejaVuSans-6d" d="M 3328 2828 
Q 3544 3216 3844 3400 
Q 4144 3584 4550 3584 
Q 5097 3584 5394 3201 
Q 5691 2819 5691 2113 
L 5691 0 
L 5113 0 
L 5113 2094 
Q 5113 2597 4934 2840 
Q 4756 3084 4391 3084 
Q 3944 3084 3684 2787 
Q 3425 2491 3425 1978 
L 3425 0 
L 2847 0 
L 2847 2094 
Q 2847 2600 2669 2842 
Q 2491 3084 2119 3084 
Q 1678 3084 1418 2786 
Q 1159 2488 1159 1978 
L 1159 0 
L 581 0 
L 581 3500 
L 1159 3500 
L 1159 2956 
Q 1356 3278 1631 3431 
Q 1906 3584 2284 3584 
Q 2666 3584 2933 3390 
Q 3200 3197 3328 2828 
z
" transform="scale(0.015625)"/>
      </defs>
      <use xlink:href="#DejaVuSans-64"/>
      <use xlink:href="#DejaVuSans-65" x="63.476562"/>
      <use xlink:href="#DejaVuSans-6d" x="125"/>
      <use xlink:href="#DejaVuSans-61" x="222.412109"/>
      <use xlink:href="#DejaVuSans-6e" x="283.691406"/>
      <use xlink:href="#DejaVuSans-64" x="347.070312"/>
      <use xlink:href="#DejaVuSans-20" x="410.546875"/>
      <use xlink:href="#DejaVuSans-2d" x="442.333984"/>
      <use xlink:href="#DejaVuSans-20" x="478.417969"/>
      <use xlink:href="#DejaVuSans-41" x="510.205078"/>
      <use xlink:href="#DejaVuSans-76" x="572.738281"/>
      <use xlink:href="#DejaVuSans-65" x="631.917969"/>
      <use xlink:href="#DejaVuSans-72" x="693.441406"/>
      <use xlink:href="#DejaVuSans-61" x="734.554688"/>
      <use xlink:href="#DejaVuSans-67" x="795.833984"/>
      <use xlink:href="#DejaVuSans-65" x="859.310547"/>
      <use xlink:href="#DejaVuSans-20" x="920.833984"/>
      <use xlink:href="#DejaVuSans-52" x="952.621094"/>
      <use xlink:href="#DejaVuSans-65" x="1017.603516"/>
      <use xlink:href="#DejaVuSans-77" x="1079.126953"/>
      <use xlink:href="#DejaVuSans-61" x="1160.914062"/>
      <use xlink:href="#DejaVuSans-72" x="1222.193359"/>
      <use xlink:href="#DejaVuSans-64" x="1261.556641"/>
     </g>
    </g>
    <g id="line2d_36">
     <path d="M 539.69375 375.460312 
L 549.69375 375.460312 
L 559.69375 375.460312 
" style="fill: none; stroke: #8c564b; stroke-width: 1.5; stroke-linecap: square"/>
    </g>
    <g id="text_21">
     <!-- nan - Average Reward -->
     <g transform="translate(567.69375 378.960312) scale(0.1 -0.1)">
      <use xlink:href="#DejaVuSans-6e"/>
      <use xlink:href="#DejaVuSans-61" x="63.378906"/>
      <use xlink:href="#DejaVuSans-6e" x="124.658203"/>
      <use xlink:href="#DejaVuSans-20" x="188.037109"/>
      <use xlink:href="#DejaVuSans-2d" x="219.824219"/>
      <use xlink:href="#DejaVuSans-20" x="255.908203"/>
      <use xlink:href="#DejaVuSans-41" x="287.695312"/>
      <use xlink:href="#DejaVuSans-76" x="350.228516"/>
      <use xlink:href="#DejaVuSans-65" x="409.408203"/>
      <use xlink:href="#DejaVuSans-72" x="470.931641"/>
      <use xlink:href="#DejaVuSans-61" x="512.044922"/>
      <use xlink:href="#DejaVuSans-67" x="573.324219"/>
      <use xlink:href="#DejaVuSans-65" x="636.800781"/>
      <use xlink:href="#DejaVuSans-20" x="698.324219"/>
      <use xlink:href="#DejaVuSans-52" x="730.111328"/>
      <use xlink:href="#DejaVuSans-65" x="795.09375"/>
      <use xlink:href="#DejaVuSans-77" x="856.617188"/>
      <use xlink:href="#DejaVuSans-61" x="938.404297"/>
      <use xlink:href="#DejaVuSans-72" x="999.683594"/>
      <use xlink:href="#DejaVuSans-64" x="1039.046875"/>
     </g>
    </g>
   </g>
  </g>
 </g>
 <defs>
  <clipPath id="pcba7770e05">
   <rect x="53.03" y="25.44" width="656.17" height="364.6"/>
  </clipPath>
 </defs>
</svg>
