<?xml version="1.0" encoding="utf-8" standalone="no"?>
<!DOCTYPE svg PUBLIC "-//W3C//DTD SVG 1.1//EN"
  "http://www.w3.org/Graphics/SVG/1.1/DTD/svg11.dtd">
<svg xmlns:xlink="http://www.w3.org/1999/xlink" width="1008pt" height="504pt" viewBox="0 0 1008 504" xmlns="http://www.w3.org/2000/svg" version="1.1">
 <metadata>
  <rdf:RDF xmlns:dc="http://purl.org/dc/elements/1.1/" xmlns:cc="http://creativecommons.org/ns#" xmlns:rdf="http://www.w3.org/1999/02/22-rdf-syntax-ns#">
   <cc:Work>
    <dc:type rdf:resource="http://purl.org/dc/dcmitype/StillImage"/>
    <dc:date>2025-07-23T20:23:23.234048</dc:date>
    <dc:format>image/svg+xml</dc:format>
    <dc:creator>
     <cc:Agent>
      <dc:title>Matplotlib v3.8.0, https://matplotlib.org/</dc:title>
     </cc:Agent>
    </dc:creator>
   </cc:Work>
  </rdf:RDF>
 </metadata>
 <defs>
  <style type="text/css">*{stroke-linejoin: round; stroke-linecap: butt}</style>
 </defs>
 <g id="figure_1">
  <g id="patch_1">
   <path d="M 0 504 
L 1008 504 
L 1008 0 
L 0 0 
z
" style="fill: #ffffff"/>
  </g>
  <g id="axes_1">
   <g id="patch_2">
    <path d="M 126 448.56 
L 907.2 448.56 
L 907.2 60.48 
L 126 60.48 
z
" style="fill: #ffffff"/>
   </g>
   <g id="matplotlib.axis_1">
    <g id="xtick_1">
     <g id="line2d_1">
      <path d="M 161.509091 448.56 
L 161.509091 60.48 
" clip-path="url(#p85880a1f47)" style="fill: none; stroke: #b0b0b0; stroke-width: 0.8; stroke-linecap: square"/>
     </g>
     <g id="line2d_2">
      <defs>
       <path id="m28c6c84b4c" d="M 0 0 
L 0 3.5 
" style="stroke: #000000; stroke-width: 0.8"/>
      </defs>
      <g>
       <use xlink:href="#m28c6c84b4c" x="161.509091" y="448.56" style="stroke: #000000; stroke-width: 0.8"/>
      </g>
     </g>
     <g id="text_1">
      <!-- 0 -->
      <g transform="translate(158.327841 463.158437) scale(0.1 -0.1)">
       <defs>
        <path id="DejaVuSans-30" d="M 2034 4250 
Q 1547 4250 1301 3770 
Q 1056 3291 1056 2328 
Q 1056 1369 1301 889 
Q 1547 409 2034 409 
Q 2525 409 2770 889 
Q 3016 1369 3016 2328 
Q 3016 3291 2770 3770 
Q 2525 4250 2034 4250 
z
M 2034 4750 
Q 2819 4750 3233 4129 
Q 3647 3509 3647 2328 
Q 3647 1150 3233 529 
Q 2819 -91 2034 -91 
Q 1250 -91 836 529 
Q 422 1150 422 2328 
Q 422 3509 836 4129 
Q 1250 4750 2034 4750 
z
" transform="scale(0.015625)"/>
       </defs>
       <use xlink:href="#DejaVuSans-30"/>
      </g>
     </g>
    </g>
    <g id="xtick_2">
     <g id="line2d_3">
      <path d="M 250.326227 448.56 
L 250.326227 60.48 
" clip-path="url(#p85880a1f47)" style="fill: none; stroke: #b0b0b0; stroke-width: 0.8; stroke-linecap: square"/>
     </g>
     <g id="line2d_4">
      <g>
       <use xlink:href="#m28c6c84b4c" x="250.326227" y="448.56" style="stroke: #000000; stroke-width: 0.8"/>
      </g>
     </g>
     <g id="text_2">
      <!-- 250 -->
      <g transform="translate(240.782477 463.158437) scale(0.1 -0.1)">
       <defs>
        <path id="DejaVuSans-32" d="M 1228 531 
L 3431 531 
L 3431 0 
L 469 0 
L 469 531 
Q 828 903 1448 1529 
Q 2069 2156 2228 2338 
Q 2531 2678 2651 2914 
Q 2772 3150 2772 3378 
Q 2772 3750 2511 3984 
Q 2250 4219 1831 4219 
Q 1534 4219 1204 4116 
Q 875 4013 500 3803 
L 500 4441 
Q 881 4594 1212 4672 
Q 1544 4750 1819 4750 
Q 2544 4750 2975 4387 
Q 3406 4025 3406 3419 
Q 3406 3131 3298 2873 
Q 3191 2616 2906 2266 
Q 2828 2175 2409 1742 
Q 1991 1309 1228 531 
z
" transform="scale(0.015625)"/>
        <path id="DejaVuSans-35" d="M 691 4666 
L 3169 4666 
L 3169 4134 
L 1269 4134 
L 1269 2991 
Q 1406 3038 1543 3061 
Q 1681 3084 1819 3084 
Q 2600 3084 3056 2656 
Q 3513 2228 3513 1497 
Q 3513 744 3044 326 
Q 2575 -91 1722 -91 
Q 1428 -91 1123 -41 
Q 819 9 494 109 
L 494 744 
Q 775 591 1075 516 
Q 1375 441 1709 441 
Q 2250 441 2565 725 
Q 2881 1009 2881 1497 
Q 2881 1984 2565 2268 
Q 2250 2553 1709 2553 
Q 1456 2553 1204 2497 
Q 953 2441 691 2322 
L 691 4666 
z
" transform="scale(0.015625)"/>
       </defs>
       <use xlink:href="#DejaVuSans-32"/>
       <use xlink:href="#DejaVuSans-35" x="63.623047"/>
       <use xlink:href="#DejaVuSans-30" x="127.246094"/>
      </g>
     </g>
    </g>
    <g id="xtick_3">
     <g id="line2d_5">
      <path d="M 339.143363 448.56 
L 339.143363 60.48 
" clip-path="url(#p85880a1f47)" style="fill: none; stroke: #b0b0b0; stroke-width: 0.8; stroke-linecap: square"/>
     </g>
     <g id="line2d_6">
      <g>
       <use xlink:href="#m28c6c84b4c" x="339.143363" y="448.56" style="stroke: #000000; stroke-width: 0.8"/>
      </g>
     </g>
     <g id="text_3">
      <!-- 500 -->
      <g transform="translate(329.599613 463.158437) scale(0.1 -0.1)">
       <use xlink:href="#DejaVuSans-35"/>
       <use xlink:href="#DejaVuSans-30" x="63.623047"/>
       <use xlink:href="#DejaVuSans-30" x="127.246094"/>
      </g>
     </g>
    </g>
    <g id="xtick_4">
     <g id="line2d_7">
      <path d="M 427.960498 448.56 
L 427.960498 60.48 
" clip-path="url(#p85880a1f47)" style="fill: none; stroke: #b0b0b0; stroke-width: 0.8; stroke-linecap: square"/>
     </g>
     <g id="line2d_8">
      <g>
       <use xlink:href="#m28c6c84b4c" x="427.960498" y="448.56" style="stroke: #000000; stroke-width: 0.8"/>
      </g>
     </g>
     <g id="text_4">
      <!-- 750 -->
      <g transform="translate(418.416748 463.158437) scale(0.1 -0.1)">
       <defs>
        <path id="DejaVuSans-37" d="M 525 4666 
L 3525 4666 
L 3525 4397 
L 1831 0 
L 1172 0 
L 2766 4134 
L 525 4134 
L 525 4666 
z
" transform="scale(0.015625)"/>
       </defs>
       <use xlink:href="#DejaVuSans-37"/>
       <use xlink:href="#DejaVuSans-35" x="63.623047"/>
       <use xlink:href="#DejaVuSans-30" x="127.246094"/>
      </g>
     </g>
    </g>
    <g id="xtick_5">
     <g id="line2d_9">
      <path d="M 516.777634 448.56 
L 516.777634 60.48 
" clip-path="url(#p85880a1f47)" style="fill: none; stroke: #b0b0b0; stroke-width: 0.8; stroke-linecap: square"/>
     </g>
     <g id="line2d_10">
      <g>
       <use xlink:href="#m28c6c84b4c" x="516.777634" y="448.56" style="stroke: #000000; stroke-width: 0.8"/>
      </g>
     </g>
     <g id="text_5">
      <!-- 1000 -->
      <g transform="translate(504.052634 463.158437) scale(0.1 -0.1)">
       <defs>
        <path id="DejaVuSans-31" d="M 794 531 
L 1825 531 
L 1825 4091 
L 703 3866 
L 703 4441 
L 1819 4666 
L 2450 4666 
L 2450 531 
L 3481 531 
L 3481 0 
L 794 0 
L 794 531 
z
" transform="scale(0.015625)"/>
       </defs>
       <use xlink:href="#DejaVuSans-31"/>
       <use xlink:href="#DejaVuSans-30" x="63.623047"/>
       <use xlink:href="#DejaVuSans-30" x="127.246094"/>
       <use xlink:href="#DejaVuSans-30" x="190.869141"/>
      </g>
     </g>
    </g>
    <g id="xtick_6">
     <g id="line2d_11">
      <path d="M 605.59477 448.56 
L 605.59477 60.48 
" clip-path="url(#p85880a1f47)" style="fill: none; stroke: #b0b0b0; stroke-width: 0.8; stroke-linecap: square"/>
     </g>
     <g id="line2d_12">
      <g>
       <use xlink:href="#m28c6c84b4c" x="605.59477" y="448.56" style="stroke: #000000; stroke-width: 0.8"/>
      </g>
     </g>
     <g id="text_6">
      <!-- 1250 -->
      <g transform="translate(592.86977 463.158437) scale(0.1 -0.1)">
       <use xlink:href="#DejaVuSans-31"/>
       <use xlink:href="#DejaVuSans-32" x="63.623047"/>
       <use xlink:href="#DejaVuSans-35" x="127.246094"/>
       <use xlink:href="#DejaVuSans-30" x="190.869141"/>
      </g>
     </g>
    </g>
    <g id="xtick_7">
     <g id="line2d_13">
      <path d="M 694.411906 448.56 
L 694.411906 60.48 
" clip-path="url(#p85880a1f47)" style="fill: none; stroke: #b0b0b0; stroke-width: 0.8; stroke-linecap: square"/>
     </g>
     <g id="line2d_14">
      <g>
       <use xlink:href="#m28c6c84b4c" x="694.411906" y="448.56" style="stroke: #000000; stroke-width: 0.8"/>
      </g>
     </g>
     <g id="text_7">
      <!-- 1500 -->
      <g transform="translate(681.686906 463.158437) scale(0.1 -0.1)">
       <use xlink:href="#DejaVuSans-31"/>
       <use xlink:href="#DejaVuSans-35" x="63.623047"/>
       <use xlink:href="#DejaVuSans-30" x="127.246094"/>
       <use xlink:href="#DejaVuSans-30" x="190.869141"/>
      </g>
     </g>
    </g>
    <g id="xtick_8">
     <g id="line2d_15">
      <path d="M 783.229042 448.56 
L 783.229042 60.48 
" clip-path="url(#p85880a1f47)" style="fill: none; stroke: #b0b0b0; stroke-width: 0.8; stroke-linecap: square"/>
     </g>
     <g id="line2d_16">
      <g>
       <use xlink:href="#m28c6c84b4c" x="783.229042" y="448.56" style="stroke: #000000; stroke-width: 0.8"/>
      </g>
     </g>
     <g id="text_8">
      <!-- 1750 -->
      <g transform="translate(770.504042 463.158437) scale(0.1 -0.1)">
       <use xlink:href="#DejaVuSans-31"/>
       <use xlink:href="#DejaVuSans-37" x="63.623047"/>
       <use xlink:href="#DejaVuSans-35" x="127.246094"/>
       <use xlink:href="#DejaVuSans-30" x="190.869141"/>
      </g>
     </g>
    </g>
    <g id="xtick_9">
     <g id="line2d_17">
      <path d="M 872.046178 448.56 
L 872.046178 60.48 
" clip-path="url(#p85880a1f47)" style="fill: none; stroke: #b0b0b0; stroke-width: 0.8; stroke-linecap: square"/>
     </g>
     <g id="line2d_18">
      <g>
       <use xlink:href="#m28c6c84b4c" x="872.046178" y="448.56" style="stroke: #000000; stroke-width: 0.8"/>
      </g>
     </g>
     <g id="text_9">
      <!-- 2000 -->
      <g transform="translate(859.321178 463.158437) scale(0.1 -0.1)">
       <use xlink:href="#DejaVuSans-32"/>
       <use xlink:href="#DejaVuSans-30" x="63.623047"/>
       <use xlink:href="#DejaVuSans-30" x="127.246094"/>
       <use xlink:href="#DejaVuSans-30" x="190.869141"/>
      </g>
     </g>
    </g>
    <g id="text_10">
     <!-- Episode -->
     <g transform="translate(496.9625 476.836563) scale(0.1 -0.1)">
      <defs>
       <path id="DejaVuSans-45" d="M 628 4666 
L 3578 4666 
L 3578 4134 
L 1259 4134 
L 1259 2753 
L 3481 2753 
L 3481 2222 
L 1259 2222 
L 1259 531 
L 3634 531 
L 3634 0 
L 628 0 
L 628 4666 
z
" transform="scale(0.015625)"/>
       <path id="DejaVuSans-70" d="M 1159 525 
L 1159 -1331 
L 581 -1331 
L 581 3500 
L 1159 3500 
L 1159 2969 
Q 1341 3281 1617 3432 
Q 1894 3584 2278 3584 
Q 2916 3584 3314 3078 
Q 3713 2572 3713 1747 
Q 3713 922 3314 415 
Q 2916 -91 2278 -91 
Q 1894 -91 1617 61 
Q 1341 213 1159 525 
z
M 3116 1747 
Q 3116 2381 2855 2742 
Q 2594 3103 2138 3103 
Q 1681 3103 1420 2742 
Q 1159 2381 1159 1747 
Q 1159 1113 1420 752 
Q 1681 391 2138 391 
Q 2594 391 2855 752 
Q 3116 1113 3116 1747 
z
" transform="scale(0.015625)"/>
       <path id="DejaVuSans-69" d="M 603 3500 
L 1178 3500 
L 1178 0 
L 603 0 
L 603 3500 
z
M 603 4863 
L 1178 4863 
L 1178 4134 
L 603 4134 
L 603 4863 
z
" transform="scale(0.015625)"/>
       <path id="DejaVuSans-73" d="M 2834 3397 
L 2834 2853 
Q 2591 2978 2328 3040 
Q 2066 3103 1784 3103 
Q 1356 3103 1142 2972 
Q 928 2841 928 2578 
Q 928 2378 1081 2264 
Q 1234 2150 1697 2047 
L 1894 2003 
Q 2506 1872 2764 1633 
Q 3022 1394 3022 966 
Q 3022 478 2636 193 
Q 2250 -91 1575 -91 
Q 1294 -91 989 -36 
Q 684 19 347 128 
L 347 722 
Q 666 556 975 473 
Q 1284 391 1588 391 
Q 1994 391 2212 530 
Q 2431 669 2431 922 
Q 2431 1156 2273 1281 
Q 2116 1406 1581 1522 
L 1381 1569 
Q 847 1681 609 1914 
Q 372 2147 372 2553 
Q 372 3047 722 3315 
Q 1072 3584 1716 3584 
Q 2034 3584 2315 3537 
Q 2597 3491 2834 3397 
z
" transform="scale(0.015625)"/>
       <path id="DejaVuSans-6f" d="M 1959 3097 
Q 1497 3097 1228 2736 
Q 959 2375 959 1747 
Q 959 1119 1226 758 
Q 1494 397 1959 397 
Q 2419 397 2687 759 
Q 2956 1122 2956 1747 
Q 2956 2369 2687 2733 
Q 2419 3097 1959 3097 
z
M 1959 3584 
Q 2709 3584 3137 3096 
Q 3566 2609 3566 1747 
Q 3566 888 3137 398 
Q 2709 -91 1959 -91 
Q 1206 -91 779 398 
Q 353 888 353 1747 
Q 353 2609 779 3096 
Q 1206 3584 1959 3584 
z
" transform="scale(0.015625)"/>
       <path id="DejaVuSans-64" d="M 2906 2969 
L 2906 4863 
L 3481 4863 
L 3481 0 
L 2906 0 
L 2906 525 
Q 2725 213 2448 61 
Q 2172 -91 1784 -91 
Q 1150 -91 751 415 
Q 353 922 353 1747 
Q 353 2572 751 3078 
Q 1150 3584 1784 3584 
Q 2172 3584 2448 3432 
Q 2725 3281 2906 2969 
z
M 947 1747 
Q 947 1113 1208 752 
Q 1469 391 1925 391 
Q 2381 391 2643 752 
Q 2906 1113 2906 1747 
Q 2906 2381 2643 2742 
Q 2381 3103 1925 3103 
Q 1469 3103 1208 2742 
Q 947 2381 947 1747 
z
" transform="scale(0.015625)"/>
       <path id="DejaVuSans-65" d="M 3597 1894 
L 3597 1613 
L 953 1613 
Q 991 1019 1311 708 
Q 1631 397 2203 397 
Q 2534 397 2845 478 
Q 3156 559 3463 722 
L 3463 178 
Q 3153 47 2828 -22 
Q 2503 -91 2169 -91 
Q 1331 -91 842 396 
Q 353 884 353 1716 
Q 353 2575 817 3079 
Q 1281 3584 2069 3584 
Q 2775 3584 3186 3129 
Q 3597 2675 3597 1894 
z
M 3022 2063 
Q 3016 2534 2758 2815 
Q 2500 3097 2075 3097 
Q 1594 3097 1305 2825 
Q 1016 2553 972 2059 
L 3022 2063 
z
" transform="scale(0.015625)"/>
      </defs>
      <use xlink:href="#DejaVuSans-45"/>
      <use xlink:href="#DejaVuSans-70" x="63.183594"/>
      <use xlink:href="#DejaVuSans-69" x="126.660156"/>
      <use xlink:href="#DejaVuSans-73" x="154.443359"/>
      <use xlink:href="#DejaVuSans-6f" x="206.542969"/>
      <use xlink:href="#DejaVuSans-64" x="267.724609"/>
      <use xlink:href="#DejaVuSans-65" x="331.201172"/>
     </g>
    </g>
   </g>
   <g id="matplotlib.axis_2">
    <g id="ytick_1">
     <g id="line2d_19">
      <path d="M 126 422.775366 
L 907.2 422.775366 
" clip-path="url(#p85880a1f47)" style="fill: none; stroke: #b0b0b0; stroke-width: 0.8; stroke-linecap: square"/>
     </g>
     <g id="line2d_20">
      <defs>
       <path id="m70d058022e" d="M 0 0 
L -3.5 0 
" style="stroke: #000000; stroke-width: 0.8"/>
      </defs>
      <g>
       <use xlink:href="#m70d058022e" x="126" y="422.775366" style="stroke: #000000; stroke-width: 0.8"/>
      </g>
     </g>
     <g id="text_11">
      <!-- −100 -->
      <g transform="translate(91.532813 426.574585) scale(0.1 -0.1)">
       <defs>
        <path id="DejaVuSans-2212" d="M 678 2272 
L 4684 2272 
L 4684 1741 
L 678 1741 
L 678 2272 
z
" transform="scale(0.015625)"/>
       </defs>
       <use xlink:href="#DejaVuSans-2212"/>
       <use xlink:href="#DejaVuSans-31" x="83.789062"/>
       <use xlink:href="#DejaVuSans-30" x="147.412109"/>
       <use xlink:href="#DejaVuSans-30" x="211.035156"/>
      </g>
     </g>
    </g>
    <g id="ytick_2">
     <g id="line2d_21">
      <path d="M 126 371.080687 
L 907.2 371.080687 
" clip-path="url(#p85880a1f47)" style="fill: none; stroke: #b0b0b0; stroke-width: 0.8; stroke-linecap: square"/>
     </g>
     <g id="line2d_22">
      <g>
       <use xlink:href="#m70d058022e" x="126" y="371.080687" style="stroke: #000000; stroke-width: 0.8"/>
      </g>
     </g>
     <g id="text_12">
      <!-- −50 -->
      <g transform="translate(97.895313 374.879906) scale(0.1 -0.1)">
       <use xlink:href="#DejaVuSans-2212"/>
       <use xlink:href="#DejaVuSans-35" x="83.789062"/>
       <use xlink:href="#DejaVuSans-30" x="147.412109"/>
      </g>
     </g>
    </g>
    <g id="ytick_3">
     <g id="line2d_23">
      <path d="M 126 319.386009 
L 907.2 319.386009 
" clip-path="url(#p85880a1f47)" style="fill: none; stroke: #b0b0b0; stroke-width: 0.8; stroke-linecap: square"/>
     </g>
     <g id="line2d_24">
      <g>
       <use xlink:href="#m70d058022e" x="126" y="319.386009" style="stroke: #000000; stroke-width: 0.8"/>
      </g>
     </g>
     <g id="text_13">
      <!-- 0 -->
      <g transform="translate(112.6375 323.185227) scale(0.1 -0.1)">
       <use xlink:href="#DejaVuSans-30"/>
      </g>
     </g>
    </g>
    <g id="ytick_4">
     <g id="line2d_25">
      <path d="M 126 267.69133 
L 907.2 267.69133 
" clip-path="url(#p85880a1f47)" style="fill: none; stroke: #b0b0b0; stroke-width: 0.8; stroke-linecap: square"/>
     </g>
     <g id="line2d_26">
      <g>
       <use xlink:href="#m70d058022e" x="126" y="267.69133" style="stroke: #000000; stroke-width: 0.8"/>
      </g>
     </g>
     <g id="text_14">
      <!-- 50 -->
      <g transform="translate(106.275 271.490549) scale(0.1 -0.1)">
       <use xlink:href="#DejaVuSans-35"/>
       <use xlink:href="#DejaVuSans-30" x="63.623047"/>
      </g>
     </g>
    </g>
    <g id="ytick_5">
     <g id="line2d_27">
      <path d="M 126 215.996652 
L 907.2 215.996652 
" clip-path="url(#p85880a1f47)" style="fill: none; stroke: #b0b0b0; stroke-width: 0.8; stroke-linecap: square"/>
     </g>
     <g id="line2d_28">
      <g>
       <use xlink:href="#m70d058022e" x="126" y="215.996652" style="stroke: #000000; stroke-width: 0.8"/>
      </g>
     </g>
     <g id="text_15">
      <!-- 100 -->
      <g transform="translate(99.9125 219.79587) scale(0.1 -0.1)">
       <use xlink:href="#DejaVuSans-31"/>
       <use xlink:href="#DejaVuSans-30" x="63.623047"/>
       <use xlink:href="#DejaVuSans-30" x="127.246094"/>
      </g>
     </g>
    </g>
    <g id="ytick_6">
     <g id="line2d_29">
      <path d="M 126 164.301973 
L 907.2 164.301973 
" clip-path="url(#p85880a1f47)" style="fill: none; stroke: #b0b0b0; stroke-width: 0.8; stroke-linecap: square"/>
     </g>
     <g id="line2d_30">
      <g>
       <use xlink:href="#m70d058022e" x="126" y="164.301973" style="stroke: #000000; stroke-width: 0.8"/>
      </g>
     </g>
     <g id="text_16">
      <!-- 150 -->
      <g transform="translate(99.9125 168.101192) scale(0.1 -0.1)">
       <use xlink:href="#DejaVuSans-31"/>
       <use xlink:href="#DejaVuSans-35" x="63.623047"/>
       <use xlink:href="#DejaVuSans-30" x="127.246094"/>
      </g>
     </g>
    </g>
    <g id="ytick_7">
     <g id="line2d_31">
      <path d="M 126 112.607294 
L 907.2 112.607294 
" clip-path="url(#p85880a1f47)" style="fill: none; stroke: #b0b0b0; stroke-width: 0.8; stroke-linecap: square"/>
     </g>
     <g id="line2d_32">
      <g>
       <use xlink:href="#m70d058022e" x="126" y="112.607294" style="stroke: #000000; stroke-width: 0.8"/>
      </g>
     </g>
     <g id="text_17">
      <!-- 200 -->
      <g transform="translate(99.9125 116.406513) scale(0.1 -0.1)">
       <use xlink:href="#DejaVuSans-32"/>
       <use xlink:href="#DejaVuSans-30" x="63.623047"/>
       <use xlink:href="#DejaVuSans-30" x="127.246094"/>
      </g>
     </g>
    </g>
    <g id="ytick_8">
     <g id="line2d_33">
      <path d="M 126 60.912616 
L 907.2 60.912616 
" clip-path="url(#p85880a1f47)" style="fill: none; stroke: #b0b0b0; stroke-width: 0.8; stroke-linecap: square"/>
     </g>
     <g id="line2d_34">
      <g>
       <use xlink:href="#m70d058022e" x="126" y="60.912616" style="stroke: #000000; stroke-width: 0.8"/>
      </g>
     </g>
     <g id="text_18">
      <!-- 250 -->
      <g transform="translate(99.9125 64.711834) scale(0.1 -0.1)">
       <use xlink:href="#DejaVuSans-32"/>
       <use xlink:href="#DejaVuSans-35" x="63.623047"/>
       <use xlink:href="#DejaVuSans-30" x="127.246094"/>
      </g>
     </g>
    </g>
    <g id="text_19">
     <!-- Rolling Mean Reward -->
     <g transform="translate(85.453125 306.761406) rotate(-90) scale(0.1 -0.1)">
      <defs>
       <path id="DejaVuSans-52" d="M 2841 2188 
Q 3044 2119 3236 1894 
Q 3428 1669 3622 1275 
L 4263 0 
L 3584 0 
L 2988 1197 
Q 2756 1666 2539 1819 
Q 2322 1972 1947 1972 
L 1259 1972 
L 1259 0 
L 628 0 
L 628 4666 
L 2053 4666 
Q 2853 4666 3247 4331 
Q 3641 3997 3641 3322 
Q 3641 2881 3436 2590 
Q 3231 2300 2841 2188 
z
M 1259 4147 
L 1259 2491 
L 2053 2491 
Q 2509 2491 2742 2702 
Q 2975 2913 2975 3322 
Q 2975 3731 2742 3939 
Q 2509 4147 2053 4147 
L 1259 4147 
z
" transform="scale(0.015625)"/>
       <path id="DejaVuSans-6c" d="M 603 4863 
L 1178 4863 
L 1178 0 
L 603 0 
L 603 4863 
z
" transform="scale(0.015625)"/>
       <path id="DejaVuSans-6e" d="M 3513 2113 
L 3513 0 
L 2938 0 
L 2938 2094 
Q 2938 2591 2744 2837 
Q 2550 3084 2163 3084 
Q 1697 3084 1428 2787 
Q 1159 2491 1159 1978 
L 1159 0 
L 581 0 
L 581 3500 
L 1159 3500 
L 1159 2956 
Q 1366 3272 1645 3428 
Q 1925 3584 2291 3584 
Q 2894 3584 3203 3211 
Q 3513 2838 3513 2113 
z
" transform="scale(0.015625)"/>
       <path id="DejaVuSans-67" d="M 2906 1791 
Q 2906 2416 2648 2759 
Q 2391 3103 1925 3103 
Q 1463 3103 1205 2759 
Q 947 2416 947 1791 
Q 947 1169 1205 825 
Q 1463 481 1925 481 
Q 2391 481 2648 825 
Q 2906 1169 2906 1791 
z
M 3481 434 
Q 3481 -459 3084 -895 
Q 2688 -1331 1869 -1331 
Q 1566 -1331 1297 -1286 
Q 1028 -1241 775 -1147 
L 775 -588 
Q 1028 -725 1275 -790 
Q 1522 -856 1778 -856 
Q 2344 -856 2625 -561 
Q 2906 -266 2906 331 
L 2906 616 
Q 2728 306 2450 153 
Q 2172 0 1784 0 
Q 1141 0 747 490 
Q 353 981 353 1791 
Q 353 2603 747 3093 
Q 1141 3584 1784 3584 
Q 2172 3584 2450 3431 
Q 2728 3278 2906 2969 
L 2906 3500 
L 3481 3500 
L 3481 434 
z
" transform="scale(0.015625)"/>
       <path id="DejaVuSans-20" transform="scale(0.015625)"/>
       <path id="DejaVuSans-4d" d="M 628 4666 
L 1569 4666 
L 2759 1491 
L 3956 4666 
L 4897 4666 
L 4897 0 
L 4281 0 
L 4281 4097 
L 3078 897 
L 2444 897 
L 1241 4097 
L 1241 0 
L 628 0 
L 628 4666 
z
" transform="scale(0.015625)"/>
       <path id="DejaVuSans-61" d="M 2194 1759 
Q 1497 1759 1228 1600 
Q 959 1441 959 1056 
Q 959 750 1161 570 
Q 1363 391 1709 391 
Q 2188 391 2477 730 
Q 2766 1069 2766 1631 
L 2766 1759 
L 2194 1759 
z
M 3341 1997 
L 3341 0 
L 2766 0 
L 2766 531 
Q 2569 213 2275 61 
Q 1981 -91 1556 -91 
Q 1019 -91 701 211 
Q 384 513 384 1019 
Q 384 1609 779 1909 
Q 1175 2209 1959 2209 
L 2766 2209 
L 2766 2266 
Q 2766 2663 2505 2880 
Q 2244 3097 1772 3097 
Q 1472 3097 1187 3025 
Q 903 2953 641 2809 
L 641 3341 
Q 956 3463 1253 3523 
Q 1550 3584 1831 3584 
Q 2591 3584 2966 3190 
Q 3341 2797 3341 1997 
z
" transform="scale(0.015625)"/>
       <path id="DejaVuSans-77" d="M 269 3500 
L 844 3500 
L 1563 769 
L 2278 3500 
L 2956 3500 
L 3675 769 
L 4391 3500 
L 4966 3500 
L 4050 0 
L 3372 0 
L 2619 2869 
L 1863 0 
L 1184 0 
L 269 3500 
z
" transform="scale(0.015625)"/>
       <path id="DejaVuSans-72" d="M 2631 2963 
Q 2534 3019 2420 3045 
Q 2306 3072 2169 3072 
Q 1681 3072 1420 2755 
Q 1159 2438 1159 1844 
L 1159 0 
L 581 0 
L 581 3500 
L 1159 3500 
L 1159 2956 
Q 1341 3275 1631 3429 
Q 1922 3584 2338 3584 
Q 2397 3584 2469 3576 
Q 2541 3569 2628 3553 
L 2631 2963 
z
" transform="scale(0.015625)"/>
      </defs>
      <use xlink:href="#DejaVuSans-52"/>
      <use xlink:href="#DejaVuSans-6f" x="64.982422"/>
      <use xlink:href="#DejaVuSans-6c" x="126.164062"/>
      <use xlink:href="#DejaVuSans-6c" x="153.947266"/>
      <use xlink:href="#DejaVuSans-69" x="181.730469"/>
      <use xlink:href="#DejaVuSans-6e" x="209.513672"/>
      <use xlink:href="#DejaVuSans-67" x="272.892578"/>
      <use xlink:href="#DejaVuSans-20" x="336.369141"/>
      <use xlink:href="#DejaVuSans-4d" x="368.15625"/>
      <use xlink:href="#DejaVuSans-65" x="454.435547"/>
      <use xlink:href="#DejaVuSans-61" x="515.958984"/>
      <use xlink:href="#DejaVuSans-6e" x="577.238281"/>
      <use xlink:href="#DejaVuSans-20" x="640.617188"/>
      <use xlink:href="#DejaVuSans-52" x="672.404297"/>
      <use xlink:href="#DejaVuSans-65" x="737.386719"/>
      <use xlink:href="#DejaVuSans-77" x="798.910156"/>
      <use xlink:href="#DejaVuSans-61" x="880.697266"/>
      <use xlink:href="#DejaVuSans-72" x="941.976562"/>
      <use xlink:href="#DejaVuSans-64" x="981.339844"/>
     </g>
    </g>
   </g>
   <g id="line2d_35">
    <path d="M 161.509091 351.551245 
L 161.864359 346.964711 
L 162.219628 302.785238 
L 162.574897 321.491347 
L 162.930165 313.371827 
L 163.285434 340.27694 
L 163.640702 324.928062 
L 163.995971 354.046615 
L 164.351239 316.732642 
L 164.706508 306.376064 
L 165.061776 338.770045 
L 165.417045 343.069035 
L 165.772313 334.452187 
L 166.127582 340.483283 
L 166.482851 348.847743 
L 166.838119 341.799924 
L 167.548656 320.727307 
L 167.903925 347.528668 
L 168.259193 350.67977 
L 168.614462 363.667635 
L 168.96973 355.683498 
L 169.324999 266.8665 
L 169.680267 347.44965 
L 170.035536 338.349239 
L 170.390804 362.273584 
L 170.746073 308.593547 
L 171.101342 342.463646 
L 171.45661 328.00665 
L 171.811879 355.40257 
L 172.167147 351.814412 
L 172.522416 360.765884 
L 172.877684 366.139826 
L 173.232953 331.723932 
L 173.588221 323.838631 
L 173.94349 363.078411 
L 174.298758 378.865537 
L 174.654027 330.27945 
L 175.009296 373.018983 
L 175.364564 314.826571 
L 175.719833 335.707576 
L 176.075101 337.901146 
L 176.43037 380.663408 
L 176.785638 338.745147 
L 177.140907 346.638027 
L 177.496175 268.007553 
L 177.851444 344.525043 
L 178.206712 330.846226 
L 178.561981 354.230444 
L 178.91725 348.919789 
L 179.272518 352.645973 
L 179.627787 358.904046 
L 179.983055 330.938819 
L 180.338324 329.826483 
L 180.693592 357.217186 
L 181.048861 342.20577 
L 181.404129 356.929903 
L 181.759398 357.037279 
L 182.114666 353.926765 
L 182.469935 382.668053 
L 183.180472 349.758359 
L 183.535741 346.215339 
L 183.891009 357.741502 
L 184.246278 321.938667 
L 184.601546 326.98793 
L 184.956815 369.087535 
L 185.312083 347.131903 
L 185.667352 345.089864 
L 186.377889 380.956747 
L 186.733157 343.318851 
L 187.088426 335.076435 
L 187.443695 330.274485 
L 187.798963 352.740657 
L 188.154232 360.354663 
L 188.5095 357.070724 
L 188.864769 329.529298 
L 189.220037 364.113087 
L 189.575306 357.845988 
L 189.930574 354.659425 
L 190.285843 331.429864 
L 190.99638 304.153695 
L 191.351649 343.197369 
L 191.706917 345.866163 
L 192.062186 340.779203 
L 192.417454 340.397128 
L 192.772723 322.505898 
L 193.127991 326.294455 
L 193.48326 327.975435 
L 193.838528 355.237653 
L 194.193797 347.180145 
L 194.549065 360.0672 
L 194.904334 318.911709 
L 195.259603 351.102896 
L 195.614871 329.296284 
L 195.97014 341.676613 
L 196.325408 364.435285 
L 196.680677 295.440484 
L 197.035945 336.727535 
L 197.391214 362.838007 
L 197.746482 350.289674 
L 198.101751 354.419262 
L 198.457019 309.675696 
L 198.812288 388.828908 
L 199.167557 353.539812 
L 199.522825 337.034491 
L 199.878094 332.577963 
L 200.233362 344.125028 
L 200.588631 339.893067 
L 200.943899 304.671792 
L 201.299168 309.137902 
L 201.654436 327.74652 
L 202.009705 285.923208 
L 202.364973 307.962113 
L 202.720242 378.076136 
L 203.07551 370.713324 
L 203.430779 335.539615 
L 203.786048 321.664152 
L 204.141316 317.54843 
L 204.496585 316.955012 
L 204.851853 313.157281 
L 205.207122 387.998777 
L 205.56239 348.378579 
L 205.917659 345.748134 
L 206.272927 327.272721 
L 206.628196 352.143831 
L 206.983464 308.672491 
L 207.338733 357.715402 
L 207.694002 320.44997 
L 208.04927 323.891577 
L 208.759807 383.976889 
L 209.115076 344.90427 
L 209.470344 329.67884 
L 209.825613 354.057304 
L 210.180881 326.658366 
L 210.53615 335.308289 
L 210.891418 320.350814 
L 211.246687 311.480598 
L 211.601956 326.928919 
L 211.957224 324.609146 
L 212.312493 318.429909 
L 212.667761 329.190014 
L 213.02303 306.896441 
L 213.378298 321.043542 
L 213.733567 318.043706 
L 214.088835 304.624673 
L 214.444104 321.329981 
L 214.799372 401.608776 
L 215.50991 293.67933 
L 215.865178 323.185423 
L 216.220447 321.521256 
L 216.575715 322.622946 
L 216.930984 373.231302 
L 217.286252 312.998513 
L 217.641521 308.16199 
L 217.996789 331.721989 
L 218.352058 366.59747 
L 218.707326 309.166581 
L 219.062595 332.849735 
L 219.417863 323.979225 
L 219.773132 327.241628 
L 220.128401 320.59347 
L 220.483669 323.585436 
L 220.838938 378.786289 
L 221.194206 336.681585 
L 221.549475 414.994265 
L 221.904743 324.700533 
L 222.260012 316.970162 
L 222.970549 346.238303 
L 223.325817 343.583152 
L 223.681086 337.631034 
L 224.036355 356.068382 
L 224.391623 344.589575 
L 224.746892 343.108669 
L 225.10216 300.966521 
L 225.457429 311.278107 
L 225.812697 360.705692 
L 226.167966 345.940799 
L 226.523234 349.083788 
L 226.878503 346.753331 
L 227.233771 341.627116 
L 227.58904 346.004124 
L 227.944309 390.152293 
L 228.299577 315.833469 
L 228.654846 314.001032 
L 229.010114 316.437139 
L 229.365383 336.782805 
L 229.720651 307.676251 
L 230.07592 320.08234 
L 230.431188 323.999148 
L 230.786457 364.577274 
L 231.141725 322.181524 
L 231.496994 317.440212 
L 231.852262 333.149419 
L 232.207531 359.416766 
L 232.5628 333.124731 
L 232.918068 323.996344 
L 233.273337 321.199436 
L 233.628605 320.547627 
L 233.983874 333.580326 
L 234.339142 342.107855 
L 234.694411 337.633003 
L 235.049679 344.703409 
L 235.404948 342.083337 
L 235.760216 350.659552 
L 236.470754 268.95659 
L 236.826022 311.031614 
L 237.536559 338.381794 
L 237.891828 314.830006 
L 238.247096 311.162693 
L 238.602365 347.570197 
L 238.957633 323.161085 
L 239.312902 322.552425 
L 239.66817 319.339558 
L 240.023439 373.023842 
L 240.378708 312.889649 
L 240.733976 355.630758 
L 241.089245 354.653321 
L 241.799782 304.212595 
L 242.15505 325.373627 
L 242.510319 337.370323 
L 242.865587 327.409964 
L 243.220856 323.765372 
L 243.576124 314.593323 
L 243.931393 327.565085 
L 244.286662 352.13221 
L 244.64193 301.907059 
L 244.997199 345.643383 
L 245.352467 309.289519 
L 245.707736 323.248956 
L 246.063004 310.459975 
L 246.418273 334.177931 
L 246.773541 333.458538 
L 247.12881 338.681661 
L 247.839347 317.692391 
L 248.194615 326.925839 
L 248.549884 327.62787 
L 248.905153 310.761681 
L 249.260421 318.621066 
L 249.61569 334.882844 
L 249.970958 320.183713 
L 250.326227 295.373644 
L 250.681495 361.732844 
L 251.036764 244.557266 
L 251.392032 374.077322 
L 251.747301 350.171943 
L 252.102569 306.796942 
L 252.813107 352.228068 
L 253.168375 360.662556 
L 253.523644 350.14365 
L 253.878912 317.966741 
L 254.234181 308.002856 
L 254.589449 390.238922 
L 254.944718 350.185733 
L 255.299986 356.642437 
L 255.655255 318.415548 
L 256.010523 315.054559 
L 256.365792 325.962509 
L 256.721061 312.35911 
L 257.076329 315.979162 
L 257.431598 332.666727 
L 257.786866 311.28722 
L 258.142135 324.854493 
L 258.852672 391.095028 
L 259.20794 327.876374 
L 259.563209 309.832664 
L 259.918477 350.555576 
L 260.273746 353.88253 
L 260.629015 358.325135 
L 260.984283 279.006063 
L 261.339552 370.363476 
L 261.69482 321.659488 
L 262.050089 294.95495 
L 262.405357 343.988148 
L 262.760626 347.168787 
L 263.115894 340.937443 
L 263.471163 324.022495 
L 263.826431 324.414903 
L 264.1817 380.179764 
L 264.536968 296.696182 
L 264.892237 332.102853 
L 265.247506 333.273956 
L 265.602774 315.180252 
L 266.313311 343.332062 
L 266.66858 223.543315 
L 267.023848 324.557899 
L 267.379117 334.447667 
L 267.734385 308.219995 
L 268.089654 309.094475 
L 268.444922 335.188518 
L 268.800191 327.917479 
L 269.15546 335.985621 
L 269.510728 328.065434 
L 269.865997 345.491026 
L 270.221265 311.882661 
L 270.576534 321.670241 
L 270.931802 308.44637 
L 271.287071 320.664896 
L 271.642339 347.906351 
L 271.997608 305.819085 
L 272.352876 307.868531 
L 272.708145 315.50685 
L 273.063414 332.75162 
L 273.418682 305.399442 
L 273.773951 307.215439 
L 274.129219 339.462157 
L 274.484488 359.219147 
L 274.839756 322.50001 
L 275.195025 298.035023 
L 275.550293 298.754557 
L 275.905562 392.025048 
L 276.616099 331.740969 
L 276.971368 332.279273 
L 277.326636 313.081488 
L 277.681905 308.458921 
L 278.037173 313.122017 
L 278.392442 359.080329 
L 278.74771 305.280635 
L 279.458247 327.263701 
L 279.813516 310.117299 
L 280.168784 303.902112 
L 280.524053 359.82034 
L 280.879321 321.376124 
L 281.23459 340.228423 
L 281.589859 322.535205 
L 281.945127 313.53045 
L 282.300396 360.470287 
L 282.655664 311.467496 
L 283.010933 322.828891 
L 283.366201 319.941988 
L 283.72147 430.92 
L 284.076738 296.719901 
L 284.432007 302.313021 
L 284.787275 311.697018 
L 285.142544 325.563249 
L 285.497813 367.218682 
L 285.853081 298.520216 
L 286.20835 329.448686 
L 286.563618 322.184829 
L 286.918887 302.721145 
L 287.274155 333.734468 
L 287.629424 375.255071 
L 287.984692 335.310938 
L 288.695229 307.860754 
L 289.050498 308.492839 
L 289.405767 326.424681 
L 289.761035 304.692043 
L 290.116304 316.885103 
L 290.471572 246.636417 
L 290.826841 289.769902 
L 291.182109 367.333522 
L 291.537378 315.324995 
L 291.892646 327.067304 
L 292.247915 360.143321 
L 292.603183 343.478706 
L 292.958452 340.626434 
L 293.31372 347.073835 
L 293.668989 310.340279 
L 294.024258 297.129798 
L 294.379526 297.031871 
L 294.734795 309.456565 
L 295.090063 315.873573 
L 295.445332 336.666136 
L 295.8006 372.163927 
L 296.155869 310.210896 
L 296.511137 319.539834 
L 296.866406 267.719924 
L 297.221674 307.638825 
L 297.576943 297.714009 
L 297.932212 315.751941 
L 298.28748 357.289174 
L 298.642749 336.558507 
L 298.998017 288.746436 
L 299.353286 299.15547 
L 299.708554 327.578471 
L 300.063823 269.999614 
L 300.77436 360.700152 
L 301.129628 307.692169 
L 301.484897 307.364716 
L 301.840166 384.948808 
L 302.195434 238.942317 
L 302.550703 328.582011 
L 302.905971 331.115984 
L 303.26124 302.233363 
L 303.616508 301.716376 
L 303.971777 318.572421 
L 304.327045 308.698059 
L 304.682314 310.829887 
L 305.037582 317.695512 
L 305.392851 355.566748 
L 305.74812 263.581954 
L 306.103388 311.595349 
L 306.458657 311.063323 
L 306.813925 296.127737 
L 307.169194 357.848741 
L 307.524462 321.406587 
L 307.879731 324.874607 
L 308.234999 305.720051 
L 308.590268 331.713882 
L 308.945536 293.516167 
L 309.300805 301.383885 
L 309.656073 354.714692 
L 310.011342 355.955 
L 310.366611 325.990759 
L 310.721879 310.266255 
L 311.077148 311.955786 
L 311.432416 344.865727 
L 311.787685 309.706947 
L 312.142953 354.99692 
L 312.498222 294.585004 
L 312.85349 303.084496 
L 313.208759 291.114231 
L 313.564027 346.341667 
L 313.919296 278.940123 
L 314.274565 302.855331 
L 314.629833 317.720824 
L 314.985102 305.624741 
L 315.34037 309.597303 
L 315.695639 308.342973 
L 316.050907 329.657328 
L 316.406176 318.2487 
L 316.761444 325.353101 
L 317.471981 304.011816 
L 317.82725 321.937934 
L 318.182519 297.301822 
L 318.537787 291.4532 
L 319.248324 317.054097 
L 319.603593 297.550866 
L 319.958861 244.142669 
L 320.31413 294.622772 
L 320.669398 190.599388 
L 321.024667 324.965264 
L 321.379935 280.576616 
L 321.735204 330.894844 
L 322.090473 309.021336 
L 322.445741 326.943908 
L 322.80101 288.947348 
L 323.156278 327.85382 
L 323.511547 293.320017 
L 323.866815 333.593073 
L 324.222084 248.522607 
L 324.577352 300.108503 
L 324.932621 245.71637 
L 325.287889 294.242805 
L 325.643158 320.138069 
L 325.998426 318.197364 
L 326.353695 292.923688 
L 326.708964 294.862738 
L 327.064232 326.972816 
L 327.419501 347.455855 
L 327.774769 300.27098 
L 328.130038 369.207697 
L 328.485306 300.795848 
L 328.840575 364.098488 
L 329.195843 313.067434 
L 329.551112 331.263563 
L 329.90638 339.962469 
L 330.261649 286.605188 
L 330.616918 366.299207 
L 330.972186 269.608485 
L 331.327455 308.248256 
L 331.682723 332.708598 
L 332.037992 269.489466 
L 332.39326 297.565036 
L 332.748529 306.754669 
L 333.103797 356.309225 
L 333.459066 288.633932 
L 333.814334 279.159311 
L 334.169603 330.102566 
L 334.524872 294.209207 
L 334.88014 285.376711 
L 335.235409 326.725328 
L 335.590677 237.759456 
L 335.945946 327.562715 
L 336.301214 293.184731 
L 336.656483 296.654187 
L 337.011751 320.291464 
L 337.36702 306.104356 
L 337.722288 375.52501 
L 338.077557 411.622203 
L 338.432826 306.055946 
L 338.788094 294.463497 
L 339.498631 337.624417 
L 339.8539 291.071647 
L 340.209168 307.786698 
L 340.564437 291.157054 
L 340.919705 306.685331 
L 341.274974 289.092139 
L 341.630242 218.557545 
L 341.985511 252.194303 
L 342.340779 374.716523 
L 342.696048 304.679254 
L 343.051317 337.487062 
L 343.406585 347.868587 
L 343.761854 311.594715 
L 344.472391 296.117459 
L 344.827659 303.323111 
L 345.182928 319.17946 
L 345.538196 279.125103 
L 345.893465 317.155075 
L 346.248733 312.234267 
L 346.604002 301.215069 
L 346.959271 303.182143 
L 347.314539 289.489286 
L 347.669808 288.415804 
L 348.025076 319.085619 
L 348.380345 339.345309 
L 348.735613 317.58647 
L 349.090882 349.115568 
L 349.44615 267.812081 
L 349.801419 320.831894 
L 350.156687 287.983583 
L 350.511956 312.477875 
L 351.222493 294.539114 
L 351.577762 307.959997 
L 351.93303 287.922949 
L 352.288299 298.710554 
L 352.643567 276.956583 
L 352.998836 302.825374 
L 353.354104 308.066165 
L 353.709373 291.514583 
L 354.41991 318.92754 
L 354.775178 324.813449 
L 355.130447 310.518827 
L 355.485716 287.214442 
L 355.840984 325.904887 
L 356.196253 302.275816 
L 356.551521 348.619185 
L 356.90679 350.96461 
L 357.262058 351.196835 
L 357.617327 244.374548 
L 357.972595 285.943842 
L 358.327864 300.356675 
L 358.683132 309.161511 
L 359.038401 305.902359 
L 359.39367 290.490379 
L 359.748938 305.453718 
L 360.104207 304.388685 
L 360.459475 339.730192 
L 360.814744 322.534215 
L 361.170012 286.794502 
L 361.525281 278.735675 
L 361.880549 250.939166 
L 362.235818 325.382315 
L 363.301624 286.212649 
L 363.656892 293.33252 
L 364.012161 336.005147 
L 364.367429 228.544914 
L 364.722698 315.687667 
L 365.077966 308.398849 
L 365.433235 282.413993 
L 365.788503 322.59256 
L 366.143772 302.650724 
L 366.49904 302.236492 
L 366.854309 292.006554 
L 367.209578 267.551372 
L 367.564846 288.401445 
L 367.920115 291.545544 
L 368.275383 267.920766 
L 368.98592 328.539251 
L 369.696457 299.549633 
L 370.051726 310.974221 
L 370.406994 315.635639 
L 370.762263 294.553782 
L 371.117531 297.835445 
L 371.4728 210.831354 
L 371.828069 307.672321 
L 372.183337 306.593313 
L 372.538606 285.693477 
L 372.893874 289.330314 
L 373.249143 296.868975 
L 373.604411 291.821956 
L 373.95968 328.937476 
L 374.314948 291.111325 
L 374.670217 294.30063 
L 375.025485 303.989604 
L 375.380754 251.884565 
L 375.736023 309.318447 
L 376.091291 305.835572 
L 376.44656 305.985831 
L 376.801828 294.683794 
L 377.157097 291.736152 
L 377.512365 338.679015 
L 377.867634 310.396046 
L 378.222902 335.80615 
L 378.578171 308.428972 
L 378.933439 294.112786 
L 379.288708 312.541963 
L 379.643977 348.687191 
L 379.999245 308.934255 
L 380.354514 316.462731 
L 380.709782 307.647249 
L 381.065051 307.074997 
L 381.420319 297.654836 
L 381.775588 313.917995 
L 382.130856 316.853182 
L 382.486125 309.283633 
L 382.841393 298.890296 
L 383.196662 319.555374 
L 383.551931 277.045887 
L 383.907199 362.885843 
L 384.262468 299.825755 
L 384.617736 329.991434 
L 384.973005 312.559272 
L 385.328273 265.823886 
L 385.683542 291.891707 
L 386.03881 278.503696 
L 386.394079 361.533436 
L 386.749347 266.998995 
L 387.104616 293.887049 
L 387.459884 289.626361 
L 387.815153 294.952984 
L 388.170422 311.329946 
L 388.52569 345.458867 
L 388.880959 309.207903 
L 389.236227 234.098174 
L 389.591496 293.52049 
L 389.946764 288.71969 
L 390.302033 282.112629 
L 390.657301 294.607461 
L 391.01257 324.541675 
L 391.367838 310.501248 
L 391.723107 327.850004 
L 392.078376 242.050543 
L 392.433644 283.278679 
L 392.788913 272.595574 
L 393.144181 281.025138 
L 393.49945 271.751451 
L 393.854718 272.710893 
L 394.565255 328.230635 
L 394.920524 282.554038 
L 395.275792 307.988945 
L 395.631061 282.215132 
L 395.98633 314.393928 
L 396.341598 303.532059 
L 396.696867 267.461988 
L 397.052135 251.492448 
L 397.407404 314.203098 
L 397.762672 258.190223 
L 398.117941 295.110565 
L 398.473209 276.254063 
L 398.828478 370.288381 
L 399.183746 291.280648 
L 399.539015 298.758278 
L 399.894284 236.231994 
L 400.249552 315.515136 
L 400.604821 284.723893 
L 400.960089 288.893834 
L 401.315358 285.465982 
L 401.670626 290.962135 
L 402.025895 240.429855 
L 402.381163 320.091791 
L 402.736432 311.874646 
L 403.0917 316.615255 
L 403.446969 325.061191 
L 403.802237 290.955695 
L 404.157506 295.303756 
L 404.512775 301.602952 
L 405.223312 295.459563 
L 405.57858 323.016113 
L 405.933849 234.435158 
L 406.289117 303.316897 
L 406.999654 283.960045 
L 407.354923 276.170494 
L 407.710191 278.696251 
L 408.06546 295.499436 
L 408.420729 276.636691 
L 408.775997 295.438624 
L 409.131266 288.99108 
L 409.486534 288.879718 
L 409.841803 274.108859 
L 410.197071 295.427579 
L 410.55234 328.043998 
L 410.907608 274.239621 
L 411.262877 264.188828 
L 411.618145 329.374991 
L 411.973414 306.836687 
L 412.328683 318.03165 
L 412.683951 287.683534 
L 413.03922 312.70835 
L 413.749757 254.598087 
L 414.105025 296.665892 
L 414.460294 288.459417 
L 414.815562 292.049873 
L 415.170831 293.048067 
L 415.526099 278.480416 
L 415.881368 205.126524 
L 416.236637 292.968115 
L 416.591905 324.576545 
L 416.947174 335.609854 
L 417.302442 291.738573 
L 417.657711 305.827194 
L 418.012979 288.108493 
L 418.368248 303.258451 
L 418.723516 289.316566 
L 419.078785 286.555358 
L 419.789322 319.051461 
L 420.14459 256.695052 
L 420.499859 289.456682 
L 420.855128 300.63144 
L 421.210396 303.080401 
L 421.565665 267.228867 
L 421.920933 316.544443 
L 422.276202 206.554233 
L 422.63147 308.075709 
L 422.986739 292.017308 
L 423.342007 255.381866 
L 423.697276 299.874738 
L 424.052544 273.164202 
L 424.407813 259.620913 
L 424.763082 290.034497 
L 425.11835 270.547954 
L 425.473619 337.702511 
L 425.828887 286.228424 
L 426.539424 254.28248 
L 426.894693 291.533847 
L 427.249961 284.412556 
L 427.60523 274.19122 
L 427.960498 286.662189 
L 428.315767 285.442678 
L 428.671036 273.475104 
L 429.026304 324.514524 
L 429.381573 282.822587 
L 430.09211 320.258649 
L 430.447378 292.023933 
L 430.802647 306.769269 
L 431.157915 315.375056 
L 431.868452 284.642132 
L 432.223721 210.381223 
L 432.578989 294.600265 
L 432.934258 236.835971 
L 433.644795 303.60074 
L 434.000064 274.347044 
L 434.355332 279.073394 
L 434.710601 290.057158 
L 435.065869 290.900287 
L 435.421138 261.389348 
L 435.776406 314.539877 
L 436.131675 248.747116 
L 436.486943 317.166331 
L 436.842212 289.863941 
L 437.197481 308.108041 
L 437.908018 270.36573 
L 438.263286 253.58121 
L 438.618555 303.625542 
L 438.973823 299.132821 
L 439.329092 334.392484 
L 439.68436 300.297955 
L 440.039629 318.975239 
L 440.394897 307.263005 
L 440.750166 251.063167 
L 441.105435 272.6527 
L 441.460703 328.005265 
L 442.17124 265.551545 
L 442.526509 231.940157 
L 442.881777 282.843615 
L 443.237046 300.020928 
L 443.592314 265.756295 
L 443.947583 309.424363 
L 444.302851 286.617831 
L 444.65812 301.230411 
L 445.013389 303.662085 
L 445.368657 364.612843 
L 445.723926 275.317722 
L 446.079194 246.155951 
L 446.434463 266.853199 
L 446.789731 298.140819 
L 447.145 273.333346 
L 447.500268 282.582264 
L 447.855537 287.58253 
L 448.210805 286.36875 
L 448.566074 301.258498 
L 448.921342 258.974147 
L 449.276611 293.504082 
L 449.63188 282.09853 
L 449.987148 332.106478 
L 450.697685 262.377587 
L 451.052954 256.987109 
L 451.408222 290.304497 
L 451.763491 342.657959 
L 452.118759 273.48454 
L 452.474028 298.663556 
L 452.829296 247.286986 
L 453.184565 285.112499 
L 453.539834 305.840169 
L 453.895102 275.076939 
L 454.250371 284.960505 
L 454.960908 336.227609 
L 455.671445 189.171446 
L 456.381982 289.66818 
L 456.73725 300.010466 
L 457.092519 323.876927 
L 457.447788 305.140601 
L 457.803056 297.907491 
L 458.158325 220.080408 
L 458.513593 277.395647 
L 458.868862 238.20648 
L 459.22413 292.532457 
L 459.579399 250.549169 
L 459.934667 276.118595 
L 460.289936 276.472417 
L 460.645204 330.164384 
L 461.000473 297.613351 
L 461.355742 279.661423 
L 461.71101 287.931181 
L 462.066279 272.729586 
L 462.421547 235.663761 
L 462.776816 259.21731 
L 463.132084 313.081637 
L 463.487353 264.062192 
L 463.842621 289.796212 
L 464.19789 298.860481 
L 464.553158 265.257024 
L 464.908427 293.735514 
L 465.263695 287.30479 
L 465.618964 293.399547 
L 465.974233 320.027232 
L 466.329501 251.472458 
L 466.68477 281.802399 
L 467.040038 298.146068 
L 467.395307 276.96577 
L 467.750575 277.298302 
L 468.105844 262.472733 
L 468.816381 317.110063 
L 469.171649 205.520087 
L 469.882187 277.678694 
L 470.237455 260.209738 
L 470.592724 293.275339 
L 470.947992 232.312607 
L 471.303261 298.812514 
L 471.658529 291.579598 
L 472.013798 308.206198 
L 472.369066 273.124536 
L 472.724335 269.894983 
L 473.079603 258.584725 
L 473.434872 257.636572 
L 474.145409 297.033209 
L 474.500678 307.401169 
L 474.855946 237.52985 
L 475.211215 310.142409 
L 475.921752 235.685828 
L 476.27702 288.252861 
L 476.632289 300.612541 
L 476.987557 270.934972 
L 477.342826 230.867022 
L 477.698095 260.41258 
L 478.408632 297.788501 
L 478.7639 294.933173 
L 479.119169 290.953689 
L 479.474437 247.966834 
L 479.829706 293.671026 
L 480.184974 276.166459 
L 480.540243 272.950767 
L 480.895511 313.500335 
L 481.25078 265.33985 
L 481.606048 260.016574 
L 481.961317 272.906645 
L 482.316586 335.718272 
L 482.671854 264.447244 
L 483.027123 261.306948 
L 483.382391 280.739383 
L 483.73766 267.618953 
L 484.092928 280.623685 
L 484.448197 306.726427 
L 484.803465 264.38486 
L 485.158734 281.65336 
L 485.514002 253.860062 
L 485.869271 265.281796 
L 486.22454 201.949018 
L 486.579808 256.664522 
L 486.935077 265.405344 
L 487.290345 282.908206 
L 487.645614 276.403789 
L 488.000882 239.339667 
L 488.356151 265.970735 
L 488.711419 278.311971 
L 489.066688 276.554383 
L 489.421956 273.129754 
L 489.777225 266.252627 
L 490.132494 287.475043 
L 490.487762 231.204121 
L 490.843031 276.71872 
L 491.198299 232.614199 
L 491.553568 251.934713 
L 491.908836 213.559508 
L 492.264105 274.626779 
L 492.619373 284.533243 
L 492.974642 302.830862 
L 493.32991 281.483088 
L 493.685179 275.821113 
L 494.040447 299.13329 
L 494.395716 223.544744 
L 494.750985 285.429416 
L 495.106253 226.496829 
L 495.461522 292.158826 
L 495.81679 313.505408 
L 496.172059 268.767261 
L 496.527327 287.143338 
L 496.882596 255.788504 
L 497.237864 293.659799 
L 497.593133 295.20651 
L 497.948401 252.233146 
L 498.30367 289.551363 
L 498.658939 284.953926 
L 499.014207 274.728459 
L 499.369476 290.583781 
L 499.724744 242.195006 
L 500.080013 259.650665 
L 500.435281 298.13808 
L 500.79055 285.098312 
L 501.501087 272.11736 
L 501.856355 267.915879 
L 502.211624 277.381747 
L 502.566893 244.202803 
L 502.922161 291.019948 
L 503.27743 263.427966 
L 503.632698 252.570048 
L 503.987967 345.721592 
L 504.343235 269.502939 
L 504.698504 267.217545 
L 505.053772 307.477991 
L 505.409041 195.517028 
L 505.764309 274.995855 
L 506.119578 248.595499 
L 506.474847 269.393135 
L 506.830115 226.6243 
L 507.185384 307.602615 
L 507.540652 238.444716 
L 508.251189 261.024354 
L 508.606458 291.495134 
L 508.961726 270.775307 
L 509.316995 279.973369 
L 509.672263 231.993998 
L 510.027532 245.012155 
L 510.3828 223.767648 
L 510.738069 295.253082 
L 511.093338 267.52751 
L 511.448606 208.366636 
L 511.803875 265.622215 
L 512.159143 283.985483 
L 512.514412 269.728371 
L 512.86968 250.861571 
L 513.224949 300.694031 
L 513.580217 205.185289 
L 513.935486 274.963158 
L 514.290754 229.149815 
L 514.646023 265.223739 
L 515.001292 227.159561 
L 515.35656 256.47108 
L 515.711829 269.174353 
L 516.067097 292.78613 
L 516.777634 262.26047 
L 517.132903 288.345593 
L 517.488171 271.428781 
L 518.198708 253.075374 
L 518.553977 226.468235 
L 518.909246 264.47772 
L 519.264514 269.35662 
L 519.619783 268.730912 
L 519.975051 273.498969 
L 520.33032 206.622336 
L 520.685588 191.506287 
L 521.040857 271.734809 
L 521.396125 199.086717 
L 521.751394 252.595752 
L 522.106662 193.720086 
L 522.461931 271.494113 
L 522.8172 258.606238 
L 523.172468 293.594886 
L 523.527737 226.58114 
L 523.883005 223.458646 
L 524.238274 249.495833 
L 524.593542 286.194624 
L 524.948811 262.606607 
L 525.659348 284.838821 
L 526.014616 218.815898 
L 526.369885 256.213744 
L 526.725153 267.965877 
L 527.080422 202.81039 
L 527.435691 263.7086 
L 527.790959 195.115892 
L 528.146228 266.376634 
L 528.501496 220.309007 
L 528.856765 287.382104 
L 529.212033 213.585402 
L 529.567302 310.877543 
L 529.92257 256.059728 
L 530.277839 224.275643 
L 530.633107 265.823511 
L 530.988376 252.668283 
L 531.343645 206.519036 
L 531.698913 255.259545 
L 532.40945 174.500127 
L 532.764719 277.471637 
L 533.119987 262.575188 
L 533.475256 192.456441 
L 533.830524 307.808728 
L 534.185793 273.098765 
L 534.541061 276.367303 
L 534.89633 275.970257 
L 535.251599 284.941531 
L 535.606867 282.999161 
L 535.962136 263.031076 
L 536.317404 263.335473 
L 536.672673 270.406978 
L 537.027941 269.696887 
L 537.38321 248.079345 
L 537.738478 271.403813 
L 538.804284 227.996064 
L 539.159553 263.73675 
L 539.514821 229.217045 
L 539.87009 219.079484 
L 540.225358 278.87195 
L 540.580627 289.050428 
L 540.935895 242.198267 
L 541.291164 290.064963 
L 541.646432 264.069984 
L 542.001701 267.897863 
L 542.356969 280.123589 
L 542.712238 263.622853 
L 543.067506 267.899977 
L 543.422775 297.050102 
L 543.778044 239.502354 
L 544.133312 282.911385 
L 544.488581 193.561222 
L 544.843849 257.792545 
L 545.199118 185.142913 
L 545.554386 268.159597 
L 545.909655 275.453474 
L 546.264923 260.328731 
L 546.620192 209.538528 
L 546.97546 285.450526 
L 547.685998 224.699065 
L 548.041266 263.894972 
L 548.396535 250.465027 
L 548.751803 343.818325 
L 549.107072 257.784827 
L 549.46234 257.424826 
L 549.817609 274.192615 
L 550.172877 282.459217 
L 550.528146 184.696914 
L 550.883414 278.326141 
L 551.238683 258.82248 
L 551.593952 182.881948 
L 551.94922 168.824364 
L 552.304489 269.492609 
L 552.659757 259.435011 
L 553.015026 282.596242 
L 553.370294 217.867402 
L 553.725563 256.492512 
L 554.080831 270.212284 
L 554.791368 247.561343 
L 555.146637 302.501494 
L 555.501905 257.408369 
L 555.857174 286.962026 
L 556.212443 232.065017 
L 556.567711 195.48646 
L 557.278248 286.246208 
L 557.633517 270.021228 
L 557.988785 278.459377 
L 558.344054 265.237261 
L 559.054591 184.370615 
L 559.409859 199.365178 
L 559.765128 223.721687 
L 560.120397 264.160639 
L 560.475665 224.73097 
L 560.830934 279.999416 
L 561.186202 268.164553 
L 561.541471 248.729454 
L 561.896739 264.751383 
L 562.252008 214.22193 
L 562.607276 194.541781 
L 562.962545 277.480068 
L 563.317813 280.91104 
L 563.673082 252.106201 
L 564.028351 242.413739 
L 564.383619 244.285353 
L 564.738888 239.805131 
L 565.094156 223.354756 
L 565.449425 227.278522 
L 565.804693 218.814214 
L 566.159962 206.453238 
L 566.51523 239.258564 
L 566.870499 261.046881 
L 567.225767 269.930322 
L 567.581036 236.583412 
L 567.936305 267.865371 
L 568.291573 271.279182 
L 568.646842 228.757009 
L 569.00211 226.574099 
L 569.357379 271.98618 
L 569.712647 259.296429 
L 570.067916 267.703314 
L 570.423184 266.65935 
L 570.778453 257.717002 
L 571.133721 257.4667 
L 571.48899 272.918193 
L 571.844258 241.438075 
L 572.199527 270.328267 
L 572.554796 245.334261 
L 572.910064 251.145831 
L 573.265333 237.457142 
L 573.620601 258.523889 
L 574.331138 252.92477 
L 574.686407 237.288834 
L 575.041675 269.405678 
L 575.396944 287.622963 
L 575.752212 284.424582 
L 576.107481 177.507149 
L 576.46275 189.276524 
L 576.818018 213.073861 
L 577.173287 254.899034 
L 577.528555 271.92655 
L 577.883824 249.81901 
L 578.239092 170.149574 
L 578.594361 156.907779 
L 578.949629 234.724056 
L 579.304898 261.151207 
L 579.660166 263.269371 
L 580.015435 245.609133 
L 580.370704 297.424444 
L 580.725972 209.096097 
L 581.081241 274.417118 
L 581.436509 182.120243 
L 581.791778 249.67728 
L 582.147046 270.601678 
L 582.502315 237.774697 
L 582.857583 148.101678 
L 583.212852 203.225748 
L 583.56812 167.66869 
L 583.923389 222.730975 
L 584.989195 259.448026 
L 585.344463 274.280969 
L 585.699732 182.558959 
L 586.410269 282.223359 
L 586.765537 263.436678 
L 587.120806 275.653311 
L 587.476074 226.546207 
L 587.831343 302.941027 
L 588.186611 229.84182 
L 588.54188 251.693977 
L 588.897149 198.653974 
L 589.252417 261.792908 
L 589.962954 237.586003 
L 590.318223 258.497176 
L 590.673491 188.742753 
L 591.02876 233.368554 
L 591.384028 247.778181 
L 591.739297 256.794213 
L 592.094565 256.911626 
L 592.449834 282.713316 
L 592.805103 255.493483 
L 593.160371 183.643585 
L 593.51564 280.840133 
L 593.870908 289.525302 
L 594.226177 275.260338 
L 594.581445 179.681155 
L 594.936714 255.992048 
L 595.291982 273.937153 
L 595.647251 334.081137 
L 596.002519 174.243551 
L 596.357788 269.36735 
L 596.713057 285.151872 
L 597.068325 219.24971 
L 597.423594 243.636024 
L 597.778862 162.823353 
L 598.134131 238.68945 
L 598.489399 150.295209 
L 598.844668 267.935459 
L 599.199936 268.467799 
L 599.555205 260.097298 
L 599.910473 223.968891 
L 600.265742 221.705833 
L 600.621011 173.308588 
L 600.976279 198.69515 
L 601.331548 255.950587 
L 601.686816 201.939389 
L 602.042085 212.442219 
L 602.397353 289.139022 
L 602.752622 281.810513 
L 603.10789 254.467861 
L 603.463159 274.686256 
L 603.818427 252.610306 
L 604.173696 280.846111 
L 604.528964 247.776267 
L 604.884233 261.052189 
L 605.239502 252.803892 
L 605.59477 224.364937 
L 605.950039 258.692367 
L 606.305307 266.352464 
L 606.660576 269.971286 
L 607.015844 266.831224 
L 607.371113 249.86363 
L 607.726381 177.134824 
L 608.436918 264.849614 
L 608.792187 258.231217 
L 609.147456 272.531902 
L 609.502724 237.546241 
L 609.857993 242.620928 
L 610.213261 219.884294 
L 610.56853 264.503504 
L 610.923798 177.550231 
L 611.634335 251.367947 
L 611.989604 227.145674 
L 612.344872 161.298287 
L 612.700141 256.478495 
L 613.05541 176.866374 
L 613.410678 149.03167 
L 613.765947 262.255399 
L 614.121215 206.10391 
L 614.476484 246.387888 
L 614.831752 157.332839 
L 615.187021 189.511319 
L 615.542289 275.538797 
L 615.897558 252.065286 
L 616.252826 237.668417 
L 616.608095 145.984938 
L 616.963363 183.462525 
L 617.318632 255.429649 
L 617.673901 206.525276 
L 618.029169 244.282713 
L 618.384438 235.293878 
L 619.094975 271.241092 
L 619.450243 227.473984 
L 619.805512 265.701655 
L 620.16078 253.062664 
L 620.516049 180.937967 
L 620.871317 271.268447 
L 621.226586 223.690126 
L 621.581855 277.715135 
L 621.937123 256.878306 
L 622.292392 264.193081 
L 622.64766 153.976063 
L 623.002929 166.773522 
L 623.358197 262.164519 
L 623.713466 175.059348 
L 624.068734 164.561081 
L 624.424003 267.397976 
L 624.779271 211.310327 
L 625.13454 253.762975 
L 625.489809 237.839854 
L 625.845077 277.395516 
L 626.555614 241.391082 
L 626.910883 157.446775 
L 627.266151 198.097913 
L 627.62142 155.972346 
L 627.976688 243.328823 
L 628.331957 250.397861 
L 628.687225 247.743449 
L 629.042494 250.898134 
L 629.397763 131.662269 
L 629.753031 251.637042 
L 630.1083 181.952365 
L 630.463568 263.089133 
L 630.818837 217.551475 
L 631.174105 258.066118 
L 631.529374 183.816334 
L 631.884642 260.390326 
L 632.239911 255.97418 
L 632.595179 183.871806 
L 632.950448 249.568167 
L 633.305716 154.570927 
L 633.660985 271.143344 
L 634.016254 226.685876 
L 634.371522 198.78538 
L 634.726791 255.194664 
L 635.082059 215.819768 
L 635.437328 219.918374 
L 635.792596 245.197507 
L 636.147865 281.789332 
L 636.503133 266.84716 
L 636.858402 293.071858 
L 637.568939 188.305371 
L 637.924208 233.906446 
L 638.279476 183.740986 
L 638.634745 239.32623 
L 638.990013 225.877523 
L 639.345282 244.936476 
L 639.70055 226.198835 
L 640.055819 200.185471 
L 640.766356 258.002307 
L 641.121624 232.736239 
L 641.476893 137.480541 
L 641.832162 230.50241 
L 642.18743 281.50439 
L 642.542699 212.007709 
L 642.897967 257.164352 
L 643.608504 245.306536 
L 643.963773 251.464433 
L 644.319041 261.500937 
L 644.67431 258.317963 
L 645.029578 146.065645 
L 645.384847 258.967171 
L 645.740116 255.443376 
L 646.095384 194.28365 
L 646.450653 241.973004 
L 646.805921 182.791264 
L 647.16119 195.91543 
L 647.516458 228.341454 
L 647.871727 217.690695 
L 648.226995 263.735566 
L 648.582264 247.282643 
L 649.648069 144.217681 
L 650.003338 221.296763 
L 650.358607 270.157335 
L 650.713875 197.459199 
L 651.069144 243.198198 
L 651.424412 204.97592 
L 651.779681 244.294911 
L 652.134949 235.194522 
L 652.490218 220.215041 
L 652.845486 233.579133 
L 653.200755 187.437346 
L 653.556023 225.576367 
L 653.911292 251.252302 
L 654.266561 170.063046 
L 654.621829 173.090627 
L 654.977098 243.139885 
L 655.332366 193.750547 
L 655.687635 239.613115 
L 656.042903 151.331264 
L 656.398172 180.549689 
L 656.75344 265.225995 
L 657.108709 226.132974 
L 657.463977 217.062579 
L 657.819246 247.39089 
L 658.174515 201.866394 
L 658.529783 254.065186 
L 658.885052 220.604982 
L 659.24032 171.549777 
L 659.595589 249.176972 
L 659.950857 212.357951 
L 660.306126 200.495382 
L 660.661394 243.706142 
L 661.016663 226.253703 
L 661.371931 271.771679 
L 661.7272 273.211443 
L 662.082469 106.081659 
L 662.437737 186.494248 
L 662.793006 176.499184 
L 663.148274 246.080115 
L 663.503543 198.729931 
L 663.858811 247.151023 
L 664.21408 231.875795 
L 664.569348 253.271266 
L 664.924617 203.384035 
L 665.635154 249.935923 
L 665.990422 195.907721 
L 666.345691 227.50381 
L 666.70096 236.609822 
L 667.056228 168.644685 
L 667.411497 134.799028 
L 667.766765 257.764289 
L 668.122034 145.246859 
L 668.477302 170.926186 
L 668.832571 247.505602 
L 669.543108 215.731233 
L 669.898376 248.362727 
L 670.253645 256.365278 
L 670.608914 212.637205 
L 670.964182 231.661138 
L 671.319451 151.576609 
L 671.674719 152.734932 
L 672.029988 246.354724 
L 672.385256 157.092011 
L 672.740525 178.007119 
L 673.095793 166.324262 
L 673.451062 235.745475 
L 673.80633 135.579203 
L 674.161599 147.806931 
L 674.516868 179.7697 
L 674.872136 268.049141 
L 675.227405 174.491726 
L 675.582673 224.303986 
L 675.937942 151.766 
L 676.29321 121.985497 
L 676.648479 217.875691 
L 677.003747 140.605881 
L 677.359016 138.57104 
L 677.714284 171.421261 
L 678.069553 259.765679 
L 678.424822 244.102898 
L 678.78009 246.362794 
L 679.135359 165.688193 
L 679.490627 175.195312 
L 679.845896 263.622474 
L 680.201164 249.515646 
L 680.556433 129.147152 
L 680.911701 172.180797 
L 681.26697 157.804808 
L 681.622238 250.245533 
L 681.977507 174.23456 
L 682.688044 218.223025 
L 683.043313 173.857892 
L 683.398581 183.179745 
L 683.75385 235.668513 
L 684.109118 261.970035 
L 684.464387 259.646695 
L 684.819655 218.56078 
L 685.174924 245.637271 
L 685.530192 174.565935 
L 685.885461 159.811786 
L 686.240729 236.883887 
L 686.951267 170.030077 
L 687.306535 223.823002 
L 687.661804 225.64197 
L 688.017072 166.827642 
L 688.372341 251.503447 
L 688.727609 246.925659 
L 689.082878 254.395084 
L 689.438146 223.283199 
L 689.793415 158.386108 
L 690.148683 255.284435 
L 690.503952 156.703989 
L 690.859221 246.935674 
L 691.214489 216.685447 
L 691.569758 158.770383 
L 691.925026 188.018431 
L 692.280295 250.387246 
L 692.990832 243.119434 
L 693.3461 236.764194 
L 693.701369 139.942724 
L 694.056637 143.171638 
L 694.411906 229.005098 
L 694.767174 243.884581 
L 695.122443 253.467335 
L 695.477712 148.728484 
L 695.83298 225.881598 
L 696.188249 146.002128 
L 696.543517 122.799721 
L 696.898786 205.477812 
L 697.254054 230.579717 
L 697.609323 196.824832 
L 697.964591 232.309487 
L 698.31986 253.822727 
L 698.675128 220.401184 
L 699.030397 239.375907 
L 699.385666 272.025203 
L 699.740934 152.848991 
L 700.451471 123.485078 
L 700.80674 238.019558 
L 701.162008 197.827384 
L 701.517277 221.272663 
L 701.872545 197.538132 
L 702.227814 153.883812 
L 702.583082 163.495577 
L 702.938351 188.962406 
L 703.29362 247.810831 
L 703.648888 127.356461 
L 704.359425 220.725697 
L 704.714694 209.123412 
L 705.069962 190.151309 
L 705.425231 214.956708 
L 705.780499 204.031941 
L 706.135768 232.597218 
L 706.491036 121.316634 
L 706.846305 239.04447 
L 707.201574 166.871211 
L 707.556842 198.401929 
L 707.912111 208.021193 
L 708.267379 147.139006 
L 708.622648 192.182085 
L 708.977916 144.882171 
L 709.333185 245.088092 
L 709.688453 184.178463 
L 710.043722 168.178317 
L 710.39899 140.282681 
L 711.109527 187.655982 
L 711.464796 260.162001 
L 711.820065 115.400334 
L 712.175333 143.062802 
L 712.530602 149.424109 
L 712.88587 208.062915 
L 713.241139 192.602493 
L 713.596407 241.32501 
L 713.951676 224.679776 
L 714.306944 201.130302 
L 714.662213 140.108951 
L 715.017481 245.982415 
L 715.37275 234.581155 
L 716.083287 181.264612 
L 716.438556 190.760463 
L 716.793824 253.473103 
L 717.149093 102.827669 
L 717.504361 154.044396 
L 717.85963 176.148254 
L 718.214898 242.75737 
L 718.570167 205.51955 
L 718.925435 236.790393 
L 719.280704 188.170721 
L 719.635973 241.430064 
L 719.991241 196.662847 
L 720.34651 224.533889 
L 720.701778 134.558109 
L 721.057047 239.914744 
L 721.412315 235.26544 
L 721.767584 245.681141 
L 722.122852 195.449362 
L 722.478121 213.657844 
L 722.833389 141.847917 
L 723.188658 242.007741 
L 723.543927 194.778233 
L 723.899195 175.303181 
L 724.254464 109.607573 
L 724.609732 179.18235 
L 724.965001 103.562106 
L 725.320269 155.443954 
L 726.030806 201.776622 
L 726.386075 158.922193 
L 726.741343 168.089182 
L 727.096612 194.073779 
L 727.45188 237.21735 
L 727.807149 231.040777 
L 728.162418 168.513548 
L 728.517686 164.871871 
L 728.872955 251.330653 
L 729.228223 185.254139 
L 729.583492 234.874887 
L 730.294029 243.408919 
L 730.649297 157.174726 
L 731.004566 235.628451 
L 731.359834 124.015625 
L 732.070372 209.167362 
L 732.780909 105.926711 
L 733.136177 143.351718 
L 733.491446 239.400372 
L 733.846714 114.782295 
L 734.201983 228.055786 
L 734.557251 192.317593 
L 734.91252 224.233341 
L 735.267788 155.197045 
L 735.623057 189.105548 
L 735.978326 183.948961 
L 736.333594 235.658447 
L 736.688863 235.005196 
L 737.044131 162.710946 
L 737.3994 167.321061 
L 737.754668 236.778155 
L 738.109937 163.371714 
L 738.465205 175.981375 
L 738.820474 237.664697 
L 739.175742 175.417805 
L 739.531011 148.731842 
L 739.88628 197.810824 
L 740.241548 217.210255 
L 740.596817 185.026545 
L 740.952085 113.888692 
L 741.307354 138.639874 
L 741.662622 131.142047 
L 742.017891 111.43302 
L 742.728428 256.249212 
L 743.083696 135.710924 
L 743.438965 198.140287 
L 743.794233 159.826673 
L 744.149502 196.376746 
L 744.504771 198.87433 
L 744.860039 184.071759 
L 745.215308 242.595838 
L 745.570576 170.96183 
L 745.925845 232.287619 
L 746.281113 152.889208 
L 746.636382 216.620435 
L 747.346919 189.928587 
L 747.702187 114.048354 
L 748.057456 124.151172 
L 748.412725 109.112676 
L 748.767993 190.643194 
L 749.123262 137.957779 
L 749.47853 219.852463 
L 749.833799 229.680918 
L 750.189067 169.305787 
L 750.544336 183.42805 
L 750.899604 178.121443 
L 751.254873 167.616889 
L 751.96541 240.653499 
L 752.320679 209.852556 
L 752.675947 232.981645 
L 753.031216 238.412583 
L 753.386484 151.005439 
L 753.741753 181.025453 
L 754.097021 166.475131 
L 754.807558 279.137825 
L 755.162827 227.10574 
L 755.518095 150.015331 
L 755.873364 234.099823 
L 756.228632 235.325565 
L 756.583901 172.023102 
L 756.93917 209.303702 
L 757.294438 230.140058 
L 757.649707 160.033496 
L 758.004975 146.180266 
L 758.360244 244.031557 
L 758.715512 231.643483 
L 759.070781 187.370239 
L 759.426049 246.242971 
L 760.136586 193.664214 
L 760.491855 133.769066 
L 760.847124 151.891027 
L 761.202392 211.020022 
L 761.557661 189.209942 
L 761.912929 185.215385 
L 762.268198 217.006566 
L 762.623466 175.950865 
L 762.978735 224.632196 
L 763.334003 170.903605 
L 763.689272 238.648762 
L 764.04454 126.351354 
L 764.399809 219.076827 
L 764.755078 244.513061 
L 765.110346 178.500599 
L 765.465615 247.922559 
L 765.820883 138.588637 
L 766.176152 141.258849 
L 766.53142 129.028982 
L 766.886689 215.024049 
L 767.241957 231.092676 
L 767.597226 201.552002 
L 767.952494 192.939456 
L 768.307763 136.368454 
L 768.663032 259.047997 
L 769.373569 134.543467 
L 769.728837 140.489501 
L 770.084106 250.873199 
L 770.439374 118.976562 
L 770.794643 249.040127 
L 771.149911 103.209026 
L 771.50518 227.161786 
L 771.860448 226.412141 
L 772.215717 141.281802 
L 772.570985 111.644349 
L 772.926254 233.530115 
L 773.281523 113.03714 
L 773.636791 233.532469 
L 773.99206 113.134656 
L 774.347328 241.698394 
L 774.702597 141.382855 
L 775.057865 191.81812 
L 775.413134 149.473307 
L 775.768402 240.498785 
L 776.123671 230.826251 
L 776.478939 156.848287 
L 777.189477 179.448526 
L 777.544745 249.612556 
L 777.900014 231.472549 
L 778.255282 229.870641 
L 778.610551 178.257832 
L 778.965819 254.554481 
L 779.321088 195.8734 
L 779.676356 102.48185 
L 780.031625 227.344436 
L 780.386893 220.641012 
L 780.742162 134.120494 
L 781.097431 131.253082 
L 781.452699 124.698559 
L 781.807968 228.757325 
L 782.163236 237.397152 
L 782.518505 160.734715 
L 783.229042 248.569868 
L 783.58431 250.423774 
L 783.939579 143.080967 
L 784.294847 120.098192 
L 784.650116 240.348127 
L 785.005385 124.241473 
L 785.360653 152.553459 
L 785.715922 249.501788 
L 786.07119 142.831964 
L 786.426459 186.901692 
L 786.781727 134.10497 
L 787.136996 143.924697 
L 787.492264 258.343193 
L 787.847533 161.103861 
L 788.202801 238.293206 
L 788.55807 129.738982 
L 788.913338 134.33909 
L 789.268607 235.135389 
L 789.979144 113.728401 
L 790.689681 230.659603 
L 791.04495 252.996569 
L 791.400218 233.003127 
L 791.755487 230.731186 
L 792.110755 267.748119 
L 792.466024 104.264645 
L 792.821292 184.933744 
L 793.176561 113.477084 
L 793.53183 236.311575 
L 793.887098 156.608724 
L 794.242367 222.525996 
L 794.597635 128.028544 
L 795.308172 255.117704 
L 795.663441 212.498217 
L 796.018709 104.427807 
L 796.373978 104.959358 
L 796.729246 98.918221 
L 797.084515 238.034584 
L 797.439784 125.839117 
L 797.795052 220.32546 
L 798.505589 130.240498 
L 798.860858 117.644742 
L 799.216126 240.438255 
L 799.571395 94.300103 
L 799.926663 241.966822 
L 800.281932 249.798866 
L 800.6372 225.61823 
L 800.992469 241.777696 
L 801.347738 163.860866 
L 802.058275 231.111275 
L 802.413543 219.071309 
L 802.768812 122.290113 
L 803.12408 136.394493 
L 803.479349 220.427573 
L 803.834617 219.654201 
L 804.189886 185.949077 
L 804.545154 250.153272 
L 804.900423 245.277479 
L 805.255691 251.543357 
L 805.61096 190.177721 
L 805.966229 200.81552 
L 806.321497 135.405562 
L 806.676766 251.735747 
L 807.032034 223.414438 
L 807.387303 124.266838 
L 807.742571 221.938985 
L 808.09784 128.693453 
L 808.453108 219.987542 
L 808.808377 218.693468 
L 809.163645 246.376089 
L 809.518914 249.40369 
L 809.874183 85.633131 
L 810.229451 249.471227 
L 810.58472 200.100397 
L 810.939988 209.450041 
L 811.295257 249.459137 
L 811.650525 113.95478 
L 812.005794 144.670484 
L 812.361062 124.257583 
L 812.716331 169.563676 
L 813.071599 232.511275 
L 813.426868 217.402625 
L 813.782137 116.955025 
L 814.137405 113.933963 
L 814.492674 214.655158 
L 814.847942 227.891327 
L 815.203211 137.502054 
L 815.558479 114.066935 
L 815.913748 216.344776 
L 816.269016 92.458641 
L 816.624285 130.549505 
L 816.979553 226.480231 
L 817.334822 139.177557 
L 817.69009 126.680537 
L 818.045359 223.436624 
L 818.400628 104.01939 
L 818.755896 244.877881 
L 819.111165 238.159299 
L 819.466433 110.908368 
L 819.821702 222.035435 
L 820.17697 247.56007 
L 820.532239 118.892727 
L 820.887507 99.931471 
L 821.242776 163.86982 
L 821.598044 156.877941 
L 821.953313 224.793673 
L 822.308582 241.344196 
L 822.66385 223.534917 
L 823.019119 107.541296 
L 823.374387 187.221777 
L 823.729656 233.528427 
L 824.084924 217.248434 
L 824.440193 98.09017 
L 824.795461 216.799109 
L 825.15073 153.132474 
L 825.505998 140.585126 
L 825.861267 239.879773 
L 826.216536 96.956214 
L 826.571804 220.634789 
L 826.927073 110.113726 
L 827.282341 216.751862 
L 827.63761 135.635829 
L 827.992878 243.513387 
L 828.348147 223.008054 
L 828.703415 223.035003 
L 829.058684 227.277677 
L 829.413952 100.388335 
L 829.769221 223.743036 
L 830.12449 225.39712 
L 830.479758 97.467162 
L 830.835027 207.171773 
L 831.190295 228.118196 
L 831.545564 116.057085 
L 831.900832 228.446349 
L 832.256101 117.182091 
L 832.611369 224.104731 
L 832.966638 131.342355 
L 833.321906 83.978709 
L 833.677175 102.645371 
L 834.032443 217.575248 
L 834.387712 245.1164 
L 834.742981 231.62437 
L 835.098249 141.057782 
L 835.453518 129.439216 
L 835.808786 229.610523 
L 836.164055 244.666173 
L 836.874592 78.12 
L 837.22986 244.039041 
L 837.585129 221.247618 
L 837.940397 81.189264 
L 838.650935 235.116258 
L 839.006203 114.926841 
L 839.361472 246.141185 
L 839.71674 257.971061 
L 840.072009 115.284811 
L 840.427277 98.23975 
L 840.782546 105.196673 
L 841.137814 102.395785 
L 841.493083 239.634947 
L 841.848351 207.64058 
L 842.20362 228.565208 
L 842.558889 95.634243 
L 842.914157 245.781804 
L 843.269426 100.557699 
L 843.624694 109.368793 
L 844.335231 210.03345 
L 844.6905 212.238946 
L 845.045768 217.937916 
L 845.401037 210.664091 
L 845.756305 169.674177 
L 846.111574 89.997349 
L 846.466843 245.31668 
L 846.822111 216.69304 
L 847.17738 110.976016 
L 847.532648 219.072792 
L 847.887917 242.651321 
L 848.243185 217.597469 
L 848.598454 85.536917 
L 848.953722 102.913598 
L 849.308991 95.160937 
L 849.664259 160.187007 
L 850.019528 113.749707 
L 850.374796 220.49358 
L 850.730065 103.444065 
L 851.085334 194.411378 
L 851.440602 213.070561 
L 851.795871 220.091955 
L 852.151139 220.028739 
L 852.506408 247.590265 
L 852.861676 100.290925 
L 853.216945 128.179219 
L 853.572213 245.832587 
L 853.927482 119.953179 
L 854.638019 200.516816 
L 854.993288 240.415064 
L 855.348556 86.139702 
L 855.703825 249.01884 
L 856.059093 122.319123 
L 856.414362 206.550013 
L 857.124899 119.368763 
L 857.480167 82.612826 
L 857.835436 238.600689 
L 858.190704 208.60628 
L 858.545973 242.03616 
L 858.901242 216.825359 
L 859.25651 218.787863 
L 859.611779 99.227092 
L 859.967047 224.708574 
L 860.322316 82.786152 
L 860.677584 244.77101 
L 861.032853 214.789901 
L 861.388121 90.697793 
L 861.74339 86.463049 
L 862.098658 88.597209 
L 862.453927 244.209785 
L 863.164464 197.687357 
L 863.519733 91.567429 
L 863.875001 90.492568 
L 864.23027 110.1471 
L 864.585538 215.305896 
L 865.296075 93.225428 
L 865.651344 79.239523 
L 866.006612 84.037354 
L 866.361881 113.308252 
L 866.717149 234.226181 
L 867.072418 91.325234 
L 867.427687 222.875651 
L 867.782955 125.792685 
L 868.138224 92.938051 
L 868.493492 212.672565 
L 868.848761 218.755921 
L 869.204029 211.684206 
L 869.559298 241.480056 
L 869.914566 208.887966 
L 870.269835 96.844764 
L 870.625103 85.399025 
L 870.980372 211.067951 
L 871.335641 93.961919 
L 871.690909 167.953758 
L 871.690909 167.953758 
" clip-path="url(#p85880a1f47)" style="fill: none; stroke: #1f77b4; stroke-width: 2; stroke-linecap: square"/>
   </g>
   <g id="patch_3">
    <path d="M 126 448.56 
L 126 60.48 
" style="fill: none; stroke: #000000; stroke-width: 0.8; stroke-linejoin: miter; stroke-linecap: square"/>
   </g>
   <g id="patch_4">
    <path d="M 907.2 448.56 
L 907.2 60.48 
" style="fill: none; stroke: #000000; stroke-width: 0.8; stroke-linejoin: miter; stroke-linecap: square"/>
   </g>
   <g id="patch_5">
    <path d="M 126 448.56 
L 907.2 448.56 
" style="fill: none; stroke: #000000; stroke-width: 0.8; stroke-linejoin: miter; stroke-linecap: square"/>
   </g>
   <g id="patch_6">
    <path d="M 126 60.48 
L 907.2 60.48 
" style="fill: none; stroke: #000000; stroke-width: 0.8; stroke-linejoin: miter; stroke-linecap: square"/>
   </g>
   <g id="text_20">
    <!-- Stability of Episodic Learning (MARL) -->
    <g transform="translate(406.274063 54.48) scale(0.12 -0.12)">
     <defs>
      <path id="DejaVuSans-53" d="M 3425 4513 
L 3425 3897 
Q 3066 4069 2747 4153 
Q 2428 4238 2131 4238 
Q 1616 4238 1336 4038 
Q 1056 3838 1056 3469 
Q 1056 3159 1242 3001 
Q 1428 2844 1947 2747 
L 2328 2669 
Q 3034 2534 3370 2195 
Q 3706 1856 3706 1288 
Q 3706 609 3251 259 
Q 2797 -91 1919 -91 
Q 1588 -91 1214 -16 
Q 841 59 441 206 
L 441 856 
Q 825 641 1194 531 
Q 1563 422 1919 422 
Q 2459 422 2753 634 
Q 3047 847 3047 1241 
Q 3047 1584 2836 1778 
Q 2625 1972 2144 2069 
L 1759 2144 
Q 1053 2284 737 2584 
Q 422 2884 422 3419 
Q 422 4038 858 4394 
Q 1294 4750 2059 4750 
Q 2388 4750 2728 4690 
Q 3069 4631 3425 4513 
z
" transform="scale(0.015625)"/>
      <path id="DejaVuSans-74" d="M 1172 4494 
L 1172 3500 
L 2356 3500 
L 2356 3053 
L 1172 3053 
L 1172 1153 
Q 1172 725 1289 603 
Q 1406 481 1766 481 
L 2356 481 
L 2356 0 
L 1766 0 
Q 1100 0 847 248 
Q 594 497 594 1153 
L 594 3053 
L 172 3053 
L 172 3500 
L 594 3500 
L 594 4494 
L 1172 4494 
z
" transform="scale(0.015625)"/>
      <path id="DejaVuSans-62" d="M 3116 1747 
Q 3116 2381 2855 2742 
Q 2594 3103 2138 3103 
Q 1681 3103 1420 2742 
Q 1159 2381 1159 1747 
Q 1159 1113 1420 752 
Q 1681 391 2138 391 
Q 2594 391 2855 752 
Q 3116 1113 3116 1747 
z
M 1159 2969 
Q 1341 3281 1617 3432 
Q 1894 3584 2278 3584 
Q 2916 3584 3314 3078 
Q 3713 2572 3713 1747 
Q 3713 922 3314 415 
Q 2916 -91 2278 -91 
Q 1894 -91 1617 61 
Q 1341 213 1159 525 
L 1159 0 
L 581 0 
L 581 4863 
L 1159 4863 
L 1159 2969 
z
" transform="scale(0.015625)"/>
      <path id="DejaVuSans-79" d="M 2059 -325 
Q 1816 -950 1584 -1140 
Q 1353 -1331 966 -1331 
L 506 -1331 
L 506 -850 
L 844 -850 
Q 1081 -850 1212 -737 
Q 1344 -625 1503 -206 
L 1606 56 
L 191 3500 
L 800 3500 
L 1894 763 
L 2988 3500 
L 3597 3500 
L 2059 -325 
z
" transform="scale(0.015625)"/>
      <path id="DejaVuSans-66" d="M 2375 4863 
L 2375 4384 
L 1825 4384 
Q 1516 4384 1395 4259 
Q 1275 4134 1275 3809 
L 1275 3500 
L 2222 3500 
L 2222 3053 
L 1275 3053 
L 1275 0 
L 697 0 
L 697 3053 
L 147 3053 
L 147 3500 
L 697 3500 
L 697 3744 
Q 697 4328 969 4595 
Q 1241 4863 1831 4863 
L 2375 4863 
z
" transform="scale(0.015625)"/>
      <path id="DejaVuSans-63" d="M 3122 3366 
L 3122 2828 
Q 2878 2963 2633 3030 
Q 2388 3097 2138 3097 
Q 1578 3097 1268 2742 
Q 959 2388 959 1747 
Q 959 1106 1268 751 
Q 1578 397 2138 397 
Q 2388 397 2633 464 
Q 2878 531 3122 666 
L 3122 134 
Q 2881 22 2623 -34 
Q 2366 -91 2075 -91 
Q 1284 -91 818 406 
Q 353 903 353 1747 
Q 353 2603 823 3093 
Q 1294 3584 2113 3584 
Q 2378 3584 2631 3529 
Q 2884 3475 3122 3366 
z
" transform="scale(0.015625)"/>
      <path id="DejaVuSans-4c" d="M 628 4666 
L 1259 4666 
L 1259 531 
L 3531 531 
L 3531 0 
L 628 0 
L 628 4666 
z
" transform="scale(0.015625)"/>
      <path id="DejaVuSans-28" d="M 1984 4856 
Q 1566 4138 1362 3434 
Q 1159 2731 1159 2009 
Q 1159 1288 1364 580 
Q 1569 -128 1984 -844 
L 1484 -844 
Q 1016 -109 783 600 
Q 550 1309 550 2009 
Q 550 2706 781 3412 
Q 1013 4119 1484 4856 
L 1984 4856 
z
" transform="scale(0.015625)"/>
      <path id="DejaVuSans-41" d="M 2188 4044 
L 1331 1722 
L 3047 1722 
L 2188 4044 
z
M 1831 4666 
L 2547 4666 
L 4325 0 
L 3669 0 
L 3244 1197 
L 1141 1197 
L 716 0 
L 50 0 
L 1831 4666 
z
" transform="scale(0.015625)"/>
      <path id="DejaVuSans-29" d="M 513 4856 
L 1013 4856 
Q 1481 4119 1714 3412 
Q 1947 2706 1947 2009 
Q 1947 1309 1714 600 
Q 1481 -109 1013 -844 
L 513 -844 
Q 928 -128 1133 580 
Q 1338 1288 1338 2009 
Q 1338 2731 1133 3434 
Q 928 4138 513 4856 
z
" transform="scale(0.015625)"/>
     </defs>
     <use xlink:href="#DejaVuSans-53"/>
     <use xlink:href="#DejaVuSans-74" x="63.476562"/>
     <use xlink:href="#DejaVuSans-61" x="102.685547"/>
     <use xlink:href="#DejaVuSans-62" x="163.964844"/>
     <use xlink:href="#DejaVuSans-69" x="227.441406"/>
     <use xlink:href="#DejaVuSans-6c" x="255.224609"/>
     <use xlink:href="#DejaVuSans-69" x="283.007812"/>
     <use xlink:href="#DejaVuSans-74" x="310.791016"/>
     <use xlink:href="#DejaVuSans-79" x="350"/>
     <use xlink:href="#DejaVuSans-20" x="409.179688"/>
     <use xlink:href="#DejaVuSans-6f" x="440.966797"/>
     <use xlink:href="#DejaVuSans-66" x="502.148438"/>
     <use xlink:href="#DejaVuSans-20" x="537.353516"/>
     <use xlink:href="#DejaVuSans-45" x="569.140625"/>
     <use xlink:href="#DejaVuSans-70" x="632.324219"/>
     <use xlink:href="#DejaVuSans-69" x="695.800781"/>
     <use xlink:href="#DejaVuSans-73" x="723.583984"/>
     <use xlink:href="#DejaVuSans-6f" x="775.683594"/>
     <use xlink:href="#DejaVuSans-64" x="836.865234"/>
     <use xlink:href="#DejaVuSans-69" x="900.341797"/>
     <use xlink:href="#DejaVuSans-63" x="928.125"/>
     <use xlink:href="#DejaVuSans-20" x="983.105469"/>
     <use xlink:href="#DejaVuSans-4c" x="1014.892578"/>
     <use xlink:href="#DejaVuSans-65" x="1068.855469"/>
     <use xlink:href="#DejaVuSans-61" x="1130.378906"/>
     <use xlink:href="#DejaVuSans-72" x="1191.658203"/>
     <use xlink:href="#DejaVuSans-6e" x="1231.021484"/>
     <use xlink:href="#DejaVuSans-69" x="1294.400391"/>
     <use xlink:href="#DejaVuSans-6e" x="1322.183594"/>
     <use xlink:href="#DejaVuSans-67" x="1385.5625"/>
     <use xlink:href="#DejaVuSans-20" x="1449.039062"/>
     <use xlink:href="#DejaVuSans-28" x="1480.826172"/>
     <use xlink:href="#DejaVuSans-4d" x="1519.839844"/>
     <use xlink:href="#DejaVuSans-41" x="1606.119141"/>
     <use xlink:href="#DejaVuSans-52" x="1674.527344"/>
     <use xlink:href="#DejaVuSans-4c" x="1744.009766"/>
     <use xlink:href="#DejaVuSans-29" x="1799.722656"/>
    </g>
   </g>
   <g id="legend_1">
    <g id="patch_7">
     <path d="M 133 83.158125 
L 299.526563 83.158125 
Q 301.526563 83.158125 301.526563 81.158125 
L 301.526563 67.48 
Q 301.526563 65.48 299.526563 65.48 
L 133 65.48 
Q 131 65.48 131 67.48 
L 131 81.158125 
Q 131 83.158125 133 83.158125 
z
" style="fill: #ffffff; opacity: 0.8; stroke: #cccccc; stroke-linejoin: miter"/>
    </g>
    <g id="line2d_36">
     <path d="M 135 73.578438 
L 145 73.578438 
L 155 73.578438 
" style="fill: none; stroke: #1f77b4; stroke-width: 2; stroke-linecap: square"/>
    </g>
    <g id="text_21">
     <!-- Rolling Mean Reward (24h) -->
     <g transform="translate(163 77.078438) scale(0.1 -0.1)">
      <defs>
       <path id="DejaVuSans-34" d="M 2419 4116 
L 825 1625 
L 2419 1625 
L 2419 4116 
z
M 2253 4666 
L 3047 4666 
L 3047 1625 
L 3713 1625 
L 3713 1100 
L 3047 1100 
L 3047 0 
L 2419 0 
L 2419 1100 
L 313 1100 
L 313 1709 
L 2253 4666 
z
" transform="scale(0.015625)"/>
       <path id="DejaVuSans-68" d="M 3513 2113 
L 3513 0 
L 2938 0 
L 2938 2094 
Q 2938 2591 2744 2837 
Q 2550 3084 2163 3084 
Q 1697 3084 1428 2787 
Q 1159 2491 1159 1978 
L 1159 0 
L 581 0 
L 581 4863 
L 1159 4863 
L 1159 2956 
Q 1366 3272 1645 3428 
Q 1925 3584 2291 3584 
Q 2894 3584 3203 3211 
Q 3513 2838 3513 2113 
z
" transform="scale(0.015625)"/>
      </defs>
      <use xlink:href="#DejaVuSans-52"/>
      <use xlink:href="#DejaVuSans-6f" x="64.982422"/>
      <use xlink:href="#DejaVuSans-6c" x="126.164062"/>
      <use xlink:href="#DejaVuSans-6c" x="153.947266"/>
      <use xlink:href="#DejaVuSans-69" x="181.730469"/>
      <use xlink:href="#DejaVuSans-6e" x="209.513672"/>
      <use xlink:href="#DejaVuSans-67" x="272.892578"/>
      <use xlink:href="#DejaVuSans-20" x="336.369141"/>
      <use xlink:href="#DejaVuSans-4d" x="368.15625"/>
      <use xlink:href="#DejaVuSans-65" x="454.435547"/>
      <use xlink:href="#DejaVuSans-61" x="515.958984"/>
      <use xlink:href="#DejaVuSans-6e" x="577.238281"/>
      <use xlink:href="#DejaVuSans-20" x="640.617188"/>
      <use xlink:href="#DejaVuSans-52" x="672.404297"/>
      <use xlink:href="#DejaVuSans-65" x="737.386719"/>
      <use xlink:href="#DejaVuSans-77" x="798.910156"/>
      <use xlink:href="#DejaVuSans-61" x="880.697266"/>
      <use xlink:href="#DejaVuSans-72" x="941.976562"/>
      <use xlink:href="#DejaVuSans-64" x="981.339844"/>
      <use xlink:href="#DejaVuSans-20" x="1044.816406"/>
      <use xlink:href="#DejaVuSans-28" x="1076.603516"/>
      <use xlink:href="#DejaVuSans-32" x="1115.617188"/>
      <use xlink:href="#DejaVuSans-34" x="1179.240234"/>
      <use xlink:href="#DejaVuSans-68" x="1242.863281"/>
      <use xlink:href="#DejaVuSans-29" x="1306.242188"/>
     </g>
    </g>
   </g>
  </g>
 </g>
 <defs>
  <clipPath id="p85880a1f47">
   <rect x="126" y="60.48" width="781.2" height="388.08"/>
  </clipPath>
 </defs>
</svg>
